<?xml version="1.0" encoding="utf-8" standalone="no"?>
<!DOCTYPE svg PUBLIC "-//W3C//DTD SVG 1.1//EN"
  "http://www.w3.org/Graphics/SVG/1.1/DTD/svg11.dtd">
<svg height="288pt" version="1.1" viewBox="0 0 432 288" width="432pt" xmlns="http://www.w3.org/2000/svg" xmlns:xlink="http://www.w3.org/1999/xlink">
 <metadata>
  <rdf:RDF xmlns:cc="http://creativecommons.org/ns#" xmlns:dc="http://purl.org/dc/elements/1.1/" xmlns:rdf="http://www.w3.org/1999/02/22-rdf-syntax-ns#">
   <cc:Work>
    <dc:type rdf:resource="http://purl.org/dc/dcmitype/StillImage"/>
    <dc:date>2022-05-26T23:33:20.683511</dc:date>
    <dc:format>image/svg+xml</dc:format>
    <dc:creator>
     <cc:Agent>
      <dc:title>Matplotlib v3.4.0, https://matplotlib.org/</dc:title>
     </cc:Agent>
    </dc:creator>
   </cc:Work>
  </rdf:RDF>
 </metadata>
 <defs>
  <style type="text/css">*{stroke-linecap:butt;stroke-linejoin:round;}</style>
 </defs>
 <g id="figure_1">
  <g id="patch_1">
   <path d="M 0 288 
L 432 288 
L 432 0 
L 0 0 
z
" style="fill:#ffffff;"/>
  </g>
  <g id="axes_1">
   <g id="patch_2">
    <path d="M 54 252 
L 388.8 252 
L 388.8 34.56 
L 54 34.56 
z
" style="fill:#ffffff;"/>
   </g>
   <g id="matplotlib.axis_1">
    <g id="xtick_1">
     <g id="line2d_1">
      <path clip-path="url(#p5f049a3595)" d="M 54 252 
L 54 34.56 
" style="fill:none;stroke:#cccccc;stroke-linecap:round;stroke-width:0.8;"/>
     </g>
     <g id="text_1">
      <!-- 0.00024 -->
      <g style="fill:#262626;" transform="translate(33.323437 266.598437)scale(0.1 -0.1)">
       <defs>
        <path d="M 2034 4250 
Q 1547 4250 1301 3770 
Q 1056 3291 1056 2328 
Q 1056 1369 1301 889 
Q 1547 409 2034 409 
Q 2525 409 2770 889 
Q 3016 1369 3016 2328 
Q 3016 3291 2770 3770 
Q 2525 4250 2034 4250 
z
M 2034 4750 
Q 2819 4750 3233 4129 
Q 3647 3509 3647 2328 
Q 3647 1150 3233 529 
Q 2819 -91 2034 -91 
Q 1250 -91 836 529 
Q 422 1150 422 2328 
Q 422 3509 836 4129 
Q 1250 4750 2034 4750 
z
" id="DejaVuSans-30" transform="scale(0.015625)"/>
        <path d="M 684 794 
L 1344 794 
L 1344 0 
L 684 0 
L 684 794 
z
" id="DejaVuSans-2e" transform="scale(0.015625)"/>
        <path d="M 1228 531 
L 3431 531 
L 3431 0 
L 469 0 
L 469 531 
Q 828 903 1448 1529 
Q 2069 2156 2228 2338 
Q 2531 2678 2651 2914 
Q 2772 3150 2772 3378 
Q 2772 3750 2511 3984 
Q 2250 4219 1831 4219 
Q 1534 4219 1204 4116 
Q 875 4013 500 3803 
L 500 4441 
Q 881 4594 1212 4672 
Q 1544 4750 1819 4750 
Q 2544 4750 2975 4387 
Q 3406 4025 3406 3419 
Q 3406 3131 3298 2873 
Q 3191 2616 2906 2266 
Q 2828 2175 2409 1742 
Q 1991 1309 1228 531 
z
" id="DejaVuSans-32" transform="scale(0.015625)"/>
        <path d="M 2419 4116 
L 825 1625 
L 2419 1625 
L 2419 4116 
z
M 2253 4666 
L 3047 4666 
L 3047 1625 
L 3713 1625 
L 3713 1100 
L 3047 1100 
L 3047 0 
L 2419 0 
L 2419 1100 
L 313 1100 
L 313 1709 
L 2253 4666 
z
" id="DejaVuSans-34" transform="scale(0.015625)"/>
       </defs>
       <use xlink:href="#DejaVuSans-30"/>
       <use x="63.623047" xlink:href="#DejaVuSans-2e"/>
       <use x="95.410156" xlink:href="#DejaVuSans-30"/>
       <use x="159.033203" xlink:href="#DejaVuSans-30"/>
       <use x="222.65625" xlink:href="#DejaVuSans-30"/>
       <use x="286.279297" xlink:href="#DejaVuSans-32"/>
       <use x="349.902344" xlink:href="#DejaVuSans-34"/>
      </g>
     </g>
    </g>
    <g id="xtick_2">
     <g id="line2d_2">
      <path clip-path="url(#p5f049a3595)" d="M 120.96 252 
L 120.96 34.56 
" style="fill:none;stroke:#cccccc;stroke-linecap:round;stroke-width:0.8;"/>
     </g>
     <g id="text_2">
      <!-- 0.00026 -->
      <g style="fill:#262626;" transform="translate(100.283438 266.598437)scale(0.1 -0.1)">
       <defs>
        <path d="M 2113 2584 
Q 1688 2584 1439 2293 
Q 1191 2003 1191 1497 
Q 1191 994 1439 701 
Q 1688 409 2113 409 
Q 2538 409 2786 701 
Q 3034 994 3034 1497 
Q 3034 2003 2786 2293 
Q 2538 2584 2113 2584 
z
M 3366 4563 
L 3366 3988 
Q 3128 4100 2886 4159 
Q 2644 4219 2406 4219 
Q 1781 4219 1451 3797 
Q 1122 3375 1075 2522 
Q 1259 2794 1537 2939 
Q 1816 3084 2150 3084 
Q 2853 3084 3261 2657 
Q 3669 2231 3669 1497 
Q 3669 778 3244 343 
Q 2819 -91 2113 -91 
Q 1303 -91 875 529 
Q 447 1150 447 2328 
Q 447 3434 972 4092 
Q 1497 4750 2381 4750 
Q 2619 4750 2861 4703 
Q 3103 4656 3366 4563 
z
" id="DejaVuSans-36" transform="scale(0.015625)"/>
       </defs>
       <use xlink:href="#DejaVuSans-30"/>
       <use x="63.623047" xlink:href="#DejaVuSans-2e"/>
       <use x="95.410156" xlink:href="#DejaVuSans-30"/>
       <use x="159.033203" xlink:href="#DejaVuSans-30"/>
       <use x="222.65625" xlink:href="#DejaVuSans-30"/>
       <use x="286.279297" xlink:href="#DejaVuSans-32"/>
       <use x="349.902344" xlink:href="#DejaVuSans-36"/>
      </g>
     </g>
    </g>
    <g id="xtick_3">
     <g id="line2d_3">
      <path clip-path="url(#p5f049a3595)" d="M 187.92 252 
L 187.92 34.56 
" style="fill:none;stroke:#cccccc;stroke-linecap:round;stroke-width:0.8;"/>
     </g>
     <g id="text_3">
      <!-- 0.00028 -->
      <g style="fill:#262626;" transform="translate(167.243438 266.598437)scale(0.1 -0.1)">
       <defs>
        <path d="M 2034 2216 
Q 1584 2216 1326 1975 
Q 1069 1734 1069 1313 
Q 1069 891 1326 650 
Q 1584 409 2034 409 
Q 2484 409 2743 651 
Q 3003 894 3003 1313 
Q 3003 1734 2745 1975 
Q 2488 2216 2034 2216 
z
M 1403 2484 
Q 997 2584 770 2862 
Q 544 3141 544 3541 
Q 544 4100 942 4425 
Q 1341 4750 2034 4750 
Q 2731 4750 3128 4425 
Q 3525 4100 3525 3541 
Q 3525 3141 3298 2862 
Q 3072 2584 2669 2484 
Q 3125 2378 3379 2068 
Q 3634 1759 3634 1313 
Q 3634 634 3220 271 
Q 2806 -91 2034 -91 
Q 1263 -91 848 271 
Q 434 634 434 1313 
Q 434 1759 690 2068 
Q 947 2378 1403 2484 
z
M 1172 3481 
Q 1172 3119 1398 2916 
Q 1625 2713 2034 2713 
Q 2441 2713 2670 2916 
Q 2900 3119 2900 3481 
Q 2900 3844 2670 4047 
Q 2441 4250 2034 4250 
Q 1625 4250 1398 4047 
Q 1172 3844 1172 3481 
z
" id="DejaVuSans-38" transform="scale(0.015625)"/>
       </defs>
       <use xlink:href="#DejaVuSans-30"/>
       <use x="63.623047" xlink:href="#DejaVuSans-2e"/>
       <use x="95.410156" xlink:href="#DejaVuSans-30"/>
       <use x="159.033203" xlink:href="#DejaVuSans-30"/>
       <use x="222.65625" xlink:href="#DejaVuSans-30"/>
       <use x="286.279297" xlink:href="#DejaVuSans-32"/>
       <use x="349.902344" xlink:href="#DejaVuSans-38"/>
      </g>
     </g>
    </g>
    <g id="xtick_4">
     <g id="line2d_4">
      <path clip-path="url(#p5f049a3595)" d="M 254.88 252 
L 254.88 34.56 
" style="fill:none;stroke:#cccccc;stroke-linecap:round;stroke-width:0.8;"/>
     </g>
     <g id="text_4">
      <!-- 0.00030 -->
      <g style="fill:#262626;" transform="translate(234.203438 266.598437)scale(0.1 -0.1)">
       <defs>
        <path d="M 2597 2516 
Q 3050 2419 3304 2112 
Q 3559 1806 3559 1356 
Q 3559 666 3084 287 
Q 2609 -91 1734 -91 
Q 1441 -91 1130 -33 
Q 819 25 488 141 
L 488 750 
Q 750 597 1062 519 
Q 1375 441 1716 441 
Q 2309 441 2620 675 
Q 2931 909 2931 1356 
Q 2931 1769 2642 2001 
Q 2353 2234 1838 2234 
L 1294 2234 
L 1294 2753 
L 1863 2753 
Q 2328 2753 2575 2939 
Q 2822 3125 2822 3475 
Q 2822 3834 2567 4026 
Q 2313 4219 1838 4219 
Q 1578 4219 1281 4162 
Q 984 4106 628 3988 
L 628 4550 
Q 988 4650 1302 4700 
Q 1616 4750 1894 4750 
Q 2613 4750 3031 4423 
Q 3450 4097 3450 3541 
Q 3450 3153 3228 2886 
Q 3006 2619 2597 2516 
z
" id="DejaVuSans-33" transform="scale(0.015625)"/>
       </defs>
       <use xlink:href="#DejaVuSans-30"/>
       <use x="63.623047" xlink:href="#DejaVuSans-2e"/>
       <use x="95.410156" xlink:href="#DejaVuSans-30"/>
       <use x="159.033203" xlink:href="#DejaVuSans-30"/>
       <use x="222.65625" xlink:href="#DejaVuSans-30"/>
       <use x="286.279297" xlink:href="#DejaVuSans-33"/>
       <use x="349.902344" xlink:href="#DejaVuSans-30"/>
      </g>
     </g>
    </g>
    <g id="xtick_5">
     <g id="line2d_5">
      <path clip-path="url(#p5f049a3595)" d="M 321.84 252 
L 321.84 34.56 
" style="fill:none;stroke:#cccccc;stroke-linecap:round;stroke-width:0.8;"/>
     </g>
     <g id="text_5">
      <!-- 0.00032 -->
      <g style="fill:#262626;" transform="translate(301.163438 266.598437)scale(0.1 -0.1)">
       <use xlink:href="#DejaVuSans-30"/>
       <use x="63.623047" xlink:href="#DejaVuSans-2e"/>
       <use x="95.410156" xlink:href="#DejaVuSans-30"/>
       <use x="159.033203" xlink:href="#DejaVuSans-30"/>
       <use x="222.65625" xlink:href="#DejaVuSans-30"/>
       <use x="286.279297" xlink:href="#DejaVuSans-33"/>
       <use x="349.902344" xlink:href="#DejaVuSans-32"/>
      </g>
     </g>
    </g>
    <g id="xtick_6">
     <g id="line2d_6">
      <path clip-path="url(#p5f049a3595)" d="M 388.8 252 
L 388.8 34.56 
" style="fill:none;stroke:#cccccc;stroke-linecap:round;stroke-width:0.8;"/>
     </g>
     <g id="text_6">
      <!-- 0.00034 -->
      <g style="fill:#262626;" transform="translate(368.123438 266.598437)scale(0.1 -0.1)">
       <use xlink:href="#DejaVuSans-30"/>
       <use x="63.623047" xlink:href="#DejaVuSans-2e"/>
       <use x="95.410156" xlink:href="#DejaVuSans-30"/>
       <use x="159.033203" xlink:href="#DejaVuSans-30"/>
       <use x="222.65625" xlink:href="#DejaVuSans-30"/>
       <use x="286.279297" xlink:href="#DejaVuSans-33"/>
       <use x="349.902344" xlink:href="#DejaVuSans-34"/>
      </g>
     </g>
    </g>
   </g>
   <g id="matplotlib.axis_2">
    <g id="ytick_1">
     <g id="line2d_7">
      <path clip-path="url(#p5f049a3595)" d="M 54 230.256 
L 388.8 230.256 
" style="fill:none;stroke:#cccccc;stroke-linecap:round;stroke-width:0.8;"/>
     </g>
     <g id="text_7">
      <!-- 0.007 -->
      <g style="fill:#262626;" transform="translate(18.371875 234.055219)scale(0.1 -0.1)">
       <defs>
        <path d="M 525 4666 
L 3525 4666 
L 3525 4397 
L 1831 0 
L 1172 0 
L 2766 4134 
L 525 4134 
L 525 4666 
z
" id="DejaVuSans-37" transform="scale(0.015625)"/>
       </defs>
       <use xlink:href="#DejaVuSans-30"/>
       <use x="63.623047" xlink:href="#DejaVuSans-2e"/>
       <use x="95.410156" xlink:href="#DejaVuSans-30"/>
       <use x="159.033203" xlink:href="#DejaVuSans-30"/>
       <use x="222.65625" xlink:href="#DejaVuSans-37"/>
      </g>
     </g>
    </g>
    <g id="ytick_2">
     <g id="line2d_8">
      <path clip-path="url(#p5f049a3595)" d="M 54 186.768 
L 388.8 186.768 
" style="fill:none;stroke:#cccccc;stroke-linecap:round;stroke-width:0.8;"/>
     </g>
     <g id="text_8">
      <!-- 0.008 -->
      <g style="fill:#262626;" transform="translate(18.371875 190.567219)scale(0.1 -0.1)">
       <use xlink:href="#DejaVuSans-30"/>
       <use x="63.623047" xlink:href="#DejaVuSans-2e"/>
       <use x="95.410156" xlink:href="#DejaVuSans-30"/>
       <use x="159.033203" xlink:href="#DejaVuSans-30"/>
       <use x="222.65625" xlink:href="#DejaVuSans-38"/>
      </g>
     </g>
    </g>
    <g id="ytick_3">
     <g id="line2d_9">
      <path clip-path="url(#p5f049a3595)" d="M 54 143.28 
L 388.8 143.28 
" style="fill:none;stroke:#cccccc;stroke-linecap:round;stroke-width:0.8;"/>
     </g>
     <g id="text_9">
      <!-- 0.009 -->
      <g style="fill:#262626;" transform="translate(18.371875 147.079219)scale(0.1 -0.1)">
       <defs>
        <path d="M 703 97 
L 703 672 
Q 941 559 1184 500 
Q 1428 441 1663 441 
Q 2288 441 2617 861 
Q 2947 1281 2994 2138 
Q 2813 1869 2534 1725 
Q 2256 1581 1919 1581 
Q 1219 1581 811 2004 
Q 403 2428 403 3163 
Q 403 3881 828 4315 
Q 1253 4750 1959 4750 
Q 2769 4750 3195 4129 
Q 3622 3509 3622 2328 
Q 3622 1225 3098 567 
Q 2575 -91 1691 -91 
Q 1453 -91 1209 -44 
Q 966 3 703 97 
z
M 1959 2075 
Q 2384 2075 2632 2365 
Q 2881 2656 2881 3163 
Q 2881 3666 2632 3958 
Q 2384 4250 1959 4250 
Q 1534 4250 1286 3958 
Q 1038 3666 1038 3163 
Q 1038 2656 1286 2365 
Q 1534 2075 1959 2075 
z
" id="DejaVuSans-39" transform="scale(0.015625)"/>
       </defs>
       <use xlink:href="#DejaVuSans-30"/>
       <use x="63.623047" xlink:href="#DejaVuSans-2e"/>
       <use x="95.410156" xlink:href="#DejaVuSans-30"/>
       <use x="159.033203" xlink:href="#DejaVuSans-30"/>
       <use x="222.65625" xlink:href="#DejaVuSans-39"/>
      </g>
     </g>
    </g>
    <g id="ytick_4">
     <g id="line2d_10">
      <path clip-path="url(#p5f049a3595)" d="M 54 99.792 
L 388.8 99.792 
" style="fill:none;stroke:#cccccc;stroke-linecap:round;stroke-width:0.8;"/>
     </g>
     <g id="text_10">
      <!-- 0.010 -->
      <g style="fill:#262626;" transform="translate(18.371875 103.591219)scale(0.1 -0.1)">
       <defs>
        <path d="M 794 531 
L 1825 531 
L 1825 4091 
L 703 3866 
L 703 4441 
L 1819 4666 
L 2450 4666 
L 2450 531 
L 3481 531 
L 3481 0 
L 794 0 
L 794 531 
z
" id="DejaVuSans-31" transform="scale(0.015625)"/>
       </defs>
       <use xlink:href="#DejaVuSans-30"/>
       <use x="63.623047" xlink:href="#DejaVuSans-2e"/>
       <use x="95.410156" xlink:href="#DejaVuSans-30"/>
       <use x="159.033203" xlink:href="#DejaVuSans-31"/>
       <use x="222.65625" xlink:href="#DejaVuSans-30"/>
      </g>
     </g>
    </g>
    <g id="ytick_5">
     <g id="line2d_11">
      <path clip-path="url(#p5f049a3595)" d="M 54 56.304 
L 388.8 56.304 
" style="fill:none;stroke:#cccccc;stroke-linecap:round;stroke-width:0.8;"/>
     </g>
     <g id="text_11">
      <!-- 0.011 -->
      <g style="fill:#262626;" transform="translate(18.371875 60.103219)scale(0.1 -0.1)">
       <use xlink:href="#DejaVuSans-30"/>
       <use x="63.623047" xlink:href="#DejaVuSans-2e"/>
       <use x="95.410156" xlink:href="#DejaVuSans-30"/>
       <use x="159.033203" xlink:href="#DejaVuSans-31"/>
       <use x="222.65625" xlink:href="#DejaVuSans-31"/>
      </g>
     </g>
    </g>
   </g>
   <g id="line2d_12">
    <path clip-path="url(#p5f049a3595)" d="M 53.963901 182.695815 
L 54.15223 172.448972 
L 54.277783 188.615615 
L 54.403336 169.210322 
L 54.654441 195.623828 
L 54.717218 194.004482 
L 54.905547 184.846073 
L 55.0311 188.615615 
L 55.093876 187.553791 
L 55.219429 186.465357 
L 55.282205 181.607422 
L 55.407758 188.084683 
L 55.470534 184.846073 
L 55.533311 186.465357 
L 55.596087 192.942658 
L 55.658864 189.704008 
L 55.72164 191.854265 
L 55.784416 186.99629 
L 55.847193 189.173076 
L 55.909969 186.99629 
L 56.035522 198.331526 
L 56.223851 185.934466 
L 56.286628 188.615615 
L 56.41218 189.173076 
L 56.474957 191.323333 
L 56.537733 199.39339 
L 56.60051 197.774065 
L 56.726062 194.004482 
L 56.788839 185.934466 
L 56.851615 190.765872 
L 56.914392 191.854265 
L 57.039944 189.173076 
L 57.102721 186.465357 
L 57.165497 188.084683 
L 57.353826 199.950851 
L 57.416603 197.774065 
L 57.793261 184.846073 
L 57.856038 186.465357 
L 57.98159 175.15669 
L 58.16992 188.084683 
L 58.295472 188.084683 
L 58.358249 177.837839 
L 58.421025 179.457165 
L 58.546578 189.173076 
L 58.672131 185.934466 
L 58.734907 186.465357 
L 58.923237 189.704008 
L 59.048789 185.934466 
L 59.174342 191.323333 
L 59.237119 190.23494 
L 59.425448 182.695815 
L 59.488224 183.226747 
L 59.613777 189.704008 
L 59.927659 175.687622 
L 60.053212 178.368772 
L 60.178765 171.91804 
L 60.492647 192.385198 
L 60.743752 171.91804 
L 60.869305 170.298755 
L 60.994858 182.695815 
L 61.057634 181.607422 
L 61.120411 182.164883 
L 61.30874 170.298755 
L 61.371516 170.829647 
L 61.497069 186.465357 
L 61.559845 185.934466 
L 61.622622 179.988097 
L 61.748175 191.854265 
L 61.810951 189.173076 
L 61.936504 179.988097 
L 62.062057 185.376964 
L 62.124833 182.695815 
L 62.250386 190.23494 
L 62.438715 181.607422 
L 62.501491 176.776015 
L 62.815373 200.481783 
L 62.940926 179.988097 
L 63.003703 180.545558 
L 63.192032 191.854265 
L 63.254808 193.473591 
L 63.443137 184.31514 
L 63.505914 183.784208 
L 63.56869 187.553791 
L 63.631467 186.99629 
L 63.819796 177.837839 
L 64.133678 191.854265 
L 64.196454 190.23494 
L 64.259231 193.473591 
L 64.384783 188.084683 
L 64.510336 196.712221 
L 64.761442 175.687622 
L 64.824218 181.07649 
L 64.886995 185.376964 
L 65.012547 177.306948 
L 65.1381 184.846073 
L 65.200877 184.31514 
L 65.32643 191.323333 
L 65.389206 188.615615 
L 65.451982 183.784208 
L 65.514759 184.846073 
L 65.577535 184.31514 
L 65.640312 192.385198 
L 65.703088 188.615615 
L 65.765864 191.323333 
L 65.828641 199.39339 
L 66.01697 183.226747 
L 66.079746 182.695815 
L 66.268076 175.15669 
L 66.393628 185.376964 
L 66.456405 182.164883 
L 66.519181 182.695815 
L 66.70751 190.23494 
L 66.770287 187.553791 
L 66.89584 193.473591 
L 66.958616 192.385198 
L 67.021392 186.99629 
L 67.084169 191.323333 
L 67.146945 189.704008 
L 67.209722 182.164883 
L 67.272498 188.615615 
L 67.335274 186.465357 
L 67.523604 179.988097 
L 67.774709 189.704008 
L 67.837486 188.615615 
L 67.963038 177.837839 
L 68.025815 179.988097 
L 68.151368 176.776015 
L 68.214144 182.695815 
L 68.27692 181.07649 
L 68.46525 172.448972 
L 68.590802 176.218555 
L 68.779132 183.226747 
L 68.904684 180.545558 
L 69.15579 191.323333 
L 69.218566 195.092895 
L 69.281343 192.942658 
L 69.469672 182.164883 
L 69.532448 182.695815 
L 69.595225 184.31514 
L 69.658001 180.545558 
L 69.720778 182.695815 
L 69.909107 174.59923 
L 69.971883 186.465357 
L 70.03466 179.457165 
L 70.160212 171.360579 
L 70.474094 183.784208 
L 70.599647 168.67943 
L 70.850753 195.092895 
L 71.039082 188.084683 
L 71.101858 189.173076 
L 71.227411 176.218555 
L 71.541293 196.181288 
L 71.60407 192.385198 
L 71.792399 172.979904 
L 72.043505 185.376964 
L 72.106281 183.784208 
L 72.169057 185.376964 
L 72.231834 192.385198 
L 72.29461 187.553791 
L 72.420163 174.068297 
L 72.482939 184.31514 
L 72.545716 183.226747 
L 72.608492 184.846073 
L 72.734045 172.979904 
L 72.859598 201.570176 
L 73.047927 182.695815 
L 73.110703 182.164883 
L 73.236256 188.084683 
L 73.299033 195.623828 
L 73.361809 190.765872 
L 73.424585 182.164883 
L 73.487362 185.934466 
L 73.612915 196.712221 
L 73.675691 191.854265 
L 73.801244 171.91804 
L 73.989573 186.465357 
L 74.115126 174.59923 
L 74.177902 172.448972 
L 74.366231 187.553791 
L 74.429008 181.607422 
L 74.554561 180.545558 
L 74.617337 182.164883 
L 74.74289 191.854265 
L 74.931219 182.695815 
L 74.993995 188.084683 
L 75.245101 176.776015 
L 75.307877 189.704008 
L 75.370654 185.376964 
L 75.496207 172.979904 
L 75.684536 181.07649 
L 75.810089 170.829647 
L 75.998418 183.226747 
L 76.123971 164.909847 
L 76.186747 167.060105 
L 76.3123 185.934466 
L 76.375076 182.164883 
L 76.500629 168.148498 
L 76.751735 184.846073 
L 76.940064 177.306948 
L 77.00284 185.376964 
L 77.128393 178.368772 
L 77.191169 181.07649 
L 77.253946 176.218555 
L 77.379499 184.846073 
L 77.505051 174.59923 
L 77.567828 175.687622 
L 77.630604 181.607422 
L 77.693381 178.926273 
L 77.818933 169.210322 
L 78.132816 183.226747 
L 78.195592 183.784208 
L 78.383921 173.537365 
L 78.446698 175.15669 
L 78.57225 181.07649 
L 78.635027 181.607422 
L 78.76058 171.91804 
L 78.823356 172.448972 
L 79.011685 189.704008 
L 79.200014 176.776015 
L 79.262791 172.979904 
L 79.45112 182.164883 
L 79.513896 181.07649 
L 79.576673 185.376964 
L 79.639449 183.226747 
L 79.702226 178.368772 
L 79.765002 183.226747 
L 79.827778 177.837839 
L 80.016108 186.465357 
L 80.078884 184.846073 
L 80.455542 191.854265 
L 80.643872 181.07649 
L 80.706648 181.607422 
L 80.832201 182.695815 
L 80.894977 188.615615 
L 80.957754 184.846073 
L 81.083306 171.91804 
L 81.208859 187.553791 
L 81.271636 186.465357 
L 81.334412 186.465357 
L 81.459965 181.07649 
L 81.71107 196.181288 
L 81.773847 186.99629 
L 81.836623 189.173076 
L 81.962176 187.553791 
L 82.024952 191.854265 
L 82.087729 185.934466 
L 82.150505 192.942658 
L 82.338834 183.226747 
L 82.401611 179.988097 
L 82.652716 194.561983 
L 82.778269 181.07649 
L 82.841046 184.846073 
L 82.966598 176.218555 
L 83.029375 177.306948 
L 83.154928 194.004482 
L 83.217704 189.704008 
L 83.28048 183.226747 
L 83.343257 188.084683 
L 83.46881 194.561983 
L 83.531586 191.323333 
L 83.594362 189.173076 
L 83.719915 193.473591 
L 83.782692 191.854265 
L 83.845468 191.323333 
L 83.971021 182.164883 
L 84.096574 198.331526 
L 84.222126 185.376964 
L 84.410456 194.004482 
L 84.536009 181.607422 
L 84.661561 189.173076 
L 84.724338 183.226747 
L 84.787114 185.376964 
L 84.849891 185.934466 
L 84.975443 192.385198 
L 85.03822 191.854265 
L 85.163773 197.774065 
L 85.226549 195.092895 
L 85.289325 187.553791 
L 85.352102 189.173076 
L 85.414878 190.23494 
L 85.477655 189.704008 
L 85.540431 186.99629 
L 85.603207 191.323333 
L 85.72876 180.545558 
L 85.791537 181.607422 
L 85.854313 188.084683 
L 85.917089 186.465357 
L 86.042642 172.979904 
L 86.168195 189.704008 
L 86.230971 187.553791 
L 86.293748 185.934466 
L 86.356524 178.368772 
L 86.419301 183.784208 
L 86.482077 190.765872 
L 86.544853 186.99629 
L 86.60763 186.99629 
L 86.733183 189.704008 
L 86.984288 178.926273 
L 87.172617 185.934466 
L 87.235394 174.59923 
L 87.29817 175.15669 
L 87.423723 180.545558 
L 87.549276 175.687622 
L 87.612052 177.306948 
L 87.674829 175.687622 
L 87.737605 177.306948 
L 87.988711 160.051912 
L 88.114263 209.109301 
L 88.17704 160.582804 
L 88.239816 164.378915 
L 88.428145 223.125686 
L 88.616475 175.687622 
L 88.679251 217.179338 
L 88.742027 210.728606 
L 88.804804 211.259538 
L 88.930357 176.218555 
L 88.993133 177.837839 
L 89.307015 157.370722 
L 89.495344 172.448972 
L 89.558121 172.448972 
L 89.620897 166.529172 
L 89.683673 167.060105 
L 89.872003 201.570176 
L 89.934779 192.942658 
L 89.997555 196.712221 
L 90.060332 192.385198 
L 90.123108 192.942658 
L 90.185885 201.570176 
L 90.248661 200.481783 
L 90.43699 186.99629 
L 90.499767 187.553791 
L 90.562543 197.774065 
L 90.625319 195.092895 
L 90.688096 192.942658 
L 90.813649 185.934466 
L 90.876425 196.712221 
L 90.939202 195.623828 
L 91.190307 169.210322 
L 91.253084 170.298755 
L 91.31586 176.776015 
L 91.378636 168.67943 
L 91.441413 171.91804 
L 91.504189 171.91804 
L 91.692518 185.934466 
L 91.755295 185.376964 
L 91.818071 180.545558 
L 91.880848 183.226747 
L 92.069177 202.63202 
L 92.131953 201.570176 
L 92.445835 180.545558 
L 92.634164 171.360579 
L 92.696941 177.306948 
L 92.822494 168.148498 
L 92.88527 168.67943 
L 92.948046 170.298755 
L 93.073599 176.218555 
L 93.261928 169.210322 
L 93.324705 169.767823 
L 93.57581 182.695815 
L 93.76414 172.448972 
L 93.826916 177.837839 
L 93.889692 194.561983 
L 93.952469 191.854265 
L 94.078022 175.15669 
L 94.140798 185.376964 
L 94.203574 184.31514 
L 94.266351 182.164883 
L 94.391904 167.060105 
L 94.580233 184.846073 
L 94.643009 184.31514 
L 94.705786 181.07649 
L 94.768562 181.607422 
L 94.831338 183.226747 
L 94.956891 176.218555 
L 95.019668 177.306948 
L 95.207997 195.092895 
L 95.33355 181.07649 
L 95.459102 195.092895 
L 95.647432 169.767823 
L 95.772984 179.457165 
L 95.961314 175.15669 
L 96.02409 182.695815 
L 96.086866 182.164883 
L 96.149643 178.926273 
L 96.337972 185.934466 
L 96.463525 187.553791 
L 96.526301 185.376964 
L 96.589078 188.615615 
L 96.651854 186.99629 
L 96.71463 184.846073 
L 96.777407 185.376964 
L 96.840183 184.846073 
L 96.965736 181.607422 
L 97.028512 182.164883 
L 97.091289 187.553791 
L 97.154065 186.465357 
L 97.342395 174.068297 
L 97.405171 175.687622 
L 97.5935 183.784208 
L 97.719053 183.784208 
L 97.907382 171.360579 
L 97.970159 174.068297 
L 98.158488 182.164883 
L 98.284041 168.67943 
L 98.346817 184.846073 
L 98.409593 181.607422 
L 98.47237 181.607422 
L 98.660699 188.084683 
L 98.723475 182.164883 
L 98.786252 184.31514 
L 98.849028 188.084683 
L 98.911805 185.376964 
L 99.037357 176.776015 
L 99.225687 190.23494 
L 99.288463 189.173076 
L 99.351239 188.615615 
L 99.414016 184.31514 
L 99.539569 192.385198 
L 99.602345 189.704008 
L 99.790674 172.979904 
L 99.853451 173.537365 
L 99.979003 186.465357 
L 100.04178 184.31514 
L 100.104556 189.704008 
L 100.292885 170.829647 
L 100.355662 173.537365 
L 100.481215 182.164883 
L 100.543991 178.368772 
L 100.606767 179.457165 
L 100.669544 180.545558 
L 100.795097 193.473591 
L 100.983426 177.306948 
L 101.108979 189.173076 
L 101.171755 177.837839 
L 101.234531 179.988097 
L 101.297308 179.988097 
L 101.360084 175.687622 
L 101.548413 182.695815 
L 101.61119 176.218555 
L 101.673966 178.368772 
L 101.862295 174.068297 
L 102.113401 182.695815 
L 102.176177 181.07649 
L 102.30173 175.15669 
L 102.427283 182.695815 
L 102.552836 167.591037 
L 102.615612 171.91804 
L 102.929494 186.99629 
L 102.992271 186.99629 
L 103.055047 196.712221 
L 103.117823 195.092895 
L 103.306153 176.218555 
L 103.431705 177.837839 
L 103.620035 184.846073 
L 103.87114 196.712221 
L 103.933917 192.942658 
L 103.996693 197.243133 
L 104.122246 176.218555 
L 104.247799 176.776015 
L 104.373352 182.695815 
L 104.436128 183.226747 
L 104.561681 185.934466 
L 104.624457 175.15669 
L 104.687234 175.687622 
L 104.812786 182.695815 
L 104.938339 160.582804 
L 105.001116 167.060105 
L 105.189445 182.695815 
L 105.252221 185.376964 
L 105.377774 172.979904 
L 105.44055 181.607422 
L 105.503327 175.687622 
L 105.566103 176.218555 
L 105.691656 167.591037 
L 105.817209 181.07649 
L 105.879985 187.553791 
L 106.068314 172.448972 
L 106.193867 185.934466 
L 106.256644 182.695815 
L 106.382196 168.148498 
L 106.507749 182.164883 
L 106.570526 179.988097 
L 106.633302 172.979904 
L 106.696078 178.368772 
L 106.821631 181.607422 
L 106.947184 172.448972 
L 107.072737 181.607422 
L 107.19829 167.591037 
L 107.261066 172.979904 
L 107.323842 168.67943 
L 107.512172 182.695815 
L 107.700501 163.821454 
L 107.763277 169.210322 
L 107.88883 181.607422 
L 108.139936 167.060105 
L 108.328265 186.465357 
L 108.516594 173.537365 
L 108.57937 176.218555 
L 108.642147 171.91804 
L 108.704923 174.59923 
L 108.893252 185.376964 
L 109.144358 169.210322 
L 109.269911 176.218555 
L 109.395464 174.068297 
L 109.45824 174.068297 
L 109.646569 181.07649 
L 109.834898 173.537365 
L 109.897675 175.15669 
L 109.960451 181.07649 
L 110.023228 178.368772 
L 110.086004 170.829647 
L 110.148781 175.687622 
L 110.274333 197.774065 
L 110.33711 193.473591 
L 110.462663 171.91804 
L 110.588215 190.765872 
L 110.650992 184.31514 
L 110.839321 190.765872 
L 110.902097 194.561983 
L 111.02765 175.15669 
L 111.090427 178.926273 
L 111.153203 175.687622 
L 111.278756 197.774065 
L 111.404309 181.607422 
L 111.467085 184.846073 
L 111.592638 182.695815 
L 111.780967 188.615615 
L 111.843743 183.226747 
L 111.90652 185.376964 
L 112.032073 194.004482 
L 112.283178 183.226747 
L 112.408731 179.457165 
L 112.534284 186.99629 
L 112.59706 185.376964 
L 112.785389 175.687622 
L 112.910942 182.164883 
L 113.036495 179.988097 
L 113.099271 172.979904 
L 113.162048 174.59923 
L 113.287601 181.07649 
L 113.350377 177.837839 
L 113.413153 178.368772 
L 113.47593 182.695815 
L 113.538706 182.164883 
L 113.601483 182.695815 
L 113.664259 186.465357 
L 113.727035 183.784208 
L 113.789812 182.164883 
L 113.852588 184.31514 
L 114.040917 179.988097 
L 114.16647 189.704008 
L 114.229247 186.99629 
L 114.292023 186.465357 
L 114.354799 181.607422 
L 114.417576 184.846073 
L 114.480352 182.164883 
L 114.543129 182.695815 
L 114.605905 183.226747 
L 114.668681 181.607422 
L 114.857011 196.181288 
L 114.982563 186.99629 
L 115.04534 195.623828 
L 115.108116 194.561983 
L 115.170893 190.23494 
L 115.233669 193.473591 
L 115.296445 192.385198 
L 115.484775 199.950851 
L 115.610327 207.489976 
L 115.798657 190.23494 
L 115.861433 192.942658 
L 115.986986 188.084683 
L 116.175315 208.020908 
L 116.238091 203.189481 
L 116.363644 197.774065 
L 116.489197 209.640213 
L 116.551974 200.481783 
L 116.61475 203.189481 
L 116.677526 208.578369 
L 116.740303 205.339739 
L 116.928632 195.623828 
L 117.054185 202.101088 
L 117.179738 196.712221 
L 117.242514 185.934466 
L 117.30529 194.004482 
L 117.49362 200.481783 
L 117.556396 199.39339 
L 117.619172 193.473591 
L 117.681949 194.561983 
L 117.744725 192.942658 
L 117.807502 198.331526 
L 117.870278 197.774065 
L 117.933054 196.712221 
L 117.995831 197.243133 
L 118.058607 203.189481 
L 118.121384 200.481783 
L 118.18416 199.950851 
L 118.309713 203.189481 
L 118.498042 190.765872 
L 118.623595 203.720413 
L 118.686371 201.570176 
L 118.811924 197.243133 
L 118.937477 205.339739 
L 119.000253 202.63202 
L 119.125806 195.092895 
L 119.251359 206.959044 
L 119.314135 203.720413 
L 119.376912 195.092895 
L 119.439688 195.623828 
L 119.502464 197.243133 
L 119.690794 207.489976 
L 119.816346 203.720413 
L 119.879123 201.012695 
L 119.941899 204.782258 
L 120.067452 197.243133 
L 120.255781 206.959044 
L 120.318558 211.790471 
L 120.44411 194.004482 
L 120.569663 200.481783 
L 120.63244 196.712221 
L 120.757992 206.959044 
L 120.820769 206.959044 
L 120.883545 200.481783 
L 120.946322 203.720413 
L 121.071874 211.259538 
L 121.260204 202.101088 
L 121.385756 211.790471 
L 121.511309 196.181288 
L 121.574086 201.570176 
L 121.636862 197.774065 
L 121.762415 190.23494 
L 121.825191 193.473591 
L 121.887968 189.704008 
L 121.950744 191.854265 
L 122.20185 210.728606 
L 122.264626 198.331526 
L 122.327402 199.950851 
L 122.452955 197.774065 
L 122.578508 206.959044 
L 122.704061 201.012695 
L 122.766837 201.012695 
L 122.829614 206.959044 
L 122.955167 196.181288 
L 123.017943 198.862458 
L 123.143496 212.347931 
L 123.206272 210.728606 
L 123.269049 204.782258 
L 123.331825 208.578369 
L 123.394601 208.020908 
L 123.520154 201.012695 
L 123.582931 209.640213 
L 123.645707 207.489976 
L 123.708483 208.020908 
L 123.77126 206.401583 
L 123.834036 201.012695 
L 124.085142 210.728606 
L 124.210695 207.489976 
L 124.399024 213.409776 
L 124.4618 208.578369 
L 124.524577 213.409776 
L 124.650129 202.63202 
L 124.838459 219.356124 
L 124.901235 216.648426 
L 124.964011 204.782258 
L 125.026788 209.109301 
L 125.089564 207.489976 
L 125.152341 208.020908 
L 125.277893 218.267731 
L 125.466223 213.409776 
L 125.528999 216.648426 
L 125.591775 215.029101 
L 125.780105 201.570176 
L 125.968434 208.020908 
L 126.03121 206.959044 
L 126.156763 210.728606 
L 126.219539 209.640213 
L 126.282316 211.259538 
L 126.345092 203.720413 
L 126.407869 206.959044 
L 126.533421 211.259538 
L 126.658974 211.259538 
L 126.784527 207.489976 
L 126.972856 217.179338 
L 127.035633 209.109301 
L 127.161185 218.798663 
L 127.223962 218.267731 
L 127.286738 211.790471 
L 127.349515 213.967256 
L 127.412291 212.878864 
L 127.537844 217.179338 
L 127.726173 203.720413 
L 127.851726 209.640213 
L 127.977279 205.870651 
L 128.040055 213.967256 
L 128.102831 209.640213 
L 128.165608 203.720413 
L 128.228384 205.870651 
L 128.353937 213.967256 
L 128.416713 206.959044 
L 128.47949 211.259538 
L 128.542266 211.259538 
L 128.667819 207.489976 
L 128.730595 209.640213 
L 128.793372 208.578369 
L 128.981701 204.251346 
L 129.044477 207.489976 
L 129.17003 195.092895 
L 129.295583 203.720413 
L 129.546689 184.31514 
L 129.672242 192.385198 
L 129.860571 174.068297 
L 129.923347 174.59923 
L 130.0489 183.226747 
L 130.174453 167.591037 
L 130.237229 177.837839 
L 130.300006 177.306948 
L 130.362782 178.926273 
L 130.551111 170.829647 
L 130.73944 182.164883 
L 130.802217 181.07649 
L 130.864993 182.695815 
L 130.990546 177.837839 
L 131.053322 180.545558 
L 131.116099 179.457165 
L 131.178875 179.457165 
L 131.241652 177.837839 
L 131.367204 186.465357 
L 131.492757 179.988097 
L 131.61831 185.376964 
L 131.806639 178.368772 
L 131.869416 179.457165 
L 131.994968 175.15669 
L 132.120521 176.218555 
L 132.183298 172.448972 
L 132.30885 184.846073 
L 132.371627 177.837839 
L 132.434403 178.926273 
L 132.49718 187.553791 
L 132.559956 184.31514 
L 132.622732 184.31514 
L 132.685509 186.465357 
L 132.873838 176.218555 
L 132.999391 184.31514 
L 133.062167 182.695815 
L 133.124944 179.988097 
L 133.18772 185.934466 
L 133.250496 183.226747 
L 133.313273 177.306948 
L 133.376049 179.457165 
L 133.438826 182.695815 
L 133.501602 180.545558 
L 133.627155 179.457165 
L 133.752708 171.91804 
L 134.003813 190.23494 
L 134.129366 181.607422 
L 134.192142 182.164883 
L 134.254919 184.31514 
L 134.317695 181.607422 
L 134.443248 190.765872 
L 134.75713 177.306948 
L 134.819906 181.07649 
L 134.882683 186.99629 
L 134.945459 184.846073 
L 135.008236 185.934466 
L 135.133788 182.164883 
L 135.259341 186.99629 
L 135.384894 181.07649 
L 135.510447 185.934466 
L 135.698776 173.537365 
L 135.824329 184.846073 
L 135.887105 179.988097 
L 135.949882 183.226747 
L 136.200987 193.473591 
L 136.32654 178.926273 
L 136.389317 187.553791 
L 136.452093 182.695815 
L 136.514869 182.695815 
L 136.640422 177.306948 
L 136.765975 185.376964 
L 137.142633 175.15669 
L 137.20541 183.226747 
L 137.268186 179.988097 
L 137.330963 184.31514 
L 137.582068 165.971712 
L 137.707621 166.529172 
L 137.770397 168.148498 
L 137.833174 163.821454 
L 137.958727 176.776015 
L 138.147056 160.051912 
L 138.209832 157.901654 
L 138.272609 159.52098 
L 138.398161 162.202129 
L 138.586491 141.177551 
L 138.649267 146.566418 
L 138.900373 127.718626 
L 138.963149 129.337952 
L 139.025925 135.788684 
L 139.214255 125.568369 
L 139.277031 126.099301 
L 139.402584 129.337952 
L 139.46536 128.78045 
L 139.653689 115.321526 
L 139.779242 127.161166 
L 139.842019 124.479976 
L 139.904795 125.010908 
L 139.967571 118.560176 
L 140.030348 123.949044 
L 140.093124 116.940851 
L 140.155901 121.241325 
L 140.218677 123.391583 
L 140.34423 114.764065 
L 140.407006 115.321526 
L 140.532559 119.091108 
L 140.846441 103.98629 
L 140.909217 107.755872 
L 140.971994 105.074683 
L 141.160323 94.82788 
L 141.223099 95.916273 
L 141.285876 92.14669 
L 141.411429 106.136547 
L 141.725311 80.280522 
L 141.788087 81.342386 
L 141.850863 80.280522 
L 141.91364 75.953519 
L 141.976416 78.130305 
L 142.039193 84.050105 
L 142.101969 81.899847 
L 142.227522 84.581037 
L 142.478628 72.183936 
L 142.60418 88.350579 
L 142.666957 84.581037 
L 142.855286 79.74963 
L 142.918062 80.811454 
L 142.980839 91.58923 
L 143.043615 87.819647 
L 143.169168 76.51098 
L 143.231944 79.74963 
L 143.294721 79.74963 
L 143.420274 65.175744 
L 143.608603 80.811454 
L 143.671379 82.961712 
L 143.734156 80.811454 
L 143.796932 82.961712 
L 143.859708 82.430779 
L 144.110814 73.272329 
L 144.17359 74.334194 
L 144.299143 68.945326 
L 144.613025 82.961712 
L 144.675802 75.953519 
L 144.738578 79.74963 
L 145.05246 118.560176 
L 145.115236 112.082916 
L 145.240789 106.136547 
L 145.617448 129.337952 
L 145.868553 119.622041 
L 145.994106 142.265944 
L 146.119659 135.788684 
L 146.245212 114.233133 
L 146.307988 118.002715 
L 146.370764 116.940851 
L 146.684646 137.965469 
L 146.747423 133.107494 
L 146.810199 135.788684 
L 146.998528 149.805069 
L 147.061305 150.893462 
L 147.124081 154.663004 
L 147.186858 150.362529 
L 147.31241 158.432587 
L 147.375187 156.282329 
L 147.437963 157.901654 
L 147.563516 162.202129 
L 147.751845 155.193936 
L 147.814622 154.132112 
L 147.877398 154.663004 
L 148.002951 157.370722 
L 148.128504 146.566418 
L 148.254056 168.67943 
L 148.316833 157.901654 
L 148.442386 142.796876 
L 148.505162 143.354337 
L 148.567939 143.354337 
L 148.693491 155.193936 
L 148.756268 153.574611 
L 148.819044 142.265944 
L 148.881821 147.123879 
L 149.007373 155.751397 
L 149.07015 154.663004 
L 149.132926 147.123879 
L 149.195703 147.654811 
L 149.384032 155.193936 
L 149.446808 153.574611 
L 149.572361 158.432587 
L 149.823467 142.796876 
L 149.886243 143.885269 
L 149.949019 150.893462 
L 150.011796 147.654811 
L 150.200125 132.550033 
L 150.262901 134.169358 
L 150.325678 135.257751 
L 150.388454 140.646619 
L 150.765113 115.321526 
L 151.016218 132.019101 
L 151.3301 116.38339 
L 151.455653 120.710434 
L 151.518429 113.7022 
L 151.581206 117.471783 
L 151.643982 119.091108 
L 151.957864 100.216747 
L 152.020641 99.685815 
L 152.146193 88.350579 
L 152.20897 88.90804 
L 152.334523 95.916273 
L 152.585628 78.130305 
L 152.773957 85.66943 
L 152.962287 97.535558 
L 153.150616 78.661237 
L 153.213392 78.661237 
L 153.527274 69.502787 
L 153.652827 80.811454 
L 153.715603 76.51098 
L 153.77838 71.122112 
L 153.841156 72.741437 
L 153.903933 76.51098 
L 153.966709 75.953519 
L 154.029485 77.041912 
L 154.155038 71.122112 
L 154.280591 53.867076 
L 154.406144 63.556418 
L 154.594473 57.636619 
L 154.720026 68.945326 
L 154.782802 66.795069 
L 154.845579 68.414394 
L 154.908355 72.741437 
L 154.971132 69.502787 
L 155.096684 71.122112 
L 155.222237 60.344337 
L 155.285014 61.937093 
L 155.34779 72.741437 
L 155.410566 66.264137 
L 155.473343 64.11392 
L 155.724448 84.050105 
L 155.787225 75.422587 
L 155.850001 78.130305 
L 155.912778 82.430779 
L 155.975554 80.280522 
L 156.03833 75.422587 
L 156.101107 75.953519 
L 156.163883 77.572844 
L 156.22666 74.891654 
L 156.352212 91.058297 
L 156.414989 89.438972 
L 156.603318 74.334194 
L 156.666094 77.041912 
L 156.791647 85.138498 
L 157.042753 78.661237 
L 157.293858 92.14669 
L 157.419411 86.200362 
L 157.60774 104.543791 
L 157.670517 99.685815 
L 157.79607 96.978097 
L 157.921622 98.597422 
L 158.109952 113.14474 
L 158.172728 113.7022 
L 158.298281 115.852458 
L 158.361057 115.852458 
L 158.48661 111.551983 
L 158.612163 115.321526 
L 158.674939 126.099301 
L 158.737716 121.772258 
L 158.800492 112.613808 
L 158.863268 119.622041 
L 158.926045 122.329718 
L 158.988821 117.471783 
L 159.051598 123.949044 
L 159.114374 119.091108 
L 159.17715 116.38339 
L 159.239927 117.471783 
L 159.302703 116.940851 
L 159.428256 128.249559 
L 159.491032 126.630233 
L 159.616585 115.852458 
L 159.679362 114.233133 
L 160.118796 125.568369 
L 160.181573 127.161166 
L 160.369902 119.622041 
L 160.558231 128.78045 
L 160.683784 121.772258 
L 160.74656 124.479976 
L 160.872113 128.249559 
L 160.997666 125.010908 
L 161.060442 132.550033 
L 161.123219 127.718626 
L 161.185995 122.329718 
L 161.248772 125.010908 
L 161.374325 130.957236 
L 161.499877 127.718626 
L 161.562654 127.161166 
L 161.62543 128.78045 
L 161.876536 117.471783 
L 162.064865 125.010908 
L 162.127641 122.860651 
L 162.441523 105.074683 
L 162.5043 109.932658 
L 162.567076 98.06649 
L 162.629853 102.924466 
L 162.692629 108.844265 
L 162.755405 107.22494 
L 162.943735 95.358772 
L 163.19484 109.375198 
L 163.257617 107.22494 
L 163.383169 98.597422 
L 163.445946 101.30514 
L 163.634275 93.739487 
L 163.697051 92.677623 
L 163.885381 103.455398 
L 163.948157 102.367005 
L 164.010933 105.605615 
L 164.199263 98.597422 
L 164.262039 101.30514 
L 164.324815 99.685815 
L 164.450368 86.731254 
L 164.513145 91.058297 
L 164.575921 90.527365 
L 164.638697 86.200362 
L 164.701474 87.288755 
L 164.76425 91.58923 
L 164.827027 89.969904 
L 164.889803 81.342386 
L 164.952579 85.138498 
L 165.015356 88.350579 
L 165.078132 87.819647 
L 165.140909 87.288755 
L 165.266461 84.050105 
L 165.392014 88.90804 
L 165.580343 81.899847 
L 165.64312 82.961712 
L 165.705896 85.66943 
L 165.894225 74.334194 
L 165.957002 72.741437 
L 166.019778 78.130305 
L 166.082555 74.891654 
L 166.145331 77.572844 
L 166.270884 88.90804 
L 166.647542 67.326001 
L 166.773095 72.741437 
L 166.835871 65.175744 
L 166.898648 66.264137 
L 166.961424 67.326001 
L 167.086977 78.661237 
L 167.149753 78.130305 
L 167.275306 82.430779 
L 167.338083 80.280522 
L 167.400859 78.661237 
L 167.651965 91.58923 
L 167.777518 78.661237 
L 167.840294 80.280522 
L 167.90307 75.953519 
L 167.965847 78.130305 
L 168.028623 80.811454 
L 168.0914 80.280522 
L 168.154176 75.422587 
L 168.216952 76.51098 
L 168.342505 94.296948 
L 168.405282 93.739487 
L 168.593611 84.050105 
L 168.656387 90.527365 
L 168.719164 87.288755 
L 168.78194 87.288755 
L 168.844716 78.661237 
L 168.907493 83.519172 
L 168.970269 78.661237 
L 169.158598 99.685815 
L 169.221375 91.58923 
L 169.284151 95.358772 
L 169.409704 90.527365 
L 169.47248 86.731254 
L 169.535257 88.90804 
L 169.723586 102.924466 
L 169.849139 101.30514 
L 169.911915 107.755872 
L 169.974692 102.924466 
L 170.163021 88.90804 
L 170.288574 109.932658 
L 170.35135 108.844265 
L 170.476903 97.535558 
L 170.665232 111.551983 
L 170.728008 110.994523 
L 170.979114 96.978097 
L 171.104667 112.613808 
L 171.167443 111.551983 
L 171.23022 105.074683 
L 171.292996 113.14474 
L 171.355772 110.994523 
L 171.418549 109.932658 
L 171.481325 112.082916 
L 171.606878 106.694008 
L 171.669654 114.233133 
L 171.732431 111.551983 
L 171.795207 112.082916 
L 171.857984 113.7022 
L 171.92076 119.622041 
L 172.046313 106.694008 
L 172.234642 116.940851 
L 172.360195 120.710434 
L 172.422971 118.002715 
L 172.6113 104.543791 
L 172.862406 116.38339 
L 172.925182 114.233133 
L 172.987959 104.543791 
L 173.050735 109.375198 
L 173.113512 112.082916 
L 173.176288 110.994523 
L 173.427394 100.216747 
L 173.49017 105.605615 
L 173.552946 102.367005 
L 173.678499 109.932658 
L 173.741276 103.455398 
L 173.929605 110.463591 
L 173.992381 108.313333 
L 174.055158 108.844265 
L 174.117934 109.375198 
L 174.18071 112.082916 
L 174.431816 94.296948 
L 174.620145 103.455398 
L 174.745698 106.136547 
L 174.808475 101.836073 
L 174.871251 105.605615 
L 174.934027 103.98629 
L 175.05958 88.90804 
L 175.122357 92.677623 
L 175.247909 105.074683 
L 175.310686 102.367005 
L 175.373462 93.739487 
L 175.436239 94.296948 
L 175.499015 93.739487 
L 175.687344 100.216747 
L 175.812897 85.66943 
L 175.875673 91.58923 
L 175.93845 87.819647 
L 176.126779 82.961712 
L 176.189555 77.572844 
L 176.440661 96.978097 
L 176.566214 96.447165 
L 176.62899 94.296948 
L 176.754543 96.978097 
L 176.817319 96.447165 
L 177.005649 89.438972 
L 177.131201 95.916273 
L 177.193978 95.358772 
L 177.382307 80.811454 
L 177.445083 82.430779 
L 177.633413 94.296948 
L 177.696189 92.14669 
L 177.758965 87.819647 
L 177.821742 91.058297 
L 177.884518 88.350579 
L 177.947295 91.058297 
L 178.072847 106.694008 
L 178.1984 80.280522 
L 178.261177 83.519172 
L 178.323953 92.14669 
L 178.386729 90.527365 
L 178.449506 91.58923 
L 178.512282 91.058297 
L 178.575059 91.058297 
L 178.637835 88.350579 
L 178.700611 89.969904 
L 178.826164 72.741437 
L 179.014493 80.811454 
L 179.07727 80.280522 
L 179.140046 79.192129 
L 179.391152 94.82788 
L 179.516705 93.208555 
L 179.579481 92.14669 
L 179.642257 92.677623 
L 179.705034 99.685815 
L 179.76781 96.978097 
L 180.018916 81.342386 
L 180.207245 96.978097 
L 180.270021 97.535558 
L 180.583903 86.200362 
L 180.835009 103.455398 
L 180.897786 94.82788 
L 180.960562 98.597422 
L 181.148891 106.136547 
L 181.211668 105.074683 
L 181.33722 93.208555 
L 181.462773 100.74768 
L 181.651102 91.58923 
L 181.776655 106.694008 
L 181.839432 103.98629 
L 181.902208 103.455398 
L 181.964984 99.154883 
L 182.027761 100.74768 
L 182.153314 96.447165 
L 182.278866 103.455398 
L 182.404419 114.233133 
L 182.529972 115.852458 
L 182.781078 92.677623 
L 182.843854 105.605615 
L 182.90663 101.30514 
L 182.969407 98.597422 
L 183.09496 108.844265 
L 183.157736 108.313333 
L 183.220512 113.14474 
L 183.283289 111.551983 
L 183.346065 98.597422 
L 183.408842 101.836073 
L 183.471618 105.605615 
L 183.597171 118.002715 
L 183.659947 109.375198 
L 183.722724 112.613808 
L 183.848276 118.002715 
L 184.036606 98.06649 
L 184.224935 112.082916 
L 184.350488 104.543791 
L 184.413264 114.764065 
L 184.47604 113.14474 
L 184.538817 106.694008 
L 184.601593 115.321526 
L 184.66437 114.233133 
L 184.915475 108.844265 
L 184.978252 116.38339 
L 185.041028 115.852458 
L 185.103804 116.38339 
L 185.292134 106.694008 
L 185.480463 114.764065 
L 185.543239 112.613808 
L 185.606016 114.233133 
L 185.668792 113.7022 
L 185.794345 107.755872 
L 185.857121 108.844265 
L 185.982674 119.622041 
L 186.04545 119.622041 
L 186.359332 96.978097 
L 186.422109 97.535558 
L 186.484885 96.978097 
L 186.547662 93.739487 
L 186.673214 107.22494 
L 186.735991 115.852458 
L 186.861544 100.74768 
L 186.92432 101.836073 
L 186.987096 106.136547 
L 187.049873 103.455398 
L 187.238202 87.819647 
L 187.300979 89.969904 
L 187.426531 90.527365 
L 187.614861 102.367005 
L 187.740413 87.819647 
L 187.80319 91.58923 
L 187.865966 92.677623 
L 187.928743 100.216747 
L 187.991519 98.597422 
L 188.179848 84.050105 
L 188.305401 96.978097 
L 188.368177 88.90804 
L 188.430954 89.969904 
L 188.49373 91.58923 
L 188.556507 87.819647 
L 188.682059 93.208555 
L 188.744836 92.14669 
L 188.807612 92.677623 
L 188.870389 85.66943 
L 188.933165 87.288755 
L 188.995941 97.535558 
L 189.058718 93.739487 
L 189.184271 84.050105 
L 189.247047 89.969904 
L 189.309823 89.438972 
L 189.435376 77.041912 
L 189.498153 80.811454 
L 189.686482 89.438972 
L 189.812035 101.30514 
L 189.874811 99.685815 
L 190.125917 80.811454 
L 190.188693 81.342386 
L 190.314246 89.969904 
L 190.377022 90.527365 
L 190.439799 88.350579 
L 190.565351 69.502787 
L 190.753681 98.597422 
L 190.94201 89.438972 
L 191.130339 98.597422 
L 191.193115 98.597422 
L 191.444221 87.288755 
L 191.506997 88.90804 
L 191.569774 85.66943 
L 191.63255 86.731254 
L 191.820879 96.978097 
L 192.009209 85.138498 
L 192.071985 84.050105 
L 192.134761 90.527365 
L 192.197538 84.581037 
L 192.260314 86.731254 
L 192.323091 96.978097 
L 192.385867 94.82788 
L 192.51142 82.961712 
L 192.574196 83.519172 
L 192.636973 80.811454 
L 192.699749 81.342386 
L 192.762525 89.438972 
L 192.825302 82.430779 
L 192.888078 91.58923 
L 192.950855 89.438972 
L 193.076407 85.138498 
L 193.264737 110.994523 
L 193.327513 108.313333 
L 193.515842 92.14669 
L 193.578619 94.296948 
L 193.704172 107.755872 
L 193.892501 89.969904 
L 193.955277 92.677623 
L 194.143606 106.694008 
L 194.269159 95.916273 
L 194.394712 101.30514 
L 194.457488 100.74768 
L 194.583041 91.58923 
L 194.645818 99.154883 
L 194.708594 92.14669 
L 194.834147 110.463591 
L 194.896923 108.313333 
L 195.085252 101.30514 
L 195.148029 108.313333 
L 195.210805 105.074683 
L 195.273582 100.74768 
L 195.399134 112.613808 
L 195.461911 112.082916 
L 195.524687 112.082916 
L 195.65024 101.836073 
L 195.713016 102.924466 
L 195.964122 93.739487 
L 196.215228 119.622041 
L 196.278004 112.613808 
L 196.403557 96.447165 
L 196.717439 116.38339 
L 196.842992 105.605615 
L 196.905768 106.136547 
L 196.968544 101.30514 
L 197.031321 101.836073 
L 197.094097 102.367005 
L 197.156874 92.677623 
L 197.21965 97.535558 
L 197.282426 98.06649 
L 197.345203 94.82788 
L 197.533532 110.463591 
L 197.721861 93.208555 
L 197.784638 99.685815 
L 197.847414 104.543791 
L 197.972967 91.58923 
L 198.035743 92.14669 
L 198.161296 102.367005 
L 198.224072 100.216747 
L 198.475178 88.90804 
L 198.600731 104.543791 
L 198.78906 99.685815 
L 198.914613 99.685815 
L 199.040166 99.154883 
L 199.165718 93.208555 
L 199.228495 95.358772 
L 199.291271 92.14669 
L 199.416824 105.074683 
L 199.542377 95.916273 
L 199.605153 95.916273 
L 199.919035 82.961712 
L 199.981812 89.969904 
L 200.044588 88.90804 
L 200.232917 83.519172 
L 200.35847 89.969904 
L 200.484023 80.811454 
L 200.546799 83.519172 
L 200.672352 92.14669 
L 200.735129 92.14669 
L 200.797905 95.916273 
L 200.986234 85.66943 
L 201.049011 88.90804 
L 201.111787 86.200362 
L 201.300116 100.216747 
L 201.425669 96.978097 
L 201.613998 88.90804 
L 201.676775 89.438972 
L 201.739551 88.350579 
L 201.802327 89.438972 
L 201.865104 80.811454 
L 201.92788 84.050105 
L 201.990657 88.90804 
L 202.053433 88.350579 
L 202.116209 84.050105 
L 202.304539 91.58923 
L 202.430091 95.916273 
L 202.555644 91.058297 
L 202.681197 84.581037 
L 202.743973 95.358772 
L 202.80675 92.14669 
L 202.995079 87.819647 
L 203.057855 87.819647 
L 203.120632 85.66943 
L 203.371737 98.06649 
L 203.434514 95.916273 
L 203.49729 99.685815 
L 203.560067 98.06649 
L 203.685619 99.154883 
L 203.748396 103.455398 
L 203.873949 91.058297 
L 203.999501 96.447165 
L 204.125054 107.22494 
L 204.250607 100.216747 
L 204.313383 100.74768 
L 204.37616 107.755872 
L 204.438936 102.924466 
L 204.627265 99.154883 
L 204.690042 101.836073 
L 204.752818 91.58923 
L 204.815595 92.14669 
L 204.878371 102.924466 
L 204.941147 102.367005 
L 205.003924 102.924466 
L 205.0667 106.136547 
L 205.192253 94.82788 
L 205.317806 99.154883 
L 205.506135 91.058297 
L 205.568911 94.82788 
L 205.631688 91.58923 
L 205.757241 107.755872 
L 206.071123 91.058297 
L 206.196675 103.455398 
L 206.259452 96.978097 
L 206.322228 101.836073 
L 206.447781 94.296948 
L 206.698887 106.694008 
L 207.012769 92.14669 
L 207.075545 93.208555 
L 207.263874 102.367005 
L 207.326651 100.74768 
L 207.452204 104.543791 
L 207.703309 93.739487 
L 207.766086 94.296948 
L 207.891638 96.978097 
L 208.017191 103.98629 
L 208.142744 92.677623 
L 208.331073 110.463591 
L 208.39385 105.074683 
L 208.456626 108.313333 
L 208.519402 105.074683 
L 208.644955 115.321526 
L 208.896061 84.581037 
L 209.209943 102.924466 
L 209.335496 99.685815 
L 209.398272 102.924466 
L 209.586601 89.438972 
L 209.77493 106.136547 
L 209.96326 91.58923 
L 210.026036 98.06649 
L 210.214365 109.932658 
L 210.277142 107.755872 
L 210.339918 100.74768 
L 210.402694 106.136547 
L 210.528247 108.313333 
L 210.591024 106.694008 
L 210.6538 99.685815 
L 210.716576 100.74768 
L 210.779353 105.605615 
L 210.842129 102.924466 
L 210.904906 101.836073 
L 210.967682 108.844265 
L 211.093235 94.82788 
L 211.34434 102.924466 
L 211.469893 80.811454 
L 211.53267 85.66943 
L 211.909328 94.82788 
L 211.972104 89.438972 
L 212.034881 92.677623 
L 212.097657 91.058297 
L 212.160434 92.14669 
L 212.22321 105.605615 
L 212.285986 105.074683 
L 212.537092 88.90804 
L 212.599868 91.58923 
L 212.788198 82.430779 
L 212.976527 103.455398 
L 213.039303 97.535558 
L 213.164856 110.994523 
L 213.478738 91.58923 
L 213.604291 101.836073 
L 213.79262 88.350579 
L 213.980949 95.358772 
L 214.106502 84.050105 
L 214.169279 88.350579 
L 214.357608 99.154883 
L 214.67149 87.288755 
L 214.734266 92.14669 
L 214.859819 86.731254 
L 214.985372 88.90804 
L 215.048148 85.66943 
L 215.110925 87.288755 
L 215.236477 100.74768 
L 215.299254 98.06649 
L 215.487583 91.58923 
L 215.613136 92.14669 
L 215.675912 95.358772 
L 215.738689 87.819647 
L 215.801465 92.14669 
L 215.927018 102.924466 
L 215.989794 98.06649 
L 216.115347 92.677623 
L 216.303676 80.280522 
L 216.492005 98.06649 
L 216.554782 86.200362 
L 216.617558 90.527365 
L 216.743111 88.90804 
L 216.868664 96.447165 
L 216.994217 93.739487 
L 217.056993 92.677623 
L 217.182546 105.605615 
L 217.245322 103.98629 
L 217.433651 86.731254 
L 217.621981 104.543791 
L 217.747533 96.447165 
L 217.998639 106.136547 
L 218.124192 97.535558 
L 218.186968 100.74768 
L 218.375297 108.844265 
L 218.50085 107.755872 
L 218.689179 95.358772 
L 218.814732 104.543791 
L 218.877509 92.14669 
L 218.940285 94.296948 
L 219.003061 103.98629 
L 219.065838 99.685815 
L 219.128614 92.14669 
L 219.191391 92.677623 
L 219.254167 93.739487 
L 219.316944 100.216747 
L 219.37972 96.978097 
L 219.505273 91.58923 
L 219.630826 99.685815 
L 219.756378 93.739487 
L 219.819155 87.288755 
L 219.881931 91.058297 
L 219.944708 93.739487 
L 220.133037 106.694008 
L 220.384142 99.154883 
L 220.446919 96.978097 
L 220.509695 99.685815 
L 220.572472 99.154883 
L 220.698024 89.438972 
L 220.760801 91.58923 
L 220.823577 94.82788 
L 220.94913 87.819647 
L 221.137459 100.74768 
L 221.200236 105.074683 
L 221.451341 90.527365 
L 221.514118 94.296948 
L 221.702447 88.350579 
L 221.765223 98.597422 
L 221.828 97.535558 
L 221.890776 98.597422 
L 221.953552 93.739487 
L 222.016329 95.916273 
L 222.079105 94.296948 
L 222.141882 82.961712 
L 222.204658 89.438972 
L 222.267434 94.82788 
L 222.392987 82.430779 
L 222.455764 84.581037 
L 222.581316 102.924466 
L 222.706869 87.819647 
L 222.769646 95.916273 
L 222.832422 102.367005 
L 222.895198 101.30514 
L 222.957975 102.924466 
L 223.020751 98.597422 
L 223.146304 103.455398 
L 223.334633 88.90804 
L 223.460186 109.932658 
L 223.522962 106.136547 
L 223.711292 85.138498 
L 223.962397 109.932658 
L 224.025174 96.978097 
L 224.08795 98.597422 
L 224.213503 104.543791 
L 224.401832 93.208555 
L 224.652938 103.455398 
L 224.77849 95.358772 
L 224.841267 96.978097 
L 224.96682 110.463591 
L 225.217925 92.14669 
L 225.280702 97.535558 
L 225.343478 94.82788 
L 225.406254 91.58923 
L 225.469031 94.82788 
L 225.531807 92.14669 
L 225.594584 96.447165 
L 225.720137 84.581037 
L 225.782913 86.200362 
L 225.971242 91.58923 
L 226.034019 88.90804 
L 226.096795 92.677623 
L 226.159571 92.14669 
L 226.222348 82.961712 
L 226.285124 85.138498 
L 226.473453 94.82788 
L 226.599006 78.661237 
L 226.661783 82.430779 
L 226.787335 84.050105 
L 226.912888 99.685815 
L 226.975665 97.535558 
L 227.101217 94.296948 
L 227.22677 109.375198 
L 227.289547 105.605615 
L 227.477876 87.819647 
L 227.728981 101.30514 
L 227.791758 98.597422 
L 227.854534 102.367005 
L 227.980087 90.527365 
L 228.042863 91.58923 
L 228.10564 102.367005 
L 228.168416 100.216747 
L 228.231193 98.06649 
L 228.419522 111.551983 
L 228.607851 94.296948 
L 228.670627 95.358772 
L 228.733404 91.58923 
L 228.921733 104.543791 
L 229.172839 88.350579 
L 229.361168 105.074683 
L 229.486721 104.543791 
L 229.549497 109.375198 
L 229.67505 95.916273 
L 229.800603 105.074683 
L 229.988932 86.731254 
L 230.051708 88.350579 
L 230.302814 100.216747 
L 230.36559 96.447165 
L 230.428367 99.154883 
L 230.491143 102.924466 
L 230.616696 86.200362 
L 230.867801 107.22494 
L 230.993354 95.358772 
L 231.056131 90.527365 
L 231.118907 100.74768 
L 231.181683 96.978097 
L 231.24446 98.06649 
L 231.307236 101.836073 
L 231.370013 92.677623 
L 231.432789 95.916273 
L 231.495565 98.06649 
L 231.558342 96.447165 
L 231.621118 88.350579 
L 231.809447 99.685815 
L 231.935 103.455398 
L 232.374435 82.430779 
L 232.437212 82.961712 
L 232.499988 92.677623 
L 232.562764 91.58923 
L 232.625541 91.058297 
L 232.688317 91.58923 
L 232.751094 99.685815 
L 232.81387 98.06649 
L 232.876646 89.969904 
L 232.939423 93.739487 
L 233.064976 100.74768 
L 233.127752 98.597422 
L 233.253305 109.932658 
L 233.50441 89.969904 
L 233.567187 92.14669 
L 233.755516 100.74768 
L 233.818292 95.916273 
L 233.881069 102.367005 
L 234.069398 89.969904 
L 234.257727 104.543791 
L 234.320504 102.367005 
L 234.508833 92.677623 
L 234.697162 106.694008 
L 234.822715 95.358772 
L 235.07382 106.694008 
L 235.136597 106.136547 
L 235.324926 93.208555 
L 235.450479 105.074683 
L 235.576032 100.74768 
L 235.638808 92.677623 
L 235.701584 101.30514 
L 235.764361 100.216747 
L 235.889914 106.136547 
L 235.95269 103.455398 
L 236.015466 103.455398 
L 236.203796 94.296948 
L 236.329348 99.154883 
L 236.517678 92.677623 
L 236.580454 95.358772 
L 236.706007 86.731254 
L 236.83156 106.136547 
L 236.894336 103.98629 
L 237.082665 92.677623 
L 237.208218 99.685815 
L 237.270994 96.978097 
L 237.333771 99.685815 
L 237.396547 94.296948 
L 237.459324 100.74768 
L 237.5221 100.216747 
L 237.584876 101.30514 
L 237.898758 93.739487 
L 237.961535 96.447165 
L 238.024311 95.916273 
L 238.087088 91.058297 
L 238.149864 92.14669 
L 238.275417 101.836073 
L 238.338193 101.30514 
L 238.40097 103.98629 
L 238.463746 102.367005 
L 238.589299 94.82788 
L 238.652075 99.685815 
L 238.714852 98.597422 
L 238.777628 93.739487 
L 238.840405 96.447165 
L 238.903181 96.447165 
L 238.965957 89.969904 
L 239.028734 92.677623 
L 239.217063 105.605615 
L 239.342616 109.932658 
L 239.468169 102.924466 
L 239.530945 92.677623 
L 239.593721 97.535558 
L 239.656498 98.06649 
L 239.719274 92.14669 
L 239.782051 99.154883 
L 239.844827 98.597422 
L 239.97038 104.543791 
L 240.033156 103.98629 
L 240.221485 96.978097 
L 240.284262 94.82788 
L 240.347038 101.30514 
L 240.409815 95.916273 
L 240.472591 96.447165 
L 240.66092 101.836073 
L 240.723697 98.06649 
L 240.786473 100.216747 
L 240.849249 101.836073 
L 240.974802 107.755872 
L 241.037579 106.694008 
L 241.100355 110.463591 
L 241.163131 107.755872 
L 241.288684 99.685815 
L 241.414237 101.30514 
L 241.53979 105.605615 
L 241.602566 98.597422 
L 241.665343 99.154883 
L 241.728119 98.597422 
L 241.790895 99.154883 
L 241.853672 96.447165 
L 241.979225 107.755872 
L 242.042001 106.136547 
L 242.104777 99.685815 
L 242.23033 108.844265 
L 242.293107 106.694008 
L 242.355883 108.313333 
L 242.418659 110.994523 
L 242.732541 92.14669 
L 242.920871 102.367005 
L 243.046423 93.739487 
L 243.234753 105.605615 
L 243.297529 97.535558 
L 243.360305 102.367005 
L 243.485858 106.136547 
L 243.611411 102.924466 
L 243.736964 106.136547 
L 243.79974 96.978097 
L 243.862517 99.154883 
L 243.925293 96.978097 
L 244.050846 102.367005 
L 244.239175 97.535558 
L 244.301951 96.447165 
L 244.364728 101.836073 
L 244.427504 100.216747 
L 244.490281 94.82788 
L 244.553057 97.535558 
L 244.615833 96.447165 
L 244.804163 103.455398 
L 244.866939 105.074683 
L 245.055268 98.06649 
L 245.243598 101.30514 
L 245.306374 96.447165 
L 245.36915 99.154883 
L 245.494703 101.836073 
L 245.620256 92.14669 
L 245.683032 99.685815 
L 245.745809 98.597422 
L 245.808585 100.216747 
L 245.996914 88.350579 
L 246.24802 103.455398 
L 246.310796 94.82788 
L 246.373573 97.535558 
L 246.499126 114.233133 
L 246.561902 113.7022 
L 246.687455 112.082916 
L 246.750231 103.98629 
L 246.813008 105.605615 
L 246.875784 107.755872 
L 247.001337 104.543791 
L 247.064113 95.916273 
L 247.12689 98.06649 
L 247.189666 101.30514 
L 247.315219 93.739487 
L 247.377995 96.978097 
L 247.440772 96.978097 
L 247.503548 101.836073 
L 247.629101 94.296948 
L 247.691877 96.447165 
L 247.754654 95.358772 
L 247.880206 91.058297 
L 248.005759 93.739487 
L 248.068536 92.14669 
L 248.131312 94.296948 
L 248.256865 102.924466 
L 248.319641 101.30514 
L 248.382418 102.924466 
L 248.445194 93.208555 
L 248.50797 95.916273 
L 248.633523 105.605615 
L 248.759076 94.296948 
L 248.821852 95.358772 
L 248.884629 96.447165 
L 248.947405 105.074683 
L 249.010182 102.924466 
L 249.072958 105.074683 
L 249.135734 104.543791 
L 249.261287 89.969904 
L 249.324064 91.058297 
L 249.449616 111.551983 
L 249.637946 100.216747 
L 249.951828 108.844265 
L 250.014604 105.074683 
L 250.140157 109.375198 
L 250.328486 92.677623 
L 250.391262 100.216747 
L 250.454039 103.98629 
L 250.516815 102.367005 
L 250.579592 96.447165 
L 250.642368 100.74768 
L 250.705144 101.30514 
L 250.893474 94.296948 
L 251.144579 100.74768 
L 251.332909 88.90804 
L 251.521238 109.932658 
L 251.646791 105.074683 
L 251.772343 114.233133 
L 251.960673 89.438972 
L 252.086225 102.367005 
L 252.149002 102.367005 
L 252.211778 102.924466 
L 252.274555 110.994523 
L 252.337331 108.313333 
L 252.462884 99.154883 
L 252.52566 103.455398 
L 252.588437 96.978097 
L 252.651213 97.535558 
L 252.839542 108.844265 
L 252.965095 98.06649 
L 253.153424 103.98629 
L 253.278977 89.969904 
L 253.341753 92.14669 
L 253.40453 93.208555 
L 253.530083 106.136547 
L 253.655635 92.14669 
L 253.718412 97.535558 
L 253.843965 89.969904 
L 253.906741 102.367005 
L 253.969517 95.916273 
L 254.032294 93.739487 
L 254.09507 87.288755 
L 254.157847 89.969904 
L 254.220623 91.058297 
L 254.283399 99.154883 
L 254.346176 98.597422 
L 254.534505 88.350579 
L 254.785611 98.06649 
L 254.911163 94.296948 
L 255.099493 101.836073 
L 255.162269 101.836073 
L 255.287822 105.074683 
L 255.350598 110.463591 
L 255.413375 108.844265 
L 255.476151 100.216747 
L 255.538927 102.367005 
L 255.727257 92.14669 
L 255.790033 92.677623 
L 255.852809 94.82788 
L 255.915586 89.969904 
L 256.103915 100.74768 
L 256.166691 94.82788 
L 256.229468 95.916273 
L 256.292244 96.447165 
L 256.480573 100.74768 
L 256.54335 98.06649 
L 256.668903 101.836073 
L 256.857232 91.58923 
L 257.171114 105.074683 
L 257.23389 98.06649 
L 257.296667 100.216747 
L 257.422219 93.739487 
L 257.610549 105.605615 
L 257.736102 94.296948 
L 257.798878 99.685815 
L 257.861654 102.924466 
L 257.924431 102.367005 
L 258.049984 94.296948 
L 258.11276 95.358772 
L 258.175536 97.535558 
L 258.301089 106.694008 
L 258.363866 106.136547 
L 258.614971 91.58923 
L 258.8033 101.836073 
L 258.928853 93.739487 
L 258.99163 100.216747 
L 259.054406 99.154883 
L 259.117182 99.685815 
L 259.242735 86.731254 
L 259.431064 99.154883 
L 259.493841 85.138498 
L 259.556617 90.527365 
L 259.68217 99.685815 
L 259.744946 98.06649 
L 259.807723 92.677623 
L 259.870499 93.739487 
L 259.933276 99.154883 
L 259.996052 92.677623 
L 260.058828 97.535558 
L 260.121605 100.74768 
L 260.184381 97.535558 
L 260.247158 99.685815 
L 260.309934 99.154883 
L 260.37271 92.677623 
L 260.435487 98.597422 
L 260.56104 82.430779 
L 260.812145 105.605615 
L 260.937698 98.597422 
L 261.063251 103.455398 
L 261.126027 95.916273 
L 261.188804 96.447165 
L 261.25158 96.978097 
L 261.439909 103.98629 
L 261.565462 89.969904 
L 261.628238 95.358772 
L 261.753791 101.30514 
L 261.816568 98.597422 
L 261.879344 91.058297 
L 261.94212 101.30514 
L 262.004897 99.685815 
L 262.13045 87.819647 
L 262.193226 90.527365 
L 262.256002 91.58923 
L 262.507108 101.836073 
L 262.695437 92.677623 
L 262.758214 95.916273 
L 262.883766 87.819647 
L 262.946543 91.58923 
L 263.197648 103.98629 
L 263.323201 95.916273 
L 263.51153 103.455398 
L 263.637083 93.739487 
L 263.762636 105.605615 
L 263.825412 104.543791 
L 263.950965 84.050105 
L 264.202071 96.447165 
L 264.264847 94.296948 
L 264.3904 102.367005 
L 264.453177 93.739487 
L 264.515953 95.358772 
L 264.578729 102.367005 
L 264.704282 88.350579 
L 264.892611 107.22494 
L 265.26927 83.519172 
L 265.394823 89.438972 
L 265.457599 92.677623 
L 265.583152 103.98629 
L 265.645928 95.916273 
L 265.708705 100.74768 
L 265.771481 103.98629 
L 265.897034 94.296948 
L 266.022587 104.543791 
L 266.085363 103.98629 
L 266.148139 97.535558 
L 266.210916 101.30514 
L 266.524798 88.350579 
L 266.587574 89.969904 
L 266.650351 88.350579 
L 266.901456 108.313333 
L 266.964233 109.932658 
L 267.278115 92.14669 
L 267.466444 92.677623 
L 267.591997 96.447165 
L 267.654773 96.978097 
L 267.717549 98.597422 
L 267.905879 89.969904 
L 267.968655 90.527365 
L 268.094208 100.216747 
L 268.156984 97.535558 
L 268.219761 97.535558 
L 268.345313 95.916273 
L 268.40809 91.058297 
L 268.470866 92.14669 
L 268.596419 95.916273 
L 268.659195 95.916273 
L 268.847525 89.969904 
L 268.973077 103.455398 
L 269.035854 102.367005 
L 269.09863 100.74768 
L 269.161407 93.739487 
L 269.286959 107.755872 
L 269.349736 107.22494 
L 269.475289 98.06649 
L 269.538065 100.74768 
L 269.600841 101.30514 
L 269.663618 91.058297 
L 269.726394 98.06649 
L 269.789171 104.543791 
L 269.851947 101.836073 
L 269.914723 96.978097 
L 269.9775 100.216747 
L 270.040276 102.367005 
L 270.103053 108.844265 
L 270.165829 100.74768 
L 270.228605 103.98629 
L 270.291382 108.313333 
L 270.354158 103.455398 
L 270.416935 105.074683 
L 270.479711 103.455398 
L 270.542488 98.597422 
L 270.66804 115.852458 
L 270.793593 105.605615 
L 270.85637 112.613808 
L 271.044699 101.836073 
L 271.107475 102.367005 
L 271.295804 93.208555 
L 271.54691 115.321526 
L 271.986345 95.358772 
L 272.174674 112.613808 
L 272.23745 105.605615 
L 272.300227 110.463591 
L 272.363003 112.082916 
L 272.676885 98.597422 
L 272.739662 95.358772 
L 272.802438 98.597422 
L 272.990767 114.233133 
L 273.053544 108.844265 
L 273.11632 90.527365 
L 273.179096 94.82788 
L 273.241873 94.82788 
L 273.367426 101.836073 
L 273.430202 91.58923 
L 273.492978 93.208555 
L 273.744084 106.136547 
L 273.932413 95.358772 
L 273.99519 102.924466 
L 274.057966 100.216747 
L 274.183519 91.058297 
L 274.309072 104.543791 
L 274.371848 103.455398 
L 274.434624 103.455398 
L 274.497401 92.14669 
L 274.560177 94.296948 
L 274.748506 103.455398 
L 274.811283 102.924466 
L 274.936836 97.535558 
L 274.999612 102.924466 
L 275.125165 94.296948 
L 275.250718 114.764065 
L 275.313494 113.7022 
L 275.439047 103.455398 
L 275.5646 108.844265 
L 275.627376 102.924466 
L 275.690152 104.543791 
L 275.752929 109.932658 
L 275.941258 102.367005 
L 276.004034 100.74768 
L 276.066811 101.836073 
L 276.129587 108.844265 
L 276.192364 101.30514 
L 276.25514 103.455398 
L 276.317916 100.216747 
L 276.506246 109.375198 
L 276.569022 107.755872 
L 276.694575 94.82788 
L 276.882904 102.924466 
L 277.008457 101.836073 
L 277.196786 82.961712 
L 277.385115 91.58923 
L 277.447892 89.969904 
L 277.698997 104.543791 
L 277.82455 93.208555 
L 277.950103 94.296948 
L 278.138432 102.367005 
L 278.326761 94.82788 
L 278.389538 94.296948 
L 278.452314 101.30514 
L 278.515091 100.74768 
L 278.577867 100.216747 
L 278.640643 100.74768 
L 278.70342 105.605615 
L 278.891749 84.581037 
L 278.954525 86.731254 
L 279.017302 88.350579 
L 279.080078 84.050105 
L 279.39396 103.455398 
L 279.519513 93.739487 
L 279.645066 94.82788 
L 279.770619 96.447165 
L 279.833395 107.22494 
L 279.896171 103.455398 
L 279.958948 99.685815 
L 280.021724 101.836073 
L 280.084501 99.154883 
L 280.210053 102.924466 
L 280.335606 95.358772 
L 280.398383 84.050105 
L 280.461159 85.66943 
L 280.523935 82.961712 
L 280.586712 84.050105 
L 280.900594 107.22494 
L 281.026147 108.313333 
L 281.340029 88.350579 
L 281.528358 100.216747 
L 281.591134 101.30514 
L 281.653911 94.296948 
L 281.716687 96.447165 
L 281.779463 98.597422 
L 281.84224 97.535558 
L 281.905016 96.447165 
L 282.030569 103.98629 
L 282.156122 96.447165 
L 282.218898 102.367005 
L 282.281675 101.836073 
L 282.344451 95.916273 
L 282.53278 106.136547 
L 282.658333 101.30514 
L 282.721109 103.455398 
L 282.783886 109.932658 
L 282.846662 106.694008 
L 282.909439 105.605615 
L 282.972215 108.844265 
L 283.034991 106.694008 
L 283.097768 107.755872 
L 283.223321 97.535558 
L 283.41165 108.844265 
L 283.474426 110.994523 
L 283.725532 96.447165 
L 283.788308 97.535558 
L 283.851085 92.677623 
L 283.913861 93.208555 
L 283.976638 91.58923 
L 284.039414 92.677623 
L 284.10219 97.535558 
L 284.164967 96.447165 
L 284.227743 96.447165 
L 284.353296 103.455398 
L 284.416072 100.216747 
L 284.478849 102.924466 
L 284.541625 92.677623 
L 284.604402 97.535558 
L 284.667178 105.074683 
L 284.729954 100.74768 
L 284.855507 102.924466 
L 285.043836 96.447165 
L 285.232166 100.216747 
L 285.294942 94.82788 
L 285.357718 96.978097 
L 285.420495 98.06649 
L 285.483271 96.978097 
L 285.608824 106.136547 
L 285.6716 103.98629 
L 285.85993 90.527365 
L 285.985482 96.978097 
L 286.111035 92.677623 
L 286.173812 99.154883 
L 286.236588 91.058297 
L 286.299364 94.296948 
L 286.362141 94.296948 
L 286.424917 91.58923 
L 286.487694 79.192129 
L 286.55047 80.280522 
L 286.738799 104.543791 
L 286.801576 99.154883 
L 286.864352 100.74768 
L 286.927128 99.154883 
L 286.989905 100.216747 
L 287.052681 103.455398 
L 287.115458 101.30514 
L 287.492116 95.916273 
L 287.554892 96.447165 
L 287.617669 92.677623 
L 287.680445 94.296948 
L 287.743222 99.154883 
L 287.805998 96.978097 
L 287.868774 100.216747 
L 287.931551 98.06649 
L 287.994327 94.296948 
L 288.057104 98.06649 
L 288.11988 95.916273 
L 288.370986 79.74963 
L 288.433762 84.581037 
L 288.496538 94.296948 
L 288.559315 92.677623 
L 288.622091 96.447165 
L 288.747644 88.90804 
L 288.935973 94.296948 
L 288.99875 98.597422 
L 289.061526 96.447165 
L 289.124302 95.916273 
L 289.249855 105.074683 
L 289.375408 100.74768 
L 289.438184 103.455398 
L 289.500961 101.836073 
L 289.563737 88.350579 
L 289.626514 89.969904 
L 289.752067 94.82788 
L 289.814843 89.969904 
L 289.877619 92.14669 
L 289.940396 93.739487 
L 290.003172 86.200362 
L 290.065949 91.58923 
L 290.128725 93.208555 
L 290.254278 85.138498 
L 290.442607 102.367005 
L 290.56816 98.597422 
L 290.693713 106.694008 
L 290.756489 106.136547 
L 290.819265 103.455398 
L 291.007595 84.050105 
L 291.195924 93.739487 
L 291.2587 92.14669 
L 291.321477 93.208555 
L 291.509806 100.216747 
L 291.635359 93.739487 
L 291.698135 94.296948 
L 291.760911 98.597422 
L 291.823688 95.916273 
L 291.886464 93.208555 
L 291.949241 96.978097 
L 292.074793 89.438972 
L 292.13757 99.154883 
L 292.200346 98.597422 
L 292.263123 93.208555 
L 292.325899 96.978097 
L 292.388675 98.06649 
L 292.451452 96.978097 
L 292.577005 91.058297 
L 292.639781 96.978097 
L 292.702557 94.296948 
L 292.765334 89.438972 
L 292.953663 98.06649 
L 293.016439 95.358772 
L 293.079216 100.216747 
L 293.141992 98.06649 
L 293.204769 95.916273 
L 293.267545 88.90804 
L 293.330321 99.685815 
L 293.393098 96.447165 
L 293.455874 91.058297 
L 293.518651 92.14669 
L 293.581427 91.58923 
L 293.895309 113.7022 
L 293.958085 103.455398 
L 294.020862 105.605615 
L 294.083638 106.136547 
L 294.271967 95.358772 
L 294.334744 100.74768 
L 294.39752 99.154883 
L 294.523073 95.358772 
L 294.585849 100.216747 
L 294.648626 98.06649 
L 294.711402 86.200362 
L 294.774179 88.350579 
L 294.899731 96.447165 
L 294.962508 89.969904 
L 295.025284 92.677623 
L 295.150837 97.535558 
L 295.213613 92.677623 
L 295.27639 94.82788 
L 295.464719 108.844265 
L 295.590272 97.535558 
L 295.653048 100.216747 
L 295.715825 97.535558 
L 295.841377 103.98629 
L 295.904154 88.350579 
L 295.96693 93.208555 
L 296.029707 94.296948 
L 296.218036 105.605615 
L 296.280812 102.924466 
L 296.469142 87.819647 
L 296.531918 85.138498 
L 296.657471 93.739487 
L 296.908576 88.90804 
L 296.971353 87.288755 
L 297.159682 102.924466 
L 297.222458 95.916273 
L 297.285235 91.58923 
L 297.348011 97.535558 
L 297.410788 92.677623 
L 297.473564 93.208555 
L 297.599117 95.916273 
L 297.661893 99.154883 
L 297.72467 97.535558 
L 297.787446 88.90804 
L 297.912999 99.685815 
L 298.164104 89.969904 
L 298.226881 89.438972 
L 298.289657 98.597422 
L 298.352434 95.916273 
L 298.41521 89.438972 
L 298.603539 105.074683 
L 298.666316 104.543791 
L 298.791868 92.677623 
L 298.854645 96.447165 
L 298.917421 94.296948 
L 299.042974 107.755872 
L 299.10575 103.455398 
L 299.168527 85.66943 
L 299.231303 86.200362 
L 299.356856 110.463591 
L 299.419632 107.755872 
L 299.545185 93.208555 
L 299.607962 95.358772 
L 299.670738 93.739487 
L 299.796291 105.074683 
L 299.859067 99.154883 
L 299.921844 102.924466 
L 299.98462 103.98629 
L 300.047396 108.313333 
L 300.235726 93.739487 
L 300.361278 109.375198 
L 300.612384 100.216747 
L 300.67516 106.136547 
L 300.737937 103.98629 
L 300.86349 107.755872 
L 300.926266 101.836073 
L 300.989042 102.924466 
L 301.051819 102.367005 
L 301.177372 96.447165 
L 301.240148 97.535558 
L 301.365701 102.924466 
L 301.428477 99.154883 
L 301.491254 106.694008 
L 301.55403 101.836073 
L 301.616806 101.836073 
L 301.679583 105.605615 
L 301.805136 95.916273 
L 301.867912 96.447165 
L 301.930688 101.836073 
L 301.993465 100.74768 
L 302.119018 82.961712 
L 302.181794 85.66943 
L 302.370123 105.605615 
L 302.4329 103.455398 
L 302.495676 103.98629 
L 302.558452 96.447165 
L 302.621229 98.06649 
L 302.746782 106.694008 
L 302.935111 94.82788 
L 302.997887 96.447165 
L 303.12344 108.844265 
L 303.311769 94.82788 
L 303.374546 104.543791 
L 303.437322 98.597422 
L 303.562875 86.731254 
L 303.751204 100.216747 
L 303.813981 97.535558 
L 303.876757 99.685815 
L 303.939533 99.154883 
L 304.00231 97.535558 
L 304.065086 92.677623 
L 304.190639 98.06649 
L 304.253415 94.82788 
L 304.378968 106.694008 
L 304.504521 105.605615 
L 304.69285 89.438972 
L 304.755627 88.350579 
L 304.943956 101.836073 
L 305.006732 99.154883 
L 305.132285 107.22494 
L 305.195061 104.543791 
L 305.320614 103.98629 
L 305.446167 93.739487 
L 305.508943 95.916273 
L 305.57172 95.916273 
L 305.697273 91.058297 
L 305.760049 91.058297 
L 305.822825 88.350579 
L 306.011155 102.367005 
L 306.199484 95.916273 
L 306.26226 97.535558 
L 306.325037 99.154883 
L 306.387813 95.916273 
L 306.638919 115.321526 
L 306.827248 98.597422 
L 307.015577 104.543791 
L 307.078353 101.836073 
L 307.203906 93.208555 
L 307.266683 95.916273 
L 307.329459 93.208555 
L 307.517788 100.74768 
L 307.643341 86.731254 
L 307.894447 105.605615 
L 308.271105 92.677623 
L 308.396658 108.313333 
L 308.584987 99.154883 
L 308.647763 102.367005 
L 308.71054 99.685815 
L 308.836093 110.994523 
L 309.087198 99.685815 
L 309.149975 94.296948 
L 309.338304 109.375198 
L 309.463857 92.14669 
L 309.58941 105.074683 
L 309.652186 101.836073 
L 309.714962 99.685815 
L 309.903292 108.844265 
L 310.091621 93.739487 
L 310.154397 98.06649 
L 310.217174 96.447165 
L 310.342726 103.98629 
L 310.405503 102.924466 
L 310.593832 105.605615 
L 310.719385 95.916273 
L 310.844938 105.605615 
L 310.907714 102.367005 
L 311.033267 93.739487 
L 311.096043 98.597422 
L 311.221596 85.138498 
L 311.284372 88.90804 
L 311.347149 88.90804 
L 311.409925 95.916273 
L 311.472702 95.358772 
L 311.535478 94.296948 
L 311.598254 87.819647 
L 311.786584 104.543791 
L 311.974913 94.296948 
L 312.037689 99.685815 
L 312.100466 93.208555 
L 312.163242 96.978097 
L 312.226018 96.978097 
L 312.288795 96.447165 
L 312.351571 97.535558 
L 312.414348 102.924466 
L 312.477124 101.836073 
L 312.665453 94.82788 
L 312.791006 101.836073 
L 312.853782 100.216747 
L 312.916559 101.836073 
L 313.104888 81.899847 
L 313.293217 98.597422 
L 313.355994 95.916273 
L 313.41877 96.978097 
L 313.481546 97.535558 
L 313.544323 94.296948 
L 313.795428 103.98629 
L 313.920981 105.074683 
L 313.983758 103.455398 
L 314.10931 98.06649 
L 314.172087 97.535558 
L 314.423192 85.138498 
L 314.485969 85.66943 
L 314.548745 91.058297 
L 314.611522 90.527365 
L 314.674298 89.438972 
L 314.862627 93.208555 
L 314.925404 99.154883 
L 314.98818 96.978097 
L 315.113733 86.731254 
L 315.176509 90.527365 
L 315.239286 97.535558 
L 315.302062 95.358772 
L 315.490391 82.961712 
L 315.678721 100.216747 
L 315.741497 108.844265 
L 315.804273 103.455398 
L 315.86705 100.74768 
L 315.929826 102.367005 
L 315.992603 102.367005 
L 316.118155 98.597422 
L 316.180932 99.685815 
L 316.243708 99.685815 
L 316.432037 106.694008 
L 316.494814 105.074683 
L 316.620367 95.358772 
L 316.745919 83.519172 
L 316.871472 93.208555 
L 316.934249 88.350579 
L 317.122578 98.597422 
L 317.185354 94.82788 
L 317.248131 99.154883 
L 317.310907 96.978097 
L 317.499236 93.739487 
L 317.624789 99.154883 
L 317.938671 92.677623 
L 318.127 94.82788 
L 318.252553 85.66943 
L 318.315329 86.731254 
L 318.378106 82.961712 
L 318.503659 89.438972 
L 318.629211 84.050105 
L 318.754764 93.739487 
L 318.880317 88.350579 
L 318.943093 97.535558 
L 319.00587 96.447165 
L 319.194199 84.050105 
L 319.256975 88.90804 
L 319.382528 85.138498 
L 319.508081 97.535558 
L 319.570857 93.208555 
L 319.759187 84.050105 
L 319.947516 97.535558 
L 320.010292 94.296948 
L 320.073069 95.916273 
L 320.198621 99.685815 
L 320.261398 92.14669 
L 320.324174 94.82788 
L 320.512503 102.367005 
L 320.57528 105.605615 
L 320.700833 94.82788 
L 320.763609 95.358772 
L 320.889162 103.455398 
L 321.014715 93.739487 
L 321.140267 96.978097 
L 321.328597 109.375198 
L 321.391373 99.685815 
L 321.454149 101.30514 
L 321.516926 103.98629 
L 321.705255 96.978097 
L 321.893584 103.98629 
L 321.956361 99.685815 
L 322.019137 109.375198 
L 322.081914 108.844265 
L 322.207466 100.74768 
L 322.270243 101.30514 
L 322.395796 98.597422 
L 322.458572 99.685815 
L 322.521348 109.375198 
L 322.584125 106.694008 
L 322.646901 99.154883 
L 322.709678 101.30514 
L 322.772454 106.694008 
L 322.83523 105.605615 
L 323.149112 91.058297 
L 323.274665 100.74768 
L 323.400218 98.597422 
L 323.462994 97.535558 
L 323.588547 106.694008 
L 323.776876 100.216747 
L 323.902429 91.58923 
L 324.090758 106.136547 
L 324.341864 94.296948 
L 324.40464 95.358772 
L 324.59297 104.543791 
L 324.718522 98.06649 
L 324.781299 100.216747 
L 324.906852 93.208555 
L 324.969628 98.597422 
L 325.032404 96.978097 
L 325.095181 98.597422 
L 325.157957 97.535558 
L 325.220734 97.535558 
L 325.471839 107.755872 
L 325.534616 109.932658 
L 325.722945 100.74768 
L 325.785721 106.136547 
L 325.848498 103.98629 
L 326.099603 88.90804 
L 326.225156 100.216747 
L 326.287932 99.685815 
L 326.413485 93.208555 
L 326.476262 93.739487 
L 326.539038 96.447165 
L 326.601814 86.731254 
L 326.664591 87.288755 
L 326.727367 87.819647 
L 326.790144 95.916273 
L 326.915696 85.138498 
L 327.104026 95.916273 
L 327.166802 89.438972 
L 327.229578 92.14669 
L 327.292355 97.535558 
L 327.417908 84.581037 
L 327.480684 86.200362 
L 327.794566 103.98629 
L 327.920119 94.82788 
L 327.982895 95.358772 
L 328.045672 94.296948 
L 328.108448 94.82788 
L 328.234001 95.916273 
L 328.359554 86.200362 
L 328.42233 87.819647 
L 328.610659 96.447165 
L 328.673436 92.14669 
L 328.736212 99.685815 
L 328.861765 84.581037 
L 328.924541 88.90804 
L 328.987318 102.367005 
L 329.050094 98.597422 
L 329.238423 89.969904 
L 329.3012 93.739487 
L 329.363976 96.978097 
L 329.426753 94.82788 
L 329.489529 89.969904 
L 329.615082 97.535558 
L 329.677858 89.438972 
L 329.740635 91.58923 
L 329.866187 95.916273 
L 329.928964 88.90804 
L 329.99174 89.438972 
L 330.054517 89.969904 
L 330.180069 99.685815 
L 330.242846 98.06649 
L 330.556728 84.581037 
L 330.619504 85.66943 
L 330.682281 96.978097 
L 330.745057 96.447165 
L 330.807833 95.358772 
L 330.87061 98.06649 
L 331.058939 90.527365 
L 331.121715 85.138498 
L 331.310045 98.06649 
L 331.749479 81.342386 
L 331.937809 95.358772 
L 332.126138 81.899847 
L 332.188914 95.916273 
L 332.251691 95.358772 
L 332.314467 98.597422 
L 332.377243 97.535558 
L 332.565573 88.90804 
L 332.691125 92.677623 
L 332.879455 111.551983 
L 333.13056 96.447165 
L 333.193337 100.74768 
L 333.381666 92.677623 
L 333.632771 113.14474 
L 333.695548 93.739487 
L 333.758324 94.296948 
L 333.821101 100.74768 
L 333.883877 98.597422 
L 334.072206 102.367005 
L 334.197759 97.535558 
L 334.386088 106.136547 
L 334.511641 98.597422 
L 334.574417 101.30514 
L 334.762747 93.208555 
L 334.8883 101.30514 
L 334.951076 95.916273 
L 335.013852 98.06649 
L 335.076629 102.924466 
L 335.202182 95.916273 
L 335.264958 95.358772 
L 335.327734 85.138498 
L 335.390511 92.677623 
L 335.516064 87.819647 
L 335.829946 109.932658 
L 335.892722 105.605615 
L 336.018275 100.74768 
L 336.081051 101.30514 
L 336.143828 109.375198 
L 336.206604 108.313333 
L 336.394933 97.535558 
L 336.45771 100.74768 
L 336.520486 104.543791 
L 336.771592 91.58923 
L 336.834368 94.82788 
L 336.897144 94.296948 
L 336.959921 92.677623 
L 337.14825 80.811454 
L 337.211026 80.280522 
L 337.462132 103.455398 
L 337.524908 102.367005 
L 337.587685 103.98629 
L 337.650461 102.924466 
L 337.83879 96.447165 
L 337.964343 103.455398 
L 338.089896 100.74768 
L 338.152672 101.30514 
L 338.341002 87.819647 
L 338.529331 100.216747 
L 338.654884 87.288755 
L 338.71766 89.438972 
L 338.780436 93.739487 
L 338.843213 88.90804 
L 338.968766 96.978097 
L 339.094318 86.731254 
L 339.345424 105.074683 
L 339.4082 100.74768 
L 339.470977 98.597422 
L 339.59653 104.543791 
L 339.659306 104.543791 
L 339.722082 99.685815 
L 339.784859 100.74768 
L 339.847635 103.455398 
L 340.224294 87.819647 
L 340.349846 92.14669 
L 340.412623 87.288755 
L 340.538176 101.836073 
L 340.600952 101.30514 
L 340.663728 101.30514 
L 340.789281 91.058297 
L 340.852058 94.296948 
L 340.914834 102.367005 
L 341.103163 88.350579 
L 341.16594 89.438972 
L 341.354269 103.455398 
L 341.417045 101.836073 
L 341.542598 86.200362 
L 341.605375 88.90804 
L 341.793704 96.978097 
L 341.919257 84.050105 
L 342.044809 105.074683 
L 342.107586 103.455398 
L 342.295915 87.288755 
L 342.358691 97.535558 
L 342.421468 91.058297 
L 342.484244 92.677623 
L 342.547021 89.969904 
L 342.986455 110.994523 
L 343.174785 93.739487 
L 343.237561 98.597422 
L 343.300337 99.685815 
L 343.363114 103.98629 
L 343.42589 102.367005 
L 343.551443 94.296948 
L 343.614219 94.296948 
L 343.676996 94.82788 
L 343.739772 92.677623 
L 343.802549 95.358772 
L 343.865325 93.208555 
L 343.928101 93.739487 
L 343.990878 93.739487 
L 344.053654 99.154883 
L 344.116431 94.82788 
L 344.179207 98.06649 
L 344.241983 102.367005 
L 344.30476 99.154883 
L 344.367536 98.597422 
L 344.430313 99.154883 
L 344.493089 102.367005 
L 344.555865 96.978097 
L 344.681418 102.924466 
L 344.744195 100.216747 
L 344.806971 103.98629 
L 344.869747 101.30514 
L 344.932524 100.216747 
L 344.9953 84.581037 
L 345.058077 91.58923 
L 345.246406 108.844265 
L 345.371959 103.98629 
L 345.434735 106.136547 
L 345.497511 102.924466 
L 345.560288 89.969904 
L 345.623064 95.916273 
L 345.811393 111.551983 
L 345.936946 100.74768 
L 345.999723 101.30514 
L 346.125275 108.844265 
L 346.188052 104.543791 
L 346.313605 118.560176 
L 346.501934 100.74768 
L 346.56471 99.685815 
L 346.627487 104.543791 
L 346.690263 103.98629 
L 346.753039 103.98629 
L 346.815816 103.455398 
L 346.878592 100.74768 
L 347.004145 89.969904 
L 347.066921 95.916273 
L 347.129698 93.739487 
L 347.192474 94.296948 
L 347.255251 93.208555 
L 347.380803 100.74768 
L 347.44358 98.597422 
L 347.506356 95.916273 
L 347.569133 96.978097 
L 347.694686 106.694008 
L 347.757462 98.06649 
L 347.820238 98.597422 
L 347.945791 98.597422 
L 348.008568 100.216747 
L 348.13412 86.200362 
L 348.32245 102.367005 
L 348.385226 103.455398 
L 348.448002 100.216747 
L 348.510779 91.058297 
L 348.573555 95.916273 
L 348.636332 92.677623 
L 348.699108 98.06649 
L 348.761884 97.535558 
L 348.950214 102.367005 
L 349.138543 88.350579 
L 349.264096 99.154883 
L 349.326872 94.296948 
L 349.389648 96.978097 
L 349.577978 113.14474 
L 349.640754 109.932658 
L 349.829083 95.916273 
L 349.89186 96.978097 
L 349.954636 102.924466 
L 350.017412 98.597422 
L 350.080189 88.90804 
L 350.142965 95.916273 
L 350.331294 103.455398 
L 350.394071 92.677623 
L 350.456847 94.82788 
L 350.770729 80.811454 
L 350.959058 103.98629 
L 351.021835 102.924466 
L 351.147388 87.288755 
L 351.27294 103.455398 
L 351.335717 101.30514 
L 351.398493 90.527365 
L 351.46127 95.358772 
L 351.524046 90.527365 
L 351.586822 92.14669 
L 351.712375 88.350579 
L 351.900704 98.597422 
L 351.963481 96.978097 
L 352.026257 87.819647 
L 352.089034 93.208555 
L 352.214586 89.438972 
L 352.402916 98.06649 
L 352.465692 100.216747 
L 352.654021 87.819647 
L 352.716798 90.527365 
L 352.779574 98.06649 
L 352.905127 88.350579 
L 352.967903 89.438972 
L 353.156232 95.916273 
L 353.219009 85.138498 
L 353.281785 89.969904 
L 353.344562 83.519172 
L 353.407338 84.581037 
L 353.470114 93.739487 
L 353.595667 81.899847 
L 353.72122 92.14669 
L 353.783996 93.208555 
L 353.846773 99.685815 
L 353.909549 96.447165 
L 354.035102 87.819647 
L 354.097879 93.208555 
L 354.286208 84.050105 
L 354.788419 107.755872 
L 354.913972 99.685815 
L 354.976748 95.358772 
L 355.039525 95.916273 
L 355.102301 95.916273 
L 355.227854 92.14669 
L 355.353407 101.836073 
L 355.416183 93.739487 
L 355.478959 106.694008 
L 355.541736 105.605615 
L 355.667289 88.90804 
L 355.730065 91.58923 
L 355.792841 94.82788 
L 355.855618 90.527365 
L 355.918394 92.14669 
L 356.043947 103.455398 
L 356.106723 101.30514 
L 356.1695 101.30514 
L 356.420605 88.90804 
L 356.546158 89.438972 
L 356.734487 96.978097 
L 356.86004 88.350579 
L 357.048369 94.82788 
L 357.111146 91.058297 
L 357.236699 98.06649 
L 357.299475 96.978097 
L 357.362251 98.06649 
L 357.487804 107.755872 
L 357.676133 89.969904 
L 357.864463 103.98629 
L 357.927239 106.136547 
L 357.990015 92.14669 
L 358.052792 93.208555 
L 358.115568 100.216747 
L 358.178345 99.685815 
L 358.241121 93.739487 
L 358.303897 103.98629 
L 358.366674 100.216747 
L 358.492227 101.836073 
L 358.555003 96.447165 
L 358.617779 100.216747 
L 358.680556 102.367005 
L 358.806109 94.82788 
L 358.868885 95.916273 
L 358.931661 106.136547 
L 358.994438 105.605615 
L 359.182767 95.916273 
L 359.245543 94.296948 
L 359.371096 104.543791 
L 359.622202 95.358772 
L 359.684978 95.358772 
L 359.747755 92.677623 
L 359.936084 103.455398 
L 359.99886 101.836073 
L 360.187189 91.058297 
L 360.375519 105.074683 
L 360.501072 99.685815 
L 360.563848 102.924466 
L 360.626624 100.74768 
L 360.752177 86.200362 
L 361.003283 110.994523 
L 361.066059 110.463591 
L 361.505494 86.200362 
L 361.7566 98.06649 
L 361.819376 93.208555 
L 361.944929 99.154883 
L 362.070482 95.358772 
L 362.133258 96.978097 
L 362.258811 108.844265 
L 362.321587 106.136547 
L 362.44714 95.358772 
L 362.572693 99.154883 
L 362.823798 89.438972 
L 362.949351 102.367005 
L 363.200457 89.438972 
L 363.388786 99.685815 
L 363.451562 98.06649 
L 363.514339 93.208555 
L 363.639892 110.463591 
L 363.702668 109.932658 
L 363.765444 107.22494 
L 363.890997 119.091108 
L 364.079326 106.694008 
L 364.142103 105.074683 
L 364.204879 106.694008 
L 364.455985 98.597422 
L 364.518761 98.06649 
L 364.581538 95.916273 
L 364.644314 100.74768 
L 364.70709 99.154883 
L 364.769867 98.597422 
L 364.89542 106.694008 
L 364.958196 105.074683 
L 365.083749 92.14669 
L 365.146525 98.06649 
L 365.209302 96.978097 
L 365.397631 83.519172 
L 365.523184 84.050105 
L 365.711513 95.916273 
L 365.837066 101.836073 
L 365.899842 96.978097 
L 365.962618 98.597422 
L 366.088171 109.932658 
L 366.150948 106.694008 
L 366.213724 101.30514 
L 366.527606 120.710434 
L 366.715935 105.074683 
L 366.778712 108.844265 
L 366.841488 107.755872 
L 366.904265 105.074683 
L 367.029817 115.321526 
L 367.15537 103.455398 
L 367.218147 103.98629 
L 367.280923 107.22494 
L 367.469252 95.358772 
L 367.657581 108.844265 
L 367.720358 106.136547 
L 367.845911 91.58923 
L 367.908687 92.14669 
L 368.285345 106.136547 
L 368.410898 93.739487 
L 368.536451 101.836073 
L 368.662004 92.677623 
L 368.787557 109.932658 
L 368.913109 106.136547 
L 369.038662 86.200362 
L 369.101439 89.438972 
L 369.164215 96.978097 
L 369.226991 91.58923 
L 369.289768 89.969904 
L 369.415321 103.98629 
L 369.478097 101.836073 
L 369.60365 92.14669 
L 369.666426 95.916273 
L 369.854755 107.755872 
L 369.980308 89.438972 
L 370.043085 93.208555 
L 370.105861 92.14669 
L 370.168637 92.677623 
L 370.29419 106.136547 
L 370.356967 105.074683 
L 370.545296 98.06649 
L 370.670849 106.136547 
L 370.733625 106.694008 
L 370.796401 106.136547 
L 370.859178 106.694008 
L 370.984731 95.916273 
L 371.047507 96.447165 
L 371.110283 105.074683 
L 371.298613 90.527365 
L 371.424165 100.216747 
L 371.486942 96.447165 
L 371.549718 95.916273 
L 371.612495 92.677623 
L 371.675271 95.358772 
L 371.800824 88.90804 
L 372.051929 105.074683 
L 372.114706 101.30514 
L 372.240259 89.438972 
L 372.303035 91.058297 
L 372.365811 93.208555 
L 372.616917 81.899847 
L 372.679693 86.731254 
L 372.74247 84.050105 
L 372.805246 87.819647 
L 372.868023 86.731254 
L 372.930799 86.200362 
L 373.119128 80.280522 
L 373.244681 91.058297 
L 373.370234 83.519172 
L 373.558563 98.06649 
L 373.62134 96.447165 
L 373.684116 96.447165 
L 373.872445 81.342386 
L 373.997998 98.597422 
L 374.123551 81.342386 
L 374.186327 84.581037 
L 374.31188 92.14669 
L 374.437433 84.050105 
L 374.500209 87.288755 
L 374.562986 99.154883 
L 374.625762 91.58923 
L 374.751315 96.978097 
L 374.876868 89.438972 
L 374.939644 95.916273 
L 375.00242 86.731254 
L 375.065197 87.819647 
L 375.127973 85.138498 
L 375.19075 86.731254 
L 375.253526 93.739487 
L 375.316302 91.058297 
L 375.379079 91.58923 
L 375.441855 97.535558 
L 375.504632 96.978097 
L 375.567408 91.58923 
L 375.630184 94.82788 
L 375.692961 95.916273 
L 375.818514 81.342386 
L 376.006843 92.677623 
L 376.069619 87.819647 
L 376.132396 102.367005 
L 376.195172 100.216747 
L 376.257948 100.216747 
L 376.320725 96.978097 
L 376.383501 102.924466 
L 376.446278 99.154883 
L 376.509054 96.978097 
L 376.57183 99.685815 
L 376.76016 88.90804 
L 376.885712 90.527365 
L 376.948489 88.350579 
L 377.011265 89.969904 
L 377.074042 88.90804 
L 377.136818 97.535558 
L 377.199594 96.978097 
L 377.325147 95.358772 
L 377.387924 92.677623 
L 377.576253 108.844265 
L 377.764582 100.216747 
L 377.827358 101.30514 
L 377.890135 108.313333 
L 378.14124 91.58923 
L 378.204017 89.969904 
L 378.32957 93.208555 
L 378.392346 92.14669 
L 378.580675 103.455398 
L 378.706228 87.819647 
L 378.769004 91.058297 
L 378.831781 92.14669 
L 378.957334 97.535558 
L 379.02011 94.296948 
L 379.145663 99.685815 
L 379.208439 98.597422 
L 379.271216 95.916273 
L 379.333992 88.350579 
L 379.396768 91.058297 
L 379.585098 98.06649 
L 379.647874 101.836073 
L 379.710651 93.739487 
L 379.773427 96.978097 
L 379.89898 90.527365 
L 380.024533 99.154883 
L 380.150085 91.58923 
L 380.275638 97.535558 
L 380.338415 90.527365 
L 380.401191 91.58923 
L 380.715073 101.30514 
L 380.840626 87.819647 
L 380.903402 94.82788 
L 380.966179 89.438972 
L 381.028955 94.82788 
L 381.154508 79.192129 
L 381.342837 101.30514 
L 381.405613 99.154883 
L 381.531166 87.819647 
L 381.593943 89.969904 
L 381.719495 92.677623 
L 381.782272 88.90804 
L 381.970601 100.216747 
L 382.096154 87.288755 
L 382.221707 102.367005 
L 382.284483 99.685815 
L 382.347259 102.924466 
L 382.535589 88.90804 
L 382.661141 94.82788 
L 382.786694 82.961712 
L 382.849471 87.288755 
L 383.163353 106.694008 
L 383.226129 104.543791 
L 383.414458 93.739487 
L 383.477235 95.916273 
L 383.540011 95.358772 
L 383.602787 105.074683 
L 383.665564 104.543791 
L 383.72834 102.367005 
L 383.853893 109.375198 
L 383.916669 106.694008 
L 384.042222 100.74768 
L 384.104999 103.98629 
L 384.167775 103.455398 
L 384.230551 103.98629 
L 384.293328 107.22494 
L 384.544433 91.58923 
L 384.732763 105.074683 
L 384.795539 105.074683 
L 384.858315 109.375198 
L 385.172197 85.138498 
L 385.360527 98.06649 
L 385.423303 93.208555 
L 385.486079 94.82788 
L 385.737185 106.694008 
L 385.799961 98.597422 
L 385.862738 100.216747 
L 385.925514 100.74768 
L 385.988291 104.543791 
L 386.051067 101.836073 
L 386.113844 100.74768 
L 386.239396 105.605615 
L 386.490502 97.535558 
L 386.553278 89.969904 
L 386.616055 100.216747 
L 386.741608 89.969904 
L 386.804384 96.447165 
L 386.86716 92.14669 
L 386.929937 97.535558 
L 386.992713 94.296948 
L 387.05549 93.208555 
L 387.181042 95.358772 
L 387.306595 88.350579 
L 387.494924 105.605615 
L 387.620477 93.208555 
L 387.683254 99.154883 
L 387.74603 95.916273 
L 387.871583 91.058297 
L 387.997136 100.216747 
L 388.059912 98.597422 
L 388.122688 99.685815 
L 388.185465 94.82788 
L 388.248241 100.216747 
L 388.311018 94.296948 
L 388.373794 95.916273 
L 388.499347 98.06649 
L 388.562123 98.06649 
L 388.6249 95.916273 
L 388.813229 108.313333 
L 388.813229 108.313333 
" style="fill:none;stroke:#1f77b4;stroke-linecap:round;stroke-width:1.5;"/>
   </g>
   <g id="line2d_13">
    <path clip-path="url(#p5f049a3595)" d="M 87.435589 289 
L 87.435746 -1 
M 87.970618 -1 
L 87.970822 289 
M 88.039566 289 
L 88.040145 -1 
M 88.080431 -1 
L 88.08191 289 
L 88.08191 289 
" style="fill:none;stroke:#ff7f0e;stroke-linecap:round;stroke-width:1.5;"/>
   </g>
   <g id="patch_3">
    <path d="M 54 252 
L 54 34.56 
" style="fill:none;stroke:#cccccc;stroke-linecap:square;stroke-linejoin:miter;stroke-width:0.8;"/>
   </g>
   <g id="patch_4">
    <path d="M 388.8 252 
L 388.8 34.56 
" style="fill:none;stroke:#cccccc;stroke-linecap:square;stroke-linejoin:miter;stroke-width:0.8;"/>
   </g>
   <g id="patch_5">
    <path d="M 54 252 
L 388.8 252 
" style="fill:none;stroke:#cccccc;stroke-linecap:square;stroke-linejoin:miter;stroke-width:0.8;"/>
   </g>
   <g id="patch_6">
    <path d="M 54 34.56 
L 388.8 34.56 
" style="fill:none;stroke:#cccccc;stroke-linecap:square;stroke-linejoin:miter;stroke-width:0.8;"/>
   </g>
  </g>
 </g>
 <defs>
  <clipPath id="p5f049a3595">
   <rect height="217.44" width="334.8" x="54" y="34.56"/>
  </clipPath>
 </defs>
</svg>
