<?xml version="1.0" encoding="utf-8" standalone="no"?>
<!DOCTYPE svg PUBLIC "-//W3C//DTD SVG 1.1//EN"
  "http://www.w3.org/Graphics/SVG/1.1/DTD/svg11.dtd">
<svg height="288pt" version="1.1" viewBox="0 0 432 288" width="432pt" xmlns="http://www.w3.org/2000/svg" xmlns:xlink="http://www.w3.org/1999/xlink">
 <metadata>
  <rdf:RDF xmlns:cc="http://creativecommons.org/ns#" xmlns:dc="http://purl.org/dc/elements/1.1/" xmlns:rdf="http://www.w3.org/1999/02/22-rdf-syntax-ns#">
   <cc:Work>
    <dc:type rdf:resource="http://purl.org/dc/dcmitype/StillImage"/>
    <dc:date>2022-05-26T23:33:28.509541</dc:date>
    <dc:format>image/svg+xml</dc:format>
    <dc:creator>
     <cc:Agent>
      <dc:title>Matplotlib v3.4.0, https://matplotlib.org/</dc:title>
     </cc:Agent>
    </dc:creator>
   </cc:Work>
  </rdf:RDF>
 </metadata>
 <defs>
  <style type="text/css">*{stroke-linecap:butt;stroke-linejoin:round;}</style>
 </defs>
 <g id="figure_1">
  <g id="patch_1">
   <path d="M 0 288 
L 432 288 
L 432 0 
L 0 0 
z
" style="fill:#ffffff;"/>
  </g>
  <g id="axes_1">
   <g id="patch_2">
    <path d="M 54 252 
L 388.8 252 
L 388.8 34.56 
L 54 34.56 
z
" style="fill:#ffffff;"/>
   </g>
   <g id="matplotlib.axis_1">
    <g id="xtick_1">
     <g id="line2d_1">
      <path clip-path="url(#pe97edaf5d0)" d="M 87.48 252 
L 87.48 34.56 
" style="fill:none;stroke:#cccccc;stroke-linecap:round;stroke-width:0.8;"/>
     </g>
     <g id="text_1">
      <!-- 0.00010 -->
      <g style="fill:#262626;" transform="translate(66.803438 266.598437)scale(0.1 -0.1)">
       <defs>
        <path d="M 2034 4250 
Q 1547 4250 1301 3770 
Q 1056 3291 1056 2328 
Q 1056 1369 1301 889 
Q 1547 409 2034 409 
Q 2525 409 2770 889 
Q 3016 1369 3016 2328 
Q 3016 3291 2770 3770 
Q 2525 4250 2034 4250 
z
M 2034 4750 
Q 2819 4750 3233 4129 
Q 3647 3509 3647 2328 
Q 3647 1150 3233 529 
Q 2819 -91 2034 -91 
Q 1250 -91 836 529 
Q 422 1150 422 2328 
Q 422 3509 836 4129 
Q 1250 4750 2034 4750 
z
" id="DejaVuSans-30" transform="scale(0.015625)"/>
        <path d="M 684 794 
L 1344 794 
L 1344 0 
L 684 0 
L 684 794 
z
" id="DejaVuSans-2e" transform="scale(0.015625)"/>
        <path d="M 794 531 
L 1825 531 
L 1825 4091 
L 703 3866 
L 703 4441 
L 1819 4666 
L 2450 4666 
L 2450 531 
L 3481 531 
L 3481 0 
L 794 0 
L 794 531 
z
" id="DejaVuSans-31" transform="scale(0.015625)"/>
       </defs>
       <use xlink:href="#DejaVuSans-30"/>
       <use x="63.623047" xlink:href="#DejaVuSans-2e"/>
       <use x="95.410156" xlink:href="#DejaVuSans-30"/>
       <use x="159.033203" xlink:href="#DejaVuSans-30"/>
       <use x="222.65625" xlink:href="#DejaVuSans-30"/>
       <use x="286.279297" xlink:href="#DejaVuSans-31"/>
       <use x="349.902344" xlink:href="#DejaVuSans-30"/>
      </g>
     </g>
    </g>
    <g id="xtick_2">
     <g id="line2d_2">
      <path clip-path="url(#pe97edaf5d0)" d="M 154.44 252 
L 154.44 34.56 
" style="fill:none;stroke:#cccccc;stroke-linecap:round;stroke-width:0.8;"/>
     </g>
     <g id="text_2">
      <!-- 0.00012 -->
      <g style="fill:#262626;" transform="translate(133.763438 266.598437)scale(0.1 -0.1)">
       <defs>
        <path d="M 1228 531 
L 3431 531 
L 3431 0 
L 469 0 
L 469 531 
Q 828 903 1448 1529 
Q 2069 2156 2228 2338 
Q 2531 2678 2651 2914 
Q 2772 3150 2772 3378 
Q 2772 3750 2511 3984 
Q 2250 4219 1831 4219 
Q 1534 4219 1204 4116 
Q 875 4013 500 3803 
L 500 4441 
Q 881 4594 1212 4672 
Q 1544 4750 1819 4750 
Q 2544 4750 2975 4387 
Q 3406 4025 3406 3419 
Q 3406 3131 3298 2873 
Q 3191 2616 2906 2266 
Q 2828 2175 2409 1742 
Q 1991 1309 1228 531 
z
" id="DejaVuSans-32" transform="scale(0.015625)"/>
       </defs>
       <use xlink:href="#DejaVuSans-30"/>
       <use x="63.623047" xlink:href="#DejaVuSans-2e"/>
       <use x="95.410156" xlink:href="#DejaVuSans-30"/>
       <use x="159.033203" xlink:href="#DejaVuSans-30"/>
       <use x="222.65625" xlink:href="#DejaVuSans-30"/>
       <use x="286.279297" xlink:href="#DejaVuSans-31"/>
       <use x="349.902344" xlink:href="#DejaVuSans-32"/>
      </g>
     </g>
    </g>
    <g id="xtick_3">
     <g id="line2d_3">
      <path clip-path="url(#pe97edaf5d0)" d="M 221.4 252 
L 221.4 34.56 
" style="fill:none;stroke:#cccccc;stroke-linecap:round;stroke-width:0.8;"/>
     </g>
     <g id="text_3">
      <!-- 0.00014 -->
      <g style="fill:#262626;" transform="translate(200.723438 266.598437)scale(0.1 -0.1)">
       <defs>
        <path d="M 2419 4116 
L 825 1625 
L 2419 1625 
L 2419 4116 
z
M 2253 4666 
L 3047 4666 
L 3047 1625 
L 3713 1625 
L 3713 1100 
L 3047 1100 
L 3047 0 
L 2419 0 
L 2419 1100 
L 313 1100 
L 313 1709 
L 2253 4666 
z
" id="DejaVuSans-34" transform="scale(0.015625)"/>
       </defs>
       <use xlink:href="#DejaVuSans-30"/>
       <use x="63.623047" xlink:href="#DejaVuSans-2e"/>
       <use x="95.410156" xlink:href="#DejaVuSans-30"/>
       <use x="159.033203" xlink:href="#DejaVuSans-30"/>
       <use x="222.65625" xlink:href="#DejaVuSans-30"/>
       <use x="286.279297" xlink:href="#DejaVuSans-31"/>
       <use x="349.902344" xlink:href="#DejaVuSans-34"/>
      </g>
     </g>
    </g>
    <g id="xtick_4">
     <g id="line2d_4">
      <path clip-path="url(#pe97edaf5d0)" d="M 288.36 252 
L 288.36 34.56 
" style="fill:none;stroke:#cccccc;stroke-linecap:round;stroke-width:0.8;"/>
     </g>
     <g id="text_4">
      <!-- 0.00016 -->
      <g style="fill:#262626;" transform="translate(267.683438 266.598437)scale(0.1 -0.1)">
       <defs>
        <path d="M 2113 2584 
Q 1688 2584 1439 2293 
Q 1191 2003 1191 1497 
Q 1191 994 1439 701 
Q 1688 409 2113 409 
Q 2538 409 2786 701 
Q 3034 994 3034 1497 
Q 3034 2003 2786 2293 
Q 2538 2584 2113 2584 
z
M 3366 4563 
L 3366 3988 
Q 3128 4100 2886 4159 
Q 2644 4219 2406 4219 
Q 1781 4219 1451 3797 
Q 1122 3375 1075 2522 
Q 1259 2794 1537 2939 
Q 1816 3084 2150 3084 
Q 2853 3084 3261 2657 
Q 3669 2231 3669 1497 
Q 3669 778 3244 343 
Q 2819 -91 2113 -91 
Q 1303 -91 875 529 
Q 447 1150 447 2328 
Q 447 3434 972 4092 
Q 1497 4750 2381 4750 
Q 2619 4750 2861 4703 
Q 3103 4656 3366 4563 
z
" id="DejaVuSans-36" transform="scale(0.015625)"/>
       </defs>
       <use xlink:href="#DejaVuSans-30"/>
       <use x="63.623047" xlink:href="#DejaVuSans-2e"/>
       <use x="95.410156" xlink:href="#DejaVuSans-30"/>
       <use x="159.033203" xlink:href="#DejaVuSans-30"/>
       <use x="222.65625" xlink:href="#DejaVuSans-30"/>
       <use x="286.279297" xlink:href="#DejaVuSans-31"/>
       <use x="349.902344" xlink:href="#DejaVuSans-36"/>
      </g>
     </g>
    </g>
    <g id="xtick_5">
     <g id="line2d_5">
      <path clip-path="url(#pe97edaf5d0)" d="M 355.32 252 
L 355.32 34.56 
" style="fill:none;stroke:#cccccc;stroke-linecap:round;stroke-width:0.8;"/>
     </g>
     <g id="text_5">
      <!-- 0.00018 -->
      <g style="fill:#262626;" transform="translate(334.643438 266.598437)scale(0.1 -0.1)">
       <defs>
        <path d="M 2034 2216 
Q 1584 2216 1326 1975 
Q 1069 1734 1069 1313 
Q 1069 891 1326 650 
Q 1584 409 2034 409 
Q 2484 409 2743 651 
Q 3003 894 3003 1313 
Q 3003 1734 2745 1975 
Q 2488 2216 2034 2216 
z
M 1403 2484 
Q 997 2584 770 2862 
Q 544 3141 544 3541 
Q 544 4100 942 4425 
Q 1341 4750 2034 4750 
Q 2731 4750 3128 4425 
Q 3525 4100 3525 3541 
Q 3525 3141 3298 2862 
Q 3072 2584 2669 2484 
Q 3125 2378 3379 2068 
Q 3634 1759 3634 1313 
Q 3634 634 3220 271 
Q 2806 -91 2034 -91 
Q 1263 -91 848 271 
Q 434 634 434 1313 
Q 434 1759 690 2068 
Q 947 2378 1403 2484 
z
M 1172 3481 
Q 1172 3119 1398 2916 
Q 1625 2713 2034 2713 
Q 2441 2713 2670 2916 
Q 2900 3119 2900 3481 
Q 2900 3844 2670 4047 
Q 2441 4250 2034 4250 
Q 1625 4250 1398 4047 
Q 1172 3844 1172 3481 
z
" id="DejaVuSans-38" transform="scale(0.015625)"/>
       </defs>
       <use xlink:href="#DejaVuSans-30"/>
       <use x="63.623047" xlink:href="#DejaVuSans-2e"/>
       <use x="95.410156" xlink:href="#DejaVuSans-30"/>
       <use x="159.033203" xlink:href="#DejaVuSans-30"/>
       <use x="222.65625" xlink:href="#DejaVuSans-30"/>
       <use x="286.279297" xlink:href="#DejaVuSans-31"/>
       <use x="349.902344" xlink:href="#DejaVuSans-38"/>
      </g>
     </g>
    </g>
   </g>
   <g id="matplotlib.axis_2">
    <g id="ytick_1">
     <g id="line2d_6">
      <path clip-path="url(#pe97edaf5d0)" d="M 54 230.256 
L 388.8 230.256 
" style="fill:none;stroke:#cccccc;stroke-linecap:round;stroke-width:0.8;"/>
     </g>
     <g id="text_6">
      <!-- 0.007 -->
      <g style="fill:#262626;" transform="translate(18.371875 234.055219)scale(0.1 -0.1)">
       <defs>
        <path d="M 525 4666 
L 3525 4666 
L 3525 4397 
L 1831 0 
L 1172 0 
L 2766 4134 
L 525 4134 
L 525 4666 
z
" id="DejaVuSans-37" transform="scale(0.015625)"/>
       </defs>
       <use xlink:href="#DejaVuSans-30"/>
       <use x="63.623047" xlink:href="#DejaVuSans-2e"/>
       <use x="95.410156" xlink:href="#DejaVuSans-30"/>
       <use x="159.033203" xlink:href="#DejaVuSans-30"/>
       <use x="222.65625" xlink:href="#DejaVuSans-37"/>
      </g>
     </g>
    </g>
    <g id="ytick_2">
     <g id="line2d_7">
      <path clip-path="url(#pe97edaf5d0)" d="M 54 186.768 
L 388.8 186.768 
" style="fill:none;stroke:#cccccc;stroke-linecap:round;stroke-width:0.8;"/>
     </g>
     <g id="text_7">
      <!-- 0.008 -->
      <g style="fill:#262626;" transform="translate(18.371875 190.567219)scale(0.1 -0.1)">
       <use xlink:href="#DejaVuSans-30"/>
       <use x="63.623047" xlink:href="#DejaVuSans-2e"/>
       <use x="95.410156" xlink:href="#DejaVuSans-30"/>
       <use x="159.033203" xlink:href="#DejaVuSans-30"/>
       <use x="222.65625" xlink:href="#DejaVuSans-38"/>
      </g>
     </g>
    </g>
    <g id="ytick_3">
     <g id="line2d_8">
      <path clip-path="url(#pe97edaf5d0)" d="M 54 143.28 
L 388.8 143.28 
" style="fill:none;stroke:#cccccc;stroke-linecap:round;stroke-width:0.8;"/>
     </g>
     <g id="text_8">
      <!-- 0.009 -->
      <g style="fill:#262626;" transform="translate(18.371875 147.079219)scale(0.1 -0.1)">
       <defs>
        <path d="M 703 97 
L 703 672 
Q 941 559 1184 500 
Q 1428 441 1663 441 
Q 2288 441 2617 861 
Q 2947 1281 2994 2138 
Q 2813 1869 2534 1725 
Q 2256 1581 1919 1581 
Q 1219 1581 811 2004 
Q 403 2428 403 3163 
Q 403 3881 828 4315 
Q 1253 4750 1959 4750 
Q 2769 4750 3195 4129 
Q 3622 3509 3622 2328 
Q 3622 1225 3098 567 
Q 2575 -91 1691 -91 
Q 1453 -91 1209 -44 
Q 966 3 703 97 
z
M 1959 2075 
Q 2384 2075 2632 2365 
Q 2881 2656 2881 3163 
Q 2881 3666 2632 3958 
Q 2384 4250 1959 4250 
Q 1534 4250 1286 3958 
Q 1038 3666 1038 3163 
Q 1038 2656 1286 2365 
Q 1534 2075 1959 2075 
z
" id="DejaVuSans-39" transform="scale(0.015625)"/>
       </defs>
       <use xlink:href="#DejaVuSans-30"/>
       <use x="63.623047" xlink:href="#DejaVuSans-2e"/>
       <use x="95.410156" xlink:href="#DejaVuSans-30"/>
       <use x="159.033203" xlink:href="#DejaVuSans-30"/>
       <use x="222.65625" xlink:href="#DejaVuSans-39"/>
      </g>
     </g>
    </g>
    <g id="ytick_4">
     <g id="line2d_9">
      <path clip-path="url(#pe97edaf5d0)" d="M 54 99.792 
L 388.8 99.792 
" style="fill:none;stroke:#cccccc;stroke-linecap:round;stroke-width:0.8;"/>
     </g>
     <g id="text_9">
      <!-- 0.010 -->
      <g style="fill:#262626;" transform="translate(18.371875 103.591219)scale(0.1 -0.1)">
       <use xlink:href="#DejaVuSans-30"/>
       <use x="63.623047" xlink:href="#DejaVuSans-2e"/>
       <use x="95.410156" xlink:href="#DejaVuSans-30"/>
       <use x="159.033203" xlink:href="#DejaVuSans-31"/>
       <use x="222.65625" xlink:href="#DejaVuSans-30"/>
      </g>
     </g>
    </g>
    <g id="ytick_5">
     <g id="line2d_10">
      <path clip-path="url(#pe97edaf5d0)" d="M 54 56.304 
L 388.8 56.304 
" style="fill:none;stroke:#cccccc;stroke-linecap:round;stroke-width:0.8;"/>
     </g>
     <g id="text_10">
      <!-- 0.011 -->
      <g style="fill:#262626;" transform="translate(18.371875 60.103219)scale(0.1 -0.1)">
       <use xlink:href="#DejaVuSans-30"/>
       <use x="63.623047" xlink:href="#DejaVuSans-2e"/>
       <use x="95.410156" xlink:href="#DejaVuSans-30"/>
       <use x="159.033203" xlink:href="#DejaVuSans-31"/>
       <use x="222.65625" xlink:href="#DejaVuSans-31"/>
      </g>
     </g>
    </g>
   </g>
   <g id="line2d_11">
    <path clip-path="url(#pe97edaf5d0)" d="M 53.949138 181.07649 
L 54.011915 178.926273 
L 54.200244 185.934466 
L 54.263021 181.607422 
L 54.388574 192.942658 
L 54.576903 187.553791 
L 54.63968 186.465357 
L 54.765232 195.623828 
L 54.890785 190.765872 
L 54.953562 183.784208 
L 55.016338 184.846073 
L 55.204668 195.092895 
L 55.392997 183.784208 
L 55.455774 186.465357 
L 55.70688 181.607422 
L 56.020762 200.481783 
L 56.271868 186.99629 
L 56.334644 197.774065 
L 56.397421 194.004482 
L 56.460197 199.950851 
L 56.522974 197.774065 
L 56.58575 184.31514 
L 56.648527 184.846073 
L 56.711303 186.465357 
L 56.899633 172.448972 
L 57.025186 184.31514 
L 57.150739 177.306948 
L 57.276291 186.465357 
L 57.401844 172.979904 
L 57.464621 173.537365 
L 57.715727 183.226747 
L 57.778503 181.607422 
L 57.84128 181.07649 
L 57.904056 183.226747 
L 57.966833 178.926273 
L 58.029609 180.545558 
L 58.155162 190.765872 
L 58.343492 172.979904 
L 58.469044 191.854265 
L 58.531821 183.784208 
L 58.594597 189.173076 
L 58.72015 184.31514 
L 58.782927 185.376964 
L 58.845703 180.545558 
L 58.971256 186.99629 
L 59.034033 184.31514 
L 59.159586 187.553791 
L 59.285139 174.068297 
L 59.347915 175.687622 
L 59.536245 190.23494 
L 59.599021 183.226747 
L 59.661798 187.553791 
L 59.78735 183.784208 
L 59.850127 185.934466 
L 60.101233 170.829647 
L 60.289562 188.615615 
L 60.477892 199.950851 
L 60.666221 182.695815 
L 60.854551 189.704008 
L 61.04288 178.926273 
L 61.293986 193.473591 
L 61.356762 188.084683 
L 61.419539 189.704008 
L 61.482315 204.782258 
L 61.545092 198.862458 
L 61.733421 190.765872 
L 61.796198 191.854265 
L 61.858974 191.323333 
L 62.047304 184.31514 
L 62.172857 185.376964 
L 62.235633 185.934466 
L 62.298409 187.553791 
L 62.361186 184.31514 
L 62.549515 197.774065 
L 62.675068 186.465357 
L 62.737845 188.084683 
L 62.800621 196.712221 
L 62.863398 194.561983 
L 62.988951 185.934466 
L 63.051727 189.704008 
L 63.240057 175.15669 
L 63.302833 181.607422 
L 63.36561 183.226747 
L 63.428386 181.07649 
L 63.491162 181.607422 
L 63.616715 188.615615 
L 63.679492 181.07649 
L 63.742268 185.376964 
L 63.867821 177.837839 
L 63.930598 178.926273 
L 63.993374 170.829647 
L 64.181704 194.561983 
L 64.24448 192.385198 
L 64.370033 187.553791 
L 64.43281 188.615615 
L 64.621139 183.784208 
L 64.683916 186.99629 
L 64.746692 186.465357 
L 64.809468 186.99629 
L 64.872245 186.465357 
L 64.997798 179.988097 
L 65.060574 181.607422 
L 65.186127 189.704008 
L 65.374457 180.545558 
L 65.625563 195.623828 
L 65.688339 185.934466 
L 65.751116 189.173076 
L 65.813892 194.561983 
L 66.002221 182.695815 
L 66.253327 189.704008 
L 66.441657 173.537365 
L 66.504433 177.306948 
L 66.629986 192.942658 
L 66.692763 189.173076 
L 66.755539 187.553791 
L 67.006645 201.570176 
L 67.069422 197.774065 
L 67.194975 190.23494 
L 67.257751 181.07649 
L 67.320527 183.226747 
L 67.383304 182.695815 
L 67.571633 195.092895 
L 67.63441 198.331526 
L 67.697186 197.243133 
L 67.948292 176.776015 
L 68.073845 189.704008 
L 68.136622 189.173076 
L 68.262175 176.776015 
L 68.324951 183.784208 
L 68.387728 185.934466 
L 68.450504 185.376964 
L 68.51328 185.934466 
L 68.764386 195.092895 
L 68.827163 194.004482 
L 68.889939 190.765872 
L 68.952716 195.623828 
L 69.015492 193.473591 
L 69.078269 194.004482 
L 69.141045 195.623828 
L 69.329375 191.323333 
L 69.454928 201.012695 
L 69.517704 198.331526 
L 69.580481 203.189481 
L 69.643257 200.481783 
L 69.76881 183.226747 
L 69.894363 192.942658 
L 69.957139 191.323333 
L 70.019916 186.465357 
L 70.082692 188.084683 
L 70.145469 196.712221 
L 70.208245 193.473591 
L 70.271022 193.473591 
L 70.333798 192.385198 
L 70.459351 201.012695 
L 70.522128 202.101088 
L 70.647681 188.084683 
L 70.710457 188.615615 
L 70.898787 184.31514 
L 70.961563 186.465357 
L 71.024339 194.004482 
L 71.087116 192.385198 
L 71.149892 190.765872 
L 71.275445 180.545558 
L 71.526551 193.473591 
L 71.714881 184.31514 
L 71.840434 188.615615 
L 71.90321 188.615615 
L 72.028763 178.926273 
L 72.217093 189.173076 
L 72.279869 188.615615 
L 72.342645 186.465357 
L 72.468198 195.092895 
L 72.530975 194.561983 
L 72.656528 199.39339 
L 72.782081 191.854265 
L 72.907634 198.862458 
L 73.347069 179.988097 
L 73.409846 184.31514 
L 73.472622 176.218555 
L 73.535398 176.776015 
L 73.660951 184.846073 
L 73.786504 181.607422 
L 73.849281 190.23494 
L 73.912057 189.704008 
L 73.974834 188.615615 
L 74.03761 191.323333 
L 74.163163 188.615615 
L 74.22594 194.004482 
L 74.477046 181.07649 
L 74.539822 182.695815 
L 74.790928 176.776015 
L 75.10481 198.331526 
L 75.167587 193.473591 
L 75.230363 192.385198 
L 75.29314 188.084683 
L 75.418693 196.181288 
L 75.481469 194.561983 
L 75.669799 184.31514 
L 75.732575 185.934466 
L 75.795352 188.615615 
L 75.920905 179.988097 
L 75.983681 180.545558 
L 76.046457 180.545558 
L 76.109234 175.687622 
L 76.234787 181.607422 
L 76.297563 177.306948 
L 76.36034 180.545558 
L 76.423116 181.607422 
L 76.485893 175.15669 
L 76.548669 176.776015 
L 76.611446 176.776015 
L 76.736999 188.084683 
L 76.799775 185.376964 
L 76.925328 176.776015 
L 76.988105 179.457165 
L 77.050881 188.084683 
L 77.239211 174.59923 
L 77.364763 179.988097 
L 77.42754 175.15669 
L 77.490316 176.218555 
L 77.553093 186.465357 
L 77.615869 183.226747 
L 77.741422 171.360579 
L 77.929752 193.473591 
L 77.992528 191.323333 
L 78.118081 175.15669 
L 78.180858 178.368772 
L 78.306411 191.854265 
L 78.369187 191.854265 
L 78.620293 172.448972 
L 78.745846 185.376964 
L 78.808622 183.226747 
L 78.871399 171.91804 
L 78.934175 177.306948 
L 78.996952 191.323333 
L 79.059728 189.173076 
L 79.185281 173.537365 
L 79.248058 171.91804 
L 79.310834 172.448972 
L 79.436387 183.226747 
L 79.499164 179.988097 
L 79.687493 186.465357 
L 79.75027 185.376964 
L 79.813046 186.465357 
L 79.875822 184.846073 
L 79.938599 179.457165 
L 80.001375 182.164883 
L 80.064152 184.31514 
L 80.252481 173.537365 
L 80.503587 190.23494 
L 80.566364 189.173076 
L 80.62914 185.376964 
L 80.691917 186.465357 
L 80.754693 186.465357 
L 80.81747 185.934466 
L 80.880246 179.988097 
L 80.943023 182.695815 
L 81.068575 176.218555 
L 81.256905 195.623828 
L 81.319681 195.092895 
L 81.382458 183.784208 
L 81.445234 188.084683 
L 81.570787 192.385198 
L 81.633564 189.173076 
L 81.759117 203.189481 
L 81.88467 185.934466 
L 81.947446 187.553791 
L 82.072999 192.942658 
L 82.198552 185.376964 
L 82.261329 187.553791 
L 82.324105 188.615615 
L 82.449658 186.99629 
L 82.512434 181.07649 
L 82.637987 189.173076 
L 82.700764 188.084683 
L 82.76354 184.31514 
L 82.826317 187.553791 
L 82.889093 184.31514 
L 82.95187 185.934466 
L 83.077423 182.164883 
L 83.265752 205.870651 
L 83.391305 189.704008 
L 83.454082 190.765872 
L 83.516858 191.854265 
L 83.579635 196.712221 
L 83.642411 195.092895 
L 83.705187 197.243133 
L 83.893517 188.615615 
L 83.956293 190.765872 
L 84.081846 178.368772 
L 84.144623 182.695815 
L 84.395729 197.243133 
L 84.521282 191.854265 
L 84.584058 198.331526 
L 84.646835 193.473591 
L 84.709611 197.243133 
L 84.772388 194.561983 
L 84.835164 193.473591 
L 84.89794 194.004482 
L 85.023493 195.623828 
L 85.211823 180.545558 
L 85.274599 184.31514 
L 85.337376 183.784208 
L 85.525705 175.687622 
L 85.588482 183.226747 
L 85.651258 181.07649 
L 85.714035 182.164883 
L 85.776811 179.988097 
L 85.902364 185.376964 
L 85.965141 184.31514 
L 86.027917 183.784208 
L 86.090694 186.465357 
L 86.216246 182.164883 
L 86.341799 187.553791 
L 86.467352 184.31514 
L 86.530129 186.99629 
L 86.592905 186.465357 
L 86.718458 187.553791 
L 86.844011 174.068297 
L 86.906788 174.59923 
L 87.032341 189.173076 
L 87.095117 188.615615 
L 87.157894 181.07649 
L 87.22067 181.607422 
L 87.346223 189.704008 
L 87.408999 183.226747 
L 87.471776 184.846073 
L 87.597329 191.854265 
L 87.660105 187.553791 
L 87.785658 198.331526 
L 87.973988 181.07649 
L 88.036764 180.545558 
L 88.099541 209.640213 
L 88.162317 194.004482 
L 88.225094 159.52098 
L 88.413423 228.514574 
L 88.4762 226.895249 
L 88.601753 186.99629 
L 88.727305 209.109301 
L 88.790082 202.63202 
L 88.852858 205.870651 
L 88.915635 177.837839 
L 88.978411 188.084683 
L 89.041188 186.465357 
L 89.103964 186.99629 
L 89.292294 156.282329 
L 89.480623 174.068297 
L 89.5434 167.060105 
L 89.606176 169.210322 
L 89.731729 181.07649 
L 89.920058 210.728606 
L 90.108388 188.084683 
L 90.233941 194.004482 
L 90.296717 191.323333 
L 90.359494 188.615615 
L 90.547823 194.004482 
L 90.798929 178.368772 
L 90.924482 186.465357 
L 90.987259 185.934466 
L 91.175588 174.59923 
L 91.238364 175.15669 
L 91.48947 172.448972 
L 91.552247 174.068297 
L 91.740576 190.765872 
L 91.803353 181.607422 
L 91.866129 183.226747 
L 91.928906 197.774065 
L 91.991682 196.181288 
L 92.054459 192.385198 
L 92.117235 198.331526 
L 92.180012 196.181288 
L 92.305565 181.07649 
L 92.368341 183.226747 
L 92.431117 183.784208 
L 92.493894 178.368772 
L 92.55667 179.988097 
L 92.682223 185.934466 
L 92.870553 171.360579 
L 92.933329 170.829647 
L 93.058882 175.15669 
L 93.184435 197.243133 
L 93.247212 196.712221 
L 93.498318 178.926273 
L 93.561094 184.31514 
L 93.623871 185.376964 
L 93.686647 177.837839 
L 93.749423 180.545558 
L 93.874976 179.457165 
L 94.063306 185.376964 
L 94.126082 182.164883 
L 94.251635 189.704008 
L 94.691071 163.821454 
L 94.816624 173.537365 
L 94.8794 174.068297 
L 94.942176 167.591037 
L 95.004953 179.457165 
L 95.067729 176.218555 
L 95.381612 184.31514 
L 95.507165 174.59923 
L 95.569941 177.837839 
L 95.632718 183.784208 
L 95.695494 182.695815 
L 95.758271 183.784208 
L 96.009377 171.91804 
L 96.260482 188.084683 
L 96.323259 185.934466 
L 96.448812 177.306948 
L 96.511588 181.607422 
L 96.574365 176.218555 
L 96.637141 177.837839 
L 96.699918 177.306948 
L 96.762694 179.988097 
L 96.825471 178.368772 
L 96.888247 168.67943 
L 96.951024 172.448972 
L 97.20213 191.854265 
L 97.264906 190.23494 
L 97.327683 190.765872 
L 97.390459 195.623828 
L 97.641565 171.360579 
L 97.767118 182.164883 
L 97.829894 181.607422 
L 97.892671 181.607422 
L 97.955447 173.537365 
L 98.018224 174.59923 
L 98.26933 185.934466 
L 98.394883 179.457165 
L 98.645989 186.465357 
L 98.708765 182.164883 
L 98.771541 182.695815 
L 98.834318 184.846073 
L 99.022647 178.368772 
L 99.1482 188.084683 
L 99.33653 181.07649 
L 99.399306 176.218555 
L 99.524859 193.473591 
L 99.650412 183.226747 
L 99.775965 186.99629 
L 99.838742 183.784208 
L 99.964294 196.181288 
L 100.027071 191.323333 
L 100.152624 189.704008 
L 100.2154 190.23494 
L 100.340953 195.092895 
L 100.40373 194.004482 
L 100.466506 189.704008 
L 100.654836 205.339739 
L 100.780389 186.465357 
L 100.843165 190.23494 
L 100.905942 189.173076 
L 101.157048 171.360579 
L 101.2826 174.068297 
L 101.659259 197.243133 
L 101.784812 191.854265 
L 101.847589 197.243133 
L 101.973142 191.854265 
L 102.035918 195.092895 
L 102.098695 192.942658 
L 102.287024 185.934466 
L 102.412577 177.837839 
L 102.600906 193.473591 
L 102.789236 178.368772 
L 102.914789 189.704008 
L 102.977565 182.695815 
L 103.040342 185.934466 
L 103.103118 185.934466 
L 103.291448 177.837839 
L 103.60533 187.553791 
L 103.730883 179.457165 
L 103.793659 179.457165 
L 103.856436 183.784208 
L 103.919212 177.837839 
L 104.044765 188.084683 
L 104.107542 187.553791 
L 104.170318 185.376964 
L 104.233095 177.306948 
L 104.295871 184.846073 
L 104.358648 184.31514 
L 104.421424 184.31514 
L 104.484201 185.376964 
L 104.735307 201.012695 
L 104.923636 182.695815 
L 104.986412 183.226747 
L 105.111965 192.942658 
L 105.237518 184.846073 
L 105.363071 181.07649 
L 105.425848 182.164883 
L 105.614177 191.854265 
L 105.676954 191.323333 
L 105.865283 176.218555 
L 105.92806 176.218555 
L 105.990836 175.687622 
L 106.179166 185.376964 
L 106.241942 181.607422 
L 106.304718 173.537365 
L 106.430271 186.99629 
L 106.493048 180.545558 
L 106.555824 183.226747 
L 106.618601 186.465357 
L 106.681377 184.31514 
L 106.869707 175.687622 
L 107.058036 186.465357 
L 107.120813 179.988097 
L 107.183589 190.765872 
L 107.246366 189.173076 
L 107.309142 189.704008 
L 107.434695 191.854265 
L 107.497471 184.846073 
L 107.560248 186.99629 
L 107.685801 194.004482 
L 107.748577 195.092895 
L 107.811354 192.942658 
L 107.936907 199.39339 
L 108.125236 182.695815 
L 108.188013 184.31514 
L 108.376342 191.323333 
L 108.564672 190.23494 
L 108.753001 185.376964 
L 108.815777 183.784208 
L 108.94133 190.23494 
L 109.12966 184.31514 
L 109.255213 192.942658 
L 109.317989 185.376964 
L 109.380766 185.934466 
L 109.443542 196.712221 
L 109.506319 191.854265 
L 109.569095 184.31514 
L 109.631872 184.846073 
L 109.757425 187.553791 
L 109.820201 185.934466 
L 109.945754 198.862458 
L 110.134083 176.218555 
L 110.19686 188.084683 
L 110.259636 186.465357 
L 110.322413 181.07649 
L 110.573519 200.481783 
L 110.824625 180.545558 
L 110.887401 183.784208 
L 111.138507 175.15669 
L 111.326836 188.615615 
L 111.389613 187.553791 
L 111.577942 178.368772 
L 111.640719 174.068297 
L 111.891825 192.942658 
L 111.954601 189.173076 
L 112.142931 170.298755 
L 112.268484 188.084683 
L 112.33126 186.99629 
L 112.394037 189.704008 
L 112.519589 183.784208 
L 112.582366 194.004482 
L 112.645142 188.615615 
L 112.770695 194.004482 
L 112.833472 189.173076 
L 113.021801 197.243133 
L 113.084578 185.376964 
L 113.147354 188.084683 
L 113.335684 201.570176 
L 113.39846 194.004482 
L 113.461237 195.092895 
L 113.524013 193.473591 
L 113.649566 201.012695 
L 113.775119 185.934466 
L 113.837895 188.084683 
L 113.900672 199.950851 
L 113.963448 198.331526 
L 114.026225 195.092895 
L 114.089001 195.623828 
L 114.151778 195.623828 
L 114.214554 202.101088 
L 114.277331 194.561983 
L 114.340107 195.623828 
L 114.402884 196.181288 
L 114.46566 195.092895 
L 114.591213 205.870651 
L 114.842319 198.331526 
L 114.905096 198.331526 
L 114.967872 198.862458 
L 115.030648 196.712221 
L 115.218978 209.109301 
L 115.344531 198.862458 
L 115.470084 203.189481 
L 115.783966 188.084683 
L 115.846743 189.173076 
L 116.035072 194.004482 
L 116.097849 193.473591 
L 116.160625 202.63202 
L 116.286178 189.173076 
L 116.348954 190.23494 
L 116.662837 208.020908 
L 116.725613 198.862458 
L 116.78839 201.012695 
L 116.851166 203.720413 
L 117.039496 199.39339 
L 117.227825 208.578369 
L 117.290602 208.578369 
L 117.353378 212.347931 
L 117.478931 205.870651 
L 117.541707 207.489976 
L 117.604484 202.101088 
L 117.730037 214.498168 
L 117.792813 204.251346 
L 117.85559 204.782258 
L 117.918366 204.782258 
L 117.981143 214.498168 
L 118.043919 213.409776 
L 118.232249 199.39339 
L 118.295025 201.570176 
L 118.420578 204.782258 
L 118.546131 216.648426 
L 118.608908 215.029101 
L 118.797237 194.004482 
L 118.860013 201.570176 
L 118.92279 201.012695 
L 119.048343 198.862458 
L 119.111119 199.39339 
L 119.173896 203.189481 
L 119.236672 202.63202 
L 119.425002 191.854265 
L 119.676108 219.356124 
L 119.801661 212.878864 
L 119.98999 196.181288 
L 120.178319 210.728606 
L 120.241096 216.117494 
L 120.429425 204.251346 
L 120.554978 221.506381 
L 120.617755 219.356124 
L 121.119967 204.251346 
L 121.182743 205.339739 
L 121.24552 209.109301 
L 121.433849 203.189481 
L 121.496625 205.870651 
L 121.559402 197.243133 
L 121.622178 202.63202 
L 121.747731 211.790471 
L 121.873284 204.782258 
L 121.936061 206.401583 
L 121.998837 211.790471 
L 122.061614 208.020908 
L 122.12439 212.347931 
L 122.187167 210.171145 
L 122.249943 209.109301 
L 122.31272 209.640213 
L 122.375496 204.251346 
L 122.438273 208.578369 
L 122.501049 205.339739 
L 122.563825 202.101088 
L 122.814931 215.586561 
L 123.066037 206.959044 
L 123.128814 215.586561 
L 123.19159 212.347931 
L 123.254367 212.347931 
L 123.317143 219.887056 
L 123.37992 215.029101 
L 123.505473 205.339739 
L 123.819355 223.125686 
L 123.882131 220.417988 
L 124.070461 210.728606 
L 124.133237 220.417988 
L 124.196014 216.648426 
L 124.25879 215.029101 
L 124.384343 223.125686 
L 124.572673 205.339739 
L 124.635449 216.117494 
L 124.698226 211.259538 
L 124.823779 208.020908 
L 124.886555 218.798663 
L 124.949332 212.347931 
L 125.012108 211.259538 
L 125.074885 213.967256 
L 125.137661 204.782258 
L 125.200437 210.728606 
L 125.388767 217.179338 
L 125.451543 215.029101 
L 125.51432 216.117494 
L 125.577096 205.870651 
L 125.639873 206.959044 
L 125.765426 222.594774 
L 125.828202 218.267731 
L 125.890979 215.029101 
L 126.016532 222.037293 
L 126.079308 220.975449 
L 126.204861 218.798663 
L 126.330414 215.586561 
L 126.39319 220.975449 
L 126.644296 201.012695 
L 126.707073 206.401583 
L 126.769849 202.63202 
L 126.958179 207.489976 
L 127.083732 205.870651 
L 127.209285 218.798663 
L 127.774273 190.23494 
L 127.837049 199.39339 
L 127.962602 187.553791 
L 128.025379 188.084683 
L 128.150932 182.695815 
L 128.276485 192.385198 
L 128.527591 178.368772 
L 128.590367 179.988097 
L 128.653144 178.368772 
L 128.778697 184.31514 
L 128.841473 189.704008 
L 128.904249 186.99629 
L 128.967026 185.934466 
L 129.092579 179.457165 
L 129.155355 189.173076 
L 129.218132 185.934466 
L 129.469238 197.243133 
L 129.594791 181.07649 
L 129.720344 172.448972 
L 129.845897 182.164883 
L 129.908673 177.306948 
L 129.97145 177.837839 
L 130.097003 176.218555 
L 130.159779 183.784208 
L 130.222555 179.457165 
L 130.285332 171.360579 
L 130.348108 175.687622 
L 130.536438 190.765872 
L 130.85032 176.218555 
L 130.913097 177.837839 
L 131.03865 185.934466 
L 131.226979 179.457165 
L 131.289756 178.368772 
L 131.352532 179.457165 
L 131.415308 190.23494 
L 131.478085 187.553791 
L 131.540861 187.553791 
L 131.603638 184.31514 
L 131.666414 191.323333 
L 131.854744 176.218555 
L 131.980297 181.607422 
L 132.10585 176.218555 
L 132.294179 191.323333 
L 132.419732 179.988097 
L 132.482509 190.765872 
L 132.545285 187.553791 
L 132.608062 179.988097 
L 132.796391 191.323333 
L 133.110273 178.368772 
L 133.235826 191.323333 
L 133.298603 179.988097 
L 133.361379 180.545558 
L 133.486932 186.465357 
L 133.612485 182.164883 
L 133.675262 188.084683 
L 133.738038 184.846073 
L 133.989144 172.979904 
L 134.05192 177.306948 
L 134.114697 176.776015 
L 134.177473 176.776015 
L 134.24025 173.537365 
L 134.554132 192.385198 
L 134.742462 178.368772 
L 134.805238 178.368772 
L 134.993568 175.687622 
L 135.181897 181.07649 
L 135.433003 189.173076 
L 135.621332 178.368772 
L 135.935215 161.671237 
L 136.060768 168.148498 
L 136.186321 153.574611 
L 136.311874 159.52098 
L 136.437426 149.805069 
L 136.562979 162.75963 
L 137.002415 137.407968 
L 137.065191 142.796876 
L 137.253521 123.949044 
L 137.44185 130.957236 
L 137.504627 125.010908 
L 137.567403 126.099301 
L 137.63018 135.257751 
L 137.692956 134.726819 
L 137.881285 116.38339 
L 137.944062 116.940851 
L 138.132391 129.868843 
L 138.383497 109.932658 
L 138.446274 123.949044 
L 138.50905 118.560176 
L 138.69738 113.7022 
L 138.822933 121.772258 
L 138.885709 120.710434 
L 138.948485 125.568369 
L 139.074038 119.091108 
L 139.199591 126.630233 
L 139.262368 109.375198 
L 139.325144 110.994523 
L 139.387921 113.7022 
L 139.513474 106.694008 
L 139.57625 107.755872 
L 139.701803 91.058297 
L 139.827356 98.06649 
L 139.890133 96.978097 
L 140.078462 105.605615 
L 140.204015 85.138498 
L 140.266791 85.66943 
L 140.329568 85.66943 
L 140.392344 88.90804 
L 140.706227 72.741437 
L 140.769003 80.280522 
L 140.83178 66.795069 
L 140.894556 69.502787 
L 141.020109 75.422587 
L 141.082886 70.033719 
L 141.145662 72.183936 
L 141.333992 78.661237 
L 141.459544 75.953519 
L 141.522321 83.519172 
L 141.585097 82.430779 
L 141.647874 79.192129 
L 141.773427 88.90804 
L 141.836203 88.90804 
L 142.024533 78.130305 
L 142.087309 79.74963 
L 142.275639 92.14669 
L 142.401192 79.74963 
L 142.463968 81.899847 
L 142.526745 82.961712 
L 142.652298 86.200362 
L 142.715074 84.581037 
L 142.96618 100.216747 
L 143.091733 95.358772 
L 143.154509 87.288755 
L 143.217286 92.677623 
L 143.342839 113.14474 
L 143.405615 108.313333 
L 143.468392 110.463591 
L 143.531168 109.375198 
L 143.656721 121.772258 
L 143.845051 113.7022 
L 144.03338 120.152932 
L 144.096156 113.7022 
L 144.347262 126.099301 
L 144.410039 130.957236 
L 144.472815 129.868843 
L 144.535592 126.630233 
L 144.723921 141.735012 
L 144.786698 138.496361 
L 144.849474 141.177551 
L 144.975027 133.107494 
L 145.163357 152.512787 
L 145.288909 140.115686 
L 145.414462 143.885269 
L 145.477239 142.796876 
L 145.602792 146.566418 
L 145.665568 146.035486 
L 145.728345 148.743204 
L 145.791121 145.504594 
L 145.853898 160.051912 
L 145.916674 158.432587 
L 146.042227 148.743204 
L 146.16778 161.671237 
L 146.230557 158.963519 
L 146.35611 150.362529 
L 146.418886 150.893462 
L 146.481662 151.424394 
L 146.607215 162.202129 
L 146.669992 156.813261 
L 146.732768 157.370722 
L 146.795545 157.370722 
L 146.858321 152.512787 
L 146.921098 155.751397 
L 147.046651 151.955286 
L 147.109427 153.574611 
L 147.172204 153.043719 
L 147.23498 151.955286 
L 147.297757 156.813261 
L 147.360533 151.424394 
L 147.42331 153.043719 
L 147.548863 154.132112 
L 147.611639 153.574611 
L 147.674416 147.654811 
L 147.737192 151.424394 
L 147.799968 150.362529 
L 147.862745 155.751397 
L 147.988298 143.354337 
L 148.113851 159.52098 
L 148.30218 147.123879 
L 148.364957 146.035486 
L 148.553286 134.726819 
L 148.678839 144.973662 
L 148.741616 143.885269 
L 148.929945 128.78045 
L 148.992721 125.010908 
L 149.055498 125.568369 
L 149.181051 128.78045 
L 149.243827 121.241325 
L 149.306604 126.099301 
L 149.432157 115.852458 
L 149.494933 117.471783 
L 149.55771 120.710434 
L 149.683263 111.551983 
L 149.746039 112.613808 
L 149.871592 106.136547 
L 149.934369 109.375198 
L 150.059922 94.296948 
L 150.248251 108.844265 
L 150.311027 103.455398 
L 150.43658 91.058297 
L 150.562133 99.685815 
L 150.687686 82.430779 
L 150.876016 97.535558 
L 151.001569 86.731254 
L 151.064345 90.527365 
L 151.315451 75.422587 
L 151.441004 81.899847 
L 151.566557 68.945326 
L 151.629333 73.803262 
L 151.69211 73.272329 
L 151.754886 65.175744 
L 151.817663 66.264137 
L 152.131545 72.183936 
L 152.257098 49.009101 
L 152.319875 57.105686 
L 152.382651 54.397968 
L 152.508204 59.255944 
L 152.570981 56.548226 
L 152.696534 61.937093 
L 152.75931 62.494594 
L 152.947639 76.51098 
L 153.010416 70.033719 
L 153.073192 74.334194 
L 153.135969 75.422587 
L 153.261522 70.033719 
L 153.324298 71.122112 
L 153.387075 70.564611 
L 153.512628 68.945326 
L 153.638181 62.494594 
L 153.700957 64.11392 
L 153.82651 67.883462 
L 154.014839 64.644811 
L 154.391498 83.519172 
L 154.517051 75.953519 
L 154.579828 76.51098 
L 154.642604 72.741437 
L 154.89371 91.58923 
L 155.019263 85.66943 
L 155.144816 103.455398 
L 155.333145 82.430779 
L 155.395922 90.527365 
L 155.584251 104.543791 
L 155.772581 97.535558 
L 155.898134 102.924466 
L 156.14924 95.916273 
L 156.274793 106.694008 
L 156.337569 101.836073 
L 156.525898 111.551983 
L 156.588675 114.233133 
L 156.777004 107.755872 
L 156.902557 112.613808 
L 156.965334 112.082916 
L 157.153663 125.568369 
L 157.279216 114.764065 
L 157.404769 123.391583 
L 157.467546 115.852458 
L 157.530322 119.091108 
L 157.593099 126.099301 
L 157.655875 125.010908 
L 157.718652 119.622041 
L 157.781428 123.949044 
L 157.906981 115.321526 
L 157.969757 118.002715 
L 158.09531 125.568369 
L 158.158087 127.161166 
L 158.28364 122.860651 
L 158.471969 128.249559 
L 158.534746 130.957236 
L 158.660299 125.010908 
L 158.723075 128.78045 
L 158.911405 116.38339 
L 159.16251 125.568369 
L 159.225287 127.718626 
L 159.288063 120.152932 
L 159.35084 121.241325 
L 159.413616 120.710434 
L 159.476393 122.329718 
L 159.601946 114.233133 
L 159.727499 114.764065 
L 159.790275 116.38339 
L 159.915828 109.375198 
L 160.166934 118.560176 
L 160.292487 128.249559 
L 160.41804 116.940851 
L 160.480816 118.002715 
L 160.669146 102.924466 
L 160.857475 109.375198 
L 160.920252 108.313333 
L 160.983028 112.613808 
L 161.045805 125.010908 
L 161.108581 119.622041 
L 161.234134 105.074683 
L 161.359687 110.994523 
L 161.422464 107.755872 
L 161.548016 111.551983 
L 161.736346 94.82788 
L 161.799122 93.208555 
L 161.924675 100.216747 
L 161.987452 99.154883 
L 162.113005 89.969904 
L 162.301334 102.924466 
L 162.364111 101.836073 
L 162.489664 85.138498 
L 162.677993 100.216747 
L 162.803546 86.731254 
L 162.991875 92.14669 
L 163.054652 91.058297 
L 163.117428 95.916273 
L 163.242981 82.961712 
L 163.368534 89.438972 
L 163.431311 84.581037 
L 163.494087 86.731254 
L 163.61964 92.14669 
L 163.80797 79.74963 
L 163.870746 81.342386 
L 164.059075 72.183936 
L 164.184628 80.811454 
L 164.310181 76.51098 
L 164.372958 79.74963 
L 164.435734 89.438972 
L 164.498511 82.961712 
L 164.624064 76.51098 
L 164.812393 93.208555 
L 165.000723 76.51098 
L 165.063499 84.050105 
L 165.126276 82.961712 
L 165.189052 77.041912 
L 165.251829 80.811454 
L 165.314605 79.192129 
L 165.565711 89.969904 
L 165.628487 94.296948 
L 165.691264 93.208555 
L 165.879593 79.192129 
L 165.94237 81.342386 
L 166.005146 78.661237 
L 166.067923 83.519172 
L 166.130699 81.899847 
L 166.193476 72.741437 
L 166.256252 79.74963 
L 166.319029 78.661237 
L 166.381805 74.334194 
L 166.444582 78.130305 
L 166.570134 99.685815 
L 166.758464 89.969904 
L 166.884017 88.90804 
L 167.00957 81.899847 
L 167.135123 89.969904 
L 167.197899 86.200362 
L 167.386229 98.06649 
L 167.449005 95.358772 
L 167.574558 106.136547 
L 167.637335 101.30514 
L 167.700111 98.597422 
L 167.762888 103.98629 
L 167.825664 103.455398 
L 167.88844 97.535558 
L 167.951217 103.455398 
L 168.013993 101.836073 
L 168.07677 96.447165 
L 168.139546 98.06649 
L 168.202323 103.455398 
L 168.265099 101.30514 
L 168.327876 97.535558 
L 168.390652 102.367005 
L 168.453429 98.06649 
L 168.641758 109.375198 
L 168.767311 113.14474 
L 168.830088 111.551983 
L 168.892864 114.233133 
L 169.018417 108.313333 
L 169.081194 112.613808 
L 169.14397 107.755872 
L 169.206746 110.994523 
L 169.269523 112.082916 
L 169.332299 120.152932 
L 169.395076 119.622041 
L 169.457852 114.764065 
L 169.520629 122.329718 
L 169.583405 119.622041 
L 169.708958 126.099301 
L 169.771735 125.010908 
L 169.897288 106.694008 
L 169.960064 109.375198 
L 170.148394 122.329718 
L 170.21117 120.152932 
L 170.336723 109.932658 
L 170.399499 109.932658 
L 170.462276 104.543791 
L 170.587829 110.994523 
L 170.776158 101.836073 
L 170.964488 124.479976 
L 171.027264 118.002715 
L 171.152817 127.161166 
L 171.403923 105.074683 
L 171.4667 99.154883 
L 171.529476 99.685815 
L 171.592253 99.154883 
L 171.655029 99.685815 
L 171.843358 108.844265 
L 171.906135 108.313333 
L 171.968911 105.074683 
L 172.031688 106.694008 
L 172.220017 123.391583 
L 172.408347 105.074683 
L 172.5339 107.22494 
L 172.596676 104.543791 
L 172.659453 107.22494 
L 172.785006 92.14669 
L 172.910558 96.447165 
L 173.036111 111.551983 
L 173.224441 103.455398 
L 173.349994 108.844265 
L 173.663876 92.677623 
L 173.726653 98.597422 
L 173.852206 86.731254 
L 173.914982 99.154883 
L 173.977759 98.06649 
L 174.040535 94.296948 
L 174.103312 96.978097 
L 174.291641 89.438972 
L 174.417194 82.961712 
L 174.542747 95.916273 
L 174.605523 96.447165 
L 174.856629 86.200362 
L 174.982182 91.58923 
L 175.044959 83.519172 
L 175.107735 84.050105 
L 175.170512 84.581037 
L 175.296065 93.208555 
L 175.358841 92.677623 
L 175.421617 85.66943 
L 175.609947 102.367005 
L 176.049382 75.422587 
L 176.112159 76.51098 
L 176.174935 83.519172 
L 176.237712 79.74963 
L 176.300488 79.192129 
L 176.363265 75.422587 
L 176.488818 93.739487 
L 176.551594 88.90804 
L 176.614371 92.14669 
L 176.739923 88.350579 
L 176.865476 88.350579 
L 176.991029 83.519172 
L 177.116582 74.334194 
L 177.493241 95.358772 
L 177.618794 87.819647 
L 177.807124 98.597422 
L 177.8699 99.685815 
L 177.995453 92.14669 
L 178.058229 97.535558 
L 178.183782 87.288755 
L 178.246559 93.208555 
L 178.309335 87.288755 
L 178.372112 90.527365 
L 178.497665 101.30514 
L 178.560441 100.74768 
L 178.623218 95.916273 
L 178.685994 98.597422 
L 178.748771 99.685815 
L 178.811547 97.535558 
L 178.874324 102.924466 
L 178.9371 100.216747 
L 178.999877 102.924466 
L 179.062653 100.74768 
L 179.12543 91.058297 
L 179.188206 94.296948 
L 179.376535 103.455398 
L 179.564865 100.216747 
L 179.690418 89.438972 
L 179.753194 89.969904 
L 179.878747 99.154883 
L 180.0043 85.66943 
L 180.19263 108.844265 
L 180.255406 105.605615 
L 180.318183 99.154883 
L 180.380959 101.30514 
L 180.443735 109.932658 
L 180.506512 106.694008 
L 180.632065 93.739487 
L 180.694841 101.30514 
L 180.757618 99.154883 
L 180.820394 92.14669 
L 180.945947 117.471783 
L 181.008724 108.844265 
L 181.134277 88.350579 
L 181.25983 106.136547 
L 181.385383 97.535558 
L 181.510936 113.14474 
L 181.573712 107.755872 
L 181.699265 98.06649 
L 181.762041 99.154883 
L 181.887594 102.367005 
L 181.950371 112.613808 
L 182.013147 107.22494 
L 182.264253 96.978097 
L 182.32703 99.154883 
L 182.389806 108.313333 
L 182.452583 107.22494 
L 182.578136 101.30514 
L 182.640912 101.836073 
L 182.829242 113.7022 
L 182.892018 109.375198 
L 182.954794 112.082916 
L 183.143124 106.694008 
L 183.2059 98.597422 
L 183.268677 102.367005 
L 183.331453 102.924466 
L 183.457006 98.597422 
L 183.582559 106.136547 
L 183.645336 116.940851 
L 183.708112 109.932658 
L 183.770889 109.932658 
L 183.833665 109.375198 
L 183.896442 116.940851 
L 183.959218 115.321526 
L 184.084771 103.455398 
L 184.147548 110.994523 
L 184.210324 109.375198 
L 184.46143 95.358772 
L 184.524206 97.535558 
L 184.649759 115.321526 
L 184.838089 97.535558 
L 184.900865 102.924466 
L 184.963642 101.30514 
L 185.026418 94.296948 
L 185.089195 99.685815 
L 185.151971 99.154883 
L 185.214748 95.916273 
L 185.277524 100.74768 
L 185.340301 97.535558 
L 185.52863 100.74768 
L 185.591406 92.677623 
L 185.654183 94.82788 
L 185.716959 99.154883 
L 185.779736 94.296948 
L 185.842512 96.447165 
L 185.905289 95.358772 
L 185.968065 99.685815 
L 186.030842 97.535558 
L 186.093618 89.969904 
L 186.219171 110.994523 
L 186.407501 87.288755 
L 186.533054 110.463591 
L 186.658607 97.535558 
L 186.721383 98.597422 
L 186.846936 93.208555 
L 186.909712 102.367005 
L 186.972489 99.154883 
L 187.098042 94.82788 
L 187.160818 96.978097 
L 187.286371 89.438972 
L 187.349148 92.14669 
L 187.411924 91.58923 
L 187.474701 92.14669 
L 187.537477 89.969904 
L 187.600254 99.685815 
L 187.66303 99.154883 
L 187.788583 97.535558 
L 187.976912 88.90804 
L 188.102465 102.367005 
L 188.165242 101.30514 
L 188.228018 103.98629 
L 188.290795 98.597422 
L 188.353571 100.74768 
L 188.416348 103.455398 
L 188.479124 101.30514 
L 188.604677 108.313333 
L 188.73023 93.739487 
L 188.793007 98.06649 
L 188.91856 105.605615 
L 188.981336 96.978097 
L 189.044113 103.98629 
L 189.106889 101.30514 
L 189.169666 100.216747 
L 189.357995 94.82788 
L 189.420771 95.358772 
L 189.546324 105.605615 
L 189.671877 97.535558 
L 189.734654 100.74768 
L 189.79743 93.208555 
L 189.860207 95.358772 
L 190.048536 107.22494 
L 190.111313 103.98629 
L 190.174089 105.605615 
L 190.236866 109.375198 
L 190.425195 96.447165 
L 190.487971 100.216747 
L 190.676301 110.994523 
L 190.927407 97.535558 
L 190.990183 95.916273 
L 191.05296 102.924466 
L 191.115736 101.30514 
L 191.241289 87.819647 
L 191.429619 102.367005 
L 191.492395 102.924466 
L 191.743501 92.677623 
L 191.869054 100.74768 
L 191.93183 99.154883 
L 191.994607 103.455398 
L 192.057383 101.836073 
L 192.308489 98.06649 
L 192.371266 106.694008 
L 192.434042 105.605615 
L 192.496819 99.685815 
L 192.559595 100.74768 
L 192.685148 108.844265 
L 192.810701 107.22494 
L 192.936254 98.06649 
L 192.99903 98.597422 
L 193.18736 108.844265 
L 193.312913 98.597422 
L 193.438466 102.367005 
L 193.501242 102.367005 
L 193.564019 95.358772 
L 193.626795 100.74768 
L 193.752348 113.14474 
L 193.940678 107.22494 
L 194.003454 115.852458 
L 194.191784 95.358772 
L 194.25456 104.543791 
L 194.317336 103.98629 
L 194.380113 103.98629 
L 194.505666 98.06649 
L 194.693995 111.551983 
L 194.819548 105.605615 
L 194.882325 100.74768 
L 194.945101 101.836073 
L 195.070654 115.321526 
L 195.196207 99.685815 
L 195.258984 102.367005 
L 195.384537 108.313333 
L 195.447313 102.367005 
L 195.510089 106.136547 
L 195.572866 105.074683 
L 195.698419 111.551983 
L 195.823972 104.543791 
L 195.949525 110.994523 
L 196.075078 96.978097 
L 196.137854 97.535558 
L 196.200631 95.916273 
L 196.38896 107.22494 
L 196.57729 93.739487 
L 196.828395 110.994523 
L 196.891172 103.455398 
L 196.953948 107.755872 
L 197.079501 98.597422 
L 197.142278 101.836073 
L 197.205054 101.836073 
L 197.393384 89.969904 
L 197.45616 97.535558 
L 197.518937 92.677623 
L 197.581713 95.358772 
L 197.64449 94.296948 
L 197.707266 85.66943 
L 197.770043 90.527365 
L 197.832819 88.90804 
L 197.895596 89.438972 
L 198.083925 105.605615 
L 198.209478 91.58923 
L 198.397807 101.30514 
L 198.460584 96.447165 
L 198.52336 96.978097 
L 198.648913 101.30514 
L 198.774466 93.208555 
L 198.837243 96.447165 
L 198.900019 94.82788 
L 199.339454 107.755872 
L 199.465007 95.358772 
L 199.653337 104.543791 
L 199.716113 104.543791 
L 199.841666 107.755872 
L 200.029996 106.136547 
L 200.092772 108.313333 
L 200.281102 94.296948 
L 200.406655 98.597422 
L 200.469431 95.358772 
L 200.65776 105.605615 
L 200.720537 105.074683 
L 200.783313 106.694008 
L 200.84609 113.14474 
L 200.908866 112.082916 
L 201.034419 95.358772 
L 201.097196 96.978097 
L 201.222749 103.455398 
L 201.411078 92.677623 
L 201.473855 91.58923 
L 201.536631 103.455398 
L 201.599408 98.06649 
L 201.91329 108.313333 
L 202.038843 91.058297 
L 202.101619 92.14669 
L 202.227172 91.58923 
L 202.289949 88.90804 
L 202.352725 89.969904 
L 202.666608 109.932658 
L 202.729384 98.597422 
L 202.792161 100.216747 
L 202.98049 105.605615 
L 203.043266 99.685815 
L 203.106043 101.30514 
L 203.168819 102.924466 
L 203.231596 101.836073 
L 203.294372 101.836073 
L 203.419925 116.38339 
L 203.482702 114.233133 
L 203.671031 97.535558 
L 203.733808 107.755872 
L 203.796584 106.136547 
L 203.859361 102.367005 
L 203.922137 105.605615 
L 204.04769 97.535558 
L 204.173243 113.14474 
L 204.23602 107.22494 
L 204.298796 102.924466 
L 204.361572 105.074683 
L 204.424349 107.22494 
L 204.487125 93.739487 
L 204.549902 95.916273 
L 204.675455 108.844265 
L 204.738231 105.605615 
L 204.863784 96.447165 
L 204.989337 110.463591 
L 205.052114 109.375198 
L 205.177667 110.994523 
L 205.240443 117.471783 
L 205.365996 110.994523 
L 205.428773 121.241325 
L 205.491549 114.233133 
L 205.617102 122.860651 
L 205.679878 115.852458 
L 205.742655 120.152932 
L 205.805431 116.38339 
L 205.868208 120.152932 
L 205.930984 117.471783 
L 206.18209 108.844265 
L 206.307643 117.471783 
L 206.747079 102.367005 
L 206.809855 95.358772 
L 206.998184 113.7022 
L 207.060961 112.082916 
L 207.123737 102.924466 
L 207.186514 103.455398 
L 207.24929 101.30514 
L 207.312067 102.924466 
L 207.563173 98.06649 
L 207.751502 107.22494 
L 207.814279 101.836073 
L 207.877055 105.074683 
L 207.939832 111.551983 
L 208.002608 107.22494 
L 208.190937 99.154883 
L 208.253714 100.216747 
L 208.31649 109.932658 
L 208.379267 104.543791 
L 208.442043 103.98629 
L 208.630373 108.844265 
L 208.693149 110.994523 
L 208.818702 99.685815 
L 208.944255 89.438972 
L 209.195361 105.605615 
L 209.320914 96.978097 
L 209.38369 98.597422 
L 209.446467 101.30514 
L 209.697573 82.430779 
L 209.823126 107.22494 
L 209.885902 96.447165 
L 209.948679 91.058297 
L 210.011455 94.82788 
L 210.074232 97.535558 
L 210.262561 85.138498 
L 210.325338 87.819647 
L 210.388114 86.731254 
L 210.450891 92.677623 
L 210.513667 89.969904 
L 210.576444 92.14669 
L 210.701996 103.98629 
L 210.827549 92.677623 
L 210.953102 101.836073 
L 211.015879 98.597422 
L 211.141432 106.694008 
L 211.266985 93.739487 
L 211.329761 94.296948 
L 211.392538 101.836073 
L 211.455314 98.06649 
L 211.518091 100.74768 
L 211.643644 94.296948 
L 211.70642 94.82788 
L 211.769197 94.296948 
L 211.831973 95.916273 
L 211.894749 87.819647 
L 211.957526 91.058297 
L 212.083079 95.916273 
L 212.145855 81.899847 
L 212.208632 82.430779 
L 212.271408 83.519172 
L 212.334185 88.350579 
L 212.396961 103.455398 
L 212.459738 95.358772 
L 212.522514 86.731254 
L 212.585291 87.819647 
L 212.899173 100.216747 
L 212.96195 96.978097 
L 213.087503 91.58923 
L 213.150279 99.154883 
L 213.213055 96.447165 
L 213.275832 97.535558 
L 213.338608 94.296948 
L 213.464161 82.430779 
L 213.589714 84.050105 
L 213.84082 109.375198 
L 214.02915 99.685815 
L 214.091926 82.961712 
L 214.154703 84.050105 
L 214.217479 91.58923 
L 214.280256 91.058297 
L 214.343032 91.58923 
L 214.468585 86.200362 
L 214.719691 104.543791 
L 214.90802 93.739487 
L 214.970797 98.06649 
L 215.09635 92.677623 
L 215.221903 94.296948 
L 215.284679 93.208555 
L 215.347456 87.819647 
L 215.410232 101.30514 
L 215.473009 98.597422 
L 215.598562 86.200362 
L 215.661338 87.819647 
L 215.724114 94.296948 
L 215.786891 92.14669 
L 215.849667 88.90804 
L 216.037997 99.154883 
L 216.16355 98.06649 
L 216.226326 96.447165 
L 216.289103 101.836073 
L 216.351879 98.06649 
L 216.414656 98.06649 
L 216.477432 101.836073 
L 216.540209 99.685815 
L 216.602985 99.154883 
L 216.665762 100.216747 
L 216.791315 91.058297 
L 216.916867 103.455398 
L 216.979644 101.836073 
L 217.04242 95.916273 
L 217.105197 96.978097 
L 217.23075 103.98629 
L 217.419079 88.350579 
L 217.481856 95.358772 
L 217.544632 92.14669 
L 217.670185 95.358772 
L 217.732962 88.350579 
L 217.795738 91.58923 
L 217.858515 101.30514 
L 217.921291 98.06649 
L 217.984068 98.06649 
L 218.109621 100.74768 
L 218.172397 100.74768 
L 218.235173 106.694008 
L 218.29795 102.367005 
L 218.486279 90.527365 
L 218.549056 99.685815 
L 218.611832 93.208555 
L 218.674609 88.90804 
L 218.737385 92.14669 
L 218.925715 101.836073 
L 218.988491 99.685815 
L 219.051268 100.74768 
L 219.114044 101.836073 
L 219.239597 87.819647 
L 219.302374 90.527365 
L 219.427926 101.30514 
L 219.490703 98.06649 
L 219.553479 96.978097 
L 219.616256 102.367005 
L 219.867362 86.731254 
L 219.992915 96.978097 
L 220.055691 91.058297 
L 220.118468 92.677623 
L 220.306797 95.916273 
L 220.369574 94.296948 
L 220.43235 95.916273 
L 220.495127 92.14669 
L 220.557903 80.811454 
L 220.62068 85.138498 
L 220.746232 108.313333 
L 220.871785 101.30514 
L 221.060115 88.90804 
L 221.185668 78.661237 
L 221.248444 77.572844 
L 221.49955 94.296948 
L 221.562327 90.527365 
L 221.625103 92.677623 
L 221.68788 94.296948 
L 221.750656 93.208555 
L 221.813433 91.58923 
L 221.876209 96.978097 
L 221.938985 96.447165 
L 222.001762 88.350579 
L 222.127315 96.447165 
L 222.190091 97.535558 
L 222.378421 82.430779 
L 222.441197 86.731254 
L 222.503974 83.519172 
L 222.56675 86.200362 
L 222.75508 110.994523 
L 222.880633 97.535558 
L 222.943409 100.74768 
L 223.068962 106.694008 
L 223.194515 102.924466 
L 223.320068 91.058297 
L 223.508397 98.597422 
L 223.571174 98.597422 
L 223.63395 94.296948 
L 223.759503 101.836073 
L 224.010609 91.58923 
L 224.073386 92.14669 
L 224.261715 100.74768 
L 224.387268 95.916273 
L 224.450044 96.447165 
L 224.512821 87.288755 
L 224.575597 91.58923 
L 224.763927 100.74768 
L 224.826703 100.216747 
L 224.88948 100.216747 
L 224.952256 106.694008 
L 225.015033 104.543791 
L 225.266139 97.535558 
L 225.328915 99.154883 
L 225.391692 98.06649 
L 225.642798 89.969904 
L 225.705574 92.14669 
L 225.76835 100.74768 
L 225.831127 98.597422 
L 225.893903 94.296948 
L 226.145009 114.233133 
L 226.207786 110.994523 
L 226.270562 105.074683 
L 226.333339 109.932658 
L 226.396115 107.22494 
L 226.521668 85.138498 
L 226.584445 86.200362 
L 226.709998 94.82788 
L 226.835551 89.438972 
L 226.898327 95.358772 
L 226.961103 88.90804 
L 227.149433 103.98629 
L 227.212209 103.455398 
L 227.274986 101.836073 
L 227.337762 103.98629 
L 227.526092 93.739487 
L 227.651645 100.216747 
L 227.714421 99.154883 
L 227.777198 96.978097 
L 228.028304 109.375198 
L 228.153857 98.06649 
L 228.342186 112.082916 
L 228.467739 96.447165 
L 228.530515 99.154883 
L 228.593292 105.074683 
L 228.718845 94.82788 
L 228.907174 102.924466 
L 228.969951 100.216747 
L 229.095504 107.22494 
L 229.15828 102.924466 
L 229.221057 103.455398 
L 229.34661 103.455398 
L 229.472162 109.932658 
L 229.534939 108.844265 
L 229.660492 98.597422 
L 229.723268 100.74768 
L 229.974374 107.755872 
L 230.288257 97.535558 
L 230.476586 106.136547 
L 230.602139 98.06649 
L 230.664916 98.597422 
L 230.727692 99.154883 
L 230.853245 105.074683 
L 230.916021 107.755872 
L 231.104351 99.685815 
L 231.29268 104.543791 
L 231.355457 102.924466 
L 231.48101 93.208555 
L 231.606563 95.358772 
L 231.732116 101.836073 
L 231.794892 94.82788 
L 231.857669 95.358772 
L 231.983221 106.136547 
L 232.108774 91.58923 
L 232.234327 107.755872 
L 232.297104 106.136547 
L 232.35988 106.694008 
L 232.54821 91.58923 
L 232.673763 105.074683 
L 232.736539 103.455398 
L 232.862092 91.058297 
L 232.924869 93.208555 
L 232.987645 92.677623 
L 233.050422 92.677623 
L 233.301527 98.06649 
L 233.364304 102.924466 
L 233.678186 81.899847 
L 233.929292 97.535558 
L 233.992069 95.916273 
L 234.054845 93.208555 
L 234.117622 94.82788 
L 234.368728 93.208555 
L 234.431504 89.438972 
L 234.557057 95.916273 
L 234.619833 94.296948 
L 234.68261 93.208555 
L 234.745386 96.978097 
L 234.808163 94.82788 
L 234.996492 92.14669 
L 235.059269 99.154883 
L 235.184822 90.527365 
L 235.247598 99.685815 
L 235.310375 98.597422 
L 235.498704 90.527365 
L 235.561481 92.677623 
L 235.624257 100.216747 
L 235.687034 95.916273 
L 235.812586 82.961712 
L 236.000916 94.296948 
L 236.063692 91.58923 
L 236.126469 89.438972 
L 236.252022 81.899847 
L 236.377575 93.208555 
L 236.440351 91.58923 
L 236.503128 92.677623 
L 236.628681 98.597422 
L 236.691457 95.358772 
L 236.754234 88.350579 
L 236.81701 89.969904 
L 236.942563 92.677623 
L 237.130892 88.90804 
L 237.193669 88.90804 
L 237.256445 82.961712 
L 237.507551 98.597422 
L 237.633104 106.136547 
L 237.821434 93.739487 
L 238.009763 106.136547 
L 238.07254 105.605615 
L 238.198093 107.755872 
L 238.260869 106.694008 
L 238.449198 88.350579 
L 238.511975 89.438972 
L 238.574751 88.90804 
L 238.637528 96.447165 
L 238.700304 91.058297 
L 238.763081 84.581037 
L 238.825857 87.288755 
L 239.13974 103.455398 
L 239.328069 93.739487 
L 239.390846 96.978097 
L 239.453622 95.358772 
L 239.579175 105.074683 
L 239.641951 101.30514 
L 239.704728 103.455398 
L 239.830281 101.836073 
L 239.893057 95.916273 
L 240.01861 104.543791 
L 240.20694 93.208555 
L 240.332493 97.535558 
L 240.395269 89.438972 
L 240.458046 95.916273 
L 240.520822 93.208555 
L 240.583599 89.969904 
L 240.646375 91.058297 
L 240.709152 91.58923 
L 240.771928 96.447165 
L 240.834704 95.358772 
L 240.960257 87.819647 
L 241.148587 105.605615 
L 241.211363 100.216747 
L 241.399693 90.527365 
L 241.713575 112.082916 
L 241.776352 116.940851 
L 242.090234 94.82788 
L 242.15301 95.916273 
L 242.215787 100.216747 
L 242.278563 99.685815 
L 242.466893 81.899847 
L 242.529669 89.969904 
L 242.592446 84.581037 
L 242.780775 102.924466 
L 242.843552 97.535558 
L 242.906328 96.978097 
L 243.031881 103.98629 
L 243.220211 89.969904 
L 243.345763 97.535558 
L 243.40854 96.447165 
L 243.471316 87.288755 
L 243.534093 90.527365 
L 243.722422 101.836073 
L 243.910752 89.969904 
L 243.973528 88.350579 
L 244.036305 94.82788 
L 244.099081 92.677623 
L 244.224634 96.978097 
L 244.287411 96.447165 
L 244.538516 103.98629 
L 244.726846 94.82788 
L 244.789622 98.06649 
L 244.852399 92.677623 
L 245.040728 101.836073 
L 245.103505 99.154883 
L 245.291834 108.844265 
L 245.354611 116.38339 
L 245.417387 112.613808 
L 245.54294 99.685815 
L 245.668493 100.216747 
L 245.73127 102.924466 
L 245.794046 96.978097 
L 245.856822 98.597422 
L 246.045152 106.694008 
L 246.359034 90.527365 
L 246.547364 106.136547 
L 246.672917 110.994523 
L 247.049575 84.581037 
L 247.112352 85.138498 
L 247.237905 86.731254 
L 247.86567 109.375198 
L 247.928446 108.313333 
L 248.242329 88.350579 
L 248.305105 90.527365 
L 248.367881 97.535558 
L 248.430658 94.296948 
L 248.493434 94.82788 
L 248.556211 96.978097 
L 248.681764 87.819647 
L 248.807317 100.74768 
L 248.870093 95.358772 
L 248.93287 100.216747 
L 248.995646 97.535558 
L 249.058423 95.916273 
L 249.121199 84.050105 
L 249.183976 86.200362 
L 249.246752 98.597422 
L 249.309529 98.06649 
L 249.435082 92.14669 
L 249.497858 100.74768 
L 249.560634 98.06649 
L 249.623411 98.06649 
L 249.686187 96.978097 
L 249.874517 107.22494 
L 250.00007 96.447165 
L 250.062846 99.154883 
L 250.188399 108.313333 
L 250.251176 105.605615 
L 250.376729 94.82788 
L 250.439505 95.916273 
L 250.565058 89.438972 
L 250.690611 96.978097 
L 250.816164 93.739487 
L 251.06727 114.233133 
L 251.255599 94.296948 
L 251.318376 97.535558 
L 251.381152 110.994523 
L 251.443929 106.136547 
L 251.506705 97.535558 
L 251.569482 99.154883 
L 251.632258 99.685815 
L 251.695035 94.82788 
L 251.820588 99.685815 
L 251.883364 96.447165 
L 251.946141 82.961712 
L 252.008917 90.527365 
L 252.13447 106.694008 
L 252.197246 103.98629 
L 252.260023 96.447165 
L 252.322799 98.06649 
L 252.385576 99.685815 
L 252.511129 111.551983 
L 252.573905 110.463591 
L 252.762235 106.694008 
L 252.825011 112.613808 
L 252.887788 112.082916 
L 253.076117 93.739487 
L 253.20167 96.978097 
L 253.327223 113.7022 
L 253.389999 108.844265 
L 253.578329 98.06649 
L 253.703882 103.455398 
L 253.892211 92.14669 
L 254.080541 97.535558 
L 254.143317 93.208555 
L 254.206094 94.82788 
L 254.331647 105.074683 
L 254.4572 94.82788 
L 254.519976 94.82788 
L 254.582753 96.447165 
L 254.708305 91.58923 
L 254.833858 108.844265 
L 254.896635 103.455398 
L 255.084964 89.438972 
L 255.210517 101.836073 
L 255.273294 94.296948 
L 255.33607 95.358772 
L 255.398847 100.74768 
L 255.461623 100.216747 
L 255.5244 100.74768 
L 255.587176 98.597422 
L 255.649953 100.216747 
L 255.775506 108.313333 
L 255.838282 104.543791 
L 255.901058 110.463591 
L 255.963835 109.932658 
L 256.152164 86.731254 
L 256.214941 88.90804 
L 256.40327 97.535558 
L 256.5916 101.30514 
L 256.654376 101.836073 
L 256.717153 101.30514 
L 256.779929 97.535558 
L 256.905482 105.605615 
L 257.093812 88.350579 
L 257.156588 92.677623 
L 257.344917 115.852458 
L 257.721576 98.06649 
L 257.784353 104.543791 
L 257.847129 98.597422 
L 258.098235 113.7022 
L 258.223788 105.605615 
L 258.286565 108.313333 
L 258.474894 91.058297 
L 258.53767 84.050105 
L 258.600447 89.438972 
L 258.663223 87.819647 
L 258.726 89.969904 
L 258.788776 87.819647 
L 258.851553 88.90804 
L 259.039882 107.22494 
L 259.165435 105.605615 
L 259.228212 101.836073 
L 259.290988 103.455398 
L 259.353765 105.074683 
L 259.416541 103.98629 
L 259.479318 112.082916 
L 259.667647 100.216747 
L 259.7932 110.994523 
L 260.044306 96.447165 
L 260.169859 107.22494 
L 260.232635 105.074683 
L 260.295412 103.98629 
L 260.358188 110.994523 
L 260.420965 108.313333 
L 260.483741 99.154883 
L 260.546518 104.543791 
L 260.609294 104.543791 
L 260.734847 106.694008 
L 260.797624 104.543791 
L 260.8604 110.994523 
L 260.923176 100.74768 
L 260.985953 107.755872 
L 261.048729 115.321526 
L 261.111506 108.313333 
L 261.174282 108.844265 
L 261.237059 109.375198 
L 261.299835 110.994523 
L 261.362612 108.844265 
L 261.425388 102.367005 
L 261.488165 105.605615 
L 261.739271 122.329718 
L 261.9276 104.543791 
L 262.053153 110.463591 
L 262.178706 101.30514 
L 262.304259 109.375198 
L 262.492588 96.978097 
L 262.743694 110.463591 
L 262.932024 96.447165 
L 263.245906 112.613808 
L 263.308683 110.994523 
L 263.434235 105.605615 
L 263.497012 112.613808 
L 263.559788 107.755872 
L 263.622565 104.543791 
L 263.748118 107.755872 
L 263.936447 87.288755 
L 263.999224 91.58923 
L 264.062 101.836073 
L 264.124777 101.30514 
L 264.187553 99.685815 
L 264.313106 107.22494 
L 264.438659 96.447165 
L 264.564212 99.154883 
L 264.752541 110.994523 
L 264.878094 99.685815 
L 264.940871 101.30514 
L 265.003647 108.844265 
L 265.1292 86.731254 
L 265.31753 99.154883 
L 265.380306 101.836073 
L 265.505859 91.58923 
L 265.568636 93.739487 
L 265.694189 107.22494 
L 265.756965 99.154883 
L 265.819742 101.30514 
L 265.882518 107.22494 
L 266.008071 93.739487 
L 266.070847 94.296948 
L 266.133624 93.208555 
L 266.321953 98.06649 
L 266.38473 95.916273 
L 266.447506 100.74768 
L 266.573059 84.050105 
L 266.635836 87.288755 
L 266.824165 100.74768 
L 266.886942 103.455398 
L 267.012495 95.916273 
L 267.200824 105.605615 
L 267.2636 99.685815 
L 267.389153 106.694008 
L 267.577483 95.916273 
L 267.703036 101.836073 
L 267.765812 98.06649 
L 267.828589 105.605615 
L 267.891365 103.98629 
L 267.954142 102.924466 
L 268.016918 104.543791 
L 268.079695 102.367005 
L 268.142471 95.358772 
L 268.205248 99.154883 
L 268.268024 94.82788 
L 268.330801 98.06649 
L 268.393577 101.30514 
L 268.456353 92.677623 
L 268.51913 95.916273 
L 268.644683 99.154883 
L 268.770236 83.519172 
L 268.833012 86.731254 
L 269.084118 107.22494 
L 269.209671 110.463591 
L 269.272448 109.932658 
L 269.398001 101.836073 
L 269.460777 103.455398 
L 269.523554 98.06649 
L 269.58633 99.685815 
L 269.711883 111.551983 
L 269.774659 108.844265 
L 269.962989 92.14669 
L 270.025765 95.358772 
L 270.088542 94.296948 
L 270.151318 92.14669 
L 270.214095 94.296948 
L 270.339648 107.755872 
L 270.465201 95.916273 
L 270.527977 97.535558 
L 270.65353 99.685815 
L 270.84186 93.208555 
L 271.030189 105.605615 
L 271.092965 112.082916 
L 271.155742 107.755872 
L 271.281295 96.978097 
L 271.406848 107.755872 
L 271.469624 101.836073 
L 271.532401 103.98629 
L 271.595177 102.367005 
L 271.657954 108.313333 
L 271.72073 105.074683 
L 271.846283 103.98629 
L 271.90906 105.074683 
L 272.034613 99.685815 
L 272.097389 109.932658 
L 272.160166 109.375198 
L 272.222942 101.30514 
L 272.285718 103.455398 
L 272.411271 103.455398 
L 272.536824 93.208555 
L 272.599601 93.739487 
L 272.662377 91.58923 
L 272.78793 97.535558 
L 272.97626 85.66943 
L 273.227366 105.605615 
L 273.415695 90.527365 
L 273.478471 94.296948 
L 273.541248 91.058297 
L 273.604024 96.978097 
L 273.666801 94.296948 
L 273.729577 86.200362 
L 273.792354 91.058297 
L 273.85513 89.969904 
L 273.980683 96.447165 
L 274.04346 93.739487 
L 274.169013 84.581037 
L 274.231789 86.731254 
L 274.357342 78.661237 
L 274.796777 108.844265 
L 274.985107 98.597422 
L 275.047883 98.06649 
L 275.11066 94.296948 
L 275.173436 96.978097 
L 275.236213 94.296948 
L 275.361766 106.694008 
L 275.550095 84.581037 
L 275.612872 85.66943 
L 275.801201 88.90804 
L 275.863978 96.978097 
L 275.926754 96.447165 
L 275.98953 87.288755 
L 276.052307 92.677623 
L 276.240636 100.74768 
L 276.303413 101.836073 
L 276.366189 99.154883 
L 276.428966 105.605615 
L 276.617295 88.90804 
L 276.931178 108.313333 
L 277.119507 95.916273 
L 277.182284 98.06649 
L 277.24506 100.74768 
L 277.370613 91.058297 
L 277.496166 113.7022 
L 277.558942 108.844265 
L 277.621719 99.154883 
L 277.684495 101.30514 
L 277.747272 107.22494 
L 277.998378 91.58923 
L 278.123931 99.154883 
L 278.186707 98.06649 
L 278.249484 94.296948 
L 278.31226 94.82788 
L 278.375037 93.739487 
L 278.437813 87.288755 
L 278.563366 104.543791 
L 278.626142 102.367005 
L 278.688919 100.216747 
L 278.814472 105.074683 
L 278.877248 104.543791 
L 278.940025 103.98629 
L 279.002801 92.677623 
L 279.065578 95.358772 
L 279.191131 106.136547 
L 279.253907 101.30514 
L 279.316684 101.836073 
L 279.37946 102.924466 
L 279.56779 98.06649 
L 279.630566 98.06649 
L 279.756119 103.98629 
L 279.818895 109.932658 
L 280.007225 94.296948 
L 280.070001 96.447165 
L 280.132778 87.819647 
L 280.383884 112.613808 
L 280.44666 112.082916 
L 280.572213 105.605615 
L 280.63499 110.994523 
L 280.697766 107.755872 
L 280.886096 98.597422 
L 280.948872 106.694008 
L 281.011648 105.074683 
L 281.074425 102.367005 
L 281.137201 109.932658 
L 281.325531 99.154883 
L 281.51386 91.058297 
L 281.576637 93.208555 
L 281.639413 87.288755 
L 281.827743 95.358772 
L 281.890519 96.978097 
L 281.953296 91.058297 
L 282.016072 92.677623 
L 282.141625 93.739487 
L 282.267178 100.216747 
L 282.392731 92.14669 
L 282.58106 105.074683 
L 282.643837 104.543791 
L 282.832166 91.058297 
L 282.957719 96.978097 
L 283.146049 83.519172 
L 283.397155 101.30514 
L 283.64826 92.677623 
L 283.773813 91.058297 
L 283.899366 103.455398 
L 283.962143 100.74768 
L 284.150472 107.755872 
L 284.401578 87.819647 
L 284.527131 103.98629 
L 284.589908 100.74768 
L 284.715461 109.375198 
L 284.778237 107.22494 
L 284.841013 103.455398 
L 284.90379 105.605615 
L 284.966566 105.605615 
L 285.154896 93.208555 
L 285.280449 95.358772 
L 285.343225 99.685815 
L 285.406002 97.535558 
L 285.531555 101.836073 
L 285.594331 100.74768 
L 285.719884 107.755872 
L 285.782661 105.605615 
L 285.845437 98.597422 
L 285.908214 103.455398 
L 286.033766 108.313333 
L 286.284872 93.208555 
L 286.473202 106.136547 
L 286.661531 95.916273 
L 286.912637 102.367005 
L 286.975414 101.30514 
L 287.100967 96.447165 
L 287.289296 109.375198 
L 287.414849 106.136547 
L 287.540402 113.7022 
L 287.728731 103.98629 
L 287.854284 91.058297 
L 287.917061 102.367005 
L 287.979837 99.154883 
L 288.168167 80.811454 
L 288.230943 81.899847 
L 288.356496 102.367005 
L 288.607602 86.731254 
L 288.733155 98.597422 
L 288.795931 95.358772 
L 288.858708 97.535558 
L 288.984261 102.367005 
L 289.047037 93.739487 
L 289.109814 96.978097 
L 289.17259 107.755872 
L 289.235367 105.074683 
L 289.298143 99.685815 
L 289.36092 100.216747 
L 289.423696 100.74768 
L 289.549249 95.916273 
L 289.674802 106.136547 
L 289.800355 96.978097 
L 289.863131 99.154883 
L 289.925908 99.154883 
L 290.051461 103.455398 
L 290.177014 94.296948 
L 290.365343 102.924466 
L 290.490896 99.154883 
L 290.553673 101.30514 
L 290.742002 113.14474 
L 290.867555 99.154883 
L 290.930332 99.685815 
L 290.993108 97.535558 
L 291.055884 112.082916 
L 291.118661 110.463591 
L 291.244214 100.74768 
L 291.432543 107.22494 
L 291.620873 99.154883 
L 291.809202 113.14474 
L 291.871979 111.551983 
L 292.060308 97.535558 
L 292.123085 101.30514 
L 292.185861 102.367005 
L 292.248638 100.216747 
L 292.311414 103.455398 
L 292.37419 101.30514 
L 292.436967 101.30514 
L 292.499743 103.455398 
L 292.688073 94.82788 
L 293.001955 112.082916 
L 293.190285 95.358772 
L 293.253061 94.82788 
L 293.315838 99.154883 
L 293.378614 95.916273 
L 293.566943 105.605615 
L 293.62972 105.074683 
L 293.692496 103.98629 
L 293.755273 110.463591 
L 293.818049 105.605615 
L 293.880826 106.694008 
L 294.069155 94.296948 
L 294.194708 87.288755 
L 294.257485 88.350579 
L 294.508591 100.74768 
L 294.634144 94.296948 
L 294.69692 95.358772 
L 294.822473 111.551983 
L 295.073579 91.058297 
L 295.450238 107.755872 
L 295.513014 103.455398 
L 295.826897 88.90804 
L 295.95245 103.455398 
L 296.015226 97.535558 
L 296.078003 100.74768 
L 296.140779 100.74768 
L 296.203555 107.22494 
L 296.329108 92.677623 
L 296.517438 101.836073 
L 296.642991 89.438972 
L 296.768544 103.455398 
L 296.83132 101.30514 
L 296.894097 108.313333 
L 296.956873 101.30514 
L 297.01965 102.367005 
L 297.145203 114.233133 
L 297.207979 113.7022 
L 297.333532 100.74768 
L 297.396308 102.367005 
L 297.584638 98.06649 
L 297.772967 88.90804 
L 297.89852 103.98629 
L 298.08685 95.358772 
L 298.212403 103.455398 
L 298.275179 100.74768 
L 298.337956 97.535558 
L 298.400732 98.06649 
L 298.463509 96.978097 
L 298.526285 97.535558 
L 298.589062 92.677623 
L 298.714614 105.074683 
L 298.777391 104.543791 
L 298.902944 98.597422 
L 298.96572 104.543791 
L 299.028497 102.924466 
L 299.091273 94.296948 
L 299.279603 106.136547 
L 299.405156 94.82788 
L 299.467932 96.447165 
L 299.530709 97.535558 
L 299.593485 101.30514 
L 299.719038 89.438972 
L 299.781815 89.969904 
L 299.970144 99.685815 
L 300.03292 99.685815 
L 300.22125 116.38339 
L 300.284026 112.082916 
L 300.472356 94.82788 
L 300.535132 93.208555 
L 300.597909 83.519172 
L 300.660685 88.350579 
L 300.786238 94.296948 
L 300.849015 100.74768 
L 300.911791 98.597422 
L 300.974568 100.74768 
L 301.037344 112.613808 
L 301.100121 109.932658 
L 301.414003 95.916273 
L 301.476779 92.14669 
L 301.539556 101.836073 
L 301.602332 99.685815 
L 301.727885 80.811454 
L 301.916215 101.30514 
L 302.104544 88.90804 
L 302.230097 101.30514 
L 302.292874 99.685815 
L 302.35565 98.06649 
L 302.418426 93.208555 
L 302.481203 94.296948 
L 302.606756 102.367005 
L 302.669532 101.30514 
L 302.983415 86.200362 
L 303.046191 88.90804 
L 303.108968 89.969904 
L 303.360074 103.98629 
L 303.485627 98.06649 
L 303.736732 107.22494 
L 303.799509 105.605615 
L 303.925062 93.208555 
L 304.050615 101.836073 
L 304.176168 100.74768 
L 304.238944 96.978097 
L 304.364497 113.14474 
L 304.427274 107.755872 
L 304.49005 100.216747 
L 304.552827 102.924466 
L 304.67838 108.313333 
L 304.741156 103.455398 
L 304.866709 111.551983 
L 305.055038 90.527365 
L 305.117815 92.677623 
L 305.243368 107.22494 
L 305.306144 105.074683 
L 305.368921 95.916273 
L 305.431697 97.535558 
L 305.494474 95.916273 
L 305.55725 98.597422 
L 305.682803 111.551983 
L 305.933909 98.06649 
L 306.059462 86.200362 
L 306.310568 96.978097 
L 306.373344 102.367005 
L 306.436121 97.535558 
L 306.498897 100.74768 
L 306.62445 100.216747 
L 306.81278 111.551983 
L 307.001109 93.739487 
L 307.063886 98.06649 
L 307.126662 95.358772 
L 307.189439 96.447165 
L 307.252215 105.074683 
L 307.314992 99.685815 
L 307.440544 102.924466 
L 307.503321 92.677623 
L 307.566097 93.208555 
L 307.754427 96.447165 
L 307.87998 95.358772 
L 307.942756 95.358772 
L 308.068309 88.90804 
L 308.131086 89.438972 
L 308.193862 94.296948 
L 308.256639 93.739487 
L 308.382192 88.350579 
L 308.444968 90.527365 
L 308.507745 96.447165 
L 308.570521 92.677623 
L 308.633298 92.677623 
L 308.884403 107.22494 
L 309.009956 110.463591 
L 309.135509 102.367005 
L 309.198286 110.994523 
L 309.261062 109.932658 
L 309.512168 91.58923 
L 309.637721 93.739487 
L 309.700498 94.82788 
L 309.763274 93.739487 
L 309.951603 95.916273 
L 310.139933 91.58923 
L 310.202709 101.836073 
L 310.265486 98.597422 
L 310.328262 97.535558 
L 310.391039 103.455398 
L 310.453815 101.836073 
L 310.579368 105.605615 
L 310.704921 99.154883 
L 310.956027 112.613808 
L 311.08158 103.98629 
L 311.144357 104.543791 
L 311.207133 106.136547 
L 311.395462 89.438972 
L 311.458239 91.058297 
L 311.583792 101.836073 
L 311.709345 93.739487 
L 311.772121 99.685815 
L 311.834898 95.358772 
L 311.897674 91.58923 
L 311.960451 94.296948 
L 312.086004 101.30514 
L 312.14878 90.527365 
L 312.211557 93.739487 
L 312.399886 105.605615 
L 312.462662 105.074683 
L 312.525439 102.924466 
L 312.650992 110.463591 
L 312.713768 109.932658 
L 312.776545 107.22494 
L 312.839321 98.06649 
L 312.902098 99.154883 
L 313.027651 110.463591 
L 313.153204 99.685815 
L 313.278757 111.551983 
L 313.467086 102.367005 
L 313.592639 107.22494 
L 313.655416 100.74768 
L 313.718192 103.455398 
L 313.780968 102.367005 
L 313.843745 102.924466 
L 313.906521 98.06649 
L 314.094851 107.755872 
L 314.157627 107.755872 
L 314.220404 110.994523 
L 314.28318 109.932658 
L 314.345957 109.932658 
L 314.534286 93.739487 
L 314.597063 94.296948 
L 314.910945 106.694008 
L 315.036498 92.677623 
L 315.162051 105.074683 
L 315.224827 101.30514 
L 315.287604 95.916273 
L 315.35038 99.154883 
L 315.413157 99.154883 
L 315.53871 102.924466 
L 315.601486 101.30514 
L 315.664263 100.216747 
L 315.789816 112.082916 
L 315.852592 108.313333 
L 315.978145 93.739487 
L 316.103698 102.924466 
L 316.166475 101.836073 
L 316.229251 106.694008 
L 316.292027 100.216747 
L 316.354804 102.367005 
L 316.41758 102.924466 
L 316.480357 99.154883 
L 316.543133 100.74768 
L 316.60591 105.074683 
L 316.731463 93.739487 
L 316.919792 98.597422 
L 316.982569 98.06649 
L 317.045345 100.74768 
L 317.108122 94.82788 
L 317.170898 97.535558 
L 317.233675 98.597422 
L 317.422004 95.916273 
L 317.48478 96.447165 
L 317.547557 92.677623 
L 317.610333 100.74768 
L 317.67311 93.208555 
L 317.735886 99.154883 
L 317.798663 96.447165 
L 317.924216 105.074683 
L 317.986992 101.836073 
L 318.049769 96.978097 
L 318.112545 100.74768 
L 318.238098 96.447165 
L 318.300875 98.597422 
L 318.363651 107.755872 
L 318.426428 104.543791 
L 318.551981 93.739487 
L 318.614757 106.694008 
L 318.677534 105.074683 
L 318.74031 103.98629 
L 318.928639 88.90804 
L 318.991416 85.66943 
L 319.493628 106.136547 
L 319.556404 107.755872 
L 319.619181 106.694008 
L 319.681957 104.543791 
L 319.744734 108.313333 
L 319.80751 103.455398 
L 319.870287 114.233133 
L 319.933063 112.082916 
L 319.995839 103.455398 
L 320.058616 104.543791 
L 320.121392 104.543791 
L 320.246945 96.447165 
L 320.435275 107.22494 
L 320.623604 99.154883 
L 320.686381 100.74768 
L 320.749157 94.296948 
L 320.811934 101.30514 
L 320.87471 95.916273 
L 320.937487 94.82788 
L 321.000263 97.535558 
L 321.06304 92.14669 
L 321.125816 94.296948 
L 321.251369 96.978097 
L 321.376922 105.605615 
L 321.439698 99.685815 
L 321.502475 101.30514 
L 321.753581 105.074683 
L 321.879134 100.216747 
L 321.94191 90.527365 
L 322.13024 106.694008 
L 322.255793 95.358772 
L 322.381346 103.455398 
L 322.444122 101.30514 
L 322.569675 109.932658 
L 322.758004 88.90804 
L 322.820781 92.14669 
L 322.883557 91.58923 
L 322.946334 91.058297 
L 323.134663 101.30514 
L 323.19744 110.463591 
L 323.260216 107.755872 
L 323.385769 100.74768 
L 323.448546 103.98629 
L 323.511322 100.216747 
L 323.574099 105.605615 
L 323.699652 93.208555 
L 323.762428 94.82788 
L 323.887981 106.136547 
L 323.950757 100.216747 
L 324.013534 100.74768 
L 324.07631 105.074683 
L 324.139087 102.367005 
L 324.327416 98.06649 
L 324.390193 96.978097 
L 324.515746 104.543791 
L 324.578522 100.216747 
L 324.704075 97.535558 
L 324.766852 99.154883 
L 324.829628 90.527365 
L 324.892405 92.677623 
L 325.017957 103.98629 
L 325.080734 100.74768 
L 325.206287 99.154883 
L 325.269063 104.543791 
L 325.33184 99.154883 
L 325.394616 102.367005 
L 325.457393 113.14474 
L 325.520169 106.694008 
L 325.582946 99.154883 
L 325.645722 100.216747 
L 325.708499 106.694008 
L 325.771275 105.074683 
L 325.959605 96.447165 
L 326.147934 110.994523 
L 326.210711 110.463591 
L 326.273487 106.136547 
L 326.336263 110.463591 
L 326.524593 102.367005 
L 326.587369 102.924466 
L 326.650146 100.216747 
L 326.775699 109.932658 
L 326.964028 98.06649 
L 327.089581 98.597422 
L 327.277911 106.694008 
L 327.340687 99.685815 
L 327.403464 103.455398 
L 327.46624 108.844265 
L 327.529016 105.074683 
L 327.591793 103.455398 
L 327.780122 89.969904 
L 327.842899 91.58923 
L 327.968452 107.755872 
L 328.094005 99.685815 
L 328.219558 101.836073 
L 328.282334 100.74768 
L 328.470664 106.694008 
L 328.53344 102.367005 
L 328.596217 103.98629 
L 328.658993 108.844265 
L 328.847322 98.597422 
L 328.910099 101.836073 
L 328.972875 100.216747 
L 329.161205 89.438972 
L 329.223981 91.058297 
L 329.349534 98.06649 
L 329.412311 92.14669 
L 329.537864 101.30514 
L 329.663417 93.739487 
L 329.726193 94.82788 
L 329.851746 105.605615 
L 330.102852 95.358772 
L 330.165628 94.296948 
L 330.291181 89.438972 
L 330.353958 99.685815 
L 330.416734 96.978097 
L 330.605064 92.677623 
L 330.730617 101.30514 
L 330.793393 97.535558 
L 330.85617 92.14669 
L 330.918946 94.296948 
L 330.981723 99.154883 
L 331.044499 96.978097 
L 331.232829 84.050105 
L 331.295605 91.058297 
L 331.358381 88.350579 
L 331.421158 91.058297 
L 331.483934 102.924466 
L 331.546711 97.535558 
L 331.73504 91.058297 
L 331.860593 105.605615 
L 331.92337 104.543791 
L 331.986146 103.455398 
L 332.048923 93.739487 
L 332.111699 99.154883 
L 332.174476 105.605615 
L 332.237252 101.30514 
L 332.300029 104.543791 
L 332.362805 103.455398 
L 332.425582 105.074683 
L 332.488358 103.98629 
L 332.551134 100.216747 
L 332.739464 107.755872 
L 333.178899 98.06649 
L 333.241676 99.685815 
L 333.304452 105.605615 
L 333.367229 105.074683 
L 333.492782 88.90804 
L 333.618335 93.739487 
L 333.743888 103.455398 
L 334.05777 92.14669 
L 334.246099 109.375198 
L 334.308876 120.152932 
L 334.559982 89.438972 
L 334.748311 108.313333 
L 334.811088 104.543791 
L 335.062193 92.677623 
L 335.187746 90.527365 
L 335.313299 99.685815 
L 335.376076 95.916273 
L 335.438852 98.597422 
L 335.564405 84.581037 
L 335.627182 86.200362 
L 335.689958 89.438972 
L 335.752735 85.138498 
L 335.815511 90.527365 
L 335.878288 89.438972 
L 336.066617 87.288755 
L 336.254947 97.535558 
L 336.317723 96.978097 
L 336.380499 96.978097 
L 336.443276 92.677623 
L 336.506052 94.82788 
L 336.568829 94.296948 
L 336.631605 92.14669 
L 336.694382 93.208555 
L 336.757158 93.739487 
L 336.882711 90.527365 
L 336.945488 92.14669 
L 337.071041 105.605615 
L 337.133817 103.98629 
L 337.196594 99.154883 
L 337.322147 108.313333 
L 337.573252 97.535558 
L 337.761582 100.74768 
L 337.887135 98.597422 
L 338.075464 112.613808 
L 338.263794 92.14669 
L 338.32657 94.296948 
L 338.5149 108.313333 
L 338.577676 106.136547 
L 338.640453 93.208555 
L 338.703229 95.916273 
L 338.766006 93.739487 
L 338.828782 95.916273 
L 338.954335 87.819647 
L 339.017111 91.058297 
L 339.142664 99.685815 
L 339.205441 93.208555 
L 339.268217 99.154883 
L 339.330994 95.916273 
L 339.456547 82.430779 
L 339.5821 98.597422 
L 339.644876 95.358772 
L 339.707653 96.447165 
L 339.833206 101.30514 
L 339.895982 99.685815 
L 339.958759 93.208555 
L 340.021535 100.74768 
L 340.084312 94.82788 
L 340.272641 103.98629 
L 340.398194 101.30514 
L 340.46097 102.367005 
L 340.586523 96.978097 
L 340.712076 108.313333 
L 340.774853 107.22494 
L 340.837629 109.932658 
L 340.963182 99.685815 
L 341.088735 107.22494 
L 341.151512 106.694008 
L 341.214288 100.74768 
L 341.277065 101.836073 
L 341.465394 111.551983 
L 341.653723 106.136547 
L 341.842053 116.940851 
L 342.155935 98.597422 
L 342.281488 109.375198 
L 342.469818 92.14669 
L 342.658147 112.613808 
L 342.7837 96.978097 
L 342.846476 102.924466 
L 342.909253 102.367005 
L 343.034806 106.136547 
L 343.097582 105.074683 
L 343.160359 96.447165 
L 343.223135 99.154883 
L 343.285912 101.836073 
L 343.411465 91.058297 
L 343.537018 109.932658 
L 343.599794 108.313333 
L 343.662571 95.916273 
L 343.725347 99.154883 
L 343.788124 95.916273 
L 343.8509 100.216747 
L 343.913676 95.358772 
L 343.976453 96.447165 
L 344.102006 102.367005 
L 344.227559 92.677623 
L 344.290335 105.074683 
L 344.353112 101.836073 
L 344.541441 107.755872 
L 344.792547 100.74768 
L 344.855324 102.924466 
L 344.980877 114.764065 
L 345.10643 102.367005 
L 345.169206 100.216747 
L 345.231982 103.455398 
L 345.294759 94.82788 
L 345.545865 114.233133 
L 345.859747 89.969904 
L 346.048077 104.543791 
L 346.17363 107.22494 
L 346.299183 114.233133 
L 346.361959 113.7022 
L 346.613065 102.924466 
L 346.738618 104.543791 
L 346.864171 114.233133 
L 346.926947 112.082916 
L 347.0525 109.932658 
L 347.178053 96.447165 
L 347.303606 111.551983 
L 347.429159 103.98629 
L 347.491936 112.613808 
L 347.554712 107.755872 
L 347.617489 110.463591 
L 347.680265 108.313333 
L 347.743041 113.14474 
L 347.868594 106.694008 
L 347.931371 109.932658 
L 347.994147 108.844265 
L 348.056924 109.375198 
L 348.182477 102.924466 
L 348.245253 103.98629 
L 348.30803 103.98629 
L 348.433583 110.994523 
L 348.496359 101.836073 
L 348.559136 105.074683 
L 348.621912 105.074683 
L 348.684689 97.535558 
L 348.747465 98.06649 
L 348.935794 88.90804 
L 349.124124 97.535558 
L 349.1869 100.74768 
L 349.249677 87.819647 
L 349.312453 92.14669 
L 349.37523 105.605615 
L 349.438006 101.30514 
L 349.500783 101.30514 
L 349.689112 92.677623 
L 349.751889 98.597422 
L 349.814665 94.82788 
L 349.877442 90.527365 
L 349.940218 91.058297 
L 350.065771 95.358772 
L 350.191324 102.924466 
L 350.2541 102.367005 
L 350.44243 92.677623 
L 350.505206 86.200362 
L 350.693536 95.916273 
L 350.756312 94.296948 
L 350.819089 87.819647 
L 350.881865 91.058297 
L 351.007418 99.685815 
L 351.195748 94.296948 
L 351.321301 101.30514 
L 351.384077 107.755872 
L 351.446853 105.074683 
L 351.50963 89.969904 
L 351.572406 98.06649 
L 351.635183 101.836073 
L 351.823512 87.819647 
L 351.949065 105.605615 
L 352.011842 96.447165 
L 352.074618 96.978097 
L 352.137395 94.82788 
L 352.262948 103.455398 
L 352.325724 91.058297 
L 352.388501 94.296948 
L 352.451277 92.14669 
L 352.514054 92.677623 
L 352.639607 91.058297 
L 352.702383 92.14669 
L 352.765159 86.731254 
L 352.827936 88.350579 
L 352.890712 87.288755 
L 353.079042 103.98629 
L 353.141818 103.98629 
L 353.518477 96.978097 
L 353.769583 112.082916 
L 354.020689 94.296948 
L 354.083465 94.296948 
L 354.146242 96.978097 
L 354.209018 104.543791 
L 354.334571 93.739487 
L 354.648454 99.685815 
L 354.836783 90.527365 
L 354.962336 99.685815 
L 355.150666 94.296948 
L 355.213442 95.358772 
L 355.338995 105.605615 
L 355.401771 102.367005 
L 355.464548 103.455398 
L 355.590101 101.30514 
L 355.652877 102.924466 
L 355.841207 99.685815 
L 355.903983 101.30514 
L 356.029536 110.994523 
L 356.217866 93.739487 
L 356.280642 94.82788 
L 356.343419 102.367005 
L 356.406195 97.535558 
L 356.657301 112.082916 
L 356.720077 111.551983 
L 356.84563 107.755872 
L 356.908407 111.551983 
L 356.971183 102.924466 
L 357.03396 106.136547 
L 357.159513 109.375198 
L 357.285066 95.916273 
L 357.347842 103.455398 
L 357.410619 94.296948 
L 357.473395 98.597422 
L 357.536172 94.82788 
L 357.661725 110.994523 
L 357.724501 110.463591 
L 357.850054 105.074683 
L 357.91283 105.605615 
L 358.038383 109.375198 
L 358.289489 100.216747 
L 358.352266 99.154883 
L 358.415042 94.296948 
L 358.477819 95.358772 
L 358.666148 106.694008 
L 358.728925 100.216747 
L 358.791701 102.367005 
L 358.917254 113.7022 
L 359.042807 98.597422 
L 359.105583 106.694008 
L 359.16836 105.605615 
L 359.482242 86.200362 
L 359.545019 93.739487 
L 359.607795 93.208555 
L 359.796125 88.350579 
L 359.984454 100.74768 
L 360.23556 95.358772 
L 360.298336 100.216747 
L 360.486666 87.819647 
L 360.863325 107.755872 
L 360.988878 105.074683 
L 361.051654 105.605615 
L 361.239984 101.30514 
L 361.428313 105.074683 
L 361.679419 93.208555 
L 361.742195 94.296948 
L 361.804972 104.543791 
L 361.867748 101.836073 
L 362.056078 108.844265 
L 362.181631 102.924466 
L 362.36996 107.755872 
L 362.432737 106.694008 
L 362.495513 99.154883 
L 362.55829 101.30514 
L 362.683843 110.463591 
L 362.746619 108.844265 
L 362.809395 102.367005 
L 362.872172 107.755872 
L 362.934948 103.98629 
L 362.997725 105.074683 
L 363.060501 110.994523 
L 363.123278 107.22494 
L 363.186054 105.074683 
L 363.248831 105.605615 
L 363.311607 107.22494 
L 363.499937 96.978097 
L 363.562713 96.447165 
L 363.688266 105.074683 
L 363.751043 112.082916 
L 363.813819 105.605615 
L 363.876596 110.463591 
L 363.939372 114.233133 
L 364.064925 110.463591 
L 364.127701 113.14474 
L 364.190478 110.463591 
L 364.316031 114.764065 
L 364.567137 106.136547 
L 364.755466 117.471783 
L 364.881019 101.836073 
L 364.943796 107.755872 
L 365.006572 107.755872 
L 365.069349 109.375198 
L 365.132125 107.755872 
L 365.194902 102.924466 
L 365.257678 106.136547 
L 365.320454 105.605615 
L 365.383231 103.455398 
L 365.446007 106.694008 
L 365.57156 96.447165 
L 365.634337 100.74768 
L 365.885443 112.082916 
L 365.948219 108.844265 
L 366.010996 110.463591 
L 366.073772 113.14474 
L 366.262102 106.694008 
L 366.387655 109.375198 
L 366.513207 112.613808 
L 366.63876 95.916273 
L 366.701537 96.447165 
L 366.764313 99.154883 
L 366.889866 116.38339 
L 366.952643 109.375198 
L 367.015419 110.463591 
L 367.078196 109.932658 
L 367.140972 106.136547 
L 367.203749 109.375198 
L 367.266525 108.844265 
L 367.392078 106.694008 
L 367.454855 110.463591 
L 367.517631 107.22494 
L 367.643184 113.14474 
L 367.705961 111.551983 
L 367.768737 113.7022 
L 367.831513 109.375198 
L 367.89429 111.551983 
L 368.019843 108.313333 
L 368.145396 114.233133 
L 368.396502 96.978097 
L 368.522055 91.58923 
L 368.710384 108.844265 
L 368.835937 116.38339 
L 369.024266 105.074683 
L 369.087043 110.994523 
L 369.149819 107.755872 
L 369.275372 99.154883 
L 369.338149 100.74768 
L 369.400925 101.836073 
L 369.526478 106.694008 
L 369.652031 101.836073 
L 369.714808 102.367005 
L 369.903137 84.581037 
L 370.21702 106.694008 
L 370.279796 106.136547 
L 370.405349 94.296948 
L 370.468125 96.978097 
L 370.656455 114.764065 
L 370.719231 113.7022 
L 370.907561 95.358772 
L 370.970337 95.916273 
L 371.158667 111.551983 
L 371.28422 100.74768 
L 371.409773 101.836073 
L 371.535325 107.755872 
L 371.974761 86.731254 
L 372.100314 101.836073 
L 372.16309 95.358772 
L 372.225867 93.739487 
L 372.288643 94.296948 
L 372.414196 99.154883 
L 372.476973 98.06649 
L 372.539749 91.058297 
L 372.602526 94.82788 
L 372.853631 110.994523 
L 372.916408 108.844265 
L 373.041961 90.527365 
L 373.167514 104.543791 
L 373.355843 98.06649 
L 373.41862 100.216747 
L 373.481396 109.375198 
L 373.544173 108.844265 
L 373.669726 93.208555 
L 373.732502 98.597422 
L 373.795279 100.216747 
L 373.858055 89.438972 
L 373.920832 94.296948 
L 374.234714 107.755872 
L 374.29749 106.694008 
L 374.548596 97.535558 
L 374.611373 105.605615 
L 374.674149 100.216747 
L 374.736926 95.358772 
L 374.799702 101.836073 
L 374.862479 99.154883 
L 374.925255 96.978097 
L 374.988032 98.06649 
L 375.050808 103.455398 
L 375.176361 89.969904 
L 375.301914 94.82788 
L 375.490243 82.430779 
L 375.615796 100.216747 
L 375.678573 96.978097 
L 375.741349 96.978097 
L 375.866902 104.543791 
L 375.992455 94.82788 
L 376.055232 96.447165 
L 376.180785 103.98629 
L 376.243561 102.924466 
L 376.369114 101.836073 
L 376.431891 108.313333 
L 376.494667 105.605615 
L 376.557443 107.755872 
L 376.745773 96.978097 
L 376.996879 107.22494 
L 377.185208 91.058297 
L 377.310761 106.694008 
L 377.373538 102.924466 
L 377.436314 105.074683 
L 377.561867 110.994523 
L 377.624644 103.98629 
L 377.68742 106.694008 
L 377.812973 105.074683 
L 377.875749 105.605615 
L 377.938526 103.455398 
L 378.126855 115.852458 
L 378.189632 112.613808 
L 378.252408 115.321526 
L 378.440738 105.074683 
L 378.503514 105.074683 
L 378.566291 118.560176 
L 378.629067 117.471783 
L 378.75462 102.924466 
L 378.880173 110.994523 
L 379.005726 95.358772 
L 379.194055 107.22494 
L 379.256832 101.836073 
L 379.319608 105.605615 
L 379.382385 108.844265 
L 379.570714 101.836073 
L 379.633491 104.543791 
L 379.759044 116.38339 
L 379.884597 96.447165 
L 379.947373 100.74768 
L 380.135703 113.14474 
L 380.324032 101.30514 
L 380.449585 107.755872 
L 380.512361 101.836073 
L 380.575138 103.455398 
L 380.637914 114.764065 
L 380.700691 112.082916 
L 380.826244 106.136547 
L 380.88902 106.136547 
L 380.951797 110.463591 
L 381.014573 109.375198 
L 381.140126 100.216747 
L 381.328456 108.844265 
L 381.454009 101.30514 
L 381.579562 108.313333 
L 381.705114 96.447165 
L 381.893444 107.755872 
L 381.95622 106.694008 
L 382.018997 105.074683 
L 382.207326 92.677623 
L 382.332879 101.836073 
L 382.521209 94.296948 
L 382.646762 105.074683 
L 382.835091 94.82788 
L 382.960644 98.597422 
L 383.02342 102.367005 
L 383.148973 93.208555 
L 383.274526 103.98629 
L 383.337303 99.685815 
L 383.525632 110.463591 
L 383.713962 96.447165 
L 383.839515 108.844265 
L 383.965068 105.074683 
L 384.027844 106.694008 
L 384.153397 103.455398 
L 384.27895 108.844265 
L 384.530056 98.06649 
L 384.655609 103.98629 
L 384.718385 109.932658 
L 384.781162 109.375198 
L 384.843938 99.154883 
L 384.906715 100.74768 
L 385.095044 110.994523 
L 385.283374 100.216747 
L 385.534479 118.002715 
L 385.660032 99.154883 
L 385.722809 102.367005 
L 385.848362 103.98629 
L 385.973915 98.06649 
L 386.162244 106.694008 
L 386.225021 106.136547 
L 386.350574 108.844265 
L 386.41335 105.074683 
L 386.476127 108.313333 
L 386.538903 107.22494 
L 386.727232 100.216747 
L 386.915562 108.313333 
L 386.978338 106.694008 
L 387.103891 99.685815 
L 387.229444 113.14474 
L 387.292221 106.136547 
L 387.354997 113.7022 
L 387.417774 110.994523 
L 387.543327 99.154883 
L 387.606103 106.136547 
L 387.66888 102.924466 
L 387.794433 98.597422 
L 387.919985 102.367005 
L 387.982762 99.154883 
L 388.108315 107.755872 
L 388.171091 103.98629 
L 388.233868 108.313333 
L 388.359421 100.74768 
L 388.484974 105.605615 
L 388.610527 100.216747 
L 388.73608 115.321526 
L 388.861633 107.755872 
L 388.861633 107.755872 
" style="fill:none;stroke:#1f77b4;stroke-linecap:round;stroke-width:1.5;"/>
   </g>
   <g id="line2d_12">
    <path clip-path="url(#pe97edaf5d0)" d="M 87.43117 289 
L 87.431361 -1 
M 87.965546 -1 
L 87.965722 289 
L 87.965722 289 
" style="fill:none;stroke:#ff7f0e;stroke-linecap:round;stroke-width:1.5;"/>
   </g>
   <g id="patch_3">
    <path d="M 54 252 
L 54 34.56 
" style="fill:none;stroke:#cccccc;stroke-linecap:square;stroke-linejoin:miter;stroke-width:0.8;"/>
   </g>
   <g id="patch_4">
    <path d="M 388.8 252 
L 388.8 34.56 
" style="fill:none;stroke:#cccccc;stroke-linecap:square;stroke-linejoin:miter;stroke-width:0.8;"/>
   </g>
   <g id="patch_5">
    <path d="M 54 252 
L 388.8 252 
" style="fill:none;stroke:#cccccc;stroke-linecap:square;stroke-linejoin:miter;stroke-width:0.8;"/>
   </g>
   <g id="patch_6">
    <path d="M 54 34.56 
L 388.8 34.56 
" style="fill:none;stroke:#cccccc;stroke-linecap:square;stroke-linejoin:miter;stroke-width:0.8;"/>
   </g>
  </g>
 </g>
 <defs>
  <clipPath id="pe97edaf5d0">
   <rect height="217.44" width="334.8" x="54" y="34.56"/>
  </clipPath>
 </defs>
</svg>
