<?xml version="1.0" encoding="utf-8" standalone="no"?>
<!DOCTYPE svg PUBLIC "-//W3C//DTD SVG 1.1//EN"
  "http://www.w3.org/Graphics/SVG/1.1/DTD/svg11.dtd">
<svg height="288pt" version="1.1" viewBox="0 0 432 288" width="432pt" xmlns="http://www.w3.org/2000/svg" xmlns:xlink="http://www.w3.org/1999/xlink">
 <metadata>
  <rdf:RDF xmlns:cc="http://creativecommons.org/ns#" xmlns:dc="http://purl.org/dc/elements/1.1/" xmlns:rdf="http://www.w3.org/1999/02/22-rdf-syntax-ns#">
   <cc:Work>
    <dc:type rdf:resource="http://purl.org/dc/dcmitype/StillImage"/>
    <dc:date>2022-05-26T23:33:25.574125</dc:date>
    <dc:format>image/svg+xml</dc:format>
    <dc:creator>
     <cc:Agent>
      <dc:title>Matplotlib v3.4.0, https://matplotlib.org/</dc:title>
     </cc:Agent>
    </dc:creator>
   </cc:Work>
  </rdf:RDF>
 </metadata>
 <defs>
  <style type="text/css">*{stroke-linecap:butt;stroke-linejoin:round;}</style>
 </defs>
 <g id="figure_1">
  <g id="patch_1">
   <path d="M 0 288 
L 432 288 
L 432 0 
L 0 0 
z
" style="fill:#ffffff;"/>
  </g>
  <g id="axes_1">
   <g id="patch_2">
    <path d="M 54 252 
L 388.8 252 
L 388.8 34.56 
L 54 34.56 
z
" style="fill:#ffffff;"/>
   </g>
   <g id="matplotlib.axis_1">
    <g id="xtick_1">
     <g id="line2d_1">
      <path clip-path="url(#p62ab28229f)" d="M 54 252 
L 54 34.56 
" style="fill:none;stroke:#cccccc;stroke-linecap:round;stroke-width:0.8;"/>
     </g>
     <g id="text_1">
      <!-- 0.00024 -->
      <g style="fill:#262626;" transform="translate(33.323437 266.598437)scale(0.1 -0.1)">
       <defs>
        <path d="M 2034 4250 
Q 1547 4250 1301 3770 
Q 1056 3291 1056 2328 
Q 1056 1369 1301 889 
Q 1547 409 2034 409 
Q 2525 409 2770 889 
Q 3016 1369 3016 2328 
Q 3016 3291 2770 3770 
Q 2525 4250 2034 4250 
z
M 2034 4750 
Q 2819 4750 3233 4129 
Q 3647 3509 3647 2328 
Q 3647 1150 3233 529 
Q 2819 -91 2034 -91 
Q 1250 -91 836 529 
Q 422 1150 422 2328 
Q 422 3509 836 4129 
Q 1250 4750 2034 4750 
z
" id="DejaVuSans-30" transform="scale(0.015625)"/>
        <path d="M 684 794 
L 1344 794 
L 1344 0 
L 684 0 
L 684 794 
z
" id="DejaVuSans-2e" transform="scale(0.015625)"/>
        <path d="M 1228 531 
L 3431 531 
L 3431 0 
L 469 0 
L 469 531 
Q 828 903 1448 1529 
Q 2069 2156 2228 2338 
Q 2531 2678 2651 2914 
Q 2772 3150 2772 3378 
Q 2772 3750 2511 3984 
Q 2250 4219 1831 4219 
Q 1534 4219 1204 4116 
Q 875 4013 500 3803 
L 500 4441 
Q 881 4594 1212 4672 
Q 1544 4750 1819 4750 
Q 2544 4750 2975 4387 
Q 3406 4025 3406 3419 
Q 3406 3131 3298 2873 
Q 3191 2616 2906 2266 
Q 2828 2175 2409 1742 
Q 1991 1309 1228 531 
z
" id="DejaVuSans-32" transform="scale(0.015625)"/>
        <path d="M 2419 4116 
L 825 1625 
L 2419 1625 
L 2419 4116 
z
M 2253 4666 
L 3047 4666 
L 3047 1625 
L 3713 1625 
L 3713 1100 
L 3047 1100 
L 3047 0 
L 2419 0 
L 2419 1100 
L 313 1100 
L 313 1709 
L 2253 4666 
z
" id="DejaVuSans-34" transform="scale(0.015625)"/>
       </defs>
       <use xlink:href="#DejaVuSans-30"/>
       <use x="63.623047" xlink:href="#DejaVuSans-2e"/>
       <use x="95.410156" xlink:href="#DejaVuSans-30"/>
       <use x="159.033203" xlink:href="#DejaVuSans-30"/>
       <use x="222.65625" xlink:href="#DejaVuSans-30"/>
       <use x="286.279297" xlink:href="#DejaVuSans-32"/>
       <use x="349.902344" xlink:href="#DejaVuSans-34"/>
      </g>
     </g>
    </g>
    <g id="xtick_2">
     <g id="line2d_2">
      <path clip-path="url(#p62ab28229f)" d="M 120.96 252 
L 120.96 34.56 
" style="fill:none;stroke:#cccccc;stroke-linecap:round;stroke-width:0.8;"/>
     </g>
     <g id="text_2">
      <!-- 0.00026 -->
      <g style="fill:#262626;" transform="translate(100.283438 266.598437)scale(0.1 -0.1)">
       <defs>
        <path d="M 2113 2584 
Q 1688 2584 1439 2293 
Q 1191 2003 1191 1497 
Q 1191 994 1439 701 
Q 1688 409 2113 409 
Q 2538 409 2786 701 
Q 3034 994 3034 1497 
Q 3034 2003 2786 2293 
Q 2538 2584 2113 2584 
z
M 3366 4563 
L 3366 3988 
Q 3128 4100 2886 4159 
Q 2644 4219 2406 4219 
Q 1781 4219 1451 3797 
Q 1122 3375 1075 2522 
Q 1259 2794 1537 2939 
Q 1816 3084 2150 3084 
Q 2853 3084 3261 2657 
Q 3669 2231 3669 1497 
Q 3669 778 3244 343 
Q 2819 -91 2113 -91 
Q 1303 -91 875 529 
Q 447 1150 447 2328 
Q 447 3434 972 4092 
Q 1497 4750 2381 4750 
Q 2619 4750 2861 4703 
Q 3103 4656 3366 4563 
z
" id="DejaVuSans-36" transform="scale(0.015625)"/>
       </defs>
       <use xlink:href="#DejaVuSans-30"/>
       <use x="63.623047" xlink:href="#DejaVuSans-2e"/>
       <use x="95.410156" xlink:href="#DejaVuSans-30"/>
       <use x="159.033203" xlink:href="#DejaVuSans-30"/>
       <use x="222.65625" xlink:href="#DejaVuSans-30"/>
       <use x="286.279297" xlink:href="#DejaVuSans-32"/>
       <use x="349.902344" xlink:href="#DejaVuSans-36"/>
      </g>
     </g>
    </g>
    <g id="xtick_3">
     <g id="line2d_3">
      <path clip-path="url(#p62ab28229f)" d="M 187.92 252 
L 187.92 34.56 
" style="fill:none;stroke:#cccccc;stroke-linecap:round;stroke-width:0.8;"/>
     </g>
     <g id="text_3">
      <!-- 0.00028 -->
      <g style="fill:#262626;" transform="translate(167.243438 266.598437)scale(0.1 -0.1)">
       <defs>
        <path d="M 2034 2216 
Q 1584 2216 1326 1975 
Q 1069 1734 1069 1313 
Q 1069 891 1326 650 
Q 1584 409 2034 409 
Q 2484 409 2743 651 
Q 3003 894 3003 1313 
Q 3003 1734 2745 1975 
Q 2488 2216 2034 2216 
z
M 1403 2484 
Q 997 2584 770 2862 
Q 544 3141 544 3541 
Q 544 4100 942 4425 
Q 1341 4750 2034 4750 
Q 2731 4750 3128 4425 
Q 3525 4100 3525 3541 
Q 3525 3141 3298 2862 
Q 3072 2584 2669 2484 
Q 3125 2378 3379 2068 
Q 3634 1759 3634 1313 
Q 3634 634 3220 271 
Q 2806 -91 2034 -91 
Q 1263 -91 848 271 
Q 434 634 434 1313 
Q 434 1759 690 2068 
Q 947 2378 1403 2484 
z
M 1172 3481 
Q 1172 3119 1398 2916 
Q 1625 2713 2034 2713 
Q 2441 2713 2670 2916 
Q 2900 3119 2900 3481 
Q 2900 3844 2670 4047 
Q 2441 4250 2034 4250 
Q 1625 4250 1398 4047 
Q 1172 3844 1172 3481 
z
" id="DejaVuSans-38" transform="scale(0.015625)"/>
       </defs>
       <use xlink:href="#DejaVuSans-30"/>
       <use x="63.623047" xlink:href="#DejaVuSans-2e"/>
       <use x="95.410156" xlink:href="#DejaVuSans-30"/>
       <use x="159.033203" xlink:href="#DejaVuSans-30"/>
       <use x="222.65625" xlink:href="#DejaVuSans-30"/>
       <use x="286.279297" xlink:href="#DejaVuSans-32"/>
       <use x="349.902344" xlink:href="#DejaVuSans-38"/>
      </g>
     </g>
    </g>
    <g id="xtick_4">
     <g id="line2d_4">
      <path clip-path="url(#p62ab28229f)" d="M 254.88 252 
L 254.88 34.56 
" style="fill:none;stroke:#cccccc;stroke-linecap:round;stroke-width:0.8;"/>
     </g>
     <g id="text_4">
      <!-- 0.00030 -->
      <g style="fill:#262626;" transform="translate(234.203438 266.598437)scale(0.1 -0.1)">
       <defs>
        <path d="M 2597 2516 
Q 3050 2419 3304 2112 
Q 3559 1806 3559 1356 
Q 3559 666 3084 287 
Q 2609 -91 1734 -91 
Q 1441 -91 1130 -33 
Q 819 25 488 141 
L 488 750 
Q 750 597 1062 519 
Q 1375 441 1716 441 
Q 2309 441 2620 675 
Q 2931 909 2931 1356 
Q 2931 1769 2642 2001 
Q 2353 2234 1838 2234 
L 1294 2234 
L 1294 2753 
L 1863 2753 
Q 2328 2753 2575 2939 
Q 2822 3125 2822 3475 
Q 2822 3834 2567 4026 
Q 2313 4219 1838 4219 
Q 1578 4219 1281 4162 
Q 984 4106 628 3988 
L 628 4550 
Q 988 4650 1302 4700 
Q 1616 4750 1894 4750 
Q 2613 4750 3031 4423 
Q 3450 4097 3450 3541 
Q 3450 3153 3228 2886 
Q 3006 2619 2597 2516 
z
" id="DejaVuSans-33" transform="scale(0.015625)"/>
       </defs>
       <use xlink:href="#DejaVuSans-30"/>
       <use x="63.623047" xlink:href="#DejaVuSans-2e"/>
       <use x="95.410156" xlink:href="#DejaVuSans-30"/>
       <use x="159.033203" xlink:href="#DejaVuSans-30"/>
       <use x="222.65625" xlink:href="#DejaVuSans-30"/>
       <use x="286.279297" xlink:href="#DejaVuSans-33"/>
       <use x="349.902344" xlink:href="#DejaVuSans-30"/>
      </g>
     </g>
    </g>
    <g id="xtick_5">
     <g id="line2d_5">
      <path clip-path="url(#p62ab28229f)" d="M 321.84 252 
L 321.84 34.56 
" style="fill:none;stroke:#cccccc;stroke-linecap:round;stroke-width:0.8;"/>
     </g>
     <g id="text_5">
      <!-- 0.00032 -->
      <g style="fill:#262626;" transform="translate(301.163438 266.598437)scale(0.1 -0.1)">
       <use xlink:href="#DejaVuSans-30"/>
       <use x="63.623047" xlink:href="#DejaVuSans-2e"/>
       <use x="95.410156" xlink:href="#DejaVuSans-30"/>
       <use x="159.033203" xlink:href="#DejaVuSans-30"/>
       <use x="222.65625" xlink:href="#DejaVuSans-30"/>
       <use x="286.279297" xlink:href="#DejaVuSans-33"/>
       <use x="349.902344" xlink:href="#DejaVuSans-32"/>
      </g>
     </g>
    </g>
    <g id="xtick_6">
     <g id="line2d_6">
      <path clip-path="url(#p62ab28229f)" d="M 388.8 252 
L 388.8 34.56 
" style="fill:none;stroke:#cccccc;stroke-linecap:round;stroke-width:0.8;"/>
     </g>
     <g id="text_6">
      <!-- 0.00034 -->
      <g style="fill:#262626;" transform="translate(368.123438 266.598437)scale(0.1 -0.1)">
       <use xlink:href="#DejaVuSans-30"/>
       <use x="63.623047" xlink:href="#DejaVuSans-2e"/>
       <use x="95.410156" xlink:href="#DejaVuSans-30"/>
       <use x="159.033203" xlink:href="#DejaVuSans-30"/>
       <use x="222.65625" xlink:href="#DejaVuSans-30"/>
       <use x="286.279297" xlink:href="#DejaVuSans-33"/>
       <use x="349.902344" xlink:href="#DejaVuSans-34"/>
      </g>
     </g>
    </g>
   </g>
   <g id="matplotlib.axis_2">
    <g id="ytick_1">
     <g id="line2d_7">
      <path clip-path="url(#p62ab28229f)" d="M 54 230.256 
L 388.8 230.256 
" style="fill:none;stroke:#cccccc;stroke-linecap:round;stroke-width:0.8;"/>
     </g>
     <g id="text_7">
      <!-- 0.007 -->
      <g style="fill:#262626;" transform="translate(18.371875 234.055219)scale(0.1 -0.1)">
       <defs>
        <path d="M 525 4666 
L 3525 4666 
L 3525 4397 
L 1831 0 
L 1172 0 
L 2766 4134 
L 525 4134 
L 525 4666 
z
" id="DejaVuSans-37" transform="scale(0.015625)"/>
       </defs>
       <use xlink:href="#DejaVuSans-30"/>
       <use x="63.623047" xlink:href="#DejaVuSans-2e"/>
       <use x="95.410156" xlink:href="#DejaVuSans-30"/>
       <use x="159.033203" xlink:href="#DejaVuSans-30"/>
       <use x="222.65625" xlink:href="#DejaVuSans-37"/>
      </g>
     </g>
    </g>
    <g id="ytick_2">
     <g id="line2d_8">
      <path clip-path="url(#p62ab28229f)" d="M 54 186.768 
L 388.8 186.768 
" style="fill:none;stroke:#cccccc;stroke-linecap:round;stroke-width:0.8;"/>
     </g>
     <g id="text_8">
      <!-- 0.008 -->
      <g style="fill:#262626;" transform="translate(18.371875 190.567219)scale(0.1 -0.1)">
       <use xlink:href="#DejaVuSans-30"/>
       <use x="63.623047" xlink:href="#DejaVuSans-2e"/>
       <use x="95.410156" xlink:href="#DejaVuSans-30"/>
       <use x="159.033203" xlink:href="#DejaVuSans-30"/>
       <use x="222.65625" xlink:href="#DejaVuSans-38"/>
      </g>
     </g>
    </g>
    <g id="ytick_3">
     <g id="line2d_9">
      <path clip-path="url(#p62ab28229f)" d="M 54 143.28 
L 388.8 143.28 
" style="fill:none;stroke:#cccccc;stroke-linecap:round;stroke-width:0.8;"/>
     </g>
     <g id="text_9">
      <!-- 0.009 -->
      <g style="fill:#262626;" transform="translate(18.371875 147.079219)scale(0.1 -0.1)">
       <defs>
        <path d="M 703 97 
L 703 672 
Q 941 559 1184 500 
Q 1428 441 1663 441 
Q 2288 441 2617 861 
Q 2947 1281 2994 2138 
Q 2813 1869 2534 1725 
Q 2256 1581 1919 1581 
Q 1219 1581 811 2004 
Q 403 2428 403 3163 
Q 403 3881 828 4315 
Q 1253 4750 1959 4750 
Q 2769 4750 3195 4129 
Q 3622 3509 3622 2328 
Q 3622 1225 3098 567 
Q 2575 -91 1691 -91 
Q 1453 -91 1209 -44 
Q 966 3 703 97 
z
M 1959 2075 
Q 2384 2075 2632 2365 
Q 2881 2656 2881 3163 
Q 2881 3666 2632 3958 
Q 2384 4250 1959 4250 
Q 1534 4250 1286 3958 
Q 1038 3666 1038 3163 
Q 1038 2656 1286 2365 
Q 1534 2075 1959 2075 
z
" id="DejaVuSans-39" transform="scale(0.015625)"/>
       </defs>
       <use xlink:href="#DejaVuSans-30"/>
       <use x="63.623047" xlink:href="#DejaVuSans-2e"/>
       <use x="95.410156" xlink:href="#DejaVuSans-30"/>
       <use x="159.033203" xlink:href="#DejaVuSans-30"/>
       <use x="222.65625" xlink:href="#DejaVuSans-39"/>
      </g>
     </g>
    </g>
    <g id="ytick_4">
     <g id="line2d_10">
      <path clip-path="url(#p62ab28229f)" d="M 54 99.792 
L 388.8 99.792 
" style="fill:none;stroke:#cccccc;stroke-linecap:round;stroke-width:0.8;"/>
     </g>
     <g id="text_10">
      <!-- 0.010 -->
      <g style="fill:#262626;" transform="translate(18.371875 103.591219)scale(0.1 -0.1)">
       <defs>
        <path d="M 794 531 
L 1825 531 
L 1825 4091 
L 703 3866 
L 703 4441 
L 1819 4666 
L 2450 4666 
L 2450 531 
L 3481 531 
L 3481 0 
L 794 0 
L 794 531 
z
" id="DejaVuSans-31" transform="scale(0.015625)"/>
       </defs>
       <use xlink:href="#DejaVuSans-30"/>
       <use x="63.623047" xlink:href="#DejaVuSans-2e"/>
       <use x="95.410156" xlink:href="#DejaVuSans-30"/>
       <use x="159.033203" xlink:href="#DejaVuSans-31"/>
       <use x="222.65625" xlink:href="#DejaVuSans-30"/>
      </g>
     </g>
    </g>
    <g id="ytick_5">
     <g id="line2d_11">
      <path clip-path="url(#p62ab28229f)" d="M 54 56.304 
L 388.8 56.304 
" style="fill:none;stroke:#cccccc;stroke-linecap:round;stroke-width:0.8;"/>
     </g>
     <g id="text_11">
      <!-- 0.011 -->
      <g style="fill:#262626;" transform="translate(18.371875 60.103219)scale(0.1 -0.1)">
       <use xlink:href="#DejaVuSans-30"/>
       <use x="63.623047" xlink:href="#DejaVuSans-2e"/>
       <use x="95.410156" xlink:href="#DejaVuSans-30"/>
       <use x="159.033203" xlink:href="#DejaVuSans-31"/>
       <use x="222.65625" xlink:href="#DejaVuSans-31"/>
      </g>
     </g>
    </g>
   </g>
   <g id="line2d_12">
    <path clip-path="url(#p62ab28229f)" d="M 53.962321 181.07649 
L 54.025097 184.31514 
L 54.087874 180.545558 
L 54.213427 191.323333 
L 54.276203 190.23494 
L 54.33898 190.765872 
L 54.401756 189.704008 
L 54.464532 190.765872 
L 54.652862 176.218555 
L 54.715638 174.59923 
L 54.778415 182.695815 
L 54.841191 175.687622 
L 54.903968 178.368772 
L 54.966744 182.695815 
L 55.02952 177.837839 
L 55.092297 179.457165 
L 55.21785 181.07649 
L 55.280626 188.615615 
L 55.343403 185.934466 
L 55.406179 182.695815 
L 55.594508 195.623828 
L 55.782838 179.457165 
L 55.845614 185.376964 
L 55.971167 170.298755 
L 56.033943 174.59923 
L 56.159496 188.084683 
L 56.285049 181.607422 
L 56.410602 186.99629 
L 56.473379 177.306948 
L 56.536155 178.926273 
L 56.724484 188.615615 
L 56.787261 183.226747 
L 56.850037 188.615615 
L 57.101143 177.837839 
L 57.163919 181.607422 
L 57.226696 193.473591 
L 57.289472 184.846073 
L 57.352249 182.695815 
L 57.477802 199.950851 
L 57.603355 181.07649 
L 57.666131 187.553791 
L 57.728907 187.553791 
L 57.791684 183.226747 
L 57.85446 185.934466 
L 57.917237 186.465357 
L 58.105566 194.561983 
L 58.168342 192.942658 
L 58.293895 176.776015 
L 58.356672 177.306948 
L 58.545001 189.173076 
L 58.607778 181.07649 
L 58.670554 182.695815 
L 58.858883 187.553791 
L 58.984436 194.004482 
L 59.109989 176.776015 
L 59.298318 194.004482 
L 59.423871 185.376964 
L 59.612201 197.774065 
L 59.80053 188.615615 
L 59.863306 188.615615 
L 60.051636 173.537365 
L 60.302741 185.934466 
L 60.491071 172.979904 
L 60.616624 182.164883 
L 60.6794 179.457165 
L 60.742177 182.695815 
L 60.930506 171.360579 
L 61.244388 192.942658 
L 61.432717 177.306948 
L 61.495494 186.465357 
L 61.55827 180.545558 
L 61.683823 185.934466 
L 61.7466 183.226747 
L 61.934929 177.306948 
L 61.997705 176.218555 
L 62.123258 189.173076 
L 62.311588 175.15669 
L 62.43714 178.926273 
L 62.499917 181.607422 
L 62.62547 169.767823 
L 62.876576 191.323333 
L 62.939352 183.784208 
L 63.002128 186.99629 
L 63.127681 185.376964 
L 63.190458 195.623828 
L 63.253234 190.765872 
L 63.378787 182.164883 
L 63.50434 191.854265 
L 63.692669 181.07649 
L 63.755446 178.368772 
L 63.880999 186.465357 
L 64.069328 176.218555 
L 64.132104 176.776015 
L 64.194881 183.784208 
L 64.257657 178.926273 
L 64.320434 177.306948 
L 64.508763 189.704008 
L 64.697092 189.704008 
L 64.948198 176.776015 
L 65.199304 188.615615 
L 65.26208 189.173076 
L 65.387633 183.226747 
L 65.513186 193.473591 
L 65.575962 191.323333 
L 65.638739 191.854265 
L 65.701515 182.695815 
L 65.764292 183.226747 
L 65.889845 187.553791 
L 65.952621 186.465357 
L 66.015398 179.457165 
L 66.078174 179.988097 
L 66.32928 198.862458 
L 66.454833 190.765872 
L 66.517609 191.323333 
L 66.643162 197.243133 
L 66.831491 187.553791 
L 67.019821 195.092895 
L 67.20815 183.226747 
L 67.522032 190.765872 
L 67.647585 189.704008 
L 67.773138 196.181288 
L 67.835914 190.23494 
L 67.898691 191.854265 
L 67.961467 197.243133 
L 68.024244 194.004482 
L 68.08702 194.561983 
L 68.212573 184.31514 
L 68.275349 195.092895 
L 68.338126 189.173076 
L 68.400902 187.553791 
L 68.526455 196.181288 
L 68.652008 182.695815 
L 68.714785 184.846073 
L 68.840337 186.465357 
L 68.903114 194.004482 
L 69.15422 174.59923 
L 69.216996 184.31514 
L 69.279773 181.607422 
L 69.405325 178.926273 
L 69.719208 199.950851 
L 69.781984 197.243133 
L 69.84476 198.862458 
L 69.907537 199.39339 
L 70.095866 191.323333 
L 70.221419 197.774065 
L 70.284196 195.092895 
L 70.472525 180.545558 
L 70.723631 195.092895 
L 70.849184 191.323333 
L 70.974736 182.695815 
L 71.100289 189.704008 
L 71.225842 182.164883 
L 71.351395 193.473591 
L 71.414172 191.854265 
L 71.539724 184.31514 
L 71.602501 196.712221 
L 71.665277 195.623828 
L 71.728054 184.846073 
L 71.79083 185.376964 
L 71.916383 183.226747 
L 72.104712 188.615615 
L 72.167489 181.07649 
L 72.230265 182.695815 
L 72.418595 202.101088 
L 72.544147 176.218555 
L 72.606924 177.837839 
L 72.732477 186.99629 
L 72.920806 181.07649 
L 72.983583 177.837839 
L 73.297465 196.181288 
L 73.360241 195.623828 
L 73.423018 195.092895 
L 73.54857 181.607422 
L 73.7369 192.942658 
L 73.988006 175.15669 
L 74.364664 196.181288 
L 74.678546 181.607422 
L 74.804099 182.164883 
L 74.929652 194.004482 
L 74.992429 185.376964 
L 75.055205 189.173076 
L 75.243534 175.15669 
L 75.306311 177.837839 
L 75.431864 186.99629 
L 75.49464 186.465357 
L 75.557417 188.084683 
L 75.620193 192.942658 
L 75.745746 181.07649 
L 75.808522 184.31514 
L 75.871299 189.704008 
L 75.934075 184.846073 
L 75.996852 185.376964 
L 76.122405 187.553791 
L 76.247957 184.31514 
L 76.310734 189.704008 
L 76.37351 186.465357 
L 76.436287 184.846073 
L 76.624616 186.99629 
L 76.750169 176.776015 
L 76.875722 190.765872 
L 77.126828 182.164883 
L 77.189604 184.31514 
L 77.315157 199.950851 
L 77.503486 185.934466 
L 77.566263 189.704008 
L 77.629039 184.846073 
L 77.880145 198.331526 
L 77.942921 196.712221 
L 78.131251 187.553791 
L 78.194027 194.561983 
L 78.256804 189.704008 
L 78.31958 191.854265 
L 78.382356 185.376964 
L 78.507909 198.331526 
L 78.570686 195.623828 
L 78.696239 179.457165 
L 78.759015 181.07649 
L 79.010121 191.854265 
L 79.135674 177.837839 
L 79.449556 199.39339 
L 79.512332 195.092895 
L 79.575109 184.846073 
L 79.637885 185.934466 
L 79.763438 176.218555 
L 79.826215 181.607422 
L 80.014544 186.465357 
L 80.07732 187.553791 
L 80.140097 185.934466 
L 80.328426 192.942658 
L 80.453979 181.07649 
L 80.516755 182.695815 
L 80.579532 181.607422 
L 80.642308 181.607422 
L 80.830638 193.473591 
L 80.893414 191.323333 
L 81.018967 181.07649 
L 81.081743 182.695815 
L 81.14452 192.942658 
L 81.207296 190.23494 
L 81.395626 174.068297 
L 81.583955 190.765872 
L 81.772284 196.181288 
L 81.835061 194.004482 
L 81.960614 185.934466 
L 82.02339 190.765872 
L 82.086166 190.23494 
L 82.148943 181.607422 
L 82.211719 183.226747 
L 82.337272 177.306948 
L 82.525602 188.084683 
L 82.588378 185.934466 
L 82.651154 186.465357 
L 82.713931 190.23494 
L 82.839484 179.988097 
L 82.90226 189.173076 
L 82.965037 188.084683 
L 83.09059 183.784208 
L 83.153366 184.846073 
L 83.278919 187.553791 
L 83.341695 195.623828 
L 83.404472 194.004482 
L 83.530025 185.934466 
L 83.592801 193.473591 
L 83.655577 191.323333 
L 83.718354 188.615615 
L 83.843907 194.561983 
L 83.96946 184.846073 
L 84.095013 195.623828 
L 84.283342 181.607422 
L 84.408895 193.473591 
L 84.471671 191.323333 
L 84.534448 183.226747 
L 84.660001 198.331526 
L 84.722777 196.181288 
L 84.84833 186.465357 
L 84.911106 186.99629 
L 85.099436 177.306948 
L 85.287765 184.846073 
L 85.350541 195.623828 
L 85.413318 190.23494 
L 85.601647 191.854265 
L 85.915529 174.59923 
L 86.103859 194.561983 
L 86.229412 182.695815 
L 86.292188 185.376964 
L 86.480517 192.942658 
L 86.543294 186.465357 
L 86.60607 191.323333 
L 86.731623 180.545558 
L 86.7944 184.846073 
L 86.857176 193.473591 
L 86.919952 190.765872 
L 86.982729 189.704008 
L 87.045505 182.695815 
L 87.108282 185.376964 
L 87.171058 189.173076 
L 87.233835 188.084683 
L 87.359388 172.979904 
L 87.610493 185.376964 
L 87.987152 168.148498 
L 88.112705 211.259538 
L 88.238258 156.813261 
L 88.426587 220.975449 
L 88.614916 169.767823 
L 88.803246 210.728606 
L 88.866022 202.63202 
L 88.928799 178.368772 
L 88.991575 181.607422 
L 89.117128 185.934466 
L 89.305457 163.821454 
L 89.43101 165.440779 
L 89.493786 183.226747 
L 89.556563 177.837839 
L 89.619339 177.837839 
L 89.682116 173.537365 
L 89.870445 206.401583 
L 89.933222 200.481783 
L 89.995998 188.084683 
L 90.058774 190.765872 
L 90.121551 186.99629 
L 90.247104 199.39339 
L 90.435433 185.376964 
L 90.49821 178.926273 
L 90.560986 181.07649 
L 90.623762 182.695815 
L 90.686539 192.385198 
L 90.749315 186.99629 
L 90.812092 184.31514 
L 91.063198 194.561983 
L 91.18875 171.360579 
L 91.251527 171.91804 
L 91.314303 183.784208 
L 91.37708 183.226747 
L 91.502633 169.767823 
L 91.628185 179.988097 
L 91.690962 176.776015 
L 91.753738 183.226747 
L 91.816515 181.607422 
L 91.942068 186.465357 
L 92.067621 203.189481 
L 92.25595 190.23494 
L 92.318726 194.561983 
L 92.444279 181.607422 
L 92.507056 187.553791 
L 92.569832 183.784208 
L 92.758161 175.687622 
L 92.820938 181.607422 
L 92.883714 176.218555 
L 93.009267 198.331526 
L 93.072044 196.181288 
L 93.197597 175.687622 
L 93.260373 176.218555 
L 93.385926 189.704008 
L 93.448702 186.465357 
L 93.511479 179.988097 
L 93.574255 181.607422 
L 93.637032 182.164883 
L 93.699808 173.537365 
L 93.762584 176.776015 
L 93.950914 192.385198 
L 94.076467 192.942658 
L 94.139243 192.942658 
L 94.327572 188.615615 
L 94.390349 190.23494 
L 94.515902 178.368772 
L 94.578678 178.926273 
L 94.641455 178.926273 
L 94.704231 181.07649 
L 94.767008 177.837839 
L 94.829784 178.926273 
L 94.955337 185.376964 
L 95.08089 178.368772 
L 95.143666 180.545558 
L 95.206443 177.837839 
L 95.394772 187.553791 
L 95.457548 184.846073 
L 95.520325 184.31514 
L 95.645878 197.774065 
L 95.834207 185.376964 
L 95.95976 192.942658 
L 96.022536 192.385198 
L 96.273642 176.218555 
L 96.336419 179.988097 
L 96.399195 192.385198 
L 96.461971 191.854265 
L 96.650301 173.537365 
L 96.713077 181.07649 
L 96.775854 184.846073 
L 96.83863 178.926273 
L 96.964183 187.553791 
L 97.026959 186.99629 
L 97.152512 191.323333 
L 97.215289 189.704008 
L 97.403618 183.784208 
L 97.529171 195.623828 
L 97.654724 184.846073 
L 97.7175 186.465357 
L 97.780277 181.607422 
L 97.843053 183.226747 
L 98.031382 191.323333 
L 98.219712 182.164883 
L 98.345265 198.331526 
L 98.408041 190.765872 
L 98.470818 189.173076 
L 98.533594 190.765872 
L 98.721923 183.226747 
L 98.7847 183.784208 
L 98.847476 192.942658 
L 98.910253 192.385198 
L 99.161358 175.15669 
L 99.224135 176.218555 
L 99.349688 190.765872 
L 99.412464 184.846073 
L 99.475241 178.368772 
L 99.538017 183.226747 
L 99.600793 183.784208 
L 99.726346 172.448972 
L 99.851899 190.23494 
L 100.040229 168.67943 
L 100.165781 188.615615 
L 100.228558 187.553791 
L 100.291334 189.704008 
L 100.354111 188.084683 
L 100.416887 186.99629 
L 100.605217 176.776015 
L 100.667993 177.306948 
L 100.793546 187.553791 
L 100.919099 176.776015 
L 101.044652 168.67943 
L 101.232981 181.607422 
L 101.358534 177.837839 
L 101.546863 184.31514 
L 101.60964 182.164883 
L 101.735192 188.615615 
L 102.362957 170.829647 
L 102.425733 167.591037 
L 102.676839 188.084683 
L 102.739616 185.376964 
L 102.865168 174.59923 
L 102.990721 182.695815 
L 103.053498 177.837839 
L 103.116274 179.457165 
L 103.241827 176.776015 
L 103.36738 180.545558 
L 103.492933 171.360579 
L 103.555709 171.91804 
L 103.681262 190.765872 
L 103.806815 178.368772 
L 103.869591 179.988097 
L 103.932368 186.465357 
L 104.120697 177.306948 
L 104.183474 175.687622 
L 104.24625 170.298755 
L 104.309027 173.537365 
L 104.434579 170.829647 
L 104.622909 188.084683 
L 104.685685 185.376964 
L 104.811238 178.926273 
L 104.874015 179.457165 
L 105.062344 176.218555 
L 105.12512 182.695815 
L 105.187897 181.07649 
L 105.250673 181.07649 
L 105.31345 181.607422 
L 105.376226 185.376964 
L 105.501779 176.776015 
L 105.564555 178.926273 
L 105.690108 190.765872 
L 105.878438 174.068297 
L 106.00399 168.67943 
L 106.066767 169.767823 
L 106.129543 178.926273 
L 106.19232 177.837839 
L 106.255096 172.979904 
L 106.317873 175.687622 
L 106.443426 181.07649 
L 106.568978 168.67943 
L 106.757308 184.31514 
L 106.882861 189.704008 
L 107.133966 171.360579 
L 107.196743 172.979904 
L 107.259519 172.448972 
L 107.447849 186.99629 
L 107.510625 186.99629 
L 107.573401 187.553791 
L 107.636178 184.31514 
L 107.761731 195.092895 
L 107.95006 184.31514 
L 108.075613 190.23494 
L 108.138389 186.465357 
L 108.201166 186.99629 
L 108.263942 186.465357 
L 108.326719 183.784208 
L 108.452272 192.385198 
L 108.515048 181.07649 
L 108.577825 183.784208 
L 108.640601 186.99629 
L 108.703377 185.376964 
L 108.891707 173.537365 
L 109.142813 186.465357 
L 109.205589 186.465357 
L 109.268365 189.173076 
L 109.331142 184.846073 
L 109.456695 190.23494 
L 109.519471 189.704008 
L 109.7078 179.457165 
L 109.770577 181.07649 
L 109.833353 179.988097 
L 110.084459 193.473591 
L 110.147236 192.385198 
L 110.210012 186.99629 
L 110.272788 189.173076 
L 110.335565 189.704008 
L 110.398341 186.99629 
L 110.586671 195.092895 
L 110.649447 193.473591 
L 110.775 185.376964 
L 110.837776 185.934466 
L 110.963329 178.368772 
L 111.026106 181.07649 
L 111.088882 190.23494 
L 111.151659 188.084683 
L 111.214435 190.765872 
L 111.339988 182.695815 
L 111.402764 185.376964 
L 111.465541 185.376964 
L 111.528317 181.607422 
L 111.65387 191.323333 
L 111.842199 181.07649 
L 112.030529 191.323333 
L 112.156082 178.926273 
L 112.281635 187.553791 
L 112.344411 183.784208 
L 112.595517 198.862458 
L 112.658293 198.331526 
L 112.783846 191.854265 
L 112.846623 193.473591 
L 112.972175 182.695815 
L 113.034952 183.226747 
L 113.097728 185.376964 
L 113.223281 197.774065 
L 113.286058 190.23494 
L 113.348834 191.323333 
L 113.474387 208.020908 
L 113.59994 189.704008 
L 113.662716 194.004482 
L 113.851046 192.942658 
L 113.913822 197.774065 
L 113.976598 196.712221 
L 114.039375 195.092895 
L 114.102151 195.623828 
L 114.290481 208.578369 
L 114.353257 208.578369 
L 114.416034 212.347931 
L 114.47881 209.109301 
L 114.604363 198.862458 
L 114.792692 206.959044 
L 114.855469 206.401583 
L 114.918245 201.570176 
L 114.981022 205.870651 
L 115.106574 193.473591 
L 115.169351 194.004482 
L 115.420457 210.728606 
L 115.483233 208.020908 
L 115.608786 198.862458 
L 115.734339 195.092895 
L 115.797115 187.553791 
L 115.859892 189.704008 
L 116.110997 208.020908 
L 116.173774 211.259538 
L 116.362103 204.782258 
L 116.42488 212.878864 
L 116.487656 209.640213 
L 116.738762 198.862458 
L 116.864315 211.790471 
L 116.927091 209.109301 
L 116.989868 206.401583 
L 117.052644 206.959044 
L 117.178197 195.092895 
L 117.240973 195.623828 
L 117.366526 190.765872 
L 117.617632 212.878864 
L 117.805961 204.251346 
L 117.931514 216.117494 
L 118.18262 200.481783 
L 118.370949 211.790471 
L 118.559279 207.489976 
L 118.622055 215.586561 
L 118.684832 209.640213 
L 118.747608 212.347931 
L 118.810384 207.489976 
L 118.873161 209.640213 
L 118.935937 216.648426 
L 118.998714 211.259538 
L 119.06149 208.578369 
L 119.124267 209.109301 
L 119.249819 217.736819 
L 119.438149 201.012695 
L 119.626478 213.409776 
L 119.689255 215.586561 
L 119.752031 208.578369 
L 119.814807 212.347931 
L 119.877584 213.409776 
L 119.94036 220.975449 
L 120.065913 207.489976 
L 120.12869 209.109301 
L 120.191466 214.498168 
L 120.317019 207.489976 
L 120.379795 212.347931 
L 120.442572 210.171145 
L 120.568125 211.790471 
L 120.630901 211.259538 
L 120.756454 201.570176 
L 120.819231 202.63202 
L 120.882007 199.950851 
L 121.070336 211.259538 
L 121.133113 211.259538 
L 121.195889 208.578369 
L 121.258666 213.409776 
L 121.384218 206.401583 
L 121.509771 215.586561 
L 121.572548 213.409776 
L 121.698101 209.109301 
L 121.823654 213.409776 
L 121.88643 212.347931 
L 122.074759 199.950851 
L 122.137536 194.561983 
L 122.263089 204.782258 
L 122.325865 202.63202 
L 122.576971 190.765872 
L 122.7653 205.870651 
L 122.890853 214.498168 
L 122.95363 206.401583 
L 123.016406 207.489976 
L 123.141959 209.640213 
L 123.267512 206.959044 
L 123.581394 220.975449 
L 123.769723 206.401583 
L 123.8325 205.870651 
L 123.958053 215.029101 
L 124.020829 212.347931 
L 124.271935 222.037293 
L 124.585817 202.101088 
L 124.836923 217.736819 
L 125.025252 206.401583 
L 125.088029 205.339739 
L 125.276358 229.045506 
L 125.339134 231.195744 
L 125.464687 216.648426 
L 125.527464 220.417988 
L 125.653016 214.498168 
L 125.778569 219.887056 
L 125.841346 226.895249 
L 125.904122 222.037293 
L 126.092452 210.171145 
L 126.280781 224.187531 
L 126.406334 211.790471 
L 126.594663 216.648426 
L 126.720216 211.790471 
L 126.782992 213.409776 
L 126.845769 212.878864 
L 126.908545 203.720413 
L 126.971322 208.578369 
L 127.096875 214.498168 
L 127.222427 216.117494 
L 127.285204 220.975449 
L 127.34798 218.798663 
L 127.410757 216.648426 
L 127.473533 197.774065 
L 127.53631 201.570176 
L 127.661863 208.020908 
L 127.724639 205.870651 
L 127.787415 196.712221 
L 127.850192 199.39339 
L 127.912968 199.950851 
L 128.038521 192.385198 
L 128.101298 192.942658 
L 128.164074 192.385198 
L 128.352403 174.59923 
L 128.41518 177.306948 
L 128.477956 176.776015 
L 128.540733 178.926273 
L 128.603509 177.837839 
L 128.729062 162.75963 
L 128.854615 165.971712 
L 128.980168 176.776015 
L 129.105721 167.060105 
L 129.356826 185.376964 
L 129.419603 185.934466 
L 129.482379 189.704008 
L 129.545156 188.084683 
L 129.607932 181.07649 
L 129.670709 188.084683 
L 129.733485 181.607422 
L 129.796262 182.164883 
L 129.859038 182.695815 
L 129.921814 180.545558 
L 130.17292 190.23494 
L 130.235697 187.553791 
L 130.36125 170.298755 
L 130.424026 179.457165 
L 130.486802 174.068297 
L 130.549579 169.210322 
L 130.612355 175.15669 
L 130.675132 172.448972 
L 130.926238 180.545558 
L 131.114567 202.63202 
L 131.177343 199.950851 
L 131.302896 188.084683 
L 131.428449 177.837839 
L 131.554002 186.99629 
L 131.679555 176.776015 
L 131.867884 184.846073 
L 131.930661 184.846073 
L 132.056213 180.545558 
L 132.11899 181.607422 
L 132.244543 186.99629 
L 132.307319 184.31514 
L 132.495649 172.979904 
L 132.621201 179.457165 
L 132.683978 176.218555 
L 132.746754 177.306948 
L 132.872307 182.164883 
L 133.060637 169.210322 
L 133.186189 186.99629 
L 133.248966 176.776015 
L 133.311742 182.695815 
L 133.374519 181.607422 
L 133.437295 185.934466 
L 133.500072 182.164883 
L 133.562848 183.226747 
L 133.688401 184.846073 
L 133.751177 187.553791 
L 133.87673 179.988097 
L 134.002283 184.31514 
L 134.127836 178.368772 
L 134.190612 172.979904 
L 134.378942 192.385198 
L 134.441718 186.99629 
L 134.504495 188.615615 
L 134.630048 184.846073 
L 134.692824 178.926273 
L 134.7556 182.164883 
L 134.818377 183.226747 
L 134.881153 181.07649 
L 134.94393 185.934466 
L 135.006706 182.695815 
L 135.069483 183.784208 
L 135.132259 186.99629 
L 135.195035 184.31514 
L 135.320588 196.181288 
L 135.383365 189.704008 
L 135.446141 190.765872 
L 135.571694 186.465357 
L 135.634471 180.545558 
L 135.697247 182.164883 
L 135.760023 181.607422 
L 135.8228 184.846073 
L 136.136682 162.202129 
L 136.262235 157.370722 
L 136.325011 170.829647 
L 136.387788 168.67943 
L 136.450564 167.060105 
L 136.576117 156.813261 
L 136.638894 163.821454 
L 136.70167 160.051912 
L 137.266658 116.940851 
L 137.329434 118.002715 
L 137.392211 115.321526 
L 137.58054 129.337952 
L 137.643317 128.249559 
L 137.706093 127.161166 
L 137.76887 116.940851 
L 137.894422 127.718626 
L 137.957199 125.010908 
L 138.019975 113.7022 
L 138.082752 120.710434 
L 138.208305 134.726819 
L 138.396634 115.321526 
L 138.64774 126.099301 
L 138.773293 120.152932 
L 138.836069 122.860651 
L 138.898846 135.788684 
L 138.961622 130.957236 
L 139.149951 115.852458 
L 139.212728 115.321526 
L 139.338281 107.755872 
L 139.401057 108.313333 
L 139.463833 111.551983 
L 139.589386 98.597422 
L 139.714939 102.924466 
L 139.840492 84.050105 
L 139.903269 90.527365 
L 140.028821 93.208555 
L 140.279927 82.961712 
L 140.342704 85.138498 
L 140.468257 79.192129 
L 140.656586 65.733204 
L 140.782139 74.334194 
L 140.844915 73.272329 
L 140.907692 69.502787 
L 140.970468 75.422587 
L 141.033244 70.033719 
L 141.096021 71.122112 
L 141.158797 72.183936 
L 141.28435 80.280522 
L 141.409903 79.74963 
L 141.47268 79.74963 
L 141.535456 79.192129 
L 141.598232 82.961712 
L 141.723785 78.661237 
L 141.912115 86.200362 
L 142.225997 84.050105 
L 142.35155 85.138498 
L 142.414326 84.050105 
L 142.539879 92.14669 
L 142.665432 84.050105 
L 142.853761 91.58923 
L 142.979314 85.66943 
L 143.167643 94.82788 
L 143.23042 95.916273 
L 143.293196 93.739487 
L 143.481526 115.852458 
L 143.669855 106.136547 
L 143.858184 119.091108 
L 143.920961 116.940851 
L 144.172067 138.496361 
L 144.234843 136.346144 
L 144.297619 137.407968 
L 144.360396 139.027293 
L 144.423172 136.877076 
L 144.548725 139.558226 
L 144.737055 125.010908 
L 144.862607 125.568369 
L 144.925384 125.010908 
L 145.113713 147.654811 
L 145.17649 140.115686 
L 145.239266 141.177551 
L 145.302042 143.885269 
L 145.490372 156.813261 
L 145.741478 144.416201 
L 145.929807 155.193936 
L 145.992583 153.043719 
L 146.05536 153.574611 
L 146.306466 165.971712 
L 146.557571 149.805069 
L 146.745901 161.140305 
L 146.871454 144.416201 
L 146.93423 151.955286 
L 146.997006 147.654811 
L 147.122559 142.796876 
L 147.310889 152.512787 
L 147.436441 140.646619 
L 147.624771 157.901654 
L 147.687547 156.282329 
L 147.8131 165.971712 
L 148.189759 136.877076 
L 148.252535 148.743204 
L 148.315312 147.654811 
L 148.378088 146.035486 
L 148.440865 140.646619 
L 148.503641 142.265944 
L 148.566417 139.558226 
L 148.629194 141.735012 
L 148.754747 136.877076 
L 148.817523 137.965469 
L 148.8803 136.877076 
L 149.068629 141.735012 
L 149.319735 132.550033 
L 149.382511 132.019101 
L 149.57084 119.091108 
L 149.696393 131.488169 
L 149.884723 109.932658 
L 150.010276 111.551983 
L 150.198605 114.764065 
L 150.261381 113.7022 
L 150.386934 103.98629 
L 150.512487 109.375198 
L 150.63804 102.924466 
L 150.700816 106.694008 
L 150.763593 95.358772 
L 150.826369 96.978097 
L 151.014699 89.438972 
L 151.077475 94.82788 
L 151.140251 92.677623 
L 151.328581 82.430779 
L 151.51691 83.519172 
L 151.579687 86.200362 
L 151.705239 81.342386 
L 151.768016 85.66943 
L 151.830792 84.581037 
L 151.956345 72.741437 
L 152.144675 77.041912 
L 152.270227 72.741437 
L 152.458557 78.130305 
L 152.58411 73.803262 
L 152.709663 58.725012 
L 152.772439 66.795069 
L 152.835215 63.556418 
L 152.960768 74.891654 
L 153.023545 70.033719 
L 153.149098 56.017293 
L 153.211874 61.406201 
L 153.27465 60.875269 
L 153.400203 74.334194 
L 153.46298 70.564611 
L 153.651309 54.928901 
L 153.965191 86.731254 
L 154.090744 73.803262 
L 154.216297 84.581037 
L 154.34185 70.033719 
L 154.655732 94.82788 
L 154.718509 93.208555 
L 154.906838 78.130305 
L 154.969614 84.050105 
L 155.157944 65.175744 
L 155.409049 96.978097 
L 155.471826 94.82788 
L 155.534602 98.06649 
L 155.660155 88.90804 
L 155.848485 100.74768 
L 155.911261 111.551983 
L 155.974037 105.605615 
L 156.09959 101.30514 
L 156.28792 116.38339 
L 156.413473 107.22494 
L 156.476249 107.22494 
L 156.664578 112.613808 
L 156.790131 106.694008 
L 156.852908 107.755872 
L 157.041237 116.38339 
L 157.104013 114.764065 
L 157.16679 116.940851 
L 157.229566 114.233133 
L 157.355119 122.860651 
L 157.480672 118.560176 
L 157.794554 135.257751 
L 157.920107 122.329718 
L 157.982884 127.161166 
L 158.04566 133.638426 
L 158.108436 129.337952 
L 158.296766 120.710434 
L 158.485095 130.399776 
L 158.736201 125.568369 
L 158.798977 116.38339 
L 158.861754 121.772258 
L 158.92453 115.852458 
L 158.987307 119.622041 
L 159.112859 127.718626 
L 159.175636 122.860651 
L 159.238412 124.479976 
L 159.489518 136.877076 
L 159.552295 125.010908 
L 159.615071 129.868843 
L 159.677847 133.107494 
L 159.866177 123.391583 
L 159.928953 135.257751 
L 159.99173 129.868843 
L 160.054506 120.152932 
L 160.242835 141.735012 
L 160.305612 141.177551 
L 160.493941 119.091108 
L 160.556718 119.091108 
L 160.682271 113.14474 
L 160.745047 113.14474 
L 160.933376 107.755872 
L 160.996153 112.082916 
L 161.058929 110.994523 
L 161.121706 110.994523 
L 161.184482 113.7022 
L 161.247258 112.613808 
L 161.372811 103.455398 
L 161.498364 119.622041 
L 161.561141 119.091108 
L 161.623917 118.560176 
L 161.686694 125.568369 
L 161.875023 104.543791 
L 161.937799 103.98629 
L 162.000576 107.22494 
L 162.251682 94.296948 
L 162.314458 95.358772 
L 162.377234 102.924466 
L 162.440011 98.06649 
L 162.502787 98.597422 
L 162.565564 100.216747 
L 162.753893 94.82788 
L 162.879446 99.154883 
L 162.942222 96.978097 
L 163.004999 95.358772 
L 163.067775 98.06649 
L 163.130552 106.136547 
L 163.318881 89.438972 
L 163.444434 87.819647 
L 163.50721 94.82788 
L 163.632763 84.581037 
L 163.69554 91.058297 
L 163.821093 81.899847 
L 164.009422 95.358772 
L 164.072198 91.058297 
L 164.134975 89.438972 
L 164.197751 91.058297 
L 164.386081 72.183936 
L 164.448857 75.953519 
L 164.511633 72.741437 
L 164.637186 80.811454 
L 164.825516 66.264137 
L 164.888292 70.033719 
L 165.013845 79.74963 
L 165.076621 74.891654 
L 165.202174 83.519172 
L 165.264951 79.192129 
L 165.327727 81.899847 
L 165.390504 87.288755 
L 165.578833 68.945326 
L 165.704386 82.961712 
L 165.767162 81.342386 
L 165.829939 80.811454 
L 165.892715 79.192129 
L 166.018268 96.447165 
L 166.269374 81.899847 
L 166.33215 82.430779 
L 166.394927 91.58923 
L 166.457703 88.90804 
L 166.52048 87.819647 
L 166.583256 93.739487 
L 166.646032 92.677623 
L 166.708809 93.208555 
L 166.834362 98.06649 
L 166.897138 91.58923 
L 166.959915 95.358772 
L 167.022691 102.367005 
L 167.085467 101.836073 
L 167.148244 95.916273 
L 167.21102 99.685815 
L 167.273797 96.447165 
L 167.336573 98.06649 
L 167.39935 95.916273 
L 167.462126 97.535558 
L 167.524903 101.836073 
L 167.587679 99.685815 
L 167.650455 99.154883 
L 167.776008 92.14669 
L 167.901561 100.74768 
L 167.964338 92.14669 
L 168.027114 94.82788 
L 168.27822 101.30514 
L 168.403773 113.14474 
L 168.466549 112.082916 
L 168.529326 112.613808 
L 168.592102 110.463591 
L 168.654879 102.367005 
L 168.717655 108.313333 
L 168.780431 113.7022 
L 169.031537 96.978097 
L 169.15709 110.463591 
L 169.219866 108.313333 
L 169.345419 112.082916 
L 169.408196 105.605615 
L 169.470972 106.694008 
L 169.659302 123.391583 
L 169.784854 110.994523 
L 169.973184 122.329718 
L 170.161513 110.994523 
L 170.287066 122.860651 
L 170.349842 118.002715 
L 170.412619 119.622041 
L 170.475395 121.241325 
L 170.538172 120.152932 
L 170.600948 113.7022 
L 170.663725 116.38339 
L 170.852054 126.099301 
L 171.040383 114.233133 
L 171.10316 120.152932 
L 171.165936 119.622041 
L 171.228713 120.710434 
L 171.354265 128.78045 
L 171.542595 117.471783 
L 171.668148 112.613808 
L 171.730924 118.560176 
L 171.793701 112.613808 
L 171.856477 116.940851 
L 171.98203 125.010908 
L 172.170359 112.613808 
L 172.295912 118.002715 
L 172.547018 102.367005 
L 172.672571 109.375198 
L 172.798124 100.216747 
L 172.8609 102.367005 
L 172.986453 113.7022 
L 173.049229 106.136547 
L 173.112006 109.932658 
L 173.237559 104.543791 
L 173.300335 101.30514 
L 173.363112 103.455398 
L 173.425888 104.543791 
L 173.488664 101.30514 
L 173.676994 110.994523 
L 173.865323 96.978097 
L 173.9281 97.535558 
L 174.053652 108.844265 
L 174.241982 105.605615 
L 174.367535 110.463591 
L 174.430311 100.74768 
L 174.493088 101.30514 
L 174.555864 104.543791 
L 174.744193 87.819647 
L 174.80697 88.350579 
L 174.995299 97.535558 
L 175.058075 90.527365 
L 175.183628 98.597422 
L 175.246405 98.06649 
L 175.309181 99.685815 
L 175.497511 83.519172 
L 175.623063 94.82788 
L 175.68584 88.90804 
L 175.748616 94.296948 
L 175.936946 81.899847 
L 175.999722 78.130305 
L 176.125275 86.731254 
L 176.188051 86.731254 
L 176.250828 82.961712 
L 176.376381 90.527365 
L 176.439157 81.899847 
L 176.501934 86.731254 
L 176.627487 94.82788 
L 176.753039 84.050105 
L 176.815816 84.581037 
L 177.004145 88.90804 
L 177.066922 82.961712 
L 177.129698 86.200362 
L 177.255251 95.916273 
L 177.318027 93.739487 
L 177.380804 95.916273 
L 177.506357 83.519172 
L 177.694686 93.208555 
L 177.757462 94.82788 
L 177.820239 101.30514 
L 177.883015 99.685815 
L 177.945792 100.74768 
L 178.008568 97.535558 
L 178.134121 85.138498 
L 178.196898 86.200362 
L 178.259674 88.350579 
L 178.32245 86.200362 
L 178.51078 95.358772 
L 178.699109 94.296948 
L 178.824662 85.66943 
L 178.887438 86.731254 
L 178.950215 86.731254 
L 179.138544 96.978097 
L 179.201321 95.916273 
L 179.38965 108.844265 
L 179.515203 100.74768 
L 179.577979 101.30514 
L 179.766309 111.551983 
L 179.829085 101.836073 
L 179.891861 110.463591 
L 179.954638 106.694008 
L 180.017414 102.367005 
L 180.080191 104.543791 
L 180.142967 105.074683 
L 180.205744 98.597422 
L 180.331297 109.932658 
L 180.456849 100.216747 
L 180.582402 112.082916 
L 180.645179 111.551983 
L 180.707955 111.551983 
L 180.770732 112.082916 
L 180.833508 111.551983 
L 180.896284 116.38339 
L 180.959061 108.313333 
L 181.021837 114.233133 
L 181.210167 101.836073 
L 181.33572 120.710434 
L 181.398496 118.002715 
L 181.461272 110.463591 
L 181.524049 114.764065 
L 181.586825 114.764065 
L 181.649602 109.375198 
L 181.712378 113.14474 
L 181.775155 119.622041 
L 181.837931 114.233133 
L 181.900708 118.002715 
L 182.151813 107.755872 
L 182.21459 109.932658 
L 182.277366 108.313333 
L 182.402919 106.694008 
L 182.465696 99.154883 
L 182.528472 106.694008 
L 182.591248 105.074683 
L 182.905131 118.002715 
L 182.967907 108.844265 
L 183.09346 120.710434 
L 183.281789 114.233133 
L 183.470119 103.98629 
L 183.532895 113.7022 
L 183.595671 107.22494 
L 183.658448 110.994523 
L 183.721224 109.932658 
L 183.784001 108.844265 
L 183.909554 110.994523 
L 183.97233 110.994523 
L 184.035107 97.535558 
L 184.097883 107.22494 
L 184.223436 102.367005 
L 184.411765 109.932658 
L 184.474542 109.375198 
L 184.537318 100.74768 
L 184.600095 106.694008 
L 184.725647 113.7022 
L 184.8512 105.074683 
L 184.976753 109.932658 
L 185.03953 110.994523 
L 185.102306 109.375198 
L 185.227859 101.30514 
L 185.290635 105.605615 
L 185.353412 95.916273 
L 185.416188 96.978097 
L 185.541741 100.74768 
L 185.604518 92.14669 
L 185.667294 97.535558 
L 185.855623 109.932658 
L 186.106729 89.969904 
L 186.232282 101.836073 
L 186.295058 96.978097 
L 186.357835 98.06649 
L 186.420611 95.916273 
L 186.483388 96.447165 
L 186.546164 100.216747 
L 186.608941 93.208555 
L 186.79727 107.755872 
L 186.922823 92.14669 
L 186.985599 94.296948 
L 187.048376 104.543791 
L 187.111152 100.216747 
L 187.173929 92.677623 
L 187.236705 98.06649 
L 187.362258 89.969904 
L 187.613364 104.543791 
L 187.67614 106.694008 
L 187.738917 103.98629 
L 187.801693 92.14669 
L 187.864469 97.535558 
L 187.927246 99.154883 
L 187.990022 98.597422 
L 188.052799 98.597422 
L 188.241128 94.296948 
L 188.366681 89.438972 
L 188.55501 109.375198 
L 188.74334 92.677623 
L 188.868892 107.22494 
L 188.931669 107.22494 
L 189.057222 93.739487 
L 189.119998 103.455398 
L 189.182775 99.154883 
L 189.308328 91.058297 
L 189.371104 83.519172 
L 189.43388 85.66943 
L 189.684986 106.694008 
L 189.873316 88.90804 
L 190.249974 109.932658 
L 190.312751 106.136547 
L 190.563856 93.208555 
L 190.689409 96.978097 
L 190.752186 95.916273 
L 190.877739 94.296948 
L 191.003291 95.358772 
L 191.066068 113.14474 
L 191.128844 110.463591 
L 191.317174 99.154883 
L 191.37995 100.74768 
L 191.505503 109.932658 
L 191.568279 109.932658 
L 191.631056 115.852458 
L 191.756609 92.14669 
L 191.819385 92.677623 
L 191.882162 91.58923 
L 191.944938 92.677623 
L 192.007715 91.58923 
L 192.196044 103.98629 
L 192.25882 96.978097 
L 192.321597 99.154883 
L 192.384373 101.836073 
L 192.44715 98.06649 
L 192.572703 110.463591 
L 192.635479 103.455398 
L 192.761032 122.329718 
L 192.949361 102.367005 
L 193.074914 116.38339 
L 193.13769 114.233133 
L 193.32602 106.694008 
L 193.451573 98.06649 
L 193.514349 101.836073 
L 193.577126 101.30514 
L 193.639902 101.836073 
L 193.702678 106.136547 
L 193.765455 105.074683 
L 194.079337 96.447165 
L 194.267666 110.463591 
L 194.330443 112.613808 
L 194.393219 109.932658 
L 194.518772 117.471783 
L 194.644325 100.74768 
L 194.707101 107.22494 
L 194.769878 105.605615 
L 194.832654 107.755872 
L 194.895431 103.455398 
L 194.958207 107.755872 
L 195.020984 106.694008 
L 195.146537 99.685815 
L 195.209313 107.755872 
L 195.272089 106.694008 
L 195.460419 96.447165 
L 195.585972 106.694008 
L 195.648748 102.924466 
L 195.774301 109.932658 
L 195.837077 107.22494 
L 195.96263 89.969904 
L 196.025407 99.154883 
L 196.088183 95.358772 
L 196.213736 97.535558 
L 196.339289 90.527365 
L 196.715948 105.605615 
L 196.778724 106.694008 
L 196.904277 92.14669 
L 197.155383 104.543791 
L 197.218159 101.836073 
L 197.280936 102.367005 
L 197.343712 104.543791 
L 197.406488 102.924466 
L 197.720371 85.66943 
L 197.845924 94.82788 
L 197.9087 95.916273 
L 198.034253 87.819647 
L 198.159806 93.739487 
L 198.222582 92.14669 
L 198.410912 96.447165 
L 198.473688 91.58923 
L 198.536464 93.739487 
L 198.599241 90.527365 
L 198.662017 92.14669 
L 198.724794 90.527365 
L 198.850347 84.050105 
L 198.913123 83.519172 
L 198.975899 86.200362 
L 199.038676 82.961712 
L 199.164229 96.447165 
L 199.415335 79.192129 
L 199.478111 81.899847 
L 199.66644 94.296948 
L 199.729217 92.14669 
L 199.85477 106.136547 
L 199.917546 105.074683 
L 199.980323 105.605615 
L 200.105875 96.978097 
L 200.168652 98.06649 
L 200.356981 93.739487 
L 200.545311 79.192129 
L 200.670863 93.208555 
L 200.73364 88.90804 
L 200.796416 92.14669 
L 200.859193 95.358772 
L 200.921969 89.969904 
L 200.984746 91.058297 
L 201.047522 94.296948 
L 201.173075 88.350579 
L 201.235851 93.208555 
L 201.361404 86.731254 
L 201.424181 87.819647 
L 201.738063 107.22494 
L 201.800839 106.136547 
L 201.989169 95.358772 
L 202.114722 108.313333 
L 202.240274 100.216747 
L 202.303051 101.836073 
L 202.428604 91.58923 
L 202.616933 100.74768 
L 202.679709 93.739487 
L 202.742486 99.154883 
L 202.868039 86.200362 
L 202.993592 93.739487 
L 203.056368 89.438972 
L 203.119145 99.685815 
L 203.244697 78.130305 
L 203.55858 102.367005 
L 203.621356 100.74768 
L 203.809685 103.98629 
L 203.872462 105.074683 
L 203.935238 101.836073 
L 203.998015 102.924466 
L 204.060791 103.98629 
L 204.123568 107.22494 
L 204.249121 99.685815 
L 204.43745 107.755872 
L 204.751332 87.288755 
L 204.814108 98.06649 
L 204.876885 94.82788 
L 204.939661 95.916273 
L 205.002438 92.677623 
L 205.253544 105.074683 
L 205.441873 99.154883 
L 205.504649 100.216747 
L 205.692979 92.677623 
L 205.818532 102.924466 
L 205.944084 97.535558 
L 206.006861 98.06649 
L 206.069637 98.597422 
L 206.19519 104.543791 
L 206.257967 103.455398 
L 206.571849 93.208555 
L 206.634625 99.154883 
L 206.697402 98.597422 
L 206.822955 89.438972 
L 207.011284 101.30514 
L 207.07406 102.924466 
L 207.136837 108.313333 
L 207.325166 101.836073 
L 207.387943 99.685815 
L 207.450719 93.208555 
L 207.513495 95.916273 
L 207.701825 109.932658 
L 207.764601 107.22494 
L 207.827378 102.367005 
L 207.890154 108.313333 
L 207.952931 104.543791 
L 208.015707 102.924466 
L 208.078483 96.978097 
L 208.266813 103.98629 
L 208.455142 87.819647 
L 208.580695 93.739487 
L 208.706248 106.136547 
L 208.769024 105.074683 
L 208.831801 109.932658 
L 208.894577 108.313333 
L 208.957354 105.605615 
L 209.02013 108.313333 
L 209.145683 118.002715 
L 209.522342 101.30514 
L 209.585118 103.455398 
L 209.647894 101.30514 
L 209.773447 87.819647 
L 209.836224 88.90804 
L 209.961777 97.535558 
L 210.024553 93.208555 
L 210.08733 93.739487 
L 210.150106 96.978097 
L 210.212882 93.208555 
L 210.401212 103.455398 
L 210.463988 99.154883 
L 210.526765 101.30514 
L 210.652317 103.98629 
L 210.77787 88.90804 
L 210.903423 99.154883 
L 210.9662 98.06649 
L 211.028976 95.916273 
L 211.091753 102.367005 
L 211.154529 96.447165 
L 211.217305 96.978097 
L 211.342858 98.597422 
L 211.405635 95.916273 
L 211.468411 96.978097 
L 211.531188 96.978097 
L 211.593964 88.90804 
L 211.656741 94.296948 
L 211.782293 91.058297 
L 211.970623 99.685815 
L 212.033399 97.535558 
L 212.096176 88.350579 
L 212.158952 93.739487 
L 212.284505 92.14669 
L 212.347281 95.916273 
L 212.410058 91.58923 
L 212.598387 110.994523 
L 212.786716 94.296948 
L 212.912269 95.916273 
L 213.100599 97.535558 
L 213.163375 98.06649 
L 213.288928 85.66943 
L 213.351704 88.90804 
L 213.414481 97.535558 
L 213.477257 94.296948 
L 213.540034 88.90804 
L 213.665587 96.978097 
L 213.728363 93.739487 
L 214.042245 118.002715 
L 214.167798 110.463591 
L 214.230575 113.7022 
L 214.418904 98.597422 
L 214.544457 106.694008 
L 214.607233 102.367005 
L 214.732786 107.755872 
L 214.921115 97.535558 
L 214.983892 99.154883 
L 215.046668 103.455398 
L 215.109445 102.367005 
L 215.172221 88.350579 
L 215.234998 93.739487 
L 215.297774 102.367005 
L 215.360551 99.685815 
L 215.486103 88.90804 
L 215.737209 103.455398 
L 215.799986 98.597422 
L 215.925539 105.605615 
L 216.051091 99.154883 
L 216.113868 101.836073 
L 216.176644 109.932658 
L 216.239421 107.22494 
L 216.364974 103.455398 
L 216.42775 96.447165 
L 216.490527 99.685815 
L 216.553303 104.543791 
L 216.678856 98.597422 
L 216.741632 99.154883 
L 216.804409 95.358772 
L 216.867185 101.836073 
L 216.929962 100.216747 
L 216.992738 98.597422 
L 217.055514 106.694008 
L 217.118291 103.455398 
L 217.181067 96.447165 
L 217.243844 98.06649 
L 217.30662 99.685815 
L 217.369397 95.916273 
L 217.432173 98.06649 
L 217.49495 99.154883 
L 217.683279 104.543791 
L 217.746055 103.98629 
L 217.808832 104.543791 
L 217.871608 103.455398 
L 217.934385 114.233133 
L 217.997161 107.755872 
L 218.059938 112.082916 
L 218.122714 111.551983 
L 218.18549 104.543791 
L 218.248267 107.22494 
L 218.311043 106.136547 
L 218.499373 100.74768 
L 218.624925 103.98629 
L 218.687702 106.694008 
L 218.750478 99.154883 
L 218.938808 108.844265 
L 219.064361 105.605615 
L 219.127137 107.755872 
L 219.378243 98.597422 
L 219.441019 105.074683 
L 219.503796 94.296948 
L 219.566572 100.74768 
L 219.754901 106.694008 
L 219.880454 100.216747 
L 220.006007 107.22494 
L 220.068784 107.22494 
L 220.13156 102.367005 
L 220.194337 103.98629 
L 220.257113 103.98629 
L 220.445442 95.358772 
L 220.633772 104.543791 
L 220.759324 95.916273 
L 220.822101 102.924466 
L 220.884877 101.30514 
L 221.01043 84.581037 
L 221.135983 103.455398 
L 221.19876 100.74768 
L 221.261536 106.136547 
L 221.324312 103.455398 
L 221.387089 106.136547 
L 221.449865 105.074683 
L 221.575418 93.208555 
L 221.700971 111.551983 
L 221.8893 95.916273 
L 221.952077 98.06649 
L 222.014853 104.543791 
L 222.07763 103.98629 
L 222.140406 105.605615 
L 222.265959 90.527365 
L 222.328736 98.06649 
L 222.391512 93.208555 
L 222.517065 98.597422 
L 222.642618 91.058297 
L 222.830947 100.74768 
L 222.893723 102.367005 
L 223.019276 94.296948 
L 223.082053 94.82788 
L 223.144829 95.916273 
L 223.207606 99.154883 
L 223.270382 97.535558 
L 223.333159 93.208555 
L 223.395935 100.216747 
L 223.647041 85.138498 
L 223.898147 105.074683 
L 224.023699 99.154883 
L 224.086476 104.543791 
L 224.149252 98.06649 
L 224.212029 100.216747 
L 224.337582 97.535558 
L 224.525911 100.74768 
L 224.588687 99.685815 
L 224.90257 84.050105 
L 225.090899 88.350579 
L 225.153675 84.581037 
L 225.279228 95.358772 
L 225.342005 94.82788 
L 225.404781 95.916273 
L 225.530334 106.136547 
L 225.59311 105.605615 
L 225.844216 92.677623 
L 225.906993 89.969904 
L 225.969769 99.685815 
L 226.032546 96.978097 
L 226.095322 93.739487 
L 226.158098 96.447165 
L 226.283651 90.527365 
L 226.346428 102.924466 
L 226.409204 99.685815 
L 226.597533 91.58923 
L 226.66031 98.06649 
L 226.723086 94.82788 
L 226.911416 89.438972 
L 226.974192 89.969904 
L 227.036969 90.527365 
L 227.225298 100.216747 
L 227.288074 100.74768 
L 227.350851 103.455398 
L 227.601957 94.296948 
L 227.664733 96.447165 
L 227.790286 110.994523 
L 228.041392 95.358772 
L 228.229721 109.932658 
L 228.41805 98.597422 
L 228.480827 95.916273 
L 228.60638 99.154883 
L 228.669156 96.447165 
L 228.794709 106.136547 
L 228.983038 98.06649 
L 229.108591 103.98629 
L 229.422473 91.058297 
L 229.736356 109.375198 
L 229.799132 111.551983 
L 229.861908 110.994523 
L 229.924685 99.685815 
L 229.987461 101.30514 
L 230.050238 98.597422 
L 230.238567 104.543791 
L 230.36412 90.527365 
L 230.552449 110.463591 
L 230.678002 98.06649 
L 230.740779 107.755872 
L 230.803555 106.136547 
L 230.991884 97.535558 
L 231.24299 107.22494 
L 231.305767 100.216747 
L 231.368543 102.367005 
L 231.431319 99.154883 
L 231.494096 103.455398 
L 231.556872 95.358772 
L 231.619649 98.597422 
L 231.682425 107.22494 
L 231.745202 102.924466 
L 231.996307 109.932658 
L 232.059084 108.313333 
L 232.247413 102.367005 
L 232.372966 108.844265 
L 232.435742 108.313333 
L 232.498519 103.98629 
L 232.749625 115.852458 
L 232.937954 106.136547 
L 233.063507 118.002715 
L 233.18906 110.463591 
L 233.251836 115.321526 
L 233.314613 113.7022 
L 233.377389 113.7022 
L 233.440166 110.463591 
L 233.502942 116.940851 
L 233.565718 115.321526 
L 233.628495 110.463591 
L 233.691271 112.082916 
L 233.754048 110.463591 
L 233.942377 99.685815 
L 234.130706 110.994523 
L 234.256259 100.216747 
L 234.381812 108.313333 
L 234.444589 103.455398 
L 234.507365 105.605615 
L 234.570141 108.844265 
L 234.632918 106.136547 
L 234.695694 110.463591 
L 234.884024 96.978097 
L 234.9468 105.074683 
L 235.009577 103.98629 
L 235.260682 96.447165 
L 235.511788 105.605615 
L 235.637341 108.844265 
L 235.762894 102.367005 
L 235.888447 116.38339 
L 235.951223 107.755872 
L 236.014 109.375198 
L 236.202329 103.455398 
L 236.265105 107.755872 
L 236.327882 106.136547 
L 236.516211 89.969904 
L 236.767317 105.605615 
L 236.89287 103.98629 
L 236.955646 104.543791 
L 237.018423 104.543791 
L 237.081199 106.694008 
L 237.143976 105.074683 
L 237.206752 103.455398 
L 237.332305 108.844265 
L 237.395081 107.22494 
L 237.520634 98.597422 
L 237.646187 107.755872 
L 237.77174 100.216747 
L 237.834516 107.22494 
L 237.897293 105.605615 
L 238.148399 94.296948 
L 238.211175 97.535558 
L 238.273952 91.58923 
L 238.336728 92.14669 
L 238.399504 91.058297 
L 238.462281 91.58923 
L 238.587834 106.136547 
L 238.713387 101.836073 
L 238.838939 106.694008 
L 238.901716 105.074683 
L 239.090045 112.082916 
L 239.215598 100.216747 
L 239.278375 101.30514 
L 239.341151 100.216747 
L 239.403927 101.836073 
L 239.592257 93.739487 
L 239.780586 106.694008 
L 239.968915 98.597422 
L 240.031692 106.694008 
L 240.094468 103.98629 
L 240.282798 93.739487 
L 240.345574 94.296948 
L 240.471127 103.455398 
L 240.59668 93.208555 
L 240.659456 97.535558 
L 240.910562 119.091108 
L 241.036115 109.932658 
L 241.098891 112.613808 
L 241.161668 113.14474 
L 241.47555 93.208555 
L 241.601103 108.313333 
L 241.663879 103.98629 
L 241.726656 105.074683 
L 241.789432 106.136547 
L 241.977762 99.154883 
L 242.040538 103.98629 
L 242.103314 103.455398 
L 242.35442 88.90804 
L 242.542749 100.216747 
L 242.793855 86.731254 
L 242.919408 100.216747 
L 242.982185 99.685815 
L 243.044961 102.924466 
L 243.107737 98.597422 
L 243.296067 110.994523 
L 243.42162 105.074683 
L 243.484396 108.313333 
L 243.672725 95.916273 
L 243.735502 100.216747 
L 243.798278 98.06649 
L 243.923831 93.739487 
L 244.112161 98.597422 
L 244.174937 100.216747 
L 244.363266 88.350579 
L 244.426043 92.677623 
L 244.488819 87.288755 
L 244.551596 96.447165 
L 244.614372 94.82788 
L 244.677148 95.358772 
L 244.928254 106.136547 
L 244.991031 105.605615 
L 245.053807 106.694008 
L 245.17936 118.002715 
L 245.367689 105.605615 
L 245.430466 105.605615 
L 245.556019 112.613808 
L 245.618795 108.844265 
L 245.807124 97.535558 
L 245.869901 95.916273 
L 245.932677 102.367005 
L 246.05823 90.527365 
L 246.121007 91.058297 
L 246.309336 102.367005 
L 246.372112 100.216747 
L 246.434889 99.685815 
L 246.497665 105.074683 
L 246.560442 101.836073 
L 246.685995 100.216747 
L 246.874324 106.694008 
L 246.9371 105.074683 
L 246.999877 98.597422 
L 247.12543 109.375198 
L 247.250983 96.978097 
L 247.313759 98.06649 
L 247.376535 102.367005 
L 247.439312 99.154883 
L 247.564865 89.969904 
L 247.690418 108.844265 
L 247.878747 92.14669 
L 248.0043 100.216747 
L 248.129853 96.978097 
L 248.192629 98.06649 
L 248.255406 94.82788 
L 248.443735 106.136547 
L 248.506511 105.605615 
L 248.632064 95.916273 
L 248.694841 99.685815 
L 248.757617 106.694008 
L 248.820394 102.367005 
L 248.88317 101.30514 
L 249.008723 110.463591 
L 249.071499 114.233133 
L 249.134276 108.844265 
L 249.259829 115.321526 
L 249.322605 114.764065 
L 249.385382 116.38339 
L 249.510934 112.613808 
L 249.573711 114.233133 
L 249.76204 106.694008 
L 249.824817 107.22494 
L 249.887593 110.994523 
L 249.95037 108.844265 
L 250.075922 99.685815 
L 250.201475 109.375198 
L 250.327028 95.916273 
L 250.515357 102.924466 
L 250.703687 89.969904 
L 250.954793 109.932658 
L 251.080345 103.98629 
L 251.205898 105.605615 
L 251.331451 112.082916 
L 251.582557 95.358772 
L 251.70811 104.543791 
L 251.770886 102.367005 
L 251.833663 99.154883 
L 251.896439 102.924466 
L 251.959216 98.06649 
L 252.021992 99.685815 
L 252.210321 109.375198 
L 252.398651 97.535558 
L 252.461427 91.58923 
L 252.58698 97.535558 
L 252.712533 88.90804 
L 252.775309 92.677623 
L 252.963639 109.375198 
L 253.089192 112.082916 
L 253.277521 100.216747 
L 253.340297 101.30514 
L 253.46585 109.932658 
L 253.528627 103.98629 
L 253.591403 105.074683 
L 253.716956 111.551983 
L 253.779732 108.844265 
L 253.842509 109.375198 
L 253.905285 100.216747 
L 253.968062 102.367005 
L 254.030838 103.455398 
L 254.34472 91.58923 
L 254.407497 92.14669 
L 254.53305 108.313333 
L 254.658603 91.58923 
L 254.972485 97.535558 
L 255.098038 107.22494 
L 255.223591 98.06649 
L 255.286367 99.154883 
L 255.474696 108.844265 
L 255.663026 87.819647 
L 255.725802 93.739487 
L 255.788579 104.543791 
L 255.851355 95.916273 
L 255.914131 98.06649 
L 255.976908 98.06649 
L 256.039684 100.216747 
L 256.353566 87.288755 
L 256.479119 96.447165 
L 256.541896 91.058297 
L 256.604672 94.296948 
L 256.730225 99.154883 
L 256.918554 91.058297 
L 257.106884 103.98629 
L 257.232437 85.66943 
L 257.295213 89.438972 
L 257.420766 96.447165 
L 257.671872 88.90804 
L 257.797425 100.216747 
L 257.860201 93.739487 
L 257.985754 105.605615 
L 258.174083 98.06649 
L 258.299636 106.694008 
L 258.362413 96.447165 
L 258.425189 96.978097 
L 258.676295 102.367005 
L 258.739071 101.836073 
L 258.864624 109.375198 
L 259.11573 95.358772 
L 259.178506 98.597422 
L 259.241283 92.677623 
L 259.304059 93.739487 
L 259.429612 107.22494 
L 259.680718 88.350579 
L 259.806271 101.30514 
L 259.9946 84.050105 
L 260.245706 98.597422 
L 260.308482 102.924466 
L 260.371259 101.836073 
L 260.559588 96.447165 
L 260.622364 102.367005 
L 260.685141 99.154883 
L 260.747917 100.216747 
L 260.87347 93.739487 
L 260.936247 95.358772 
L 260.999023 92.677623 
L 261.0618 93.208555 
L 261.124576 98.06649 
L 261.187352 94.82788 
L 261.250129 88.350579 
L 261.312905 90.527365 
L 261.375682 89.438972 
L 261.501235 96.978097 
L 261.626788 87.288755 
L 261.75234 100.74768 
L 261.815117 93.739487 
L 261.877893 96.447165 
L 261.94067 99.154883 
L 262.003446 93.208555 
L 262.066223 96.978097 
L 262.191775 107.755872 
L 262.317328 105.605615 
L 262.442881 95.916273 
L 262.631211 109.932658 
L 262.81954 97.535558 
L 262.882316 102.924466 
L 262.945093 98.597422 
L 263.070646 110.994523 
L 263.196199 106.136547 
L 263.258975 108.313333 
L 263.321751 104.543791 
L 263.384528 112.082916 
L 263.447304 109.375198 
L 263.510081 109.932658 
L 263.761187 98.06649 
L 263.823963 96.978097 
L 263.949516 108.844265 
L 264.012292 104.543791 
L 264.075069 101.30514 
L 264.137845 91.58923 
L 264.200622 96.447165 
L 264.326174 104.543791 
L 264.388951 98.06649 
L 264.514504 110.994523 
L 264.57728 105.605615 
L 264.640057 109.932658 
L 264.702833 107.755872 
L 264.76561 105.074683 
L 264.828386 106.694008 
L 265.016715 112.082916 
L 265.205045 103.455398 
L 265.393374 96.447165 
L 265.518927 98.597422 
L 265.581703 95.916273 
L 265.707256 106.136547 
L 265.770033 102.367005 
L 265.895586 96.447165 
L 265.958362 95.916273 
L 266.021138 96.978097 
L 266.083915 103.98629 
L 266.146691 101.30514 
L 266.272244 102.924466 
L 266.335021 98.06649 
L 266.52335 107.755872 
L 266.586126 112.082916 
L 266.711679 98.597422 
L 266.837232 110.463591 
L 266.962785 96.447165 
L 267.088338 106.694008 
L 267.151114 100.74768 
L 267.213891 101.30514 
L 267.339444 88.90804 
L 267.40222 92.14669 
L 267.464997 93.208555 
L 267.653326 107.755872 
L 267.967208 103.98629 
L 268.092761 114.764065 
L 268.155537 112.613808 
L 268.28109 94.296948 
L 268.343867 95.358772 
L 268.406643 102.924466 
L 268.46942 98.597422 
L 268.532196 91.58923 
L 268.594972 93.208555 
L 268.657749 95.358772 
L 268.720525 91.58923 
L 268.783302 93.208555 
L 268.846078 91.058297 
L 269.034408 96.978097 
L 269.097184 89.438972 
L 269.15996 90.527365 
L 269.34829 110.994523 
L 269.411066 103.455398 
L 269.473843 105.074683 
L 269.536619 110.463591 
L 269.599396 107.755872 
L 269.662172 105.074683 
L 269.787725 88.350579 
L 269.913278 97.535558 
L 269.976054 91.58923 
L 270.164383 103.455398 
L 270.415489 85.138498 
L 270.478266 86.731254 
L 270.541042 93.208555 
L 270.603819 91.58923 
L 270.792148 98.597422 
L 270.980477 92.677623 
L 271.043254 97.535558 
L 271.10603 94.82788 
L 271.231583 97.535558 
L 271.294359 94.82788 
L 271.419912 110.994523 
L 271.482689 107.22494 
L 271.545465 99.685815 
L 271.733795 112.082916 
L 271.922124 97.535558 
L 271.9849 94.296948 
L 272.110453 103.98629 
L 272.17323 99.154883 
L 272.236006 95.358772 
L 272.424335 102.367005 
L 272.549888 95.916273 
L 272.612665 99.685815 
L 272.675441 105.074683 
L 272.738218 101.836073 
L 272.800994 101.30514 
L 272.926547 96.978097 
L 273.0521 105.074683 
L 273.114876 97.535558 
L 273.177653 98.06649 
L 273.428758 102.924466 
L 273.491535 102.924466 
L 273.617088 112.082916 
L 273.993746 96.978097 
L 274.119299 101.836073 
L 274.244852 98.06649 
L 274.307629 102.924466 
L 274.370405 94.82788 
L 274.433181 97.535558 
L 274.495958 98.597422 
L 274.621511 95.358772 
L 274.747064 109.375198 
L 274.998169 101.30514 
L 275.060946 103.98629 
L 275.249275 94.296948 
L 275.374828 103.455398 
L 275.437605 103.455398 
L 275.563157 107.22494 
L 275.625934 103.98629 
L 275.68871 109.932658 
L 275.814263 100.216747 
L 275.939816 102.924466 
L 276.002593 106.136547 
L 276.065369 104.543791 
L 276.316475 89.969904 
L 276.442028 95.358772 
L 276.56758 79.74963 
L 276.693133 86.731254 
L 276.75591 83.519172 
L 276.944239 99.685815 
L 277.007016 95.358772 
L 277.069792 96.447165 
L 277.132568 95.916273 
L 277.195345 98.597422 
L 277.258121 93.208555 
L 277.320898 95.916273 
L 277.63478 111.551983 
L 277.760333 105.605615 
L 277.823109 113.14474 
L 277.885886 111.551983 
L 277.948662 112.613808 
L 278.011439 99.154883 
L 278.074215 100.216747 
L 278.136991 102.367005 
L 278.199768 93.739487 
L 278.262544 94.296948 
L 278.388097 97.535558 
L 278.450874 96.447165 
L 278.51365 91.058297 
L 278.576427 94.296948 
L 278.639203 94.296948 
L 278.701979 93.739487 
L 278.827532 100.216747 
L 278.953085 90.527365 
L 279.078638 97.535558 
L 279.141415 95.916273 
L 279.204191 96.978097 
L 279.266967 100.216747 
L 279.329744 99.685815 
L 279.455297 101.836073 
L 279.58085 109.375198 
L 279.706403 97.535558 
L 279.769179 98.597422 
L 279.831955 101.30514 
L 279.957508 98.06649 
L 280.020285 102.367005 
L 280.208614 90.527365 
L 280.334167 99.685815 
L 280.396943 97.535558 
L 280.45972 95.358772 
L 280.522496 95.916273 
L 280.648049 105.605615 
L 280.773602 89.969904 
L 280.836378 92.14669 
L 280.961931 105.074683 
L 281.024708 104.543791 
L 281.087484 106.136547 
L 281.213037 97.535558 
L 281.33859 108.844265 
L 281.464143 99.154883 
L 281.652472 114.233133 
L 281.715249 115.321526 
L 281.840802 106.694008 
L 281.903578 106.136547 
L 281.966354 104.543791 
L 282.029131 107.755872 
L 282.091907 103.455398 
L 282.154684 111.551983 
L 282.21746 108.844265 
L 282.405789 93.208555 
L 282.468566 94.82788 
L 282.531342 108.844265 
L 282.594119 106.136547 
L 282.656895 106.136547 
L 282.970777 94.82788 
L 283.033554 97.535558 
L 283.09633 96.447165 
L 283.159107 92.677623 
L 283.221883 94.296948 
L 283.28466 94.82788 
L 283.347436 107.22494 
L 283.410213 101.836073 
L 283.598542 107.22494 
L 283.661318 103.455398 
L 283.849648 117.471783 
L 284.037977 93.739487 
L 284.100753 102.924466 
L 284.16353 99.685815 
L 284.226306 95.916273 
L 284.289083 96.447165 
L 284.477412 103.455398 
L 284.665741 111.551983 
L 284.979624 93.208555 
L 285.0424 100.74768 
L 285.105176 98.06649 
L 285.293506 88.350579 
L 285.356282 103.455398 
L 285.419059 102.367005 
L 285.481835 101.836073 
L 285.607388 96.978097 
L 285.858494 113.14474 
L 285.984047 103.455398 
L 286.235152 115.852458 
L 286.360705 101.30514 
L 286.549035 109.375198 
L 286.674587 100.74768 
L 286.862917 103.455398 
L 286.925693 101.836073 
L 286.98847 106.136547 
L 287.114023 96.447165 
L 287.176799 101.836073 
L 287.239575 100.74768 
L 287.302352 96.447165 
L 287.490681 103.455398 
L 287.553458 96.978097 
L 287.741787 107.22494 
L 287.86734 100.74768 
L 287.930116 101.836073 
L 287.992893 101.30514 
L 288.055669 99.154883 
L 288.181222 103.98629 
L 288.306775 96.978097 
L 288.432328 100.216747 
L 288.683434 94.82788 
L 288.74621 97.535558 
L 288.808986 95.358772 
L 288.871763 98.06649 
L 288.934539 93.739487 
L 288.997316 96.447165 
L 289.122869 103.98629 
L 289.185645 103.98629 
L 289.311198 106.694008 
L 289.373974 106.136547 
L 289.436751 107.755872 
L 289.562304 95.358772 
L 289.750633 113.7022 
L 289.81341 108.844265 
L 289.876186 111.551983 
L 289.938962 102.924466 
L 290.001739 104.543791 
L 290.064515 110.463591 
L 290.127292 107.22494 
L 290.190068 99.685815 
L 290.252845 101.836073 
L 290.315621 102.924466 
L 290.441174 114.764065 
L 290.629503 100.216747 
L 290.69228 103.455398 
L 290.755056 108.313333 
L 290.880609 102.367005 
L 290.943385 101.836073 
L 291.131715 113.7022 
L 291.257268 107.755872 
L 291.382821 113.14474 
L 291.445597 116.38339 
L 291.57115 101.30514 
L 291.633926 107.22494 
L 291.759479 102.367005 
L 291.822256 103.98629 
L 291.885032 107.755872 
L 292.010585 100.74768 
L 292.136138 106.136547 
L 292.324467 92.677623 
L 292.45002 101.30514 
L 292.512796 98.06649 
L 292.575573 99.685815 
L 292.763902 106.694008 
L 293.140561 94.82788 
L 293.203337 103.98629 
L 293.266114 98.06649 
L 293.454443 100.74768 
L 293.51722 100.74768 
L 293.579996 102.367005 
L 293.642772 109.375198 
L 293.705549 106.136547 
L 293.831102 93.208555 
L 293.893878 93.208555 
L 294.019431 92.14669 
L 294.20776 108.313333 
L 294.39609 99.685815 
L 294.458866 103.98629 
L 294.584419 92.14669 
L 294.647195 94.82788 
L 294.709972 93.739487 
L 294.772748 94.82788 
L 294.835525 98.597422 
L 294.898301 95.916273 
L 295.086631 88.90804 
L 295.149407 98.597422 
L 295.212183 92.677623 
L 295.27496 94.82788 
L 295.400513 86.731254 
L 295.463289 90.527365 
L 295.777171 107.755872 
L 295.839948 104.543791 
L 295.965501 101.30514 
L 296.028277 94.82788 
L 296.216606 105.605615 
L 296.279383 103.455398 
L 296.342159 89.969904 
L 296.404936 94.82788 
L 296.530489 109.932658 
L 296.781594 87.819647 
L 296.844371 87.819647 
L 296.969924 110.463591 
L 297.095477 92.677623 
L 297.22103 105.605615 
L 297.346582 96.447165 
L 297.409359 86.731254 
L 297.534912 99.685815 
L 297.660465 92.14669 
L 297.723241 99.154883 
L 297.786018 95.358772 
L 297.848794 88.350579 
L 297.91157 92.14669 
L 298.037123 106.136547 
L 298.0999 95.916273 
L 298.162676 99.685815 
L 298.288229 111.551983 
L 298.351005 106.136547 
L 298.476558 101.30514 
L 298.539335 102.367005 
L 298.602111 108.313333 
L 298.664888 107.755872 
L 298.727664 108.313333 
L 298.853217 97.535558 
L 299.041546 107.22494 
L 299.104323 104.543791 
L 299.229876 95.358772 
L 299.418205 110.463591 
L 299.480981 109.375198 
L 299.732087 94.296948 
L 299.85764 103.455398 
L 299.983193 122.860651 
L 300.045969 120.710434 
L 300.108746 119.091108 
L 300.171522 112.613808 
L 300.234299 119.091108 
L 300.297075 118.002715 
L 300.422628 108.313333 
L 300.485404 110.994523 
L 300.673734 108.313333 
L 300.799287 109.375198 
L 300.92484 118.560176 
L 301.050392 108.844265 
L 301.113169 110.994523 
L 301.238722 114.233133 
L 301.489828 108.313333 
L 301.552604 109.932658 
L 301.740933 97.535558 
L 301.866486 105.605615 
L 301.929263 102.367005 
L 301.992039 103.98629 
L 302.054815 103.98629 
L 302.305921 109.375198 
L 302.494251 101.30514 
L 302.557027 102.924466 
L 302.68258 110.463591 
L 302.870909 94.82788 
L 302.996462 91.58923 
L 303.059239 84.581037 
L 303.247568 100.216747 
L 303.373121 86.731254 
L 303.435897 88.350579 
L 303.687003 108.313333 
L 303.749779 101.836073 
L 303.812556 102.367005 
L 303.875332 103.98629 
L 303.938109 99.154883 
L 304.000885 103.455398 
L 304.063662 101.836073 
L 304.126438 94.296948 
L 304.377544 108.844265 
L 304.503097 113.14474 
L 304.754202 101.836073 
L 304.816979 110.463591 
L 304.879755 106.694008 
L 305.005308 109.375198 
L 305.193638 99.685815 
L 305.256414 100.216747 
L 305.31919 103.98629 
L 305.50752 98.597422 
L 305.695849 106.136547 
L 305.758626 104.543791 
L 305.884178 108.313333 
L 306.009731 101.836073 
L 306.072508 88.350579 
L 306.135284 91.058297 
L 306.260837 108.313333 
L 306.323613 105.074683 
L 306.38639 107.755872 
L 306.449166 106.136547 
L 306.511943 107.22494 
L 306.574719 106.694008 
L 306.637496 102.367005 
L 306.825825 111.551983 
L 306.888601 108.844265 
L 307.014154 98.597422 
L 307.26526 118.560176 
L 307.390813 99.685815 
L 307.453589 100.74768 
L 307.516366 106.136547 
L 307.579142 91.058297 
L 307.641919 93.739487 
L 307.893024 105.074683 
L 308.018577 95.358772 
L 308.081354 95.916273 
L 308.269683 107.22494 
L 308.33246 107.755872 
L 308.646342 92.14669 
L 308.709118 93.739487 
L 308.771895 88.350579 
L 309.023 109.932658 
L 309.085777 121.241325 
L 309.148553 116.940851 
L 309.21133 110.463591 
L 309.274106 110.994523 
L 309.336883 115.852458 
L 309.399659 114.764065 
L 309.462436 116.38339 
L 309.525212 114.764065 
L 309.776318 97.535558 
L 309.839094 97.535558 
L 309.964647 105.074683 
L 310.0902 94.296948 
L 310.278529 106.694008 
L 310.341306 100.216747 
L 310.404082 106.694008 
L 310.466859 103.98629 
L 310.655188 89.969904 
L 310.906294 98.597422 
L 310.96907 89.438972 
L 311.031847 92.677623 
L 311.157399 105.605615 
L 311.220176 101.836073 
L 311.345729 96.447165 
L 311.408505 98.06649 
L 311.534058 85.138498 
L 311.722387 103.98629 
L 311.910717 91.058297 
L 312.161822 114.764065 
L 312.350152 92.677623 
L 312.412928 95.358772 
L 312.475705 95.916273 
L 312.601258 105.074683 
L 312.664034 95.916273 
L 312.72681 96.447165 
L 312.789587 101.30514 
L 312.852363 100.216747 
L 312.91514 102.367005 
L 312.977916 101.30514 
L 313.040693 99.154883 
L 313.166246 107.22494 
L 313.229022 116.940851 
L 313.291798 114.764065 
L 313.354575 114.233133 
L 313.417351 121.772258 
L 313.731234 98.597422 
L 313.79401 97.535558 
L 313.856786 100.74768 
L 314.045116 93.739487 
L 314.170669 90.527365 
L 314.421774 107.755872 
L 314.484551 109.932658 
L 314.735657 93.739487 
L 314.986762 105.605615 
L 315.049539 107.22494 
L 315.175092 102.367005 
L 315.237868 105.605615 
L 315.300645 104.543791 
L 315.363421 105.074683 
L 315.488974 109.932658 
L 315.74008 90.527365 
L 315.802856 91.58923 
L 315.865632 96.978097 
L 315.928409 96.447165 
L 315.991185 95.358772 
L 316.242291 110.463591 
L 316.367844 107.22494 
L 316.493397 92.14669 
L 316.556173 95.916273 
L 316.681726 103.98629 
L 316.744503 99.154883 
L 316.807279 102.367005 
L 316.870056 105.605615 
L 316.995608 96.447165 
L 317.121161 108.844265 
L 317.309491 104.543791 
L 317.372267 105.074683 
L 317.435044 107.22494 
L 317.49782 101.836073 
L 317.560596 102.367005 
L 317.748926 109.932658 
L 317.937255 99.154883 
L 318.000031 99.685815 
L 318.125584 109.375198 
L 318.188361 106.694008 
L 318.251137 105.074683 
L 318.313914 106.694008 
L 318.565019 97.535558 
L 318.690572 100.74768 
L 318.816125 112.082916 
L 319.067231 98.06649 
L 319.318337 112.082916 
L 319.381113 109.375198 
L 319.506666 98.06649 
L 319.632219 99.154883 
L 319.694995 99.154883 
L 319.820548 116.38339 
L 319.883325 114.233133 
L 320.071654 106.694008 
L 320.13443 106.136547 
L 320.197207 110.994523 
L 320.385536 94.296948 
L 320.511089 103.455398 
L 320.699418 97.535558 
L 320.887748 106.694008 
L 320.950524 108.844265 
L 321.076077 101.30514 
L 321.138854 105.605615 
L 321.20163 100.216747 
L 321.264406 103.98629 
L 321.703842 89.438972 
L 321.892171 105.605615 
L 321.954947 96.978097 
L 322.017724 99.154883 
L 322.0805 99.154883 
L 322.268829 93.739487 
L 322.331606 97.535558 
L 322.394382 94.296948 
L 322.519935 100.74768 
L 322.708265 93.739487 
L 323.022147 106.694008 
L 323.084923 107.22494 
L 323.1477 102.924466 
L 323.210476 105.605615 
L 323.273253 105.605615 
L 323.398805 100.216747 
L 323.587135 110.994523 
L 323.775464 94.296948 
L 323.963793 108.844265 
L 324.02657 102.924466 
L 324.089346 103.98629 
L 324.214899 107.22494 
L 324.466005 95.358772 
L 324.528781 104.543791 
L 324.591558 99.685815 
L 324.654334 100.74768 
L 324.779887 94.82788 
L 324.90544 109.932658 
L 324.968216 103.98629 
L 325.156546 95.358772 
L 325.282099 102.367005 
L 325.344875 99.154883 
L 325.407652 99.685815 
L 325.470428 99.154883 
L 325.533204 100.216747 
L 325.658757 106.694008 
L 325.721534 104.543791 
L 325.847087 109.932658 
L 325.909863 109.375198 
L 326.098192 106.136547 
L 326.160969 110.463591 
L 326.223745 109.932658 
L 326.286522 110.994523 
L 326.474851 96.978097 
L 326.537627 103.98629 
L 326.600404 102.924466 
L 326.66318 101.836073 
L 326.725957 102.367005 
L 326.788733 103.455398 
L 326.914286 114.233133 
L 327.165392 99.154883 
L 327.353721 91.58923 
L 327.479274 82.961712 
L 327.667603 107.755872 
L 327.73038 107.22494 
L 327.793156 101.30514 
L 327.855933 105.074683 
L 327.918709 104.543791 
L 328.044262 93.208555 
L 328.107038 97.535558 
L 328.169815 95.358772 
L 328.232591 96.978097 
L 328.358144 108.313333 
L 328.546474 89.438972 
L 328.672026 92.14669 
L 328.734803 87.288755 
L 328.860356 95.916273 
L 328.923132 94.82788 
L 328.985909 98.597422 
L 329.048685 97.535558 
L 329.111462 94.296948 
L 329.299791 100.216747 
L 329.362567 95.916273 
L 329.425344 97.535558 
L 329.48812 101.836073 
L 329.613673 89.438972 
L 329.67645 89.969904 
L 329.802002 94.296948 
L 329.864779 91.058297 
L 329.927555 103.455398 
L 329.990332 101.836073 
L 330.115885 91.058297 
L 330.178661 93.739487 
L 330.241437 94.296948 
L 330.36699 90.527365 
L 330.429767 92.677623 
L 330.492543 85.138498 
L 330.55532 87.288755 
L 330.806425 103.455398 
L 330.931978 102.924466 
L 330.994755 103.455398 
L 331.057531 109.932658 
L 331.120308 102.367005 
L 331.183084 107.22494 
L 331.245861 109.375198 
L 331.308637 107.755872 
L 331.371413 100.216747 
L 331.43419 104.543791 
L 331.496966 103.455398 
L 331.748072 91.058297 
L 331.810848 90.527365 
L 331.873625 92.677623 
L 332.061954 102.924466 
L 332.250284 88.90804 
L 332.375836 105.074683 
L 332.564166 92.14669 
L 332.689719 98.06649 
L 332.752495 105.074683 
L 332.815272 103.98629 
L 333.003601 89.438972 
L 333.066377 92.14669 
L 333.129154 92.14669 
L 333.254707 89.438972 
L 333.317483 93.208555 
L 333.38026 89.969904 
L 333.631365 106.136547 
L 333.882471 87.288755 
L 333.945247 84.581037 
L 334.133577 98.06649 
L 334.321906 84.050105 
L 334.384683 87.288755 
L 334.447459 96.978097 
L 334.510235 95.358772 
L 334.573012 95.358772 
L 334.698565 89.438972 
L 334.761341 90.527365 
L 334.886894 105.605615 
L 335.138 93.208555 
L 335.200776 95.916273 
L 335.263553 104.543791 
L 335.326329 102.367005 
L 335.389106 105.605615 
L 335.577435 86.200362 
L 335.640211 87.819647 
L 335.702988 91.058297 
L 335.765764 88.350579 
L 335.828541 98.597422 
L 335.891317 96.447165 
L 335.954094 88.90804 
L 336.079646 101.836073 
L 336.142423 100.74768 
L 336.205199 100.74768 
L 336.393529 90.527365 
L 336.456305 89.438972 
L 336.581858 96.447165 
L 336.644634 94.296948 
L 336.707411 93.739487 
L 336.770187 96.447165 
L 336.832964 93.739487 
L 337.021293 105.074683 
L 337.272399 82.430779 
L 337.397952 85.66943 
L 337.460728 84.050105 
L 337.711834 99.685815 
L 337.77461 102.367005 
L 337.900163 94.296948 
L 337.96294 102.924466 
L 338.025716 100.216747 
L 338.088493 97.535558 
L 338.214045 102.367005 
L 338.276822 100.74768 
L 338.339598 90.527365 
L 338.465151 99.685815 
L 338.653481 86.200362 
L 338.716257 92.14669 
L 338.779033 93.208555 
L 338.904586 85.138498 
L 338.967363 85.66943 
L 339.155692 93.208555 
L 339.218469 95.358772 
L 339.281245 91.58923 
L 339.344021 92.677623 
L 339.469574 91.58923 
L 339.532351 83.519172 
L 339.72068 95.358772 
L 339.909009 103.98629 
L 339.971786 102.924466 
L 340.160115 93.739487 
L 340.285668 110.994523 
L 340.348444 103.98629 
L 340.411221 107.755872 
L 340.59955 92.677623 
L 340.662327 100.216747 
L 340.725103 99.154883 
L 340.913432 82.961712 
L 341.038985 108.844265 
L 341.101762 107.755872 
L 341.227315 105.605615 
L 341.352868 106.136547 
L 341.415644 98.597422 
L 341.47842 101.836073 
L 341.541197 99.685815 
L 341.603973 106.136547 
L 341.729526 80.811454 
L 341.792303 86.731254 
L 341.980632 95.916273 
L 342.106185 91.58923 
L 342.231738 106.136547 
L 342.420067 91.58923 
L 342.482843 97.535558 
L 342.608396 104.543791 
L 342.733949 93.739487 
L 342.859502 96.447165 
L 342.922279 91.58923 
L 343.110608 107.22494 
L 343.236161 94.296948 
L 343.42449 102.367005 
L 343.612819 107.755872 
L 343.801149 94.82788 
L 343.926702 105.074683 
L 344.052254 114.233133 
L 344.115031 110.463591 
L 344.177807 96.978097 
L 344.240584 98.597422 
L 344.49169 94.82788 
L 344.554466 97.535558 
L 344.617242 94.296948 
L 344.805572 102.367005 
L 344.868348 102.367005 
L 344.993901 100.74768 
L 345.056678 102.924466 
L 345.119454 99.154883 
L 345.245007 107.22494 
L 345.433336 86.200362 
L 345.621665 97.535558 
L 345.684442 92.677623 
L 345.747218 99.154883 
L 345.809995 98.06649 
L 345.872771 94.296948 
L 346.123877 106.694008 
L 346.186653 98.597422 
L 346.312206 110.463591 
L 346.374983 107.22494 
L 346.437759 101.30514 
L 346.500536 103.98629 
L 346.626089 113.7022 
L 346.877194 92.677623 
L 346.939971 90.527365 
L 347.065524 96.447165 
L 347.1283 94.296948 
L 347.191077 96.978097 
L 347.253853 104.543791 
L 347.316629 102.924466 
L 347.442182 92.677623 
L 347.567735 99.685815 
L 347.630512 99.154883 
L 347.818841 94.296948 
L 347.881617 93.208555 
L 348.132723 107.755872 
L 348.1955 104.543791 
L 348.258276 105.074683 
L 348.321052 103.455398 
L 348.509382 87.288755 
L 348.572158 96.978097 
L 348.634935 95.916273 
L 348.760488 89.438972 
L 348.823264 90.527365 
L 349.011593 109.375198 
L 349.137146 103.455398 
L 349.199923 105.605615 
L 349.513805 92.677623 
L 349.576581 94.296948 
L 349.702134 106.136547 
L 349.890463 95.916273 
L 349.95324 96.447165 
L 350.078793 101.836073 
L 350.141569 99.685815 
L 350.204346 88.90804 
L 350.267122 92.14669 
L 350.455451 93.208555 
L 350.581004 105.074683 
L 350.643781 106.694008 
L 350.706557 99.685815 
L 350.769334 100.216747 
L 350.83211 99.685815 
L 350.894887 106.694008 
L 350.957663 104.543791 
L 351.083216 108.313333 
L 351.145992 106.694008 
L 351.271545 98.06649 
L 351.334322 98.06649 
L 351.522651 104.543791 
L 351.648204 98.06649 
L 351.71098 100.74768 
L 351.773757 98.597422 
L 351.836533 90.527365 
L 351.89931 94.82788 
L 351.962086 98.597422 
L 352.024862 98.06649 
L 352.213192 94.296948 
L 352.338745 101.30514 
L 352.464298 94.296948 
L 352.58985 104.543791 
L 352.715403 94.296948 
L 352.903733 101.836073 
L 353.092062 109.375198 
L 353.280391 95.358772 
L 353.468721 101.836073 
L 353.531497 100.216747 
L 353.65705 90.527365 
L 353.719826 93.739487 
L 353.845379 107.755872 
L 354.033709 97.535558 
L 354.159261 99.685815 
L 354.284814 96.447165 
L 354.410367 86.731254 
L 354.724249 103.455398 
L 354.787026 101.836073 
L 354.849802 103.455398 
L 354.912579 112.613808 
L 354.975355 108.313333 
L 355.163685 96.447165 
L 355.352014 101.30514 
L 355.477567 105.074683 
L 355.728672 82.430779 
L 355.979778 101.836073 
L 356.042555 97.535558 
L 356.105331 98.597422 
L 356.29366 100.74768 
L 356.356437 98.597422 
L 356.419213 100.216747 
L 356.48199 100.74768 
L 356.607543 110.994523 
L 356.858648 96.978097 
L 356.921425 92.677623 
L 356.984201 94.296948 
L 357.046978 95.916273 
L 357.172531 107.22494 
L 357.298084 96.447165 
L 357.36086 99.154883 
L 357.423636 104.543791 
L 357.674742 88.350579 
L 357.800295 103.455398 
L 357.863071 99.154883 
L 357.988624 80.280522 
L 358.051401 82.430779 
L 358.176954 104.543791 
L 358.302507 98.06649 
L 358.365283 98.597422 
L 358.428059 94.296948 
L 358.616389 112.082916 
L 358.867495 103.455398 
L 358.930271 107.22494 
L 358.993047 104.543791 
L 359.181377 89.438972 
L 359.369706 99.154883 
L 359.432483 94.82788 
L 359.558035 101.836073 
L 359.683588 86.200362 
L 359.746365 90.527365 
L 359.871918 96.978097 
L 359.99747 90.527365 
L 360.1858 103.455398 
L 360.248576 102.924466 
L 360.436906 107.755872 
L 360.499682 111.551983 
L 360.625235 102.924466 
L 360.750788 106.694008 
L 360.813564 117.471783 
L 360.876341 113.14474 
L 361.001894 113.14474 
L 361.06467 114.233133 
L 361.127446 118.002715 
L 361.315776 98.597422 
L 361.378552 102.367005 
L 361.441329 101.30514 
L 361.566881 100.216747 
L 361.629658 105.605615 
L 361.692434 100.74768 
L 361.755211 102.924466 
L 361.817987 103.98629 
L 362.006317 96.978097 
L 362.069093 97.535558 
L 362.131869 97.535558 
L 362.257422 94.296948 
L 362.320199 95.358772 
L 362.445752 100.74768 
L 362.571305 95.916273 
L 362.82241 115.321526 
L 362.885187 110.994523 
L 362.947963 107.755872 
L 363.01074 95.358772 
L 363.073516 98.597422 
L 363.199069 105.605615 
L 363.387398 95.916273 
L 363.575728 104.543791 
L 363.764057 112.613808 
L 363.826833 113.7022 
L 364.077939 92.677623 
L 364.329045 107.755872 
L 364.391821 103.98629 
L 364.454598 105.074683 
L 364.517374 105.605615 
L 364.642927 117.471783 
L 364.831256 97.535558 
L 364.894033 98.06649 
L 365.145139 119.622041 
L 365.270692 101.836073 
L 365.333468 102.367005 
L 365.396244 99.685815 
L 365.521797 107.755872 
L 365.584574 106.694008 
L 365.772903 103.98629 
L 365.898456 114.233133 
L 366.024009 103.455398 
L 366.149562 105.605615 
L 366.212338 104.543791 
L 366.337891 96.447165 
L 366.400667 96.978097 
L 366.463444 101.836073 
L 366.52622 96.978097 
L 366.777326 106.136547 
L 366.902879 103.98629 
L 367.028432 94.296948 
L 367.216761 101.836073 
L 367.279538 95.916273 
L 367.342314 97.535558 
L 367.405091 100.74768 
L 367.59342 90.527365 
L 367.656196 92.14669 
L 367.781749 112.613808 
L 367.907302 96.447165 
L 367.970078 98.597422 
L 368.221184 113.14474 
L 368.409514 96.447165 
L 368.535066 100.74768 
L 368.660619 109.375198 
L 368.723396 96.978097 
L 368.786172 99.685815 
L 368.974502 111.551983 
L 369.037278 107.755872 
L 369.100054 112.082916 
L 369.35116 96.447165 
L 369.413937 96.978097 
L 369.476713 95.358772 
L 369.602266 106.136547 
L 369.665042 103.455398 
L 369.790595 99.685815 
L 369.853372 94.296948 
L 369.978925 104.543791 
L 370.104477 101.30514 
L 370.292807 92.14669 
L 370.355583 93.208555 
L 370.41836 92.14669 
L 370.481136 99.685815 
L 370.543913 98.597422 
L 370.606689 99.685815 
L 370.669465 93.208555 
L 370.732242 94.296948 
L 370.795018 99.154883 
L 370.857795 95.916273 
L 370.983348 91.058297 
L 371.108901 114.233133 
L 371.171677 112.613808 
L 371.29723 102.367005 
L 371.360006 103.455398 
L 371.422783 100.74768 
L 371.548336 116.38339 
L 371.611112 112.082916 
L 371.736665 97.535558 
L 371.799441 95.916273 
L 371.924994 105.605615 
L 372.113324 93.208555 
L 372.1761 98.06649 
L 372.238876 93.739487 
L 372.301653 95.358772 
L 372.427206 98.597422 
L 372.552759 95.916273 
L 372.615535 96.978097 
L 372.678312 93.208555 
L 372.866641 102.924466 
L 372.992194 96.447165 
L 373.05497 104.543791 
L 373.117747 102.924466 
L 373.2433 98.06649 
L 373.368852 89.438972 
L 373.557182 110.463591 
L 373.619958 103.98629 
L 373.682735 92.677623 
L 373.745511 98.597422 
L 373.808287 99.685815 
L 373.871064 94.82788 
L 373.93384 103.98629 
L 373.996617 102.367005 
L 374.059393 90.527365 
L 374.12217 91.058297 
L 374.184946 99.154883 
L 374.247723 95.916273 
L 374.373275 92.677623 
L 374.561605 105.605615 
L 374.624381 102.367005 
L 374.687158 93.739487 
L 374.749934 97.535558 
L 374.812711 98.597422 
L 374.875487 105.074683 
L 374.938263 104.543791 
L 375.00104 103.98629 
L 375.063816 107.22494 
L 375.126593 99.685815 
L 375.189369 108.844265 
L 375.252146 107.755872 
L 375.314922 108.844265 
L 375.503251 99.154883 
L 375.691581 109.375198 
L 375.942686 91.058297 
L 376.005463 86.731254 
L 376.131016 103.98629 
L 376.256569 102.367005 
L 376.319345 101.836073 
L 376.507674 112.613808 
L 376.570451 112.082916 
L 376.884333 105.605615 
L 377.009886 115.852458 
L 377.198215 95.358772 
L 377.260992 99.154883 
L 377.386545 111.551983 
L 377.449321 107.22494 
L 377.574874 114.764065 
L 377.763203 103.455398 
L 377.82598 106.694008 
L 377.888756 106.136547 
L 377.951533 101.30514 
L 378.014309 101.836073 
L 378.077085 105.605615 
L 378.139862 105.074683 
L 378.265415 93.739487 
L 378.70485 107.755872 
L 378.767626 102.367005 
L 378.830403 102.924466 
L 379.018732 118.560176 
L 379.207061 95.916273 
L 379.395391 108.313333 
L 379.458167 107.22494 
L 379.646496 94.82788 
L 379.834826 90.527365 
L 380.023155 106.136547 
L 380.211484 94.296948 
L 380.399814 102.367005 
L 380.713696 93.208555 
L 380.776472 93.739487 
L 380.839249 95.916273 
L 380.902025 103.455398 
L 380.964802 100.216747 
L 381.153131 94.82788 
L 381.215908 85.138498 
L 381.278684 95.358772 
L 381.34146 91.58923 
L 381.467013 82.430779 
L 381.52979 84.581037 
L 381.780895 97.535558 
L 381.843672 95.358772 
L 381.906448 100.216747 
L 382.032001 88.350579 
L 382.094778 95.358772 
L 382.283107 102.924466 
L 382.40866 90.527365 
L 382.534213 96.978097 
L 382.596989 94.296948 
L 382.785319 101.30514 
L 382.910871 96.447165 
L 383.036424 101.30514 
L 383.161977 98.06649 
L 383.28753 94.296948 
L 383.413083 93.739487 
L 383.538636 85.138498 
L 383.601412 85.66943 
L 383.726965 103.455398 
L 383.789742 97.535558 
L 383.852518 100.216747 
L 383.915294 100.216747 
L 384.103624 93.208555 
L 384.291953 101.30514 
L 384.35473 99.685815 
L 384.417506 93.208555 
L 384.480282 99.685815 
L 384.543059 98.597422 
L 384.731388 94.296948 
L 384.794165 93.739487 
L 384.982494 98.597422 
L 385.170823 87.288755 
L 385.2336 89.969904 
L 385.296376 98.06649 
L 385.359153 95.916273 
L 385.421929 96.447165 
L 385.547482 105.605615 
L 385.735811 93.208555 
L 385.924141 100.216747 
L 386.049693 94.82788 
L 386.238023 106.136547 
L 386.300799 106.694008 
L 386.363576 96.978097 
L 386.426352 103.98629 
L 386.489129 105.074683 
L 386.551905 103.98629 
L 386.677458 93.739487 
L 386.928564 99.685815 
L 386.99134 93.739487 
L 387.054117 102.367005 
L 387.116893 100.74768 
L 387.242446 90.527365 
L 387.367999 98.06649 
L 387.430775 95.916273 
L 387.493552 100.216747 
L 387.556328 98.06649 
L 387.619104 92.14669 
L 387.681881 95.358772 
L 387.744657 91.58923 
L 387.807434 92.677623 
L 387.87021 93.208555 
L 387.932987 95.916273 
L 387.995763 92.14669 
L 388.05854 93.739487 
L 388.309645 108.844265 
L 388.435198 103.455398 
L 388.497975 105.074683 
L 388.560751 101.836073 
L 388.623528 109.375198 
L 388.686304 107.755872 
L 388.811857 103.98629 
L 388.811857 103.98629 
" style="fill:none;stroke:#1f77b4;stroke-linecap:round;stroke-width:1.5;"/>
   </g>
   <g id="line2d_13">
    <path clip-path="url(#p62ab28229f)" d="M 87.438616 289 
L 87.43877 -1 
M 87.971276 -1 
L 87.971449 289 
M 88.039109 289 
L 88.03968 -1 
M 88.07867 -1 
L 88.080271 289 
L 88.080271 289 
" style="fill:none;stroke:#ff7f0e;stroke-linecap:round;stroke-width:1.5;"/>
   </g>
   <g id="patch_3">
    <path d="M 54 252 
L 54 34.56 
" style="fill:none;stroke:#cccccc;stroke-linecap:square;stroke-linejoin:miter;stroke-width:0.8;"/>
   </g>
   <g id="patch_4">
    <path d="M 388.8 252 
L 388.8 34.56 
" style="fill:none;stroke:#cccccc;stroke-linecap:square;stroke-linejoin:miter;stroke-width:0.8;"/>
   </g>
   <g id="patch_5">
    <path d="M 54 252 
L 388.8 252 
" style="fill:none;stroke:#cccccc;stroke-linecap:square;stroke-linejoin:miter;stroke-width:0.8;"/>
   </g>
   <g id="patch_6">
    <path d="M 54 34.56 
L 388.8 34.56 
" style="fill:none;stroke:#cccccc;stroke-linecap:square;stroke-linejoin:miter;stroke-width:0.8;"/>
   </g>
  </g>
 </g>
 <defs>
  <clipPath id="p62ab28229f">
   <rect height="217.44" width="334.8" x="54" y="34.56"/>
  </clipPath>
 </defs>
</svg>
