<?xml version="1.0" encoding="utf-8" standalone="no"?>
<!DOCTYPE svg PUBLIC "-//W3C//DTD SVG 1.1//EN"
  "http://www.w3.org/Graphics/SVG/1.1/DTD/svg11.dtd">
<!-- Created with matplotlib (https://matplotlib.org/) -->
<svg height="288pt" version="1.1" viewBox="0 0 432 288" width="432pt" xmlns="http://www.w3.org/2000/svg" xmlns:xlink="http://www.w3.org/1999/xlink">
 <metadata>
  <rdf:RDF xmlns:cc="http://creativecommons.org/ns#" xmlns:dc="http://purl.org/dc/elements/1.1/" xmlns:rdf="http://www.w3.org/1999/02/22-rdf-syntax-ns#">
   <cc:Work>
    <dc:type rdf:resource="http://purl.org/dc/dcmitype/StillImage"/>
    <dc:date>2022-05-25T22:55:54.514382</dc:date>
    <dc:format>image/svg+xml</dc:format>
    <dc:creator>
     <cc:Agent>
      <dc:title>Matplotlib v3.3.3, https://matplotlib.org/</dc:title>
     </cc:Agent>
    </dc:creator>
   </cc:Work>
  </rdf:RDF>
 </metadata>
 <defs>
  <style type="text/css">*{stroke-linecap:butt;stroke-linejoin:round;}</style>
 </defs>
 <g id="figure_1">
  <g id="patch_1">
   <path d="M 0 288 
L 432 288 
L 432 0 
L 0 0 
z
" style="fill:#ffffff;"/>
  </g>
  <g id="axes_1">
   <g id="patch_2">
    <path d="M 54 252 
L 388.8 252 
L 388.8 34.56 
L 54 34.56 
z
" style="fill:#ffffff;"/>
   </g>
   <g id="matplotlib.axis_1">
    <g id="xtick_1">
     <g id="line2d_1">
      <path clip-path="url(#p935050d0ea)" d="M 76.32 252 
L 76.32 34.56 
" style="fill:none;stroke:#cccccc;stroke-linecap:round;stroke-width:0.8;"/>
     </g>
     <g id="text_1">
      <!-- 1.8 -->
      <g style="fill:#262626;" transform="translate(69.37 266.157812)scale(0.1 -0.1)">
       <defs>
        <path d="M 37.25 0 
L 28.46875 0 
L 28.46875 56 
Q 25.296875 52.984375 20.140625 49.953125 
Q 14.984375 46.921875 10.890625 45.40625 
L 10.890625 53.90625 
Q 18.265625 57.375 23.78125 62.296875 
Q 29.296875 67.234375 31.59375 71.875 
L 37.25 71.875 
z
" id="ArialMT-49"/>
        <path d="M 9.078125 0 
L 9.078125 10.015625 
L 19.09375 10.015625 
L 19.09375 0 
z
" id="ArialMT-46"/>
        <path d="M 17.671875 38.8125 
Q 12.203125 40.828125 9.5625 44.53125 
Q 6.9375 48.25 6.9375 53.421875 
Q 6.9375 61.234375 12.546875 66.546875 
Q 18.171875 71.875 27.484375 71.875 
Q 36.859375 71.875 42.578125 66.421875 
Q 48.296875 60.984375 48.296875 53.171875 
Q 48.296875 48.1875 45.671875 44.5 
Q 43.0625 40.828125 37.75 38.8125 
Q 44.34375 36.671875 47.78125 31.875 
Q 51.21875 27.09375 51.21875 20.453125 
Q 51.21875 11.28125 44.71875 5.03125 
Q 38.234375 -1.21875 27.640625 -1.21875 
Q 17.046875 -1.21875 10.546875 5.046875 
Q 4.046875 11.328125 4.046875 20.703125 
Q 4.046875 27.6875 7.59375 32.390625 
Q 11.140625 37.109375 17.671875 38.8125 
z
M 15.921875 53.71875 
Q 15.921875 48.640625 19.1875 45.40625 
Q 22.46875 42.1875 27.6875 42.1875 
Q 32.765625 42.1875 36.015625 45.375 
Q 39.265625 48.578125 39.265625 53.21875 
Q 39.265625 58.0625 35.90625 61.359375 
Q 32.5625 64.65625 27.59375 64.65625 
Q 22.5625 64.65625 19.234375 61.421875 
Q 15.921875 58.203125 15.921875 53.71875 
z
M 13.09375 20.65625 
Q 13.09375 16.890625 14.875 13.375 
Q 16.65625 9.859375 20.171875 7.921875 
Q 23.6875 6 27.734375 6 
Q 34.03125 6 38.125 10.046875 
Q 42.234375 14.109375 42.234375 20.359375 
Q 42.234375 26.703125 38.015625 30.859375 
Q 33.796875 35.015625 27.4375 35.015625 
Q 21.234375 35.015625 17.15625 30.90625 
Q 13.09375 26.8125 13.09375 20.65625 
z
" id="ArialMT-56"/>
       </defs>
       <use xlink:href="#ArialMT-49"/>
       <use x="55.615234" xlink:href="#ArialMT-46"/>
       <use x="83.398438" xlink:href="#ArialMT-56"/>
      </g>
     </g>
    </g>
    <g id="xtick_2">
     <g id="line2d_2">
      <path clip-path="url(#p935050d0ea)" d="M 120.96 252 
L 120.96 34.56 
" style="fill:none;stroke:#cccccc;stroke-linecap:round;stroke-width:0.8;"/>
     </g>
     <g id="text_2">
      <!-- 2.0 -->
      <g style="fill:#262626;" transform="translate(114.01 266.157812)scale(0.1 -0.1)">
       <defs>
        <path d="M 50.34375 8.453125 
L 50.34375 0 
L 3.03125 0 
Q 2.9375 3.171875 4.046875 6.109375 
Q 5.859375 10.9375 9.828125 15.625 
Q 13.8125 20.3125 21.34375 26.46875 
Q 33.015625 36.03125 37.109375 41.625 
Q 41.21875 47.21875 41.21875 52.203125 
Q 41.21875 57.421875 37.46875 61 
Q 33.734375 64.59375 27.734375 64.59375 
Q 21.390625 64.59375 17.578125 60.78125 
Q 13.765625 56.984375 13.71875 50.25 
L 4.6875 51.171875 
Q 5.609375 61.28125 11.65625 66.578125 
Q 17.71875 71.875 27.9375 71.875 
Q 38.234375 71.875 44.234375 66.15625 
Q 50.25 60.453125 50.25 52 
Q 50.25 47.703125 48.484375 43.546875 
Q 46.734375 39.40625 42.65625 34.8125 
Q 38.578125 30.21875 29.109375 22.21875 
Q 21.1875 15.578125 18.9375 13.203125 
Q 16.703125 10.84375 15.234375 8.453125 
z
" id="ArialMT-50"/>
        <path d="M 4.15625 35.296875 
Q 4.15625 48 6.765625 55.734375 
Q 9.375 63.484375 14.515625 67.671875 
Q 19.671875 71.875 27.484375 71.875 
Q 33.25 71.875 37.59375 69.546875 
Q 41.9375 67.234375 44.765625 62.859375 
Q 47.609375 58.5 49.21875 52.21875 
Q 50.828125 45.953125 50.828125 35.296875 
Q 50.828125 22.703125 48.234375 14.96875 
Q 45.65625 7.234375 40.5 3 
Q 35.359375 -1.21875 27.484375 -1.21875 
Q 17.140625 -1.21875 11.234375 6.203125 
Q 4.15625 15.140625 4.15625 35.296875 
z
M 13.1875 35.296875 
Q 13.1875 17.671875 17.3125 11.828125 
Q 21.4375 6 27.484375 6 
Q 33.546875 6 37.671875 11.859375 
Q 41.796875 17.71875 41.796875 35.296875 
Q 41.796875 52.984375 37.671875 58.78125 
Q 33.546875 64.59375 27.390625 64.59375 
Q 21.34375 64.59375 17.71875 59.46875 
Q 13.1875 52.9375 13.1875 35.296875 
z
" id="ArialMT-48"/>
       </defs>
       <use xlink:href="#ArialMT-50"/>
       <use x="55.615234" xlink:href="#ArialMT-46"/>
       <use x="83.398438" xlink:href="#ArialMT-48"/>
      </g>
     </g>
    </g>
    <g id="xtick_3">
     <g id="line2d_3">
      <path clip-path="url(#p935050d0ea)" d="M 165.6 252 
L 165.6 34.56 
" style="fill:none;stroke:#cccccc;stroke-linecap:round;stroke-width:0.8;"/>
     </g>
     <g id="text_3">
      <!-- 2.2 -->
      <g style="fill:#262626;" transform="translate(158.65 266.157812)scale(0.1 -0.1)">
       <use xlink:href="#ArialMT-50"/>
       <use x="55.615234" xlink:href="#ArialMT-46"/>
       <use x="83.398438" xlink:href="#ArialMT-50"/>
      </g>
     </g>
    </g>
    <g id="xtick_4">
     <g id="line2d_4">
      <path clip-path="url(#p935050d0ea)" d="M 210.24 252 
L 210.24 34.56 
" style="fill:none;stroke:#cccccc;stroke-linecap:round;stroke-width:0.8;"/>
     </g>
     <g id="text_4">
      <!-- 2.4 -->
      <g style="fill:#262626;" transform="translate(203.29 266.157812)scale(0.1 -0.1)">
       <defs>
        <path d="M 32.328125 0 
L 32.328125 17.140625 
L 1.265625 17.140625 
L 1.265625 25.203125 
L 33.9375 71.578125 
L 41.109375 71.578125 
L 41.109375 25.203125 
L 50.78125 25.203125 
L 50.78125 17.140625 
L 41.109375 17.140625 
L 41.109375 0 
z
M 32.328125 25.203125 
L 32.328125 57.46875 
L 9.90625 25.203125 
z
" id="ArialMT-52"/>
       </defs>
       <use xlink:href="#ArialMT-50"/>
       <use x="55.615234" xlink:href="#ArialMT-46"/>
       <use x="83.398438" xlink:href="#ArialMT-52"/>
      </g>
     </g>
    </g>
    <g id="xtick_5">
     <g id="line2d_5">
      <path clip-path="url(#p935050d0ea)" d="M 254.88 252 
L 254.88 34.56 
" style="fill:none;stroke:#cccccc;stroke-linecap:round;stroke-width:0.8;"/>
     </g>
     <g id="text_5">
      <!-- 2.6 -->
      <g style="fill:#262626;" transform="translate(247.93 266.157812)scale(0.1 -0.1)">
       <defs>
        <path d="M 49.75 54.046875 
L 41.015625 53.375 
Q 39.84375 58.546875 37.703125 60.890625 
Q 34.125 64.65625 28.90625 64.65625 
Q 24.703125 64.65625 21.53125 62.3125 
Q 17.390625 59.28125 14.984375 53.46875 
Q 12.59375 47.65625 12.5 36.921875 
Q 15.671875 41.75 20.265625 44.09375 
Q 24.859375 46.4375 29.890625 46.4375 
Q 38.671875 46.4375 44.84375 39.96875 
Q 51.03125 33.5 51.03125 23.25 
Q 51.03125 16.5 48.125 10.71875 
Q 45.21875 4.9375 40.140625 1.859375 
Q 35.0625 -1.21875 28.609375 -1.21875 
Q 17.625 -1.21875 10.6875 6.859375 
Q 3.765625 14.9375 3.765625 33.5 
Q 3.765625 54.25 11.421875 63.671875 
Q 18.109375 71.875 29.4375 71.875 
Q 37.890625 71.875 43.28125 67.140625 
Q 48.6875 62.40625 49.75 54.046875 
z
M 13.875 23.1875 
Q 13.875 18.65625 15.796875 14.5 
Q 17.71875 10.359375 21.1875 8.171875 
Q 24.65625 6 28.46875 6 
Q 34.03125 6 38.03125 10.484375 
Q 42.046875 14.984375 42.046875 22.703125 
Q 42.046875 30.125 38.078125 34.390625 
Q 34.125 38.671875 28.125 38.671875 
Q 22.171875 38.671875 18.015625 34.390625 
Q 13.875 30.125 13.875 23.1875 
z
" id="ArialMT-54"/>
       </defs>
       <use xlink:href="#ArialMT-50"/>
       <use x="55.615234" xlink:href="#ArialMT-46"/>
       <use x="83.398438" xlink:href="#ArialMT-54"/>
      </g>
     </g>
    </g>
    <g id="xtick_6">
     <g id="line2d_6">
      <path clip-path="url(#p935050d0ea)" d="M 299.52 252 
L 299.52 34.56 
" style="fill:none;stroke:#cccccc;stroke-linecap:round;stroke-width:0.8;"/>
     </g>
     <g id="text_6">
      <!-- 2.8 -->
      <g style="fill:#262626;" transform="translate(292.57 266.157812)scale(0.1 -0.1)">
       <use xlink:href="#ArialMT-50"/>
       <use x="55.615234" xlink:href="#ArialMT-46"/>
       <use x="83.398438" xlink:href="#ArialMT-56"/>
      </g>
     </g>
    </g>
    <g id="xtick_7">
     <g id="line2d_7">
      <path clip-path="url(#p935050d0ea)" d="M 344.16 252 
L 344.16 34.56 
" style="fill:none;stroke:#cccccc;stroke-linecap:round;stroke-width:0.8;"/>
     </g>
     <g id="text_7">
      <!-- 3.0 -->
      <g style="fill:#262626;" transform="translate(337.21 266.157812)scale(0.1 -0.1)">
       <defs>
        <path d="M 4.203125 18.890625 
L 12.984375 20.0625 
Q 14.5 12.59375 18.140625 9.296875 
Q 21.78125 6 27 6 
Q 33.203125 6 37.46875 10.296875 
Q 41.75 14.59375 41.75 20.953125 
Q 41.75 27 37.796875 30.921875 
Q 33.84375 34.859375 27.734375 34.859375 
Q 25.25 34.859375 21.53125 33.890625 
L 22.515625 41.609375 
Q 23.390625 41.5 23.921875 41.5 
Q 29.546875 41.5 34.03125 44.421875 
Q 38.53125 47.359375 38.53125 53.46875 
Q 38.53125 58.296875 35.25 61.46875 
Q 31.984375 64.65625 26.8125 64.65625 
Q 21.6875 64.65625 18.265625 61.421875 
Q 14.84375 58.203125 13.875 51.765625 
L 5.078125 53.328125 
Q 6.6875 62.15625 12.390625 67.015625 
Q 18.109375 71.875 26.609375 71.875 
Q 32.46875 71.875 37.390625 69.359375 
Q 42.328125 66.84375 44.9375 62.5 
Q 47.5625 58.15625 47.5625 53.265625 
Q 47.5625 48.640625 45.0625 44.828125 
Q 42.578125 41.015625 37.703125 38.765625 
Q 44.046875 37.3125 47.5625 32.6875 
Q 51.078125 28.078125 51.078125 21.140625 
Q 51.078125 11.765625 44.234375 5.25 
Q 37.40625 -1.265625 26.953125 -1.265625 
Q 17.53125 -1.265625 11.296875 4.34375 
Q 5.078125 9.96875 4.203125 18.890625 
z
" id="ArialMT-51"/>
       </defs>
       <use xlink:href="#ArialMT-51"/>
       <use x="55.615234" xlink:href="#ArialMT-46"/>
       <use x="83.398438" xlink:href="#ArialMT-48"/>
      </g>
     </g>
    </g>
    <g id="xtick_8">
     <g id="line2d_8">
      <path clip-path="url(#p935050d0ea)" d="M 388.8 252 
L 388.8 34.56 
" style="fill:none;stroke:#cccccc;stroke-linecap:round;stroke-width:0.8;"/>
     </g>
     <g id="text_8">
      <!-- 3.2 -->
      <g style="fill:#262626;" transform="translate(381.85 266.157812)scale(0.1 -0.1)">
       <use xlink:href="#ArialMT-51"/>
       <use x="55.615234" xlink:href="#ArialMT-46"/>
       <use x="83.398438" xlink:href="#ArialMT-50"/>
      </g>
     </g>
    </g>
    <g id="text_9">
     <!-- 1e−5 -->
     <g style="fill:#262626;" transform="translate(366.276563 278.303125)scale(0.1 -0.1)">
      <defs>
       <path d="M 42.09375 16.703125 
L 51.171875 15.578125 
Q 49.03125 7.625 43.21875 3.21875 
Q 37.40625 -1.171875 28.375 -1.171875 
Q 17 -1.171875 10.328125 5.828125 
Q 3.65625 12.84375 3.65625 25.484375 
Q 3.65625 38.578125 10.390625 45.796875 
Q 17.140625 53.03125 27.875 53.03125 
Q 38.28125 53.03125 44.875 45.953125 
Q 51.46875 38.875 51.46875 26.03125 
Q 51.46875 25.25 51.421875 23.6875 
L 12.75 23.6875 
Q 13.234375 15.140625 17.578125 10.59375 
Q 21.921875 6.0625 28.421875 6.0625 
Q 33.25 6.0625 36.671875 8.59375 
Q 40.09375 11.140625 42.09375 16.703125 
z
M 13.234375 30.90625 
L 42.1875 30.90625 
Q 41.609375 37.453125 38.875 40.71875 
Q 34.671875 45.796875 27.984375 45.796875 
Q 21.921875 45.796875 17.796875 41.75 
Q 13.671875 37.703125 13.234375 30.90625 
z
" id="ArialMT-101"/>
       <path d="M 52.828125 31.203125 
L 5.5625 31.203125 
L 5.5625 39.40625 
L 52.828125 39.40625 
z
" id="ArialMT-8722"/>
       <path d="M 4.15625 18.75 
L 13.375 19.53125 
Q 14.40625 12.796875 18.140625 9.390625 
Q 21.875 6 27.15625 6 
Q 33.5 6 37.890625 10.78125 
Q 42.28125 15.578125 42.28125 23.484375 
Q 42.28125 31 38.0625 35.34375 
Q 33.84375 39.703125 27 39.703125 
Q 22.75 39.703125 19.328125 37.765625 
Q 15.921875 35.84375 13.96875 32.765625 
L 5.71875 33.84375 
L 12.640625 70.609375 
L 48.25 70.609375 
L 48.25 62.203125 
L 19.671875 62.203125 
L 15.828125 42.96875 
Q 22.265625 47.46875 29.34375 47.46875 
Q 38.71875 47.46875 45.15625 40.96875 
Q 51.609375 34.46875 51.609375 24.265625 
Q 51.609375 14.546875 45.953125 7.46875 
Q 39.0625 -1.21875 27.15625 -1.21875 
Q 17.390625 -1.21875 11.203125 4.25 
Q 5.03125 9.71875 4.15625 18.75 
z
" id="ArialMT-53"/>
      </defs>
      <use xlink:href="#ArialMT-49"/>
      <use x="55.615234" xlink:href="#ArialMT-101"/>
      <use x="111.230469" xlink:href="#ArialMT-8722"/>
      <use x="169.628906" xlink:href="#ArialMT-53"/>
     </g>
    </g>
   </g>
   <g id="matplotlib.axis_2">
    <g id="ytick_1">
     <g id="line2d_9">
      <path clip-path="url(#p935050d0ea)" d="M 54 230.256 
L 388.8 230.256 
" style="fill:none;stroke:#cccccc;stroke-linecap:round;stroke-width:0.8;"/>
     </g>
     <g id="text_10">
      <!-- 0.008 -->
      <g style="fill:#262626;" transform="translate(21.978125 233.834906)scale(0.1 -0.1)">
       <use xlink:href="#ArialMT-48"/>
       <use x="55.615234" xlink:href="#ArialMT-46"/>
       <use x="83.398438" xlink:href="#ArialMT-48"/>
       <use x="139.013672" xlink:href="#ArialMT-48"/>
       <use x="194.628906" xlink:href="#ArialMT-56"/>
      </g>
     </g>
    </g>
    <g id="ytick_2">
     <g id="line2d_10">
      <path clip-path="url(#p935050d0ea)" d="M 54 186.768 
L 388.8 186.768 
" style="fill:none;stroke:#cccccc;stroke-linecap:round;stroke-width:0.8;"/>
     </g>
     <g id="text_11">
      <!-- 0.010 -->
      <g style="fill:#262626;" transform="translate(21.978125 190.346906)scale(0.1 -0.1)">
       <use xlink:href="#ArialMT-48"/>
       <use x="55.615234" xlink:href="#ArialMT-46"/>
       <use x="83.398438" xlink:href="#ArialMT-48"/>
       <use x="139.013672" xlink:href="#ArialMT-49"/>
       <use x="194.628906" xlink:href="#ArialMT-48"/>
      </g>
     </g>
    </g>
    <g id="ytick_3">
     <g id="line2d_11">
      <path clip-path="url(#p935050d0ea)" d="M 54 143.28 
L 388.8 143.28 
" style="fill:none;stroke:#cccccc;stroke-linecap:round;stroke-width:0.8;"/>
     </g>
     <g id="text_12">
      <!-- 0.012 -->
      <g style="fill:#262626;" transform="translate(21.978125 146.858906)scale(0.1 -0.1)">
       <use xlink:href="#ArialMT-48"/>
       <use x="55.615234" xlink:href="#ArialMT-46"/>
       <use x="83.398438" xlink:href="#ArialMT-48"/>
       <use x="139.013672" xlink:href="#ArialMT-49"/>
       <use x="194.628906" xlink:href="#ArialMT-50"/>
      </g>
     </g>
    </g>
    <g id="ytick_4">
     <g id="line2d_12">
      <path clip-path="url(#p935050d0ea)" d="M 54 99.792 
L 388.8 99.792 
" style="fill:none;stroke:#cccccc;stroke-linecap:round;stroke-width:0.8;"/>
     </g>
     <g id="text_13">
      <!-- 0.014 -->
      <g style="fill:#262626;" transform="translate(21.978125 103.370906)scale(0.1 -0.1)">
       <use xlink:href="#ArialMT-48"/>
       <use x="55.615234" xlink:href="#ArialMT-46"/>
       <use x="83.398438" xlink:href="#ArialMT-48"/>
       <use x="139.013672" xlink:href="#ArialMT-49"/>
       <use x="194.628906" xlink:href="#ArialMT-52"/>
      </g>
     </g>
    </g>
    <g id="ytick_5">
     <g id="line2d_13">
      <path clip-path="url(#p935050d0ea)" d="M 54 56.304 
L 388.8 56.304 
" style="fill:none;stroke:#cccccc;stroke-linecap:round;stroke-width:0.8;"/>
     </g>
     <g id="text_14">
      <!-- 0.016 -->
      <g style="fill:#262626;" transform="translate(21.978125 59.882906)scale(0.1 -0.1)">
       <use xlink:href="#ArialMT-48"/>
       <use x="55.615234" xlink:href="#ArialMT-46"/>
       <use x="83.398438" xlink:href="#ArialMT-48"/>
       <use x="139.013672" xlink:href="#ArialMT-49"/>
       <use x="194.628906" xlink:href="#ArialMT-54"/>
      </g>
     </g>
    </g>
   </g>
   <g id="line2d_14">
    <path clip-path="url(#p935050d0ea)" d="M 53.815555 230.914341 
L 54.094625 232.533667 
L 54.652764 227.954441 
L 54.931833 227.144779 
L 55.210903 229.02957 
L 55.489972 228.764104 
L 55.769042 229.295036 
L 56.327181 228.219908 
L 56.606251 228.764104 
L 56.88532 227.954441 
L 57.16439 226.600582 
L 57.443459 227.954441 
L 57.722529 230.104679 
L 58.001599 228.219908 
L 58.280668 233.343329 
L 58.559738 232.254936 
L 58.838807 228.764104 
L 59.117877 228.764104 
L 59.396946 229.295036 
L 59.676016 229.560482 
L 60.234155 226.056386 
L 60.513225 228.764104 
L 60.792294 229.02957 
L 61.350434 223.361952 
L 61.629503 219.857856 
L 62.466712 231.98947 
L 62.745781 234.152992 
L 63.303921 231.458538 
L 63.58299 231.98947 
L 63.86206 230.104679 
L 64.141129 233.064599 
L 64.420199 238.18801 
L 64.978338 236.303229 
L 65.257408 237.112892 
L 65.536477 232.533667 
L 65.815547 232.533667 
L 66.094616 234.418448 
L 66.373686 234.962644 
L 66.652755 237.922544 
L 66.931825 235.493566 
L 67.210895 228.764104 
L 67.489964 231.98947 
L 67.769034 233.343329 
L 68.048103 233.608795 
L 68.327173 231.98947 
L 68.606243 229.295036 
L 68.885312 228.485374 
L 69.164382 229.839233 
L 69.443451 229.560482 
L 69.722521 228.485374 
L 70.00159 230.370145 
L 70.28066 230.648895 
L 70.55973 233.608795 
L 70.838799 233.343329 
L 71.117869 233.874241 
L 71.676008 238.732207 
L 71.955077 235.759032 
L 72.234147 227.954441 
L 72.513217 226.600582 
L 73.350425 236.847425 
L 73.629495 231.724004 
L 73.908564 231.179807 
L 74.187634 232.799133 
L 74.466704 230.104679 
L 74.745773 229.560482 
L 75.024843 231.179807 
L 75.303912 231.458538 
L 75.582982 233.064599 
L 75.862052 232.799133 
L 76.141121 231.724004 
L 76.420191 229.839233 
L 76.97833 233.608795 
L 77.257399 232.533667 
L 77.536469 233.343329 
L 77.815539 229.839233 
L 78.094608 228.219908 
L 78.373678 231.179807 
L 78.652747 232.799133 
L 78.931817 228.219908 
L 79.489956 232.799133 
L 79.769026 232.533667 
L 80.048095 236.303229 
L 80.327165 237.378348 
L 80.606234 232.799133 
L 80.885304 231.98947 
L 81.164373 233.608795 
L 81.722513 232.254936 
L 82.001582 225.525474 
L 82.280652 222.83102 
L 82.559721 221.477161 
L 83.117861 228.219908 
L 83.39693 235.22811 
L 83.955069 233.874241 
L 84.234139 235.22811 
L 84.513208 233.874241 
L 85.071348 238.18801 
L 85.350417 232.799133 
L 85.629487 231.98947 
L 85.908556 231.724004 
L 86.187626 231.179807 
L 86.745765 233.343329 
L 87.024835 230.648895 
L 87.303904 232.533667 
L 87.582974 232.533667 
L 87.862043 235.493566 
L 88.141113 237.112892 
L 88.420182 234.418448 
L 88.699252 236.568695 
L 88.978322 236.037763 
L 89.257391 235.22811 
L 89.536461 238.18801 
L 89.81553 237.657088 
L 90.0946 233.064599 
L 90.37367 233.608795 
L 90.652739 233.874241 
L 91.210878 242.767235 
L 91.489948 239.541869 
L 91.769017 239.263129 
L 92.048087 236.568695 
L 92.327157 235.22811 
L 92.606226 238.997673 
L 92.885296 236.847425 
L 93.164365 232.254936 
L 93.443435 230.370145 
L 93.722504 230.914341 
L 94.001574 231.98947 
L 94.280644 231.179807 
L 94.559713 229.839233 
L 94.838783 233.874241 
L 95.117852 234.962644 
L 95.396922 237.657088 
L 95.955061 234.418448 
L 96.234131 235.493566 
L 96.5132 240.072791 
L 96.79227 235.493566 
L 97.071339 237.657088 
L 97.350409 236.303229 
L 97.629478 236.568695 
L 97.908548 239.263129 
L 98.187618 240.351522 
L 98.466687 240.072791 
L 98.745757 236.568695 
L 99.024826 237.112892 
L 99.303896 237.922544 
L 99.862035 231.179807 
L 100.141105 234.962644 
L 100.420174 236.303229 
L 100.699244 234.962644 
L 100.978313 239.541869 
L 101.257383 241.692107 
L 101.536453 241.692107 
L 101.815522 242.501769 
L 102.094592 240.882454 
L 102.373661 233.608795 
L 102.652731 230.370145 
L 102.9318 229.839233 
L 103.21087 228.764104 
L 103.48994 226.600582 
L 103.769009 226.056386 
L 104.048079 227.675711 
L 104.606218 231.724004 
L 104.885287 231.98947 
L 105.164357 224.715811 
L 105.443427 223.906149 
L 106.001566 213.659306 
L 106.280635 216.63249 
L 106.559705 217.973064 
L 106.838775 215.278631 
L 107.117844 210.964872 
L 107.396914 208.549168 
L 107.675983 205.045072 
L 107.955053 205.575984 
L 108.234122 205.854735 
L 108.792262 200.187117 
L 109.071331 202.88155 
L 109.350401 199.111988 
L 109.62947 198.302325 
L 110.187609 201.262225 
L 110.466679 200.731313 
L 110.745749 200.452583 
L 111.303888 202.88155 
L 111.582957 200.452583 
L 111.862027 195.607892 
L 112.141096 195.873358 
L 112.420166 199.377454 
L 112.699236 198.036859 
L 112.978305 197.758129 
L 113.257375 197.227217 
L 113.536444 198.036859 
L 114.094584 201.262225 
L 114.373653 201.540976 
L 114.652723 202.88155 
L 114.931792 200.452583 
L 115.489931 202.616084 
L 115.769001 204.766342 
L 116.048071 203.691213 
L 116.32714 203.425747 
L 116.60621 201.262225 
L 116.885279 203.956679 
L 117.164349 205.310538 
L 117.443418 205.045072 
L 117.722488 205.854735 
L 118.001558 202.071888 
L 118.280627 200.452583 
L 119.117836 208.814635 
L 119.396905 208.004972 
L 119.675975 209.624297 
L 119.955045 207.739506 
L 120.234114 208.270438 
L 120.792253 205.575984 
L 121.350393 213.659306 
L 121.629462 213.128393 
L 121.908532 212.849643 
L 122.187601 210.155209 
L 122.466671 211.243602 
L 122.74574 210.964872 
L 123.02481 212.318731 
L 123.582949 204.766342 
L 123.862019 209.080101 
L 124.141088 210.699406 
L 124.420158 211.509068 
L 124.699227 210.964872 
L 124.978297 208.814635 
L 125.257367 209.624297 
L 125.536436 209.624297 
L 125.815506 208.814635 
L 126.094575 208.549168 
L 126.652714 211.243602 
L 127.210854 205.854735 
L 127.489923 209.080101 
L 127.768993 210.699406 
L 128.048062 206.929843 
L 128.327132 208.270438 
L 128.606202 211.509068 
L 129.164341 213.938056 
L 129.44341 212.849643 
L 130.001549 215.278631 
L 130.280619 214.747698 
L 130.559689 211.243602 
L 130.838758 213.128393 
L 131.117828 211.509068 
L 131.396897 208.814635 
L 131.675967 210.43394 
L 131.955036 213.39386 
L 132.234106 213.659306 
L 132.513176 215.013165 
L 132.792245 217.707619 
L 133.071315 217.442152 
L 133.350384 214.468968 
L 133.629454 215.822827 
L 133.908523 210.43394 
L 134.466663 208.549168 
L 134.745732 214.747698 
L 135.024802 212.318731 
L 135.303871 211.509068 
L 135.582941 214.203502 
L 135.862011 212.053265 
L 136.14108 215.822827 
L 136.42015 217.707619 
L 136.699219 217.707619 
L 136.978289 215.013165 
L 137.257358 213.938056 
L 137.536428 217.442152 
L 137.815498 216.897956 
L 138.094567 220.402052 
L 138.373637 216.63249 
L 138.652706 214.747698 
L 139.210845 213.659306 
L 139.489915 214.747698 
L 140.327124 207.739506 
L 140.606193 208.004972 
L 140.885263 206.385647 
L 141.164332 207.195309 
L 141.443402 203.691213 
L 142.280611 199.377454 
L 142.55968 202.071888 
L 143.396889 186.980374 
L 143.675959 179.441249 
L 143.955028 177.277727 
L 144.234098 179.441249 
L 144.513167 176.468064 
L 144.792237 171.623394 
L 145.071307 170.269534 
L 145.629446 162.730409 
L 146.466654 159.226313 
L 147.303863 152.218121 
L 147.582933 147.904362 
L 147.862002 141.161615 
L 148.141072 137.657518 
L 148.699211 143.590603 
L 148.978281 140.086486 
L 149.815489 134.153422 
L 150.094559 136.58239 
L 150.373629 137.392052 
L 150.652698 135.772727 
L 150.931768 137.657518 
L 151.210837 138.467181 
L 151.489907 136.038193 
L 151.768976 136.58239 
L 152.048046 133.34376 
L 152.885255 116.911651 
L 153.164324 128.499068 
L 153.443394 150.333329 
L 153.722463 135.507281 
L 154.001533 130.118394 
L 154.280603 133.887956 
L 154.559672 141.427081 
L 155.117811 164.880647 
L 155.396881 138.732647 
L 155.67595 131.193522 
L 155.95502 134.963085 
L 156.23409 131.724434 
L 156.513159 125.260438 
L 156.792229 122.021808 
L 157.071298 110.713121 
L 157.350368 111.244033 
L 157.629438 112.597892 
L 157.908507 105.589699 
L 158.187577 106.664807 
L 158.466646 105.045503 
L 158.745716 109.093795 
L 159.024785 108.815065 
L 159.303855 108.018667 
L 159.582925 105.324233 
L 159.861994 107.209024 
L 160.141064 97.227647 
L 160.420133 95.621586 
L 160.699203 101.541406 
L 160.978272 97.506378 
L 161.536412 103.160711 
L 161.815481 101.27594 
L 162.37362 91.029097 
L 162.65269 86.994068 
L 162.931759 88.87886 
L 163.210829 88.334663 
L 163.489899 86.449872 
L 163.768968 81.061004 
L 164.327107 78.101105 
L 164.606177 74.596988 
L 164.885247 77.012691 
L 165.164316 76.216313 
L 165.443386 77.291442 
L 165.722455 71.902554 
L 166.001525 71.092892 
L 166.280594 68.92939 
L 166.838734 70.814161 
L 167.117803 71.092892 
L 167.396873 73.787346 
L 167.675942 79.707145 
L 167.955012 81.605201 
L 168.513151 89.409772 
L 168.792221 92.648422 
L 169.07129 88.613394 
L 169.35036 93.458085 
L 169.629429 100.731744 
L 169.908499 102.616515 
L 170.187568 100.200811 
L 170.466638 94.267747 
L 170.745708 95.887052 
L 171.024777 103.970374 
L 171.303847 103.970374 
L 171.582916 105.855165 
L 171.861986 108.815065 
L 172.141056 113.938487 
L 172.420125 116.101988 
L 172.699195 113.128824 
L 172.978264 114.748129 
L 173.257334 113.128824 
L 173.536403 114.217217 
L 173.815473 113.407554 
L 174.094543 119.606084 
L 174.652682 125.260438 
L 174.931751 126.070101 
L 175.210821 130.649326 
L 175.48989 133.34376 
L 175.76896 132.003165 
L 176.04803 132.534097 
L 176.327099 133.887956 
L 176.606169 137.392052 
L 176.885238 136.847856 
L 177.164308 138.732647 
L 177.722447 149.244936 
L 178.001517 146.550502 
L 178.280586 142.515474 
L 178.559656 149.523667 
L 179.396865 157.062791 
L 179.675934 156.797325 
L 179.955004 155.987683 
L 180.234073 156.797325 
L 180.513143 159.226313 
L 180.792212 155.987683 
L 181.350352 162.186213 
L 181.629421 163.261342 
L 182.18756 169.738602 
L 182.46663 169.459872 
L 182.745699 168.650209 
L 183.024769 170.269534 
L 183.303839 171.079197 
L 183.582908 171.344663 
L 183.861978 171.079197 
L 184.141047 172.698502 
L 184.420117 175.658422 
L 184.699186 180.781823 
L 184.978256 181.856952 
L 185.257326 178.631586 
L 185.536395 178.631586 
L 185.815465 179.441249 
L 186.094534 177.277727 
L 186.373604 177.543193 
L 186.652674 180.237627 
L 186.931743 178.631586 
L 187.210813 180.781823 
L 187.489882 179.972181 
L 188.048021 182.401149 
L 188.327091 181.32602 
L 188.88523 182.945345 
L 189.1643 181.591486 
L 189.722439 183.476277 
L 190.001508 188.334233 
L 190.280578 189.143895 
L 190.559648 192.369261 
L 190.838717 189.143895 
L 191.117787 184.551386 
L 191.396856 183.741744 
L 191.675926 179.441249 
L 191.954995 182.401149 
L 192.513135 177.821924 
L 192.792204 177.543193 
L 193.071274 177.543193 
L 193.629413 175.392956 
L 193.908483 172.433056 
L 194.187552 171.623394 
L 194.745691 176.746815 
L 195.30383 174.84876 
L 196.141039 163.540072 
L 196.420109 156.797325 
L 196.699178 157.341522 
L 196.978248 159.757225 
L 197.536387 153.558695 
L 197.815457 152.749033 
L 198.094526 149.523667 
L 198.373596 148.97947 
L 198.652665 147.360165 
L 199.489874 134.153422 
L 199.768944 133.62249 
L 200.327083 121.490876 
L 200.606152 123.375647 
L 201.722431 112.053695 
L 202.0015 113.128824 
L 202.28057 112.319161 
L 202.559639 107.739936 
L 202.838709 105.324233 
L 203.117779 104.23584 
L 203.396848 103.704908 
L 203.954987 93.192619 
L 204.234057 93.458085 
L 204.513126 91.307827 
L 204.792196 91.307827 
L 205.071266 90.219434 
L 205.350335 90.219434 
L 205.629405 89.688522 
L 205.908474 84.020904 
L 206.187544 84.020904 
L 206.466613 82.945776 
L 206.745683 79.985876 
L 207.024753 79.176213 
L 207.303822 78.910747 
L 207.582892 77.556908 
L 207.861961 78.36655 
L 208.141031 79.707145 
L 208.420101 77.291442 
L 208.69917 73.243149 
L 208.97824 67.310065 
L 209.257309 67.588795 
L 209.536379 66.779133 
L 209.815448 70.814161 
L 210.094518 68.92939 
L 210.373588 68.663924 
L 210.652657 67.310065 
L 210.931727 67.044599 
L 211.210796 64.615631 
L 211.489866 64.615631 
L 211.768935 59.77094 
L 212.327075 63.275036 
L 212.606144 57.076506 
L 212.885214 60.036386 
L 213.164283 57.341952 
L 213.443353 56.797776 
L 213.722422 55.457181 
L 214.001492 52.762747 
L 214.280562 51.687598 
L 214.559631 52.762747 
L 214.838701 50.33376 
L 215.11777 50.068314 
L 215.39684 46.020001 
L 215.67591 43.869743 
L 215.954979 47.639326 
L 216.234049 48.714434 
L 216.792188 39.290538 
L 217.629397 38.480876 
L 217.908466 35.242225 
L 218.187536 38.202145 
L 218.466605 38.746322 
L 218.745675 43.325567 
L 219.024744 43.060081 
L 219.303814 44.944892 
L 219.582884 45.754555 
L 219.861953 47.095109 
L 220.141023 50.599205 
L 220.420092 51.143422 
L 220.699162 46.564217 
L 220.978231 47.373839 
L 221.257301 51.143422 
L 221.536371 53.028193 
L 221.81544 50.877976 
L 222.09451 51.143422 
L 222.373579 50.877976 
L 222.652649 49.258651 
L 223.210788 52.497261 
L 223.489858 56.53229 
L 223.768927 56.001357 
L 224.047997 57.886169 
L 224.327066 58.695832 
L 224.606136 60.301872 
L 224.885206 60.580603 
L 225.164275 63.275036 
L 225.443345 60.580603 
L 226.001484 71.092892 
L 226.280553 70.283229 
L 226.559623 75.12792 
L 226.838693 71.623824 
L 227.117762 70.283229 
L 227.396832 70.004499 
L 227.954971 80.251342 
L 228.23404 82.136113 
L 228.51311 78.910747 
L 228.79218 79.707145 
L 229.071249 81.870667 
L 229.350319 85.64023 
L 229.629388 86.994068 
L 229.908458 86.184426 
L 230.466597 89.144326 
L 230.745667 95.07739 
L 231.024736 93.192619 
L 231.303806 94.267747 
L 231.861945 99.922081 
L 232.141015 101.010474 
L 232.420084 101.27594 
L 232.699154 95.887052 
L 232.978223 96.417985 
L 233.536362 107.47447 
L 233.815432 106.930274 
L 234.094502 109.093795 
L 234.373571 108.815065 
L 234.652641 108.815065 
L 234.93171 109.093795 
L 235.21078 113.938487 
L 235.489849 115.026879 
L 235.768919 115.292325 
L 236.047989 117.177117 
L 236.327058 120.137017 
L 236.606128 118.796442 
L 237.164267 113.407554 
L 237.443337 117.986779 
L 237.722406 117.442583 
L 238.001476 114.748129 
L 238.280545 119.606084 
L 238.559615 121.22541 
L 238.838684 120.415747 
L 239.117754 119.061888 
L 239.396824 120.681213 
L 239.675893 117.442583 
L 239.954963 116.367454 
L 240.513102 122.300538 
L 240.792171 122.566004 
L 241.071241 120.415747 
L 241.350311 119.606084 
L 241.62938 117.986779 
L 241.90845 120.137017 
L 242.187519 120.681213 
L 242.466589 120.137017 
L 242.745658 115.557791 
L 243.024728 115.823258 
L 243.303798 115.026879 
L 243.582867 110.978566 
L 243.861937 113.67302 
L 244.141006 113.67302 
L 244.420076 114.482683 
L 244.699145 111.244033 
L 245.257285 113.938487 
L 245.536354 115.292325 
L 245.815424 113.407554 
L 246.094493 114.482683 
L 246.373563 114.748129 
L 246.652633 113.67302 
L 246.931702 114.217217 
L 247.210772 109.624728 
L 247.768911 105.045503 
L 248.04798 108.815065 
L 248.60612 104.51457 
L 248.885189 106.930274 
L 249.164259 106.399362 
L 249.722398 99.656615 
L 250.001467 100.731744 
L 250.559607 98.31604 
L 250.838676 98.31604 
L 251.117746 100.466277 
L 251.396815 100.466277 
L 251.954954 94.811944 
L 252.234024 93.723531 
L 252.513094 93.192619 
L 252.792163 91.573293 
L 253.071233 91.307827 
L 253.350302 88.069197 
L 254.187511 96.417985 
L 254.466581 94.267747 
L 254.74565 96.962181 
L 255.02472 97.771844 
L 255.303789 95.621586 
L 255.582859 95.887052 
L 255.861929 100.731744 
L 256.140998 99.922081 
L 256.420068 96.696715 
L 256.978207 100.466277 
L 257.257276 98.581506 
L 257.536346 100.200811 
L 257.815416 103.426177 
L 258.094485 108.549599 
L 258.373555 107.47447 
L 258.652624 108.284133 
L 258.931694 110.168924 
L 259.210763 116.101988 
L 259.768903 113.67302 
L 260.047972 112.863358 
L 260.327042 110.978566 
L 260.606111 111.244033 
L 261.164251 114.748129 
L 261.44332 113.128824 
L 262.001459 105.589699 
L 262.280529 103.426177 
L 262.559598 106.930274 
L 262.838668 107.47447 
L 263.396807 96.696715 
L 263.675877 96.962181 
L 263.954946 98.846952 
L 264.234016 94.267747 
L 264.513085 93.192619 
L 264.792155 91.307827 
L 265.071225 92.913888 
L 265.350294 96.152518 
L 265.908433 95.07739 
L 266.466572 100.466277 
L 266.745642 99.656615 
L 267.303781 103.704908 
L 267.582851 108.815065 
L 267.86192 108.018667 
L 268.14099 114.217217 
L 268.42006 114.217217 
L 268.699129 113.938487 
L 269.257268 128.499068 
L 269.536338 131.724434 
L 269.815407 132.268631 
L 270.094477 133.887956 
L 270.373547 132.534097 
L 270.931686 140.896149 
L 271.210755 140.896149 
L 271.489825 137.936249 
L 272.047964 141.161615 
L 272.606103 148.97947 
L 272.885173 148.97947 
L 273.443312 154.633824 
L 273.722381 155.443466 
L 274.001451 157.872454 
L 274.280521 157.341522 
L 274.55959 158.416651 
L 274.83866 158.947583 
L 275.117729 158.13792 
L 275.396799 160.832354 
L 275.675869 164.880647 
L 275.954938 167.044168 
L 276.513077 175.392956 
L 276.792147 179.441249 
L 277.071216 180.237627 
L 277.350286 174.039097 
L 277.629356 179.441249 
L 277.908425 179.706715 
L 278.187495 177.012261 
L 278.466564 177.277727 
L 278.745634 178.08739 
L 279.024703 183.476277 
L 279.303773 184.28594 
L 279.582843 184.551386 
L 280.140982 191.559599 
L 280.420051 190.749936 
L 280.699121 192.103795 
L 280.97819 189.674807 
L 281.25726 189.409341 
L 281.815399 200.996779 
L 282.094469 202.350618 
L 282.373538 202.071888 
L 282.652608 200.731313 
L 282.931678 198.302325 
L 283.210747 200.731313 
L 284.047956 204.500876 
L 284.327025 203.147017 
L 284.606095 204.766342 
L 284.885165 203.691213 
L 285.164234 206.929843 
L 285.722373 210.155209 
L 286.280512 211.509068 
L 286.559582 211.243602 
L 286.838652 211.243602 
L 287.117721 206.385647 
L 287.396791 204.766342 
L 287.67586 206.385647 
L 288.233999 214.747698 
L 288.513069 211.774534 
L 288.792139 214.468968 
L 289.071208 215.822827 
L 289.350278 213.39386 
L 289.629347 213.938056 
L 289.908417 211.509068 
L 290.466556 219.326924 
L 290.745626 220.402052 
L 291.024695 218.251815 
L 291.303765 217.973064 
L 291.582834 218.517261 
L 291.861904 217.163402 
L 292.140974 216.63249 
L 292.420043 217.973064 
L 292.699113 217.163402 
L 293.536321 221.477161 
L 293.815391 224.450345 
L 294.094461 222.021378 
L 294.37353 223.096486 
L 294.6526 222.55229 
L 295.210739 225.525474 
L 295.489808 220.946249 
L 295.768878 218.782727 
L 296.047948 218.251815 
L 296.327017 218.782727 
L 296.606087 222.55229 
L 297.164226 225.260008 
L 297.443296 223.906149 
L 297.722365 221.755911 
L 298.001435 221.755911 
L 298.280504 217.973064 
L 298.559574 222.55229 
L 298.838643 220.946249 
L 299.396783 219.326924 
L 299.675852 220.136586 
L 299.954922 222.55229 
L 300.513061 231.179807 
L 300.79213 229.560482 
L 301.0712 225.525474 
L 301.35027 225.525474 
L 301.908409 230.370145 
L 302.187478 229.02957 
L 302.466548 225.525474 
L 303.024687 229.02957 
L 303.303757 225.260008 
L 303.582826 224.450345 
L 303.861896 224.715811 
L 304.140965 223.640682 
L 304.978174 236.037763 
L 305.536313 231.724004 
L 305.815383 233.064599 
L 306.094452 232.254936 
L 306.373522 227.410245 
L 306.931661 230.370145 
L 307.210731 229.560482 
L 307.76887 226.335136 
L 308.327009 231.179807 
L 308.606079 229.839233 
L 308.885148 232.533667 
L 309.164218 226.056386 
L 309.443287 226.335136 
L 309.722357 221.211715 
L 310.001426 222.55229 
L 310.280496 226.056386 
L 310.559566 225.260008 
L 310.838635 222.286823 
L 311.117705 224.981277 
L 311.396774 224.981277 
L 311.675844 229.839233 
L 311.954914 229.839233 
L 312.233983 232.799133 
L 312.513053 229.295036 
L 312.792122 230.370145 
L 313.071192 227.954441 
L 313.350261 230.648895 
L 313.908401 231.724004 
L 314.18747 231.179807 
L 314.46654 234.683914 
L 314.745609 235.22811 
L 315.024679 230.914341 
L 315.303748 229.839233 
L 315.582818 232.799133 
L 315.861888 231.458538 
L 316.140957 232.533667 
L 316.420027 232.799133 
L 316.699096 233.874241 
L 316.978166 233.343329 
L 317.536305 237.922544 
L 317.815375 244.121084 
L 318.094444 241.692107 
L 318.373514 234.962644 
L 318.652583 231.724004 
L 318.931653 233.064599 
L 319.210723 236.847425 
L 319.489792 237.922544 
L 319.768862 239.541869 
L 320.047931 235.22811 
L 320.327001 227.675711 
L 320.60607 228.485374 
L 320.88514 236.568695 
L 321.16421 238.18801 
L 321.443279 233.343329 
L 321.722349 233.343329 
L 322.001418 233.874241 
L 322.280488 236.037763 
L 322.559557 234.683914 
L 322.838627 234.683914 
L 323.117697 232.254936 
L 323.396766 235.759032 
L 323.675836 232.533667 
L 323.954905 235.22811 
L 324.233975 234.962644 
L 324.792114 233.608795 
L 325.071184 231.724004 
L 325.350253 234.962644 
L 325.629323 236.037763 
L 325.908392 236.568695 
L 326.187462 237.657088 
L 326.466532 234.152992 
L 326.745601 234.683914 
L 327.30374 241.426651 
L 327.58281 238.997673 
L 327.861879 233.608795 
L 328.140949 234.683914 
L 328.420019 237.922544 
L 328.699088 237.922544 
L 328.978158 238.732207 
L 329.257227 238.18801 
L 329.536297 238.997673 
L 329.815366 238.732207 
L 330.094436 238.18801 
L 330.373506 238.18801 
L 330.931645 243.045966 
L 331.210714 240.616988 
L 331.489784 235.22811 
L 331.768853 236.568695 
L 332.047923 236.037763 
L 332.326993 237.657088 
L 332.606062 237.378348 
L 333.164201 231.98947 
L 333.443271 234.962644 
L 333.722341 235.759032 
L 334.28048 231.98947 
L 334.559549 236.568695 
L 334.838619 237.378348 
L 335.117688 241.957573 
L 335.675828 240.072791 
L 336.233967 230.914341 
L 336.513036 232.254936 
L 336.792106 232.533667 
L 337.071175 234.683914 
L 337.350245 234.683914 
L 337.629315 239.263129 
L 338.187454 243.576888 
L 338.466523 241.692107 
L 338.745593 235.759032 
L 339.024662 235.759032 
L 339.303732 240.072791 
L 339.582802 239.541869 
L 340.140941 233.343329 
L 340.42001 234.418448 
L 340.69908 236.303229 
L 340.97815 233.064599 
L 341.257219 232.533667 
L 341.536289 233.064599 
L 341.815358 233.064599 
L 342.373497 231.98947 
L 342.652567 234.683914 
L 343.210706 237.112892 
L 343.489776 233.064599 
L 343.768845 230.914341 
L 344.047915 232.799133 
L 344.326984 230.370145 
L 344.606054 230.370145 
L 345.164193 231.98947 
L 345.443263 231.458538 
L 345.722332 231.98947 
L 346.001402 230.914341 
L 346.280471 231.458538 
L 346.559541 227.675711 
L 346.838611 226.600582 
L 347.11768 226.866048 
L 347.39675 226.600582 
L 347.675819 227.144779 
L 347.954889 227.954441 
L 348.233959 224.715811 
L 348.513028 225.79092 
L 349.071167 224.450345 
L 349.350237 224.171615 
L 349.908376 232.254936 
L 350.187446 230.370145 
L 350.466515 232.533667 
L 350.745585 233.064599 
L 351.303724 230.104679 
L 351.861863 227.954441 
L 352.420002 221.755911 
L 352.978141 229.02957 
L 353.53628 219.326924 
L 353.81535 223.640682 
L 354.373489 225.79092 
L 354.652559 224.981277 
L 354.931628 227.144779 
L 355.210698 227.954441 
L 355.489768 226.600582 
L 355.768837 224.171615 
L 356.047907 223.096486 
L 356.606046 229.02957 
L 356.885115 227.410245 
L 357.164185 226.600582 
L 357.443255 229.295036 
L 357.722324 229.560482 
L 358.001394 227.410245 
L 358.280463 228.764104 
L 358.559533 227.675711 
L 359.396742 222.021378 
L 359.675811 222.83102 
L 359.954881 224.171615 
L 360.23395 223.640682 
L 360.51302 222.286823 
L 361.071159 223.906149 
L 361.350229 222.83102 
L 361.629298 224.981277 
L 361.908368 224.715811 
L 362.466507 224.715811 
L 362.745577 225.79092 
L 363.024646 226.056386 
L 363.303716 224.171615 
L 363.582785 220.667518 
L 364.140924 219.061457 
L 364.419994 220.667518 
L 364.699064 220.136586 
L 364.978133 223.640682 
L 365.257203 224.715811 
L 365.536272 219.326924 
L 365.815342 221.755911 
L 366.094411 228.764104 
L 366.373481 231.458538 
L 366.652551 223.906149 
L 366.93162 220.136586 
L 367.21069 219.857856 
L 367.489759 225.260008 
L 367.768829 225.525474 
L 368.326968 223.361952 
L 368.606038 229.295036 
L 368.885107 227.410245 
L 369.164177 220.946249 
L 369.443246 219.59239 
L 369.722316 227.954441 
L 370.001386 229.560482 
L 370.559525 221.211715 
L 370.838594 223.640682 
L 371.117664 224.715811 
L 371.396733 225.260008 
L 371.675803 226.866048 
L 371.954873 226.600582 
L 372.233942 224.715811 
L 372.513012 219.857856 
L 372.792081 218.782727 
L 373.35022 222.021378 
L 373.90836 218.782727 
L 374.187429 223.096486 
L 374.466499 224.171615 
L 374.745568 223.906149 
L 375.024638 223.906149 
L 375.303707 221.477161 
L 375.582777 221.211715 
L 375.861847 217.707619 
L 376.140916 206.651113 
L 376.419986 215.822827 
L 376.699055 238.18801 
L 376.978125 223.640682 
L 377.257195 215.822827 
L 377.536264 218.251815 
L 377.815334 225.79092 
L 378.373473 259.478064 
L 378.652542 230.914341 
L 378.931612 223.361952 
L 379.210682 227.954441 
L 379.489751 225.525474 
L 379.768821 220.402052 
L 380.04789 219.061457 
L 380.32696 215.822827 
L 380.606029 214.203502 
L 381.164169 206.385647 
L 381.443238 208.270438 
L 381.722308 214.203502 
L 382.001377 216.897956 
L 382.280447 211.774534 
L 382.838586 216.088293 
L 383.117656 219.59239 
L 383.396725 219.061457 
L 383.675795 216.088293 
L 383.954864 217.707619 
L 384.233934 216.897956 
L 384.513003 226.335136 
L 384.792073 227.410245 
L 385.071143 226.600582 
L 385.350212 223.640682 
L 385.629282 223.096486 
L 385.908351 219.326924 
L 386.187421 221.755911 
L 386.466491 225.260008 
L 386.74556 223.640682 
L 387.02463 221.211715 
L 387.303699 216.088293 
L 387.582769 213.659306 
L 387.861838 215.822827 
L 388.140908 216.63249 
L 388.419978 218.251815 
L 388.699047 216.897956 
L 388.978117 208.549168 
L 388.978117 208.549168 
" style="fill:none;stroke:#1f77b4;stroke-linecap:round;stroke-width:1.5;"/>
   </g>
   <g id="patch_3">
    <path d="M 54 252 
L 54 34.56 
" style="fill:none;stroke:#cccccc;stroke-linecap:square;stroke-linejoin:miter;stroke-width:0.8;"/>
   </g>
   <g id="patch_4">
    <path d="M 388.8 252 
L 388.8 34.56 
" style="fill:none;stroke:#cccccc;stroke-linecap:square;stroke-linejoin:miter;stroke-width:0.8;"/>
   </g>
   <g id="patch_5">
    <path d="M 54 252 
L 388.8 252 
" style="fill:none;stroke:#cccccc;stroke-linecap:square;stroke-linejoin:miter;stroke-width:0.8;"/>
   </g>
   <g id="patch_6">
    <path d="M 54 34.56 
L 388.8 34.56 
" style="fill:none;stroke:#cccccc;stroke-linecap:square;stroke-linejoin:miter;stroke-width:0.8;"/>
   </g>
  </g>
 </g>
 <defs>
  <clipPath id="p935050d0ea">
   <rect height="217.44" width="334.8" x="54" y="34.56"/>
  </clipPath>
 </defs>
</svg>
