<?xml version="1.0" encoding="utf-8" standalone="no"?>
<!DOCTYPE svg PUBLIC "-//W3C//DTD SVG 1.1//EN"
  "http://www.w3.org/Graphics/SVG/1.1/DTD/svg11.dtd">
<!-- Created with matplotlib (https://matplotlib.org/) -->
<svg height="288pt" version="1.1" viewBox="0 0 432 288" width="432pt" xmlns="http://www.w3.org/2000/svg" xmlns:xlink="http://www.w3.org/1999/xlink">
 <metadata>
  <rdf:RDF xmlns:cc="http://creativecommons.org/ns#" xmlns:dc="http://purl.org/dc/elements/1.1/" xmlns:rdf="http://www.w3.org/1999/02/22-rdf-syntax-ns#">
   <cc:Work>
    <dc:type rdf:resource="http://purl.org/dc/dcmitype/StillImage"/>
    <dc:date>2022-05-25T22:54:20.429218</dc:date>
    <dc:format>image/svg+xml</dc:format>
    <dc:creator>
     <cc:Agent>
      <dc:title>Matplotlib v3.3.3, https://matplotlib.org/</dc:title>
     </cc:Agent>
    </dc:creator>
   </cc:Work>
  </rdf:RDF>
 </metadata>
 <defs>
  <style type="text/css">*{stroke-linecap:butt;stroke-linejoin:round;}</style>
 </defs>
 <g id="figure_1">
  <g id="patch_1">
   <path d="M 0 288 
L 432 288 
L 432 0 
L 0 0 
z
" style="fill:#ffffff;"/>
  </g>
  <g id="axes_1">
   <g id="patch_2">
    <path d="M 54 252 
L 388.8 252 
L 388.8 34.56 
L 54 34.56 
z
" style="fill:#ffffff;"/>
   </g>
   <g id="matplotlib.axis_1">
    <g id="xtick_1">
     <g id="line2d_1">
      <path clip-path="url(#p7e185a90ac)" d="M 54 252 
L 54 34.56 
" style="fill:none;stroke:#cccccc;stroke-linecap:round;stroke-width:0.8;"/>
     </g>
     <g id="text_1">
      <!-- 5.0 -->
      <g style="fill:#262626;" transform="translate(47.05 266.157812)scale(0.1 -0.1)">
       <defs>
        <path d="M 4.15625 18.75 
L 13.375 19.53125 
Q 14.40625 12.796875 18.140625 9.390625 
Q 21.875 6 27.15625 6 
Q 33.5 6 37.890625 10.78125 
Q 42.28125 15.578125 42.28125 23.484375 
Q 42.28125 31 38.0625 35.34375 
Q 33.84375 39.703125 27 39.703125 
Q 22.75 39.703125 19.328125 37.765625 
Q 15.921875 35.84375 13.96875 32.765625 
L 5.71875 33.84375 
L 12.640625 70.609375 
L 48.25 70.609375 
L 48.25 62.203125 
L 19.671875 62.203125 
L 15.828125 42.96875 
Q 22.265625 47.46875 29.34375 47.46875 
Q 38.71875 47.46875 45.15625 40.96875 
Q 51.609375 34.46875 51.609375 24.265625 
Q 51.609375 14.546875 45.953125 7.46875 
Q 39.0625 -1.21875 27.15625 -1.21875 
Q 17.390625 -1.21875 11.203125 4.25 
Q 5.03125 9.71875 4.15625 18.75 
z
" id="ArialMT-53"/>
        <path d="M 9.078125 0 
L 9.078125 10.015625 
L 19.09375 10.015625 
L 19.09375 0 
z
" id="ArialMT-46"/>
        <path d="M 4.15625 35.296875 
Q 4.15625 48 6.765625 55.734375 
Q 9.375 63.484375 14.515625 67.671875 
Q 19.671875 71.875 27.484375 71.875 
Q 33.25 71.875 37.59375 69.546875 
Q 41.9375 67.234375 44.765625 62.859375 
Q 47.609375 58.5 49.21875 52.21875 
Q 50.828125 45.953125 50.828125 35.296875 
Q 50.828125 22.703125 48.234375 14.96875 
Q 45.65625 7.234375 40.5 3 
Q 35.359375 -1.21875 27.484375 -1.21875 
Q 17.140625 -1.21875 11.234375 6.203125 
Q 4.15625 15.140625 4.15625 35.296875 
z
M 13.1875 35.296875 
Q 13.1875 17.671875 17.3125 11.828125 
Q 21.4375 6 27.484375 6 
Q 33.546875 6 37.671875 11.859375 
Q 41.796875 17.71875 41.796875 35.296875 
Q 41.796875 52.984375 37.671875 58.78125 
Q 33.546875 64.59375 27.390625 64.59375 
Q 21.34375 64.59375 17.71875 59.46875 
Q 13.1875 52.9375 13.1875 35.296875 
z
" id="ArialMT-48"/>
       </defs>
       <use xlink:href="#ArialMT-53"/>
       <use x="55.615234" xlink:href="#ArialMT-46"/>
       <use x="83.398438" xlink:href="#ArialMT-48"/>
      </g>
     </g>
    </g>
    <g id="xtick_2">
     <g id="line2d_2">
      <path clip-path="url(#p7e185a90ac)" d="M 109.8 252 
L 109.8 34.56 
" style="fill:none;stroke:#cccccc;stroke-linecap:round;stroke-width:0.8;"/>
     </g>
     <g id="text_2">
      <!-- 5.5 -->
      <g style="fill:#262626;" transform="translate(102.85 266.157812)scale(0.1 -0.1)">
       <use xlink:href="#ArialMT-53"/>
       <use x="55.615234" xlink:href="#ArialMT-46"/>
       <use x="83.398438" xlink:href="#ArialMT-53"/>
      </g>
     </g>
    </g>
    <g id="xtick_3">
     <g id="line2d_3">
      <path clip-path="url(#p7e185a90ac)" d="M 165.6 252 
L 165.6 34.56 
" style="fill:none;stroke:#cccccc;stroke-linecap:round;stroke-width:0.8;"/>
     </g>
     <g id="text_3">
      <!-- 6.0 -->
      <g style="fill:#262626;" transform="translate(158.65 266.157812)scale(0.1 -0.1)">
       <defs>
        <path d="M 49.75 54.046875 
L 41.015625 53.375 
Q 39.84375 58.546875 37.703125 60.890625 
Q 34.125 64.65625 28.90625 64.65625 
Q 24.703125 64.65625 21.53125 62.3125 
Q 17.390625 59.28125 14.984375 53.46875 
Q 12.59375 47.65625 12.5 36.921875 
Q 15.671875 41.75 20.265625 44.09375 
Q 24.859375 46.4375 29.890625 46.4375 
Q 38.671875 46.4375 44.84375 39.96875 
Q 51.03125 33.5 51.03125 23.25 
Q 51.03125 16.5 48.125 10.71875 
Q 45.21875 4.9375 40.140625 1.859375 
Q 35.0625 -1.21875 28.609375 -1.21875 
Q 17.625 -1.21875 10.6875 6.859375 
Q 3.765625 14.9375 3.765625 33.5 
Q 3.765625 54.25 11.421875 63.671875 
Q 18.109375 71.875 29.4375 71.875 
Q 37.890625 71.875 43.28125 67.140625 
Q 48.6875 62.40625 49.75 54.046875 
z
M 13.875 23.1875 
Q 13.875 18.65625 15.796875 14.5 
Q 17.71875 10.359375 21.1875 8.171875 
Q 24.65625 6 28.46875 6 
Q 34.03125 6 38.03125 10.484375 
Q 42.046875 14.984375 42.046875 22.703125 
Q 42.046875 30.125 38.078125 34.390625 
Q 34.125 38.671875 28.125 38.671875 
Q 22.171875 38.671875 18.015625 34.390625 
Q 13.875 30.125 13.875 23.1875 
z
" id="ArialMT-54"/>
       </defs>
       <use xlink:href="#ArialMT-54"/>
       <use x="55.615234" xlink:href="#ArialMT-46"/>
       <use x="83.398438" xlink:href="#ArialMT-48"/>
      </g>
     </g>
    </g>
    <g id="xtick_4">
     <g id="line2d_4">
      <path clip-path="url(#p7e185a90ac)" d="M 221.4 252 
L 221.4 34.56 
" style="fill:none;stroke:#cccccc;stroke-linecap:round;stroke-width:0.8;"/>
     </g>
     <g id="text_4">
      <!-- 6.5 -->
      <g style="fill:#262626;" transform="translate(214.45 266.157812)scale(0.1 -0.1)">
       <use xlink:href="#ArialMT-54"/>
       <use x="55.615234" xlink:href="#ArialMT-46"/>
       <use x="83.398438" xlink:href="#ArialMT-53"/>
      </g>
     </g>
    </g>
    <g id="xtick_5">
     <g id="line2d_5">
      <path clip-path="url(#p7e185a90ac)" d="M 277.2 252 
L 277.2 34.56 
" style="fill:none;stroke:#cccccc;stroke-linecap:round;stroke-width:0.8;"/>
     </g>
     <g id="text_5">
      <!-- 7.0 -->
      <g style="fill:#262626;" transform="translate(270.25 266.157812)scale(0.1 -0.1)">
       <defs>
        <path d="M 4.734375 62.203125 
L 4.734375 70.65625 
L 51.078125 70.65625 
L 51.078125 63.8125 
Q 44.234375 56.546875 37.515625 44.484375 
Q 30.8125 32.421875 27.15625 19.671875 
Q 24.515625 10.6875 23.78125 0 
L 14.75 0 
Q 14.890625 8.453125 18.0625 20.40625 
Q 21.234375 32.375 27.171875 43.484375 
Q 33.109375 54.59375 39.796875 62.203125 
z
" id="ArialMT-55"/>
       </defs>
       <use xlink:href="#ArialMT-55"/>
       <use x="55.615234" xlink:href="#ArialMT-46"/>
       <use x="83.398438" xlink:href="#ArialMT-48"/>
      </g>
     </g>
    </g>
    <g id="xtick_6">
     <g id="line2d_6">
      <path clip-path="url(#p7e185a90ac)" d="M 333 252 
L 333 34.56 
" style="fill:none;stroke:#cccccc;stroke-linecap:round;stroke-width:0.8;"/>
     </g>
     <g id="text_6">
      <!-- 7.5 -->
      <g style="fill:#262626;" transform="translate(326.05 266.157812)scale(0.1 -0.1)">
       <use xlink:href="#ArialMT-55"/>
       <use x="55.615234" xlink:href="#ArialMT-46"/>
       <use x="83.398438" xlink:href="#ArialMT-53"/>
      </g>
     </g>
    </g>
    <g id="xtick_7">
     <g id="line2d_7">
      <path clip-path="url(#p7e185a90ac)" d="M 388.8 252 
L 388.8 34.56 
" style="fill:none;stroke:#cccccc;stroke-linecap:round;stroke-width:0.8;"/>
     </g>
     <g id="text_7">
      <!-- 8.0 -->
      <g style="fill:#262626;" transform="translate(381.85 266.157812)scale(0.1 -0.1)">
       <defs>
        <path d="M 17.671875 38.8125 
Q 12.203125 40.828125 9.5625 44.53125 
Q 6.9375 48.25 6.9375 53.421875 
Q 6.9375 61.234375 12.546875 66.546875 
Q 18.171875 71.875 27.484375 71.875 
Q 36.859375 71.875 42.578125 66.421875 
Q 48.296875 60.984375 48.296875 53.171875 
Q 48.296875 48.1875 45.671875 44.5 
Q 43.0625 40.828125 37.75 38.8125 
Q 44.34375 36.671875 47.78125 31.875 
Q 51.21875 27.09375 51.21875 20.453125 
Q 51.21875 11.28125 44.71875 5.03125 
Q 38.234375 -1.21875 27.640625 -1.21875 
Q 17.046875 -1.21875 10.546875 5.046875 
Q 4.046875 11.328125 4.046875 20.703125 
Q 4.046875 27.6875 7.59375 32.390625 
Q 11.140625 37.109375 17.671875 38.8125 
z
M 15.921875 53.71875 
Q 15.921875 48.640625 19.1875 45.40625 
Q 22.46875 42.1875 27.6875 42.1875 
Q 32.765625 42.1875 36.015625 45.375 
Q 39.265625 48.578125 39.265625 53.21875 
Q 39.265625 58.0625 35.90625 61.359375 
Q 32.5625 64.65625 27.59375 64.65625 
Q 22.5625 64.65625 19.234375 61.421875 
Q 15.921875 58.203125 15.921875 53.71875 
z
M 13.09375 20.65625 
Q 13.09375 16.890625 14.875 13.375 
Q 16.65625 9.859375 20.171875 7.921875 
Q 23.6875 6 27.734375 6 
Q 34.03125 6 38.125 10.046875 
Q 42.234375 14.109375 42.234375 20.359375 
Q 42.234375 26.703125 38.015625 30.859375 
Q 33.796875 35.015625 27.4375 35.015625 
Q 21.234375 35.015625 17.15625 30.90625 
Q 13.09375 26.8125 13.09375 20.65625 
z
" id="ArialMT-56"/>
       </defs>
       <use xlink:href="#ArialMT-56"/>
       <use x="55.615234" xlink:href="#ArialMT-46"/>
       <use x="83.398438" xlink:href="#ArialMT-48"/>
      </g>
     </g>
    </g>
    <g id="text_8">
     <!-- 1e−5 -->
     <g style="fill:#262626;" transform="translate(366.276563 278.303125)scale(0.1 -0.1)">
      <defs>
       <path d="M 37.25 0 
L 28.46875 0 
L 28.46875 56 
Q 25.296875 52.984375 20.140625 49.953125 
Q 14.984375 46.921875 10.890625 45.40625 
L 10.890625 53.90625 
Q 18.265625 57.375 23.78125 62.296875 
Q 29.296875 67.234375 31.59375 71.875 
L 37.25 71.875 
z
" id="ArialMT-49"/>
       <path d="M 42.09375 16.703125 
L 51.171875 15.578125 
Q 49.03125 7.625 43.21875 3.21875 
Q 37.40625 -1.171875 28.375 -1.171875 
Q 17 -1.171875 10.328125 5.828125 
Q 3.65625 12.84375 3.65625 25.484375 
Q 3.65625 38.578125 10.390625 45.796875 
Q 17.140625 53.03125 27.875 53.03125 
Q 38.28125 53.03125 44.875 45.953125 
Q 51.46875 38.875 51.46875 26.03125 
Q 51.46875 25.25 51.421875 23.6875 
L 12.75 23.6875 
Q 13.234375 15.140625 17.578125 10.59375 
Q 21.921875 6.0625 28.421875 6.0625 
Q 33.25 6.0625 36.671875 8.59375 
Q 40.09375 11.140625 42.09375 16.703125 
z
M 13.234375 30.90625 
L 42.1875 30.90625 
Q 41.609375 37.453125 38.875 40.71875 
Q 34.671875 45.796875 27.984375 45.796875 
Q 21.921875 45.796875 17.796875 41.75 
Q 13.671875 37.703125 13.234375 30.90625 
z
" id="ArialMT-101"/>
       <path d="M 52.828125 31.203125 
L 5.5625 31.203125 
L 5.5625 39.40625 
L 52.828125 39.40625 
z
" id="ArialMT-8722"/>
      </defs>
      <use xlink:href="#ArialMT-49"/>
      <use x="55.615234" xlink:href="#ArialMT-101"/>
      <use x="111.230469" xlink:href="#ArialMT-8722"/>
      <use x="169.628906" xlink:href="#ArialMT-53"/>
     </g>
    </g>
   </g>
   <g id="matplotlib.axis_2">
    <g id="ytick_1">
     <g id="line2d_8">
      <path clip-path="url(#p7e185a90ac)" d="M 54 232.232727 
L 388.8 232.232727 
" style="fill:none;stroke:#cccccc;stroke-linecap:round;stroke-width:0.8;"/>
     </g>
     <g id="text_9">
      <!-- 0.008 -->
      <g style="fill:#262626;" transform="translate(21.978125 235.811634)scale(0.1 -0.1)">
       <use xlink:href="#ArialMT-48"/>
       <use x="55.615234" xlink:href="#ArialMT-46"/>
       <use x="83.398438" xlink:href="#ArialMT-48"/>
       <use x="139.013672" xlink:href="#ArialMT-48"/>
       <use x="194.628906" xlink:href="#ArialMT-56"/>
      </g>
     </g>
    </g>
    <g id="ytick_2">
     <g id="line2d_9">
      <path clip-path="url(#p7e185a90ac)" d="M 54 192.698182 
L 388.8 192.698182 
" style="fill:none;stroke:#cccccc;stroke-linecap:round;stroke-width:0.8;"/>
     </g>
     <g id="text_10">
      <!-- 0.010 -->
      <g style="fill:#262626;" transform="translate(21.978125 196.277088)scale(0.1 -0.1)">
       <use xlink:href="#ArialMT-48"/>
       <use x="55.615234" xlink:href="#ArialMT-46"/>
       <use x="83.398438" xlink:href="#ArialMT-48"/>
       <use x="139.013672" xlink:href="#ArialMT-49"/>
       <use x="194.628906" xlink:href="#ArialMT-48"/>
      </g>
     </g>
    </g>
    <g id="ytick_3">
     <g id="line2d_10">
      <path clip-path="url(#p7e185a90ac)" d="M 54 153.163636 
L 388.8 153.163636 
" style="fill:none;stroke:#cccccc;stroke-linecap:round;stroke-width:0.8;"/>
     </g>
     <g id="text_11">
      <!-- 0.012 -->
      <g style="fill:#262626;" transform="translate(21.978125 156.742543)scale(0.1 -0.1)">
       <defs>
        <path d="M 50.34375 8.453125 
L 50.34375 0 
L 3.03125 0 
Q 2.9375 3.171875 4.046875 6.109375 
Q 5.859375 10.9375 9.828125 15.625 
Q 13.8125 20.3125 21.34375 26.46875 
Q 33.015625 36.03125 37.109375 41.625 
Q 41.21875 47.21875 41.21875 52.203125 
Q 41.21875 57.421875 37.46875 61 
Q 33.734375 64.59375 27.734375 64.59375 
Q 21.390625 64.59375 17.578125 60.78125 
Q 13.765625 56.984375 13.71875 50.25 
L 4.6875 51.171875 
Q 5.609375 61.28125 11.65625 66.578125 
Q 17.71875 71.875 27.9375 71.875 
Q 38.234375 71.875 44.234375 66.15625 
Q 50.25 60.453125 50.25 52 
Q 50.25 47.703125 48.484375 43.546875 
Q 46.734375 39.40625 42.65625 34.8125 
Q 38.578125 30.21875 29.109375 22.21875 
Q 21.1875 15.578125 18.9375 13.203125 
Q 16.703125 10.84375 15.234375 8.453125 
z
" id="ArialMT-50"/>
       </defs>
       <use xlink:href="#ArialMT-48"/>
       <use x="55.615234" xlink:href="#ArialMT-46"/>
       <use x="83.398438" xlink:href="#ArialMT-48"/>
       <use x="139.013672" xlink:href="#ArialMT-49"/>
       <use x="194.628906" xlink:href="#ArialMT-50"/>
      </g>
     </g>
    </g>
    <g id="ytick_4">
     <g id="line2d_11">
      <path clip-path="url(#p7e185a90ac)" d="M 54 113.629091 
L 388.8 113.629091 
" style="fill:none;stroke:#cccccc;stroke-linecap:round;stroke-width:0.8;"/>
     </g>
     <g id="text_12">
      <!-- 0.014 -->
      <g style="fill:#262626;" transform="translate(21.978125 117.207997)scale(0.1 -0.1)">
       <defs>
        <path d="M 32.328125 0 
L 32.328125 17.140625 
L 1.265625 17.140625 
L 1.265625 25.203125 
L 33.9375 71.578125 
L 41.109375 71.578125 
L 41.109375 25.203125 
L 50.78125 25.203125 
L 50.78125 17.140625 
L 41.109375 17.140625 
L 41.109375 0 
z
M 32.328125 25.203125 
L 32.328125 57.46875 
L 9.90625 25.203125 
z
" id="ArialMT-52"/>
       </defs>
       <use xlink:href="#ArialMT-48"/>
       <use x="55.615234" xlink:href="#ArialMT-46"/>
       <use x="83.398438" xlink:href="#ArialMT-48"/>
       <use x="139.013672" xlink:href="#ArialMT-49"/>
       <use x="194.628906" xlink:href="#ArialMT-52"/>
      </g>
     </g>
    </g>
    <g id="ytick_5">
     <g id="line2d_12">
      <path clip-path="url(#p7e185a90ac)" d="M 54 74.094545 
L 388.8 74.094545 
" style="fill:none;stroke:#cccccc;stroke-linecap:round;stroke-width:0.8;"/>
     </g>
     <g id="text_13">
      <!-- 0.016 -->
      <g style="fill:#262626;" transform="translate(21.978125 77.673452)scale(0.1 -0.1)">
       <use xlink:href="#ArialMT-48"/>
       <use x="55.615234" xlink:href="#ArialMT-46"/>
       <use x="83.398438" xlink:href="#ArialMT-48"/>
       <use x="139.013672" xlink:href="#ArialMT-49"/>
       <use x="194.628906" xlink:href="#ArialMT-54"/>
      </g>
     </g>
    </g>
    <g id="ytick_6">
     <g id="line2d_13">
      <path clip-path="url(#p7e185a90ac)" d="M 54 34.56 
L 388.8 34.56 
" style="fill:none;stroke:#cccccc;stroke-linecap:round;stroke-width:0.8;"/>
     </g>
     <g id="text_14">
      <!-- 0.018 -->
      <g style="fill:#262626;" transform="translate(21.978125 38.138906)scale(0.1 -0.1)">
       <use xlink:href="#ArialMT-48"/>
       <use x="55.615234" xlink:href="#ArialMT-46"/>
       <use x="83.398438" xlink:href="#ArialMT-48"/>
       <use x="139.013672" xlink:href="#ArialMT-49"/>
       <use x="194.628906" xlink:href="#ArialMT-56"/>
      </g>
     </g>
    </g>
   </g>
   <g id="line2d_14">
    <path clip-path="url(#p7e185a90ac)" d="M 53.930208 195.340734 
L 54.069726 195.835458 
L 54.34876 194.363363 
L 54.488278 192.649916 
L 54.627795 194.363363 
L 54.767313 190.936488 
L 54.90683 191.913859 
L 55.185865 194.363363 
L 55.325382 193.627306 
L 55.4649 191.672526 
L 55.604417 192.891249 
L 55.883452 196.318124 
L 56.162487 198.284962 
L 56.302004 198.284962 
L 56.581039 192.891249 
L 57.139109 199.262333 
L 57.278627 196.076791 
L 57.418144 196.812848 
L 57.557661 201.229171 
L 57.697179 199.262333 
L 57.836696 199.99839 
L 58.115731 198.043629 
L 58.255249 198.526276 
L 58.673801 194.858087 
L 58.813318 199.262333 
L 58.952836 198.284962 
L 59.092353 195.582067 
L 59.231871 196.571515 
L 59.371388 201.229171 
L 59.510905 201.229171 
L 59.929458 194.12203 
L 60.068975 194.363363 
L 60.208493 192.891249 
L 60.766562 199.262333 
L 60.90608 199.021 
L 61.045597 194.858087 
L 61.185115 196.076791 
L 61.464149 205.392103 
L 61.603667 203.425265 
L 61.882702 193.385973 
L 62.022219 194.604677 
L 62.161737 196.812848 
L 62.301254 196.812848 
L 62.440771 195.835458 
L 62.580289 192.408583 
L 62.719806 194.604677 
L 62.859324 193.868639 
L 62.998841 192.408583 
L 63.417393 194.12203 
L 63.556911 190.441764 
L 63.696428 191.177802 
L 63.835946 196.076791 
L 63.975463 196.318124 
L 64.114981 196.076791 
L 64.254498 196.076791 
L 64.394016 199.503666 
L 64.67305 199.503666 
L 64.812568 200.493114 
L 65.23112 194.604677 
L 65.370638 193.868639 
L 65.510155 194.363363 
L 65.649672 194.363363 
L 65.78919 195.099401 
L 65.928707 193.868639 
L 66.34726 195.340734 
L 66.486777 192.891249 
L 66.626294 193.868639 
L 66.765812 193.627306 
L 66.905329 194.12203 
L 67.044847 190.683078 
L 67.602916 198.284962 
L 67.881951 193.385973 
L 68.160986 196.812848 
L 68.300504 196.571515 
L 68.719056 190.683078 
L 68.858573 190.441764 
L 69.277126 196.812848 
L 69.416643 191.913859 
L 69.55616 191.672526 
L 69.695678 193.868639 
L 69.835195 192.155192 
L 70.11423 194.604677 
L 70.253748 193.868639 
L 70.393265 191.672526 
L 70.532782 195.099401 
L 70.6723 193.627306 
L 70.811817 193.385973 
L 70.951335 188.486984 
L 71.369887 193.627306 
L 71.509405 192.155192 
L 71.648922 192.155192 
L 71.788439 189.705707 
L 71.927957 191.177802 
L 72.206992 196.076791 
L 72.486027 194.12203 
L 72.904579 203.425265 
L 73.323131 200.239723 
L 73.462649 197.054181 
L 73.741683 189.705707 
L 73.881201 197.307572 
L 74.020718 198.284962 
L 74.160236 201.470504 
L 74.299753 197.790238 
L 74.439271 198.767609 
L 74.578788 197.790238 
L 74.718305 200.493114 
L 74.857823 199.99839 
L 74.99734 200.97578 
L 75.276375 198.526276 
L 75.415893 199.021 
L 75.694927 194.604677 
L 75.834445 195.582067 
L 75.973962 198.043629 
L 76.11348 198.284962 
L 76.252997 198.767609 
L 76.392515 201.470504 
L 76.811067 194.858087 
L 76.950584 196.571515 
L 77.090102 194.858087 
L 77.369137 194.363363 
L 77.508654 195.582067 
L 77.648171 200.97578 
L 77.787689 200.734447 
L 77.927206 201.953151 
L 78.206241 194.363363 
L 78.485276 199.021 
L 78.624794 200.493114 
L 78.903828 206.610807 
L 79.043346 207.346864 
L 79.182863 205.138712 
L 79.322381 206.864198 
L 79.461898 206.864198 
L 79.88045 205.138712 
L 80.019968 207.105531 
L 80.299003 205.87475 
L 80.43852 205.633436 
L 80.717555 214.695338 
L 80.857072 213.717948 
L 81.275625 208.082921 
L 81.415142 212.00452 
L 81.55466 212.245853 
L 81.694177 209.060311 
L 82.112729 218.616937 
L 82.252247 216.167452 
L 82.531282 222.05587 
L 82.670799 219.111661 
L 82.810316 218.870328 
L 82.949834 217.144823 
L 83.089351 219.352994 
L 83.228869 217.398233 
L 83.368386 218.134271 
L 83.647421 220.825108 
L 83.926456 215.190062 
L 84.065973 215.431395 
L 84.205491 215.926119 
L 84.345008 221.802479 
L 84.484526 221.319832 
L 84.624043 220.330365 
L 84.76356 221.066422 
L 84.903078 218.375604 
L 85.042595 221.561146 
L 85.182113 221.066422 
L 85.32163 222.297203 
L 85.461148 221.561146 
L 85.740183 219.352994 
L 86.019217 225.724078 
L 86.158735 225.724078 
L 86.298252 226.701468 
L 86.43777 226.701468 
L 86.856322 223.515926 
L 86.995839 223.274593 
L 87.135357 220.825108 
L 87.414392 226.701468 
L 87.553909 226.701468 
L 87.693427 227.437525 
L 87.972461 225.965411 
L 88.111979 225.965411 
L 88.251496 227.932249 
L 88.391014 227.690916 
L 88.530531 228.414896 
L 88.670049 230.140401 
L 88.809566 230.381734 
L 89.088601 232.831219 
L 89.367636 230.623067 
L 89.646671 231.600438 
L 89.786188 230.381734 
L 89.925705 228.173563 
L 90.065223 229.88701 
L 90.344258 228.173563 
L 90.623293 234.303333 
L 90.76281 235.03939 
L 91.32088 230.381734 
L 91.460397 230.876458 
L 91.599915 230.876458 
L 91.878949 234.785999 
L 92.018467 234.785999 
L 92.157984 234.544666 
L 92.437019 229.404344 
L 92.716054 238.224932 
L 92.995089 232.589905 
L 93.134606 232.589905 
L 93.274124 232.095162 
L 93.553159 228.414896 
L 93.832194 231.359124 
L 93.971711 231.600438 
L 94.111228 233.072552 
L 94.250746 232.095162 
L 94.390263 233.325943 
L 94.529781 233.567276 
L 94.808816 230.876458 
L 95.227368 229.645677 
L 95.366885 230.381734 
L 95.506403 229.404344 
L 95.924955 232.095162 
L 96.064472 231.853848 
L 96.483025 224.746707 
L 96.622542 224.746707 
L 96.76206 226.460135 
L 96.901577 226.701468 
L 97.041094 230.381734 
L 97.180612 229.645677 
L 97.320129 224.988021 
L 97.459647 225.724078 
L 97.878199 233.072552 
L 98.017716 231.359124 
L 98.157234 227.437525 
L 98.296751 227.196192 
L 98.436269 230.876458 
L 98.575786 230.140401 
L 98.715304 231.600438 
L 98.854821 229.404344 
L 99.133856 230.623067 
L 99.273373 230.876458 
L 99.412891 230.140401 
L 99.691926 232.831219 
L 99.831443 232.336495 
L 99.970961 225.965411 
L 100.52903 232.095162 
L 100.668548 228.173563 
L 100.947583 230.381734 
L 101.0871 233.808609 
L 101.366135 233.325943 
L 101.505652 236.511495 
L 101.64517 232.336495 
L 101.784687 232.336495 
L 102.063722 236.258104 
L 102.482274 232.095162 
L 102.621792 232.831219 
L 102.761309 231.359124 
L 102.900827 231.600438 
L 103.040344 229.88701 
L 103.319379 233.567276 
L 103.458896 233.808609 
L 103.598414 231.359124 
L 103.737931 232.095162 
L 103.877449 230.623067 
L 104.156483 234.785999 
L 104.296001 234.049942 
L 104.435518 234.785999 
L 104.714553 237.488875 
L 104.854071 237.730208 
L 105.133105 240.179703 
L 105.272623 237.971541 
L 105.41214 233.072552 
L 105.551658 236.016771 
L 105.691175 236.511495 
L 105.830693 237.730208 
L 105.97021 236.016771 
L 106.249245 240.179703 
L 106.388762 235.03939 
L 106.667797 240.421026 
L 106.807315 242.146531 
L 106.946832 246.550787 
L 107.08635 244.837349 
L 107.365384 239.202313 
L 107.504902 237.730208 
L 107.644419 240.91575 
L 107.783937 239.443646 
L 107.923454 235.280723 
L 108.062972 235.522037 
L 108.342006 236.752828 
L 108.481524 235.280723 
L 108.621041 236.994151 
L 108.900076 229.404344 
L 109.039594 230.381734 
L 109.318628 235.280723 
L 109.458146 234.785999 
L 109.597663 230.381734 
L 109.876698 239.202313 
L 110.016216 237.971541 
L 110.155733 234.785999 
L 110.29525 234.785999 
L 110.574285 239.697037 
L 110.85332 234.049942 
L 110.992838 234.303333 
L 111.132355 232.831219 
L 111.271872 236.752828 
L 111.41139 237.488875 
L 111.550907 235.280723 
L 111.690425 236.511495 
L 111.829942 240.91575 
L 112.108977 230.623067 
L 113.225117 211.02713 
L 113.364634 210.773739 
L 113.504151 213.235301 
L 113.643669 212.740577 
L 114.201739 205.392103 
L 114.341256 204.414713 
L 114.620291 208.082921 
L 115.038843 199.99839 
L 115.178361 199.99839 
L 115.317878 198.767609 
L 115.596913 207.346864 
L 115.73643 207.346864 
L 116.015465 204.656046 
L 116.154983 205.633436 
L 116.434017 212.499244 
L 116.573535 210.773739 
L 116.713052 206.610807 
L 116.85257 208.818978 
L 117.131605 208.082921 
L 117.271122 207.841588 
L 117.410639 208.818978 
L 117.829192 205.138712 
L 118.108227 203.919989 
L 118.666296 210.773739 
L 118.805814 210.049759 
L 119.084849 205.392103 
L 119.503401 211.763187 
L 119.642918 211.763187 
L 119.782436 211.509796 
L 119.921953 209.555035 
L 120.061471 212.00452 
L 120.200988 210.532406 
L 120.480023 213.959281 
L 120.61954 211.763187 
L 120.759058 211.763187 
L 120.898575 212.245853 
L 121.038093 214.212672 
L 121.17761 213.959281 
L 121.596162 207.588197 
L 121.73568 209.313702 
L 121.875197 214.454005 
L 122.014715 215.190062 
L 122.154232 212.98191 
L 122.29375 213.717948 
L 122.433267 210.049759 
L 122.572784 210.291073 
L 122.991337 214.212672 
L 123.270372 215.684786 
L 123.409889 212.740577 
L 123.549406 212.740577 
L 123.688924 212.98191 
L 123.828441 210.773739 
L 123.967959 211.268463 
L 124.107476 213.717948 
L 124.246994 213.235301 
L 124.526028 216.167452 
L 124.805063 214.948729 
L 124.944581 217.144823 
L 125.223616 215.431395 
L 125.363133 215.926119 
L 125.50265 216.903509 
L 125.781685 211.509796 
L 126.06072 215.431395 
L 126.200238 215.926119 
L 126.339755 216.903509 
L 126.479272 216.408766 
L 126.758307 220.089051 
L 126.897825 217.144823 
L 127.037342 216.662176 
L 127.316377 219.111661 
L 127.455895 217.639547 
L 127.734929 213.717948 
L 127.874447 214.454005 
L 128.292999 220.825108 
L 128.572034 216.662176 
L 128.711551 216.662176 
L 128.851069 216.408766 
L 129.130104 219.594327 
L 129.269621 219.594327 
L 129.409139 219.847718 
L 129.827691 212.00452 
L 129.967208 211.268463 
L 130.106726 212.98191 
L 130.246243 209.555035 
L 130.385761 210.532406 
L 130.664795 197.307572 
L 130.804313 200.239723 
L 131.083348 192.649916 
L 131.222865 194.12203 
L 131.362383 192.408583 
L 131.920452 177.699577 
L 132.05997 177.94091 
L 132.478522 166.924228 
L 132.757557 155.400764 
L 132.897074 157.850249 
L 133.036592 157.367601 
L 133.455144 148.788346 
L 133.594661 151.732556 
L 133.873696 150.260442 
L 134.152731 148.05229 
L 134.292249 149.283071 
L 134.431766 147.569624 
L 134.571284 143.889358 
L 134.710801 146.097528 
L 134.989836 138.012997 
L 135.129353 138.749054 
L 135.408388 142.658577 
L 135.547906 141.934596 
L 135.82694 143.153301 
L 135.966458 142.175929 
L 136.105975 140.209091 
L 136.245493 141.681205 
L 136.524528 132.124561 
L 136.664045 133.355342 
L 136.803562 132.619285 
L 136.94308 132.860617 
L 137.082597 132.860617 
L 137.222115 133.355342 
L 137.361632 132.860617 
L 137.640667 128.456353 
L 137.780184 128.456353 
L 138.059219 124.534754 
L 138.198737 126.2482 
L 138.617289 116.691556 
L 138.896324 113.506013 
L 139.175359 114.736794 
L 139.314876 112.528642 
L 139.593911 105.421483 
L 139.872946 99.291731 
L 140.012463 102.477273 
L 140.151981 98.809065 
L 140.291498 99.050398 
L 140.849568 91.701924 
L 140.989085 92.196648 
L 141.128603 94.887466 
L 141.26812 92.679314 
L 141.407638 93.415371 
L 141.547155 90.965867 
L 141.686673 90.724535 
L 141.82619 89.252439 
L 142.105225 84.836116 
L 142.38426 87.538992 
L 142.802812 80.914517 
L 142.942329 81.650574 
L 143.360882 89.011106 
L 143.500399 88.757715 
L 143.639917 88.021658 
L 143.779434 91.943257 
L 143.918951 91.701924 
L 144.058469 92.196648 
L 144.197986 93.656685 
L 144.337504 96.600913 
L 144.616539 106.652264 
L 144.895573 108.607043 
L 145.174608 112.0339 
L 145.314126 111.551252 
L 145.872195 121.590544 
L 146.011713 122.326601 
L 146.430265 127.478981 
L 146.569783 126.984257 
L 146.7093 133.838007 
L 146.848817 134.332731 
L 146.988335 132.124561 
L 147.406887 141.19854 
L 148.243992 147.569624 
L 148.941579 158.344973 
L 149.081096 153.940726 
L 149.220614 154.182041 
L 149.639166 162.507905 
L 149.778684 168.396342 
L 149.918201 164.716075 
L 150.057718 164.716075 
L 150.197236 167.660285 
L 150.336753 165.452114 
L 150.476271 166.670837 
L 150.615788 163.980019 
L 150.755306 165.452114 
L 151.03434 172.800588 
L 151.173858 176.480873 
L 151.313375 174.031369 
L 151.452893 175.491406 
L 151.59241 178.676967 
L 151.731928 178.435634 
L 151.871445 177.94091 
L 152.010962 179.666415 
L 152.289997 185.542775 
L 152.70855 187.750927 
L 152.848067 185.784108 
L 152.987584 186.037499 
L 153.127102 187.256203 
L 153.266619 186.037499 
L 153.406137 186.520165 
L 153.545654 188.728317 
L 153.964206 185.048051 
L 154.103724 187.750927 
L 154.243241 188.233593 
L 154.382759 190.936488 
L 154.661794 187.014889 
L 154.940828 195.099401 
L 155.080346 194.604677 
L 155.219863 194.858087 
L 155.359381 194.12203 
L 155.498898 194.363363 
L 155.638416 195.582067 
L 155.777933 192.891249 
L 155.917451 192.649916 
L 156.056968 193.132582 
L 156.196485 192.155192 
L 156.336003 193.868639 
L 156.47552 193.385973 
L 156.894073 187.750927 
L 157.173107 191.672526 
L 157.59166 187.750927 
L 157.731177 187.750927 
L 157.870695 191.177802 
L 158.010212 189.464374 
L 158.149729 185.542775 
L 158.289247 185.301442 
L 158.428764 182.598566 
L 158.707799 175.008759 
L 158.847317 174.272702 
L 159.265869 167.660285 
L 159.405386 169.120322 
L 159.544904 165.452114 
L 159.684421 164.716075 
L 159.823939 165.693447 
L 160.102973 159.817087 
L 160.242491 155.159431 
L 160.382008 154.423374 
L 160.521526 152.468613 
L 160.661043 152.709945 
L 160.800561 150.260442 
L 160.940078 144.384082 
L 161.079595 144.13069 
L 161.35863 136.04616 
L 161.498148 131.388504 
L 161.637665 131.147171 
L 161.777183 131.641895 
L 161.9167 129.19241 
L 162.056217 131.388504 
L 162.335252 124.04003 
L 162.47477 120.118431 
L 162.614287 120.118431 
L 162.753805 121.831877 
L 162.893322 121.590544 
L 163.172357 112.769957 
L 163.311874 111.551252 
L 163.730427 104.190702 
L 163.869944 106.398872 
L 164.009462 105.916207 
L 164.428014 100.281179 
L 164.567531 101.258569 
L 165.125601 90.22981 
L 165.265118 92.196648 
L 165.404636 92.437981 
L 165.544153 90.471143 
L 165.823188 81.903965 
L 166.102223 84.35345 
L 166.24174 81.409223 
L 166.381258 82.881336 
L 166.660293 77.728975 
L 166.79981 77.982366 
L 166.939328 80.190537 
L 167.218362 72.829968 
L 167.35788 78.959737 
L 167.636915 74.543433 
L 167.776432 72.829968 
L 168.055467 79.201089 
L 168.194984 77.487624 
L 168.474019 72.093948 
L 168.613537 70.875225 
L 168.753054 71.852596 
L 168.892572 71.611282 
L 169.032089 67.19494 
L 169.311124 76.510252 
L 169.450641 77.728975 
L 169.590159 75.532881 
L 169.729676 76.015547 
L 169.869194 77.487624 
L 170.008711 80.673166 
L 170.148229 80.914517 
L 170.287746 77.246309 
L 170.706298 86.308211 
L 170.845816 84.100059 
L 170.985333 86.549544 
L 171.124851 85.825564 
L 171.403885 88.757715 
L 171.543403 89.988496 
L 172.24099 100.763845 
L 172.380507 99.786455 
L 172.659542 100.281179 
L 172.79906 101.258569 
L 172.938577 104.926758 
L 173.078095 105.421483 
L 173.217612 105.180168 
L 173.357129 103.466721 
L 173.915199 118.405002 
L 174.054717 117.668945 
L 174.194234 118.658393 
L 174.473269 123.062658 
L 174.612786 128.697686 
L 174.752304 128.202961 
L 174.891821 126.489533 
L 175.310373 136.782216 
L 175.449891 134.332731 
L 175.589408 134.827455 
L 176.147478 142.417244 
L 176.286995 142.175929 
L 176.426513 141.681205 
L 176.56603 145.120139 
L 176.705548 141.681205 
L 176.845065 142.175929 
L 177.263618 150.260442 
L 177.403135 148.788346 
L 177.542652 149.029679 
L 177.821687 155.159431 
L 177.961205 156.631545 
L 178.100722 154.918098 
L 178.24024 155.159431 
L 178.379757 154.423374 
L 178.658792 156.390212 
L 178.798309 155.400764 
L 179.077344 162.025239 
L 179.216862 160.553144 
L 179.356379 161.530515 
L 179.495896 161.530515 
L 179.635414 163.738686 
L 179.774931 163.485294 
L 179.914449 164.221333 
L 180.053966 163.980019 
L 180.193484 164.95739 
L 180.333001 164.221333 
L 180.612036 169.615046 
L 180.751553 165.452114 
L 180.891071 165.946838 
L 181.030588 169.373713 
L 181.170106 166.188171 
L 181.44914 169.120322 
L 181.588658 166.924228 
L 181.728175 168.396342 
L 181.867693 172.064531 
L 182.00721 171.823217 
L 182.425762 166.924228 
L 182.56528 165.693447 
L 182.704797 167.406893 
L 182.983832 164.716075 
L 183.262867 166.188171 
L 183.402384 170.10977 
L 183.960454 163.002629 
L 184.239489 165.946838 
L 184.379007 159.08103 
L 184.518524 157.850249 
L 184.658041 158.586306 
L 184.797559 158.344973 
L 184.937076 159.817087 
L 185.076594 159.08103 
L 185.355629 153.446002 
L 185.495146 156.872877 
L 185.774181 153.687317 
L 185.913698 154.664707 
L 186.192733 152.468613 
L 186.332251 147.569624 
L 186.471768 146.833567 
L 186.611285 147.316233 
L 186.750803 146.833567 
L 186.89032 145.120139 
L 187.029838 145.602804 
L 187.169355 144.13069 
L 187.308873 145.844119 
L 187.866942 134.827455 
L 188.00646 136.782216 
L 188.564529 126.742924 
L 188.983082 130.905856 
L 189.262117 121.590544 
L 189.401634 119.382374 
L 189.680669 129.433742 
L 189.820186 125.017419 
L 190.099221 114.483403 
L 190.238739 111.792585 
L 190.378256 112.769957 
L 190.657291 108.607043 
L 190.796808 110.561804 
L 191.215361 103.21333 
L 191.354878 104.190702 
L 191.494396 107.870986 
L 191.912948 95.128799 
L 192.191983 102.730664 
L 192.3315 102.23594 
L 192.750052 92.920629 
L 193.029087 99.050398 
L 193.308122 94.887466 
L 193.587157 98.073009 
L 193.726674 98.555674 
L 193.866192 96.842246 
L 194.005709 98.555674 
L 194.424262 95.370132 
L 194.563779 90.965867 
L 194.703296 92.196648 
L 194.842814 96.600913 
L 195.261366 88.516382 
L 195.540401 94.15141 
L 195.819436 93.415371 
L 195.958953 93.415371 
L 196.237988 96.842246 
L 196.377506 96.842246 
L 196.517023 95.864856 
L 196.796058 98.555674 
L 197.075093 98.555674 
L 197.21461 99.545122 
L 197.354128 99.050398 
L 197.493645 100.522512 
L 197.633162 106.652264 
L 197.77268 107.870986 
L 197.912197 104.685444 
L 198.051715 106.652264 
L 198.191232 105.662815 
L 198.33075 105.662815 
L 198.470267 102.23594 
L 199.028337 110.320471 
L 199.307372 106.157539 
L 199.725924 115.955499 
L 199.865441 115.472851 
L 200.144476 110.320471 
L 200.283994 111.792585 
L 200.563029 121.590544 
L 200.842063 117.427613 
L 201.260616 124.776087 
L 201.400133 125.512143 
L 201.539651 128.202961 
L 201.679168 127.720296 
L 201.818685 125.512143 
L 202.795307 140.462483 
L 203.074342 137.023549 
L 203.21386 138.495645 
L 203.353377 138.012997 
L 203.492895 137.023549 
L 203.632412 137.276941 
L 203.771929 137.023549 
L 204.050964 140.945148 
L 204.190482 140.462483 
L 204.329999 140.945148 
L 204.469517 142.911968 
L 204.748551 141.681205 
L 205.027586 145.361471 
L 205.167104 146.097528 
L 205.306621 145.844119 
L 205.585656 147.0749 
L 205.864691 153.20467 
L 206.004208 148.547014 
L 206.143726 150.996499 
L 206.422761 148.05229 
L 206.562278 144.384082 
L 206.841313 145.602804 
L 207.259865 150.260442 
L 207.399383 148.788346 
L 207.678418 153.940726 
L 207.957452 156.631545 
L 208.376005 143.153301 
L 208.65504 150.019127 
L 208.794557 149.029679 
L 208.934074 149.029679 
L 209.073592 146.833567 
L 209.352627 153.20467 
L 209.492144 152.709945 
L 209.631662 149.283071 
L 209.771179 149.524403 
L 209.910696 152.468613 
L 210.189731 148.788346 
L 210.329249 148.547014 
L 210.608284 147.810957 
L 210.887318 139.726426 
L 211.026836 143.889358 
L 211.166353 144.625415 
L 211.305871 143.889358 
L 211.445388 145.602804 
L 211.724423 143.394634 
L 211.86394 140.462483 
L 212.003458 140.945148 
L 212.142975 140.945148 
L 212.42201 135.563494 
L 212.561528 136.782216 
L 212.701045 135.06877 
L 212.840563 131.883228 
L 212.98008 131.641895 
L 213.259115 129.928467 
L 213.398632 129.433742 
L 213.53815 128.456353 
L 213.817185 135.804827 
L 214.096219 131.641895 
L 214.235737 131.883228 
L 214.375254 130.411132 
L 214.514772 130.169799 
L 214.654289 130.905856 
L 214.793807 128.939018 
L 214.933324 128.697686 
L 215.351876 122.326601 
L 215.491394 121.107879 
L 215.630911 122.326601 
L 215.909946 114.483403 
L 216.188981 118.405002 
L 216.468016 113.011289 
L 216.607533 110.079139 
L 216.747051 110.079139 
L 216.886568 108.848358 
L 217.026085 112.769957 
L 217.165603 112.287309 
L 217.444638 103.21333 
L 217.584155 105.180168 
L 217.86319 114.978127 
L 218.002707 110.320471 
L 218.142225 110.815195 
L 218.281742 112.287309 
L 218.42126 111.297861 
L 218.700295 106.398872 
L 218.839812 106.893596 
L 219.118847 109.837806 
L 219.258364 109.101767 
L 219.397882 104.685444 
L 219.676917 112.287309 
L 219.816434 113.264681 
L 219.955952 112.528642 
L 220.095469 110.079139 
L 220.234986 111.551252 
L 220.374504 111.297861 
L 220.514021 111.792585 
L 220.653539 113.264681 
L 220.932574 112.528642 
L 221.072091 113.011289 
L 221.211608 115.714184 
L 221.490643 113.011289 
L 221.630161 112.0339 
L 221.909196 115.714184 
L 222.048713 114.736794 
L 222.327748 109.343082 
L 222.467265 112.528642 
L 222.606783 113.011289 
L 222.7463 114.978127 
L 223.025335 111.056528 
L 223.30437 112.769957 
L 223.583405 107.870986 
L 223.722922 109.584414 
L 223.86244 109.101767 
L 224.001957 114.000738 
L 224.141474 113.747346 
L 224.420509 118.405002 
L 224.560027 117.922337 
L 224.978579 114.483403 
L 225.118096 121.107879 
L 225.257614 121.590544 
L 225.397131 120.37184 
L 225.536649 120.854487 
L 225.676166 123.062658 
L 225.815684 123.062658 
L 225.955201 124.293439 
L 226.094719 126.984257 
L 226.234236 126.742924 
L 226.373753 124.293439 
L 226.513271 124.534754 
L 226.652788 126.006867 
L 226.931823 130.169799 
L 227.210858 127.961629 
L 227.350375 125.017419 
L 227.62941 132.860617 
L 227.768928 134.332731 
L 227.908445 132.860617 
L 228.047963 132.860617 
L 228.18748 133.838007 
L 228.466515 133.114009 
L 228.885067 138.495645 
L 229.024585 138.012997 
L 229.164102 135.310103 
L 229.303619 134.827455 
L 229.582654 143.889358 
L 230.001207 137.759606 
L 230.140724 136.299551 
L 230.280241 139.473035 
L 230.419759 138.25433 
L 230.559276 133.838007 
L 230.838311 137.759606 
L 230.977829 133.596674 
L 231.117346 135.563494 
L 231.396381 133.838007 
L 231.675416 138.25433 
L 231.814933 138.25433 
L 231.954451 142.175929 
L 232.093968 142.417244 
L 232.373003 143.648025 
L 232.51252 143.648025 
L 232.652038 142.911968 
L 232.791555 139.726426 
L 233.07059 138.495645 
L 233.210108 139.726426 
L 233.349625 144.384082 
L 233.489142 144.13069 
L 233.62866 144.625415 
L 233.907695 138.012997 
L 234.047212 139.231702 
L 234.326247 144.866747 
L 234.465764 141.934596 
L 234.605282 142.417244 
L 235.023834 139.726426 
L 235.163352 136.540884 
L 235.302869 139.726426 
L 235.442386 139.967759 
L 235.581904 138.012997 
L 235.860939 140.462483 
L 236.139974 137.276941 
L 236.279491 131.641895 
L 236.419008 135.06877 
L 236.698043 145.120139 
L 236.837561 143.394634 
L 237.256113 132.860617 
L 237.39563 132.860617 
L 237.535148 134.091398 
L 237.674665 134.091398 
L 237.9537 132.124561 
L 238.232735 127.478981 
L 238.372252 127.478981 
L 238.651287 132.860617 
L 238.790805 131.883228 
L 238.930322 130.905856 
L 239.06984 131.147171 
L 239.209357 129.433742 
L 239.348874 129.19241 
L 239.488392 128.202961 
L 239.627909 128.697686 
L 239.906944 133.838007 
L 240.046462 131.883228 
L 240.185979 132.619285 
L 240.465014 130.411132 
L 240.604531 130.905856 
L 240.744049 130.905856 
L 241.023084 127.225572 
L 241.162601 127.225572 
L 241.302119 126.2482 
L 241.441636 122.567934 
L 241.581153 122.085268 
L 241.860188 126.742924 
L 241.999706 126.984257 
L 242.278741 123.798697 
L 242.557775 119.635783 
L 242.697293 121.831877 
L 242.83681 119.877098 
L 242.976328 121.107879 
L 243.39488 118.163669 
L 243.534397 122.085268 
L 243.673915 122.326601 
L 243.813432 122.085268 
L 243.95295 122.085268 
L 244.092467 120.118431 
L 244.231985 120.854487 
L 244.371502 118.163669 
L 244.511019 118.163669 
L 244.650537 116.691556 
L 244.790054 118.899726 
L 244.929572 118.899726 
L 245.069089 120.118431 
L 245.348124 117.18628 
L 245.487641 119.141059 
L 245.627159 119.382374 
L 245.766676 123.062658 
L 246.045711 122.085268 
L 246.185229 121.107879 
L 246.324746 118.405002 
L 246.464263 121.590544 
L 246.603781 121.107879 
L 246.743298 118.658393 
L 246.882816 118.899726 
L 247.161851 121.831877 
L 247.301368 122.326601 
L 247.580403 111.056528 
L 247.71992 114.978127 
L 247.859438 134.091398 
L 248.138473 109.584414 
L 248.417508 122.085268 
L 248.557025 131.388504 
L 248.696542 151.732556 
L 248.975577 126.742924 
L 249.115095 132.124561 
L 249.254612 128.202961 
L 249.39413 129.928467 
L 249.533647 129.433742 
L 249.673164 117.18628 
L 249.812682 118.163669 
L 249.952199 121.831877 
L 250.091717 116.196832 
L 250.370752 119.141059 
L 250.649786 125.017419 
L 250.789304 119.877098 
L 250.928821 121.349212 
L 251.068339 121.590544 
L 251.207856 119.635783 
L 251.347374 121.107879 
L 251.626408 127.478981 
L 251.765926 131.147171 
L 251.905443 130.905856 
L 252.044961 130.905856 
L 252.323996 140.209091 
L 252.463513 136.782216 
L 252.742548 140.703816 
L 252.882065 141.19854 
L 253.858687 129.675075 
L 253.998205 129.675075 
L 254.137722 131.641895 
L 254.27724 131.388504 
L 254.416757 131.883228 
L 254.695792 127.478981 
L 254.974827 133.838007 
L 255.114344 137.023549 
L 255.253862 136.782216 
L 255.393379 135.310103 
L 255.811931 142.417244 
L 255.951449 141.439872 
L 256.090966 142.658577 
L 256.230484 138.495645 
L 256.370001 139.473035 
L 256.649036 132.377952 
L 256.928071 141.19854 
L 257.067588 140.703816 
L 257.346623 141.681205 
L 257.904693 130.411132 
L 258.04421 129.675075 
L 258.183728 129.928467 
L 258.323245 129.19241 
L 258.741797 134.332731 
L 258.881315 135.06877 
L 259.020832 134.091398 
L 259.16035 135.563494 
L 259.439385 131.388504 
L 259.578902 131.641895 
L 259.718419 129.928467 
L 259.857937 136.299551 
L 259.997454 137.023549 
L 260.136972 135.310103 
L 260.276489 136.782216 
L 260.555524 135.804827 
L 260.974076 128.456353 
L 261.113594 128.697686 
L 261.392629 121.831877 
L 261.811181 127.225572 
L 262.090216 122.326601 
L 262.229733 123.557382 
L 262.369251 123.798697 
L 262.508768 123.557382 
L 262.648286 125.017419 
L 263.066838 118.899726 
L 263.206355 119.635783 
L 263.624908 117.427613 
L 263.764425 112.287309 
L 263.903942 113.264681 
L 264.04346 112.528642 
L 264.322495 117.427613 
L 264.462012 118.899726 
L 264.880564 104.190702 
L 265.020082 104.926758 
L 265.159599 104.444111 
L 265.299117 106.652264 
L 265.438634 106.652264 
L 265.578152 107.134929 
L 265.717669 102.730664 
L 266.136221 109.584414 
L 266.275739 108.112301 
L 266.415256 104.685444 
L 266.554774 104.926758 
L 266.694291 104.190702 
L 266.833808 104.444111 
L 266.973326 100.522512 
L 267.112843 102.477273 
L 267.252361 101.258569 
L 267.391878 103.21333 
L 268.089465 95.128799 
L 268.228983 95.864856 
L 268.508018 94.392742 
L 268.92657 98.555674 
L 269.345122 89.735086 
L 269.48464 91.2072 
L 269.624157 95.864856 
L 269.763675 96.106189 
L 270.042709 89.988496 
L 270.182227 91.943257 
L 270.321744 91.943257 
L 270.740297 86.549544 
L 271.019331 89.252439 
L 271.158849 88.021658 
L 271.298366 88.757715 
L 271.577401 90.724535 
L 271.716919 90.724535 
L 271.856436 92.679314 
L 272.135471 88.757715 
L 272.414506 86.802935 
L 272.693541 87.780325 
L 272.972575 91.2072 
L 273.112093 89.252439 
L 273.25161 89.493772 
L 273.391128 94.15141 
L 273.530645 93.174038 
L 273.80968 86.549544 
L 273.949197 88.021658 
L 274.088715 86.308211 
L 274.228232 88.021658 
L 274.36775 87.780325 
L 274.646785 84.836116 
L 274.786302 87.538992 
L 274.925819 87.044268 
L 275.065337 87.285601 
L 275.204854 87.285601 
L 275.483889 92.437981 
L 275.623407 93.174038 
L 275.902442 88.516382 
L 276.041959 89.988496 
L 276.181476 89.493772 
L 276.320994 91.2072 
L 276.600029 88.021658 
L 276.739546 88.275049 
L 277.018581 93.415371 
L 277.297616 88.275049 
L 277.437133 91.701924 
L 277.576651 91.943257 
L 277.716168 95.623523 
L 277.855686 95.864856 
L 277.995203 90.724535 
L 278.13472 92.679314 
L 278.274238 89.011106 
L 278.413755 93.415371 
L 278.69279 91.460591 
L 278.832308 91.2072 
L 278.971825 94.887466 
L 279.111342 94.646134 
L 279.25086 90.965867 
L 279.529895 94.646134 
L 279.669412 98.314341 
L 279.80893 97.33697 
L 280.087964 91.701924 
L 280.785552 100.522512 
L 280.925069 101.499884 
L 281.064586 98.314341 
L 281.204104 98.314341 
L 281.343621 96.842246 
L 281.483139 97.578284 
L 281.622656 99.291731 
L 281.762174 99.050398 
L 281.901691 96.842246 
L 282.041208 101.741216 
L 282.180726 102.477273 
L 282.320243 102.23594 
L 282.459761 101.017236 
L 282.878313 104.926758 
L 283.157348 97.33697 
L 283.296865 98.073009 
L 283.436383 98.073009 
L 283.715418 92.679314 
L 283.994453 90.471143 
L 284.13397 92.437981 
L 284.273487 90.471143 
L 284.552522 94.887466 
L 284.69204 94.392742 
L 284.831557 91.943257 
L 284.971075 94.646134 
L 285.110592 94.646134 
L 285.250109 99.545122 
L 285.808179 90.965867 
L 285.947697 92.437981 
L 286.087214 90.724535 
L 286.366249 89.988496 
L 286.505766 86.802935 
L 286.784801 90.724535 
L 286.924319 94.392742 
L 287.203353 88.275049 
L 287.342871 86.066897 
L 287.482388 81.650574 
L 287.621906 82.881336 
L 287.761423 82.640022 
L 287.900941 83.617393 
L 288.179975 81.167908 
L 288.319493 80.914517 
L 288.45901 81.903965 
L 288.738045 78.959737 
L 288.877563 78.959737 
L 289.01708 83.858726 
L 289.296115 75.774195 
L 289.435632 75.27949 
L 289.714667 71.852596 
L 289.993702 75.27949 
L 290.272737 68.184388 
L 290.412254 69.897817 
L 290.551772 69.644426 
L 290.970324 63.768084 
L 291.109842 64.745455 
L 291.249359 60.823856 
L 291.388876 60.34119 
L 291.807429 64.262789 
L 292.086464 54.947478 
L 292.365498 60.34119 
L 292.505016 60.34119 
L 292.784051 57.155648 
L 292.923568 56.178277 
L 293.063086 49.31245 
L 293.202603 49.31245 
L 293.621155 56.419591 
L 293.90019 55.44222 
L 294.179225 52.497992 
L 294.318742 52.739344 
L 294.45826 53.234049 
L 294.597777 52.497992 
L 294.737295 48.817745 
L 295.01633 53.728792 
L 295.155847 53.4754 
L 295.295364 53.4754 
L 295.434882 54.706163 
L 295.574399 57.155648 
L 295.713917 57.397 
L 295.853434 57.155648 
L 295.992952 56.660943 
L 296.271986 53.970106 
L 296.411504 55.44222 
L 296.551021 50.54325 
L 296.830056 53.970106 
L 297.109091 57.155648 
L 297.248609 53.4754 
L 297.527643 52.739344 
L 297.946196 61.077247 
L 298.085713 61.077247 
L 298.7833 77.246309 
L 298.922818 76.510252 
L 299.062335 73.819416 
L 299.480887 85.089507 
L 299.620405 85.825564 
L 299.89944 90.724535 
L 300.038957 91.701924 
L 300.457509 102.23594 
L 301.015579 113.011289 
L 301.155097 108.36571 
L 301.294614 108.607043 
L 301.713166 118.899726 
L 301.852684 116.932888 
L 301.992201 119.141059 
L 302.271236 118.658393 
L 302.410753 119.877098 
L 302.550271 118.405002 
L 302.829306 112.0339 
L 302.968823 111.056528 
L 303.108341 111.297861 
L 303.247858 109.837806 
L 303.526893 101.499884 
L 303.66641 102.477273 
L 304.084963 95.864856 
L 304.22448 94.646134 
L 304.363998 95.128799 
L 304.503515 97.095637 
L 304.78255 97.578284 
L 304.922067 102.477273 
L 305.061585 100.763845 
L 305.34062 105.916207 
L 305.759172 119.382374 
L 306.038207 127.961629 
L 306.177724 126.006867 
L 306.317242 128.456353 
L 306.596276 126.2482 
L 306.735794 125.512143 
L 306.875311 130.652447 
L 307.014829 129.928467 
L 307.293864 136.540884 
L 307.572898 142.911968 
L 307.712416 141.934596 
L 307.991451 146.580176 
L 308.410003 151.237832 
L 308.689038 154.182041 
L 308.968073 160.058419 
L 309.10759 160.794476 
L 309.66566 168.637674 
L 309.944695 172.559274 
L 310.642282 180.885119 
L 310.781799 177.458244 
L 311.339869 180.885119 
L 311.479387 185.784108 
L 311.618904 185.301442 
L 311.758421 183.334604 
L 312.037456 184.806718 
L 312.316491 190.936488 
L 312.456009 189.705707 
L 312.874561 197.307572 
L 313.014078 197.790238 
L 313.153596 196.076791 
L 313.293113 197.054181 
L 313.432631 197.054181 
L 313.572148 196.812848 
L 313.711665 197.790238 
L 313.9907 202.206561 
L 314.130218 202.447875 
L 314.269735 202.942599 
L 314.54877 198.284962 
L 314.688287 199.021 
L 314.967322 207.588197 
L 315.246357 209.555035 
L 315.385875 209.796349 
L 315.525392 206.864198 
L 315.664909 208.577645 
L 315.804427 214.454005 
L 315.943944 213.959281 
L 316.362497 216.903509 
L 316.641531 213.717948 
L 316.781049 213.717948 
L 316.920566 216.408766 
L 317.060084 216.662176 
L 317.199601 219.352994 
L 317.339119 219.594327 
L 317.478636 223.274593 
L 317.618153 221.319832 
L 317.897188 222.538536 
L 318.176223 218.134271 
L 318.315741 218.134271 
L 318.594776 223.515926 
L 318.87381 217.144823 
L 319.013328 217.144823 
L 319.152845 223.769317 
L 319.292363 224.746707 
L 319.571398 221.319832 
L 319.710915 220.583775 
L 319.850432 220.583775 
L 319.98995 220.825108 
L 320.129467 219.847718 
L 320.408502 224.988021 
L 320.54802 224.505374 
L 320.687537 225.229354 
L 320.827054 225.229354 
L 320.966572 224.01065 
L 321.106089 224.988021 
L 321.385124 220.825108 
L 321.664159 222.779869 
L 321.803676 227.437525 
L 321.943194 224.988021 
L 322.361746 229.150953 
L 322.501264 232.336495 
L 322.640781 231.600438 
L 322.780298 232.095162 
L 322.919816 231.117791 
L 323.059333 231.117791 
L 323.198851 234.785999 
L 323.338368 232.336495 
L 323.477886 232.831219 
L 323.617403 235.775447 
L 324.035955 233.072552 
L 324.594025 229.645677 
L 324.733542 225.965411 
L 325.012577 232.589905 
L 325.152095 232.336495 
L 325.570647 227.196192 
L 325.710165 231.117791 
L 325.849682 230.876458 
L 325.989199 231.117791 
L 326.128717 231.600438 
L 326.407752 226.218802 
L 326.826304 231.600438 
L 326.965821 229.150953 
L 327.105339 228.668306 
L 327.244856 231.117791 
L 327.384374 224.988021 
L 327.523891 224.505374 
L 327.802926 232.095162 
L 328.081961 230.623067 
L 328.221478 230.381734 
L 328.360996 231.853848 
L 328.500513 231.117791 
L 328.640031 231.117791 
L 328.779548 233.072552 
L 328.919065 230.140401 
L 329.477135 235.280723 
L 329.616653 237.235484 
L 329.75617 237.488875 
L 330.035205 231.853848 
L 330.31424 239.93837 
L 330.453757 239.202313 
L 330.593275 237.235484 
L 330.732792 231.117791 
L 330.872309 231.600438 
L 331.151344 236.752828 
L 331.430379 234.544666 
L 331.569897 236.752828 
L 331.709414 232.336495 
L 331.988449 236.258104 
L 332.127966 235.775447 
L 332.267484 235.775447 
L 332.407001 234.544666 
L 332.546519 235.522037 
L 332.686036 238.960989 
L 332.965071 233.808609 
L 333.104588 234.785999 
L 333.383623 231.853848 
L 333.523141 229.404344 
L 333.662658 232.831219 
L 333.802176 232.336495 
L 334.08121 230.140401 
L 334.220728 230.140401 
L 334.499763 233.808609 
L 334.63928 233.567276 
L 334.778798 235.775447 
L 334.918315 235.03939 
L 335.336867 241.157083 
L 335.476385 240.421026 
L 335.75542 236.016771 
L 336.173972 237.235484 
L 336.453007 233.072552 
L 336.592524 233.567276 
L 336.732042 236.994151 
L 336.871559 236.752828 
L 337.011076 236.994151 
L 337.150594 236.511495 
L 337.290111 237.971541 
L 337.429629 237.488875 
L 337.569146 238.466265 
L 337.708664 238.466265 
L 338.127216 234.785999 
L 338.266733 235.03939 
L 338.406251 235.775447 
L 338.685286 233.325943 
L 338.824803 235.03939 
L 338.964321 234.544666 
L 339.243355 229.88701 
L 339.52239 236.752828 
L 339.661908 235.522037 
L 339.940943 229.404344 
L 340.08046 234.049942 
L 340.63853 226.954859 
L 340.917565 227.932249 
L 341.057082 230.623067 
L 341.196599 230.381734 
L 341.475634 234.049942 
L 341.615152 233.567276 
L 341.754669 230.876458 
L 342.173221 236.994151 
L 342.312739 235.03939 
L 342.452256 235.280723 
L 342.591774 233.808609 
L 342.731291 234.544666 
L 342.870809 230.623067 
L 343.010326 232.336495 
L 343.149843 231.853848 
L 343.428878 231.853848 
L 343.568396 232.589905 
L 343.707913 234.049942 
L 344.126465 228.668306 
L 344.265983 229.645677 
L 344.4055 229.404344 
L 344.684535 223.515926 
L 344.824053 225.482745 
L 344.96357 225.482745 
L 345.242605 228.414896 
L 345.382122 225.965411 
L 345.661157 217.639547 
L 346.07971 226.954859 
L 346.219227 225.965411 
L 346.358744 225.965411 
L 346.498262 224.251964 
L 346.637779 228.173563 
L 346.777297 228.173563 
L 346.916814 227.932249 
L 347.195849 230.140401 
L 347.474884 227.437525 
L 347.614401 223.769317 
L 347.893436 229.88701 
L 348.172471 227.196192 
L 348.311988 227.690916 
L 348.591023 223.515926 
L 348.730541 224.01065 
L 349.009576 226.954859 
L 349.149093 226.954859 
L 349.28861 224.988021 
L 349.428128 226.460135 
L 349.567645 224.251964 
L 349.707163 225.229354 
L 349.986198 224.505374 
L 350.125715 223.03326 
L 350.265232 226.460135 
L 350.683785 222.05587 
L 350.96282 221.561146 
L 351.381372 226.218802 
L 351.939442 218.616937 
L 352.078959 221.561146 
L 352.218476 221.802479 
L 352.497511 222.779869 
L 352.916064 218.375604 
L 353.055581 220.089051 
L 353.195099 218.870328 
L 353.474133 224.251964 
L 353.753168 218.616937 
L 354.032203 221.561146 
L 354.171721 224.505374 
L 354.450755 225.482745 
L 354.72979 229.150953 
L 354.869308 227.932249 
L 355.008825 228.173563 
L 355.28786 224.505374 
L 355.566895 223.274593 
L 355.706412 226.954859 
L 355.84593 227.690916 
L 355.985447 224.988021 
L 356.124965 225.965411 
L 356.264482 225.482745 
L 356.403999 222.779869 
L 356.543517 222.538536 
L 356.683034 221.561146 
L 356.822552 225.965411 
L 356.962069 223.274593 
L 357.241104 224.251964 
L 357.380621 219.111661 
L 357.799174 224.505374 
L 358.078209 219.352994 
L 358.357243 217.88088 
L 358.496761 221.066422 
L 358.775796 218.616937 
L 358.915313 218.375604 
L 359.054831 217.88088 
L 359.194348 218.375604 
L 359.473383 220.089051 
L 359.6129 224.988021 
L 359.752418 224.746707 
L 360.17097 217.398233 
L 360.310488 217.144823 
L 360.450005 224.988021 
L 360.589522 224.251964 
L 360.72904 219.847718 
L 361.008075 222.297203 
L 361.147592 226.218802 
L 361.28711 225.229354 
L 361.566144 214.212672 
L 361.845179 226.218802 
L 361.984697 224.746707 
L 362.263732 218.870328 
L 362.403249 216.903509 
L 362.542766 218.375604 
L 362.682284 221.066422 
L 362.821801 220.089051 
L 363.100836 215.190062 
L 363.240354 214.948729 
L 363.379871 215.431395 
L 363.519388 223.274593 
L 363.658906 220.825108 
L 363.798423 215.926119 
L 363.937941 215.684786 
L 364.356493 222.297203 
L 364.49601 220.089051 
L 364.775045 219.594327 
L 364.914563 219.594327 
L 365.193598 220.330365 
L 365.333115 220.583775 
L 365.472632 219.352994 
L 365.751667 223.515926 
L 365.891185 221.802479 
L 366.030702 222.538536 
L 366.309737 213.717948 
L 366.449254 212.00452 
L 366.588772 212.00452 
L 367.007324 207.588197 
L 367.425877 213.717948 
L 367.565394 214.212672 
L 367.983946 212.740577 
L 368.262981 216.167452 
L 368.402499 216.662176 
L 368.542016 214.212672 
L 368.681533 214.695338 
L 368.821051 214.212672 
L 369.100086 208.818978 
L 369.379121 209.555035 
L 369.658155 207.105531 
L 369.93719 209.555035 
L 370.076708 213.235301 
L 370.634777 207.346864 
L 370.774295 207.346864 
L 371.05333 209.796349 
L 371.192847 204.897379 
L 371.332365 205.87475 
L 371.611399 203.919989 
L 371.750917 203.425265 
L 371.890434 204.161322 
L 372.308987 208.082921 
L 372.588021 201.470504 
L 372.867056 203.425265 
L 373.006574 207.346864 
L 373.146091 207.105531 
L 373.285609 206.12816 
L 373.983196 210.532406 
L 374.122713 209.555035 
L 374.262231 209.555035 
L 374.401748 210.773739 
L 374.541266 215.926119 
L 374.8203 212.740577 
L 374.959818 212.98191 
L 375.099335 208.082921 
L 375.238853 207.346864 
L 375.37837 208.324254 
L 375.517888 210.291073 
L 375.657405 209.796349 
L 375.796922 206.864198 
L 375.93644 207.346864 
L 376.075957 210.049759 
L 376.215475 207.841588 
L 376.49451 207.105531 
L 376.634027 204.414713 
L 376.913062 209.313702 
L 377.052579 209.796349 
L 377.192097 209.060311 
L 377.331614 209.060311 
L 377.471132 205.138712 
L 377.750166 209.555035 
L 377.889684 209.060311 
L 378.029201 210.773739 
L 378.168719 210.291073 
L 378.308236 210.532406 
L 378.447754 210.049759 
L 378.587271 210.773739 
L 378.726788 213.717948 
L 378.866306 212.740577 
L 379.005823 209.313702 
L 379.145341 210.291073 
L 379.424376 207.588197 
L 379.563893 207.841588 
L 379.70341 210.532406 
L 379.842928 211.02713 
L 379.982445 212.98191 
L 380.26148 207.105531 
L 380.680032 211.763187 
L 380.81955 209.796349 
L 381.098585 213.235301 
L 381.238102 214.948729 
L 381.517137 209.313702 
L 381.796172 213.235301 
L 381.935689 214.454005 
L 382.075207 213.959281 
L 382.214724 211.509796 
L 382.354242 212.245853 
L 382.772794 217.398233 
L 382.912311 216.408766 
L 383.051829 217.144823 
L 383.330864 213.717948 
L 383.470381 213.476634 
L 383.749416 216.903509 
L 384.028451 212.499244 
L 384.307486 220.330365 
L 384.586521 218.375604 
L 384.726038 215.431395 
L 384.865555 216.662176 
L 385.005073 216.167452 
L 385.14459 216.167452 
L 385.284108 219.352994 
L 385.423625 219.594327 
L 385.563143 221.561146 
L 385.70266 219.111661 
L 385.842177 218.616937 
L 385.981695 218.870328 
L 386.400247 213.235301 
L 386.539765 212.00452 
L 386.679282 214.212672 
L 386.818799 212.98191 
L 386.958317 217.88088 
L 387.097834 218.870328 
L 387.376869 208.818978 
L 387.655904 217.639547 
L 387.795421 217.639547 
L 387.934939 218.134271 
L 388.074456 219.352994 
L 388.493009 209.555035 
L 388.632526 212.98191 
L 388.772044 212.00452 
L 388.911561 213.717948 
L 388.911561 213.717948 
" style="fill:none;stroke:#1f77b4;stroke-linecap:round;stroke-width:1.5;"/>
   </g>
   <g id="patch_3">
    <path d="M 54 252 
L 54 34.56 
" style="fill:none;stroke:#cccccc;stroke-linecap:square;stroke-linejoin:miter;stroke-width:0.8;"/>
   </g>
   <g id="patch_4">
    <path d="M 388.8 252 
L 388.8 34.56 
" style="fill:none;stroke:#cccccc;stroke-linecap:square;stroke-linejoin:miter;stroke-width:0.8;"/>
   </g>
   <g id="patch_5">
    <path d="M 54 252 
L 388.8 252 
" style="fill:none;stroke:#cccccc;stroke-linecap:square;stroke-linejoin:miter;stroke-width:0.8;"/>
   </g>
   <g id="patch_6">
    <path d="M 54 34.56 
L 388.8 34.56 
" style="fill:none;stroke:#cccccc;stroke-linecap:square;stroke-linejoin:miter;stroke-width:0.8;"/>
   </g>
  </g>
 </g>
 <defs>
  <clipPath id="p7e185a90ac">
   <rect height="217.44" width="334.8" x="54" y="34.56"/>
  </clipPath>
 </defs>
</svg>
