<?xml version="1.0" encoding="utf-8" standalone="no"?>
<!DOCTYPE svg PUBLIC "-//W3C//DTD SVG 1.1//EN"
  "http://www.w3.org/Graphics/SVG/1.1/DTD/svg11.dtd">
<svg height="288pt" version="1.1" viewBox="0 0 432 288" width="432pt" xmlns="http://www.w3.org/2000/svg" xmlns:xlink="http://www.w3.org/1999/xlink">
 <metadata>
  <rdf:RDF xmlns:cc="http://creativecommons.org/ns#" xmlns:dc="http://purl.org/dc/elements/1.1/" xmlns:rdf="http://www.w3.org/1999/02/22-rdf-syntax-ns#">
   <cc:Work>
    <dc:type rdf:resource="http://purl.org/dc/dcmitype/StillImage"/>
    <dc:date>2022-05-26T23:48:03.809608</dc:date>
    <dc:format>image/svg+xml</dc:format>
    <dc:creator>
     <cc:Agent>
      <dc:title>Matplotlib v3.4.0, https://matplotlib.org/</dc:title>
     </cc:Agent>
    </dc:creator>
   </cc:Work>
  </rdf:RDF>
 </metadata>
 <defs>
  <style type="text/css">*{stroke-linecap:butt;stroke-linejoin:round;}</style>
 </defs>
 <g id="figure_1">
  <g id="patch_1">
   <path d="M 0 288 
L 432 288 
L 432 0 
L 0 0 
z
" style="fill:#ffffff;"/>
  </g>
  <g id="axes_1">
   <g id="patch_2">
    <path d="M 54 252 
L 388.8 252 
L 388.8 34.56 
L 54 34.56 
z
" style="fill:#ffffff;"/>
   </g>
   <g id="matplotlib.axis_1">
    <g id="xtick_1">
     <g id="line2d_1">
      <path clip-path="url(#p2dc07bc3a1)" d="M 54 252 
L 54 34.56 
" style="fill:none;stroke:#cccccc;stroke-linecap:round;stroke-width:0.8;"/>
     </g>
     <g id="text_1">
      <!-- 0.00024 -->
      <g style="fill:#262626;" transform="translate(33.323437 266.598437)scale(0.1 -0.1)">
       <defs>
        <path d="M 2034 4250 
Q 1547 4250 1301 3770 
Q 1056 3291 1056 2328 
Q 1056 1369 1301 889 
Q 1547 409 2034 409 
Q 2525 409 2770 889 
Q 3016 1369 3016 2328 
Q 3016 3291 2770 3770 
Q 2525 4250 2034 4250 
z
M 2034 4750 
Q 2819 4750 3233 4129 
Q 3647 3509 3647 2328 
Q 3647 1150 3233 529 
Q 2819 -91 2034 -91 
Q 1250 -91 836 529 
Q 422 1150 422 2328 
Q 422 3509 836 4129 
Q 1250 4750 2034 4750 
z
" id="DejaVuSans-30" transform="scale(0.015625)"/>
        <path d="M 684 794 
L 1344 794 
L 1344 0 
L 684 0 
L 684 794 
z
" id="DejaVuSans-2e" transform="scale(0.015625)"/>
        <path d="M 1228 531 
L 3431 531 
L 3431 0 
L 469 0 
L 469 531 
Q 828 903 1448 1529 
Q 2069 2156 2228 2338 
Q 2531 2678 2651 2914 
Q 2772 3150 2772 3378 
Q 2772 3750 2511 3984 
Q 2250 4219 1831 4219 
Q 1534 4219 1204 4116 
Q 875 4013 500 3803 
L 500 4441 
Q 881 4594 1212 4672 
Q 1544 4750 1819 4750 
Q 2544 4750 2975 4387 
Q 3406 4025 3406 3419 
Q 3406 3131 3298 2873 
Q 3191 2616 2906 2266 
Q 2828 2175 2409 1742 
Q 1991 1309 1228 531 
z
" id="DejaVuSans-32" transform="scale(0.015625)"/>
        <path d="M 2419 4116 
L 825 1625 
L 2419 1625 
L 2419 4116 
z
M 2253 4666 
L 3047 4666 
L 3047 1625 
L 3713 1625 
L 3713 1100 
L 3047 1100 
L 3047 0 
L 2419 0 
L 2419 1100 
L 313 1100 
L 313 1709 
L 2253 4666 
z
" id="DejaVuSans-34" transform="scale(0.015625)"/>
       </defs>
       <use xlink:href="#DejaVuSans-30"/>
       <use x="63.623047" xlink:href="#DejaVuSans-2e"/>
       <use x="95.410156" xlink:href="#DejaVuSans-30"/>
       <use x="159.033203" xlink:href="#DejaVuSans-30"/>
       <use x="222.65625" xlink:href="#DejaVuSans-30"/>
       <use x="286.279297" xlink:href="#DejaVuSans-32"/>
       <use x="349.902344" xlink:href="#DejaVuSans-34"/>
      </g>
     </g>
    </g>
    <g id="xtick_2">
     <g id="line2d_2">
      <path clip-path="url(#p2dc07bc3a1)" d="M 120.96 252 
L 120.96 34.56 
" style="fill:none;stroke:#cccccc;stroke-linecap:round;stroke-width:0.8;"/>
     </g>
     <g id="text_2">
      <!-- 0.00026 -->
      <g style="fill:#262626;" transform="translate(100.283438 266.598437)scale(0.1 -0.1)">
       <defs>
        <path d="M 2113 2584 
Q 1688 2584 1439 2293 
Q 1191 2003 1191 1497 
Q 1191 994 1439 701 
Q 1688 409 2113 409 
Q 2538 409 2786 701 
Q 3034 994 3034 1497 
Q 3034 2003 2786 2293 
Q 2538 2584 2113 2584 
z
M 3366 4563 
L 3366 3988 
Q 3128 4100 2886 4159 
Q 2644 4219 2406 4219 
Q 1781 4219 1451 3797 
Q 1122 3375 1075 2522 
Q 1259 2794 1537 2939 
Q 1816 3084 2150 3084 
Q 2853 3084 3261 2657 
Q 3669 2231 3669 1497 
Q 3669 778 3244 343 
Q 2819 -91 2113 -91 
Q 1303 -91 875 529 
Q 447 1150 447 2328 
Q 447 3434 972 4092 
Q 1497 4750 2381 4750 
Q 2619 4750 2861 4703 
Q 3103 4656 3366 4563 
z
" id="DejaVuSans-36" transform="scale(0.015625)"/>
       </defs>
       <use xlink:href="#DejaVuSans-30"/>
       <use x="63.623047" xlink:href="#DejaVuSans-2e"/>
       <use x="95.410156" xlink:href="#DejaVuSans-30"/>
       <use x="159.033203" xlink:href="#DejaVuSans-30"/>
       <use x="222.65625" xlink:href="#DejaVuSans-30"/>
       <use x="286.279297" xlink:href="#DejaVuSans-32"/>
       <use x="349.902344" xlink:href="#DejaVuSans-36"/>
      </g>
     </g>
    </g>
    <g id="xtick_3">
     <g id="line2d_3">
      <path clip-path="url(#p2dc07bc3a1)" d="M 187.92 252 
L 187.92 34.56 
" style="fill:none;stroke:#cccccc;stroke-linecap:round;stroke-width:0.8;"/>
     </g>
     <g id="text_3">
      <!-- 0.00028 -->
      <g style="fill:#262626;" transform="translate(167.243438 266.598437)scale(0.1 -0.1)">
       <defs>
        <path d="M 2034 2216 
Q 1584 2216 1326 1975 
Q 1069 1734 1069 1313 
Q 1069 891 1326 650 
Q 1584 409 2034 409 
Q 2484 409 2743 651 
Q 3003 894 3003 1313 
Q 3003 1734 2745 1975 
Q 2488 2216 2034 2216 
z
M 1403 2484 
Q 997 2584 770 2862 
Q 544 3141 544 3541 
Q 544 4100 942 4425 
Q 1341 4750 2034 4750 
Q 2731 4750 3128 4425 
Q 3525 4100 3525 3541 
Q 3525 3141 3298 2862 
Q 3072 2584 2669 2484 
Q 3125 2378 3379 2068 
Q 3634 1759 3634 1313 
Q 3634 634 3220 271 
Q 2806 -91 2034 -91 
Q 1263 -91 848 271 
Q 434 634 434 1313 
Q 434 1759 690 2068 
Q 947 2378 1403 2484 
z
M 1172 3481 
Q 1172 3119 1398 2916 
Q 1625 2713 2034 2713 
Q 2441 2713 2670 2916 
Q 2900 3119 2900 3481 
Q 2900 3844 2670 4047 
Q 2441 4250 2034 4250 
Q 1625 4250 1398 4047 
Q 1172 3844 1172 3481 
z
" id="DejaVuSans-38" transform="scale(0.015625)"/>
       </defs>
       <use xlink:href="#DejaVuSans-30"/>
       <use x="63.623047" xlink:href="#DejaVuSans-2e"/>
       <use x="95.410156" xlink:href="#DejaVuSans-30"/>
       <use x="159.033203" xlink:href="#DejaVuSans-30"/>
       <use x="222.65625" xlink:href="#DejaVuSans-30"/>
       <use x="286.279297" xlink:href="#DejaVuSans-32"/>
       <use x="349.902344" xlink:href="#DejaVuSans-38"/>
      </g>
     </g>
    </g>
    <g id="xtick_4">
     <g id="line2d_4">
      <path clip-path="url(#p2dc07bc3a1)" d="M 254.88 252 
L 254.88 34.56 
" style="fill:none;stroke:#cccccc;stroke-linecap:round;stroke-width:0.8;"/>
     </g>
     <g id="text_4">
      <!-- 0.00030 -->
      <g style="fill:#262626;" transform="translate(234.203438 266.598437)scale(0.1 -0.1)">
       <defs>
        <path d="M 2597 2516 
Q 3050 2419 3304 2112 
Q 3559 1806 3559 1356 
Q 3559 666 3084 287 
Q 2609 -91 1734 -91 
Q 1441 -91 1130 -33 
Q 819 25 488 141 
L 488 750 
Q 750 597 1062 519 
Q 1375 441 1716 441 
Q 2309 441 2620 675 
Q 2931 909 2931 1356 
Q 2931 1769 2642 2001 
Q 2353 2234 1838 2234 
L 1294 2234 
L 1294 2753 
L 1863 2753 
Q 2328 2753 2575 2939 
Q 2822 3125 2822 3475 
Q 2822 3834 2567 4026 
Q 2313 4219 1838 4219 
Q 1578 4219 1281 4162 
Q 984 4106 628 3988 
L 628 4550 
Q 988 4650 1302 4700 
Q 1616 4750 1894 4750 
Q 2613 4750 3031 4423 
Q 3450 4097 3450 3541 
Q 3450 3153 3228 2886 
Q 3006 2619 2597 2516 
z
" id="DejaVuSans-33" transform="scale(0.015625)"/>
       </defs>
       <use xlink:href="#DejaVuSans-30"/>
       <use x="63.623047" xlink:href="#DejaVuSans-2e"/>
       <use x="95.410156" xlink:href="#DejaVuSans-30"/>
       <use x="159.033203" xlink:href="#DejaVuSans-30"/>
       <use x="222.65625" xlink:href="#DejaVuSans-30"/>
       <use x="286.279297" xlink:href="#DejaVuSans-33"/>
       <use x="349.902344" xlink:href="#DejaVuSans-30"/>
      </g>
     </g>
    </g>
    <g id="xtick_5">
     <g id="line2d_5">
      <path clip-path="url(#p2dc07bc3a1)" d="M 321.84 252 
L 321.84 34.56 
" style="fill:none;stroke:#cccccc;stroke-linecap:round;stroke-width:0.8;"/>
     </g>
     <g id="text_5">
      <!-- 0.00032 -->
      <g style="fill:#262626;" transform="translate(301.163438 266.598437)scale(0.1 -0.1)">
       <use xlink:href="#DejaVuSans-30"/>
       <use x="63.623047" xlink:href="#DejaVuSans-2e"/>
       <use x="95.410156" xlink:href="#DejaVuSans-30"/>
       <use x="159.033203" xlink:href="#DejaVuSans-30"/>
       <use x="222.65625" xlink:href="#DejaVuSans-30"/>
       <use x="286.279297" xlink:href="#DejaVuSans-33"/>
       <use x="349.902344" xlink:href="#DejaVuSans-32"/>
      </g>
     </g>
    </g>
    <g id="xtick_6">
     <g id="line2d_6">
      <path clip-path="url(#p2dc07bc3a1)" d="M 388.8 252 
L 388.8 34.56 
" style="fill:none;stroke:#cccccc;stroke-linecap:round;stroke-width:0.8;"/>
     </g>
     <g id="text_6">
      <!-- 0.00034 -->
      <g style="fill:#262626;" transform="translate(368.123438 266.598437)scale(0.1 -0.1)">
       <use xlink:href="#DejaVuSans-30"/>
       <use x="63.623047" xlink:href="#DejaVuSans-2e"/>
       <use x="95.410156" xlink:href="#DejaVuSans-30"/>
       <use x="159.033203" xlink:href="#DejaVuSans-30"/>
       <use x="222.65625" xlink:href="#DejaVuSans-30"/>
       <use x="286.279297" xlink:href="#DejaVuSans-33"/>
       <use x="349.902344" xlink:href="#DejaVuSans-34"/>
      </g>
     </g>
    </g>
   </g>
   <g id="matplotlib.axis_2">
    <g id="ytick_1">
     <g id="line2d_7">
      <path clip-path="url(#p2dc07bc3a1)" d="M 54 252 
L 388.8 252 
" style="fill:none;stroke:#cccccc;stroke-linecap:round;stroke-width:0.8;"/>
     </g>
     <g id="text_7">
      <!-- 0.00 -->
      <g style="fill:#262626;" transform="translate(24.734375 255.799219)scale(0.1 -0.1)">
       <use xlink:href="#DejaVuSans-30"/>
       <use x="63.623047" xlink:href="#DejaVuSans-2e"/>
       <use x="95.410156" xlink:href="#DejaVuSans-30"/>
       <use x="159.033203" xlink:href="#DejaVuSans-30"/>
      </g>
     </g>
    </g>
    <g id="ytick_2">
     <g id="line2d_8">
      <path clip-path="url(#p2dc07bc3a1)" d="M 54 208.512 
L 388.8 208.512 
" style="fill:none;stroke:#cccccc;stroke-linecap:round;stroke-width:0.8;"/>
     </g>
     <g id="text_8">
      <!-- 0.02 -->
      <g style="fill:#262626;" transform="translate(24.734375 212.311219)scale(0.1 -0.1)">
       <use xlink:href="#DejaVuSans-30"/>
       <use x="63.623047" xlink:href="#DejaVuSans-2e"/>
       <use x="95.410156" xlink:href="#DejaVuSans-30"/>
       <use x="159.033203" xlink:href="#DejaVuSans-32"/>
      </g>
     </g>
    </g>
    <g id="ytick_3">
     <g id="line2d_9">
      <path clip-path="url(#p2dc07bc3a1)" d="M 54 165.024 
L 388.8 165.024 
" style="fill:none;stroke:#cccccc;stroke-linecap:round;stroke-width:0.8;"/>
     </g>
     <g id="text_9">
      <!-- 0.04 -->
      <g style="fill:#262626;" transform="translate(24.734375 168.823219)scale(0.1 -0.1)">
       <use xlink:href="#DejaVuSans-30"/>
       <use x="63.623047" xlink:href="#DejaVuSans-2e"/>
       <use x="95.410156" xlink:href="#DejaVuSans-30"/>
       <use x="159.033203" xlink:href="#DejaVuSans-34"/>
      </g>
     </g>
    </g>
    <g id="ytick_4">
     <g id="line2d_10">
      <path clip-path="url(#p2dc07bc3a1)" d="M 54 121.536 
L 388.8 121.536 
" style="fill:none;stroke:#cccccc;stroke-linecap:round;stroke-width:0.8;"/>
     </g>
     <g id="text_10">
      <!-- 0.06 -->
      <g style="fill:#262626;" transform="translate(24.734375 125.335219)scale(0.1 -0.1)">
       <use xlink:href="#DejaVuSans-30"/>
       <use x="63.623047" xlink:href="#DejaVuSans-2e"/>
       <use x="95.410156" xlink:href="#DejaVuSans-30"/>
       <use x="159.033203" xlink:href="#DejaVuSans-36"/>
      </g>
     </g>
    </g>
    <g id="ytick_5">
     <g id="line2d_11">
      <path clip-path="url(#p2dc07bc3a1)" d="M 54 78.048 
L 388.8 78.048 
" style="fill:none;stroke:#cccccc;stroke-linecap:round;stroke-width:0.8;"/>
     </g>
     <g id="text_11">
      <!-- 0.08 -->
      <g style="fill:#262626;" transform="translate(24.734375 81.847219)scale(0.1 -0.1)">
       <use xlink:href="#DejaVuSans-30"/>
       <use x="63.623047" xlink:href="#DejaVuSans-2e"/>
       <use x="95.410156" xlink:href="#DejaVuSans-30"/>
       <use x="159.033203" xlink:href="#DejaVuSans-38"/>
      </g>
     </g>
    </g>
    <g id="ytick_6">
     <g id="line2d_12">
      <path clip-path="url(#p2dc07bc3a1)" d="M 54 34.56 
L 388.8 34.56 
" style="fill:none;stroke:#cccccc;stroke-linecap:round;stroke-width:0.8;"/>
     </g>
     <g id="text_12">
      <!-- 0.10 -->
      <g style="fill:#262626;" transform="translate(24.734375 38.359219)scale(0.1 -0.1)">
       <defs>
        <path d="M 794 531 
L 1825 531 
L 1825 4091 
L 703 3866 
L 703 4441 
L 1819 4666 
L 2450 4666 
L 2450 531 
L 3481 531 
L 3481 0 
L 794 0 
L 794 531 
z
" id="DejaVuSans-31" transform="scale(0.015625)"/>
       </defs>
       <use xlink:href="#DejaVuSans-30"/>
       <use x="63.623047" xlink:href="#DejaVuSans-2e"/>
       <use x="95.410156" xlink:href="#DejaVuSans-31"/>
       <use x="159.033203" xlink:href="#DejaVuSans-30"/>
      </g>
     </g>
    </g>
   </g>
   <g id="line2d_13">
    <path clip-path="url(#p2dc07bc3a1)" d="M 53.963901 234.401191 
L 54.15223 233.888849 
L 54.277783 234.697181 
L 54.403336 233.726916 
L 54.654441 235.047591 
L 54.717218 234.966624 
L 54.905547 234.508704 
L 55.0311 234.697181 
L 55.093876 234.64409 
L 55.282205 234.346771 
L 55.407758 234.670634 
L 55.470534 234.508704 
L 55.533311 234.589668 
L 55.596087 234.913533 
L 55.658864 234.7516 
L 55.72164 234.859113 
L 55.784416 234.616214 
L 55.847193 234.725054 
L 55.909969 234.616214 
L 56.035522 235.182976 
L 56.223851 234.563123 
L 56.286628 234.697181 
L 56.474957 234.832567 
L 56.537733 235.23607 
L 56.60051 235.155103 
L 56.726062 234.966624 
L 56.788839 234.563123 
L 56.851615 234.804694 
L 56.977168 234.804694 
L 57.102721 234.589668 
L 57.165497 234.670634 
L 57.353826 235.263943 
L 57.416603 235.155103 
L 57.793261 234.508704 
L 57.856038 234.589668 
L 57.98159 234.024235 
L 58.16992 234.670634 
L 58.295472 234.670634 
L 58.358249 234.158292 
L 58.421025 234.239258 
L 58.546578 234.725054 
L 58.672131 234.563123 
L 58.986013 234.64409 
L 59.048789 234.563123 
L 59.174342 234.832567 
L 59.237119 234.778147 
L 59.488224 234.427737 
L 59.613777 234.7516 
L 59.927659 234.050781 
L 60.053212 234.184839 
L 60.178765 233.862302 
L 60.492647 234.88566 
L 60.743752 233.862302 
L 60.869305 233.781338 
L 60.994858 234.401191 
L 61.057634 234.346771 
L 61.120411 234.374644 
L 61.30874 233.781338 
L 61.371516 233.807882 
L 61.497069 234.589668 
L 61.559845 234.563123 
L 61.622622 234.265805 
L 61.748175 234.859113 
L 61.810951 234.725054 
L 61.936504 234.265805 
L 62.062057 234.535248 
L 62.124833 234.401191 
L 62.250386 234.778147 
L 62.438715 234.346771 
L 62.501491 234.105201 
L 62.815373 235.290489 
L 62.940926 234.265805 
L 63.003703 234.293678 
L 63.192032 234.859113 
L 63.254808 234.94008 
L 63.443137 234.482157 
L 63.505914 234.45561 
L 63.56869 234.64409 
L 63.631467 234.616214 
L 63.819796 234.158292 
L 64.133678 234.859113 
L 64.196454 234.778147 
L 64.259231 234.94008 
L 64.384783 234.670634 
L 64.510336 235.102011 
L 64.761442 234.050781 
L 64.824218 234.320224 
L 64.886995 234.535248 
L 65.012547 234.131747 
L 65.1381 234.508704 
L 65.200877 234.482157 
L 65.32643 234.832567 
L 65.389206 234.697181 
L 65.451982 234.45561 
L 65.514759 234.508704 
L 65.577535 234.482157 
L 65.640312 234.88566 
L 65.703088 234.697181 
L 65.765864 234.832567 
L 65.828641 235.23607 
L 66.01697 234.427737 
L 66.142523 234.293678 
L 66.268076 234.024235 
L 66.393628 234.535248 
L 66.456405 234.374644 
L 66.519181 234.401191 
L 66.70751 234.778147 
L 66.770287 234.64409 
L 66.833063 234.7516 
L 66.89584 234.94008 
L 66.958616 234.88566 
L 67.021392 234.616214 
L 67.084169 234.832567 
L 67.146945 234.7516 
L 67.209722 234.374644 
L 67.272498 234.697181 
L 67.335274 234.589668 
L 67.523604 234.265805 
L 67.774709 234.7516 
L 67.837486 234.697181 
L 67.963038 234.158292 
L 68.025815 234.265805 
L 68.088591 234.158292 
L 68.151368 234.105201 
L 68.214144 234.401191 
L 68.27692 234.320224 
L 68.46525 233.888849 
L 68.590802 234.077328 
L 68.779132 234.427737 
L 68.904684 234.293678 
L 69.15579 234.832567 
L 69.218566 235.021045 
L 69.281343 234.913533 
L 69.469672 234.374644 
L 69.532448 234.401191 
L 69.595225 234.482157 
L 69.658001 234.293678 
L 69.720778 234.401191 
L 69.909107 233.996361 
L 69.971883 234.589668 
L 70.03466 234.239258 
L 70.160212 233.834429 
L 70.474094 234.45561 
L 70.599647 233.700371 
L 70.850753 235.021045 
L 71.227411 234.077328 
L 71.541293 235.075464 
L 71.60407 234.88566 
L 71.792399 233.915395 
L 72.043505 234.535248 
L 72.106281 234.45561 
L 72.169057 234.535248 
L 72.231834 234.88566 
L 72.29461 234.64409 
L 72.420163 233.969815 
L 72.482939 234.482157 
L 72.545716 234.427737 
L 72.608492 234.508704 
L 72.734045 233.915395 
L 72.859598 235.344909 
L 73.047927 234.401191 
L 73.110703 234.374644 
L 73.236256 234.670634 
L 73.299033 235.047591 
L 73.361809 234.804694 
L 73.424585 234.374644 
L 73.487362 234.563123 
L 73.612915 235.102011 
L 73.675691 234.859113 
L 73.801244 233.862302 
L 73.989573 234.589668 
L 74.115126 233.996361 
L 74.177902 233.888849 
L 74.366231 234.64409 
L 74.429008 234.346771 
L 74.617337 234.374644 
L 74.74289 234.859113 
L 74.931219 234.401191 
L 74.993995 234.670634 
L 75.245101 234.105201 
L 75.307877 234.7516 
L 75.370654 234.535248 
L 75.496207 233.915395 
L 75.684536 234.320224 
L 75.810089 233.807882 
L 75.998418 234.427737 
L 76.123971 233.511892 
L 76.186747 233.619405 
L 76.3123 234.563123 
L 76.375076 234.374644 
L 76.500629 233.673825 
L 76.751735 234.508704 
L 76.940064 234.131747 
L 77.00284 234.535248 
L 77.128393 234.184839 
L 77.191169 234.320224 
L 77.253946 234.077328 
L 77.379499 234.508704 
L 77.505051 233.996361 
L 77.567828 234.050781 
L 77.630604 234.346771 
L 77.693381 234.212714 
L 77.818933 233.726916 
L 78.132816 234.427737 
L 78.195592 234.45561 
L 78.383921 233.943268 
L 78.446698 234.024235 
L 78.57225 234.320224 
L 78.635027 234.346771 
L 78.76058 233.862302 
L 78.823356 233.888849 
L 79.011685 234.7516 
L 79.200014 234.105201 
L 79.262791 233.915395 
L 79.45112 234.374644 
L 79.513896 234.320224 
L 79.576673 234.535248 
L 79.639449 234.427737 
L 79.702226 234.184839 
L 79.765002 234.427737 
L 79.827778 234.158292 
L 79.890555 234.374644 
L 79.953331 234.265805 
L 80.016108 234.589668 
L 80.078884 234.508704 
L 80.455542 234.859113 
L 80.643872 234.320224 
L 80.706648 234.346771 
L 80.832201 234.401191 
L 80.894977 234.697181 
L 80.957754 234.508704 
L 81.083306 233.862302 
L 81.208859 234.64409 
L 81.271636 234.589668 
L 81.334412 234.589668 
L 81.459965 234.320224 
L 81.71107 235.075464 
L 81.773847 234.616214 
L 81.836623 234.725054 
L 81.962176 234.64409 
L 82.024952 234.859113 
L 82.087729 234.563123 
L 82.150505 234.913533 
L 82.338834 234.427737 
L 82.401611 234.265805 
L 82.652716 234.994499 
L 82.778269 234.320224 
L 82.841046 234.508704 
L 82.966598 234.077328 
L 83.029375 234.131747 
L 83.154928 234.966624 
L 83.217704 234.7516 
L 83.28048 234.427737 
L 83.343257 234.670634 
L 83.46881 234.994499 
L 83.531586 234.832567 
L 83.594362 234.725054 
L 83.657139 234.832567 
L 83.719915 234.94008 
L 83.782692 234.859113 
L 83.845468 234.832567 
L 83.971021 234.374644 
L 84.096574 235.182976 
L 84.222126 234.535248 
L 84.410456 234.966624 
L 84.536009 234.346771 
L 84.661561 234.725054 
L 84.724338 234.427737 
L 84.787114 234.535248 
L 84.849891 234.563123 
L 84.975443 234.88566 
L 85.03822 234.859113 
L 85.163773 235.155103 
L 85.289325 234.64409 
L 85.414878 234.778147 
L 85.540431 234.616214 
L 85.603207 234.832567 
L 85.72876 234.293678 
L 85.791537 234.346771 
L 85.854313 234.670634 
L 85.917089 234.589668 
L 86.042642 233.915395 
L 86.168195 234.7516 
L 86.230971 234.64409 
L 86.293748 234.563123 
L 86.356524 234.184839 
L 86.419301 234.45561 
L 86.482077 234.804694 
L 86.544853 234.616214 
L 86.670406 234.725054 
L 86.733183 234.7516 
L 86.984288 234.212714 
L 87.172617 234.563123 
L 87.235394 233.996361 
L 87.29817 234.024235 
L 87.423723 234.293678 
L 87.549276 234.050781 
L 87.737605 234.131747 
L 87.988711 233.268996 
L 88.114263 235.721865 
L 88.17704 233.29554 
L 88.239816 233.485346 
L 88.428145 236.422684 
L 88.616475 234.050781 
L 88.679251 236.125367 
L 88.742027 235.80283 
L 88.804804 235.829377 
L 88.930357 234.077328 
L 88.993133 234.158292 
L 89.307015 233.134936 
L 89.495344 233.888849 
L 89.558121 233.888849 
L 89.620897 233.592859 
L 89.683673 233.619405 
L 89.872003 235.344909 
L 89.934779 234.913533 
L 89.997555 235.102011 
L 90.060332 234.88566 
L 90.123108 234.913533 
L 90.185885 235.344909 
L 90.248661 235.290489 
L 90.43699 234.616214 
L 90.499767 234.64409 
L 90.562543 235.155103 
L 90.625319 235.021045 
L 90.813649 234.563123 
L 90.876425 235.102011 
L 90.939202 235.047591 
L 91.190307 233.726916 
L 91.253084 233.781338 
L 91.31586 234.105201 
L 91.378636 233.700371 
L 91.441413 233.862302 
L 91.504189 233.862302 
L 91.692518 234.563123 
L 91.755295 234.535248 
L 91.818071 234.293678 
L 91.880848 234.427737 
L 92.069177 235.398001 
L 92.131953 235.344909 
L 92.445835 234.293678 
L 92.634164 233.834429 
L 92.696941 234.131747 
L 92.822494 233.673825 
L 92.948046 233.781338 
L 93.073599 234.077328 
L 93.324705 233.754791 
L 93.57581 234.401191 
L 93.76414 233.888849 
L 93.826916 234.158292 
L 93.889692 234.994499 
L 93.952469 234.859113 
L 94.078022 234.024235 
L 94.140798 234.535248 
L 94.203574 234.482157 
L 94.266351 234.374644 
L 94.391904 233.619405 
L 94.580233 234.508704 
L 94.643009 234.482157 
L 94.705786 234.320224 
L 94.768562 234.346771 
L 94.831338 234.427737 
L 94.956891 234.077328 
L 95.019668 234.131747 
L 95.207997 235.021045 
L 95.33355 234.320224 
L 95.459102 235.021045 
L 95.647432 233.754791 
L 95.772984 234.239258 
L 95.961314 234.024235 
L 96.02409 234.401191 
L 96.086866 234.374644 
L 96.149643 234.212714 
L 96.337972 234.563123 
L 96.651854 234.616214 
L 96.90296 234.374644 
L 97.028512 234.374644 
L 97.091289 234.64409 
L 97.154065 234.589668 
L 97.342395 233.969815 
L 97.405171 234.050781 
L 97.5935 234.45561 
L 97.719053 234.45561 
L 97.907382 233.834429 
L 97.970159 233.969815 
L 98.158488 234.374644 
L 98.284041 233.700371 
L 98.346817 234.508704 
L 98.409593 234.346771 
L 98.535146 234.427737 
L 98.660699 234.670634 
L 98.723475 234.374644 
L 98.786252 234.482157 
L 98.849028 234.670634 
L 98.911805 234.535248 
L 99.037357 234.105201 
L 99.225687 234.778147 
L 99.288463 234.725054 
L 99.351239 234.697181 
L 99.414016 234.482157 
L 99.539569 234.88566 
L 99.602345 234.7516 
L 99.790674 233.915395 
L 99.853451 233.943268 
L 99.979003 234.589668 
L 100.04178 234.482157 
L 100.104556 234.7516 
L 100.292885 233.807882 
L 100.355662 233.943268 
L 100.481215 234.374644 
L 100.543991 234.184839 
L 100.606767 234.239258 
L 100.669544 234.293678 
L 100.795097 234.94008 
L 100.983426 234.131747 
L 101.108979 234.725054 
L 101.171755 234.158292 
L 101.234531 234.265805 
L 101.297308 234.265805 
L 101.360084 234.050781 
L 101.548413 234.401191 
L 101.61119 234.077328 
L 101.673966 234.184839 
L 101.862295 233.969815 
L 102.113401 234.401191 
L 102.176177 234.320224 
L 102.30173 234.024235 
L 102.427283 234.401191 
L 102.552836 233.645952 
L 102.615612 233.862302 
L 102.929494 234.616214 
L 102.992271 234.616214 
L 103.055047 235.102011 
L 103.117823 235.021045 
L 103.306153 234.077328 
L 103.431705 234.158292 
L 103.620035 234.508704 
L 103.87114 235.102011 
L 103.933917 234.913533 
L 103.996693 235.128557 
L 104.122246 234.077328 
L 104.247799 234.105201 
L 104.436128 234.427737 
L 104.561681 234.563123 
L 104.624457 234.024235 
L 104.687234 234.050781 
L 104.812786 234.401191 
L 104.938339 233.29554 
L 105.001116 233.619405 
L 105.189445 234.401191 
L 105.252221 234.535248 
L 105.377774 233.915395 
L 105.44055 234.346771 
L 105.503327 234.050781 
L 105.566103 234.077328 
L 105.691656 233.645952 
L 105.817209 234.320224 
L 105.879985 234.64409 
L 106.068314 233.888849 
L 106.193867 234.563123 
L 106.256644 234.401191 
L 106.382196 233.673825 
L 106.507749 234.374644 
L 106.570526 234.265805 
L 106.633302 233.915395 
L 106.696078 234.184839 
L 106.821631 234.346771 
L 106.947184 233.888849 
L 107.072737 234.346771 
L 107.19829 233.645952 
L 107.449395 234.239258 
L 107.512172 234.401191 
L 107.700501 233.457473 
L 107.763277 233.726916 
L 107.88883 234.346771 
L 108.139936 233.619405 
L 108.328265 234.589668 
L 108.516594 233.943268 
L 108.57937 234.077328 
L 108.642147 233.862302 
L 108.704923 233.996361 
L 108.893252 234.535248 
L 109.144358 233.726916 
L 109.332687 234.050781 
L 109.395464 233.969815 
L 109.45824 233.969815 
L 109.646569 234.320224 
L 109.834898 233.943268 
L 109.897675 234.024235 
L 109.960451 234.320224 
L 110.023228 234.184839 
L 110.086004 233.807882 
L 110.148781 234.050781 
L 110.274333 235.155103 
L 110.33711 234.94008 
L 110.462663 233.862302 
L 110.588215 234.804694 
L 110.650992 234.482157 
L 110.839321 234.804694 
L 110.902097 234.994499 
L 111.02765 234.024235 
L 111.090427 234.212714 
L 111.153203 234.050781 
L 111.278756 235.155103 
L 111.404309 234.346771 
L 111.467085 234.508704 
L 111.592638 234.401191 
L 111.780967 234.697181 
L 111.843743 234.427737 
L 111.90652 234.535248 
L 112.032073 234.966624 
L 112.094849 234.725054 
L 112.408731 234.239258 
L 112.534284 234.616214 
L 112.59706 234.535248 
L 112.785389 234.050781 
L 112.910942 234.374644 
L 113.036495 234.265805 
L 113.099271 233.915395 
L 113.162048 233.996361 
L 113.287601 234.320224 
L 113.350377 234.158292 
L 113.413153 234.184839 
L 113.47593 234.401191 
L 113.538706 234.374644 
L 113.601483 234.401191 
L 113.664259 234.589668 
L 113.727035 234.45561 
L 113.789812 234.374644 
L 113.852588 234.482157 
L 113.915365 234.374644 
L 114.040917 234.265805 
L 114.16647 234.7516 
L 114.229247 234.616214 
L 114.292023 234.589668 
L 114.354799 234.346771 
L 114.417576 234.508704 
L 114.543129 234.401191 
L 114.668681 234.346771 
L 114.857011 235.075464 
L 114.982563 234.616214 
L 115.04534 235.047591 
L 115.108116 234.994499 
L 115.170893 234.778147 
L 115.233669 234.94008 
L 115.296445 234.88566 
L 115.484775 235.263943 
L 115.610327 235.640899 
L 115.798657 234.778147 
L 115.861433 234.913533 
L 115.924209 234.804694 
L 115.986986 234.670634 
L 116.175315 235.667445 
L 116.238091 235.425874 
L 116.363644 235.155103 
L 116.489197 235.748411 
L 116.551974 235.290489 
L 116.61475 235.425874 
L 116.677526 235.695318 
L 116.740303 235.533387 
L 116.928632 235.047591 
L 117.054185 235.371454 
L 117.179738 235.102011 
L 117.242514 234.563123 
L 117.30529 234.966624 
L 117.49362 235.290489 
L 117.556396 235.23607 
L 117.619172 234.94008 
L 117.681949 234.994499 
L 117.744725 234.913533 
L 117.807502 235.182976 
L 117.870278 235.155103 
L 117.995831 235.128557 
L 118.058607 235.425874 
L 118.121384 235.290489 
L 118.18416 235.263943 
L 118.309713 235.425874 
L 118.498042 234.804694 
L 118.623595 235.452421 
L 118.686371 235.344909 
L 118.811924 235.128557 
L 118.937477 235.533387 
L 119.000253 235.398001 
L 119.125806 235.021045 
L 119.251359 235.614352 
L 119.314135 235.452421 
L 119.376912 235.021045 
L 119.439688 235.047591 
L 119.502464 235.128557 
L 119.690794 235.640899 
L 119.816346 235.452421 
L 119.879123 235.317035 
L 119.941899 235.505513 
L 120.067452 235.128557 
L 120.255781 235.614352 
L 120.318558 235.855924 
L 120.44411 234.966624 
L 120.569663 235.290489 
L 120.63244 235.102011 
L 120.757992 235.614352 
L 120.820769 235.614352 
L 120.883545 235.290489 
L 120.946322 235.452421 
L 121.071874 235.829377 
L 121.260204 235.371454 
L 121.385756 235.855924 
L 121.511309 235.075464 
L 121.574086 235.344909 
L 121.636862 235.155103 
L 121.762415 234.778147 
L 121.825191 234.94008 
L 121.887968 234.7516 
L 121.950744 234.859113 
L 122.20185 235.80283 
L 122.264626 235.182976 
L 122.327402 235.263943 
L 122.452955 235.155103 
L 122.578508 235.614352 
L 122.704061 235.317035 
L 122.766837 235.317035 
L 122.829614 235.614352 
L 122.955167 235.075464 
L 123.017943 235.209523 
L 123.143496 235.883797 
L 123.206272 235.80283 
L 123.269049 235.505513 
L 123.331825 235.695318 
L 123.394601 235.667445 
L 123.520154 235.317035 
L 123.582931 235.748411 
L 123.645707 235.640899 
L 123.77126 235.586479 
L 123.834036 235.317035 
L 123.896813 235.533387 
L 124.085142 235.80283 
L 124.210695 235.640899 
L 124.273471 235.721865 
L 124.336247 235.667445 
L 124.399024 235.936889 
L 124.4618 235.695318 
L 124.524577 235.936889 
L 124.650129 235.398001 
L 124.838459 236.234206 
L 124.901235 236.098821 
L 124.964011 235.505513 
L 125.026788 235.721865 
L 125.152341 235.667445 
L 125.277893 236.179787 
L 125.466223 235.936889 
L 125.528999 236.098821 
L 125.591775 236.017855 
L 125.780105 235.344909 
L 125.968434 235.667445 
L 126.03121 235.614352 
L 126.156763 235.80283 
L 126.219539 235.748411 
L 126.282316 235.829377 
L 126.345092 235.452421 
L 126.407869 235.614352 
L 126.596198 235.829377 
L 126.721751 235.748411 
L 126.784527 235.640899 
L 126.972856 236.125367 
L 127.035633 235.721865 
L 127.161185 236.206333 
L 127.223962 236.179787 
L 127.286738 235.855924 
L 127.349515 235.964763 
L 127.412291 235.910343 
L 127.537844 236.125367 
L 127.726173 235.452421 
L 127.851726 235.748411 
L 127.977279 235.559933 
L 128.040055 235.964763 
L 128.102831 235.748411 
L 128.165608 235.452421 
L 128.228384 235.559933 
L 128.353937 235.964763 
L 128.416713 235.614352 
L 128.47949 235.829377 
L 128.605043 235.748411 
L 128.667819 235.640899 
L 128.730595 235.748411 
L 128.981701 235.478967 
L 129.044477 235.640899 
L 129.17003 235.021045 
L 129.295583 235.452421 
L 129.546689 234.482157 
L 129.672242 234.88566 
L 129.860571 233.969815 
L 129.923347 233.996361 
L 130.0489 234.427737 
L 130.174453 233.645952 
L 130.237229 234.158292 
L 130.300006 234.131747 
L 130.362782 234.212714 
L 130.551111 233.807882 
L 130.864993 234.401191 
L 130.990546 234.158292 
L 131.053322 234.293678 
L 131.241652 234.158292 
L 131.367204 234.589668 
L 131.492757 234.265805 
L 131.555534 234.482157 
L 131.61831 234.535248 
L 131.806639 234.184839 
L 131.869416 234.239258 
L 131.994968 234.024235 
L 132.120521 234.077328 
L 132.183298 233.888849 
L 132.30885 234.508704 
L 132.371627 234.158292 
L 132.434403 234.212714 
L 132.49718 234.64409 
L 132.559956 234.482157 
L 132.748285 234.374644 
L 132.873838 234.077328 
L 132.999391 234.482157 
L 133.062167 234.401191 
L 133.124944 234.265805 
L 133.18772 234.563123 
L 133.250496 234.427737 
L 133.313273 234.131747 
L 133.376049 234.239258 
L 133.438826 234.401191 
L 133.501602 234.293678 
L 133.627155 234.239258 
L 133.752708 233.862302 
L 134.003813 234.778147 
L 134.129366 234.346771 
L 134.192142 234.374644 
L 134.254919 234.482157 
L 134.317695 234.346771 
L 134.443248 234.804694 
L 134.75713 234.131747 
L 134.819906 234.320224 
L 134.882683 234.616214 
L 134.945459 234.508704 
L 135.008236 234.563123 
L 135.071012 234.482157 
L 135.133788 234.374644 
L 135.259341 234.616214 
L 135.384894 234.320224 
L 135.510447 234.563123 
L 135.698776 233.943268 
L 135.824329 234.508704 
L 135.887105 234.265805 
L 135.949882 234.427737 
L 136.200987 234.94008 
L 136.32654 234.212714 
L 136.389317 234.64409 
L 136.452093 234.401191 
L 136.514869 234.401191 
L 136.640422 234.131747 
L 136.765975 234.535248 
L 136.828751 234.45561 
L 137.017081 234.131747 
L 137.079857 234.184839 
L 137.142633 234.024235 
L 137.20541 234.427737 
L 137.268186 234.265805 
L 137.330963 234.482157 
L 137.707621 233.592859 
L 137.770397 233.673825 
L 137.833174 233.457473 
L 137.958727 234.105201 
L 138.147056 233.268996 
L 138.209832 233.161483 
L 138.272609 233.242449 
L 138.398161 233.376506 
L 138.586491 232.325278 
L 138.649267 232.594721 
L 138.900373 231.652331 
L 138.963149 231.733298 
L 139.025925 232.055834 
L 139.214255 231.544818 
L 139.46536 231.705423 
L 139.653689 231.032476 
L 139.779242 231.624458 
L 139.842019 231.490399 
L 139.904795 231.516945 
L 139.967571 231.194409 
L 140.030348 231.463852 
L 140.093124 231.113443 
L 140.155901 231.328466 
L 140.218677 231.435979 
L 140.34423 231.004603 
L 140.407006 231.032476 
L 140.532559 231.220955 
L 140.846441 230.465714 
L 140.909217 230.654194 
L 140.971994 230.520134 
L 141.160323 230.007794 
L 141.223099 230.062214 
L 141.285876 229.873735 
L 141.411429 230.573227 
L 141.725311 229.280426 
L 141.850863 229.280426 
L 141.91364 229.064076 
L 141.976416 229.172915 
L 142.039193 229.468905 
L 142.101969 229.361392 
L 142.227522 229.495452 
L 142.478628 228.875597 
L 142.60418 229.683929 
L 142.666957 229.495452 
L 142.855286 229.253882 
L 142.918062 229.306973 
L 142.980839 229.845861 
L 143.043615 229.657382 
L 143.420274 228.525187 
L 143.608603 229.306973 
L 143.796932 229.414486 
L 143.859708 229.387939 
L 144.110814 228.930016 
L 144.17359 228.98311 
L 144.299143 228.713666 
L 144.613025 229.414486 
L 144.675802 229.064076 
L 144.738578 229.253882 
L 145.05246 231.194409 
L 145.115236 230.870546 
L 145.240789 230.573227 
L 145.617448 231.733298 
L 145.868553 231.247502 
L 145.994106 232.379697 
L 146.119659 232.055834 
L 146.245212 230.978057 
L 146.307988 231.166536 
L 146.370764 231.113443 
L 146.684646 232.164673 
L 146.747423 231.921775 
L 146.810199 232.055834 
L 146.998528 232.756653 
L 147.124081 232.99955 
L 147.186858 232.784526 
L 147.31241 233.188029 
L 147.375187 233.080516 
L 147.437963 233.161483 
L 147.563516 233.376506 
L 147.751845 233.026097 
L 147.877398 232.99955 
L 148.002951 233.134936 
L 148.128504 232.594721 
L 148.254056 233.700371 
L 148.316833 233.161483 
L 148.442386 232.406244 
L 148.505162 232.434117 
L 148.567939 232.434117 
L 148.693491 233.026097 
L 148.756268 232.945131 
L 148.819044 232.379697 
L 148.881821 232.622594 
L 149.007373 233.05397 
L 149.07015 232.99955 
L 149.132926 232.622594 
L 149.195703 232.649141 
L 149.384032 233.026097 
L 149.446808 232.945131 
L 149.572361 233.188029 
L 149.823467 232.406244 
L 149.886243 232.460663 
L 149.949019 232.811073 
L 150.011796 232.649141 
L 150.200125 231.893902 
L 150.262901 231.974868 
L 150.325678 232.029288 
L 150.388454 232.298731 
L 150.765113 231.032476 
L 151.016218 231.867355 
L 151.3301 231.08557 
L 151.455653 231.301922 
L 151.518429 230.95151 
L 151.581206 231.139989 
L 151.643982 231.220955 
L 151.957864 230.277237 
L 152.020641 230.250691 
L 152.146193 229.683929 
L 152.20897 229.711802 
L 152.334523 230.062214 
L 152.585628 229.172915 
L 152.773957 229.549871 
L 152.962287 230.143178 
L 153.150616 229.199462 
L 153.338945 229.118496 
L 153.527274 228.741539 
L 153.590051 228.956563 
L 153.652827 229.306973 
L 153.715603 229.091949 
L 153.77838 228.822506 
L 153.841156 228.903472 
L 154.029485 229.118496 
L 154.155038 228.822506 
L 154.280591 227.959754 
L 154.406144 228.444221 
L 154.594473 228.148231 
L 154.720026 228.713666 
L 154.782802 228.606153 
L 154.908355 228.903472 
L 155.033908 228.794631 
L 155.096684 228.822506 
L 155.222237 228.283617 
L 155.285014 228.363255 
L 155.34779 228.903472 
L 155.410566 228.579607 
L 155.473343 228.472096 
L 155.724448 229.468905 
L 155.787225 229.037529 
L 155.850001 229.172915 
L 155.912778 229.387939 
L 155.975554 229.280426 
L 156.03833 229.037529 
L 156.101107 229.064076 
L 156.163883 229.145042 
L 156.22666 229.010983 
L 156.352212 229.819315 
L 156.414989 229.738349 
L 156.603318 228.98311 
L 156.666094 229.118496 
L 156.791647 229.523325 
L 157.042753 229.199462 
L 157.293858 229.873735 
L 157.419411 229.576418 
L 157.60774 230.49359 
L 157.670517 230.250691 
L 157.858846 230.143178 
L 157.921622 230.196271 
L 158.109952 230.923637 
L 158.423834 230.978057 
L 158.48661 230.843999 
L 158.612163 231.032476 
L 158.674939 231.571365 
L 158.737716 231.355013 
L 158.800492 230.89709 
L 158.863268 231.247502 
L 158.926045 231.382886 
L 158.988821 231.139989 
L 159.051598 231.463852 
L 159.114374 231.220955 
L 159.17715 231.08557 
L 159.239927 231.139989 
L 159.302703 231.113443 
L 159.428256 231.678878 
L 159.491032 231.597912 
L 159.616585 231.059023 
L 159.679362 230.978057 
L 160.181573 231.624458 
L 160.369902 231.247502 
L 160.558231 231.705423 
L 160.683784 231.355013 
L 160.74656 231.490399 
L 160.872113 231.678878 
L 160.997666 231.516945 
L 161.060442 231.893902 
L 161.123219 231.652331 
L 161.185995 231.382886 
L 161.248772 231.516945 
L 161.374325 231.814262 
L 161.562654 231.624458 
L 161.62543 231.705423 
L 161.876536 231.139989 
L 162.064865 231.516945 
L 162.127641 231.409433 
L 162.441523 230.520134 
L 162.5043 230.763033 
L 162.567076 230.169724 
L 162.629853 230.412623 
L 162.692629 230.708613 
L 162.755405 230.627647 
L 162.943735 230.034339 
L 163.19484 230.73516 
L 163.257617 230.627647 
L 163.383169 230.196271 
L 163.445946 230.331657 
L 163.634275 229.953374 
L 163.697051 229.900281 
L 163.885381 230.43917 
L 163.948157 230.38475 
L 164.010933 230.546681 
L 164.199263 230.196271 
L 164.262039 230.331657 
L 164.324815 230.250691 
L 164.450368 229.602963 
L 164.513145 229.819315 
L 164.575921 229.792768 
L 164.638697 229.576418 
L 164.701474 229.630838 
L 164.76425 229.845861 
L 164.827027 229.764895 
L 164.889803 229.333519 
L 164.952579 229.523325 
L 165.015356 229.683929 
L 165.078132 229.657382 
L 165.329238 229.602963 
L 165.392014 229.711802 
L 165.454791 229.602963 
L 165.580343 229.361392 
L 165.64312 229.414486 
L 165.705896 229.549871 
L 165.894225 228.98311 
L 165.957002 228.903472 
L 166.019778 229.172915 
L 166.082555 229.010983 
L 166.145331 229.145042 
L 166.270884 229.711802 
L 166.647542 228.6327 
L 166.773095 228.903472 
L 166.835871 228.525187 
L 166.898648 228.579607 
L 166.961424 228.6327 
L 167.086977 229.199462 
L 167.149753 229.172915 
L 167.275306 229.387939 
L 167.338083 229.280426 
L 167.400859 229.199462 
L 167.651965 229.845861 
L 167.777518 229.199462 
L 167.840294 229.280426 
L 167.90307 229.064076 
L 167.965847 229.172915 
L 168.0914 229.280426 
L 168.154176 229.037529 
L 168.216952 229.091949 
L 168.342505 229.981247 
L 168.405282 229.953374 
L 168.593611 229.468905 
L 168.656387 229.792768 
L 168.719164 229.630838 
L 168.78194 229.630838 
L 168.844716 229.199462 
L 168.907493 229.442359 
L 168.970269 229.199462 
L 169.158598 230.250691 
L 169.221375 229.845861 
L 169.284151 230.034339 
L 169.409704 229.792768 
L 169.47248 229.602963 
L 169.535257 229.711802 
L 169.723586 230.412623 
L 169.849139 230.331657 
L 169.911915 230.654194 
L 169.974692 230.412623 
L 170.163021 229.711802 
L 170.288574 230.763033 
L 170.35135 230.708613 
L 170.476903 230.143178 
L 170.665232 230.843999 
L 170.728008 230.816126 
L 170.979114 230.115305 
L 171.104667 230.89709 
L 171.167443 230.843999 
L 171.23022 230.520134 
L 171.292996 230.923637 
L 171.355772 230.816126 
L 171.418549 230.763033 
L 171.481325 230.870546 
L 171.606878 230.6011 
L 171.669654 230.978057 
L 171.732431 230.843999 
L 171.857984 230.95151 
L 171.92076 231.247502 
L 172.046313 230.6011 
L 172.234642 231.113443 
L 172.360195 231.301922 
L 172.422971 231.166536 
L 172.6113 230.49359 
L 172.862406 231.08557 
L 172.925182 230.978057 
L 172.987959 230.49359 
L 173.050735 230.73516 
L 173.113512 230.870546 
L 173.176288 230.816126 
L 173.427394 230.277237 
L 173.49017 230.546681 
L 173.552946 230.38475 
L 173.678499 230.763033 
L 173.741276 230.43917 
L 173.929605 230.78958 
L 174.055158 230.708613 
L 174.18071 230.870546 
L 174.431816 229.981247 
L 174.682922 230.573227 
L 174.745698 230.573227 
L 174.808475 230.358204 
L 174.871251 230.546681 
L 174.934027 230.465714 
L 175.05958 229.711802 
L 175.122357 229.900281 
L 175.247909 230.520134 
L 175.310686 230.38475 
L 175.373462 229.953374 
L 175.436239 229.981247 
L 175.499015 229.953374 
L 175.687344 230.277237 
L 175.812897 229.549871 
L 175.875673 229.845861 
L 175.93845 229.657382 
L 176.126779 229.414486 
L 176.189555 229.145042 
L 176.252332 229.361392 
L 176.315108 229.442359 
L 176.440661 230.115305 
L 176.503437 230.007794 
L 176.566214 230.088758 
L 176.62899 229.981247 
L 176.691767 230.088758 
L 176.817319 230.088758 
L 177.005649 229.738349 
L 177.131201 230.062214 
L 177.193978 230.034339 
L 177.382307 229.306973 
L 177.445083 229.387939 
L 177.633413 229.981247 
L 177.696189 229.873735 
L 177.758965 229.657382 
L 177.821742 229.819315 
L 177.884518 229.683929 
L 177.947295 229.819315 
L 178.072847 230.6011 
L 178.1984 229.280426 
L 178.261177 229.442359 
L 178.323953 229.873735 
L 178.386729 229.792768 
L 178.575059 229.819315 
L 178.637835 229.683929 
L 178.700611 229.764895 
L 178.826164 228.903472 
L 179.07727 229.280426 
L 179.140046 229.226006 
L 179.391152 230.007794 
L 179.516705 229.926828 
L 179.642257 229.900281 
L 179.705034 230.250691 
L 179.76781 230.115305 
L 180.018916 229.333519 
L 180.207245 230.115305 
L 180.270021 230.143178 
L 180.583903 229.576418 
L 180.835009 230.43917 
L 180.897786 230.007794 
L 180.960562 230.196271 
L 181.148891 230.573227 
L 181.211668 230.520134 
L 181.33722 229.926828 
L 181.462773 230.303784 
L 181.651102 229.845861 
L 181.776655 230.6011 
L 181.839432 230.465714 
L 181.902208 230.43917 
L 181.964984 230.224144 
L 182.027761 230.303784 
L 182.153314 230.088758 
L 182.21609 230.196271 
L 182.529972 231.059023 
L 182.781078 229.900281 
L 182.843854 230.546681 
L 182.90663 230.331657 
L 182.969407 230.196271 
L 183.09496 230.708613 
L 183.157736 230.682067 
L 183.220512 230.923637 
L 183.283289 230.843999 
L 183.346065 230.196271 
L 183.408842 230.358204 
L 183.471618 230.546681 
L 183.597171 231.166536 
L 183.659947 230.73516 
L 183.722724 230.89709 
L 183.848276 231.166536 
L 184.036606 230.169724 
L 184.224935 230.870546 
L 184.350488 230.49359 
L 184.413264 231.004603 
L 184.47604 230.923637 
L 184.538817 230.6011 
L 184.601593 231.032476 
L 184.66437 230.978057 
L 184.915475 230.708613 
L 184.978252 231.08557 
L 185.041028 231.059023 
L 185.103804 231.08557 
L 185.292134 230.6011 
L 185.480463 231.004603 
L 185.543239 230.89709 
L 185.606016 230.978057 
L 185.731568 230.870546 
L 185.794345 230.654194 
L 185.857121 230.708613 
L 185.982674 231.247502 
L 186.04545 231.247502 
L 186.359332 230.115305 
L 186.484885 230.115305 
L 186.547662 229.953374 
L 186.673214 230.627647 
L 186.735991 231.059023 
L 186.861544 230.303784 
L 186.92432 230.358204 
L 186.987096 230.573227 
L 187.049873 230.43917 
L 187.238202 229.657382 
L 187.300979 229.764895 
L 187.426531 229.792768 
L 187.614861 230.38475 
L 187.740413 229.657382 
L 187.80319 229.845861 
L 187.865966 229.900281 
L 187.928743 230.277237 
L 187.991519 230.196271 
L 188.179848 229.468905 
L 188.305401 230.115305 
L 188.368177 229.711802 
L 188.430954 229.764895 
L 188.49373 229.845861 
L 188.556507 229.657382 
L 188.619283 229.819315 
L 188.682059 229.926828 
L 188.744836 229.873735 
L 188.807612 229.900281 
L 188.870389 229.549871 
L 188.933165 229.630838 
L 188.995941 230.143178 
L 189.058718 229.953374 
L 189.184271 229.468905 
L 189.247047 229.764895 
L 189.309823 229.738349 
L 189.435376 229.118496 
L 189.498153 229.306973 
L 189.686482 229.738349 
L 189.812035 230.331657 
L 189.874811 230.250691 
L 190.125917 229.306973 
L 190.188693 229.333519 
L 190.314246 229.764895 
L 190.377022 229.792768 
L 190.439799 229.683929 
L 190.565351 228.741539 
L 190.753681 230.196271 
L 190.94201 229.738349 
L 191.130339 230.196271 
L 191.193115 230.196271 
L 191.444221 229.630838 
L 191.506997 229.711802 
L 191.569774 229.549871 
L 191.63255 229.602963 
L 191.820879 230.115305 
L 192.009209 229.523325 
L 192.071985 229.468905 
L 192.134761 229.792768 
L 192.197538 229.495452 
L 192.260314 229.602963 
L 192.323091 230.115305 
L 192.385867 230.007794 
L 192.51142 229.414486 
L 192.574196 229.442359 
L 192.699749 229.333519 
L 192.762525 229.738349 
L 192.825302 229.387939 
L 192.888078 229.845861 
L 192.950855 229.738349 
L 193.076407 229.523325 
L 193.264737 230.816126 
L 193.327513 230.682067 
L 193.515842 229.873735 
L 193.578619 229.981247 
L 193.704172 230.654194 
L 193.892501 229.764895 
L 193.955277 229.900281 
L 194.143606 230.6011 
L 194.269159 230.062214 
L 194.394712 230.331657 
L 194.457488 230.303784 
L 194.583041 229.845861 
L 194.645818 230.224144 
L 194.708594 229.873735 
L 194.834147 230.78958 
L 194.896923 230.682067 
L 195.085252 230.331657 
L 195.148029 230.682067 
L 195.210805 230.520134 
L 195.273582 230.303784 
L 195.399134 230.89709 
L 195.461911 230.870546 
L 195.524687 230.870546 
L 195.65024 230.358204 
L 195.713016 230.412623 
L 195.964122 229.953374 
L 196.215228 231.247502 
L 196.278004 230.89709 
L 196.403557 230.088758 
L 196.717439 231.08557 
L 196.842992 230.546681 
L 196.905768 230.573227 
L 196.968544 230.331657 
L 197.031321 230.358204 
L 197.094097 230.38475 
L 197.156874 229.900281 
L 197.21965 230.143178 
L 197.282426 230.169724 
L 197.345203 230.007794 
L 197.533532 230.78958 
L 197.721861 229.926828 
L 197.784638 230.250691 
L 197.847414 230.49359 
L 197.972967 229.845861 
L 198.035743 229.873735 
L 198.161296 230.38475 
L 198.224072 230.277237 
L 198.475178 229.711802 
L 198.600731 230.49359 
L 198.663507 230.303784 
L 198.78906 230.250691 
L 199.040166 230.224144 
L 199.165718 229.926828 
L 199.228495 230.034339 
L 199.291271 229.873735 
L 199.416824 230.520134 
L 199.605153 230.062214 
L 199.919035 229.414486 
L 199.981812 229.764895 
L 200.044588 229.711802 
L 200.232917 229.442359 
L 200.295694 229.549871 
L 200.35847 229.764895 
L 200.484023 229.306973 
L 200.546799 229.442359 
L 200.672352 229.873735 
L 200.735129 229.873735 
L 200.797905 230.062214 
L 200.986234 229.549871 
L 201.300116 230.277237 
L 201.739551 229.683929 
L 201.802327 229.738349 
L 201.865104 229.306973 
L 201.92788 229.468905 
L 201.990657 229.711802 
L 202.053433 229.683929 
L 202.116209 229.468905 
L 202.304539 229.845861 
L 202.430091 230.062214 
L 202.492868 229.953374 
L 202.681197 229.495452 
L 202.743973 230.034339 
L 202.80675 229.873735 
L 202.995079 229.657382 
L 203.183408 229.738349 
L 203.371737 230.169724 
L 203.434514 230.062214 
L 203.49729 230.250691 
L 203.560067 230.169724 
L 203.748396 230.43917 
L 203.873949 229.819315 
L 203.999501 230.088758 
L 204.125054 230.627647 
L 204.313383 230.303784 
L 204.37616 230.654194 
L 204.438936 230.412623 
L 204.627265 230.224144 
L 204.690042 230.358204 
L 204.752818 229.845861 
L 204.815595 229.873735 
L 204.878371 230.412623 
L 204.941147 230.38475 
L 205.003924 230.412623 
L 205.0667 230.573227 
L 205.192253 230.007794 
L 205.255029 230.115305 
L 205.317806 230.224144 
L 205.506135 229.819315 
L 205.757241 230.654194 
L 205.820017 230.49359 
L 205.882793 230.49359 
L 206.071123 229.819315 
L 206.196675 230.43917 
L 206.259452 230.115305 
L 206.322228 230.358204 
L 206.447781 229.981247 
L 206.698887 230.6011 
L 207.012769 229.873735 
L 207.075545 229.926828 
L 207.263874 230.38475 
L 207.326651 230.303784 
L 207.452204 230.49359 
L 207.766086 229.981247 
L 207.954415 230.277237 
L 208.017191 230.465714 
L 208.142744 229.900281 
L 208.331073 230.78958 
L 208.39385 230.520134 
L 208.456626 230.682067 
L 208.519402 230.520134 
L 208.644955 231.032476 
L 208.896061 229.495452 
L 209.209943 230.412623 
L 209.335496 230.250691 
L 209.398272 230.412623 
L 209.586601 229.738349 
L 209.77493 230.573227 
L 209.96326 229.845861 
L 210.026036 230.169724 
L 210.214365 230.763033 
L 210.277142 230.654194 
L 210.339918 230.303784 
L 210.402694 230.573227 
L 210.528247 230.682067 
L 210.591024 230.6011 
L 210.6538 230.250691 
L 210.716576 230.303784 
L 210.779353 230.546681 
L 210.842129 230.412623 
L 210.904906 230.358204 
L 210.967682 230.708613 
L 211.093235 230.007794 
L 211.34434 230.412623 
L 211.469893 229.306973 
L 211.53267 229.549871 
L 211.909328 230.007794 
L 211.972104 229.738349 
L 212.034881 229.900281 
L 212.097657 229.819315 
L 212.160434 229.873735 
L 212.22321 230.546681 
L 212.285986 230.520134 
L 212.537092 229.711802 
L 212.599868 229.845861 
L 212.788198 229.387939 
L 212.976527 230.43917 
L 213.039303 230.143178 
L 213.164856 230.816126 
L 213.478738 229.845861 
L 213.604291 230.358204 
L 213.79262 229.683929 
L 213.980949 230.034339 
L 214.106502 229.468905 
L 214.169279 229.683929 
L 214.357608 230.224144 
L 214.67149 229.630838 
L 214.734266 229.873735 
L 214.797043 229.683929 
L 214.859819 229.602963 
L 214.922595 229.657382 
L 214.985372 229.711802 
L 215.048148 229.549871 
L 215.110925 229.630838 
L 215.236477 230.303784 
L 215.299254 230.169724 
L 215.487583 229.845861 
L 215.675912 230.034339 
L 215.738689 229.657382 
L 215.801465 229.873735 
L 215.927018 230.412623 
L 215.989794 230.169724 
L 216.115347 229.900281 
L 216.303676 229.280426 
L 216.492005 230.169724 
L 216.554782 229.576418 
L 216.617558 229.792768 
L 216.805887 229.819315 
L 216.868664 230.088758 
L 216.93144 229.873735 
L 217.119769 230.250691 
L 217.182546 230.546681 
L 217.245322 230.465714 
L 217.433651 229.602963 
L 217.621981 230.49359 
L 217.747533 230.088758 
L 217.998639 230.573227 
L 218.124192 230.143178 
L 218.186968 230.303784 
L 218.375297 230.708613 
L 218.50085 230.654194 
L 218.689179 230.034339 
L 218.814732 230.49359 
L 218.877509 229.873735 
L 218.940285 229.981247 
L 219.003061 230.465714 
L 219.065838 230.250691 
L 219.128614 229.873735 
L 219.191391 229.900281 
L 219.254167 229.953374 
L 219.316944 230.277237 
L 219.37972 230.115305 
L 219.505273 229.845861 
L 219.630826 230.250691 
L 219.693602 230.143178 
L 219.819155 229.630838 
L 219.881931 229.819315 
L 219.944708 229.953374 
L 220.133037 230.6011 
L 220.384142 230.224144 
L 220.446919 230.115305 
L 220.572472 230.224144 
L 220.698024 229.738349 
L 220.760801 229.845861 
L 220.823577 230.007794 
L 220.94913 229.657382 
L 221.137459 230.303784 
L 221.200236 230.520134 
L 221.451341 229.792768 
L 221.514118 229.981247 
L 221.576894 229.819315 
L 221.702447 229.683929 
L 221.765223 230.196271 
L 221.828 230.143178 
L 221.890776 230.196271 
L 221.953552 229.953374 
L 222.016329 230.062214 
L 222.079105 229.981247 
L 222.141882 229.414486 
L 222.204658 229.738349 
L 222.267434 230.007794 
L 222.392987 229.387939 
L 222.455764 229.495452 
L 222.581316 230.412623 
L 222.706869 229.657382 
L 222.769646 230.062214 
L 222.832422 230.38475 
L 222.895198 230.331657 
L 222.957975 230.412623 
L 223.020751 230.196271 
L 223.146304 230.43917 
L 223.334633 229.711802 
L 223.460186 230.763033 
L 223.522962 230.573227 
L 223.711292 229.523325 
L 223.962397 230.763033 
L 224.025174 230.115305 
L 224.08795 230.196271 
L 224.213503 230.49359 
L 224.401832 229.926828 
L 224.652938 230.43917 
L 224.77849 230.034339 
L 224.841267 230.115305 
L 224.96682 230.78958 
L 225.217925 229.873735 
L 225.280702 230.143178 
L 225.343478 230.007794 
L 225.406254 229.845861 
L 225.594584 230.088758 
L 225.720137 229.495452 
L 225.782913 229.576418 
L 225.971242 229.845861 
L 226.034019 229.711802 
L 226.096795 229.900281 
L 226.159571 229.873735 
L 226.222348 229.414486 
L 226.285124 229.523325 
L 226.473453 230.007794 
L 226.599006 229.199462 
L 226.661783 229.387939 
L 226.787335 229.468905 
L 226.912888 230.250691 
L 226.975665 230.143178 
L 227.101217 229.981247 
L 227.22677 230.73516 
L 227.289547 230.546681 
L 227.477876 229.657382 
L 227.728981 230.331657 
L 227.791758 230.196271 
L 227.854534 230.38475 
L 227.980087 229.792768 
L 228.042863 229.845861 
L 228.10564 230.38475 
L 228.168416 230.277237 
L 228.231193 230.169724 
L 228.419522 230.843999 
L 228.607851 229.981247 
L 228.670627 230.034339 
L 228.733404 229.845861 
L 228.921733 230.49359 
L 229.172839 229.683929 
L 229.361168 230.520134 
L 229.486721 230.49359 
L 229.549497 230.73516 
L 229.67505 230.062214 
L 229.800603 230.520134 
L 229.863379 230.224144 
L 229.988932 229.602963 
L 230.051708 229.683929 
L 230.302814 230.277237 
L 230.36559 230.088758 
L 230.428367 230.224144 
L 230.491143 230.412623 
L 230.616696 229.576418 
L 230.867801 230.627647 
L 230.993354 230.034339 
L 231.056131 229.792768 
L 231.118907 230.303784 
L 231.181683 230.115305 
L 231.307236 230.358204 
L 231.370013 229.900281 
L 231.432789 230.062214 
L 231.495565 230.169724 
L 231.558342 230.088758 
L 231.621118 229.683929 
L 231.809447 230.250691 
L 231.935 230.43917 
L 232.437212 229.414486 
L 232.499988 229.900281 
L 232.562764 229.845861 
L 232.688317 229.845861 
L 232.751094 230.250691 
L 232.81387 230.169724 
L 232.876646 229.764895 
L 232.939423 229.953374 
L 233.064976 230.303784 
L 233.127752 230.196271 
L 233.253305 230.763033 
L 233.50441 229.764895 
L 233.567187 229.873735 
L 233.755516 230.303784 
L 233.818292 230.062214 
L 233.881069 230.38475 
L 234.069398 229.764895 
L 234.257727 230.49359 
L 234.320504 230.38475 
L 234.508833 229.900281 
L 234.697162 230.6011 
L 234.822715 230.034339 
L 235.136597 230.573227 
L 235.324926 229.926828 
L 235.450479 230.520134 
L 235.576032 230.303784 
L 235.638808 229.900281 
L 235.701584 230.331657 
L 235.764361 230.277237 
L 235.889914 230.573227 
L 235.95269 230.43917 
L 236.015466 230.43917 
L 236.203796 229.981247 
L 236.329348 230.224144 
L 236.517678 229.900281 
L 236.580454 230.034339 
L 236.706007 229.602963 
L 236.83156 230.573227 
L 236.894336 230.465714 
L 237.082665 229.900281 
L 237.145442 230.062214 
L 237.208218 230.250691 
L 237.270994 230.115305 
L 237.333771 230.250691 
L 237.396547 229.981247 
L 237.459324 230.303784 
L 237.5221 230.277237 
L 237.584876 230.331657 
L 237.647653 230.250691 
L 237.710429 230.277237 
L 237.898758 229.953374 
L 238.024311 230.062214 
L 238.087088 229.819315 
L 238.149864 229.873735 
L 238.275417 230.358204 
L 238.338193 230.331657 
L 238.40097 230.465714 
L 238.463746 230.38475 
L 238.589299 230.007794 
L 238.652075 230.250691 
L 238.714852 230.196271 
L 238.777628 229.953374 
L 238.840405 230.088758 
L 238.903181 230.088758 
L 238.965957 229.764895 
L 239.028734 229.900281 
L 239.217063 230.546681 
L 239.342616 230.763033 
L 239.468169 230.412623 
L 239.530945 229.900281 
L 239.593721 230.143178 
L 239.656498 230.169724 
L 239.719274 229.873735 
L 239.782051 230.224144 
L 239.844827 230.196271 
L 240.033156 230.465714 
L 240.221485 230.115305 
L 240.284262 230.007794 
L 240.347038 230.331657 
L 240.409815 230.062214 
L 240.472591 230.088758 
L 240.66092 230.358204 
L 240.723697 230.169724 
L 240.786473 230.277237 
L 240.849249 230.358204 
L 240.974802 230.654194 
L 241.037579 230.6011 
L 241.100355 230.78958 
L 241.163131 230.654194 
L 241.288684 230.250691 
L 241.414237 230.331657 
L 241.53979 230.546681 
L 241.602566 230.196271 
L 241.665343 230.224144 
L 241.853672 230.088758 
L 241.979225 230.654194 
L 242.042001 230.573227 
L 242.104777 230.250691 
L 242.23033 230.708613 
L 242.293107 230.6011 
L 242.355883 230.682067 
L 242.418659 230.816126 
L 242.732541 229.873735 
L 242.920871 230.38475 
L 243.046423 229.953374 
L 243.234753 230.546681 
L 243.297529 230.143178 
L 243.360305 230.38475 
L 243.485858 230.573227 
L 243.611411 230.412623 
L 243.736964 230.573227 
L 243.79974 230.115305 
L 243.862517 230.224144 
L 243.925293 230.115305 
L 244.050846 230.38475 
L 244.239175 230.143178 
L 244.301951 230.088758 
L 244.364728 230.358204 
L 244.427504 230.277237 
L 244.490281 230.007794 
L 244.553057 230.143178 
L 244.615833 230.088758 
L 244.804163 230.43917 
L 244.866939 230.520134 
L 245.055268 230.169724 
L 245.243598 230.331657 
L 245.306374 230.088758 
L 245.36915 230.224144 
L 245.494703 230.358204 
L 245.620256 229.873735 
L 245.683032 230.250691 
L 245.745809 230.196271 
L 245.808585 230.277237 
L 245.996914 229.683929 
L 246.24802 230.43917 
L 246.310796 230.007794 
L 246.373573 230.143178 
L 246.499126 230.978057 
L 246.561902 230.95151 
L 246.687455 230.870546 
L 246.750231 230.465714 
L 246.813008 230.546681 
L 246.875784 230.654194 
L 246.93856 230.546681 
L 247.001337 230.49359 
L 247.064113 230.062214 
L 247.12689 230.169724 
L 247.189666 230.331657 
L 247.315219 229.953374 
L 247.377995 230.115305 
L 247.440772 230.115305 
L 247.503548 230.358204 
L 247.566324 230.169724 
L 247.629101 229.981247 
L 247.691877 230.088758 
L 248.068536 229.873735 
L 248.382418 230.412623 
L 248.445194 229.926828 
L 248.50797 230.062214 
L 248.633523 230.546681 
L 248.6963 230.250691 
L 248.759076 229.981247 
L 248.821852 230.034339 
L 248.884629 230.088758 
L 248.947405 230.520134 
L 249.010182 230.412623 
L 249.135734 230.49359 
L 249.261287 229.764895 
L 249.324064 229.819315 
L 249.449616 230.843999 
L 249.637946 230.277237 
L 249.951828 230.708613 
L 250.014604 230.520134 
L 250.07738 230.682067 
L 250.140157 230.73516 
L 250.328486 229.900281 
L 250.391262 230.277237 
L 250.454039 230.465714 
L 250.516815 230.38475 
L 250.579592 230.088758 
L 250.642368 230.303784 
L 250.705144 230.331657 
L 250.893474 229.981247 
L 251.144579 230.303784 
L 251.332909 229.711802 
L 251.521238 230.763033 
L 251.646791 230.520134 
L 251.772343 230.978057 
L 251.960673 229.738349 
L 252.086225 230.38475 
L 252.211778 230.412623 
L 252.274555 230.816126 
L 252.337331 230.682067 
L 252.462884 230.224144 
L 252.52566 230.43917 
L 252.588437 230.115305 
L 252.651213 230.143178 
L 252.839542 230.708613 
L 252.965095 230.169724 
L 253.153424 230.465714 
L 253.278977 229.764895 
L 253.341753 229.873735 
L 253.40453 229.926828 
L 253.530083 230.573227 
L 253.655635 229.873735 
L 253.718412 230.143178 
L 253.843965 229.764895 
L 253.906741 230.38475 
L 253.969517 230.062214 
L 254.09507 229.630838 
L 254.220623 229.819315 
L 254.283399 230.224144 
L 254.346176 230.196271 
L 254.534505 229.683929 
L 254.597281 229.900281 
L 254.785611 230.169724 
L 254.911163 229.981247 
L 255.099493 230.358204 
L 255.225045 230.412623 
L 255.350598 230.78958 
L 255.413375 230.708613 
L 255.476151 230.277237 
L 255.538927 230.38475 
L 255.790033 229.900281 
L 255.852809 230.007794 
L 255.915586 229.764895 
L 256.103915 230.303784 
L 256.166691 230.007794 
L 256.229468 230.062214 
L 256.292244 230.088758 
L 256.480573 230.303784 
L 256.54335 230.169724 
L 256.668903 230.358204 
L 256.857232 229.845861 
L 257.171114 230.520134 
L 257.23389 230.169724 
L 257.296667 230.277237 
L 257.422219 229.953374 
L 257.610549 230.546681 
L 257.736102 229.981247 
L 257.798878 230.250691 
L 257.861654 230.412623 
L 257.924431 230.38475 
L 258.049984 229.981247 
L 258.11276 230.034339 
L 258.175536 230.143178 
L 258.301089 230.6011 
L 258.363866 230.573227 
L 258.614971 229.845861 
L 258.8033 230.358204 
L 258.928853 229.953374 
L 258.99163 230.277237 
L 259.054406 230.224144 
L 259.117182 230.250691 
L 259.242735 229.602963 
L 259.431064 230.224144 
L 259.493841 229.523325 
L 259.556617 229.792768 
L 259.68217 230.250691 
L 259.744946 230.169724 
L 259.807723 229.900281 
L 259.870499 229.953374 
L 259.933276 230.224144 
L 259.996052 229.900281 
L 260.058828 230.143178 
L 260.121605 230.303784 
L 260.184381 230.143178 
L 260.247158 230.250691 
L 260.309934 230.224144 
L 260.37271 229.900281 
L 260.435487 230.196271 
L 260.56104 229.387939 
L 260.812145 230.546681 
L 260.937698 230.196271 
L 261.063251 230.43917 
L 261.126027 230.062214 
L 261.188804 230.088758 
L 261.314356 230.196271 
L 261.439909 230.465714 
L 261.565462 229.764895 
L 261.628238 230.034339 
L 261.753791 230.331657 
L 261.879344 229.819315 
L 261.94212 230.331657 
L 262.004897 230.250691 
L 262.13045 229.657382 
L 262.256002 229.845861 
L 262.507108 230.358204 
L 262.695437 229.900281 
L 262.758214 230.062214 
L 262.82099 229.926828 
L 262.883766 229.657382 
L 262.946543 229.845861 
L 263.197648 230.465714 
L 263.323201 230.062214 
L 263.51153 230.43917 
L 263.637083 229.953374 
L 263.762636 230.546681 
L 263.825412 230.49359 
L 263.950965 229.468905 
L 264.202071 230.088758 
L 264.264847 229.981247 
L 264.3904 230.38475 
L 264.453177 229.953374 
L 264.515953 230.034339 
L 264.578729 230.38475 
L 264.704282 229.683929 
L 264.892611 230.627647 
L 265.26927 229.442359 
L 265.394823 229.738349 
L 265.583152 230.465714 
L 265.645928 230.062214 
L 265.708705 230.303784 
L 265.771481 230.465714 
L 265.897034 229.981247 
L 266.022587 230.49359 
L 266.085363 230.465714 
L 266.148139 230.143178 
L 266.210916 230.331657 
L 266.524798 229.683929 
L 266.775903 230.088758 
L 266.964233 230.763033 
L 267.466444 229.900281 
L 267.654773 230.115305 
L 267.717549 230.196271 
L 267.905879 229.764895 
L 267.968655 229.792768 
L 268.094208 230.277237 
L 268.156984 230.143178 
L 268.345313 230.062214 
L 268.40809 229.819315 
L 268.470866 229.873735 
L 268.596419 230.062214 
L 268.659195 230.062214 
L 268.847525 229.764895 
L 268.973077 230.43917 
L 269.035854 230.38475 
L 269.09863 230.303784 
L 269.161407 229.953374 
L 269.286959 230.654194 
L 269.412512 230.49359 
L 269.475289 230.169724 
L 269.538065 230.303784 
L 269.600841 230.331657 
L 269.663618 229.819315 
L 269.726394 230.169724 
L 269.789171 230.49359 
L 269.851947 230.358204 
L 269.914723 230.115305 
L 269.9775 230.277237 
L 270.103053 230.708613 
L 270.165829 230.303784 
L 270.228605 230.465714 
L 270.291382 230.682067 
L 270.354158 230.43917 
L 270.416935 230.520134 
L 270.542488 230.196271 
L 270.66804 231.059023 
L 270.793593 230.546681 
L 270.85637 230.89709 
L 271.044699 230.358204 
L 271.107475 230.38475 
L 271.295804 229.926828 
L 271.54691 231.032476 
L 271.986345 230.034339 
L 272.174674 230.89709 
L 272.23745 230.546681 
L 272.300227 230.78958 
L 272.363003 230.870546 
L 272.739662 230.034339 
L 272.802438 230.196271 
L 272.990767 230.978057 
L 273.053544 230.708613 
L 273.11632 229.792768 
L 273.179096 230.007794 
L 273.241873 230.007794 
L 273.367426 230.358204 
L 273.430202 229.845861 
L 273.492978 229.926828 
L 273.744084 230.573227 
L 273.932413 230.034339 
L 273.99519 230.412623 
L 274.057966 230.277237 
L 274.183519 229.819315 
L 274.309072 230.49359 
L 274.371848 230.43917 
L 274.434624 230.43917 
L 274.497401 229.873735 
L 274.560177 229.981247 
L 274.748506 230.43917 
L 274.811283 230.412623 
L 274.936836 230.143178 
L 274.999612 230.412623 
L 275.125165 229.981247 
L 275.250718 231.004603 
L 275.313494 230.95151 
L 275.439047 230.43917 
L 275.5646 230.708613 
L 275.627376 230.412623 
L 275.690152 230.49359 
L 275.752929 230.763033 
L 275.815705 230.546681 
L 275.878482 230.682067 
L 276.004034 230.303784 
L 276.066811 230.358204 
L 276.129587 230.708613 
L 276.192364 230.331657 
L 276.25514 230.43917 
L 276.317916 230.277237 
L 276.506246 230.73516 
L 276.569022 230.654194 
L 276.694575 230.007794 
L 276.882904 230.412623 
L 277.008457 230.358204 
L 277.196786 229.414486 
L 277.698997 230.49359 
L 277.82455 229.926828 
L 277.950103 229.981247 
L 278.138432 230.38475 
L 278.326761 230.007794 
L 278.389538 229.981247 
L 278.452314 230.331657 
L 278.515091 230.303784 
L 278.640643 230.303784 
L 278.70342 230.546681 
L 278.891749 229.495452 
L 278.954525 229.602963 
L 279.017302 229.683929 
L 279.080078 229.468905 
L 279.39396 230.43917 
L 279.519513 229.953374 
L 279.645066 230.007794 
L 279.770619 230.088758 
L 279.833395 230.627647 
L 279.896171 230.43917 
L 280.084501 230.224144 
L 280.210053 230.412623 
L 280.335606 230.034339 
L 280.398383 229.468905 
L 280.461159 229.549871 
L 280.523935 229.414486 
L 280.586712 229.468905 
L 280.900594 230.627647 
L 281.026147 230.682067 
L 281.340029 229.683929 
L 281.528358 230.277237 
L 281.591134 230.331657 
L 281.653911 229.981247 
L 281.716687 230.088758 
L 281.779463 230.196271 
L 281.84224 230.143178 
L 281.905016 230.088758 
L 282.030569 230.465714 
L 282.156122 230.088758 
L 282.218898 230.38475 
L 282.281675 230.358204 
L 282.344451 230.062214 
L 282.53278 230.573227 
L 282.658333 230.331657 
L 282.972215 230.708613 
L 283.223321 230.143178 
L 283.41165 230.708613 
L 283.474426 230.816126 
L 283.725532 230.088758 
L 283.788308 230.143178 
L 283.976638 229.845861 
L 284.039414 229.900281 
L 284.10219 230.143178 
L 284.164967 230.088758 
L 284.227743 230.088758 
L 284.353296 230.43917 
L 284.541625 229.900281 
L 284.667178 230.520134 
L 284.729954 230.303784 
L 284.855507 230.412623 
L 285.043836 230.088758 
L 285.232166 230.277237 
L 285.294942 230.007794 
L 285.357718 230.115305 
L 285.546048 230.250691 
L 285.608824 230.573227 
L 285.6716 230.465714 
L 285.85993 229.792768 
L 285.985482 230.115305 
L 286.111035 229.900281 
L 286.173812 230.224144 
L 286.236588 229.819315 
L 286.299364 229.981247 
L 286.362141 229.981247 
L 286.424917 229.845861 
L 286.487694 229.226006 
L 286.55047 229.280426 
L 286.738799 230.49359 
L 286.801576 230.224144 
L 286.864352 230.303784 
L 286.927128 230.224144 
L 286.989905 230.277237 
L 287.052681 230.43917 
L 287.115458 230.331657 
L 287.617669 229.900281 
L 287.680445 229.981247 
L 287.868774 230.277237 
L 288.245433 229.764895 
L 288.308209 229.845861 
L 288.370986 229.253882 
L 288.433762 229.495452 
L 288.622091 230.088758 
L 288.747644 229.711802 
L 289.249855 230.520134 
L 289.312632 230.412623 
L 289.375408 230.303784 
L 289.438184 230.43917 
L 289.500961 230.358204 
L 289.563737 229.683929 
L 289.626514 229.764895 
L 289.752067 230.007794 
L 289.814843 229.764895 
L 289.877619 229.873735 
L 289.940396 229.953374 
L 290.003172 229.576418 
L 290.065949 229.845861 
L 290.128725 229.926828 
L 290.254278 229.523325 
L 290.442607 230.38475 
L 290.505383 230.303784 
L 290.56816 230.196271 
L 290.693713 230.6011 
L 290.756489 230.573227 
L 290.882042 230.062214 
L 291.007595 229.468905 
L 291.195924 229.953374 
L 291.2587 229.873735 
L 291.321477 229.926828 
L 291.509806 230.277237 
L 291.635359 229.953374 
L 291.698135 229.981247 
L 291.760911 230.196271 
L 291.823688 230.062214 
L 291.886464 229.926828 
L 291.949241 230.115305 
L 292.074793 229.738349 
L 292.13757 230.224144 
L 292.200346 230.196271 
L 292.263123 229.926828 
L 292.325899 230.115305 
L 292.451452 230.115305 
L 292.577005 229.819315 
L 292.639781 230.115305 
L 292.702557 229.981247 
L 292.765334 229.738349 
L 292.953663 230.169724 
L 293.016439 230.034339 
L 293.079216 230.277237 
L 293.141992 230.169724 
L 293.204769 230.062214 
L 293.267545 229.711802 
L 293.330321 230.250691 
L 293.393098 230.088758 
L 293.455874 229.819315 
L 293.518651 229.873735 
L 293.581427 229.845861 
L 293.895309 230.95151 
L 293.958085 230.43917 
L 294.020862 230.546681 
L 294.083638 230.573227 
L 294.271967 230.034339 
L 294.334744 230.303784 
L 294.39752 230.224144 
L 294.523073 230.034339 
L 294.585849 230.277237 
L 294.648626 230.169724 
L 294.711402 229.576418 
L 294.774179 229.683929 
L 294.899731 230.088758 
L 294.962508 229.764895 
L 295.025284 229.900281 
L 295.150837 230.143178 
L 295.213613 229.900281 
L 295.27639 230.007794 
L 295.464719 230.708613 
L 295.590272 230.143178 
L 295.653048 230.277237 
L 295.715825 230.143178 
L 295.841377 230.465714 
L 295.904154 229.683929 
L 295.96693 229.926828 
L 296.092483 230.143178 
L 296.218036 230.546681 
L 296.280812 230.412623 
L 296.469142 229.657382 
L 296.531918 229.523325 
L 296.657471 229.953374 
L 296.720247 229.845861 
L 296.783024 229.900281 
L 296.971353 229.630838 
L 297.159682 230.412623 
L 297.222458 230.062214 
L 297.285235 229.845861 
L 297.348011 230.143178 
L 297.410788 229.900281 
L 297.473564 229.926828 
L 297.661893 230.224144 
L 297.72467 230.143178 
L 297.787446 229.711802 
L 297.912999 230.250691 
L 298.226881 229.738349 
L 298.289657 230.196271 
L 298.352434 230.062214 
L 298.41521 229.738349 
L 298.603539 230.520134 
L 298.666316 230.49359 
L 298.791868 229.900281 
L 298.854645 230.088758 
L 298.917421 229.981247 
L 299.042974 230.654194 
L 299.10575 230.43917 
L 299.168527 229.549871 
L 299.231303 229.576418 
L 299.356856 230.78958 
L 299.419632 230.654194 
L 299.545185 229.926828 
L 299.607962 230.034339 
L 299.670738 229.953374 
L 299.796291 230.520134 
L 299.859067 230.224144 
L 299.921844 230.412623 
L 299.98462 230.465714 
L 300.047396 230.682067 
L 300.235726 229.953374 
L 300.361278 230.73516 
L 300.612384 230.277237 
L 300.67516 230.573227 
L 300.737937 230.465714 
L 300.86349 230.654194 
L 300.926266 230.358204 
L 300.989042 230.412623 
L 301.114595 230.277237 
L 301.177372 230.088758 
L 301.240148 230.143178 
L 301.365701 230.412623 
L 301.428477 230.224144 
L 301.491254 230.6011 
L 301.55403 230.358204 
L 301.616806 230.358204 
L 301.679583 230.546681 
L 301.805136 230.062214 
L 301.867912 230.088758 
L 301.930688 230.358204 
L 301.993465 230.303784 
L 302.119018 229.414486 
L 302.181794 229.549871 
L 302.370123 230.546681 
L 302.4329 230.43917 
L 302.495676 230.465714 
L 302.558452 230.088758 
L 302.621229 230.169724 
L 302.746782 230.6011 
L 302.935111 230.007794 
L 302.997887 230.088758 
L 303.12344 230.708613 
L 303.311769 230.007794 
L 303.374546 230.49359 
L 303.437322 230.196271 
L 303.562875 229.602963 
L 303.751204 230.277237 
L 303.813981 230.143178 
L 303.876757 230.250691 
L 304.00231 230.143178 
L 304.065086 229.900281 
L 304.190639 230.169724 
L 304.253415 230.007794 
L 304.378968 230.6011 
L 304.504521 230.546681 
L 304.69285 229.738349 
L 304.755627 229.683929 
L 304.943956 230.358204 
L 305.006732 230.224144 
L 305.132285 230.627647 
L 305.195061 230.49359 
L 305.320614 230.465714 
L 305.446167 229.953374 
L 305.508943 230.062214 
L 305.57172 230.062214 
L 305.697273 229.819315 
L 305.760049 229.819315 
L 305.822825 229.683929 
L 306.011155 230.38475 
L 306.199484 230.062214 
L 306.26226 230.143178 
L 306.325037 230.224144 
L 306.387813 230.062214 
L 306.638919 231.032476 
L 306.827248 230.196271 
L 307.015577 230.49359 
L 307.329459 229.926828 
L 307.517788 230.303784 
L 307.643341 229.602963 
L 307.894447 230.546681 
L 308.271105 229.900281 
L 308.396658 230.682067 
L 308.584987 230.224144 
L 308.836093 230.816126 
L 309.087198 230.250691 
L 309.149975 229.981247 
L 309.212751 230.196271 
L 309.338304 230.73516 
L 309.463857 229.873735 
L 309.58941 230.520134 
L 309.652186 230.358204 
L 309.714962 230.250691 
L 309.903292 230.708613 
L 310.091621 229.953374 
L 310.154397 230.169724 
L 310.217174 230.088758 
L 310.342726 230.465714 
L 310.405503 230.412623 
L 310.593832 230.546681 
L 310.719385 230.062214 
L 310.844938 230.546681 
L 310.907714 230.38475 
L 311.033267 229.953374 
L 311.096043 230.196271 
L 311.221596 229.523325 
L 311.284372 229.711802 
L 311.347149 229.711802 
L 311.409925 230.062214 
L 311.472702 230.034339 
L 311.535478 229.981247 
L 311.598254 229.657382 
L 311.786584 230.49359 
L 311.974913 229.981247 
L 312.037689 230.250691 
L 312.100466 229.926828 
L 312.163242 230.115305 
L 312.351571 230.143178 
L 312.414348 230.412623 
L 312.477124 230.358204 
L 312.665453 230.007794 
L 312.916559 230.358204 
L 313.104888 229.361392 
L 313.293217 230.196271 
L 313.355994 230.062214 
L 313.41877 230.115305 
L 313.481546 230.143178 
L 313.544323 229.981247 
L 313.795428 230.465714 
L 313.920981 230.520134 
L 313.983758 230.43917 
L 314.10931 230.169724 
L 314.234863 230.007794 
L 314.29764 229.953374 
L 314.423192 229.523325 
L 314.485969 229.549871 
L 314.548745 229.819315 
L 314.611522 229.792768 
L 314.737074 229.792768 
L 314.925404 230.224144 
L 314.98818 230.115305 
L 315.113733 229.602963 
L 315.176509 229.792768 
L 315.239286 230.143178 
L 315.302062 230.034339 
L 315.490391 229.414486 
L 315.678721 230.277237 
L 315.741497 230.708613 
L 315.804273 230.43917 
L 315.86705 230.303784 
L 315.929826 230.38475 
L 316.055379 230.277237 
L 316.118155 230.196271 
L 316.180932 230.250691 
L 316.306485 230.358204 
L 316.432037 230.6011 
L 316.494814 230.520134 
L 316.620367 230.034339 
L 316.745919 229.442359 
L 316.871472 229.926828 
L 316.934249 229.683929 
L 317.122578 230.196271 
L 317.185354 230.007794 
L 317.248131 230.224144 
L 317.310907 230.115305 
L 317.499236 229.953374 
L 317.624789 230.224144 
L 317.938671 229.900281 
L 318.127 230.007794 
L 318.252553 229.549871 
L 318.315329 229.602963 
L 318.378106 229.414486 
L 318.503659 229.738349 
L 318.629211 229.468905 
L 318.754764 229.953374 
L 318.880317 229.683929 
L 318.943093 230.143178 
L 319.00587 230.088758 
L 319.382528 229.523325 
L 319.508081 230.143178 
L 319.570857 229.926828 
L 319.759187 229.468905 
L 319.947516 230.143178 
L 320.010292 229.981247 
L 320.073069 230.062214 
L 320.198621 230.250691 
L 320.261398 229.873735 
L 320.324174 230.007794 
L 320.512503 230.38475 
L 320.57528 230.546681 
L 320.700833 230.007794 
L 320.763609 230.034339 
L 320.889162 230.43917 
L 321.014715 229.953374 
L 321.203044 230.358204 
L 321.328597 230.73516 
L 321.391373 230.250691 
L 321.454149 230.331657 
L 321.516926 230.465714 
L 321.705255 230.115305 
L 321.893584 230.465714 
L 321.956361 230.250691 
L 322.019137 230.73516 
L 322.081914 230.708613 
L 322.207466 230.303784 
L 322.270243 230.331657 
L 322.395796 230.196271 
L 322.458572 230.250691 
L 322.521348 230.73516 
L 322.584125 230.6011 
L 322.646901 230.224144 
L 322.709678 230.331657 
L 322.772454 230.6011 
L 322.83523 230.546681 
L 323.149112 229.819315 
L 323.274665 230.303784 
L 323.400218 230.196271 
L 323.462994 230.143178 
L 323.588547 230.6011 
L 323.776876 230.277237 
L 323.902429 229.845861 
L 324.090758 230.573227 
L 324.341864 229.981247 
L 324.40464 230.034339 
L 324.59297 230.49359 
L 324.718522 230.169724 
L 324.781299 230.277237 
L 324.906852 229.926828 
L 324.969628 230.196271 
L 325.032404 230.115305 
L 325.095181 230.196271 
L 325.157957 230.143178 
L 325.220734 230.143178 
L 325.471839 230.654194 
L 325.534616 230.763033 
L 325.722945 230.303784 
L 325.785721 230.573227 
L 325.848498 230.465714 
L 326.099603 229.711802 
L 326.225156 230.277237 
L 326.287932 230.250691 
L 326.413485 229.926828 
L 326.539038 230.088758 
L 326.601814 229.602963 
L 326.664591 229.630838 
L 326.727367 229.657382 
L 326.790144 230.062214 
L 326.915696 229.523325 
L 327.104026 230.062214 
L 327.166802 229.738349 
L 327.229578 229.873735 
L 327.292355 230.143178 
L 327.417908 229.495452 
L 327.480684 229.576418 
L 327.794566 230.465714 
L 327.920119 230.007794 
L 327.982895 230.034339 
L 328.108448 230.007794 
L 328.234001 230.062214 
L 328.359554 229.576418 
L 328.42233 229.657382 
L 328.610659 230.088758 
L 328.673436 229.873735 
L 328.736212 230.250691 
L 328.861765 229.495452 
L 328.924541 229.711802 
L 328.987318 230.38475 
L 329.050094 230.196271 
L 329.238423 229.764895 
L 329.3012 229.953374 
L 329.363976 230.115305 
L 329.426753 230.007794 
L 329.489529 229.764895 
L 329.615082 230.143178 
L 329.677858 229.738349 
L 329.740635 229.845861 
L 329.866187 230.062214 
L 329.928964 229.711802 
L 329.99174 229.738349 
L 330.054517 229.764895 
L 330.180069 230.250691 
L 330.242846 230.169724 
L 330.556728 229.495452 
L 330.619504 229.549871 
L 330.682281 230.115305 
L 330.745057 230.088758 
L 330.807833 230.034339 
L 330.87061 230.169724 
L 330.933386 230.062214 
L 330.996163 230.115305 
L 331.121715 229.523325 
L 331.310045 230.169724 
L 331.749479 229.333519 
L 331.937809 230.034339 
L 332.126138 229.361392 
L 332.188914 230.062214 
L 332.251691 230.034339 
L 332.314467 230.196271 
L 332.377243 230.143178 
L 332.565573 229.711802 
L 332.691125 229.900281 
L 332.879455 230.843999 
L 333.13056 230.088758 
L 333.193337 230.303784 
L 333.381666 229.900281 
L 333.632771 230.923637 
L 333.695548 229.953374 
L 333.758324 229.981247 
L 333.821101 230.303784 
L 333.883877 230.196271 
L 334.072206 230.38475 
L 334.197759 230.143178 
L 334.386088 230.573227 
L 334.511641 230.196271 
L 334.574417 230.331657 
L 334.762747 229.926828 
L 334.8883 230.331657 
L 334.951076 230.062214 
L 335.013852 230.169724 
L 335.076629 230.412623 
L 335.202182 230.062214 
L 335.264958 230.034339 
L 335.327734 229.523325 
L 335.390511 229.900281 
L 335.516064 229.657382 
L 335.829946 230.763033 
L 335.892722 230.546681 
L 336.018275 230.303784 
L 336.081051 230.331657 
L 336.143828 230.73516 
L 336.206604 230.682067 
L 336.394933 230.143178 
L 336.45771 230.303784 
L 336.520486 230.49359 
L 336.771592 229.845861 
L 336.834368 230.007794 
L 336.897144 229.981247 
L 336.959921 229.900281 
L 337.14825 229.306973 
L 337.211026 229.280426 
L 337.462132 230.43917 
L 337.83879 230.088758 
L 337.964343 230.43917 
L 338.02712 230.303784 
L 338.152672 230.331657 
L 338.341002 229.657382 
L 338.529331 230.277237 
L 338.654884 229.630838 
L 338.71766 229.738349 
L 338.780436 229.953374 
L 338.843213 229.711802 
L 338.968766 230.115305 
L 339.094318 229.602963 
L 339.345424 230.520134 
L 339.4082 230.303784 
L 339.470977 230.196271 
L 339.59653 230.49359 
L 339.659306 230.49359 
L 339.722082 230.250691 
L 339.784859 230.303784 
L 339.847635 230.43917 
L 340.224294 229.657382 
L 340.349846 229.873735 
L 340.412623 229.630838 
L 340.538176 230.358204 
L 340.600952 230.331657 
L 340.663728 230.331657 
L 340.789281 229.819315 
L 340.852058 229.981247 
L 340.914834 230.38475 
L 341.103163 229.683929 
L 341.16594 229.738349 
L 341.354269 230.43917 
L 341.417045 230.358204 
L 341.542598 229.576418 
L 341.605375 229.711802 
L 341.793704 230.115305 
L 341.919257 229.468905 
L 342.044809 230.520134 
L 342.107586 230.43917 
L 342.295915 229.630838 
L 342.358691 230.143178 
L 342.421468 229.819315 
L 342.484244 229.900281 
L 342.547021 229.764895 
L 342.986455 230.816126 
L 343.049232 230.6011 
L 343.174785 229.953374 
L 343.237561 230.196271 
L 343.300337 230.250691 
L 343.363114 230.465714 
L 343.42589 230.38475 
L 343.551443 229.981247 
L 343.990878 229.953374 
L 344.053654 230.224144 
L 344.116431 230.007794 
L 344.241983 230.38475 
L 344.30476 230.224144 
L 344.430313 230.224144 
L 344.493089 230.38475 
L 344.555865 230.115305 
L 344.681418 230.412623 
L 344.744195 230.277237 
L 344.806971 230.465714 
L 344.869747 230.331657 
L 344.932524 230.277237 
L 344.9953 229.495452 
L 345.058077 229.845861 
L 345.246406 230.708613 
L 345.371959 230.465714 
L 345.434735 230.573227 
L 345.497511 230.412623 
L 345.560288 229.764895 
L 345.623064 230.062214 
L 345.811393 230.843999 
L 345.936946 230.303784 
L 345.999723 230.331657 
L 346.125275 230.708613 
L 346.188052 230.49359 
L 346.313605 231.194409 
L 346.501934 230.303784 
L 346.56471 230.250691 
L 346.627487 230.49359 
L 346.690263 230.465714 
L 346.815816 230.43917 
L 346.878592 230.303784 
L 347.004145 229.764895 
L 347.066921 230.062214 
L 347.129698 229.953374 
L 347.318027 230.143178 
L 347.380803 230.303784 
L 347.44358 230.196271 
L 347.506356 230.062214 
L 347.569133 230.115305 
L 347.694686 230.6011 
L 347.757462 230.169724 
L 347.820238 230.196271 
L 348.008568 230.277237 
L 348.13412 229.576418 
L 348.32245 230.38475 
L 348.385226 230.43917 
L 348.510779 229.819315 
L 348.636332 229.900281 
L 348.824661 230.224144 
L 348.950214 230.38475 
L 349.138543 229.683929 
L 349.201319 230.034339 
L 349.264096 230.224144 
L 349.326872 229.981247 
L 349.389648 230.115305 
L 349.577978 230.923637 
L 349.640754 230.763033 
L 349.829083 230.062214 
L 349.89186 230.115305 
L 349.954636 230.412623 
L 350.017412 230.196271 
L 350.080189 229.711802 
L 350.142965 230.062214 
L 350.331294 230.43917 
L 350.394071 229.900281 
L 350.456847 230.007794 
L 350.770729 229.306973 
L 350.959058 230.465714 
L 351.021835 230.412623 
L 351.147388 229.630838 
L 351.27294 230.43917 
L 351.335717 230.331657 
L 351.398493 229.792768 
L 351.46127 230.034339 
L 351.524046 229.792768 
L 351.586822 229.873735 
L 351.712375 229.683929 
L 351.900704 230.196271 
L 351.963481 230.115305 
L 352.026257 229.657382 
L 352.089034 229.926828 
L 352.214586 229.738349 
L 352.402916 230.169724 
L 352.465692 230.277237 
L 352.654021 229.657382 
L 352.779574 230.169724 
L 352.84235 229.873735 
L 352.905127 229.683929 
L 352.967903 229.738349 
L 353.156232 230.062214 
L 353.219009 229.523325 
L 353.281785 229.764895 
L 353.344562 229.442359 
L 353.407338 229.495452 
L 353.470114 229.953374 
L 353.595667 229.361392 
L 353.72122 229.873735 
L 353.783996 229.926828 
L 353.846773 230.250691 
L 353.909549 230.088758 
L 354.035102 229.657382 
L 354.097879 229.926828 
L 354.160655 229.711802 
L 354.286208 229.468905 
L 354.788419 230.654194 
L 354.913972 230.250691 
L 354.976748 230.034339 
L 355.039525 230.062214 
L 355.165077 230.007794 
L 355.227854 229.873735 
L 355.353407 230.358204 
L 355.416183 229.953374 
L 355.478959 230.6011 
L 355.541736 230.546681 
L 355.667289 229.711802 
L 355.730065 229.845861 
L 355.792841 230.007794 
L 355.855618 229.792768 
L 355.918394 229.873735 
L 356.043947 230.43917 
L 356.106723 230.331657 
L 356.232276 230.224144 
L 356.420605 229.711802 
L 356.608935 229.953374 
L 356.671711 229.792768 
L 356.734487 230.115305 
L 356.797264 229.873735 
L 356.86004 229.683929 
L 356.922817 229.819315 
L 356.985593 229.819315 
L 357.048369 230.007794 
L 357.111146 229.819315 
L 357.236699 230.169724 
L 357.299475 230.115305 
L 357.362251 230.169724 
L 357.487804 230.654194 
L 357.676133 229.764895 
L 357.864463 230.465714 
L 357.927239 230.573227 
L 357.990015 229.873735 
L 358.052792 229.926828 
L 358.115568 230.277237 
L 358.178345 230.250691 
L 358.241121 229.953374 
L 358.303897 230.465714 
L 358.366674 230.277237 
L 358.492227 230.358204 
L 358.555003 230.088758 
L 358.617779 230.277237 
L 358.680556 230.38475 
L 358.806109 230.007794 
L 358.868885 230.062214 
L 358.931661 230.573227 
L 358.994438 230.546681 
L 359.182767 230.062214 
L 359.245543 229.981247 
L 359.371096 230.49359 
L 359.622202 230.034339 
L 359.684978 230.034339 
L 359.747755 229.900281 
L 359.936084 230.43917 
L 359.99886 230.358204 
L 360.187189 229.819315 
L 360.375519 230.520134 
L 360.501072 230.250691 
L 360.563848 230.412623 
L 360.626624 230.303784 
L 360.752177 229.576418 
L 361.003283 230.816126 
L 361.066059 230.78958 
L 361.505494 229.576418 
L 361.7566 230.169724 
L 361.819376 229.926828 
L 361.944929 230.224144 
L 362.070482 230.034339 
L 362.133258 230.115305 
L 362.258811 230.708613 
L 362.321587 230.573227 
L 362.44714 230.034339 
L 362.572693 230.224144 
L 362.823798 229.738349 
L 362.949351 230.38475 
L 363.200457 229.738349 
L 363.388786 230.250691 
L 363.514339 229.926828 
L 363.639892 230.78958 
L 363.702668 230.763033 
L 363.765444 230.627647 
L 363.890997 231.220955 
L 364.079326 230.6011 
L 364.581538 230.062214 
L 364.644314 230.303784 
L 364.70709 230.224144 
L 364.769867 230.196271 
L 364.89542 230.6011 
L 364.958196 230.520134 
L 365.083749 229.873735 
L 365.146525 230.169724 
L 365.209302 230.115305 
L 365.523184 229.468905 
L 365.711513 230.062214 
L 365.837066 230.358204 
L 365.899842 230.115305 
L 365.962618 230.196271 
L 366.088171 230.763033 
L 366.150948 230.6011 
L 366.213724 230.331657 
L 366.527606 231.301922 
L 366.715935 230.520134 
L 366.778712 230.708613 
L 366.841488 230.654194 
L 366.904265 230.520134 
L 367.029817 231.032476 
L 367.092594 230.816126 
L 367.15537 230.43917 
L 367.218147 230.465714 
L 367.280923 230.627647 
L 367.469252 230.034339 
L 367.657581 230.708613 
L 367.720358 230.573227 
L 367.845911 229.845861 
L 367.908687 229.873735 
L 368.285345 230.573227 
L 368.410898 229.953374 
L 368.473675 230.277237 
L 368.536451 230.358204 
L 368.662004 229.900281 
L 368.787557 230.763033 
L 368.913109 230.573227 
L 369.038662 229.576418 
L 369.101439 229.738349 
L 369.164215 230.115305 
L 369.226991 229.845861 
L 369.289768 229.764895 
L 369.415321 230.465714 
L 369.478097 230.358204 
L 369.60365 229.873735 
L 369.666426 230.062214 
L 369.854755 230.654194 
L 369.980308 229.738349 
L 370.043085 229.926828 
L 370.168637 229.900281 
L 370.29419 230.573227 
L 370.356967 230.520134 
L 370.545296 230.169724 
L 370.670849 230.573227 
L 370.859178 230.6011 
L 370.984731 230.062214 
L 371.047507 230.088758 
L 371.110283 230.520134 
L 371.298613 229.792768 
L 371.424165 230.277237 
L 371.486942 230.088758 
L 371.549718 230.062214 
L 371.800824 229.711802 
L 372.051929 230.520134 
L 372.114706 230.331657 
L 372.240259 229.738349 
L 372.303035 229.819315 
L 372.365811 229.926828 
L 372.616917 229.361392 
L 372.805246 229.657382 
L 373.119128 229.280426 
L 373.244681 229.819315 
L 373.370234 229.442359 
L 373.558563 230.169724 
L 373.62134 230.088758 
L 373.684116 230.088758 
L 373.872445 229.333519 
L 373.997998 230.196271 
L 374.123551 229.333519 
L 374.186327 229.495452 
L 374.31188 229.873735 
L 374.437433 229.468905 
L 374.500209 229.630838 
L 374.562986 230.224144 
L 374.625762 229.845861 
L 374.751315 230.115305 
L 374.814091 229.926828 
L 374.876868 229.738349 
L 374.939644 230.062214 
L 375.00242 229.602963 
L 375.065197 229.657382 
L 375.127973 229.523325 
L 375.19075 229.602963 
L 375.253526 229.953374 
L 375.316302 229.819315 
L 375.379079 229.845861 
L 375.441855 230.143178 
L 375.504632 230.115305 
L 375.567408 229.845861 
L 375.630184 230.007794 
L 375.692961 230.062214 
L 375.818514 229.333519 
L 376.006843 229.900281 
L 376.069619 229.657382 
L 376.132396 230.38475 
L 376.195172 230.277237 
L 376.257948 230.277237 
L 376.320725 230.115305 
L 376.383501 230.412623 
L 376.446278 230.224144 
L 376.509054 230.115305 
L 376.57183 230.250691 
L 376.76016 229.711802 
L 376.885712 229.792768 
L 376.948489 229.683929 
L 377.011265 229.764895 
L 377.074042 229.711802 
L 377.136818 230.143178 
L 377.199594 230.115305 
L 377.325147 230.034339 
L 377.387924 229.900281 
L 377.576253 230.708613 
L 377.764582 230.277237 
L 377.827358 230.331657 
L 377.890135 230.682067 
L 378.14124 229.845861 
L 378.204017 229.764895 
L 378.32957 229.926828 
L 378.392346 229.873735 
L 378.580675 230.43917 
L 378.706228 229.657382 
L 378.769004 229.819315 
L 378.831781 229.873735 
L 378.957334 230.143178 
L 379.02011 229.981247 
L 379.082886 230.115305 
L 379.145663 230.250691 
L 379.208439 230.196271 
L 379.333992 229.683929 
L 379.396768 229.819315 
L 379.585098 230.169724 
L 379.647874 230.358204 
L 379.710651 229.953374 
L 379.773427 230.115305 
L 379.89898 229.792768 
L 380.024533 230.224144 
L 380.150085 229.845861 
L 380.275638 230.143178 
L 380.338415 229.792768 
L 380.401191 229.845861 
L 380.715073 230.331657 
L 380.840626 229.657382 
L 380.903402 230.007794 
L 380.966179 229.738349 
L 381.028955 230.007794 
L 381.154508 229.226006 
L 381.342837 230.331657 
L 381.405613 230.224144 
L 381.531166 229.657382 
L 381.593943 229.764895 
L 381.719495 229.900281 
L 381.782272 229.711802 
L 381.970601 230.277237 
L 382.096154 229.630838 
L 382.221707 230.38475 
L 382.284483 230.250691 
L 382.347259 230.412623 
L 382.535589 229.711802 
L 382.661141 230.007794 
L 382.786694 229.414486 
L 382.849471 229.630838 
L 383.163353 230.6011 
L 383.226129 230.49359 
L 383.414458 229.953374 
L 383.477235 230.062214 
L 383.540011 230.034339 
L 383.602787 230.520134 
L 383.665564 230.49359 
L 383.72834 230.38475 
L 383.853893 230.73516 
L 383.916669 230.6011 
L 384.042222 230.303784 
L 384.104999 230.465714 
L 384.167775 230.43917 
L 384.230551 230.465714 
L 384.293328 230.627647 
L 384.544433 229.845861 
L 384.732763 230.520134 
L 384.795539 230.520134 
L 384.858315 230.73516 
L 385.172197 229.523325 
L 385.360527 230.169724 
L 385.423303 229.926828 
L 385.486079 230.007794 
L 385.737185 230.6011 
L 385.799961 230.196271 
L 385.862738 230.277237 
L 385.925514 230.303784 
L 385.988291 230.49359 
L 386.051067 230.358204 
L 386.113844 230.303784 
L 386.239396 230.546681 
L 386.490502 230.143178 
L 386.553278 229.764895 
L 386.616055 230.277237 
L 386.741608 229.764895 
L 386.804384 230.088758 
L 386.86716 229.873735 
L 386.929937 230.143178 
L 386.992713 229.981247 
L 387.05549 229.926828 
L 387.181042 230.034339 
L 387.306595 229.683929 
L 387.494924 230.546681 
L 387.620477 229.926828 
L 387.683254 230.224144 
L 387.871583 229.819315 
L 387.997136 230.277237 
L 388.059912 230.196271 
L 388.122688 230.250691 
L 388.185465 230.007794 
L 388.248241 230.277237 
L 388.311018 229.981247 
L 388.373794 230.062214 
L 388.562123 230.169724 
L 388.6249 230.062214 
L 388.813229 230.682067 
L 388.813229 230.682067 
" style="fill:none;stroke:#1f77b4;stroke-linecap:round;stroke-width:1.5;"/>
   </g>
   <g id="line2d_14">
    <path clip-path="url(#p2dc07bc3a1)" d="M 87.435056 289 
L 87.438194 -1 
M 87.967438 -1 
L 87.971515 289 
M 88.037596 289 
L 88.049186 -1 
M 88.05736 -1 
L 88.086936 289 
L 88.086936 289 
" style="fill:none;stroke:#ff7f0e;stroke-linecap:round;stroke-width:1.5;"/>
   </g>
   <g id="patch_3">
    <path d="M 54 252 
L 54 34.56 
" style="fill:none;stroke:#cccccc;stroke-linecap:square;stroke-linejoin:miter;stroke-width:0.8;"/>
   </g>
   <g id="patch_4">
    <path d="M 388.8 252 
L 388.8 34.56 
" style="fill:none;stroke:#cccccc;stroke-linecap:square;stroke-linejoin:miter;stroke-width:0.8;"/>
   </g>
   <g id="patch_5">
    <path d="M 54 252 
L 388.8 252 
" style="fill:none;stroke:#cccccc;stroke-linecap:square;stroke-linejoin:miter;stroke-width:0.8;"/>
   </g>
   <g id="patch_6">
    <path d="M 54 34.56 
L 388.8 34.56 
" style="fill:none;stroke:#cccccc;stroke-linecap:square;stroke-linejoin:miter;stroke-width:0.8;"/>
   </g>
  </g>
 </g>
 <defs>
  <clipPath id="p2dc07bc3a1">
   <rect height="217.44" width="334.8" x="54" y="34.56"/>
  </clipPath>
 </defs>
</svg>
