<?xml version="1.0" encoding="utf-8" standalone="no"?>
<!DOCTYPE svg PUBLIC "-//W3C//DTD SVG 1.1//EN"
  "http://www.w3.org/Graphics/SVG/1.1/DTD/svg11.dtd">
<!-- Created with matplotlib (https://matplotlib.org/) -->
<svg height="288pt" version="1.1" viewBox="0 0 432 288" width="432pt" xmlns="http://www.w3.org/2000/svg" xmlns:xlink="http://www.w3.org/1999/xlink">
 <metadata>
  <rdf:RDF xmlns:cc="http://creativecommons.org/ns#" xmlns:dc="http://purl.org/dc/elements/1.1/" xmlns:rdf="http://www.w3.org/1999/02/22-rdf-syntax-ns#">
   <cc:Work>
    <dc:type rdf:resource="http://purl.org/dc/dcmitype/StillImage"/>
    <dc:date>2022-05-25T22:50:30.746128</dc:date>
    <dc:format>image/svg+xml</dc:format>
    <dc:creator>
     <cc:Agent>
      <dc:title>Matplotlib v3.3.3, https://matplotlib.org/</dc:title>
     </cc:Agent>
    </dc:creator>
   </cc:Work>
  </rdf:RDF>
 </metadata>
 <defs>
  <style type="text/css">*{stroke-linecap:butt;stroke-linejoin:round;}</style>
 </defs>
 <g id="figure_1">
  <g id="patch_1">
   <path d="M 0 288 
L 432 288 
L 432 0 
L 0 0 
z
" style="fill:#ffffff;"/>
  </g>
  <g id="axes_1">
   <g id="patch_2">
    <path d="M 54 252 
L 388.8 252 
L 388.8 34.56 
L 54 34.56 
z
" style="fill:#ffffff;"/>
   </g>
   <g id="matplotlib.axis_1">
    <g id="xtick_1">
     <g id="line2d_1">
      <path clip-path="url(#p6c1d4058f0)" d="M 54 252 
L 54 34.56 
" style="fill:none;stroke:#cccccc;stroke-linecap:round;stroke-width:0.8;"/>
     </g>
     <g id="text_1">
      <!-- 0.001440 -->
      <g style="fill:#262626;" transform="translate(33.147656 266.157812)scale(0.1 -0.1)">
       <defs>
        <path d="M 4.15625 35.296875 
Q 4.15625 48 6.765625 55.734375 
Q 9.375 63.484375 14.515625 67.671875 
Q 19.671875 71.875 27.484375 71.875 
Q 33.25 71.875 37.59375 69.546875 
Q 41.9375 67.234375 44.765625 62.859375 
Q 47.609375 58.5 49.21875 52.21875 
Q 50.828125 45.953125 50.828125 35.296875 
Q 50.828125 22.703125 48.234375 14.96875 
Q 45.65625 7.234375 40.5 3 
Q 35.359375 -1.21875 27.484375 -1.21875 
Q 17.140625 -1.21875 11.234375 6.203125 
Q 4.15625 15.140625 4.15625 35.296875 
z
M 13.1875 35.296875 
Q 13.1875 17.671875 17.3125 11.828125 
Q 21.4375 6 27.484375 6 
Q 33.546875 6 37.671875 11.859375 
Q 41.796875 17.71875 41.796875 35.296875 
Q 41.796875 52.984375 37.671875 58.78125 
Q 33.546875 64.59375 27.390625 64.59375 
Q 21.34375 64.59375 17.71875 59.46875 
Q 13.1875 52.9375 13.1875 35.296875 
z
" id="ArialMT-48"/>
        <path d="M 9.078125 0 
L 9.078125 10.015625 
L 19.09375 10.015625 
L 19.09375 0 
z
" id="ArialMT-46"/>
        <path d="M 37.25 0 
L 28.46875 0 
L 28.46875 56 
Q 25.296875 52.984375 20.140625 49.953125 
Q 14.984375 46.921875 10.890625 45.40625 
L 10.890625 53.90625 
Q 18.265625 57.375 23.78125 62.296875 
Q 29.296875 67.234375 31.59375 71.875 
L 37.25 71.875 
z
" id="ArialMT-49"/>
        <path d="M 32.328125 0 
L 32.328125 17.140625 
L 1.265625 17.140625 
L 1.265625 25.203125 
L 33.9375 71.578125 
L 41.109375 71.578125 
L 41.109375 25.203125 
L 50.78125 25.203125 
L 50.78125 17.140625 
L 41.109375 17.140625 
L 41.109375 0 
z
M 32.328125 25.203125 
L 32.328125 57.46875 
L 9.90625 25.203125 
z
" id="ArialMT-52"/>
       </defs>
       <use xlink:href="#ArialMT-48"/>
       <use x="55.615234" xlink:href="#ArialMT-46"/>
       <use x="83.398438" xlink:href="#ArialMT-48"/>
       <use x="139.013672" xlink:href="#ArialMT-48"/>
       <use x="194.628906" xlink:href="#ArialMT-49"/>
       <use x="250.244141" xlink:href="#ArialMT-52"/>
       <use x="305.859375" xlink:href="#ArialMT-52"/>
       <use x="361.474609" xlink:href="#ArialMT-48"/>
      </g>
     </g>
    </g>
    <g id="xtick_2">
     <g id="line2d_2">
      <path clip-path="url(#p6c1d4058f0)" d="M 95.85 252 
L 95.85 34.56 
" style="fill:none;stroke:#cccccc;stroke-linecap:round;stroke-width:0.8;"/>
     </g>
     <g id="text_2">
      <!-- 0.001445 -->
      <g style="fill:#262626;" transform="translate(74.997656 266.157812)scale(0.1 -0.1)">
       <defs>
        <path d="M 4.15625 18.75 
L 13.375 19.53125 
Q 14.40625 12.796875 18.140625 9.390625 
Q 21.875 6 27.15625 6 
Q 33.5 6 37.890625 10.78125 
Q 42.28125 15.578125 42.28125 23.484375 
Q 42.28125 31 38.0625 35.34375 
Q 33.84375 39.703125 27 39.703125 
Q 22.75 39.703125 19.328125 37.765625 
Q 15.921875 35.84375 13.96875 32.765625 
L 5.71875 33.84375 
L 12.640625 70.609375 
L 48.25 70.609375 
L 48.25 62.203125 
L 19.671875 62.203125 
L 15.828125 42.96875 
Q 22.265625 47.46875 29.34375 47.46875 
Q 38.71875 47.46875 45.15625 40.96875 
Q 51.609375 34.46875 51.609375 24.265625 
Q 51.609375 14.546875 45.953125 7.46875 
Q 39.0625 -1.21875 27.15625 -1.21875 
Q 17.390625 -1.21875 11.203125 4.25 
Q 5.03125 9.71875 4.15625 18.75 
z
" id="ArialMT-53"/>
       </defs>
       <use xlink:href="#ArialMT-48"/>
       <use x="55.615234" xlink:href="#ArialMT-46"/>
       <use x="83.398438" xlink:href="#ArialMT-48"/>
       <use x="139.013672" xlink:href="#ArialMT-48"/>
       <use x="194.628906" xlink:href="#ArialMT-49"/>
       <use x="250.244141" xlink:href="#ArialMT-52"/>
       <use x="305.859375" xlink:href="#ArialMT-52"/>
       <use x="361.474609" xlink:href="#ArialMT-53"/>
      </g>
     </g>
    </g>
    <g id="xtick_3">
     <g id="line2d_3">
      <path clip-path="url(#p6c1d4058f0)" d="M 137.7 252 
L 137.7 34.56 
" style="fill:none;stroke:#cccccc;stroke-linecap:round;stroke-width:0.8;"/>
     </g>
     <g id="text_3">
      <!-- 0.001450 -->
      <g style="fill:#262626;" transform="translate(116.847656 266.157812)scale(0.1 -0.1)">
       <use xlink:href="#ArialMT-48"/>
       <use x="55.615234" xlink:href="#ArialMT-46"/>
       <use x="83.398438" xlink:href="#ArialMT-48"/>
       <use x="139.013672" xlink:href="#ArialMT-48"/>
       <use x="194.628906" xlink:href="#ArialMT-49"/>
       <use x="250.244141" xlink:href="#ArialMT-52"/>
       <use x="305.859375" xlink:href="#ArialMT-53"/>
       <use x="361.474609" xlink:href="#ArialMT-48"/>
      </g>
     </g>
    </g>
    <g id="xtick_4">
     <g id="line2d_4">
      <path clip-path="url(#p6c1d4058f0)" d="M 179.55 252 
L 179.55 34.56 
" style="fill:none;stroke:#cccccc;stroke-linecap:round;stroke-width:0.8;"/>
     </g>
     <g id="text_4">
      <!-- 0.001455 -->
      <g style="fill:#262626;" transform="translate(158.697656 266.157812)scale(0.1 -0.1)">
       <use xlink:href="#ArialMT-48"/>
       <use x="55.615234" xlink:href="#ArialMT-46"/>
       <use x="83.398438" xlink:href="#ArialMT-48"/>
       <use x="139.013672" xlink:href="#ArialMT-48"/>
       <use x="194.628906" xlink:href="#ArialMT-49"/>
       <use x="250.244141" xlink:href="#ArialMT-52"/>
       <use x="305.859375" xlink:href="#ArialMT-53"/>
       <use x="361.474609" xlink:href="#ArialMT-53"/>
      </g>
     </g>
    </g>
    <g id="xtick_5">
     <g id="line2d_5">
      <path clip-path="url(#p6c1d4058f0)" d="M 221.4 252 
L 221.4 34.56 
" style="fill:none;stroke:#cccccc;stroke-linecap:round;stroke-width:0.8;"/>
     </g>
     <g id="text_5">
      <!-- 0.001460 -->
      <g style="fill:#262626;" transform="translate(200.547656 266.157812)scale(0.1 -0.1)">
       <defs>
        <path d="M 49.75 54.046875 
L 41.015625 53.375 
Q 39.84375 58.546875 37.703125 60.890625 
Q 34.125 64.65625 28.90625 64.65625 
Q 24.703125 64.65625 21.53125 62.3125 
Q 17.390625 59.28125 14.984375 53.46875 
Q 12.59375 47.65625 12.5 36.921875 
Q 15.671875 41.75 20.265625 44.09375 
Q 24.859375 46.4375 29.890625 46.4375 
Q 38.671875 46.4375 44.84375 39.96875 
Q 51.03125 33.5 51.03125 23.25 
Q 51.03125 16.5 48.125 10.71875 
Q 45.21875 4.9375 40.140625 1.859375 
Q 35.0625 -1.21875 28.609375 -1.21875 
Q 17.625 -1.21875 10.6875 6.859375 
Q 3.765625 14.9375 3.765625 33.5 
Q 3.765625 54.25 11.421875 63.671875 
Q 18.109375 71.875 29.4375 71.875 
Q 37.890625 71.875 43.28125 67.140625 
Q 48.6875 62.40625 49.75 54.046875 
z
M 13.875 23.1875 
Q 13.875 18.65625 15.796875 14.5 
Q 17.71875 10.359375 21.1875 8.171875 
Q 24.65625 6 28.46875 6 
Q 34.03125 6 38.03125 10.484375 
Q 42.046875 14.984375 42.046875 22.703125 
Q 42.046875 30.125 38.078125 34.390625 
Q 34.125 38.671875 28.125 38.671875 
Q 22.171875 38.671875 18.015625 34.390625 
Q 13.875 30.125 13.875 23.1875 
z
" id="ArialMT-54"/>
       </defs>
       <use xlink:href="#ArialMT-48"/>
       <use x="55.615234" xlink:href="#ArialMT-46"/>
       <use x="83.398438" xlink:href="#ArialMT-48"/>
       <use x="139.013672" xlink:href="#ArialMT-48"/>
       <use x="194.628906" xlink:href="#ArialMT-49"/>
       <use x="250.244141" xlink:href="#ArialMT-52"/>
       <use x="305.859375" xlink:href="#ArialMT-54"/>
       <use x="361.474609" xlink:href="#ArialMT-48"/>
      </g>
     </g>
    </g>
    <g id="xtick_6">
     <g id="line2d_6">
      <path clip-path="url(#p6c1d4058f0)" d="M 263.25 252 
L 263.25 34.56 
" style="fill:none;stroke:#cccccc;stroke-linecap:round;stroke-width:0.8;"/>
     </g>
     <g id="text_6">
      <!-- 0.001465 -->
      <g style="fill:#262626;" transform="translate(242.397656 266.157812)scale(0.1 -0.1)">
       <use xlink:href="#ArialMT-48"/>
       <use x="55.615234" xlink:href="#ArialMT-46"/>
       <use x="83.398438" xlink:href="#ArialMT-48"/>
       <use x="139.013672" xlink:href="#ArialMT-48"/>
       <use x="194.628906" xlink:href="#ArialMT-49"/>
       <use x="250.244141" xlink:href="#ArialMT-52"/>
       <use x="305.859375" xlink:href="#ArialMT-54"/>
       <use x="361.474609" xlink:href="#ArialMT-53"/>
      </g>
     </g>
    </g>
    <g id="xtick_7">
     <g id="line2d_7">
      <path clip-path="url(#p6c1d4058f0)" d="M 305.1 252 
L 305.1 34.56 
" style="fill:none;stroke:#cccccc;stroke-linecap:round;stroke-width:0.8;"/>
     </g>
     <g id="text_7">
      <!-- 0.001470 -->
      <g style="fill:#262626;" transform="translate(284.247656 266.157812)scale(0.1 -0.1)">
       <defs>
        <path d="M 4.734375 62.203125 
L 4.734375 70.65625 
L 51.078125 70.65625 
L 51.078125 63.8125 
Q 44.234375 56.546875 37.515625 44.484375 
Q 30.8125 32.421875 27.15625 19.671875 
Q 24.515625 10.6875 23.78125 0 
L 14.75 0 
Q 14.890625 8.453125 18.0625 20.40625 
Q 21.234375 32.375 27.171875 43.484375 
Q 33.109375 54.59375 39.796875 62.203125 
z
" id="ArialMT-55"/>
       </defs>
       <use xlink:href="#ArialMT-48"/>
       <use x="55.615234" xlink:href="#ArialMT-46"/>
       <use x="83.398438" xlink:href="#ArialMT-48"/>
       <use x="139.013672" xlink:href="#ArialMT-48"/>
       <use x="194.628906" xlink:href="#ArialMT-49"/>
       <use x="250.244141" xlink:href="#ArialMT-52"/>
       <use x="305.859375" xlink:href="#ArialMT-55"/>
       <use x="361.474609" xlink:href="#ArialMT-48"/>
      </g>
     </g>
    </g>
    <g id="xtick_8">
     <g id="line2d_8">
      <path clip-path="url(#p6c1d4058f0)" d="M 346.95 252 
L 346.95 34.56 
" style="fill:none;stroke:#cccccc;stroke-linecap:round;stroke-width:0.8;"/>
     </g>
     <g id="text_8">
      <!-- 0.001475 -->
      <g style="fill:#262626;" transform="translate(326.097656 266.157812)scale(0.1 -0.1)">
       <use xlink:href="#ArialMT-48"/>
       <use x="55.615234" xlink:href="#ArialMT-46"/>
       <use x="83.398438" xlink:href="#ArialMT-48"/>
       <use x="139.013672" xlink:href="#ArialMT-48"/>
       <use x="194.628906" xlink:href="#ArialMT-49"/>
       <use x="250.244141" xlink:href="#ArialMT-52"/>
       <use x="305.859375" xlink:href="#ArialMT-55"/>
       <use x="361.474609" xlink:href="#ArialMT-53"/>
      </g>
     </g>
    </g>
    <g id="xtick_9">
     <g id="line2d_9">
      <path clip-path="url(#p6c1d4058f0)" d="M 388.8 252 
L 388.8 34.56 
" style="fill:none;stroke:#cccccc;stroke-linecap:round;stroke-width:0.8;"/>
     </g>
     <g id="text_9">
      <!-- 0.001480 -->
      <g style="fill:#262626;" transform="translate(367.947656 266.157812)scale(0.1 -0.1)">
       <defs>
        <path d="M 17.671875 38.8125 
Q 12.203125 40.828125 9.5625 44.53125 
Q 6.9375 48.25 6.9375 53.421875 
Q 6.9375 61.234375 12.546875 66.546875 
Q 18.171875 71.875 27.484375 71.875 
Q 36.859375 71.875 42.578125 66.421875 
Q 48.296875 60.984375 48.296875 53.171875 
Q 48.296875 48.1875 45.671875 44.5 
Q 43.0625 40.828125 37.75 38.8125 
Q 44.34375 36.671875 47.78125 31.875 
Q 51.21875 27.09375 51.21875 20.453125 
Q 51.21875 11.28125 44.71875 5.03125 
Q 38.234375 -1.21875 27.640625 -1.21875 
Q 17.046875 -1.21875 10.546875 5.046875 
Q 4.046875 11.328125 4.046875 20.703125 
Q 4.046875 27.6875 7.59375 32.390625 
Q 11.140625 37.109375 17.671875 38.8125 
z
M 15.921875 53.71875 
Q 15.921875 48.640625 19.1875 45.40625 
Q 22.46875 42.1875 27.6875 42.1875 
Q 32.765625 42.1875 36.015625 45.375 
Q 39.265625 48.578125 39.265625 53.21875 
Q 39.265625 58.0625 35.90625 61.359375 
Q 32.5625 64.65625 27.59375 64.65625 
Q 22.5625 64.65625 19.234375 61.421875 
Q 15.921875 58.203125 15.921875 53.71875 
z
M 13.09375 20.65625 
Q 13.09375 16.890625 14.875 13.375 
Q 16.65625 9.859375 20.171875 7.921875 
Q 23.6875 6 27.734375 6 
Q 34.03125 6 38.125 10.046875 
Q 42.234375 14.109375 42.234375 20.359375 
Q 42.234375 26.703125 38.015625 30.859375 
Q 33.796875 35.015625 27.4375 35.015625 
Q 21.234375 35.015625 17.15625 30.90625 
Q 13.09375 26.8125 13.09375 20.65625 
z
" id="ArialMT-56"/>
       </defs>
       <use xlink:href="#ArialMT-48"/>
       <use x="55.615234" xlink:href="#ArialMT-46"/>
       <use x="83.398438" xlink:href="#ArialMT-48"/>
       <use x="139.013672" xlink:href="#ArialMT-48"/>
       <use x="194.628906" xlink:href="#ArialMT-49"/>
       <use x="250.244141" xlink:href="#ArialMT-52"/>
       <use x="305.859375" xlink:href="#ArialMT-56"/>
       <use x="361.474609" xlink:href="#ArialMT-48"/>
      </g>
     </g>
    </g>
   </g>
   <g id="matplotlib.axis_2">
    <g id="ytick_1">
     <g id="line2d_10">
      <path clip-path="url(#p6c1d4058f0)" d="M 54 232.232727 
L 388.8 232.232727 
" style="fill:none;stroke:#cccccc;stroke-linecap:round;stroke-width:0.8;"/>
     </g>
     <g id="text_10">
      <!-- 0.008 -->
      <g style="fill:#262626;" transform="translate(21.978125 235.811634)scale(0.1 -0.1)">
       <use xlink:href="#ArialMT-48"/>
       <use x="55.615234" xlink:href="#ArialMT-46"/>
       <use x="83.398438" xlink:href="#ArialMT-48"/>
       <use x="139.013672" xlink:href="#ArialMT-48"/>
       <use x="194.628906" xlink:href="#ArialMT-56"/>
      </g>
     </g>
    </g>
    <g id="ytick_2">
     <g id="line2d_11">
      <path clip-path="url(#p6c1d4058f0)" d="M 54 192.698182 
L 388.8 192.698182 
" style="fill:none;stroke:#cccccc;stroke-linecap:round;stroke-width:0.8;"/>
     </g>
     <g id="text_11">
      <!-- 0.010 -->
      <g style="fill:#262626;" transform="translate(21.978125 196.277088)scale(0.1 -0.1)">
       <use xlink:href="#ArialMT-48"/>
       <use x="55.615234" xlink:href="#ArialMT-46"/>
       <use x="83.398438" xlink:href="#ArialMT-48"/>
       <use x="139.013672" xlink:href="#ArialMT-49"/>
       <use x="194.628906" xlink:href="#ArialMT-48"/>
      </g>
     </g>
    </g>
    <g id="ytick_3">
     <g id="line2d_12">
      <path clip-path="url(#p6c1d4058f0)" d="M 54 153.163636 
L 388.8 153.163636 
" style="fill:none;stroke:#cccccc;stroke-linecap:round;stroke-width:0.8;"/>
     </g>
     <g id="text_12">
      <!-- 0.012 -->
      <g style="fill:#262626;" transform="translate(21.978125 156.742543)scale(0.1 -0.1)">
       <defs>
        <path d="M 50.34375 8.453125 
L 50.34375 0 
L 3.03125 0 
Q 2.9375 3.171875 4.046875 6.109375 
Q 5.859375 10.9375 9.828125 15.625 
Q 13.8125 20.3125 21.34375 26.46875 
Q 33.015625 36.03125 37.109375 41.625 
Q 41.21875 47.21875 41.21875 52.203125 
Q 41.21875 57.421875 37.46875 61 
Q 33.734375 64.59375 27.734375 64.59375 
Q 21.390625 64.59375 17.578125 60.78125 
Q 13.765625 56.984375 13.71875 50.25 
L 4.6875 51.171875 
Q 5.609375 61.28125 11.65625 66.578125 
Q 17.71875 71.875 27.9375 71.875 
Q 38.234375 71.875 44.234375 66.15625 
Q 50.25 60.453125 50.25 52 
Q 50.25 47.703125 48.484375 43.546875 
Q 46.734375 39.40625 42.65625 34.8125 
Q 38.578125 30.21875 29.109375 22.21875 
Q 21.1875 15.578125 18.9375 13.203125 
Q 16.703125 10.84375 15.234375 8.453125 
z
" id="ArialMT-50"/>
       </defs>
       <use xlink:href="#ArialMT-48"/>
       <use x="55.615234" xlink:href="#ArialMT-46"/>
       <use x="83.398438" xlink:href="#ArialMT-48"/>
       <use x="139.013672" xlink:href="#ArialMT-49"/>
       <use x="194.628906" xlink:href="#ArialMT-50"/>
      </g>
     </g>
    </g>
    <g id="ytick_4">
     <g id="line2d_13">
      <path clip-path="url(#p6c1d4058f0)" d="M 54 113.629091 
L 388.8 113.629091 
" style="fill:none;stroke:#cccccc;stroke-linecap:round;stroke-width:0.8;"/>
     </g>
     <g id="text_13">
      <!-- 0.014 -->
      <g style="fill:#262626;" transform="translate(21.978125 117.207997)scale(0.1 -0.1)">
       <use xlink:href="#ArialMT-48"/>
       <use x="55.615234" xlink:href="#ArialMT-46"/>
       <use x="83.398438" xlink:href="#ArialMT-48"/>
       <use x="139.013672" xlink:href="#ArialMT-49"/>
       <use x="194.628906" xlink:href="#ArialMT-52"/>
      </g>
     </g>
    </g>
    <g id="ytick_5">
     <g id="line2d_14">
      <path clip-path="url(#p6c1d4058f0)" d="M 54 74.094545 
L 388.8 74.094545 
" style="fill:none;stroke:#cccccc;stroke-linecap:round;stroke-width:0.8;"/>
     </g>
     <g id="text_14">
      <!-- 0.016 -->
      <g style="fill:#262626;" transform="translate(21.978125 77.673452)scale(0.1 -0.1)">
       <use xlink:href="#ArialMT-48"/>
       <use x="55.615234" xlink:href="#ArialMT-46"/>
       <use x="83.398438" xlink:href="#ArialMT-48"/>
       <use x="139.013672" xlink:href="#ArialMT-49"/>
       <use x="194.628906" xlink:href="#ArialMT-54"/>
      </g>
     </g>
    </g>
    <g id="ytick_6">
     <g id="line2d_15">
      <path clip-path="url(#p6c1d4058f0)" d="M 54 34.56 
L 388.8 34.56 
" style="fill:none;stroke:#cccccc;stroke-linecap:round;stroke-width:0.8;"/>
     </g>
     <g id="text_15">
      <!-- 0.018 -->
      <g style="fill:#262626;" transform="translate(21.978125 38.138906)scale(0.1 -0.1)">
       <use xlink:href="#ArialMT-48"/>
       <use x="55.615234" xlink:href="#ArialMT-46"/>
       <use x="83.398438" xlink:href="#ArialMT-48"/>
       <use x="139.013672" xlink:href="#ArialMT-49"/>
       <use x="194.628906" xlink:href="#ArialMT-56"/>
      </g>
     </g>
    </g>
   </g>
   <g id="line2d_16">
    <path clip-path="url(#p6c1d4058f0)" d="M 53.969989 204.161322 
L 54.074615 203.183932 
L 54.179241 200.493114 
L 54.283866 200.97578 
L 54.493118 203.425265 
L 54.702369 205.633436 
L 54.806994 204.414713 
L 54.91162 200.97578 
L 55.120871 203.919989 
L 55.434748 208.577645 
L 55.748625 200.97578 
L 55.853251 202.689208 
L 55.957877 200.97578 
L 56.167128 206.864198 
L 56.376379 201.229171 
L 56.481005 199.99839 
L 56.690256 201.953151 
L 56.899507 199.99839 
L 57.004133 202.689208 
L 57.213384 199.757057 
L 57.422636 206.864198 
L 57.527261 207.105531 
L 57.736513 204.414713 
L 57.841138 206.610807 
L 58.05039 204.414713 
L 58.155015 205.392103 
L 58.364266 207.841588 
L 58.573518 204.414713 
L 58.782769 209.796349 
L 58.99202 205.633436 
L 59.305897 202.689208 
L 59.410523 206.610807 
L 59.515149 205.87475 
L 59.619774 206.12816 
L 59.829026 210.291073 
L 59.933651 210.049759 
L 60.142902 202.206561 
L 60.247528 202.942599 
L 60.456779 205.633436 
L 60.561405 206.12816 
L 60.875282 199.757057 
L 60.979908 200.493114 
L 61.084533 200.239723 
L 61.189159 199.503666 
L 61.293785 199.757057 
L 61.39841 198.767609 
L 61.503036 196.318124 
L 61.816913 204.897379 
L 62.026164 197.790238 
L 62.13079 203.919989 
L 62.235415 202.206561 
L 62.444667 204.897379 
L 62.549292 203.183932 
L 62.653918 203.425265 
L 62.863169 205.392103 
L 62.967795 205.392103 
L 63.072421 206.610807 
L 63.177046 205.633436 
L 63.281672 206.864198 
L 63.490923 202.206561 
L 63.595549 201.229171 
L 63.700175 201.953151 
L 63.8048 203.919989 
L 64.014051 198.767609 
L 64.118677 199.757057 
L 64.327928 204.161322 
L 64.53718 200.239723 
L 64.641805 201.470504 
L 64.851057 205.87475 
L 64.955682 205.392103 
L 65.060308 207.105531 
L 65.478811 201.229171 
L 65.583436 201.470504 
L 65.688062 202.689208 
L 65.792687 202.447875 
L 65.897313 202.942599 
L 66.106564 201.711837 
L 66.21119 204.161322 
L 66.315816 202.689208 
L 66.525067 204.897379 
L 66.629693 203.919989 
L 66.734318 204.897379 
L 66.838944 204.656046 
L 66.94357 203.678656 
L 67.048195 204.656046 
L 67.257447 199.503666 
L 67.362072 199.99839 
L 67.571323 209.796349 
L 67.780575 208.324254 
L 67.8852 208.818978 
L 68.303703 204.897379 
L 68.408329 208.818978 
L 68.512954 208.082921 
L 68.722206 210.291073 
L 69.036083 200.734447 
L 69.245334 204.656046 
L 69.349959 203.678656 
L 69.454585 204.414713 
L 69.559211 206.369474 
L 69.873088 201.229171 
L 69.977713 201.711837 
L 70.082339 204.414713 
L 70.29159 198.284962 
L 70.500842 202.447875 
L 70.605467 201.229171 
L 70.710093 202.206561 
L 70.814719 201.711837 
L 70.919344 204.414713 
L 71.128595 198.526276 
L 71.442472 214.695338 
L 71.651724 199.99839 
L 71.756349 200.493114 
L 71.965601 204.161322 
L 72.070226 201.470504 
L 72.174852 202.689208 
L 72.279478 202.447875 
L 72.488729 198.767609 
L 72.802606 206.864198 
L 73.011857 192.408583 
L 73.325734 208.324254 
L 73.534985 204.656046 
L 73.744237 203.678656 
L 73.848862 203.919989 
L 73.953488 201.711837 
L 74.058114 202.942599 
L 74.267365 207.346864 
L 74.476616 201.711837 
L 74.581242 201.953151 
L 74.790493 198.043629 
L 74.999744 206.12816 
L 75.208996 202.206561 
L 75.522873 202.942599 
L 75.732124 201.470504 
L 75.941375 204.414713 
L 76.255252 200.239723 
L 76.569129 202.689208 
L 76.77838 199.262333 
L 77.092257 202.447875 
L 77.196883 201.953151 
L 77.301509 199.262333 
L 77.51076 202.942599 
L 77.615386 207.346864 
L 77.720011 204.414713 
L 77.824637 198.284962 
L 77.929263 199.757057 
L 78.24314 207.841588 
L 78.452391 203.678656 
L 78.557016 206.610807 
L 78.661642 206.369474 
L 78.870893 205.138712 
L 78.975519 205.633436 
L 79.080145 204.897379 
L 79.289396 200.493114 
L 79.498647 204.161322 
L 79.603273 203.425265 
L 79.91715 209.796349 
L 80.126401 203.678656 
L 80.231027 203.425265 
L 80.335652 203.919989 
L 80.440278 203.425265 
L 80.544904 205.392103 
L 80.963406 199.503666 
L 81.172658 197.548905 
L 81.277283 197.307572 
L 81.486535 201.953151 
L 81.695786 203.678656 
L 81.800412 203.678656 
L 81.905037 206.864198 
L 82.114288 201.953151 
L 82.218914 203.678656 
L 82.32354 203.183932 
L 82.532791 206.864198 
L 82.637417 204.656046 
L 82.742042 205.87475 
L 82.846668 205.392103 
L 83.160545 197.790238 
L 83.369796 201.229171 
L 83.474422 199.262333 
L 83.683673 201.470504 
L 83.788299 200.493114 
L 83.892925 202.689208 
L 83.99755 200.734447 
L 84.206801 202.942599 
L 84.416053 202.942599 
L 84.520678 205.87475 
L 84.72993 200.734447 
L 84.939181 204.414713 
L 85.043807 202.206561 
L 85.253058 204.161322 
L 85.566935 200.97578 
L 85.671561 201.711837 
L 85.776186 201.470504 
L 85.985437 201.953151 
L 86.194689 200.493114 
L 86.299314 197.548905 
L 86.508566 199.757057 
L 86.613191 199.503666 
L 86.717817 199.99839 
L 86.822443 199.503666 
L 86.927068 197.790238 
L 87.031694 198.767609 
L 87.13632 198.526276 
L 87.240945 202.689208 
L 87.345571 199.503666 
L 87.659448 203.678656 
L 87.868699 199.757057 
L 88.182576 208.324254 
L 88.287202 207.588197 
L 88.705704 198.043629 
L 88.81033 199.021 
L 88.914956 202.942599 
L 89.019581 202.206561 
L 89.124207 200.493114 
L 89.228833 195.835458 
L 89.542709 200.239723 
L 89.751961 197.548905 
L 90.065838 202.447875 
L 90.170463 201.470504 
L 90.379715 202.942599 
L 90.588966 200.493114 
L 90.693592 200.239723 
L 90.798217 200.97578 
L 91.007469 199.757057 
L 91.21672 204.897379 
L 91.425971 200.734447 
L 91.530597 201.229171 
L 91.635222 202.942599 
L 91.739848 198.767609 
L 92.262976 209.555035 
L 92.367602 204.897379 
L 92.472228 206.864198 
L 92.576853 206.369474 
L 92.786105 201.953151 
L 92.89073 200.97578 
L 93.099982 207.105531 
L 93.204607 204.414713 
L 93.413858 204.897379 
L 93.727735 200.239723 
L 93.936987 201.470504 
L 94.041612 202.447875 
L 94.146238 201.711837 
L 94.355489 203.183932 
L 94.460115 197.307572 
L 94.564741 199.262333 
L 94.669366 197.548905 
L 94.878618 201.229171 
L 94.983243 201.229171 
L 95.087869 201.953151 
L 95.29712 205.138712 
L 95.506371 202.942599 
L 95.610997 202.206561 
L 95.715623 203.183932 
L 95.820248 202.942599 
L 95.924874 199.503666 
L 96.134125 201.470504 
L 96.238751 199.021 
L 96.343377 199.99839 
L 96.552628 207.105531 
L 96.866505 204.161322 
L 96.97113 204.414713 
L 97.180382 202.447875 
L 97.389633 205.138712 
L 97.598884 200.734447 
L 97.70351 206.12816 
L 98.017387 200.97578 
L 98.122013 201.229171 
L 98.331264 196.812848 
L 98.645141 204.161322 
L 98.854392 199.99839 
L 98.959018 200.239723 
L 99.168269 207.346864 
L 99.272895 206.12816 
L 99.37752 203.425265 
L 99.586772 205.633436 
L 99.691397 203.425265 
L 99.796023 206.369474 
L 100.005274 205.138712 
L 100.214526 197.307572 
L 100.319151 199.503666 
L 100.423777 197.548905 
L 100.737654 203.425265 
L 100.842279 204.161322 
L 101.051531 206.12816 
L 101.156156 204.897379 
L 101.470033 207.588197 
L 101.679285 205.392103 
L 101.78391 204.656046 
L 101.993162 206.610807 
L 102.097787 201.953151 
L 102.202413 202.447875 
L 102.307039 207.346864 
L 102.411664 206.864198 
L 102.620915 199.262333 
L 102.725541 200.734447 
L 102.830167 200.493114 
L 102.934792 199.503666 
L 103.144044 203.183932 
L 103.353295 204.656046 
L 103.562546 200.239723 
L 103.667172 200.493114 
L 103.876423 199.262333 
L 104.294926 201.470504 
L 104.504177 204.414713 
L 104.608803 205.633436 
L 104.713428 204.897379 
L 104.818054 207.588197 
L 105.027305 206.864198 
L 105.131931 204.161322 
L 105.236557 204.656046 
L 105.341182 206.864198 
L 105.445808 206.369474 
L 105.550434 202.942599 
L 105.655059 204.414713 
L 105.759685 203.678656 
L 105.864311 204.656046 
L 106.073562 198.043629 
L 106.387439 203.678656 
L 106.492064 203.919989 
L 106.805941 199.021 
L 106.910567 201.953151 
L 107.015193 199.757057 
L 107.224444 204.414713 
L 107.32907 202.206561 
L 107.538321 208.324254 
L 107.747572 205.633436 
L 107.852198 205.392103 
L 108.061449 203.183932 
L 108.166075 204.656046 
L 108.2707 200.97578 
L 108.479952 202.942599 
L 108.584577 206.12816 
L 108.689203 205.87475 
L 108.898454 199.99839 
L 109.00308 199.99839 
L 109.107706 196.571515 
L 109.316957 203.183932 
L 109.421583 202.689208 
L 109.526208 202.206561 
L 109.735459 207.588197 
L 109.944711 207.346864 
L 110.153962 205.392103 
L 110.258588 207.346864 
L 110.886342 199.262333 
L 110.990967 198.767609 
L 111.200219 199.99839 
L 111.304844 199.757057 
L 111.514096 201.953151 
L 111.827972 203.919989 
L 111.932598 208.818978 
L 112.141849 199.021 
L 112.246475 200.493114 
L 112.455726 196.318124 
L 112.560352 199.503666 
L 112.664978 198.284962 
L 112.769603 199.021 
L 112.978855 194.858087 
L 113.08348 196.812848 
L 113.188106 201.229171 
L 113.292732 197.307572 
L 113.397357 197.548905 
L 113.606608 203.183932 
L 113.81586 199.021 
L 113.920485 199.503666 
L 114.234362 206.12816 
L 114.338988 206.12816 
L 114.443614 205.138712 
L 114.548239 208.818978 
L 115.071368 201.470504 
L 115.175993 202.689208 
L 115.280619 201.953151 
L 115.48987 205.392103 
L 115.594496 200.97578 
L 115.803747 203.678656 
L 115.908373 203.919989 
L 116.012998 203.678656 
L 116.22225 199.99839 
L 116.326875 202.942599 
L 116.431501 200.97578 
L 116.536127 205.392103 
L 116.745378 199.021 
L 116.850004 201.711837 
L 117.059255 199.757057 
L 117.16388 200.734447 
L 117.268506 199.757057 
L 117.373132 202.689208 
L 117.477757 202.206561 
L 117.582383 202.447875 
L 117.687009 200.493114 
L 117.89626 188.486984 
L 118.105511 218.134271 
L 118.314763 197.790238 
L 118.419388 199.262333 
L 118.733265 233.072552 
L 118.837891 208.577645 
L 118.942516 208.818978 
L 119.047142 209.555035 
L 119.256393 200.97578 
L 119.361019 202.447875 
L 119.465645 198.526276 
L 119.674896 200.493114 
L 119.884147 197.054181 
L 120.198024 202.447875 
L 120.407276 200.97578 
L 120.511901 202.447875 
L 120.616527 201.953151 
L 120.721152 198.767609 
L 121.139655 210.291073 
L 121.244281 210.532406 
L 121.558158 212.98191 
L 121.872035 206.369474 
L 122.081286 198.526276 
L 122.185912 199.503666 
L 122.290537 202.689208 
L 122.395163 200.239723 
L 122.70904 204.656046 
L 122.813665 202.942599 
L 123.022917 196.076791 
L 123.127542 195.835458 
L 123.336794 199.757057 
L 123.546045 202.942599 
L 123.650671 206.864198 
L 123.859922 204.656046 
L 124.069173 210.291073 
L 124.278425 206.369474 
L 124.487676 207.588197 
L 124.696927 203.183932 
L 124.801553 202.689208 
L 125.010804 209.796349 
L 125.220055 201.470504 
L 125.324681 204.414713 
L 125.429307 203.425265 
L 125.533932 198.767609 
L 125.638558 199.99839 
L 125.847809 198.767609 
L 125.952435 196.812848 
L 126.057061 198.526276 
L 126.266312 208.577645 
L 126.370937 202.689208 
L 126.580189 204.656046 
L 126.78944 202.447875 
L 126.894066 202.206561 
L 126.998691 206.610807 
L 127.103317 205.633436 
L 127.312568 199.99839 
L 127.417194 202.942599 
L 127.626445 201.229171 
L 127.731071 196.571515 
L 127.835697 199.021 
L 127.940322 196.076791 
L 128.044948 196.318124 
L 128.254199 203.183932 
L 128.358825 199.503666 
L 128.46345 199.757057 
L 128.568076 196.318124 
L 128.672702 196.812848 
L 128.777327 198.767609 
L 128.881953 197.548905 
L 129.19583 201.229171 
L 129.509707 197.054181 
L 129.718958 203.425265 
L 129.928209 196.571515 
L 130.032835 197.054181 
L 130.137461 197.548905 
L 130.242086 198.767609 
L 130.346712 196.571515 
L 130.555963 197.790238 
L 130.660589 198.284962 
L 130.86984 193.132582 
L 131.079092 194.12203 
L 131.288343 193.627306 
L 131.392969 195.835458 
L 131.497594 194.858087 
L 131.60222 199.021 
L 131.706846 196.571515 
L 131.811471 197.307572 
L 132.229974 191.419135 
L 132.334599 192.408583 
L 132.439225 191.672526 
L 132.543851 194.604677 
L 132.648476 194.363363 
L 132.753102 191.419135 
L 133.066979 195.099401 
L 133.171605 194.604677 
L 133.27623 192.891249 
L 133.380856 197.054181 
L 133.485482 196.571515 
L 133.799358 189.223041 
L 133.903984 188.96965 
L 134.113235 194.858087 
L 134.217861 194.12203 
L 134.427112 191.419135 
L 134.531738 194.604677 
L 134.636364 194.12203 
L 134.950241 189.223041 
L 135.054866 188.96965 
L 135.264118 193.627306 
L 135.368743 190.936488 
L 135.473369 191.177802 
L 135.577994 192.891249 
L 135.787246 191.177802 
L 135.891871 191.419135 
L 135.996497 192.408583 
L 136.101123 194.858087 
L 136.205748 190.683078 
L 136.415 191.913859 
L 136.624251 195.835458 
L 136.833502 190.683078 
L 136.938128 190.441764 
L 137.042754 190.936488 
L 137.147379 187.256203 
L 137.252005 187.750927 
L 137.35663 186.037499 
L 137.670507 193.385973 
L 137.775133 190.936488 
L 137.984384 195.835458 
L 138.193636 194.12203 
L 138.298261 195.340734 
L 138.507513 189.94704 
L 138.612138 190.936488 
L 138.82139 198.526276 
L 138.926015 191.672526 
L 139.135266 192.649916 
L 139.239892 192.649916 
L 139.449143 188.96965 
L 139.658395 197.307572 
L 139.76302 195.099401 
L 139.867646 196.318124 
L 140.181523 193.868639 
L 140.286149 196.812848 
L 140.390774 196.318124 
L 140.600026 190.936488 
L 140.704651 189.94704 
L 140.809277 191.913859 
L 141.018528 190.441764 
L 141.123154 191.419135 
L 141.227779 190.441764 
L 141.332405 191.419135 
L 141.646282 198.526276 
L 141.750908 197.054181 
L 141.855533 198.284962 
L 141.960159 193.868639 
L 142.064785 194.604677 
L 142.274036 192.408583 
L 142.483287 192.649916 
L 142.797164 195.582067 
L 142.90179 193.627306 
L 143.006415 195.099401 
L 143.111041 193.868639 
L 143.215667 195.835458 
L 143.320292 194.363363 
L 143.424918 195.582067 
L 143.529544 195.099401 
L 143.634169 193.868639 
L 143.843421 199.262333 
L 143.948046 198.767609 
L 144.052672 195.582067 
L 144.157298 196.318124 
L 144.261923 198.526276 
L 144.366549 193.627306 
L 144.471175 194.12203 
L 144.5758 196.076791 
L 144.680426 194.363363 
L 144.785051 196.076791 
L 144.889677 194.363363 
L 145.098928 195.835458 
L 145.203554 195.835458 
L 145.412805 191.913859 
L 145.517431 191.177802 
L 145.622057 191.913859 
L 145.726682 190.683078 
L 145.935934 195.340734 
L 146.145185 194.12203 
L 146.354436 190.683078 
L 146.459062 195.582067 
L 146.563687 195.099401 
L 146.668313 195.340734 
L 146.772939 192.649916 
L 146.98219 195.340734 
L 147.086816 194.363363 
L 147.191441 195.099401 
L 147.505318 192.155192 
L 147.71457 193.132582 
L 147.819195 191.177802 
L 147.923821 192.891249 
L 148.028447 200.734447 
L 148.237698 195.340734 
L 148.342323 195.835458 
L 148.446949 198.284962 
L 148.6562 190.936488 
L 148.865452 195.582067 
L 148.970077 194.12203 
L 149.179329 196.076791 
L 149.283954 194.858087 
L 149.38858 190.683078 
L 149.493206 193.132582 
L 149.702457 192.891249 
L 149.911708 189.464374 
L 150.016334 188.96965 
L 150.225585 195.340734 
L 150.330211 196.571515 
L 150.539462 191.177802 
L 150.644088 191.419135 
L 150.853339 195.099401 
L 151.167216 190.683078 
L 151.271842 190.200431 
L 151.585719 196.812848 
L 151.899596 188.96965 
L 152.004221 189.223041 
L 152.108847 191.913859 
L 152.213472 191.419135 
L 152.318098 192.155192 
L 152.422724 190.683078 
L 152.631975 195.099401 
L 152.736601 197.548905 
L 152.841226 195.582067 
L 152.945852 198.043629 
L 153.155103 195.340734 
L 153.259729 196.076791 
L 153.364355 195.340734 
L 153.46898 195.582067 
L 153.678232 194.12203 
L 153.782857 194.363363 
L 153.887483 195.340734 
L 154.096734 193.868639 
L 154.410611 200.97578 
L 154.515237 199.99839 
L 154.724488 194.12203 
L 154.933739 201.470504 
L 155.142991 205.633436 
L 155.352242 202.447875 
L 155.456868 203.183932 
L 155.979996 199.99839 
L 156.084621 200.97578 
L 156.189247 198.767609 
L 156.293873 200.493114 
L 156.503124 196.318124 
L 156.712375 203.425265 
L 156.817001 202.942599 
L 157.130878 200.239723 
L 157.235504 196.318124 
L 157.444755 199.503666 
L 157.758632 192.891249 
L 158.177134 202.206561 
L 158.28176 199.021 
L 158.491011 199.99839 
L 158.595637 203.183932 
L 158.804888 201.953151 
L 159.01414 208.324254 
L 159.118765 207.588197 
L 159.223391 207.841588 
L 159.432642 206.12816 
L 159.537268 206.369474 
L 159.641893 204.897379 
L 159.851145 207.588197 
L 159.95577 207.105531 
L 160.269647 211.509796 
L 160.374273 211.268463 
L 160.583524 215.190062 
L 160.68815 214.695338 
L 160.897401 216.662176 
L 161.002027 216.408766 
L 161.106653 218.375604 
L 161.315904 209.796349 
L 161.734406 217.144823 
L 161.943658 214.212672 
L 162.048283 214.454005 
L 162.257535 218.375604 
L 162.36216 217.398233 
L 162.466786 220.089051 
L 162.676037 218.134271 
L 162.885289 226.218802 
L 162.989914 223.769317 
L 163.09454 224.988021 
L 163.303791 221.561146 
L 163.722294 224.505374 
L 163.931545 223.769317 
L 164.245422 231.117791 
L 164.663925 225.724078 
L 164.873176 229.88701 
L 164.977801 227.196192 
L 165.082427 229.645677 
L 165.187053 229.404344 
L 165.291678 232.831219 
L 165.396304 232.095162 
L 165.50093 233.325943 
L 165.605555 230.623067 
L 165.710181 231.117791 
L 165.814807 229.150953 
L 165.919432 229.88701 
L 166.024058 229.150953 
L 166.128684 227.437525 
L 166.442561 230.876458 
L 166.651812 233.072552 
L 166.965689 227.437525 
L 167.279566 234.785999 
L 167.384191 232.336495 
L 167.593443 236.016771 
L 167.698068 236.016771 
L 167.802694 233.808609 
L 167.90732 237.488875 
L 168.011945 234.544666 
L 168.221197 235.775447 
L 168.325822 237.971541 
L 168.639699 236.511495 
L 168.84895 230.876458 
L 169.058202 232.589905 
L 169.267453 236.258104 
L 169.476704 232.336495 
L 169.58133 232.831219 
L 169.790581 236.752828 
L 169.895207 235.522037 
L 169.999833 236.016771 
L 170.209084 235.03939 
L 170.418335 229.88701 
L 170.522961 229.404344 
L 170.627586 231.600438 
L 170.836838 227.437525 
L 171.150715 234.049942 
L 171.359966 230.623067 
L 171.464592 228.414896 
L 171.569217 228.668306 
L 171.98772 236.511495 
L 172.301597 232.589905 
L 172.615474 236.258104 
L 172.824725 232.831219 
L 172.929351 232.336495 
L 173.033976 233.325943 
L 173.243228 232.589905 
L 173.452479 231.359124 
L 173.66173 236.511495 
L 173.766356 235.280723 
L 173.975607 230.623067 
L 174.184858 237.971541 
L 174.39411 233.567276 
L 174.498735 234.303333 
L 174.603361 237.488875 
L 174.707987 236.511495 
L 174.917238 229.88701 
L 175.126489 232.095162 
L 175.335741 236.752828 
L 175.544992 240.674427 
L 175.754243 236.511495 
L 175.858869 239.93837 
L 175.963494 239.202313 
L 176.06812 237.488875 
L 176.381997 240.179703 
L 176.486623 241.410474 
L 176.591248 240.179703 
L 176.695874 236.016771 
L 176.8005 236.511495 
L 177.009751 229.645677 
L 177.114377 232.589905 
L 177.219002 231.853848 
L 177.323628 232.336495 
L 177.532879 236.511495 
L 177.74213 234.785999 
L 177.846756 234.785999 
L 177.951382 232.095162 
L 178.056007 233.325943 
L 178.265259 236.258104 
L 178.369884 233.808609 
L 178.47451 236.511495 
L 178.683761 235.775447 
L 178.788387 238.707589 
L 178.997638 235.280723 
L 179.102264 238.707589 
L 179.20689 236.752828 
L 179.311515 240.674427 
L 179.416141 238.960989 
L 179.625392 235.03939 
L 179.730018 237.730208 
L 179.834643 235.522037 
L 180.043895 238.224932 
L 180.253146 238.224932 
L 180.357772 234.785999 
L 180.567023 235.775447 
L 180.671649 235.280723 
L 180.8809 243.365245 
L 181.194777 232.589905 
L 181.404028 236.511495 
L 181.613279 239.202313 
L 181.717905 233.567276 
L 182.136408 243.365245 
L 182.241033 239.93837 
L 182.345659 242.870521 
L 182.55491 240.674427 
L 182.659536 243.123912 
L 182.764162 240.91575 
L 182.973413 233.072552 
L 183.078039 231.853848 
L 183.28729 236.016771 
L 183.391915 233.567276 
L 183.496541 236.994151 
L 183.601167 236.511495 
L 183.915044 237.730208 
L 184.542798 215.926119 
L 184.752049 212.499244 
L 184.856675 208.082921 
L 184.9613 208.577645 
L 185.065926 206.12816 
L 185.379803 192.891249 
L 185.589054 193.868639 
L 185.69368 190.683078 
L 185.902931 197.548905 
L 186.007557 198.767609 
L 186.216808 189.464374 
L 186.530685 198.767609 
L 186.635311 193.385973 
L 187.053813 200.734447 
L 187.158439 200.239723 
L 187.36769 207.346864 
L 187.576941 202.689208 
L 187.681567 199.757057 
L 187.890818 202.206561 
L 188.10007 198.043629 
L 188.204695 200.734447 
L 188.309321 206.369474 
L 188.413947 204.656046 
L 188.623198 198.526276 
L 188.832449 210.049759 
L 188.937075 208.577645 
L 189.146326 200.97578 
L 189.250952 200.97578 
L 189.460203 203.919989 
L 189.564829 202.942599 
L 189.77408 197.307572 
L 189.878706 197.548905 
L 189.983331 198.526276 
L 190.192583 212.00452 
L 190.297208 210.532406 
L 190.50646 205.392103 
L 190.611085 205.633436 
L 190.715711 208.082921 
L 190.924962 207.346864 
L 191.44809 215.190062 
L 191.552716 214.948729 
L 191.761967 211.268463 
L 191.866593 211.02713 
L 192.075844 215.684786 
L 192.18047 212.499244 
L 192.285096 212.740577 
L 192.389721 214.454005 
L 192.598972 209.555035 
L 192.808224 212.245853 
L 193.017475 210.773739 
L 193.122101 211.268463 
L 193.226726 210.532406 
L 193.331352 212.740577 
L 193.435978 211.509796 
L 193.540603 212.499244 
L 193.645229 214.948729 
L 193.85448 211.02713 
L 193.959106 212.00452 
L 194.063732 209.796349 
L 194.168357 210.049759 
L 194.377608 209.796349 
L 194.482234 210.049759 
L 194.796111 219.111661 
L 195.005362 215.190062 
L 195.214614 219.594327 
L 195.528491 215.684786 
L 195.737742 220.583775 
L 195.842368 223.515926 
L 196.156244 214.695338 
L 196.365496 213.476634 
L 196.574747 219.847718 
L 196.888624 217.398233 
L 197.202501 220.825108 
L 197.411752 212.00452 
L 197.516378 209.796349 
L 197.621004 210.773739 
L 198.144132 192.891249 
L 198.248757 192.649916 
L 198.353383 189.705707 
L 198.458009 191.177802 
L 198.876511 175.491406 
L 198.981137 175.491406 
L 199.085763 174.514035 
L 199.504265 157.850249 
L 199.608891 158.10364 
L 200.550522 136.299551 
L 200.655147 136.782216 
L 200.759773 135.06877 
L 200.969024 127.961629 
L 201.07365 126.2482 
L 201.282901 128.202961 
L 201.387527 127.720296 
L 201.596778 128.939018 
L 201.701404 127.961629 
L 201.910655 125.017419 
L 202.015281 124.534754 
L 202.119906 125.270811 
L 202.224532 120.37184 
L 202.329158 120.613155 
L 202.433783 121.349212 
L 202.538409 119.635783 
L 202.643035 120.854487 
L 202.74766 125.753476 
L 203.166163 113.264681 
L 203.48004 107.376262 
L 203.584665 106.652264 
L 203.689291 108.848358 
L 203.898542 101.258569 
L 204.212419 97.578284 
L 204.317045 96.842246 
L 204.630922 87.780325 
L 204.840173 85.572173 
L 204.944799 85.572173 
L 205.049425 84.836116 
L 205.258676 78.223681 
L 205.363301 78.465032 
L 205.572553 77.728975 
L 205.781804 70.633874 
L 205.88643 72.093948 
L 206.095681 65.481512 
L 206.200307 66.712275 
L 206.409558 63.273341 
L 206.514184 63.526732 
L 206.618809 64.262789 
L 206.828061 66.217569 
L 206.932686 64.262789 
L 207.037312 65.481512 
L 207.246563 73.819416 
L 207.56044 64.998846 
L 207.769691 67.930997 
L 207.874317 67.19494 
L 208.083568 72.588653 
L 208.502071 87.285601 
L 208.606697 88.757715 
L 208.711322 85.33084 
L 208.815948 86.066897 
L 209.025199 98.073009 
L 209.129825 96.106189 
L 209.339076 98.809065 
L 209.548327 107.629653 
L 209.652953 107.376262 
L 209.757579 106.398872 
L 210.280707 123.557382 
L 210.385333 123.062658 
L 210.594584 118.899726 
L 210.69921 121.107879 
L 211.013086 132.124561 
L 211.326963 140.209091 
L 211.431589 140.462483 
L 211.64084 146.580176 
L 211.745466 147.316233 
L 211.850092 145.602804 
L 211.954717 147.0749 
L 212.163969 153.20467 
L 212.37322 157.367601 
L 212.477846 152.215221 
L 212.687097 160.058419 
L 212.896348 156.13682 
L 213.000974 156.631545 
L 213.210225 163.485294 
L 213.314851 163.243962 
L 213.419476 165.2108 
L 213.524102 164.95739 
L 213.733353 166.670837 
L 213.837979 166.188171 
L 214.04723 169.615046 
L 214.361107 176.227463 
L 214.465733 172.559274 
L 214.674984 177.699577 
L 214.77961 174.272702 
L 214.884235 176.96352 
L 214.988861 175.98613 
L 215.511989 185.784108 
L 215.616615 184.565385 
L 215.721241 181.621176 
L 215.930492 181.862509 
L 216.035118 184.311994 
L 216.139743 184.070661 
L 216.244369 182.1159 
L 216.45362 186.278832 
L 216.662871 185.048051 
L 216.976748 188.728317 
L 217.186 185.542775 
L 217.290625 186.037499 
L 217.499877 175.98613 
L 217.709128 180.885119 
L 217.813754 181.379843 
L 217.918379 180.885119 
L 218.023005 179.413005 
L 218.127631 181.862509 
L 218.232256 181.126452 
L 218.546133 173.041921 
L 218.650759 172.800588 
L 218.86001 170.10977 
L 218.964636 170.351103 
L 219.278513 163.485294 
L 219.383138 165.946838 
L 219.906267 150.019127 
L 220.010892 149.765718 
L 220.115518 147.316233 
L 220.220143 148.788346 
L 220.324769 147.316233 
L 220.638646 130.905856 
L 220.743272 130.411132 
L 221.057149 124.534754 
L 221.161774 126.742924 
L 221.475651 116.450241 
L 221.580277 117.427613 
L 221.684903 117.18628 
L 222.103405 104.444111 
L 222.208031 104.190702 
L 222.417282 95.128799 
L 222.94041 89.735086 
L 223.045036 90.22981 
L 223.149662 88.275049 
L 223.568164 75.27949 
L 223.67279 74.543433 
L 223.882041 80.431851 
L 224.405169 70.139168 
L 224.509795 69.897817 
L 224.614421 65.722826 
L 224.719046 65.976218 
L 224.823672 65.722826 
L 224.928298 60.34119 
L 225.032923 62.054619 
L 225.137549 61.077247 
L 225.3468 55.188829 
L 225.451426 55.683534 
L 225.660677 60.087799 
L 225.869928 55.44222 
L 225.974554 55.924886 
L 226.288431 49.807193 
L 226.497682 53.4754 
L 226.706934 56.178277 
L 226.811559 54.947478 
L 227.020811 59.363819 
L 227.125436 64.745455 
L 227.334688 62.29597 
L 227.439313 62.29597 
L 227.648564 58.869077 
L 228.171693 68.908369 
L 228.276318 70.633874 
L 228.380944 68.908369 
L 228.799447 76.510252 
L 229.008698 80.673166 
L 229.4272 86.308211 
L 229.636452 88.757715 
L 229.741077 88.275049 
L 229.950329 94.15141 
L 230.054954 93.174038 
L 230.15958 93.656685 
L 230.473457 101.017236 
L 230.578083 100.763845 
L 230.996585 108.848358 
L 231.101211 108.848358 
L 231.205836 107.870986 
L 231.310462 109.584414 
L 231.624339 120.854487 
L 231.728965 120.613155 
L 231.938216 122.326601 
L 232.042842 121.107879 
L 232.252093 127.961629 
L 232.356719 130.905856 
L 232.56597 130.169799 
L 232.670596 133.838007 
L 232.775221 131.641895 
L 232.879847 132.124561 
L 233.089098 136.782216 
L 233.193724 135.06877 
L 233.298349 135.563494 
L 233.507601 143.889358 
L 233.716852 145.844119 
L 234.030729 149.524403 
L 234.135355 149.283071 
L 234.23998 148.547014 
L 234.449232 150.996499 
L 234.658483 148.547014 
L 234.763108 149.283071 
L 234.867734 148.547014 
L 235.181611 158.586306 
L 235.390862 156.13682 
L 235.495488 157.126269 
L 235.600114 161.530515 
L 235.913991 156.631545 
L 236.018616 157.367601 
L 236.123242 156.872877 
L 236.227868 157.367601 
L 236.332493 156.390212 
L 236.541745 159.575754 
L 236.855621 162.761296 
L 236.960247 162.507905 
L 237.37875 155.895488 
L 237.483375 158.344973 
L 237.692627 154.918098 
L 237.797252 155.400764 
L 238.111129 160.794476 
L 238.425006 148.788346 
L 238.529632 148.788346 
L 238.738883 149.283071 
L 238.843509 144.866747 
L 239.05276 150.260442 
L 239.471263 140.462483 
L 239.78514 135.06877 
L 239.889765 136.540884 
L 240.203642 129.433742 
L 240.308268 127.961629 
L 240.622145 129.433742 
L 240.831396 123.798697 
L 241.040647 122.821325 
L 241.249899 118.405002 
L 241.563776 115.955499 
L 241.668401 115.714184 
L 242.191529 102.971997 
L 242.296155 104.190702 
L 242.505406 101.499884 
L 242.610032 101.994608 
L 242.714658 103.708054 
L 243.342412 91.701924 
L 243.551663 92.196648 
L 243.86554 87.780325 
L 243.970165 89.493772 
L 244.074791 89.252439 
L 244.284042 86.066897 
L 244.388668 85.825564 
L 244.493294 82.881336 
L 244.702545 89.011106 
L 244.807171 89.011106 
L 245.016422 88.021658 
L 245.225673 84.836116 
L 245.330299 85.825564 
L 245.53955 80.673166 
L 245.748801 76.015547 
L 245.853427 78.718423 
L 246.062678 88.516382 
L 246.27193 83.617393 
L 246.481181 86.549544 
L 246.690432 82.145298 
L 246.795058 82.386612 
L 246.899684 85.33084 
L 247.004309 84.35345 
L 247.213561 79.695794 
L 247.527438 85.33084 
L 247.632063 86.802935 
L 247.736689 86.308211 
L 247.841314 89.011106 
L 248.050566 87.538992 
L 248.469068 97.33697 
L 248.67832 92.920629 
L 248.782945 99.291731 
L 248.887571 95.623523 
L 249.201448 102.23594 
L 249.306074 99.786455 
L 249.61995 111.297861 
L 249.724576 110.561804 
L 249.829202 109.837806 
L 250.038453 106.398872 
L 250.143079 107.134929 
L 250.35233 111.792585 
L 250.456956 110.561804 
L 250.561581 116.450241 
L 250.666207 115.21946 
L 250.770833 115.955499 
L 250.980084 123.798697 
L 251.08471 123.798697 
L 251.189335 125.017419 
L 251.293961 123.062658 
L 251.398586 126.489533 
L 251.503212 125.017419 
L 251.712463 128.202961 
L 251.817089 127.961629 
L 251.921715 128.697686 
L 252.02634 127.225572 
L 252.130966 127.478981 
L 252.235592 125.512143 
L 252.75872 135.563494 
L 252.967971 142.417244 
L 253.177222 138.749054 
L 253.281848 138.012997 
L 253.491099 135.06877 
L 253.909602 145.602804 
L 254.014228 147.0749 
L 254.118853 144.866747 
L 254.223479 148.305681 
L 254.328105 147.316233 
L 254.43273 142.175929 
L 254.851233 146.580176 
L 255.060484 143.394634 
L 255.478987 149.524403 
L 255.688238 146.338843 
L 255.792864 146.580176 
L 256.002115 148.05229 
L 256.211366 145.120139 
L 256.315992 142.911968 
L 256.420618 145.844119 
L 256.629869 144.13069 
L 256.83912 149.029679 
L 257.048371 141.681205 
L 257.152997 142.175929 
L 257.257623 141.681205 
L 257.362248 145.120139 
L 257.676125 138.495645 
L 257.780751 138.749054 
L 257.990002 135.310103 
L 258.199254 138.495645 
L 258.408505 133.114009 
L 258.617756 131.388504 
L 258.722382 130.169799 
L 258.931633 124.776087 
L 259.140884 126.489533 
L 259.24551 130.652447 
L 259.664013 122.326601 
L 259.873264 125.270811 
L 260.082515 122.821325 
L 260.187141 125.270811 
L 260.291767 124.776087 
L 260.501018 125.753476 
L 260.814895 117.18628 
L 261.128772 114.736794 
L 261.338023 116.691556 
L 261.547274 112.528642 
L 261.756526 109.837806 
L 261.861151 106.157539 
L 261.965777 108.36571 
L 262.070403 106.652264 
L 262.279654 107.870986 
L 262.488905 105.180168 
L 262.593531 105.421483 
L 262.802782 108.848358 
L 263.116659 104.444111 
L 263.32591 105.916207 
L 263.430536 104.444111 
L 263.639787 97.578284 
L 263.744413 96.600913 
L 264.05829 103.21333 
L 264.267541 98.809065 
L 264.372167 98.314341 
L 264.476792 97.095637 
L 264.686044 101.258569 
L 264.999921 96.600913 
L 265.104546 96.106189 
L 265.313798 100.027788 
L 265.523049 94.15141 
L 265.627675 93.174038 
L 265.7323 95.128799 
L 265.836926 92.679314 
L 265.941552 93.656685 
L 266.046177 92.679314 
L 266.255428 94.646134 
L 266.360054 95.370132 
L 266.569305 101.258569 
L 266.883182 105.180168 
L 266.987808 102.971997 
L 267.092434 103.949387 
L 267.301685 97.33697 
L 268.13869 110.561804 
L 268.243316 109.101767 
L 268.452567 106.157539 
L 268.661818 109.343082 
L 268.87107 112.287309 
L 268.975695 108.607043 
L 269.184947 113.506013 
L 269.289572 114.483403 
L 269.498824 117.18628 
L 269.708075 115.714184 
L 269.8127 115.955499 
L 270.021952 114.483403 
L 270.754331 131.388504 
L 270.858957 131.388504 
L 270.963583 129.675075 
L 271.172834 124.534754 
L 271.382085 126.742924 
L 271.486711 126.006867 
L 271.591336 123.798697 
L 271.800588 124.534754 
L 272.114465 131.641895 
L 272.21909 129.675075 
L 272.532967 133.838007 
L 272.637593 133.114009 
L 272.742219 129.433742 
L 272.846844 132.124561 
L 272.95147 131.147171 
L 273.056096 131.641895 
L 273.265347 134.827455 
L 273.369972 133.596674 
L 273.579224 136.782216 
L 273.893101 133.838007 
L 273.997726 130.905856 
L 274.102352 131.147171 
L 274.206978 130.652447 
L 274.311603 131.388504 
L 274.416229 131.147171 
L 274.520855 132.124561 
L 274.62548 134.827455 
L 274.730106 134.091398 
L 274.939357 130.411132 
L 275.148609 132.619285 
L 275.253234 134.574046 
L 275.35786 132.377952 
L 275.462485 133.596674 
L 275.671737 131.641895 
L 275.776362 132.124561 
L 275.880988 131.883228 
L 275.985614 133.355342 
L 276.404116 127.225572 
L 276.508742 128.202961 
L 276.613368 126.984257 
L 276.717993 127.961629 
L 276.822619 127.720296 
L 277.136496 130.652447 
L 277.345747 128.456353 
L 277.450373 129.19241 
L 277.659624 121.590544 
L 277.868875 128.202961 
L 277.973501 124.534754 
L 278.182752 126.742924 
L 278.287378 126.742924 
L 278.601255 121.107879 
L 278.705881 121.590544 
L 278.915132 124.293439 
L 279.124383 122.085268 
L 279.229009 123.062658 
L 279.43826 118.405002 
L 279.542886 119.141059 
L 279.647511 117.668945 
L 279.856763 121.107879 
L 279.961388 120.613155 
L 280.066014 119.141059 
L 280.17064 119.635783 
L 280.275265 118.658393 
L 280.589142 109.584414 
L 280.693768 110.079139 
L 281.007645 114.736794 
L 281.216896 111.792585 
L 281.321522 112.769957 
L 281.426147 111.297861 
L 281.635399 112.528642 
L 281.740024 112.0339 
L 281.949276 109.343082 
L 282.053901 109.101767 
L 282.158527 109.343082 
L 282.263153 111.792585 
L 282.367778 109.343082 
L 282.577029 101.499884 
L 282.681655 106.398872 
L 282.786281 104.190702 
L 283.100158 108.36571 
L 283.204783 107.134929 
L 283.414035 109.584414 
L 283.623286 105.421483 
L 283.727912 107.629653 
L 283.832537 106.398872 
L 283.937163 102.477273 
L 284.041789 103.949387 
L 284.146414 108.36571 
L 284.774168 99.786455 
L 284.878794 98.073009 
L 284.983419 101.258569 
L 285.088045 100.281179 
L 285.297296 105.180168 
L 285.401922 104.190702 
L 285.506548 103.708054 
L 285.611173 101.994608 
L 285.715799 104.444111 
L 285.820425 110.561804 
L 286.134302 103.21333 
L 286.343553 109.584414 
L 286.448178 109.343082 
L 286.552804 106.652264 
L 286.65743 111.792585 
L 286.866681 109.837806 
L 286.971307 106.652264 
L 287.075932 107.134929 
L 287.180558 108.848358 
L 287.285184 105.421483 
L 287.389809 106.652264 
L 287.494435 102.477273 
L 287.808312 104.190702 
L 288.017563 111.297861 
L 288.226814 112.287309 
L 288.33144 115.955499 
L 288.436066 112.287309 
L 288.540691 114.483403 
L 288.749943 120.118431 
L 288.959194 114.24207 
L 289.06382 114.483403 
L 289.482322 124.04003 
L 289.586948 123.557382 
L 289.691574 122.085268 
L 289.796199 114.483403 
L 289.900825 115.472851 
L 290.00545 117.668945 
L 290.110076 117.18628 
L 290.319327 123.062658 
L 290.423953 121.831877 
L 290.528579 122.085268 
L 290.633204 121.831877 
L 290.947081 118.405002 
L 291.156333 125.017419 
L 291.365584 119.382374 
L 291.574835 123.798697 
L 291.784086 120.854487 
L 291.993338 128.202961 
L 292.097963 128.697686 
L 292.202589 126.2482 
L 292.41184 127.478981 
L 292.516466 126.489533 
L 292.621092 126.742924 
L 292.725717 125.017419 
L 292.830343 126.006867 
L 292.934969 125.753476 
L 293.248846 120.854487 
L 293.353471 121.107879 
L 293.771974 128.456353 
L 293.876599 127.720296 
L 293.981225 128.697686 
L 294.085851 127.478981 
L 294.295102 121.107879 
L 294.504353 127.961629 
L 294.608979 126.2482 
L 294.713605 126.489533 
L 294.922856 129.928467 
L 295.132107 126.489533 
L 295.236733 127.478981 
L 295.341359 125.753476 
L 295.445984 126.2482 
L 295.55061 124.776087 
L 295.655235 125.512143 
L 295.759861 124.293439 
L 295.864487 127.961629 
L 296.178364 122.085268 
L 296.282989 122.326601 
L 296.387615 123.303973 
L 296.596866 119.635783 
L 296.910743 124.293439 
L 297.015369 123.303973 
L 297.22462 119.141059 
L 297.329246 118.899726 
L 297.538497 126.006867 
L 297.957 117.922337 
L 298.061625 117.427613 
L 298.270877 120.854487 
L 298.480128 119.141059 
L 298.584754 117.922337 
L 298.689379 120.118431 
L 299.003256 116.196832 
L 299.107882 114.483403 
L 299.317133 117.427613 
L 299.526384 111.551252 
L 299.735636 113.747346 
L 299.840261 112.528642 
L 299.944887 114.24207 
L 300.049513 113.264681 
L 300.154138 110.320471 
L 300.258764 114.978127 
L 300.36339 114.736794 
L 300.572641 110.815195 
L 300.781892 113.264681 
L 300.886518 112.287309 
L 300.991143 109.837806 
L 301.200395 111.056528 
L 301.409646 113.506013 
L 301.514272 114.736794 
L 301.828149 106.893596 
L 301.932774 107.629653 
L 302.0374 107.134929 
L 302.246651 113.747346 
L 302.351277 112.287309 
L 302.560528 106.652264 
L 302.665154 107.134929 
L 302.769779 109.101767 
L 302.979031 107.870986 
L 303.083656 112.287309 
L 303.188282 112.0339 
L 303.397533 108.607043 
L 303.606785 107.134929 
L 303.71141 107.376262 
L 303.816036 108.112301 
L 303.920662 107.134929 
L 304.025287 107.629653 
L 304.129913 106.652264 
L 304.234539 108.112301 
L 304.339164 105.421483 
L 304.548416 109.343082 
L 304.653041 106.157539 
L 304.862292 109.584414 
L 304.966918 108.607043 
L 305.071544 110.079139 
L 305.176169 107.376262 
L 305.385421 111.551252 
L 305.594672 112.0339 
L 306.1178 118.658393 
L 306.222426 120.854487 
L 306.536303 108.607043 
L 306.640928 107.870986 
L 306.85018 117.18628 
L 307.164057 112.769957 
L 307.373308 105.180168 
L 307.477934 109.343082 
L 307.582559 118.658393 
L 307.791811 108.848358 
L 308.314939 121.590544 
L 308.419564 121.831877 
L 308.628816 119.635783 
L 308.838067 124.04003 
L 308.942693 121.831877 
L 309.047318 122.567934 
L 309.151944 122.326601 
L 309.361195 119.141059 
L 309.465821 122.326601 
L 309.570447 121.831877 
L 309.675072 117.922337 
L 309.779698 118.899726 
L 309.884324 123.557382 
L 309.988949 122.821325 
L 310.093575 124.293439 
L 310.302826 123.557382 
L 310.407452 123.798697 
L 310.512077 122.567934 
L 310.721329 115.714184 
L 310.93058 121.590544 
L 311.139831 119.141059 
L 311.349083 122.326601 
L 311.558334 115.472851 
L 311.767585 119.382374 
L 311.872211 118.405002 
L 311.976836 115.955499 
L 312.081462 116.450241 
L 312.290713 121.590544 
L 312.395339 121.107879 
L 312.499965 120.613155 
L 312.813842 124.293439 
L 313.023093 120.613155 
L 313.127719 120.613155 
L 313.232344 122.821325 
L 313.33697 120.613155 
L 313.546221 127.478981 
L 313.755473 126.489533 
L 313.860098 124.776087 
L 313.964724 126.489533 
L 314.173975 122.567934 
L 314.278601 124.293439 
L 314.383226 122.567934 
L 314.487852 123.798697 
L 314.592478 123.557382 
L 314.697103 121.831877 
L 314.906355 122.821325 
L 315.01098 121.590544 
L 315.220232 125.512143 
L 315.429483 120.118431 
L 315.534109 120.613155 
L 315.638734 124.534754 
L 315.847985 121.590544 
L 316.161862 119.141059 
L 316.266488 116.196832 
L 316.371114 116.691556 
L 316.475739 113.506013 
L 316.684991 114.978127 
L 316.789616 112.769957 
L 317.103493 119.382374 
L 317.312745 114.978127 
L 317.41737 114.483403 
L 317.521996 113.264681 
L 317.626621 113.506013 
L 317.835873 108.112301 
L 318.14975 113.506013 
L 318.359001 117.427613 
L 318.463627 116.450241 
L 318.568252 113.011289 
L 318.672878 113.747346 
L 318.882129 116.450241 
L 318.986755 116.450241 
L 319.091381 113.264681 
L 319.196006 116.196832 
L 319.300632 114.978127 
L 319.405257 116.691556 
L 319.614509 112.0339 
L 319.928386 116.932888 
L 320.137637 116.932888 
L 320.242263 116.196832 
L 320.451514 113.011289 
L 320.55614 117.668945 
L 320.660765 117.18628 
L 320.870017 115.714184 
L 320.974642 115.21946 
L 321.079268 113.747346 
L 321.183893 116.932888 
L 321.49777 112.287309 
L 321.707022 118.163669 
L 321.916273 111.056528 
L 322.23015 115.472851 
L 322.439401 116.932888 
L 322.544027 114.483403 
L 322.648653 114.978127 
L 322.753278 111.297861 
L 322.857904 113.264681 
L 323.067155 111.056528 
L 323.171781 111.551252 
L 323.276406 111.297861 
L 323.485658 116.196832 
L 323.590283 114.736794 
L 323.90416 117.668945 
L 324.218037 112.0339 
L 324.427289 115.955499 
L 324.531914 114.24207 
L 324.63654 115.955499 
L 324.741166 115.714184 
L 324.845791 117.18628 
L 325.055042 113.011289 
L 325.159668 114.736794 
L 325.264294 111.297861 
L 325.473545 115.955499 
L 325.578171 113.747346 
L 325.682796 108.36571 
L 325.996673 113.506013 
L 326.205925 118.899726 
L 326.415176 120.854487 
L 326.519802 118.658393 
L 327.04293 121.107879 
L 327.147555 119.635783 
L 327.356807 122.567934 
L 327.461432 122.085268 
L 327.670684 117.427613 
L 327.775309 118.658393 
L 328.089186 116.196832 
L 328.193812 116.196832 
L 328.298438 116.691556 
L 328.507689 120.613155 
L 328.612314 119.382374 
L 328.71694 119.877098 
L 328.926191 123.303973 
L 329.030817 118.899726 
L 329.135443 121.349212 
L 329.344694 114.483403 
L 329.44932 114.736794 
L 329.553945 112.528642 
L 329.763197 119.141059 
L 329.867822 118.405002 
L 329.972448 117.922337 
L 330.077074 118.658393 
L 330.286325 121.831877 
L 330.600202 123.798697 
L 330.704827 123.062658 
L 330.809453 124.04003 
L 330.914079 121.349212 
L 331.018704 124.776087 
L 331.227956 117.668945 
L 331.437207 120.118431 
L 331.541833 119.877098 
L 331.646458 121.349212 
L 331.85571 118.163669 
L 332.064961 120.854487 
L 332.274212 118.899726 
L 332.378838 124.04003 
L 332.483463 119.635783 
L 332.692715 124.534754 
L 332.79734 124.04003 
L 333.006592 118.899726 
L 333.111217 120.37184 
L 333.320469 119.877098 
L 333.52972 123.557382 
L 333.634346 120.854487 
L 333.738971 121.831877 
L 333.948223 114.483403 
L 334.366725 121.831877 
L 334.575976 117.668945 
L 334.680602 117.18628 
L 334.785228 117.922337 
L 334.994479 116.196832 
L 335.099105 120.854487 
L 335.20373 119.877098 
L 335.412982 117.668945 
L 335.622233 116.450241 
L 335.831484 119.382374 
L 335.93611 119.382374 
L 336.040735 121.107879 
L 336.145361 120.613155 
L 336.354612 114.483403 
L 336.563864 121.590544 
L 336.877741 114.978127 
L 336.982366 118.658393 
L 337.296243 115.955499 
L 337.400869 115.472851 
L 337.61012 120.37184 
L 337.714746 118.899726 
L 337.923997 114.000738 
L 338.028623 115.472851 
L 338.237874 114.736794 
L 338.447125 118.405002 
L 338.656377 116.691556 
L 338.761002 114.978127 
L 338.970254 115.714184 
L 339.179505 111.551252 
L 339.284131 112.0339 
L 339.493382 114.736794 
L 339.598007 111.792585 
L 339.702633 113.264681 
L 339.807259 116.450241 
L 339.911884 115.955499 
L 340.01651 118.163669 
L 340.121136 116.196832 
L 340.330387 117.427613 
L 340.435013 114.483403 
L 340.539638 114.736794 
L 340.74889 113.264681 
L 340.853515 116.196832 
L 340.958141 115.21946 
L 341.062767 113.011289 
L 341.167392 113.506013 
L 341.272018 113.264681 
L 341.481269 113.747346 
L 341.585895 117.18628 
L 341.69052 116.932888 
L 341.899772 114.483403 
L 342.004397 115.955499 
L 342.213649 112.769957 
L 342.318274 114.000738 
L 342.4229 113.264681 
L 342.527526 113.506013 
L 342.632151 110.079139 
L 342.736777 110.815195 
L 342.841403 115.714184 
L 343.050654 114.483403 
L 343.259905 110.561804 
L 343.364531 109.837806 
L 343.573782 113.011289 
L 343.678408 112.287309 
L 343.887659 115.955499 
L 344.09691 107.870986 
L 344.306162 113.506013 
L 344.515413 119.635783 
L 344.724664 112.528642 
L 344.933916 118.899726 
L 345.038541 119.635783 
L 345.247792 113.011289 
L 345.352418 116.196832 
L 345.561669 114.000738 
L 345.666295 115.21946 
L 345.875546 118.658393 
L 345.980172 119.382374 
L 346.084798 115.21946 
L 346.189423 115.714184 
L 346.294049 114.483403 
L 346.398675 114.736794 
L 346.607926 120.118431 
L 346.921803 116.450241 
L 347.026428 116.450241 
L 347.23568 118.405002 
L 347.444931 123.303973 
L 347.549557 123.303973 
L 347.758808 118.163669 
L 347.863434 118.405002 
L 348.072685 113.011289 
L 348.177311 114.000738 
L 348.491188 121.349212 
L 348.700439 119.382374 
L 348.805064 119.877098 
L 348.90969 117.922337 
L 349.014316 119.141059 
L 349.223567 124.04003 
L 349.328193 123.303973 
L 349.432818 121.590544 
L 349.64207 116.450241 
L 349.746695 116.932888 
L 349.851321 119.382374 
L 349.955947 118.899726 
L 350.165198 120.854487 
L 350.374449 117.668945 
L 350.5837 119.877098 
L 350.688326 119.141059 
L 350.792952 116.450241 
L 350.897577 117.427613 
L 351.002203 120.613155 
L 351.106829 117.922337 
L 351.211454 119.141059 
L 351.31608 118.899726 
L 351.420706 117.18628 
L 351.525331 117.427613 
L 351.943834 120.613155 
L 352.04846 119.382374 
L 352.153085 120.854487 
L 352.257711 124.293439 
L 352.362337 123.303973 
L 352.466962 125.017419 
L 352.676213 118.899726 
L 352.780839 116.196832 
L 352.99009 123.303973 
L 353.199342 121.349212 
L 353.513219 114.483403 
L 353.617844 115.955499 
L 353.931721 124.04003 
L 354.036347 125.753476 
L 354.140973 124.776087 
L 354.350224 120.854487 
L 354.454849 124.534754 
L 354.977978 118.658393 
L 355.291855 121.831877 
L 355.39648 121.590544 
L 355.710357 119.635783 
L 356.024234 124.534754 
L 356.12886 124.04003 
L 356.233485 122.085268 
L 356.338111 122.567934 
L 356.442737 121.349212 
L 356.861239 123.798697 
L 357.070491 121.107879 
L 357.175116 121.831877 
L 357.279742 122.085268 
L 357.488993 118.163669 
L 357.593619 118.658393 
L 357.80287 117.427613 
L 357.907496 114.483403 
L 358.221373 122.085268 
L 358.325998 121.349212 
L 358.53525 116.691556 
L 358.744501 119.635783 
L 358.849127 120.118431 
L 358.953752 119.877098 
L 359.058378 122.567934 
L 359.163004 120.118431 
L 359.372255 122.326601 
L 359.476881 123.557382 
L 359.790757 116.196832 
L 360.000009 118.899726 
L 360.20926 115.21946 
L 360.418511 118.405002 
L 360.732388 112.528642 
L 360.837014 113.506013 
L 360.94164 118.405002 
L 361.046265 117.668945 
L 361.150891 117.922337 
L 361.360142 114.978127 
L 361.464768 116.196832 
L 361.674019 114.736794 
L 361.987896 119.382374 
L 362.197147 116.932888 
L 362.301773 115.472851 
L 362.511024 118.405002 
L 362.61565 118.163669 
L 362.929527 115.955499 
L 363.034153 119.382374 
L 363.243404 118.658393 
L 363.452655 113.747346 
L 363.557281 111.792585 
L 363.661906 113.747346 
L 363.975783 124.04003 
L 364.080409 122.821325 
L 364.28966 117.427613 
L 364.394286 116.691556 
L 364.498912 117.922337 
L 364.603537 117.427613 
L 364.708163 114.736794 
L 364.812789 115.714184 
L 365.02204 119.141059 
L 365.231291 117.668945 
L 365.440542 119.141059 
L 365.545168 118.405002 
L 365.649794 119.382374 
L 365.754419 118.658393 
L 365.963671 114.24207 
L 366.068296 115.955499 
L 366.277548 125.753476 
L 366.382173 124.04003 
L 366.591425 117.922337 
L 366.69605 118.658393 
L 366.800676 114.736794 
L 366.905302 115.21946 
L 367.009927 114.000738 
L 367.219178 116.932888 
L 367.42843 119.635783 
L 367.533055 119.141059 
L 367.637681 120.854487 
L 367.742307 118.658393 
L 367.846932 119.141059 
L 367.951558 121.349212 
L 368.265435 116.691556 
L 368.474686 117.922337 
L 368.579312 121.107879 
L 368.683938 119.141059 
L 368.893189 122.085268 
L 368.997814 119.382374 
L 369.207066 123.062658 
L 369.416317 121.349212 
L 369.625568 120.37184 
L 369.730194 120.37184 
L 369.83482 118.658393 
L 370.044071 120.854487 
L 370.148697 124.04003 
L 370.253322 120.613155 
L 370.357948 121.590544 
L 370.567199 121.107879 
L 370.671825 121.349212 
L 370.985702 118.899726 
L 371.090327 119.382374 
L 371.194953 121.349212 
L 371.299579 121.107879 
L 371.613456 112.287309 
L 371.822707 116.691556 
L 371.927333 118.899726 
L 372.136584 115.472851 
L 372.345835 116.196832 
L 372.555087 113.506013 
L 372.973589 125.017419 
L 373.18284 119.141059 
L 373.287466 122.085268 
L 373.392092 120.613155 
L 373.496717 122.085268 
L 373.601343 119.141059 
L 373.705969 120.854487 
L 373.91522 115.714184 
L 374.438348 121.349212 
L 374.542974 123.062658 
L 374.647599 119.635783 
L 374.856851 122.326601 
L 374.961476 117.922337 
L 375.066102 120.118431 
L 375.170728 119.877098 
L 375.379979 116.450241 
L 375.58923 120.37184 
L 375.693856 120.854487 
L 375.798482 118.899726 
L 375.903107 114.736794 
L 376.112359 119.877098 
L 376.216984 119.635783 
L 376.32161 117.922337 
L 376.530861 120.613155 
L 376.635487 120.37184 
L 376.844738 116.691556 
L 376.949364 115.21946 
L 377.158615 120.118431 
L 377.263241 120.118431 
L 377.472492 120.854487 
L 377.577118 120.118431 
L 377.786369 114.978127 
L 377.890995 116.196832 
L 378.204871 113.011289 
L 378.414123 112.287309 
L 378.728 116.932888 
L 378.832625 117.427613 
L 378.937251 114.736794 
L 379.146502 115.472851 
L 379.251128 115.472851 
L 379.355754 115.955499 
L 379.460379 114.483403 
L 379.669631 116.932888 
L 379.983507 113.506013 
L 380.40201 118.658393 
L 380.506636 118.405002 
L 380.715887 112.287309 
L 380.925138 118.163669 
L 381.029764 116.196832 
L 381.239015 114.24207 
L 381.343641 113.747346 
L 381.552892 117.427613 
L 381.657518 118.405002 
L 381.762144 117.668945 
L 381.971395 114.000738 
L 382.180646 114.978127 
L 382.389897 110.815195 
L 382.494523 111.056528 
L 382.599149 110.815195 
L 382.913026 113.747346 
L 383.122277 117.668945 
L 383.226903 116.196832 
L 383.331528 112.528642 
L 383.436154 115.714184 
L 383.645405 113.506013 
L 383.750031 115.472851 
L 383.854656 114.000738 
L 384.168533 117.922337 
L 384.377785 118.405002 
L 384.48241 117.922337 
L 384.587036 118.899726 
L 384.691662 113.264681 
L 385.005539 115.21946 
L 385.21479 120.613155 
L 385.528667 115.21946 
L 385.842544 121.831877 
L 385.947169 118.899726 
L 386.051795 119.877098 
L 386.156421 118.405002 
L 386.365672 119.877098 
L 386.679549 119.382374 
L 386.784175 119.877098 
L 386.993426 124.04003 
L 387.202677 118.163669 
L 387.307303 118.163669 
L 387.411928 118.658393 
L 387.62118 116.196832 
L 387.830431 123.062658 
L 388.039682 118.899726 
L 388.144308 119.382374 
L 388.353559 122.326601 
L 388.562811 116.196832 
L 388.667436 119.382374 
L 388.876688 114.483403 
L 388.876688 114.483403 
" style="fill:none;stroke:#1f77b4;stroke-linecap:round;stroke-width:1.5;"/>
   </g>
   <g id="line2d_17">
    <path clip-path="url(#p6c1d4058f0)" d="M 118.142185 -1 
L 118.185464 289 
L 118.185464 289 
" style="fill:none;stroke:#ff7f0e;stroke-linecap:round;stroke-width:1.5;"/>
   </g>
   <g id="patch_3">
    <path d="M 54 252 
L 54 34.56 
" style="fill:none;stroke:#cccccc;stroke-linecap:square;stroke-linejoin:miter;stroke-width:0.8;"/>
   </g>
   <g id="patch_4">
    <path d="M 388.8 252 
L 388.8 34.56 
" style="fill:none;stroke:#cccccc;stroke-linecap:square;stroke-linejoin:miter;stroke-width:0.8;"/>
   </g>
   <g id="patch_5">
    <path d="M 54 252 
L 388.8 252 
" style="fill:none;stroke:#cccccc;stroke-linecap:square;stroke-linejoin:miter;stroke-width:0.8;"/>
   </g>
   <g id="patch_6">
    <path d="M 54 34.56 
L 388.8 34.56 
" style="fill:none;stroke:#cccccc;stroke-linecap:square;stroke-linejoin:miter;stroke-width:0.8;"/>
   </g>
  </g>
 </g>
 <defs>
  <clipPath id="p6c1d4058f0">
   <rect height="217.44" width="334.8" x="54" y="34.56"/>
  </clipPath>
 </defs>
</svg>
