<?xml version="1.0" encoding="utf-8" standalone="no"?>
<!DOCTYPE svg PUBLIC "-//W3C//DTD SVG 1.1//EN"
  "http://www.w3.org/Graphics/SVG/1.1/DTD/svg11.dtd">
<!-- Created with matplotlib (https://matplotlib.org/) -->
<svg height="288pt" version="1.1" viewBox="0 0 432 288" width="432pt" xmlns="http://www.w3.org/2000/svg" xmlns:xlink="http://www.w3.org/1999/xlink">
 <metadata>
  <rdf:RDF xmlns:cc="http://creativecommons.org/ns#" xmlns:dc="http://purl.org/dc/elements/1.1/" xmlns:rdf="http://www.w3.org/1999/02/22-rdf-syntax-ns#">
   <cc:Work>
    <dc:type rdf:resource="http://purl.org/dc/dcmitype/StillImage"/>
    <dc:date>2022-05-25T22:50:37.321040</dc:date>
    <dc:format>image/svg+xml</dc:format>
    <dc:creator>
     <cc:Agent>
      <dc:title>Matplotlib v3.3.3, https://matplotlib.org/</dc:title>
     </cc:Agent>
    </dc:creator>
   </cc:Work>
  </rdf:RDF>
 </metadata>
 <defs>
  <style type="text/css">*{stroke-linecap:butt;stroke-linejoin:round;}</style>
 </defs>
 <g id="figure_1">
  <g id="patch_1">
   <path d="M 0 288 
L 432 288 
L 432 0 
L 0 0 
z
" style="fill:#ffffff;"/>
  </g>
  <g id="axes_1">
   <g id="patch_2">
    <path d="M 54 252 
L 388.8 252 
L 388.8 34.56 
L 54 34.56 
z
" style="fill:#ffffff;"/>
   </g>
   <g id="matplotlib.axis_1">
    <g id="xtick_1">
     <g id="line2d_1">
      <path clip-path="url(#p16eed4a323)" d="M 54 252 
L 54 34.56 
" style="fill:none;stroke:#cccccc;stroke-linecap:round;stroke-width:0.8;"/>
     </g>
     <g id="text_1">
      <!-- 0.00266 -->
      <g style="fill:#262626;" transform="translate(35.928125 266.157812)scale(0.1 -0.1)">
       <defs>
        <path d="M 4.15625 35.296875 
Q 4.15625 48 6.765625 55.734375 
Q 9.375 63.484375 14.515625 67.671875 
Q 19.671875 71.875 27.484375 71.875 
Q 33.25 71.875 37.59375 69.546875 
Q 41.9375 67.234375 44.765625 62.859375 
Q 47.609375 58.5 49.21875 52.21875 
Q 50.828125 45.953125 50.828125 35.296875 
Q 50.828125 22.703125 48.234375 14.96875 
Q 45.65625 7.234375 40.5 3 
Q 35.359375 -1.21875 27.484375 -1.21875 
Q 17.140625 -1.21875 11.234375 6.203125 
Q 4.15625 15.140625 4.15625 35.296875 
z
M 13.1875 35.296875 
Q 13.1875 17.671875 17.3125 11.828125 
Q 21.4375 6 27.484375 6 
Q 33.546875 6 37.671875 11.859375 
Q 41.796875 17.71875 41.796875 35.296875 
Q 41.796875 52.984375 37.671875 58.78125 
Q 33.546875 64.59375 27.390625 64.59375 
Q 21.34375 64.59375 17.71875 59.46875 
Q 13.1875 52.9375 13.1875 35.296875 
z
" id="ArialMT-48"/>
        <path d="M 9.078125 0 
L 9.078125 10.015625 
L 19.09375 10.015625 
L 19.09375 0 
z
" id="ArialMT-46"/>
        <path d="M 50.34375 8.453125 
L 50.34375 0 
L 3.03125 0 
Q 2.9375 3.171875 4.046875 6.109375 
Q 5.859375 10.9375 9.828125 15.625 
Q 13.8125 20.3125 21.34375 26.46875 
Q 33.015625 36.03125 37.109375 41.625 
Q 41.21875 47.21875 41.21875 52.203125 
Q 41.21875 57.421875 37.46875 61 
Q 33.734375 64.59375 27.734375 64.59375 
Q 21.390625 64.59375 17.578125 60.78125 
Q 13.765625 56.984375 13.71875 50.25 
L 4.6875 51.171875 
Q 5.609375 61.28125 11.65625 66.578125 
Q 17.71875 71.875 27.9375 71.875 
Q 38.234375 71.875 44.234375 66.15625 
Q 50.25 60.453125 50.25 52 
Q 50.25 47.703125 48.484375 43.546875 
Q 46.734375 39.40625 42.65625 34.8125 
Q 38.578125 30.21875 29.109375 22.21875 
Q 21.1875 15.578125 18.9375 13.203125 
Q 16.703125 10.84375 15.234375 8.453125 
z
" id="ArialMT-50"/>
        <path d="M 49.75 54.046875 
L 41.015625 53.375 
Q 39.84375 58.546875 37.703125 60.890625 
Q 34.125 64.65625 28.90625 64.65625 
Q 24.703125 64.65625 21.53125 62.3125 
Q 17.390625 59.28125 14.984375 53.46875 
Q 12.59375 47.65625 12.5 36.921875 
Q 15.671875 41.75 20.265625 44.09375 
Q 24.859375 46.4375 29.890625 46.4375 
Q 38.671875 46.4375 44.84375 39.96875 
Q 51.03125 33.5 51.03125 23.25 
Q 51.03125 16.5 48.125 10.71875 
Q 45.21875 4.9375 40.140625 1.859375 
Q 35.0625 -1.21875 28.609375 -1.21875 
Q 17.625 -1.21875 10.6875 6.859375 
Q 3.765625 14.9375 3.765625 33.5 
Q 3.765625 54.25 11.421875 63.671875 
Q 18.109375 71.875 29.4375 71.875 
Q 37.890625 71.875 43.28125 67.140625 
Q 48.6875 62.40625 49.75 54.046875 
z
M 13.875 23.1875 
Q 13.875 18.65625 15.796875 14.5 
Q 17.71875 10.359375 21.1875 8.171875 
Q 24.65625 6 28.46875 6 
Q 34.03125 6 38.03125 10.484375 
Q 42.046875 14.984375 42.046875 22.703125 
Q 42.046875 30.125 38.078125 34.390625 
Q 34.125 38.671875 28.125 38.671875 
Q 22.171875 38.671875 18.015625 34.390625 
Q 13.875 30.125 13.875 23.1875 
z
" id="ArialMT-54"/>
       </defs>
       <use xlink:href="#ArialMT-48"/>
       <use x="55.615234" xlink:href="#ArialMT-46"/>
       <use x="83.398438" xlink:href="#ArialMT-48"/>
       <use x="139.013672" xlink:href="#ArialMT-48"/>
       <use x="194.628906" xlink:href="#ArialMT-50"/>
       <use x="250.244141" xlink:href="#ArialMT-54"/>
       <use x="305.859375" xlink:href="#ArialMT-54"/>
      </g>
     </g>
    </g>
    <g id="xtick_2">
     <g id="line2d_2">
      <path clip-path="url(#p16eed4a323)" d="M 120.96 252 
L 120.96 34.56 
" style="fill:none;stroke:#cccccc;stroke-linecap:round;stroke-width:0.8;"/>
     </g>
     <g id="text_2">
      <!-- 0.00267 -->
      <g style="fill:#262626;" transform="translate(102.888125 266.157812)scale(0.1 -0.1)">
       <defs>
        <path d="M 4.734375 62.203125 
L 4.734375 70.65625 
L 51.078125 70.65625 
L 51.078125 63.8125 
Q 44.234375 56.546875 37.515625 44.484375 
Q 30.8125 32.421875 27.15625 19.671875 
Q 24.515625 10.6875 23.78125 0 
L 14.75 0 
Q 14.890625 8.453125 18.0625 20.40625 
Q 21.234375 32.375 27.171875 43.484375 
Q 33.109375 54.59375 39.796875 62.203125 
z
" id="ArialMT-55"/>
       </defs>
       <use xlink:href="#ArialMT-48"/>
       <use x="55.615234" xlink:href="#ArialMT-46"/>
       <use x="83.398438" xlink:href="#ArialMT-48"/>
       <use x="139.013672" xlink:href="#ArialMT-48"/>
       <use x="194.628906" xlink:href="#ArialMT-50"/>
       <use x="250.244141" xlink:href="#ArialMT-54"/>
       <use x="305.859375" xlink:href="#ArialMT-55"/>
      </g>
     </g>
    </g>
    <g id="xtick_3">
     <g id="line2d_3">
      <path clip-path="url(#p16eed4a323)" d="M 187.92 252 
L 187.92 34.56 
" style="fill:none;stroke:#cccccc;stroke-linecap:round;stroke-width:0.8;"/>
     </g>
     <g id="text_3">
      <!-- 0.00268 -->
      <g style="fill:#262626;" transform="translate(169.848125 266.157812)scale(0.1 -0.1)">
       <defs>
        <path d="M 17.671875 38.8125 
Q 12.203125 40.828125 9.5625 44.53125 
Q 6.9375 48.25 6.9375 53.421875 
Q 6.9375 61.234375 12.546875 66.546875 
Q 18.171875 71.875 27.484375 71.875 
Q 36.859375 71.875 42.578125 66.421875 
Q 48.296875 60.984375 48.296875 53.171875 
Q 48.296875 48.1875 45.671875 44.5 
Q 43.0625 40.828125 37.75 38.8125 
Q 44.34375 36.671875 47.78125 31.875 
Q 51.21875 27.09375 51.21875 20.453125 
Q 51.21875 11.28125 44.71875 5.03125 
Q 38.234375 -1.21875 27.640625 -1.21875 
Q 17.046875 -1.21875 10.546875 5.046875 
Q 4.046875 11.328125 4.046875 20.703125 
Q 4.046875 27.6875 7.59375 32.390625 
Q 11.140625 37.109375 17.671875 38.8125 
z
M 15.921875 53.71875 
Q 15.921875 48.640625 19.1875 45.40625 
Q 22.46875 42.1875 27.6875 42.1875 
Q 32.765625 42.1875 36.015625 45.375 
Q 39.265625 48.578125 39.265625 53.21875 
Q 39.265625 58.0625 35.90625 61.359375 
Q 32.5625 64.65625 27.59375 64.65625 
Q 22.5625 64.65625 19.234375 61.421875 
Q 15.921875 58.203125 15.921875 53.71875 
z
M 13.09375 20.65625 
Q 13.09375 16.890625 14.875 13.375 
Q 16.65625 9.859375 20.171875 7.921875 
Q 23.6875 6 27.734375 6 
Q 34.03125 6 38.125 10.046875 
Q 42.234375 14.109375 42.234375 20.359375 
Q 42.234375 26.703125 38.015625 30.859375 
Q 33.796875 35.015625 27.4375 35.015625 
Q 21.234375 35.015625 17.15625 30.90625 
Q 13.09375 26.8125 13.09375 20.65625 
z
" id="ArialMT-56"/>
       </defs>
       <use xlink:href="#ArialMT-48"/>
       <use x="55.615234" xlink:href="#ArialMT-46"/>
       <use x="83.398438" xlink:href="#ArialMT-48"/>
       <use x="139.013672" xlink:href="#ArialMT-48"/>
       <use x="194.628906" xlink:href="#ArialMT-50"/>
       <use x="250.244141" xlink:href="#ArialMT-54"/>
       <use x="305.859375" xlink:href="#ArialMT-56"/>
      </g>
     </g>
    </g>
    <g id="xtick_4">
     <g id="line2d_4">
      <path clip-path="url(#p16eed4a323)" d="M 254.88 252 
L 254.88 34.56 
" style="fill:none;stroke:#cccccc;stroke-linecap:round;stroke-width:0.8;"/>
     </g>
     <g id="text_4">
      <!-- 0.00269 -->
      <g style="fill:#262626;" transform="translate(236.808125 266.157812)scale(0.1 -0.1)">
       <defs>
        <path d="M 5.46875 16.546875 
L 13.921875 17.328125 
Q 14.984375 11.375 18.015625 8.6875 
Q 21.046875 6 25.78125 6 
Q 29.828125 6 32.875 7.859375 
Q 35.9375 9.71875 37.890625 12.8125 
Q 39.84375 15.921875 41.15625 21.1875 
Q 42.484375 26.46875 42.484375 31.9375 
Q 42.484375 32.515625 42.4375 33.6875 
Q 39.796875 29.5 35.234375 26.875 
Q 30.671875 24.265625 25.34375 24.265625 
Q 16.453125 24.265625 10.296875 30.703125 
Q 4.15625 37.15625 4.15625 47.703125 
Q 4.15625 58.59375 10.578125 65.234375 
Q 17 71.875 26.65625 71.875 
Q 33.640625 71.875 39.421875 68.109375 
Q 45.21875 64.359375 48.21875 57.390625 
Q 51.21875 50.4375 51.21875 37.25 
Q 51.21875 23.53125 48.234375 15.40625 
Q 45.265625 7.28125 39.375 3.03125 
Q 33.5 -1.21875 25.59375 -1.21875 
Q 17.1875 -1.21875 11.859375 3.4375 
Q 6.546875 8.109375 5.46875 16.546875 
z
M 41.453125 48.140625 
Q 41.453125 55.71875 37.421875 60.15625 
Q 33.40625 64.59375 27.734375 64.59375 
Q 21.875 64.59375 17.53125 59.8125 
Q 13.1875 55.03125 13.1875 47.40625 
Q 13.1875 40.578125 17.3125 36.296875 
Q 21.4375 32.03125 27.484375 32.03125 
Q 33.59375 32.03125 37.515625 36.296875 
Q 41.453125 40.578125 41.453125 48.140625 
z
" id="ArialMT-57"/>
       </defs>
       <use xlink:href="#ArialMT-48"/>
       <use x="55.615234" xlink:href="#ArialMT-46"/>
       <use x="83.398438" xlink:href="#ArialMT-48"/>
       <use x="139.013672" xlink:href="#ArialMT-48"/>
       <use x="194.628906" xlink:href="#ArialMT-50"/>
       <use x="250.244141" xlink:href="#ArialMT-54"/>
       <use x="305.859375" xlink:href="#ArialMT-57"/>
      </g>
     </g>
    </g>
    <g id="xtick_5">
     <g id="line2d_5">
      <path clip-path="url(#p16eed4a323)" d="M 321.84 252 
L 321.84 34.56 
" style="fill:none;stroke:#cccccc;stroke-linecap:round;stroke-width:0.8;"/>
     </g>
     <g id="text_5">
      <!-- 0.00270 -->
      <g style="fill:#262626;" transform="translate(303.768125 266.157812)scale(0.1 -0.1)">
       <use xlink:href="#ArialMT-48"/>
       <use x="55.615234" xlink:href="#ArialMT-46"/>
       <use x="83.398438" xlink:href="#ArialMT-48"/>
       <use x="139.013672" xlink:href="#ArialMT-48"/>
       <use x="194.628906" xlink:href="#ArialMT-50"/>
       <use x="250.244141" xlink:href="#ArialMT-55"/>
       <use x="305.859375" xlink:href="#ArialMT-48"/>
      </g>
     </g>
    </g>
    <g id="xtick_6">
     <g id="line2d_6">
      <path clip-path="url(#p16eed4a323)" d="M 388.8 252 
L 388.8 34.56 
" style="fill:none;stroke:#cccccc;stroke-linecap:round;stroke-width:0.8;"/>
     </g>
     <g id="text_6">
      <!-- 0.00271 -->
      <g style="fill:#262626;" transform="translate(370.728125 266.157812)scale(0.1 -0.1)">
       <defs>
        <path d="M 37.25 0 
L 28.46875 0 
L 28.46875 56 
Q 25.296875 52.984375 20.140625 49.953125 
Q 14.984375 46.921875 10.890625 45.40625 
L 10.890625 53.90625 
Q 18.265625 57.375 23.78125 62.296875 
Q 29.296875 67.234375 31.59375 71.875 
L 37.25 71.875 
z
" id="ArialMT-49"/>
       </defs>
       <use xlink:href="#ArialMT-48"/>
       <use x="55.615234" xlink:href="#ArialMT-46"/>
       <use x="83.398438" xlink:href="#ArialMT-48"/>
       <use x="139.013672" xlink:href="#ArialMT-48"/>
       <use x="194.628906" xlink:href="#ArialMT-50"/>
       <use x="250.244141" xlink:href="#ArialMT-55"/>
       <use x="305.859375" xlink:href="#ArialMT-49"/>
      </g>
     </g>
    </g>
   </g>
   <g id="matplotlib.axis_2">
    <g id="ytick_1">
     <g id="line2d_7">
      <path clip-path="url(#p16eed4a323)" d="M 54 252 
L 388.8 252 
" style="fill:none;stroke:#cccccc;stroke-linecap:round;stroke-width:0.8;"/>
     </g>
     <g id="text_7">
      <!-- 0.000 -->
      <g style="fill:#262626;" transform="translate(21.978125 255.578906)scale(0.1 -0.1)">
       <use xlink:href="#ArialMT-48"/>
       <use x="55.615234" xlink:href="#ArialMT-46"/>
       <use x="83.398438" xlink:href="#ArialMT-48"/>
       <use x="139.013672" xlink:href="#ArialMT-48"/>
       <use x="194.628906" xlink:href="#ArialMT-48"/>
      </g>
     </g>
    </g>
    <g id="ytick_2">
     <g id="line2d_8">
      <path clip-path="url(#p16eed4a323)" d="M 54 220.937143 
L 388.8 220.937143 
" style="fill:none;stroke:#cccccc;stroke-linecap:round;stroke-width:0.8;"/>
     </g>
     <g id="text_8">
      <!-- 0.005 -->
      <g style="fill:#262626;" transform="translate(21.978125 224.516049)scale(0.1 -0.1)">
       <defs>
        <path d="M 4.15625 18.75 
L 13.375 19.53125 
Q 14.40625 12.796875 18.140625 9.390625 
Q 21.875 6 27.15625 6 
Q 33.5 6 37.890625 10.78125 
Q 42.28125 15.578125 42.28125 23.484375 
Q 42.28125 31 38.0625 35.34375 
Q 33.84375 39.703125 27 39.703125 
Q 22.75 39.703125 19.328125 37.765625 
Q 15.921875 35.84375 13.96875 32.765625 
L 5.71875 33.84375 
L 12.640625 70.609375 
L 48.25 70.609375 
L 48.25 62.203125 
L 19.671875 62.203125 
L 15.828125 42.96875 
Q 22.265625 47.46875 29.34375 47.46875 
Q 38.71875 47.46875 45.15625 40.96875 
Q 51.609375 34.46875 51.609375 24.265625 
Q 51.609375 14.546875 45.953125 7.46875 
Q 39.0625 -1.21875 27.15625 -1.21875 
Q 17.390625 -1.21875 11.203125 4.25 
Q 5.03125 9.71875 4.15625 18.75 
z
" id="ArialMT-53"/>
       </defs>
       <use xlink:href="#ArialMT-48"/>
       <use x="55.615234" xlink:href="#ArialMT-46"/>
       <use x="83.398438" xlink:href="#ArialMT-48"/>
       <use x="139.013672" xlink:href="#ArialMT-48"/>
       <use x="194.628906" xlink:href="#ArialMT-53"/>
      </g>
     </g>
    </g>
    <g id="ytick_3">
     <g id="line2d_9">
      <path clip-path="url(#p16eed4a323)" d="M 54 189.874286 
L 388.8 189.874286 
" style="fill:none;stroke:#cccccc;stroke-linecap:round;stroke-width:0.8;"/>
     </g>
     <g id="text_9">
      <!-- 0.010 -->
      <g style="fill:#262626;" transform="translate(21.978125 193.453192)scale(0.1 -0.1)">
       <use xlink:href="#ArialMT-48"/>
       <use x="55.615234" xlink:href="#ArialMT-46"/>
       <use x="83.398438" xlink:href="#ArialMT-48"/>
       <use x="139.013672" xlink:href="#ArialMT-49"/>
       <use x="194.628906" xlink:href="#ArialMT-48"/>
      </g>
     </g>
    </g>
    <g id="ytick_4">
     <g id="line2d_10">
      <path clip-path="url(#p16eed4a323)" d="M 54 158.811429 
L 388.8 158.811429 
" style="fill:none;stroke:#cccccc;stroke-linecap:round;stroke-width:0.8;"/>
     </g>
     <g id="text_10">
      <!-- 0.015 -->
      <g style="fill:#262626;" transform="translate(21.978125 162.390335)scale(0.1 -0.1)">
       <use xlink:href="#ArialMT-48"/>
       <use x="55.615234" xlink:href="#ArialMT-46"/>
       <use x="83.398438" xlink:href="#ArialMT-48"/>
       <use x="139.013672" xlink:href="#ArialMT-49"/>
       <use x="194.628906" xlink:href="#ArialMT-53"/>
      </g>
     </g>
    </g>
    <g id="ytick_5">
     <g id="line2d_11">
      <path clip-path="url(#p16eed4a323)" d="M 54 127.748571 
L 388.8 127.748571 
" style="fill:none;stroke:#cccccc;stroke-linecap:round;stroke-width:0.8;"/>
     </g>
     <g id="text_11">
      <!-- 0.020 -->
      <g style="fill:#262626;" transform="translate(21.978125 131.327478)scale(0.1 -0.1)">
       <use xlink:href="#ArialMT-48"/>
       <use x="55.615234" xlink:href="#ArialMT-46"/>
       <use x="83.398438" xlink:href="#ArialMT-48"/>
       <use x="139.013672" xlink:href="#ArialMT-50"/>
       <use x="194.628906" xlink:href="#ArialMT-48"/>
      </g>
     </g>
    </g>
    <g id="ytick_6">
     <g id="line2d_12">
      <path clip-path="url(#p16eed4a323)" d="M 54 96.685714 
L 388.8 96.685714 
" style="fill:none;stroke:#cccccc;stroke-linecap:round;stroke-width:0.8;"/>
     </g>
     <g id="text_12">
      <!-- 0.025 -->
      <g style="fill:#262626;" transform="translate(21.978125 100.264621)scale(0.1 -0.1)">
       <use xlink:href="#ArialMT-48"/>
       <use x="55.615234" xlink:href="#ArialMT-46"/>
       <use x="83.398438" xlink:href="#ArialMT-48"/>
       <use x="139.013672" xlink:href="#ArialMT-50"/>
       <use x="194.628906" xlink:href="#ArialMT-53"/>
      </g>
     </g>
    </g>
    <g id="ytick_7">
     <g id="line2d_13">
      <path clip-path="url(#p16eed4a323)" d="M 54 65.622857 
L 388.8 65.622857 
" style="fill:none;stroke:#cccccc;stroke-linecap:round;stroke-width:0.8;"/>
     </g>
     <g id="text_13">
      <!-- 0.030 -->
      <g style="fill:#262626;" transform="translate(21.978125 69.201763)scale(0.1 -0.1)">
       <defs>
        <path d="M 4.203125 18.890625 
L 12.984375 20.0625 
Q 14.5 12.59375 18.140625 9.296875 
Q 21.78125 6 27 6 
Q 33.203125 6 37.46875 10.296875 
Q 41.75 14.59375 41.75 20.953125 
Q 41.75 27 37.796875 30.921875 
Q 33.84375 34.859375 27.734375 34.859375 
Q 25.25 34.859375 21.53125 33.890625 
L 22.515625 41.609375 
Q 23.390625 41.5 23.921875 41.5 
Q 29.546875 41.5 34.03125 44.421875 
Q 38.53125 47.359375 38.53125 53.46875 
Q 38.53125 58.296875 35.25 61.46875 
Q 31.984375 64.65625 26.8125 64.65625 
Q 21.6875 64.65625 18.265625 61.421875 
Q 14.84375 58.203125 13.875 51.765625 
L 5.078125 53.328125 
Q 6.6875 62.15625 12.390625 67.015625 
Q 18.109375 71.875 26.609375 71.875 
Q 32.46875 71.875 37.390625 69.359375 
Q 42.328125 66.84375 44.9375 62.5 
Q 47.5625 58.15625 47.5625 53.265625 
Q 47.5625 48.640625 45.0625 44.828125 
Q 42.578125 41.015625 37.703125 38.765625 
Q 44.046875 37.3125 47.5625 32.6875 
Q 51.078125 28.078125 51.078125 21.140625 
Q 51.078125 11.765625 44.234375 5.25 
Q 37.40625 -1.265625 26.953125 -1.265625 
Q 17.53125 -1.265625 11.296875 4.34375 
Q 5.078125 9.96875 4.203125 18.890625 
z
" id="ArialMT-51"/>
       </defs>
       <use xlink:href="#ArialMT-48"/>
       <use x="55.615234" xlink:href="#ArialMT-46"/>
       <use x="83.398438" xlink:href="#ArialMT-48"/>
       <use x="139.013672" xlink:href="#ArialMT-51"/>
       <use x="194.628906" xlink:href="#ArialMT-48"/>
      </g>
     </g>
    </g>
    <g id="ytick_8">
     <g id="line2d_14">
      <path clip-path="url(#p16eed4a323)" d="M 54 34.56 
L 388.8 34.56 
" style="fill:none;stroke:#cccccc;stroke-linecap:round;stroke-width:0.8;"/>
     </g>
     <g id="text_14">
      <!-- 0.035 -->
      <g style="fill:#262626;" transform="translate(21.978125 38.138906)scale(0.1 -0.1)">
       <use xlink:href="#ArialMT-48"/>
       <use x="55.615234" xlink:href="#ArialMT-46"/>
       <use x="83.398438" xlink:href="#ArialMT-48"/>
       <use x="139.013672" xlink:href="#ArialMT-51"/>
       <use x="194.628906" xlink:href="#ArialMT-53"/>
      </g>
     </g>
    </g>
   </g>
   <g id="line2d_15">
    <path clip-path="url(#p16eed4a323)" d="M 53.959771 203.752262 
L 54.043471 203.752262 
L 54.127171 203.922917 
L 54.294572 205.42088 
L 54.378272 205.250228 
L 54.629373 202.917951 
L 54.796773 204.757225 
L 54.964173 202.254296 
L 55.382674 204.9184 
L 55.466375 204.757225 
L 55.550075 202.917951 
L 55.801175 204.586573 
L 55.884876 203.59109 
L 56.052276 205.089053 
L 56.135976 203.922917 
L 56.219676 204.415917 
L 56.554477 202.424951 
L 56.638177 203.922917 
L 56.721878 203.752262 
L 56.805578 203.752262 
L 57.224079 201.922469 
L 57.391479 202.756779 
L 57.55888 200.75633 
L 57.64258 201.258813 
L 57.80998 202.586124 
L 57.89368 202.586124 
L 57.977381 201.761296 
L 58.144781 203.259262 
L 58.228481 201.258813 
L 58.312181 203.59109 
L 58.395882 203.259262 
L 58.479582 202.424951 
L 58.563282 203.59109 
L 58.646982 203.259262 
L 58.814383 202.756779 
L 58.898083 203.59109 
L 59.149184 201.761296 
L 59.232884 205.250228 
L 59.316584 204.415917 
L 59.400284 203.420434 
L 59.483984 203.59109 
L 59.651385 205.089053 
L 59.735085 204.415917 
L 59.818785 204.586573 
L 60.069886 203.259262 
L 60.153586 204.254745 
L 60.237286 202.586124 
L 60.320986 202.917951 
L 60.488387 204.08409 
L 60.572087 203.088607 
L 60.655787 204.757225 
L 60.739487 204.254745 
L 60.823188 203.922917 
L 60.906888 204.415917 
L 60.990588 204.08409 
L 61.074288 202.756779 
L 61.157988 203.088607 
L 61.325389 201.088158 
L 61.576489 204.08409 
L 61.66019 203.420434 
L 61.74389 201.761296 
L 61.91129 204.415917 
L 62.078691 205.250228 
L 62.329791 202.586124 
L 62.497192 202.917951 
L 62.580892 202.917951 
L 62.664592 201.922469 
L 62.748292 203.259262 
L 62.831993 203.088607 
L 62.915693 203.088607 
L 62.999393 202.424951 
L 63.083093 204.586573 
L 63.166793 204.415917 
L 63.501594 201.922469 
L 63.668995 203.59109 
L 63.752695 203.420434 
L 63.836395 204.586573 
L 63.920095 202.756779 
L 64.003795 204.415917 
L 64.087496 204.254745 
L 64.254896 203.922917 
L 64.338596 202.424951 
L 64.422296 202.917951 
L 64.505997 203.922917 
L 64.589697 203.752262 
L 64.673397 202.586124 
L 64.757097 203.420434 
L 64.840797 203.259262 
L 64.924498 202.917951 
L 65.008198 202.093124 
L 65.175598 203.420434 
L 65.342999 202.424951 
L 65.510399 203.752262 
L 65.594099 205.089053 
L 65.7615 202.424951 
L 65.8452 202.586124 
L 65.9289 201.590641 
L 66.0126 202.917951 
L 66.0963 201.922469 
L 66.347401 204.586573 
L 66.431101 205.089053 
L 66.765902 201.258813 
L 66.933303 203.752262 
L 67.017003 203.752262 
L 67.100703 204.254745 
L 67.268103 201.590641 
L 67.351804 200.926986 
L 67.435504 201.419986 
L 67.519204 204.08409 
L 67.602904 203.752262 
L 67.770305 201.590641 
L 67.854005 202.093124 
L 67.937705 201.761296 
L 68.021405 200.926986 
L 68.188806 204.254745 
L 68.356206 203.088607 
L 68.439906 203.088607 
L 68.523606 202.424951 
L 68.607307 203.259262 
L 68.774707 201.088158 
L 68.858407 201.761296 
L 68.942107 201.258813 
L 69.109508 202.424951 
L 69.276908 202.093124 
L 69.360608 202.424951 
L 69.444309 204.586573 
L 69.528009 204.08409 
L 69.611709 203.922917 
L 69.695409 202.756779 
L 70.03021 205.089053 
L 70.11391 204.757225 
L 70.281311 202.586124 
L 70.365011 203.420434 
L 70.448711 202.586124 
L 70.616112 203.088607 
L 70.699812 202.424951 
L 70.783512 203.59109 
L 70.950912 201.761296 
L 71.118313 202.917951 
L 71.285713 203.420434 
L 71.369413 205.089053 
L 71.453114 204.757225 
L 71.620514 203.59109 
L 71.704214 204.08409 
L 71.787914 203.59109 
L 71.871615 204.586573 
L 72.039015 202.093124 
L 72.122715 203.922917 
L 72.206415 203.59109 
L 72.290116 201.761296 
L 72.373816 203.59109 
L 72.457516 201.922469 
L 72.624916 204.254745 
L 72.708617 201.761296 
L 72.792317 202.254296 
L 72.959717 203.752262 
L 73.043417 204.08409 
L 73.210818 201.590641 
L 73.378218 204.757225 
L 73.461918 204.415917 
L 73.629319 201.258813 
L 73.796719 207.250674 
L 74.13152 202.424951 
L 74.298921 203.420434 
L 74.550021 201.761296 
L 74.717422 203.420434 
L 74.801122 202.254296 
L 74.968522 206.416363 
L 75.135923 201.761296 
L 75.303323 205.250228 
L 75.387023 204.757225 
L 75.470723 202.756779 
L 75.554424 203.088607 
L 75.721824 201.922469 
L 75.805524 202.917951 
L 75.972925 201.258813 
L 76.056625 201.419986 
L 76.140325 201.088158 
L 76.307725 203.59109 
L 76.391426 202.917951 
L 76.558826 202.093124 
L 76.642526 202.424951 
L 76.726226 202.254296 
L 76.809927 201.761296 
L 76.977327 205.582055 
L 77.228428 202.254296 
L 77.395828 205.089053 
L 77.646929 202.756779 
L 77.814329 203.420434 
L 77.98173 202.254296 
L 78.06543 204.254745 
L 78.14913 203.922917 
L 78.23283 204.254745 
L 78.31653 204.08409 
L 78.400231 203.420434 
L 78.483931 200.424503 
L 78.567631 201.258813 
L 78.651331 202.917951 
L 78.735031 202.424951 
L 78.818732 202.254296 
L 78.986132 203.088607 
L 79.069832 202.586124 
L 79.153532 202.917951 
L 79.320933 202.586124 
L 79.404633 202.093124 
L 79.655734 203.088607 
L 79.739434 205.42088 
L 79.823134 204.757225 
L 79.906834 204.9184 
L 79.990534 202.586124 
L 80.074235 202.756779 
L 80.157935 203.752262 
L 80.241635 203.259262 
L 80.325335 202.093124 
L 80.409035 202.756779 
L 80.492736 202.093124 
L 80.660136 204.254745 
L 80.827536 202.586124 
L 80.911237 201.922469 
L 81.078637 203.59109 
L 81.246037 203.922917 
L 81.329738 203.922917 
L 81.413438 202.756779 
L 81.580838 203.420434 
L 81.664538 202.756779 
L 81.748239 203.752262 
L 81.915639 201.590641 
L 82.16674 203.59109 
L 82.25044 203.59109 
L 82.33414 204.757225 
L 82.41784 203.922917 
L 82.501541 205.42088 
L 82.668941 203.752262 
L 82.752641 204.9184 
L 83.003742 201.258813 
L 83.087442 203.088607 
L 83.171142 202.254296 
L 83.254842 202.586124 
L 83.338543 202.254296 
L 83.422243 202.424951 
L 83.505943 203.752262 
L 83.589643 202.756779 
L 83.757044 204.415917 
L 83.840744 203.59109 
L 84.008144 204.08409 
L 84.175545 203.752262 
L 84.259245 201.590641 
L 84.342945 202.254296 
L 84.426645 202.424951 
L 84.510345 200.926986 
L 84.594046 201.088158 
L 84.677746 201.258813 
L 84.761446 201.761296 
L 84.928846 204.08409 
L 85.012547 203.752262 
L 85.096247 201.088158 
L 85.179947 201.419986 
L 85.347347 202.424951 
L 85.431048 204.9184 
L 85.682148 201.922469 
L 85.765849 203.922917 
L 85.849549 202.917951 
L 85.933249 203.088607 
L 86.26805 201.419986 
L 86.43545 204.415917 
L 86.51915 202.586124 
L 86.686551 203.259262 
L 86.770251 202.917951 
L 86.937651 204.254745 
L 87.021352 201.922469 
L 87.105052 203.259262 
L 87.188752 202.093124 
L 87.439853 203.752262 
L 87.690953 201.258813 
L 87.774653 202.424951 
L 87.858354 201.258813 
L 88.193154 203.922917 
L 88.444255 201.922469 
L 88.695356 204.254745 
L 88.779056 203.420434 
L 88.862756 203.59109 
L 88.946456 203.088607 
L 89.030156 201.419986 
L 89.197557 203.259262 
L 89.281257 202.586124 
L 89.364957 199.590198 
L 89.532358 204.757225 
L 89.699758 203.420434 
L 89.867159 205.089053 
L 90.034559 201.761296 
L 90.118259 203.59109 
L 90.201959 203.420434 
L 90.28566 201.590641 
L 90.36936 204.757225 
L 90.62046 202.424951 
L 90.704161 201.761296 
L 90.787861 201.922469 
L 90.871561 204.415917 
L 90.955261 203.922917 
L 91.038961 202.586124 
L 91.206362 203.088607 
L 91.373762 202.424951 
L 91.457462 203.088607 
L 91.541163 202.756779 
L 91.792263 204.08409 
L 91.875963 203.752262 
L 92.043364 202.254296 
L 92.210764 204.586573 
L 92.461865 203.752262 
L 92.545565 204.757225 
L 92.629265 202.756779 
L 92.796666 203.922917 
L 92.880366 201.922469 
L 92.964066 203.088607 
L 93.131466 201.761296 
L 93.215167 202.254296 
L 93.298867 205.42088 
L 93.466267 202.093124 
L 93.549968 202.254296 
L 93.633668 205.42088 
L 93.717368 205.250228 
L 93.801068 203.259262 
L 93.884768 203.752262 
L 93.968469 204.415917 
L 94.219569 201.590641 
L 94.38697 203.752262 
L 94.55437 202.093124 
L 94.63807 203.752262 
L 94.72177 203.420434 
L 94.805471 200.424503 
L 95.056571 203.59109 
L 95.223972 200.75633 
L 95.475072 203.420434 
L 95.642473 200.092675 
L 95.809873 204.08409 
L 95.893573 203.922917 
L 96.060974 200.926986 
L 96.228374 202.424951 
L 96.312074 201.258813 
L 96.479475 203.259262 
L 96.646875 201.922469 
L 96.730575 202.254296 
L 96.814275 203.922917 
L 96.897976 203.59109 
L 96.981676 204.254745 
L 97.065376 202.586124 
L 97.149076 203.088607 
L 97.232776 202.586124 
L 97.316477 203.088607 
L 97.400177 202.917951 
L 97.483877 202.093124 
L 97.567577 202.254296 
L 97.734978 201.761296 
L 97.818678 203.752262 
L 97.902378 203.259262 
L 97.986078 203.922917 
L 98.069779 203.259262 
L 98.153479 201.419986 
L 98.237179 201.922469 
L 98.48828 203.420434 
L 98.57198 203.420434 
L 98.65568 201.922469 
L 98.82308 203.59109 
L 98.906781 203.088607 
L 98.990481 203.259262 
L 99.074181 203.59109 
L 99.157881 203.420434 
L 99.241581 201.088158 
L 99.408982 203.752262 
L 99.492682 203.59109 
L 99.576382 202.917951 
L 99.660082 201.258813 
L 99.827483 204.254745 
L 99.994883 202.917951 
L 100.078583 203.752262 
L 100.329684 201.761296 
L 100.497084 202.756779 
L 100.580785 201.419986 
L 100.664485 202.093124 
L 100.748185 201.088158 
L 100.831885 201.258813 
L 100.915585 201.258813 
L 100.999286 203.420434 
L 101.082986 202.424951 
L 101.166686 203.259262 
L 101.501487 201.922469 
L 101.585187 202.254296 
L 101.668887 203.088607 
L 101.836288 200.253853 
L 102.171089 204.415917 
L 102.254789 202.424951 
L 102.422189 204.08409 
L 102.505889 203.088607 
L 102.58959 204.9184 
L 102.75699 202.917951 
L 102.84069 203.922917 
L 103.008091 201.088158 
L 103.175491 201.761296 
L 103.259191 202.093124 
L 103.426592 204.415917 
L 103.593992 203.752262 
L 103.677692 202.586124 
L 103.761392 204.254745 
L 104.012493 202.756779 
L 104.179893 204.586573 
L 104.263594 203.420434 
L 104.430994 204.586573 
L 104.598394 201.761296 
L 104.849495 204.08409 
L 104.933195 201.258813 
L 105.016895 202.917951 
L 105.100596 201.258813 
L 105.184296 201.419986 
L 105.267996 202.254296 
L 105.351696 200.595158 
L 105.519097 202.917951 
L 105.602797 202.756779 
L 105.686497 203.752262 
L 105.770197 202.586124 
L 105.853898 203.922917 
L 105.937598 201.761296 
L 106.021298 202.424951 
L 106.188698 203.088607 
L 106.356099 202.756779 
L 106.6909 202.254296 
L 106.8583 199.760847 
L 107.0257 202.586124 
L 107.193101 201.088158 
L 107.444201 203.59109 
L 107.527902 202.917951 
L 107.695302 204.415917 
L 107.862702 200.926986 
L 107.946403 204.254745 
L 108.197503 201.088158 
L 108.281203 201.088158 
L 108.364904 200.595158 
L 108.699704 203.752262 
L 108.950805 199.922026 
L 109.201906 201.419986 
L 109.285606 200.092675 
L 109.369306 201.761296 
L 109.453006 201.419986 
L 109.620407 203.420434 
L 109.704107 201.761296 
L 109.787807 203.420434 
L 109.871507 202.093124 
L 109.955208 202.586124 
L 110.038908 202.424951 
L 110.290008 205.582055 
L 110.457409 201.419986 
L 110.541109 201.590641 
L 110.708509 203.922917 
L 110.79221 203.752262 
L 110.87591 202.917951 
L 110.95961 203.922917 
L 111.04331 202.756779 
L 111.210711 204.254745 
L 111.378111 201.258813 
L 111.461811 202.424951 
L 111.545511 202.254296 
L 111.629212 202.756779 
L 111.964012 199.760847 
L 112.131413 202.093124 
L 112.215113 201.761296 
L 112.298813 202.424951 
L 112.549914 201.419986 
L 112.717314 203.420434 
L 112.884715 202.093124 
L 112.968415 202.917951 
L 113.052115 201.761296 
L 113.135815 203.088607 
L 113.219516 201.590641 
L 113.386916 202.917951 
L 113.554316 200.75633 
L 113.638017 202.424951 
L 113.721717 202.093124 
L 113.805417 201.258813 
L 113.889117 204.254745 
L 113.972817 203.922917 
L 114.056518 202.756779 
L 114.140218 199.922026 
L 114.307618 202.254296 
L 114.391318 200.595158 
L 114.726119 202.586124 
L 114.89352 201.590641 
L 114.97722 203.088607 
L 115.06092 202.424951 
L 115.14462 203.259262 
L 115.22832 203.088607 
L 115.395721 200.092675 
L 115.479421 203.752262 
L 115.563121 203.420434 
L 115.814222 201.590641 
L 115.981622 202.254296 
L 116.065322 201.590641 
L 116.316423 204.586573 
L 116.400123 204.586573 
L 116.734924 201.419986 
L 116.818624 201.590641 
L 117.069725 203.59109 
L 117.153425 202.756779 
L 117.320826 203.59109 
L 117.404526 204.415917 
L 117.655626 201.761296 
L 117.739327 201.761296 
L 117.823027 202.586124 
L 117.906727 204.757225 
L 117.990427 203.752262 
L 118.074127 199.760847 
L 118.157828 200.926986 
L 118.241528 201.590641 
L 118.325228 203.259262 
L 118.408928 201.922469 
L 118.492628 203.420434 
L 118.576329 201.258813 
L 118.743729 202.917951 
L 118.827429 202.093124 
L 118.99483 204.254745 
L 119.16223 203.420434 
L 119.24593 204.254745 
L 119.32963 202.093124 
L 119.413331 204.415917 
L 119.497031 204.254745 
L 119.664431 201.761296 
L 119.915532 205.42088 
L 120.082932 202.254296 
L 120.166632 203.088607 
L 120.250333 201.922469 
L 120.334033 202.586124 
L 120.417733 202.424951 
L 120.501433 201.922469 
L 120.585133 203.088607 
L 120.668834 201.088158 
L 120.752534 202.254296 
L 120.836234 202.093124 
L 120.919934 202.254296 
L 121.254735 204.08409 
L 121.338435 204.586573 
L 121.422136 204.415917 
L 121.505836 204.586573 
L 121.589536 202.424951 
L 121.673236 202.917951 
L 121.756936 204.586573 
L 121.924337 202.093124 
L 122.008037 201.761296 
L 122.259138 202.917951 
L 122.426538 202.093124 
L 122.510238 200.092675 
L 122.677639 201.419986 
L 122.928739 203.752262 
L 123.17984 201.258813 
L 123.34724 201.761296 
L 123.43094 201.419986 
L 123.514641 202.093124 
L 123.598341 201.590641 
L 123.682041 201.761296 
L 123.849441 202.756779 
L 123.933142 204.586573 
L 124.100542 202.424951 
L 124.267942 204.415917 
L 124.519043 201.590641 
L 124.602743 202.093124 
L 124.686443 204.08409 
L 124.853844 202.093124 
L 125.021244 204.586573 
L 125.104945 203.259262 
L 125.188645 203.420434 
L 125.272345 203.752262 
L 125.439745 204.9184 
L 125.523446 204.586573 
L 125.690846 203.752262 
L 125.774546 204.9184 
L 125.941947 202.586124 
L 126.276747 204.254745 
L 126.360448 205.250228 
L 126.527848 203.59109 
L 126.695248 204.08409 
L 126.778949 206.255191 
L 127.113749 202.586124 
L 127.19745 203.59109 
L 127.28115 201.922469 
L 127.36485 203.259262 
L 127.44855 203.088607 
L 127.615951 200.75633 
L 127.783351 203.420434 
L 127.867051 202.756779 
L 127.950751 203.752262 
L 128.201852 201.761296 
L 128.369252 203.088607 
L 128.452953 203.088607 
L 128.620353 201.922469 
L 128.871454 203.420434 
L 129.122554 202.093124 
L 129.206255 201.419986 
L 129.457355 204.586573 
L 129.708456 200.595158 
L 129.792156 200.424503 
L 129.959556 200.75633 
L 130.043257 202.756779 
L 130.126957 202.586124 
L 130.294357 203.59109 
L 130.378057 202.756779 
L 130.629158 205.582055 
L 130.796558 200.75633 
L 130.880259 201.419986 
L 130.963959 202.254296 
L 131.047659 204.9184 
L 131.131359 204.415917 
L 131.215059 202.917951 
L 131.29876 203.259262 
L 131.46616 204.415917 
L 131.54986 202.756779 
L 131.63356 203.752262 
L 131.800961 202.424951 
L 131.884661 202.586124 
L 131.968361 202.756779 
L 132.052061 202.586124 
L 132.135762 202.756779 
L 132.303162 201.088158 
L 132.386862 201.761296 
L 132.470562 201.419986 
L 132.637963 201.590641 
L 133.056464 204.254745 
L 133.140164 204.254745 
L 133.223864 203.922917 
L 133.307565 202.424951 
L 133.474965 204.586573 
L 133.558665 205.250228 
L 133.726066 204.254745 
L 133.809766 204.254745 
L 133.893466 203.088607 
L 134.060866 204.08409 
L 134.144567 203.088607 
L 134.228267 203.420434 
L 134.311967 200.424503 
L 134.479367 201.761296 
L 134.646768 200.926986 
L 134.730468 201.088158 
L 134.814168 204.08409 
L 134.897868 201.590641 
L 134.981569 203.088607 
L 135.148969 201.590641 
L 135.48377 203.752262 
L 135.818571 201.761296 
L 135.985971 205.752708 
L 136.237072 202.254296 
L 136.320772 202.756779 
L 136.404472 202.093124 
L 136.488172 202.917951 
L 136.571873 201.590641 
L 136.739273 202.586124 
L 136.906673 201.590641 
L 136.990374 200.595158 
L 137.157774 204.08409 
L 137.325174 202.424951 
L 137.408875 204.08409 
L 137.492575 202.756779 
L 137.576275 203.259262 
L 137.659975 202.756779 
L 137.743675 203.420434 
L 137.827376 202.756779 
L 137.911076 203.59109 
L 138.162176 201.761296 
L 138.329577 202.586124 
L 138.413277 202.586124 
L 138.496977 202.424951 
L 138.580677 202.917951 
L 138.664378 202.756779 
L 138.748078 202.254296 
L 138.831778 202.586124 
L 138.915478 203.420434 
L 139.082879 201.590641 
L 139.166579 201.419986 
L 139.250279 201.761296 
L 139.333979 201.590641 
L 139.417679 202.254296 
L 139.50138 204.08409 
L 139.75248 200.424503 
L 139.919881 201.922469 
L 140.087281 200.75633 
L 140.170981 202.586124 
L 140.254681 202.093124 
L 140.338382 201.258813 
L 140.505782 197.589749 
L 140.589482 210.08543 
L 140.756883 201.419986 
L 140.924283 204.757225 
L 141.091684 215.24298 
L 141.259084 199.25837 
L 141.342784 205.923363 
L 141.426484 203.922917 
L 141.510185 202.254296 
L 141.593885 205.250228 
L 141.761285 198.926543 
L 141.844985 202.093124 
L 141.928686 199.922026 
L 142.096086 201.761296 
L 142.347187 199.922026 
L 142.430887 199.922026 
L 142.514587 203.752262 
L 142.681987 197.93106 
L 143.016788 207.250674 
L 143.100488 205.923363 
L 143.184189 207.753157 
L 143.435289 202.586124 
L 143.518989 201.761296 
L 143.60269 203.922917 
L 143.68639 203.59109 
L 143.77009 200.595158 
L 143.85379 200.75633 
L 143.93749 200.926986 
L 144.104891 203.420434 
L 144.188591 203.088607 
L 144.272291 200.926986 
L 144.355992 202.756779 
L 144.523392 201.258813 
L 144.607092 201.590641 
L 144.690792 202.424951 
L 144.774493 200.092675 
L 144.858193 202.586124 
L 144.941893 202.093124 
L 145.025593 204.08409 
L 145.109293 203.752262 
L 145.444094 205.752708 
L 145.611495 204.254745 
L 145.695195 202.756779 
L 145.778895 203.59109 
L 145.862595 202.586124 
L 146.029996 203.922917 
L 146.113696 202.586124 
L 146.197396 204.08409 
L 146.281096 203.259262 
L 146.364796 200.926986 
L 146.448497 203.088607 
L 146.532197 202.093124 
L 146.615897 202.254296 
L 146.699597 201.590641 
L 146.783297 201.922469 
L 146.866998 203.59109 
L 147.118098 201.590641 
L 147.285499 203.088607 
L 147.369199 203.752262 
L 147.452899 203.088607 
L 147.536599 203.922917 
L 147.620299 202.756779 
L 147.704 203.088607 
L 147.7877 203.259262 
L 147.9551 201.761296 
L 148.0388 201.922469 
L 148.206201 203.752262 
L 148.289901 201.258813 
L 148.373601 201.590641 
L 148.457302 202.254296 
L 148.541002 201.590641 
L 148.624702 201.761296 
L 148.708402 201.590641 
L 148.792102 201.761296 
L 149.043203 202.756779 
L 149.126903 201.922469 
L 149.210603 202.756779 
L 149.294304 201.922469 
L 149.461704 203.259262 
L 149.545404 203.259262 
L 149.712805 204.9184 
L 149.796505 204.08409 
L 149.880205 204.586573 
L 149.963905 204.254745 
L 150.047605 204.9184 
L 150.131306 203.922917 
L 150.215006 204.254745 
L 150.298706 203.420434 
L 150.382406 204.08409 
L 150.549807 203.088607 
L 150.633507 202.424951 
L 150.800907 205.752708 
L 150.968308 203.922917 
L 151.052008 204.415917 
L 151.135708 203.922917 
L 151.219408 202.254296 
L 151.303108 202.424951 
L 151.386809 201.419986 
L 151.637909 203.59109 
L 151.721609 203.420434 
L 151.80531 203.752262 
L 151.88901 202.917951 
L 151.97271 203.420434 
L 152.05641 202.424951 
L 152.14011 203.259262 
L 152.307511 201.590641 
L 152.391211 200.926986 
L 152.558612 203.088607 
L 152.642312 203.259262 
L 152.726012 204.415917 
L 152.809712 202.093124 
L 152.893412 202.254296 
L 153.060813 200.75633 
L 153.144513 202.917951 
L 153.228213 202.756779 
L 153.395614 201.761296 
L 153.479314 202.254296 
L 153.563014 201.258813 
L 153.646714 201.419986 
L 153.897815 202.756779 
L 154.232616 202.093124 
L 154.316316 203.420434 
L 154.483716 202.424951 
L 154.651117 204.415917 
L 154.734817 202.917951 
L 154.818517 204.08409 
L 154.985917 202.093124 
L 155.069618 203.088607 
L 155.237018 201.419986 
L 155.320718 200.75633 
L 155.488119 202.586124 
L 155.571819 201.088158 
L 155.655519 201.761296 
L 155.739219 200.253853 
L 155.822919 201.088158 
L 155.90662 203.59109 
L 155.99032 201.761296 
L 156.15772 203.752262 
L 156.241421 203.088607 
L 156.325121 203.59109 
L 156.492521 201.922469 
L 156.576221 203.922917 
L 156.659922 203.420434 
L 156.743622 203.420434 
L 156.911022 202.424951 
L 156.994722 205.089053 
L 157.162123 201.922469 
L 157.245823 202.756779 
L 157.329523 202.586124 
L 157.413223 204.08409 
L 157.496924 203.752262 
L 157.580624 202.424951 
L 157.664324 202.586124 
L 157.915425 204.415917 
L 158.082825 201.590641 
L 158.250225 204.08409 
L 158.333926 203.088607 
L 158.417626 203.259262 
L 158.668726 202.917951 
L 158.836127 203.752262 
L 158.919827 203.59109 
L 159.003527 204.757225 
L 159.087227 202.756779 
L 159.170928 202.917951 
L 159.254628 203.088607 
L 159.338328 202.917951 
L 159.422028 201.922469 
L 159.505728 203.259262 
L 159.589429 202.254296 
L 159.673129 202.586124 
L 159.756829 201.922469 
L 159.840529 202.756779 
L 160.00793 201.419986 
L 160.17533 202.586124 
L 160.342731 201.419986 
L 160.426431 202.424951 
L 160.510131 202.093124 
L 160.593831 202.586124 
L 160.677531 201.590641 
L 160.761232 202.424951 
L 160.844932 200.75633 
L 160.928632 203.59109 
L 161.012332 202.917951 
L 161.096032 202.917951 
L 161.179733 201.761296 
L 161.347133 203.922917 
L 161.430833 203.59109 
L 161.514533 201.761296 
L 161.681934 202.917951 
L 161.765634 202.424951 
L 161.849334 203.088607 
L 162.100435 200.75633 
L 162.184135 199.922026 
L 162.518936 201.590641 
L 162.686336 203.259262 
L 162.770036 204.586573 
L 163.021137 201.258813 
L 163.104837 202.756779 
L 163.188537 201.419986 
L 163.272238 201.761296 
L 163.355938 201.761296 
L 163.523338 200.424503 
L 163.607038 202.917951 
L 163.690739 201.922469 
L 163.858139 202.756779 
L 164.10924 199.760847 
L 164.19294 199.760847 
L 164.36034 200.253853 
L 164.527741 202.756779 
L 164.611441 201.922469 
L 164.695141 203.088607 
L 164.778841 201.419986 
L 164.862542 201.922469 
L 164.946242 203.088607 
L 165.029942 202.756779 
L 165.197342 202.093124 
L 165.448443 203.59109 
L 165.532143 203.259262 
L 165.615843 201.922469 
L 165.699544 202.093124 
L 165.783244 204.415917 
L 165.950644 202.756779 
L 166.034344 202.917951 
L 166.201745 201.590641 
L 166.285445 202.586124 
L 166.369145 201.922469 
L 166.452845 202.917951 
L 166.620246 201.088158 
L 166.787646 199.922026 
L 166.955047 203.59109 
L 167.122447 201.088158 
L 167.206147 201.590641 
L 167.373548 201.258813 
L 167.540948 204.08409 
L 167.875749 201.761296 
L 167.959449 202.093124 
L 168.12685 201.419986 
L 168.21055 203.259262 
L 168.29425 202.917951 
L 168.46165 201.258813 
L 168.545351 203.752262 
L 168.629051 203.259262 
L 168.796451 201.761296 
L 168.963852 201.922469 
L 169.047552 201.590641 
L 169.131252 200.092675 
L 169.298652 201.761296 
L 169.382353 200.926986 
L 169.466053 201.419986 
L 169.549753 200.926986 
L 169.633453 202.756779 
L 169.800854 200.75633 
L 169.968254 201.761296 
L 170.051954 201.761296 
L 170.135654 200.926986 
L 170.386755 203.420434 
L 170.470455 202.254296 
L 170.554155 202.756779 
L 170.637856 201.258813 
L 170.721556 202.254296 
L 170.888956 201.761296 
L 170.972656 202.254296 
L 171.056357 202.093124 
L 171.140057 202.254296 
L 171.391157 204.254745 
L 171.474858 203.59109 
L 171.725958 200.595158 
L 171.893359 202.254296 
L 172.144459 203.420434 
L 172.31186 200.926986 
L 172.47926 203.088607 
L 172.56296 200.926986 
L 172.814061 203.59109 
L 172.981461 202.586124 
L 173.065162 204.415917 
L 173.148862 203.752262 
L 173.316262 200.595158 
L 173.483663 204.415917 
L 173.567363 203.59109 
L 173.651063 202.254296 
L 173.734763 202.424951 
L 173.818463 202.756779 
L 173.902164 201.761296 
L 174.153264 203.752262 
L 174.236964 201.590641 
L 174.404365 202.917951 
L 174.488065 202.424951 
L 174.571765 202.586124 
L 174.739166 203.259262 
L 174.906566 200.092675 
L 174.990266 201.922469 
L 175.073966 200.926986 
L 175.325067 203.752262 
L 175.408767 203.59109 
L 175.492467 204.9184 
L 175.659868 200.926986 
L 175.743568 201.419986 
L 175.910969 202.586124 
L 175.994669 200.75633 
L 176.32947 203.922917 
L 176.41317 202.424951 
L 176.58057 206.587018 
L 176.66427 205.752708 
L 176.831671 202.093124 
L 176.915371 202.424951 
L 176.999071 203.59109 
L 177.166472 201.922469 
L 177.250172 201.258813 
L 177.417572 203.259262 
L 177.584973 200.926986 
L 177.752373 204.586573 
L 177.836073 201.258813 
L 177.919773 201.922469 
L 178.003474 202.093124 
L 178.087174 203.259262 
L 178.170874 203.088607 
L 178.254574 202.917951 
L 178.421975 204.08409 
L 178.505675 201.761296 
L 178.589375 204.08409 
L 178.673075 203.59109 
L 178.756775 203.59109 
L 178.840476 204.586573 
L 178.924176 203.259262 
L 179.007876 204.08409 
L 179.091576 203.420434 
L 179.258977 204.415917 
L 179.342677 203.922917 
L 179.510077 201.761296 
L 179.593778 202.756779 
L 179.677478 202.424951 
L 179.761178 201.258813 
L 179.844878 202.424951 
L 180.012279 201.419986 
L 180.095979 203.59109 
L 180.179679 203.259262 
L 180.263379 202.424951 
L 180.347079 202.917951 
L 180.43078 201.419986 
L 180.51448 201.590641 
L 180.59818 201.088158 
L 180.68188 203.59109 
L 180.76558 202.917951 
L 180.932981 201.088158 
L 181.100381 203.088607 
L 181.267782 201.419986 
L 181.351482 201.590641 
L 181.435182 203.259262 
L 181.518882 202.093124 
L 181.686283 202.756779 
L 181.769983 202.756779 
L 181.853683 203.088607 
L 181.937383 202.917951 
L 182.104784 200.926986 
L 182.188484 203.088607 
L 182.272184 202.424951 
L 182.439584 203.59109 
L 182.523285 200.595158 
L 182.606985 200.926986 
L 182.774385 203.752262 
L 183.025486 200.595158 
L 183.109186 203.922917 
L 183.192886 202.917951 
L 183.276586 204.08409 
L 183.443987 202.424951 
L 183.527687 202.586124 
L 183.611387 201.419986 
L 183.695088 202.756779 
L 183.778788 202.424951 
L 183.862488 202.586124 
L 183.946188 203.088607 
L 184.197289 201.761296 
L 184.448389 203.259262 
L 184.53209 202.424951 
L 184.69949 202.756779 
L 184.86689 201.419986 
L 185.117991 203.59109 
L 185.201691 203.088607 
L 185.285391 202.254296 
L 185.369092 204.415917 
L 185.536492 201.258813 
L 185.703892 203.420434 
L 185.787593 201.590641 
L 185.871293 201.761296 
L 185.954993 201.258813 
L 186.122393 201.590641 
L 186.206094 200.595158 
L 186.373494 202.254296 
L 186.540894 201.761296 
L 186.708295 202.756779 
L 186.791995 202.756779 
L 186.875695 202.586124 
L 187.043096 199.922026 
L 187.126796 200.595158 
L 187.294196 199.922026 
L 187.461597 201.922469 
L 187.545297 200.926986 
L 187.628997 201.258813 
L 187.796398 200.424503 
L 187.880098 200.253853 
L 188.131198 201.590641 
L 188.214899 200.253853 
L 188.298599 200.75633 
L 188.465999 203.259262 
L 188.7171 201.419986 
L 188.9682 201.419986 
L 189.135601 201.590641 
L 189.303001 201.088158 
L 189.386701 200.75633 
L 189.554102 204.9184 
L 189.637802 202.917951 
L 189.721502 203.59109 
L 189.888903 202.254296 
L 189.972603 202.424951 
L 190.223703 204.08409 
L 190.558504 200.424503 
L 190.809605 203.420434 
L 190.893305 203.088607 
L 190.977005 201.590641 
L 191.060705 202.756779 
L 191.144406 201.088158 
L 191.311806 202.424951 
L 191.395506 201.590641 
L 191.479207 203.259262 
L 191.562907 202.586124 
L 191.646607 202.756779 
L 191.730307 203.752262 
L 191.897708 201.088158 
L 191.981408 203.420434 
L 192.065108 203.259262 
L 192.148808 202.424951 
L 192.232508 202.917951 
L 192.316209 202.424951 
L 192.399909 202.586124 
L 192.483609 203.259262 
L 192.651009 201.419986 
L 192.73471 201.922469 
L 192.81841 203.752262 
L 192.98581 200.253853 
L 193.236911 204.08409 
L 193.404311 202.586124 
L 193.488011 203.088607 
L 193.571712 204.415917 
L 193.655412 203.752262 
L 193.822812 201.761296 
L 193.906512 201.088158 
L 194.157613 204.254745 
L 194.241313 204.415917 
L 194.325013 202.756779 
L 194.408714 203.259262 
L 194.576114 202.586124 
L 194.659814 203.922917 
L 194.743514 203.59109 
L 194.910915 205.42088 
L 195.078315 201.761296 
L 195.245716 203.088607 
L 195.329416 202.756779 
L 195.413116 203.922917 
L 195.496816 202.424951 
L 195.747917 204.08409 
L 195.831617 203.752262 
L 196.082718 205.089053 
L 196.250118 205.089053 
L 196.333818 202.756779 
L 196.417519 202.917951 
L 196.501219 202.756779 
L 196.584919 204.415917 
L 196.668619 203.752262 
L 196.752319 201.258813 
L 196.83602 204.586573 
L 196.91972 203.752262 
L 197.00342 202.756779 
L 197.08712 203.420434 
L 197.17082 201.088158 
L 197.589321 204.415917 
L 197.673022 203.59109 
L 197.840422 204.586573 
L 198.091523 202.917951 
L 198.175223 201.761296 
L 198.426323 205.752708 
L 198.510024 203.922917 
L 198.593724 204.415917 
L 198.761124 203.088607 
L 199.095925 204.757225 
L 199.179625 204.586573 
L 199.347026 201.590641 
L 199.430726 202.254296 
L 199.514426 204.254745 
L 199.598126 203.420434 
L 199.681827 204.254745 
L 199.765527 203.59109 
L 199.849227 204.08409 
L 200.016627 203.088607 
L 200.100328 204.415917 
L 200.184028 204.08409 
L 200.267728 204.586573 
L 200.435128 202.756779 
L 200.518829 204.586573 
L 200.686229 203.59109 
L 200.769929 204.08409 
L 200.853629 205.923363 
L 201.02103 203.088607 
L 201.10473 204.08409 
L 201.18843 203.922917 
L 201.27213 204.586573 
L 201.523231 201.922469 
L 201.690631 204.254745 
L 201.858032 203.420434 
L 202.109132 204.9184 
L 202.192833 202.586124 
L 202.276533 203.259262 
L 202.360233 202.917951 
L 202.527633 204.586573 
L 202.611334 204.415917 
L 202.778734 203.088607 
L 202.862434 201.088158 
L 203.029835 206.084535 
L 203.113535 205.752708 
L 203.280935 205.089053 
L 203.364636 202.093124 
L 203.448336 202.756779 
L 203.615736 203.752262 
L 203.699436 203.59109 
L 203.866837 202.254296 
L 204.034237 204.415917 
L 204.117937 204.586573 
L 204.201638 203.259262 
L 204.285338 203.420434 
L 204.369038 203.420434 
L 204.452738 204.586573 
L 204.536438 202.424951 
L 204.620139 203.420434 
L 204.703839 201.922469 
L 204.787539 203.752262 
L 204.871239 203.420434 
L 204.954939 203.259262 
L 205.20604 204.415917 
L 205.28974 203.922917 
L 205.457141 202.586124 
L 205.540841 202.254296 
L 205.624541 204.415917 
L 205.708241 203.752262 
L 205.791941 204.415917 
L 205.959342 201.922469 
L 206.043042 203.420434 
L 206.126742 203.088607 
L 206.210442 203.088607 
L 206.545243 206.084535 
L 206.880044 203.259262 
L 207.047445 204.254745 
L 207.214845 202.756779 
L 207.298545 202.917951 
L 207.549646 205.582055 
L 207.800746 203.752262 
L 207.884447 204.254745 
L 207.968147 204.254745 
L 208.051847 204.586573 
L 208.135547 205.42088 
L 208.219247 204.586573 
L 208.302948 205.42088 
L 208.386648 204.586573 
L 208.637748 206.255191 
L 208.805149 203.752262 
L 209.056249 205.250228 
L 209.13995 204.415917 
L 209.30735 205.42088 
L 209.47475 203.420434 
L 209.558451 203.59109 
L 209.809551 205.582055 
L 209.893251 204.254745 
L 209.976952 204.415917 
L 210.144352 205.42088 
L 210.311752 203.752262 
L 210.479153 206.084535 
L 210.562853 205.089053 
L 210.646553 205.582055 
L 210.813954 202.917951 
L 210.897654 202.586124 
L 210.981354 203.259262 
L 211.065054 203.088607 
L 211.148755 203.59109 
L 211.232455 203.259262 
L 211.399855 203.922917 
L 211.483555 204.757225 
L 211.567256 203.088607 
L 211.650956 203.420434 
L 211.734656 205.089053 
L 211.818356 204.757225 
L 211.902056 204.415917 
L 211.985757 203.59109 
L 212.153157 205.089053 
L 212.236857 202.424951 
L 212.404258 203.59109 
L 212.655358 202.424951 
L 213.910861 167.791629 
L 213.994561 168.625939 
L 214.078262 167.630456 
L 214.161962 169.289594 
L 214.245662 168.455284 
L 214.329362 168.625939 
L 214.496763 171.119388 
L 214.580463 171.621865 
L 214.664163 170.294555 
L 214.915264 173.290486 
L 214.998964 172.28552 
L 215.166364 175.12028 
L 215.250065 177.120722 
L 215.333765 176.779418 
L 215.417465 176.44759 
L 215.501165 176.779418 
L 215.584865 176.618245 
L 215.752266 177.613728 
L 215.835966 179.111688 
L 215.919666 178.618688 
L 216.003366 178.950516 
L 216.087067 181.443965 
L 216.170767 180.780309 
L 216.254467 180.116654 
L 216.505568 182.780758 
L 216.672968 181.61462 
L 216.840368 183.776241 
L 217.007769 183.444413 
L 217.091469 183.94689 
L 217.258869 185.937862 
L 217.34257 185.444856 
L 217.59367 188.10896 
L 217.67737 187.606477 
L 217.761071 188.270133 
L 217.844771 186.440339 
L 217.928471 188.772616 
L 218.012171 188.10896 
L 218.095871 187.938305 
L 218.346972 190.270581 
L 218.430672 189.606926 
L 218.514372 191.104892 
L 218.765473 189.436271 
L 218.849173 190.934237 
L 218.932874 190.270581 
L 219.016574 190.602409 
L 219.100274 190.099926 
L 219.183974 190.431754 
L 219.267674 191.436719 
L 219.351375 191.104892 
L 219.518775 192.432202 
L 219.686175 191.266064 
L 219.853576 192.271024 
L 219.937276 190.602409 
L 220.104676 193.76899 
L 220.188377 192.93468 
L 220.272077 192.93468 
L 220.439477 193.095858 
L 220.523177 193.930162 
L 220.606878 193.598335 
L 220.690578 192.271024 
L 220.774278 192.602852 
L 220.941678 193.598335 
L 221.025379 193.427685 
L 221.109079 192.76403 
L 221.192779 194.935128 
L 221.276479 193.930162 
L 221.360179 194.100818 
L 221.44388 195.930611 
L 221.52758 195.428128 
L 221.61128 195.266956 
L 221.69498 195.598783 
L 221.77868 193.930162 
L 221.946081 198.262887 
L 222.029781 196.433094 
L 222.113481 196.594266 
L 222.197181 195.930611 
L 222.364582 196.926094 
L 222.448282 196.091783 
L 222.615683 196.594266 
L 222.783083 196.091783 
L 222.950483 196.926094 
L 223.034184 196.091783 
L 223.117884 196.594266 
L 223.285284 194.26199 
L 223.368984 195.428128 
L 223.452685 194.935128 
L 223.954886 179.945999 
L 224.038586 178.448033 
L 224.791888 150.147884 
L 225.79629 121.506413 
L 225.87999 121.013419 
L 225.963691 119.84728 
L 226.131091 115.514549 
L 226.465892 112.347968 
L 226.549592 109.190864 
L 226.633292 110.025181 
L 226.716993 109.693347 
L 226.800693 110.186353 
L 227.051793 106.024283 
L 227.135494 106.194944 
L 227.219194 106.024283 
L 227.637695 101.530392 
L 227.888795 96.372845 
L 228.390997 87.716883 
L 228.642097 81.051888 
L 228.725797 81.051888 
L 228.976898 73.059581 
L 229.060598 72.898409 
L 229.9813 56.743147 
L 230.065001 55.747647 
L 230.148701 53.08356 
L 230.232401 54.581532 
L 230.399802 50.24879 
L 230.483502 50.921945 
L 230.567202 50.590112 
L 230.818303 47.091697 
L 230.985703 48.257835 
L 231.069403 48.087174 
L 231.571604 52.249256 
L 231.990105 59.246073 
L 232.073806 59.577895 
L 232.408606 68.063207 
L 232.576007 71.732271 
L 232.994508 82.218026 
L 234.166311 112.518629 
L 234.250011 112.850451 
L 234.584812 120.510936 
L 234.752212 121.838246 
L 235.003313 128.835064 
L 235.338114 134.324444 
L 235.421814 134.495093 
L 235.505514 135.490582 
L 235.672914 139.320818 
L 235.924015 141.823744 
L 236.007715 142.31675 
L 236.342516 148.147429 
L 236.426216 148.811085 
L 236.593617 151.475194 
L 236.761017 153.143804 
L 236.928417 157.637701 
L 237.012118 156.642219 
L 237.263218 159.969978 
L 237.346918 160.13115 
L 237.430619 162.463426 
L 237.514319 161.136116 
L 237.598019 161.467944 
L 237.84912 164.795697 
L 237.93282 164.463869 
L 238.351321 167.459801 
L 238.435021 169.289594 
L 238.602422 166.62549 
L 238.686122 167.459801 
L 238.769822 166.957318 
L 238.937222 169.621422 
L 239.020923 168.957767 
L 239.188323 167.962284 
L 239.355723 167.459801 
L 239.439424 169.621422 
L 239.606824 167.630456 
L 239.690524 168.796594 
L 239.774224 165.79118 
L 239.941625 168.455284 
L 240.192725 163.629559 
L 240.276426 163.297731 
L 240.611226 159.467495 
L 240.862327 157.467046 
L 241.364528 147.815608 
L 241.531929 145.653981 
L 241.699329 139.65264 
L 241.866729 134.826927 
L 242.11783 127.507753 
L 243.205933 98.53446 
L 243.289633 100.203081 
L 243.540734 89.707849 
L 243.959235 78.558439 
L 244.210335 73.562064 
L 244.461436 68.404518 
L 244.879937 58.079935 
L 244.963637 58.411757 
L 245.214738 54.410871 
L 245.382138 50.24879 
L 245.465838 51.917422 
L 245.716939 49.082674 
L 245.800639 47.091697 
L 245.884339 47.926002 
L 245.968039 45.754898 
L 246.05174 46.428054 
L 246.13544 44.920593 
L 246.21914 45.091254 
L 246.386541 47.091697 
L 246.553941 43.925116 
L 246.637641 44.759421 
L 246.805042 46.086731 
L 246.888742 45.091254 
L 246.972442 45.925559 
L 247.056142 45.261915 
L 247.139842 45.423088 
L 247.307243 46.921036 
L 247.390943 46.759864 
L 247.558343 47.926002 
L 247.642044 48.419008 
L 247.893144 51.917422 
L 247.976844 51.917422 
L 248.060545 54.249699 
L 248.144245 53.244733 
L 248.897547 64.906103 
L 249.148647 69.068173 
L 249.232347 68.736339 
L 249.483448 76.557996 
L 249.567148 77.392301 
L 250.06935 87.2144 
L 250.32045 92.703781 
L 251.659653 117.676176 
L 252.078154 123.004384 
L 252.245555 127.507753 
L 252.412955 129.005713 
L 252.496655 128.332581 
L 252.831456 134.163272 
L 252.915156 133.167783 
L 253.082557 135.158749 
L 253.333657 139.823301 
L 253.417358 138.988985 
L 253.501058 139.320818 
L 253.584758 141.150612 
L 253.668458 140.818778 
L 254.086959 145.151498 
L 254.17066 144.819676 
L 254.25436 142.989883 
L 254.589161 146.981291 
L 254.840261 144.980848 
L 254.923961 146.146986 
L 255.007662 145.483331 
L 255.091362 146.146986 
L 255.258762 144.487843 
L 255.342462 146.981291 
L 255.509863 144.156021 
L 255.677263 144.649026 
L 255.760963 144.819676 
L 256.012064 140.98944 
L 256.095764 139.65264 
L 256.179464 141.150612 
L 256.263165 140.657606 
L 256.346865 140.657606 
L 256.430565 141.150612 
L 256.597965 137.993508 
L 256.849066 132.001645 
L 256.932766 132.997133 
L 257.016466 132.6653 
L 257.686068 124.341172 
L 257.769768 125.336649 
L 258.35567 115.685211 
L 258.60677 111.020658 
L 258.774171 105.692461 
L 258.857871 107.361071 
L 259.025271 104.696973 
L 259.527473 95.036045 
L 259.778573 88.71236 
L 259.862273 90.380982 
L 260.364475 82.720509 
L 260.531875 81.383709 
L 260.699275 77.553473 
L 261.368877 71.893443 
L 261.452577 69.731828 
L 261.536277 70.727305 
L 261.619978 70.06365 
L 261.703678 70.727305 
L 261.787378 70.395483 
L 262.038479 67.399552 
L 262.122179 67.399552 
L 262.205879 68.404518 
L 262.289579 67.731373 
L 262.37328 69.561167 
L 262.54068 67.902035 
L 262.62438 68.736339 
L 262.70808 68.56569 
L 262.791781 67.902035 
L 263.126581 70.566133 
L 263.293982 71.400438 
L 263.377682 71.059138 
L 263.461382 70.234299 
L 263.712483 73.893886 
L 263.879883 73.391403 
L 264.047284 76.387335 
L 264.298384 77.553473 
L 264.800585 84.379641 
L 264.967986 83.384164 
L 265.051686 85.716429 
L 265.135386 85.545779 
L 265.804988 96.041011 
L 265.972388 95.206707 
L 266.139789 98.202638 
L 266.223489 97.700155 
L 266.47459 102.364696 
L 266.55829 102.525869 
L 266.64199 105.531289 
L 266.72569 104.696973 
L 267.060491 109.693347 
L 267.144191 109.522698 
L 267.395292 113.684768 
L 267.478992 112.518629 
L 267.562692 113.514106 
L 267.646392 112.689279 
L 268.232294 120.842757 
L 268.315994 119.174136 
L 268.483394 122.008896 
L 268.567095 120.842757 
L 268.650795 121.677074 
L 268.734495 124.341172 
L 268.818195 123.336206 
L 268.985596 125.50731 
L 269.152996 125.175477 
L 269.320396 127.00527 
L 269.571497 125.175477 
L 269.822598 129.669368 
L 269.989998 127.00527 
L 270.073698 128.835064 
L 270.157399 128.332581 
L 270.408499 129.830552 
L 270.5759 131.830995 
L 270.6596 130.664857 
L 270.7433 130.835507 
L 270.827 130.333024 
L 270.994401 131.16734 
L 271.078101 130.996679 
L 271.245501 129.498719 
L 271.329201 129.669368 
L 271.580302 125.336649 
L 271.664002 126.000304 
L 271.915103 123.175034 
L 272.082503 125.336649 
L 272.249904 122.8432 
L 272.333604 124.502344 
L 272.417304 124.170511 
L 272.584704 122.008896 
L 272.752105 120.008453 
L 272.835805 120.681585 
L 273.003205 118.017487 
L 273.086906 118.842314 
L 273.170606 119.012964 
L 273.254306 118.681142 
L 273.338006 115.846383 
L 273.421707 116.680688 
L 273.505407 116.519515 
L 273.672807 112.518629 
L 273.756507 113.182285 
L 273.840208 112.689279 
L 274.007608 110.025181 
L 274.091308 110.357003 
L 274.426109 107.029249 
L 274.593509 108.35656 
L 274.67721 104.526323 
L 274.76091 105.531289 
L 274.92831 104.696973 
L 275.179411 98.866293 
L 275.263111 99.198115 
L 275.346811 99.700598 
L 275.514212 98.866293 
L 275.597912 96.865839 
L 275.681612 97.197672 
L 275.765312 96.865839 
L 276.100113 91.044637 
L 276.183813 92.371947 
L 276.351214 90.542154 
L 276.434914 89.878499 
L 276.518614 90.039671 
L 276.686014 91.205809 
L 276.937115 87.716883 
L 277.020815 87.375573 
L 277.104515 86.380084 
L 277.188216 88.048705 
L 277.271916 87.716883 
L 277.355616 86.882567 
L 277.439316 88.873533 
L 277.523017 85.877613 
L 277.606717 86.882567 
L 277.690417 85.545779 
L 277.774117 86.048262 
L 277.941518 85.052774 
L 278.025218 84.550302 
L 278.108918 85.213957 
L 278.192618 84.550302 
L 278.360019 87.546222 
L 278.527419 85.716429 
L 278.611119 85.716429 
L 278.694819 86.380084 
L 278.86222 88.71236 
L 279.02962 85.877613 
L 279.197021 90.712815 
L 279.448121 87.546222 
L 279.615522 90.873987 
L 279.699222 90.542154 
L 279.950322 89.044194 
L 280.034023 91.044637 
L 280.117723 90.873987 
L 280.201423 91.205809 
L 280.285123 93.708735 
L 280.368823 93.376913 
L 280.452524 92.040125 
L 280.536224 92.542597 
L 280.703624 95.538528 
L 280.787324 94.201741 
L 281.205826 101.862213 
L 281.373226 98.53446 
L 281.624327 102.525869 
L 281.708027 101.862213 
L 281.875427 103.360185 
L 282.042828 103.692007 
L 282.126528 106.194944 
L 282.210228 104.02384 
L 282.377628 106.526766 
L 282.461329 107.190421 
L 282.545029 106.356117 
L 282.712429 110.688836 
L 282.796129 109.352037 
L 282.87983 110.688836 
L 282.96353 109.190864 
L 283.13093 113.182285 
L 283.21463 111.523141 
L 283.382031 115.353377 
L 283.465731 115.514549 
L 283.800532 118.017487 
L 283.884232 117.183171 
L 283.967932 114.519072 
L 284.135333 118.017487 
L 284.302733 116.017032 
L 284.553834 118.349309 
L 284.637534 118.510481 
L 284.721234 120.510936 
L 284.804934 118.510481 
L 284.888634 118.842314 
L 285.056035 118.510481 
L 285.139735 120.179102 
L 285.223435 120.008453 
L 285.390836 118.017487 
L 285.641936 121.506413 
L 285.725637 121.506413 
L 285.809337 123.838689 
L 285.893037 123.336206 
L 285.976737 122.179545 
L 286.060437 122.672551 
L 286.227838 121.174591 
L 286.311538 119.174136 
L 286.478938 121.838246 
L 286.646339 120.510936 
L 286.730039 118.842314 
L 286.813739 119.174136 
L 286.98114 121.506413 
L 287.06484 120.510936 
L 287.23224 120.842757 
L 287.31594 118.842314 
L 287.399641 120.179102 
L 287.650741 117.012521 
L 287.734441 117.344343 
L 287.818142 118.510481 
L 287.985542 116.178216 
L 288.069242 116.348866 
L 288.152942 116.680688 
L 288.404043 111.684313 
L 288.487743 112.518629 
L 288.571443 114.016589 
L 288.738844 112.347968 
L 288.822544 114.187239 
L 288.906244 113.021112 
L 288.989944 113.182285 
L 289.073645 114.680245 
L 289.241045 111.191319 
L 289.324745 112.016146 
L 289.575846 109.522698 
L 289.826947 108.35656 
L 289.910647 108.859043 
L 290.078047 106.687938 
L 290.161747 106.687938 
L 290.245448 106.8586 
L 290.329148 106.194944 
L 290.412848 107.029249 
L 290.580248 105.189978 
L 290.998749 101.530392 
L 291.16615 101.862213 
L 291.33355 99.368776 
L 291.41725 100.203081 
L 291.500951 98.36381 
L 291.584651 99.700598 
L 291.668351 98.866293 
L 291.835751 100.696087 
L 291.919452 98.031977 
L 292.003152 98.202638 
L 292.086852 98.705121 
L 292.170552 95.699701 
L 292.254252 96.372845 
L 292.337953 95.538528 
L 292.421653 96.202184 
L 292.589053 94.543051 
L 292.672753 95.699701 
L 292.756454 95.206707 
L 292.840154 93.035602 
L 292.923854 93.206252 
L 293.007554 94.37239 
L 293.091255 91.708292 
L 293.258655 95.206707 
L 293.342355 94.874873 
L 293.509756 93.206252 
L 293.593456 93.538085 
L 293.677156 93.035602 
L 293.844556 94.874873 
L 293.928257 93.869907 
L 294.095657 95.367879 
L 294.179357 94.704224 
L 294.263057 96.534017 
L 294.430458 94.704224 
L 294.514158 96.202184 
L 294.597858 95.699701 
L 294.765259 98.36381 
L 295.016359 96.865839 
L 295.26746 99.368776 
L 295.35116 98.202638 
L 295.43486 100.534903 
L 295.51856 99.198115 
L 295.602261 99.529949 
L 295.685961 98.705121 
L 295.853361 100.203081 
L 295.937061 99.036943 
L 296.104462 100.032432 
L 296.188162 100.032432 
L 296.271862 99.86177 
L 296.439263 102.69653 
L 296.522963 102.69653 
L 296.606663 103.530835 
L 296.690363 102.69653 
L 296.774063 103.530835 
L 296.857764 102.194047 
L 296.941464 102.364696 
L 297.025164 103.692007 
L 297.108864 103.530835 
L 297.359965 106.8586 
L 297.443665 105.531289 
L 297.778466 109.020215 
L 297.945866 106.356117 
L 298.029567 106.8586 
L 298.113267 106.356117 
L 298.280667 111.684313 
L 298.448068 109.190864 
L 298.615468 111.352491 
L 298.699168 110.688836 
L 298.782868 111.684313 
L 298.866569 111.523141 
L 298.950269 111.523141 
L 299.033969 113.182285 
L 299.117669 113.021112 
L 299.201369 114.016589 
L 299.36877 112.016146 
L 299.45247 113.514106 
L 299.53617 113.182285 
L 299.61987 114.187239 
L 299.787271 112.689279 
L 299.870971 113.021112 
L 299.954671 113.021112 
L 300.122072 114.519072 
L 300.205772 114.016589 
L 300.289472 112.016146 
L 300.456872 114.348423 
L 300.540573 113.514106 
L 300.707973 115.012078 
L 300.875374 116.178216 
L 301.042774 113.684768 
L 301.293875 112.850451 
L 301.628675 117.183171 
L 301.879776 113.684768 
L 302.047176 115.012078 
L 302.130877 114.850894 
L 302.214577 114.680245 
L 302.298277 115.846383 
L 302.381977 115.514549 
L 302.465677 115.846383 
L 302.633078 113.352934 
L 302.800478 114.348423 
L 302.884178 113.514106 
L 302.967879 114.016589 
L 303.135279 112.850451 
L 303.218979 112.850451 
L 303.302679 114.187239 
L 303.47008 112.186796 
L 303.55378 113.021112 
L 303.72118 111.352491 
L 303.888581 111.523141 
L 304.055981 107.190421 
L 304.223382 109.693347 
L 304.307082 108.024726 
L 304.558182 111.020658 
L 304.725583 107.522255 
L 304.809283 107.692904 
L 304.892983 106.687938 
L 305.060384 107.190421 
L 305.227784 106.194944 
L 305.311484 106.356117 
L 305.395185 107.029249 
L 305.478885 104.365151 
L 305.562585 104.526323 
L 305.646285 105.692461 
L 305.729985 105.360628 
L 305.813686 105.189978 
L 305.897386 103.862668 
L 306.064786 105.863111 
L 306.148486 105.692461 
L 306.232187 105.692461 
L 306.315887 105.360628 
L 306.483287 102.032875 
L 306.566987 103.028352 
L 306.650688 102.69653 
L 306.901788 104.02384 
L 307.069189 101.198558 
L 307.236589 102.69653 
L 307.403989 99.700598 
L 307.48769 100.534903 
L 307.65509 98.36381 
L 307.73879 99.198115 
L 307.82249 99.036943 
L 307.906191 99.036943 
L 308.073591 100.696087 
L 308.240991 98.705121 
L 308.324692 99.198115 
L 308.408392 100.203081 
L 308.492092 97.870805 
L 308.575792 98.031977 
L 308.743193 96.534017 
L 308.910593 99.036943 
L 309.077994 97.700155 
L 309.161694 97.538983 
L 309.245394 97.700155 
L 309.412794 96.534017 
L 309.496495 97.368322 
L 309.580195 96.865839 
L 309.831295 98.866293 
L 309.914996 98.866293 
L 309.998696 100.203081 
L 310.082396 99.86177 
L 310.166096 100.866736 
L 310.249796 100.203081 
L 310.333497 100.696087 
L 310.417197 100.364253 
L 310.500897 99.036943 
L 310.584597 99.368776 
L 310.668297 100.364253 
L 310.751998 99.700598 
L 310.835698 100.534903 
L 310.919398 98.866293 
L 311.170499 101.198558 
L 311.337899 100.203081 
L 311.505299 103.862668 
L 311.589 100.696087 
L 311.7564 104.696973 
L 311.8401 103.028352 
L 311.9238 103.692007 
L 312.007501 102.364696 
L 312.258601 104.696973 
L 312.342301 104.365151 
L 312.426002 103.530835 
L 312.677102 106.024283 
L 312.760803 105.863111 
L 313.011903 103.199013 
L 313.179304 105.692461 
L 313.263004 106.024283 
L 313.346704 104.365151 
L 313.430404 106.526766 
L 313.514104 106.024283 
L 313.681505 107.522255 
L 313.765205 107.522255 
L 313.848905 107.692904 
L 313.932605 106.526766 
L 314.267406 109.020215 
L 314.434807 111.191319 
L 314.602207 109.190864 
L 314.853308 111.684313 
L 315.020708 110.186353 
L 315.104408 111.191319 
L 315.188108 111.020658 
L 315.271809 111.854974 
L 315.355509 111.684313 
L 315.439209 111.684313 
L 315.522909 112.347968 
L 315.69031 111.523141 
L 315.94141 112.347968 
L 316.108811 111.523141 
L 316.192511 112.689279 
L 316.359911 111.020658 
L 316.443612 111.684313 
L 316.611012 110.357003 
L 316.694712 111.191319 
L 316.778412 113.855417 
L 317.029513 110.186353 
L 317.113213 111.020658 
L 317.196913 110.518175 
L 317.448014 112.186796 
L 317.531714 111.523141 
L 317.615414 111.684313 
L 317.699115 112.186796 
L 317.950215 108.024726 
L 318.033915 109.020215 
L 318.201316 112.347968 
L 318.368716 110.186353 
L 318.452416 110.850008 
L 318.536117 114.187239 
L 319.038318 108.18591 
L 319.122018 110.688836 
L 319.205718 110.025181 
L 319.373119 109.020215 
L 319.540519 110.186353 
L 319.624219 109.522698 
L 319.707919 109.693347 
L 319.87532 106.687938 
L 319.95902 106.356117 
L 320.04272 108.024726 
L 320.12642 107.692904 
L 320.210121 105.863111 
L 320.293821 106.024283 
L 320.461221 109.352037 
L 320.544922 108.688381 
L 320.712322 106.526766 
L 320.879722 105.360628 
L 320.963423 104.02384 
L 321.047123 104.526323 
L 321.130823 106.194944 
L 321.214523 105.863111 
L 321.381924 106.526766 
L 321.465624 103.862668 
L 321.549324 104.365151 
L 321.633024 104.02384 
L 321.716724 102.69653 
L 321.967825 107.029249 
L 322.051525 105.189978 
L 322.135225 106.024283 
L 322.218926 105.692461 
L 322.386326 104.19449 
L 322.553726 105.692461 
L 322.637427 105.028806 
L 322.804827 102.364696 
L 323.055928 104.858145 
L 323.139628 104.19449 
L 323.307028 105.531289 
L 323.474429 102.525869 
L 323.558129 102.867179 
L 323.641829 102.69653 
L 323.809229 103.692007 
L 323.89293 102.69653 
L 323.97663 103.199013 
L 324.06033 105.863111 
L 324.14403 105.360628 
L 324.227731 103.862668 
L 324.311431 105.028806 
L 324.478831 103.028352 
L 324.646232 104.365151 
L 324.813632 101.701041 
L 324.897332 101.862213 
L 325.064733 102.364696 
L 325.148433 102.364696 
L 325.232133 104.365151 
L 325.315833 103.530835 
L 325.399533 103.862668 
L 325.483234 103.028352 
L 325.818034 104.365151 
L 325.901735 103.360185 
L 326.152835 105.028806 
L 326.320236 103.199013 
L 326.571336 105.189978 
L 326.655036 104.19449 
L 326.738737 104.858145 
L 326.822437 103.692007 
L 326.906137 104.19449 
L 327.157238 107.029249 
L 327.324638 105.692461 
L 327.492038 107.190421 
L 327.575739 107.029249 
L 327.826839 105.189978 
L 327.910539 105.360628 
L 327.99424 106.526766 
L 328.07794 105.028806 
L 328.16164 106.8586 
L 328.24534 105.863111 
L 328.329041 106.024283 
L 328.496441 107.692904 
L 328.580141 107.190421 
L 328.663841 105.863111 
L 328.831242 106.8586 
L 328.914942 106.194944 
L 328.998642 106.687938 
L 329.082342 107.854077 
L 329.166043 107.692904 
L 329.249743 107.029249 
L 329.417143 109.020215 
L 329.500843 108.859043 
L 329.668244 107.522255 
L 329.751944 107.854077 
L 329.919344 111.352491 
L 330.170445 108.35656 
L 330.421546 109.85452 
L 330.505246 108.18591 
L 330.588946 108.688381 
L 330.756346 110.850008 
L 330.923747 108.859043 
L 331.091147 110.518175 
L 331.174847 111.854974 
L 331.342248 110.025181 
L 331.425948 110.025181 
L 331.509648 109.693347 
L 331.677049 110.688836 
L 331.760749 110.357003 
L 331.844449 109.352037 
L 332.011849 110.518175 
L 332.09555 110.518175 
L 332.17925 108.859043 
L 332.26295 109.020215 
L 332.34665 108.859043 
L 332.430351 109.352037 
L 332.514051 109.190864 
L 332.597751 109.020215 
L 332.681451 110.357003 
L 332.848852 109.190864 
L 332.932552 109.693347 
L 333.016252 109.522698 
L 333.183652 107.854077 
L 333.267353 108.527209 
L 333.434753 108.024726 
L 333.602153 109.693347 
L 333.685854 109.190864 
L 333.853254 110.186353 
L 333.936954 108.527209 
L 334.104355 110.850008 
L 334.439155 107.029249 
L 334.522856 107.029249 
L 334.606556 109.190864 
L 334.773956 107.522255 
L 334.857656 109.522698 
L 334.941357 109.020215 
L 335.025057 110.688836 
L 335.108757 110.518175 
L 335.276157 109.693347 
L 335.359858 111.854974 
L 335.527258 110.025181 
L 335.610958 111.191319 
L 335.778359 109.190864 
L 335.862059 109.020215 
L 335.945759 108.527209 
L 336.11316 109.020215 
L 336.36426 105.189978 
L 336.531661 108.35656 
L 336.615361 108.024726 
L 336.866461 103.862668 
L 336.950162 104.19449 
L 337.201262 106.356117 
L 337.284962 106.024283 
L 337.368663 105.863111 
L 337.452363 105.360628 
L 337.536063 106.356117 
L 337.619763 106.194944 
L 337.787164 105.028806 
L 337.870864 105.863111 
L 337.954564 105.360628 
L 338.038264 106.687938 
L 338.289365 103.530835 
L 338.456765 104.696973 
L 338.540465 104.526323 
L 338.958966 105.531289 
L 339.042667 108.859043 
L 339.210067 105.360628 
L 339.377467 106.194944 
L 339.461168 107.029249 
L 339.544868 106.024283 
L 339.795968 107.361071 
L 339.879669 107.522255 
L 340.047069 106.024283 
L 340.130769 106.526766 
L 340.29817 104.696973 
L 340.38187 104.858145 
L 340.46557 105.531289 
L 340.716671 103.199013 
L 340.800371 104.02384 
L 340.967771 103.530835 
L 341.051472 104.19449 
L 341.135172 104.02384 
L 341.218872 103.530835 
L 341.302572 105.692461 
L 341.386272 105.028806 
L 341.469973 102.867179 
L 341.637373 106.194944 
L 341.804773 104.02384 
L 341.888474 105.692461 
L 341.972174 103.692007 
L 342.055874 104.365151 
L 342.223274 106.194944 
L 342.474375 107.522255 
L 342.558075 107.361071 
L 342.725476 107.692904 
L 342.809176 106.024283 
L 342.892876 108.18591 
L 342.976576 107.854077 
L 343.060276 106.8586 
L 343.478777 109.352037 
L 343.562478 108.859043 
L 343.646178 107.361071 
L 343.729878 108.18591 
L 343.813578 108.024726 
L 343.897279 108.35656 
L 344.064679 107.854077 
L 344.148379 108.18591 
L 344.31578 106.024283 
L 344.56688 110.357003 
L 344.734281 108.859043 
L 344.901681 109.190864 
L 344.985381 108.688381 
L 345.069081 105.531289 
L 345.320182 109.693347 
L 345.403882 108.688381 
L 345.822383 110.850008 
L 345.906083 108.18591 
L 345.989784 108.527209 
L 346.073484 109.522698 
L 346.240884 106.8586 
L 346.324584 107.361071 
L 346.408285 109.352037 
L 346.491985 107.854077 
L 346.659385 109.522698 
L 346.743085 108.859043 
L 346.826786 110.357003 
L 346.994186 108.35656 
L 347.077886 108.527209 
L 347.161586 110.518175 
L 347.328987 109.522698 
L 347.412687 110.518175 
L 347.496387 108.527209 
L 347.580087 108.688381 
L 347.663788 110.518175 
L 347.747488 110.186353 
L 347.831188 108.527209 
L 347.914888 109.85452 
L 347.998589 109.020215 
L 348.082289 109.85452 
L 348.41709 107.029249 
L 348.50079 107.029249 
L 348.58449 107.522255 
L 348.66819 109.522698 
L 349.086691 107.029249 
L 349.170391 106.687938 
L 349.337792 108.688381 
L 349.421492 108.024726 
L 349.505192 106.024283 
L 349.839993 108.688381 
L 349.923693 107.361071 
L 350.007393 107.854077 
L 350.091094 107.361071 
L 350.174794 107.692904 
L 350.258494 105.863111 
L 350.425894 106.8586 
L 350.509595 106.356117 
L 350.593295 106.687938 
L 350.844395 108.527209 
L 351.011796 108.688381 
L 351.346597 105.360628 
L 351.430297 105.531289 
L 351.513997 106.024283 
L 351.765098 108.527209 
L 351.848798 107.190421 
L 351.932498 107.522255 
L 352.016198 108.859043 
L 352.183599 107.522255 
L 352.434699 104.365151 
L 352.5184 104.696973 
L 352.6021 104.19449 
L 352.6858 104.696973 
L 352.7695 104.02384 
L 353.020601 107.190421 
L 353.188001 103.199013 
L 353.271701 104.19449 
L 353.606502 106.356117 
L 353.690202 106.194944 
L 353.773903 104.696973 
L 353.857603 105.531289 
L 353.941303 104.526323 
L 354.108703 107.692904 
L 354.192404 105.692461 
L 354.276104 106.687938 
L 354.359804 105.531289 
L 354.443504 105.692461 
L 354.527204 105.028806 
L 354.694605 107.361071 
L 354.862005 104.696973 
L 354.945705 104.696973 
L 355.113106 107.029249 
L 355.280506 104.858145 
L 355.447907 105.692461 
L 355.531607 106.356117 
L 355.615307 106.024283 
L 355.782708 103.530835 
L 355.866408 104.526323 
L 355.950108 106.8586 
L 356.117508 104.526323 
L 356.201209 105.028806 
L 356.368609 107.029249 
L 356.452309 107.029249 
L 356.536009 105.863111 
L 356.61971 107.522255 
L 356.78711 104.526323 
L 356.95451 105.863111 
L 357.038211 104.858145 
L 357.121911 105.863111 
L 357.205611 104.02384 
L 357.456712 106.687938 
L 357.540412 105.531289 
L 357.624112 106.194944 
L 357.707812 104.365151 
L 357.875213 105.531289 
L 358.042613 103.199013 
L 358.377414 108.35656 
L 358.628514 106.687938 
L 358.712215 106.8586 
L 358.795915 108.024726 
L 358.879615 107.854077 
L 358.963315 108.527209 
L 359.047015 107.029249 
L 359.130716 108.688381 
L 359.214416 107.190421 
L 359.298116 108.859043 
L 359.465517 107.854077 
L 359.632917 109.352037 
L 359.800317 107.522255 
L 359.884018 107.522255 
L 359.967718 107.029249 
L 360.135118 108.024726 
L 360.218818 107.854077 
L 360.302519 108.024726 
L 360.386219 107.190421 
L 360.469919 107.361071 
L 360.553619 109.85452 
L 360.637319 109.352037 
L 360.80472 108.18591 
L 360.88842 107.692904 
L 360.97212 108.35656 
L 361.139521 106.8586 
L 361.390621 108.527209 
L 361.558022 107.522255 
L 361.641722 107.190421 
L 361.809122 109.693347 
L 361.976523 106.526766 
L 362.227623 109.352037 
L 362.395024 108.18591 
L 362.478724 110.025181 
L 362.562424 108.859043 
L 362.729824 110.688836 
L 362.813525 110.186353 
L 362.897225 110.357003 
L 362.980925 110.518175 
L 363.148325 109.020215 
L 363.315726 109.352037 
L 363.399426 110.357003 
L 363.483126 108.35656 
L 363.566827 108.688381 
L 363.734227 109.693347 
L 363.901627 108.35656 
L 364.152728 110.025181 
L 364.487529 106.526766 
L 364.738629 108.527209 
L 364.82233 109.522698 
L 364.90603 106.8586 
L 364.98973 107.029249 
L 365.07343 107.029249 
L 365.15713 106.687938 
L 365.240831 105.692461 
L 365.491931 107.361071 
L 365.575631 105.692461 
L 365.659332 105.863111 
L 365.910432 108.688381 
L 366.161533 106.526766 
L 366.245233 107.361071 
L 366.328933 105.692461 
L 366.496334 107.692904 
L 366.580034 107.692904 
L 366.747434 108.527209 
L 366.914835 107.190421 
L 366.998535 108.527209 
L 367.165935 107.190421 
L 367.333336 107.522255 
L 367.417036 109.352037 
L 367.584436 106.194944 
L 367.668137 107.522255 
L 367.751837 107.029249 
L 367.835537 107.522255 
L 367.919237 106.8586 
L 368.086638 108.35656 
L 368.337738 106.024283 
L 368.421438 105.863111 
L 368.505139 107.692904 
L 368.588839 106.024283 
L 368.756239 108.024726 
L 368.92364 106.356117 
L 369.00734 106.8586 
L 369.17474 107.190421 
L 369.25844 107.692904 
L 369.425841 105.692461 
L 369.509541 105.531289 
L 369.593241 104.858145 
L 369.676941 105.360628 
L 369.760642 104.696973 
L 369.844342 106.687938 
L 369.928042 106.356117 
L 370.011742 106.024283 
L 370.095442 105.028806 
L 370.262843 106.194944 
L 370.346543 106.687938 
L 370.681344 104.858145 
L 370.765044 106.8586 
L 370.848744 106.526766 
L 370.932444 106.024283 
L 371.016145 106.194944 
L 371.183545 107.522255 
L 371.267245 106.8586 
L 371.350946 108.527209 
L 371.434646 108.024726 
L 371.685746 106.687938 
L 371.769447 106.356117 
L 371.853147 107.692904 
L 371.936847 107.190421 
L 372.187948 104.858145 
L 372.355348 106.356117 
L 372.439048 106.194944 
L 372.606449 108.688381 
L 372.690149 105.189978 
L 372.773849 107.361071 
L 372.941249 106.356117 
L 373.02495 106.687938 
L 373.10865 105.028806 
L 373.27605 108.688381 
L 373.527151 103.862668 
L 373.694551 106.526766 
L 373.778251 106.194944 
L 373.861952 104.526323 
L 374.029352 108.024726 
L 374.113052 107.522255 
L 374.280453 105.863111 
L 374.364153 107.029249 
L 374.447853 105.531289 
L 374.531553 107.692904 
L 374.615253 107.361071 
L 374.782654 107.361071 
L 374.866354 107.522255 
L 374.950054 107.190421 
L 375.117455 108.35656 
L 375.284855 107.854077 
L 375.452256 106.356117 
L 375.619656 107.190421 
L 375.703356 107.854077 
L 375.787056 107.029249 
L 375.870757 107.692904 
L 376.121857 106.194944 
L 376.205557 105.531289 
L 376.540358 108.859043 
L 376.624058 108.527209 
L 376.791459 104.02384 
L 376.958859 108.35656 
L 377.042559 106.687938 
L 377.12626 106.8586 
L 377.20996 109.190864 
L 377.46106 106.024283 
L 377.544761 105.863111 
L 377.879561 107.361071 
L 378.046962 105.863111 
L 378.298062 108.024726 
L 378.381763 107.522255 
L 378.549163 108.35656 
L 378.632863 108.527209 
L 378.716563 108.024726 
L 378.800264 109.693347 
L 378.883964 108.859043 
L 378.967664 109.85452 
L 379.135065 107.692904 
L 379.218765 108.18591 
L 379.302465 109.693347 
L 379.386165 108.18591 
L 379.469865 109.020215 
L 379.720966 107.361071 
L 379.804666 107.522255 
L 379.972067 109.693347 
L 380.139467 107.692904 
L 380.306867 105.531289 
L 380.390568 106.687938 
L 380.474268 106.526766 
L 380.725368 105.189978 
L 380.809069 105.531289 
L 380.892769 107.361071 
L 381.060169 106.526766 
L 381.31127 107.522255 
L 381.39497 109.522698 
L 381.47867 108.859043 
L 381.56237 105.692461 
L 381.646071 106.024283 
L 381.729771 110.357003 
L 381.813471 109.693347 
L 381.980871 104.858145 
L 382.064572 105.028806 
L 382.148272 106.356117 
L 382.231972 104.365151 
L 382.399372 109.85452 
L 382.650473 104.365151 
L 382.734173 105.692461 
L 382.817873 109.522698 
L 382.901574 108.527209 
L 383.068974 105.189978 
L 383.236375 108.527209 
L 383.320075 108.527209 
L 383.403775 107.692904 
L 383.571175 108.859043 
L 383.654876 108.527209 
L 383.738576 107.854077 
L 383.822276 108.859043 
L 384.157077 105.360628 
L 384.240777 105.531289 
L 384.324477 106.024283 
L 384.491878 107.522255 
L 384.575578 107.029249 
L 384.659278 108.688381 
L 384.826678 105.863111 
L 384.910379 107.522255 
L 385.077779 104.02384 
L 385.161479 104.526323 
L 385.32888 105.692461 
L 385.41258 105.692461 
L 385.57998 105.360628 
L 385.747381 106.356117 
L 385.914781 106.024283 
L 386.082181 104.19449 
L 386.249582 106.024283 
L 386.333282 105.692461 
L 386.500682 104.19449 
L 386.584383 104.696973 
L 386.751783 108.18591 
L 387.002884 106.8586 
L 387.086584 107.190421 
L 387.170284 107.029249 
L 387.253984 106.356117 
L 387.337685 108.024726 
L 387.421385 107.692904 
L 387.505085 107.190421 
L 387.588785 108.18591 
L 387.672485 105.028806 
L 387.756186 105.189978 
L 388.090986 109.352037 
L 388.258387 106.194944 
L 388.342087 107.692904 
L 388.509487 105.531289 
L 388.760588 106.8586 
L 388.844288 106.687938 
L 388.844288 106.687938 
" style="fill:none;stroke:#1f77b4;stroke-linecap:round;stroke-width:1.5;"/>
   </g>
   <g id="line2d_16">
    <path clip-path="url(#p16eed4a323)" d="M 139.723885 289 
L 139.727292 -1 
M 140.655243 -1 
L 140.668586 289 
M 140.714943 289 
L 140.756883 188.66833 
L 140.775515 289 
" style="fill:none;stroke:#ff7f0e;stroke-linecap:round;stroke-width:1.5;"/>
   </g>
   <g id="patch_3">
    <path d="M 54 252 
L 54 34.56 
" style="fill:none;stroke:#cccccc;stroke-linecap:square;stroke-linejoin:miter;stroke-width:0.8;"/>
   </g>
   <g id="patch_4">
    <path d="M 388.8 252 
L 388.8 34.56 
" style="fill:none;stroke:#cccccc;stroke-linecap:square;stroke-linejoin:miter;stroke-width:0.8;"/>
   </g>
   <g id="patch_5">
    <path d="M 54 252 
L 388.8 252 
" style="fill:none;stroke:#cccccc;stroke-linecap:square;stroke-linejoin:miter;stroke-width:0.8;"/>
   </g>
   <g id="patch_6">
    <path d="M 54 34.56 
L 388.8 34.56 
" style="fill:none;stroke:#cccccc;stroke-linecap:square;stroke-linejoin:miter;stroke-width:0.8;"/>
   </g>
  </g>
 </g>
 <defs>
  <clipPath id="p16eed4a323">
   <rect height="217.44" width="334.8" x="54" y="34.56"/>
  </clipPath>
 </defs>
</svg>
