<?xml version="1.0" encoding="utf-8" standalone="no"?>
<!DOCTYPE svg PUBLIC "-//W3C//DTD SVG 1.1//EN"
  "http://www.w3.org/Graphics/SVG/1.1/DTD/svg11.dtd">
<!-- Created with matplotlib (https://matplotlib.org/) -->
<svg height="288pt" version="1.1" viewBox="0 0 432 288" width="432pt" xmlns="http://www.w3.org/2000/svg" xmlns:xlink="http://www.w3.org/1999/xlink">
 <metadata>
  <rdf:RDF xmlns:cc="http://creativecommons.org/ns#" xmlns:dc="http://purl.org/dc/elements/1.1/" xmlns:rdf="http://www.w3.org/1999/02/22-rdf-syntax-ns#">
   <cc:Work>
    <dc:type rdf:resource="http://purl.org/dc/dcmitype/StillImage"/>
    <dc:date>2022-05-25T22:50:38.292441</dc:date>
    <dc:format>image/svg+xml</dc:format>
    <dc:creator>
     <cc:Agent>
      <dc:title>Matplotlib v3.3.3, https://matplotlib.org/</dc:title>
     </cc:Agent>
    </dc:creator>
   </cc:Work>
  </rdf:RDF>
 </metadata>
 <defs>
  <style type="text/css">*{stroke-linecap:butt;stroke-linejoin:round;}</style>
 </defs>
 <g id="figure_1">
  <g id="patch_1">
   <path d="M 0 288 
L 432 288 
L 432 0 
L 0 0 
z
" style="fill:#ffffff;"/>
  </g>
  <g id="axes_1">
   <g id="patch_2">
    <path d="M 54 252 
L 388.8 252 
L 388.8 34.56 
L 54 34.56 
z
" style="fill:#ffffff;"/>
   </g>
   <g id="matplotlib.axis_1">
    <g id="xtick_1">
     <g id="line2d_1">
      <path clip-path="url(#p91d2aaab57)" d="M 54 252 
L 54 34.56 
" style="fill:none;stroke:#cccccc;stroke-linecap:round;stroke-width:0.8;"/>
     </g>
     <g id="text_1">
      <!-- 0.00114 -->
      <g style="fill:#262626;" transform="translate(36.296875 266.157812)scale(0.1 -0.1)">
       <defs>
        <path d="M 4.15625 35.296875 
Q 4.15625 48 6.765625 55.734375 
Q 9.375 63.484375 14.515625 67.671875 
Q 19.671875 71.875 27.484375 71.875 
Q 33.25 71.875 37.59375 69.546875 
Q 41.9375 67.234375 44.765625 62.859375 
Q 47.609375 58.5 49.21875 52.21875 
Q 50.828125 45.953125 50.828125 35.296875 
Q 50.828125 22.703125 48.234375 14.96875 
Q 45.65625 7.234375 40.5 3 
Q 35.359375 -1.21875 27.484375 -1.21875 
Q 17.140625 -1.21875 11.234375 6.203125 
Q 4.15625 15.140625 4.15625 35.296875 
z
M 13.1875 35.296875 
Q 13.1875 17.671875 17.3125 11.828125 
Q 21.4375 6 27.484375 6 
Q 33.546875 6 37.671875 11.859375 
Q 41.796875 17.71875 41.796875 35.296875 
Q 41.796875 52.984375 37.671875 58.78125 
Q 33.546875 64.59375 27.390625 64.59375 
Q 21.34375 64.59375 17.71875 59.46875 
Q 13.1875 52.9375 13.1875 35.296875 
z
" id="ArialMT-48"/>
        <path d="M 9.078125 0 
L 9.078125 10.015625 
L 19.09375 10.015625 
L 19.09375 0 
z
" id="ArialMT-46"/>
        <path d="M 37.25 0 
L 28.46875 0 
L 28.46875 56 
Q 25.296875 52.984375 20.140625 49.953125 
Q 14.984375 46.921875 10.890625 45.40625 
L 10.890625 53.90625 
Q 18.265625 57.375 23.78125 62.296875 
Q 29.296875 67.234375 31.59375 71.875 
L 37.25 71.875 
z
" id="ArialMT-49"/>
        <path d="M 32.328125 0 
L 32.328125 17.140625 
L 1.265625 17.140625 
L 1.265625 25.203125 
L 33.9375 71.578125 
L 41.109375 71.578125 
L 41.109375 25.203125 
L 50.78125 25.203125 
L 50.78125 17.140625 
L 41.109375 17.140625 
L 41.109375 0 
z
M 32.328125 25.203125 
L 32.328125 57.46875 
L 9.90625 25.203125 
z
" id="ArialMT-52"/>
       </defs>
       <use xlink:href="#ArialMT-48"/>
       <use x="55.615234" xlink:href="#ArialMT-46"/>
       <use x="83.398438" xlink:href="#ArialMT-48"/>
       <use x="139.013672" xlink:href="#ArialMT-48"/>
       <use x="194.628906" xlink:href="#ArialMT-49"/>
       <use x="242.869141" xlink:href="#ArialMT-49"/>
       <use x="298.484375" xlink:href="#ArialMT-52"/>
      </g>
     </g>
    </g>
    <g id="xtick_2">
     <g id="line2d_2">
      <path clip-path="url(#p91d2aaab57)" d="M 120.96 252 
L 120.96 34.56 
" style="fill:none;stroke:#cccccc;stroke-linecap:round;stroke-width:0.8;"/>
     </g>
     <g id="text_2">
      <!-- 0.00115 -->
      <g style="fill:#262626;" transform="translate(103.256875 266.157812)scale(0.1 -0.1)">
       <defs>
        <path d="M 4.15625 18.75 
L 13.375 19.53125 
Q 14.40625 12.796875 18.140625 9.390625 
Q 21.875 6 27.15625 6 
Q 33.5 6 37.890625 10.78125 
Q 42.28125 15.578125 42.28125 23.484375 
Q 42.28125 31 38.0625 35.34375 
Q 33.84375 39.703125 27 39.703125 
Q 22.75 39.703125 19.328125 37.765625 
Q 15.921875 35.84375 13.96875 32.765625 
L 5.71875 33.84375 
L 12.640625 70.609375 
L 48.25 70.609375 
L 48.25 62.203125 
L 19.671875 62.203125 
L 15.828125 42.96875 
Q 22.265625 47.46875 29.34375 47.46875 
Q 38.71875 47.46875 45.15625 40.96875 
Q 51.609375 34.46875 51.609375 24.265625 
Q 51.609375 14.546875 45.953125 7.46875 
Q 39.0625 -1.21875 27.15625 -1.21875 
Q 17.390625 -1.21875 11.203125 4.25 
Q 5.03125 9.71875 4.15625 18.75 
z
" id="ArialMT-53"/>
       </defs>
       <use xlink:href="#ArialMT-48"/>
       <use x="55.615234" xlink:href="#ArialMT-46"/>
       <use x="83.398438" xlink:href="#ArialMT-48"/>
       <use x="139.013672" xlink:href="#ArialMT-48"/>
       <use x="194.628906" xlink:href="#ArialMT-49"/>
       <use x="242.869141" xlink:href="#ArialMT-49"/>
       <use x="298.484375" xlink:href="#ArialMT-53"/>
      </g>
     </g>
    </g>
    <g id="xtick_3">
     <g id="line2d_3">
      <path clip-path="url(#p91d2aaab57)" d="M 187.92 252 
L 187.92 34.56 
" style="fill:none;stroke:#cccccc;stroke-linecap:round;stroke-width:0.8;"/>
     </g>
     <g id="text_3">
      <!-- 0.00116 -->
      <g style="fill:#262626;" transform="translate(170.216875 266.157812)scale(0.1 -0.1)">
       <defs>
        <path d="M 49.75 54.046875 
L 41.015625 53.375 
Q 39.84375 58.546875 37.703125 60.890625 
Q 34.125 64.65625 28.90625 64.65625 
Q 24.703125 64.65625 21.53125 62.3125 
Q 17.390625 59.28125 14.984375 53.46875 
Q 12.59375 47.65625 12.5 36.921875 
Q 15.671875 41.75 20.265625 44.09375 
Q 24.859375 46.4375 29.890625 46.4375 
Q 38.671875 46.4375 44.84375 39.96875 
Q 51.03125 33.5 51.03125 23.25 
Q 51.03125 16.5 48.125 10.71875 
Q 45.21875 4.9375 40.140625 1.859375 
Q 35.0625 -1.21875 28.609375 -1.21875 
Q 17.625 -1.21875 10.6875 6.859375 
Q 3.765625 14.9375 3.765625 33.5 
Q 3.765625 54.25 11.421875 63.671875 
Q 18.109375 71.875 29.4375 71.875 
Q 37.890625 71.875 43.28125 67.140625 
Q 48.6875 62.40625 49.75 54.046875 
z
M 13.875 23.1875 
Q 13.875 18.65625 15.796875 14.5 
Q 17.71875 10.359375 21.1875 8.171875 
Q 24.65625 6 28.46875 6 
Q 34.03125 6 38.03125 10.484375 
Q 42.046875 14.984375 42.046875 22.703125 
Q 42.046875 30.125 38.078125 34.390625 
Q 34.125 38.671875 28.125 38.671875 
Q 22.171875 38.671875 18.015625 34.390625 
Q 13.875 30.125 13.875 23.1875 
z
" id="ArialMT-54"/>
       </defs>
       <use xlink:href="#ArialMT-48"/>
       <use x="55.615234" xlink:href="#ArialMT-46"/>
       <use x="83.398438" xlink:href="#ArialMT-48"/>
       <use x="139.013672" xlink:href="#ArialMT-48"/>
       <use x="194.628906" xlink:href="#ArialMT-49"/>
       <use x="242.869141" xlink:href="#ArialMT-49"/>
       <use x="298.484375" xlink:href="#ArialMT-54"/>
      </g>
     </g>
    </g>
    <g id="xtick_4">
     <g id="line2d_4">
      <path clip-path="url(#p91d2aaab57)" d="M 254.88 252 
L 254.88 34.56 
" style="fill:none;stroke:#cccccc;stroke-linecap:round;stroke-width:0.8;"/>
     </g>
     <g id="text_4">
      <!-- 0.00117 -->
      <g style="fill:#262626;" transform="translate(237.176875 266.157812)scale(0.1 -0.1)">
       <defs>
        <path d="M 4.734375 62.203125 
L 4.734375 70.65625 
L 51.078125 70.65625 
L 51.078125 63.8125 
Q 44.234375 56.546875 37.515625 44.484375 
Q 30.8125 32.421875 27.15625 19.671875 
Q 24.515625 10.6875 23.78125 0 
L 14.75 0 
Q 14.890625 8.453125 18.0625 20.40625 
Q 21.234375 32.375 27.171875 43.484375 
Q 33.109375 54.59375 39.796875 62.203125 
z
" id="ArialMT-55"/>
       </defs>
       <use xlink:href="#ArialMT-48"/>
       <use x="55.615234" xlink:href="#ArialMT-46"/>
       <use x="83.398438" xlink:href="#ArialMT-48"/>
       <use x="139.013672" xlink:href="#ArialMT-48"/>
       <use x="194.628906" xlink:href="#ArialMT-49"/>
       <use x="242.869141" xlink:href="#ArialMT-49"/>
       <use x="298.484375" xlink:href="#ArialMT-55"/>
      </g>
     </g>
    </g>
    <g id="xtick_5">
     <g id="line2d_5">
      <path clip-path="url(#p91d2aaab57)" d="M 321.84 252 
L 321.84 34.56 
" style="fill:none;stroke:#cccccc;stroke-linecap:round;stroke-width:0.8;"/>
     </g>
     <g id="text_5">
      <!-- 0.00118 -->
      <g style="fill:#262626;" transform="translate(304.136875 266.157812)scale(0.1 -0.1)">
       <defs>
        <path d="M 17.671875 38.8125 
Q 12.203125 40.828125 9.5625 44.53125 
Q 6.9375 48.25 6.9375 53.421875 
Q 6.9375 61.234375 12.546875 66.546875 
Q 18.171875 71.875 27.484375 71.875 
Q 36.859375 71.875 42.578125 66.421875 
Q 48.296875 60.984375 48.296875 53.171875 
Q 48.296875 48.1875 45.671875 44.5 
Q 43.0625 40.828125 37.75 38.8125 
Q 44.34375 36.671875 47.78125 31.875 
Q 51.21875 27.09375 51.21875 20.453125 
Q 51.21875 11.28125 44.71875 5.03125 
Q 38.234375 -1.21875 27.640625 -1.21875 
Q 17.046875 -1.21875 10.546875 5.046875 
Q 4.046875 11.328125 4.046875 20.703125 
Q 4.046875 27.6875 7.59375 32.390625 
Q 11.140625 37.109375 17.671875 38.8125 
z
M 15.921875 53.71875 
Q 15.921875 48.640625 19.1875 45.40625 
Q 22.46875 42.1875 27.6875 42.1875 
Q 32.765625 42.1875 36.015625 45.375 
Q 39.265625 48.578125 39.265625 53.21875 
Q 39.265625 58.0625 35.90625 61.359375 
Q 32.5625 64.65625 27.59375 64.65625 
Q 22.5625 64.65625 19.234375 61.421875 
Q 15.921875 58.203125 15.921875 53.71875 
z
M 13.09375 20.65625 
Q 13.09375 16.890625 14.875 13.375 
Q 16.65625 9.859375 20.171875 7.921875 
Q 23.6875 6 27.734375 6 
Q 34.03125 6 38.125 10.046875 
Q 42.234375 14.109375 42.234375 20.359375 
Q 42.234375 26.703125 38.015625 30.859375 
Q 33.796875 35.015625 27.4375 35.015625 
Q 21.234375 35.015625 17.15625 30.90625 
Q 13.09375 26.8125 13.09375 20.65625 
z
" id="ArialMT-56"/>
       </defs>
       <use xlink:href="#ArialMT-48"/>
       <use x="55.615234" xlink:href="#ArialMT-46"/>
       <use x="83.398438" xlink:href="#ArialMT-48"/>
       <use x="139.013672" xlink:href="#ArialMT-48"/>
       <use x="194.628906" xlink:href="#ArialMT-49"/>
       <use x="242.869141" xlink:href="#ArialMT-49"/>
       <use x="298.484375" xlink:href="#ArialMT-56"/>
      </g>
     </g>
    </g>
    <g id="xtick_6">
     <g id="line2d_6">
      <path clip-path="url(#p91d2aaab57)" d="M 388.8 252 
L 388.8 34.56 
" style="fill:none;stroke:#cccccc;stroke-linecap:round;stroke-width:0.8;"/>
     </g>
     <g id="text_6">
      <!-- 0.00119 -->
      <g style="fill:#262626;" transform="translate(371.096875 266.157812)scale(0.1 -0.1)">
       <defs>
        <path d="M 5.46875 16.546875 
L 13.921875 17.328125 
Q 14.984375 11.375 18.015625 8.6875 
Q 21.046875 6 25.78125 6 
Q 29.828125 6 32.875 7.859375 
Q 35.9375 9.71875 37.890625 12.8125 
Q 39.84375 15.921875 41.15625 21.1875 
Q 42.484375 26.46875 42.484375 31.9375 
Q 42.484375 32.515625 42.4375 33.6875 
Q 39.796875 29.5 35.234375 26.875 
Q 30.671875 24.265625 25.34375 24.265625 
Q 16.453125 24.265625 10.296875 30.703125 
Q 4.15625 37.15625 4.15625 47.703125 
Q 4.15625 58.59375 10.578125 65.234375 
Q 17 71.875 26.65625 71.875 
Q 33.640625 71.875 39.421875 68.109375 
Q 45.21875 64.359375 48.21875 57.390625 
Q 51.21875 50.4375 51.21875 37.25 
Q 51.21875 23.53125 48.234375 15.40625 
Q 45.265625 7.28125 39.375 3.03125 
Q 33.5 -1.21875 25.59375 -1.21875 
Q 17.1875 -1.21875 11.859375 3.4375 
Q 6.546875 8.109375 5.46875 16.546875 
z
M 41.453125 48.140625 
Q 41.453125 55.71875 37.421875 60.15625 
Q 33.40625 64.59375 27.734375 64.59375 
Q 21.875 64.59375 17.53125 59.8125 
Q 13.1875 55.03125 13.1875 47.40625 
Q 13.1875 40.578125 17.3125 36.296875 
Q 21.4375 32.03125 27.484375 32.03125 
Q 33.59375 32.03125 37.515625 36.296875 
Q 41.453125 40.578125 41.453125 48.140625 
z
" id="ArialMT-57"/>
       </defs>
       <use xlink:href="#ArialMT-48"/>
       <use x="55.615234" xlink:href="#ArialMT-46"/>
       <use x="83.398438" xlink:href="#ArialMT-48"/>
       <use x="139.013672" xlink:href="#ArialMT-48"/>
       <use x="194.628906" xlink:href="#ArialMT-49"/>
       <use x="242.869141" xlink:href="#ArialMT-49"/>
       <use x="298.484375" xlink:href="#ArialMT-57"/>
      </g>
     </g>
    </g>
   </g>
   <g id="matplotlib.axis_2">
    <g id="ytick_1">
     <g id="line2d_7">
      <path clip-path="url(#p91d2aaab57)" d="M 54 227.84 
L 388.8 227.84 
" style="fill:none;stroke:#cccccc;stroke-linecap:round;stroke-width:0.8;"/>
     </g>
     <g id="text_7">
      <!-- 0.01 -->
      <g style="fill:#262626;" transform="translate(27.539062 231.418906)scale(0.1 -0.1)">
       <use xlink:href="#ArialMT-48"/>
       <use x="55.615234" xlink:href="#ArialMT-46"/>
       <use x="83.398438" xlink:href="#ArialMT-48"/>
       <use x="139.013672" xlink:href="#ArialMT-49"/>
      </g>
     </g>
    </g>
    <g id="ytick_2">
     <g id="line2d_8">
      <path clip-path="url(#p91d2aaab57)" d="M 54 179.52 
L 388.8 179.52 
" style="fill:none;stroke:#cccccc;stroke-linecap:round;stroke-width:0.8;"/>
     </g>
     <g id="text_8">
      <!-- 0.02 -->
      <g style="fill:#262626;" transform="translate(27.539062 183.098906)scale(0.1 -0.1)">
       <defs>
        <path d="M 50.34375 8.453125 
L 50.34375 0 
L 3.03125 0 
Q 2.9375 3.171875 4.046875 6.109375 
Q 5.859375 10.9375 9.828125 15.625 
Q 13.8125 20.3125 21.34375 26.46875 
Q 33.015625 36.03125 37.109375 41.625 
Q 41.21875 47.21875 41.21875 52.203125 
Q 41.21875 57.421875 37.46875 61 
Q 33.734375 64.59375 27.734375 64.59375 
Q 21.390625 64.59375 17.578125 60.78125 
Q 13.765625 56.984375 13.71875 50.25 
L 4.6875 51.171875 
Q 5.609375 61.28125 11.65625 66.578125 
Q 17.71875 71.875 27.9375 71.875 
Q 38.234375 71.875 44.234375 66.15625 
Q 50.25 60.453125 50.25 52 
Q 50.25 47.703125 48.484375 43.546875 
Q 46.734375 39.40625 42.65625 34.8125 
Q 38.578125 30.21875 29.109375 22.21875 
Q 21.1875 15.578125 18.9375 13.203125 
Q 16.703125 10.84375 15.234375 8.453125 
z
" id="ArialMT-50"/>
       </defs>
       <use xlink:href="#ArialMT-48"/>
       <use x="55.615234" xlink:href="#ArialMT-46"/>
       <use x="83.398438" xlink:href="#ArialMT-48"/>
       <use x="139.013672" xlink:href="#ArialMT-50"/>
      </g>
     </g>
    </g>
    <g id="ytick_3">
     <g id="line2d_9">
      <path clip-path="url(#p91d2aaab57)" d="M 54 131.2 
L 388.8 131.2 
" style="fill:none;stroke:#cccccc;stroke-linecap:round;stroke-width:0.8;"/>
     </g>
     <g id="text_9">
      <!-- 0.03 -->
      <g style="fill:#262626;" transform="translate(27.539062 134.778906)scale(0.1 -0.1)">
       <defs>
        <path d="M 4.203125 18.890625 
L 12.984375 20.0625 
Q 14.5 12.59375 18.140625 9.296875 
Q 21.78125 6 27 6 
Q 33.203125 6 37.46875 10.296875 
Q 41.75 14.59375 41.75 20.953125 
Q 41.75 27 37.796875 30.921875 
Q 33.84375 34.859375 27.734375 34.859375 
Q 25.25 34.859375 21.53125 33.890625 
L 22.515625 41.609375 
Q 23.390625 41.5 23.921875 41.5 
Q 29.546875 41.5 34.03125 44.421875 
Q 38.53125 47.359375 38.53125 53.46875 
Q 38.53125 58.296875 35.25 61.46875 
Q 31.984375 64.65625 26.8125 64.65625 
Q 21.6875 64.65625 18.265625 61.421875 
Q 14.84375 58.203125 13.875 51.765625 
L 5.078125 53.328125 
Q 6.6875 62.15625 12.390625 67.015625 
Q 18.109375 71.875 26.609375 71.875 
Q 32.46875 71.875 37.390625 69.359375 
Q 42.328125 66.84375 44.9375 62.5 
Q 47.5625 58.15625 47.5625 53.265625 
Q 47.5625 48.640625 45.0625 44.828125 
Q 42.578125 41.015625 37.703125 38.765625 
Q 44.046875 37.3125 47.5625 32.6875 
Q 51.078125 28.078125 51.078125 21.140625 
Q 51.078125 11.765625 44.234375 5.25 
Q 37.40625 -1.265625 26.953125 -1.265625 
Q 17.53125 -1.265625 11.296875 4.34375 
Q 5.078125 9.96875 4.203125 18.890625 
z
" id="ArialMT-51"/>
       </defs>
       <use xlink:href="#ArialMT-48"/>
       <use x="55.615234" xlink:href="#ArialMT-46"/>
       <use x="83.398438" xlink:href="#ArialMT-48"/>
       <use x="139.013672" xlink:href="#ArialMT-51"/>
      </g>
     </g>
    </g>
    <g id="ytick_4">
     <g id="line2d_10">
      <path clip-path="url(#p91d2aaab57)" d="M 54 82.88 
L 388.8 82.88 
" style="fill:none;stroke:#cccccc;stroke-linecap:round;stroke-width:0.8;"/>
     </g>
     <g id="text_10">
      <!-- 0.04 -->
      <g style="fill:#262626;" transform="translate(27.539062 86.458906)scale(0.1 -0.1)">
       <use xlink:href="#ArialMT-48"/>
       <use x="55.615234" xlink:href="#ArialMT-46"/>
       <use x="83.398438" xlink:href="#ArialMT-48"/>
       <use x="139.013672" xlink:href="#ArialMT-52"/>
      </g>
     </g>
    </g>
    <g id="ytick_5">
     <g id="line2d_11">
      <path clip-path="url(#p91d2aaab57)" d="M 54 34.56 
L 388.8 34.56 
" style="fill:none;stroke:#cccccc;stroke-linecap:round;stroke-width:0.8;"/>
     </g>
     <g id="text_11">
      <!-- 0.05 -->
      <g style="fill:#262626;" transform="translate(27.539062 38.138906)scale(0.1 -0.1)">
       <use xlink:href="#ArialMT-48"/>
       <use x="55.615234" xlink:href="#ArialMT-46"/>
       <use x="83.398438" xlink:href="#ArialMT-48"/>
       <use x="139.013672" xlink:href="#ArialMT-53"/>
      </g>
     </g>
    </g>
   </g>
   <g id="line2d_12">
    <path clip-path="url(#p91d2aaab57)" d="M 53.963556 235.654909 
L 54.047256 235.27146 
L 54.130957 236.819989 
L 54.214657 236.045724 
L 54.382058 236.694633 
L 54.549459 236.178456 
L 54.63316 237.601629 
L 54.884261 235.396821 
L 55.135363 236.561901 
L 55.302764 235.396821 
L 55.386464 236.045724 
L 55.470165 235.787636 
L 55.553865 235.138732 
L 55.721266 236.436544 
L 55.888668 234.880644 
L 56.056069 236.303812 
L 56.139769 238.250537 
L 56.30717 236.561901 
L 56.474571 235.912997 
L 56.558272 236.561901 
L 56.641972 236.178456 
L 56.809373 237.468897 
L 57.060475 235.396821 
L 57.144175 236.436544 
L 57.227876 236.178456 
L 57.395277 236.045724 
L 57.646378 234.747912 
L 57.730079 235.396821 
L 57.813779 234.880644 
L 57.98118 236.303812 
L 58.064881 235.529548 
L 58.148582 236.178456 
L 58.315983 235.396821 
L 58.399683 235.787636 
L 58.567084 235.396821 
L 58.734485 236.303812 
L 58.985587 234.364468 
L 59.152988 237.985073 
L 59.320389 236.045724 
L 59.404089 236.045724 
L 59.48779 235.787636 
L 59.57149 237.085453 
L 59.738891 234.364468 
L 59.822592 235.396821 
L 59.906292 236.436544 
L 59.989993 236.178456 
L 60.073693 236.436544 
L 60.157394 237.468897 
L 60.324795 233.840916 
L 60.575897 237.085453 
L 60.659597 236.819989 
L 60.826998 236.561901 
L 60.910699 236.178456 
L 60.994399 234.231736 
L 61.329201 237.859717 
L 61.496602 235.396821 
L 61.580303 235.138732 
L 61.747704 236.694633 
L 61.831404 236.561901 
L 61.915105 234.880644 
L 62.249907 238.117805 
L 62.417308 234.880644 
L 62.584709 235.27146 
L 62.919511 236.694633 
L 63.086912 235.396821 
L 63.170613 236.436544 
L 63.254313 235.912997 
L 63.505415 237.601629 
L 63.672816 236.436544 
L 63.756516 236.694633 
L 63.923917 236.045724 
L 64.091318 236.561901 
L 64.258719 236.178456 
L 64.42612 237.085453 
L 64.509821 235.787636 
L 64.593521 236.694633 
L 64.677222 235.912997 
L 64.844623 237.343541 
L 64.928323 237.343541 
L 65.012024 237.085453 
L 65.095725 236.303812 
L 65.179425 236.819989 
L 65.263126 236.436544 
L 65.346826 237.343541 
L 65.514227 235.396821 
L 65.597928 235.912997 
L 65.765329 234.747912 
L 65.93273 236.178456 
L 66.01643 235.013372 
L 66.183831 237.210809 
L 66.267532 236.819989 
L 66.351232 236.694633 
L 66.434933 235.138732 
L 66.518633 235.529548 
L 66.602334 234.489824 
L 66.769735 236.045724 
L 66.853435 236.819989 
L 67.104537 235.27146 
L 67.188237 235.013372 
L 67.439339 236.303812 
L 67.52304 236.436544 
L 67.774141 234.489824 
L 67.941542 235.27146 
L 68.025243 236.819989 
L 68.108943 234.880644 
L 68.360045 236.303812 
L 68.443745 236.045724 
L 68.527446 234.10638 
L 68.611146 234.622556 
L 68.694847 235.396821 
L 68.778547 234.231736 
L 68.945948 235.787636 
L 69.029649 235.529548 
L 69.113349 236.045724 
L 69.364451 234.622556 
L 69.531852 235.396821 
L 69.615552 234.364468 
L 69.699253 234.622556 
L 69.782954 235.138732 
L 69.866654 235.013372 
L 69.950355 234.10638 
L 70.285157 236.303812 
L 70.536258 233.840916 
L 70.703659 235.529548 
L 70.78736 235.27146 
L 71.038461 235.912997 
L 71.122162 235.787636 
L 71.456964 237.085453 
L 71.624365 235.27146 
L 71.708065 235.912997 
L 71.791766 234.880644 
L 71.875466 236.178456 
L 71.959167 234.747912 
L 72.042868 236.045724 
L 72.126568 235.654909 
L 72.293969 236.952721 
L 72.37767 236.436544 
L 72.46137 235.138732 
L 72.628771 236.045724 
L 72.712472 235.912997 
L 72.796172 237.085453 
L 72.879873 236.819989 
L 72.963573 237.210809 
L 73.047274 236.045724 
L 73.130974 236.436544 
L 73.214675 236.303812 
L 73.382076 234.880644 
L 73.465776 234.489824 
L 73.633177 236.178456 
L 73.716878 236.303812 
L 73.800578 236.045724 
L 73.884279 235.396821 
L 73.967979 236.561901 
L 74.05168 236.303812 
L 74.219081 233.457472 
L 74.386482 235.912997 
L 74.470183 235.396821 
L 74.553883 236.178456 
L 74.637584 236.045724 
L 74.721284 235.787636 
L 74.804985 235.013372 
L 74.888685 235.138732 
L 74.972386 236.178456 
L 75.056086 236.045724 
L 75.307188 232.417743 
L 75.474589 236.436544 
L 75.558289 236.952721 
L 75.72569 234.10638 
L 75.809391 235.529548 
L 75.893091 234.880644 
L 75.976792 235.013372 
L 76.227893 235.787636 
L 76.311594 234.10638 
L 76.395294 234.489824 
L 76.562695 236.303812 
L 76.646396 235.912997 
L 76.813797 234.622556 
L 76.981198 236.561901 
L 77.064899 237.085453 
L 77.2323 235.912997 
L 77.316 235.529548 
L 77.399701 235.654909 
L 77.483401 236.694633 
L 77.650802 235.013372 
L 77.734503 234.622556 
L 77.901904 235.529548 
L 77.985604 235.138732 
L 78.069305 235.787636 
L 78.236706 234.489824 
L 78.571508 233.582828 
L 78.655208 234.489824 
L 78.738909 237.468897 
L 78.822609 236.561901 
L 78.90631 233.973648 
L 79.157412 236.436544 
L 79.241112 236.178456 
L 79.324813 232.941295 
L 79.575914 235.529548 
L 79.659615 235.529548 
L 79.827016 236.694633 
L 79.910716 236.694633 
L 80.078117 234.622556 
L 80.161818 234.622556 
L 80.329219 236.045724 
L 80.412919 235.529548 
L 80.664021 230.869215 
L 80.831422 237.601629 
L 80.915122 231.385391 
L 81.333625 244.075955 
L 81.417326 233.840916 
L 81.584727 237.985073 
L 81.668427 236.045724 
L 81.752128 237.085453 
L 81.919529 233.199384 
L 82.003229 235.396821 
L 82.17063 232.941295 
L 82.421732 234.489824 
L 82.505432 234.364468 
L 82.589133 233.457472 
L 82.756534 234.489824 
L 82.840234 232.159655 
L 83.007635 236.178456 
L 83.091336 235.654909 
L 83.175036 237.601629 
L 83.258737 236.045724 
L 83.342437 236.561901 
L 83.426138 236.436544 
L 83.509839 236.694633 
L 83.593539 236.045724 
L 83.67724 237.343541 
L 83.928341 235.27146 
L 84.012042 235.529548 
L 84.095742 236.178456 
L 84.263143 235.396821 
L 84.346844 236.045724 
L 84.514245 234.880644 
L 84.597945 235.787636 
L 84.849047 233.582828 
L 84.932747 234.622556 
L 85.016448 234.489824 
L 85.100148 234.747912 
L 85.183849 233.973648 
L 85.267549 235.396821 
L 85.35125 234.880644 
L 85.602351 237.726985 
L 85.686052 236.694633 
L 85.769752 237.085453 
L 85.853453 235.912997 
L 85.937154 236.178456 
L 86.104555 235.27146 
L 86.271956 236.303812 
L 86.355656 236.045724 
L 86.439357 236.952721 
L 86.690458 234.880644 
L 86.774159 235.529548 
L 86.94156 233.066652 
L 87.02526 233.457472 
L 87.192661 236.178456 
L 87.276362 236.561901 
L 87.360062 235.912997 
L 87.443763 234.231736 
L 87.527463 236.045724 
L 87.611164 235.654909 
L 87.694864 235.138732 
L 87.778565 235.529548 
L 87.945966 233.973648 
L 88.029666 235.912997 
L 88.113367 235.396821 
L 88.197068 235.529548 
L 88.364469 237.859717 
L 88.448169 237.859717 
L 88.782971 235.013372 
L 88.866672 234.880644 
L 88.950372 235.654909 
L 89.034073 234.231736 
L 89.201474 236.303812 
L 89.368875 236.952721 
L 89.619976 236.436544 
L 89.703677 236.694633 
L 89.871078 234.880644 
L 89.954778 234.880644 
L 90.038479 235.396821 
L 90.122179 237.859717 
L 90.20588 237.085453 
L 90.28958 236.694633 
L 90.456982 238.375893 
L 90.540682 237.859717 
L 90.791784 236.819989 
L 90.875484 236.819989 
L 91.042885 234.622556 
L 91.210286 236.819989 
L 91.377687 235.396821 
L 91.461388 235.013372 
L 91.628789 237.210809 
L 91.79619 232.417743 
L 91.87989 233.840916 
L 92.047291 237.726985 
L 92.214692 233.582828 
L 92.382093 236.561901 
L 92.465794 235.912997 
L 92.549494 236.303812 
L 92.633195 234.231736 
L 92.716896 234.747912 
L 92.800596 235.654909 
L 92.884297 235.396821 
L 92.967997 234.747912 
L 93.051698 236.694633 
L 93.135398 236.561901 
L 93.302799 233.457472 
L 93.4702 236.952721 
L 93.637601 235.787636 
L 93.721302 235.787636 
L 93.805002 236.178456 
L 93.972403 235.138732 
L 94.056104 236.303812 
L 94.223505 234.622556 
L 94.307205 236.561901 
L 94.390906 236.178456 
L 94.474606 236.561901 
L 94.642007 235.27146 
L 94.809408 236.178456 
L 94.976809 235.912997 
L 95.06051 234.747912 
L 95.144211 235.013372 
L 95.227911 235.013372 
L 95.311612 236.045724 
L 95.479013 234.747912 
L 95.646414 235.27146 
L 95.730114 236.694633 
L 95.813815 235.013372 
L 95.897515 235.138732 
L 96.064916 235.912997 
L 96.316018 233.199384 
L 96.483419 236.561901 
L 96.567119 235.787636 
L 96.65082 236.819989 
L 96.73452 235.27146 
L 96.818221 236.045724 
L 96.901921 235.138732 
L 96.985622 235.396821 
L 97.069322 235.138732 
L 97.320424 236.694633 
L 97.404125 236.045724 
L 97.571526 236.303812 
L 97.738927 234.880644 
L 97.822627 234.231736 
L 97.906328 236.178456 
L 97.990028 235.654909 
L 98.157429 236.045724 
L 98.24113 235.27146 
L 98.408531 236.694633 
L 98.492231 235.138732 
L 98.575932 236.045724 
L 98.659632 235.529548 
L 98.827033 236.303812 
L 98.994434 235.654909 
L 99.161835 235.27146 
L 99.245536 236.436544 
L 99.412937 234.622556 
L 99.496637 235.138732 
L 99.747739 234.364468 
L 99.91514 235.529548 
L 99.998841 235.396821 
L 100.166242 235.013372 
L 100.501044 236.045724 
L 100.668445 234.489824 
L 100.752145 235.912997 
L 101.003247 234.747912 
L 101.086947 235.013372 
L 101.254348 236.303812 
L 101.338049 234.10638 
L 101.421749 234.622556 
L 101.58915 233.840916 
L 101.672851 235.138732 
L 101.840252 234.364468 
L 102.091354 235.27146 
L 102.175054 235.27146 
L 102.258755 233.71556 
L 102.342455 235.27146 
L 102.426156 234.231736 
L 102.509856 235.787636 
L 102.593557 234.747912 
L 102.760958 236.303812 
L 102.928359 235.013372 
L 103.012059 235.138732 
L 103.09576 234.10638 
L 103.346861 235.013372 
L 103.514262 234.747912 
L 103.597963 235.396821 
L 103.681663 235.013372 
L 103.765364 234.10638 
L 103.932765 235.013372 
L 104.016465 233.582828 
L 104.183866 235.654909 
L 104.267567 234.10638 
L 104.351268 234.880644 
L 104.434968 234.364468 
L 104.68607 236.303812 
L 104.76977 236.178456 
L 105.020872 233.973648 
L 105.104572 233.840916 
L 105.188273 234.364468 
L 105.271973 233.973648 
L 105.439374 234.747912 
L 105.606775 233.582828 
L 105.774176 234.622556 
L 105.941577 233.066652 
L 106.108978 235.27146 
L 106.192679 234.747912 
L 106.276379 233.199384 
L 106.611182 235.396821 
L 106.694882 235.27146 
L 106.778583 234.364468 
L 106.862283 235.27146 
L 107.029684 233.71556 
L 107.113385 233.71556 
L 107.197085 235.529548 
L 107.280786 235.013372 
L 107.364486 233.199384 
L 107.448187 233.582828 
L 107.699288 235.787636 
L 107.866689 234.231736 
L 108.03409 235.912997 
L 108.201491 233.71556 
L 108.452593 235.396821 
L 108.619994 233.71556 
L 108.787395 234.231736 
L 108.871096 235.013372 
L 108.954796 234.10638 
L 109.038497 234.622556 
L 109.122197 233.457472 
L 109.205898 233.582828 
L 109.289598 233.973648 
L 109.373299 232.808563 
L 109.6244 234.747912 
L 109.708101 234.622556 
L 109.791801 236.178456 
L 109.875502 236.045724 
L 109.959202 235.654909 
L 110.042903 236.819989 
L 110.126603 234.880644 
L 110.210304 235.396821 
L 110.377705 234.622556 
L 110.461405 235.396821 
L 110.545106 233.71556 
L 110.628806 233.973648 
L 110.712507 233.840916 
L 110.796207 234.10638 
L 111.047309 236.303812 
L 111.21471 233.582828 
L 111.298411 233.840916 
L 111.465812 235.912997 
L 111.716913 233.32474 
L 111.800614 235.27146 
L 111.884314 234.880644 
L 112.302817 233.582828 
L 112.553918 235.912997 
L 112.637619 234.364468 
L 112.88872 235.787636 
L 113.139822 233.199384 
L 113.223522 233.840916 
L 113.307223 235.654909 
L 113.390923 235.396821 
L 113.474624 235.138732 
L 113.642025 232.675832 
L 113.725726 233.066652 
L 113.809426 234.231736 
L 113.893127 233.582828 
L 114.227929 235.787636 
L 114.39533 235.787636 
L 114.562731 234.622556 
L 114.730132 233.973648 
L 114.813832 234.10638 
L 114.897533 235.138732 
L 115.064934 233.582828 
L 115.316035 235.013372 
L 115.483436 234.364468 
L 115.567137 235.654909 
L 115.650837 233.840916 
L 115.734538 234.880644 
L 115.818239 233.457472 
L 115.98564 236.178456 
L 116.06934 234.622556 
L 116.236741 235.27146 
L 116.320442 233.457472 
L 116.655244 237.210809 
L 116.906345 233.582828 
L 116.990046 235.138732 
L 117.073746 234.489824 
L 117.157447 235.912997 
L 117.241147 235.529548 
L 117.408548 234.231736 
L 117.492249 233.840916 
L 117.65965 235.138732 
L 117.827051 233.973648 
L 117.910751 235.013372 
L 117.994452 233.199384 
L 118.078153 236.045724 
L 118.329254 233.32474 
L 118.412955 235.013372 
L 118.580356 233.840916 
L 118.664056 235.138732 
L 118.747757 234.747912 
L 118.831457 234.880644 
L 118.998858 234.231736 
L 119.24996 234.880644 
L 119.33366 233.973648 
L 119.501061 236.436544 
L 119.668462 233.840916 
L 119.752163 234.10638 
L 119.919564 235.27146 
L 120.086965 233.840916 
L 120.170665 234.747912 
L 120.254366 234.489824 
L 120.338066 233.71556 
L 120.505468 236.694633 
L 120.672869 234.231736 
L 120.756569 234.747912 
L 120.84027 235.138732 
L 120.92397 234.622556 
L 121.007671 234.747912 
L 121.175072 235.654909 
L 121.258772 235.787636 
L 121.342473 236.436544 
L 121.509874 235.013372 
L 121.593574 235.27146 
L 121.677275 236.045724 
L 121.760975 235.787636 
L 121.844676 234.364468 
L 121.928376 235.529548 
L 122.012077 235.27146 
L 122.095777 235.529548 
L 122.346879 233.973648 
L 122.51428 236.045724 
L 122.681681 233.457472 
L 122.765382 233.973648 
L 122.849082 233.71556 
L 122.932783 234.489824 
L 123.016483 233.457472 
L 123.267585 234.747912 
L 123.351285 233.840916 
L 123.434986 234.364468 
L 123.518686 233.973648 
L 123.686087 235.013372 
L 123.769788 233.973648 
L 123.853488 234.489824 
L 124.020889 233.973648 
L 124.10459 232.034299 
L 124.271991 235.013372 
L 124.439392 233.973648 
L 124.606793 235.654909 
L 124.774194 233.973648 
L 124.857894 233.71556 
L 124.941595 235.013372 
L 125.025296 234.747912 
L 125.108996 234.622556 
L 125.192697 235.396821 
L 125.360098 234.10638 
L 125.443798 235.787636 
L 125.527499 235.529548 
L 125.7786 233.457472 
L 125.862301 233.199384 
L 126.113402 235.138732 
L 126.197103 233.32474 
L 126.280803 234.10638 
L 126.364504 233.066652 
L 126.448204 234.231736 
L 126.615605 232.808563 
L 127.034108 235.013372 
L 127.201509 234.10638 
L 127.28521 233.840916 
L 127.452611 234.622556 
L 127.620012 234.364468 
L 127.703712 233.973648 
L 127.871113 234.747912 
L 127.954814 234.489824 
L 128.038514 235.529548 
L 128.122215 235.013372 
L 128.205915 233.582828 
L 128.289616 233.840916 
L 128.373316 233.840916 
L 128.540717 235.396821 
L 128.708118 232.941295 
L 128.875519 233.71556 
L 128.95922 234.622556 
L 129.04292 234.231736 
L 129.210321 235.013372 
L 129.294022 235.138732 
L 129.377722 233.32474 
L 129.461423 234.231736 
L 129.628824 233.199384 
L 129.796225 234.10638 
L 129.879926 233.71556 
L 130.047327 234.622556 
L 130.131027 234.489824 
L 130.214728 235.912997 
L 130.382129 233.582828 
L 130.465829 233.973648 
L 130.63323 235.654909 
L 130.800631 234.622556 
L 131.135433 235.013372 
L 131.219134 233.973648 
L 131.386535 235.013372 
L 131.470235 235.138732 
L 131.553936 234.880644 
L 131.637636 235.138732 
L 131.805037 233.199384 
L 131.972439 235.27146 
L 132.13984 234.622556 
L 132.22354 234.880644 
L 132.307241 234.622556 
L 132.390941 235.787636 
L 132.474642 235.013372 
L 132.558342 235.27146 
L 132.642043 235.912997 
L 132.725743 234.364468 
L 132.809444 234.622556 
L 132.893144 235.787636 
L 132.976845 234.747912 
L 133.060545 235.138732 
L 133.227946 234.364468 
L 133.311647 235.138732 
L 133.395347 233.973648 
L 133.479048 234.10638 
L 133.562748 233.973648 
L 133.730149 232.808563 
L 133.89755 234.622556 
L 134.064951 233.582828 
L 134.148652 236.303812 
L 134.316053 234.880644 
L 134.399754 234.880644 
L 134.483454 234.747912 
L 134.567155 236.045724 
L 134.734556 234.747912 
L 134.901957 234.489824 
L 135.069358 236.436544 
L 135.320459 234.364468 
L 135.40416 234.231736 
L 135.571561 234.622556 
L 135.655261 234.489824 
L 135.738962 235.138732 
L 135.822662 234.10638 
L 135.906363 234.364468 
L 136.073764 235.654909 
L 136.157464 235.529548 
L 136.241165 235.013372 
L 136.324865 233.71556 
L 136.408566 233.840916 
L 136.492266 235.138732 
L 136.575967 234.747912 
L 136.659668 235.138732 
L 136.743368 234.10638 
L 136.827069 234.364468 
L 136.910769 234.880644 
L 136.99447 234.747912 
L 137.07817 234.364468 
L 137.161871 234.622556 
L 137.245571 232.292387 
L 137.412972 234.747912 
L 137.496673 234.364468 
L 137.580373 234.10638 
L 137.664074 234.364468 
L 137.831475 233.066652 
L 137.915175 234.489824 
L 137.998876 233.457472 
L 138.082576 233.582828 
L 138.166277 233.71556 
L 138.333678 235.138732 
L 138.417378 234.747912 
L 138.501079 235.654909 
L 138.584779 234.747912 
L 138.66848 232.550475 
L 138.919582 233.973648 
L 139.003282 233.457472 
L 139.086983 233.71556 
L 139.170683 233.32474 
L 139.338084 234.747912 
L 139.421785 234.622556 
L 139.505485 235.013372 
L 139.589186 234.231736 
L 139.672886 234.880644 
L 139.840287 233.973648 
L 139.923988 234.489824 
L 140.007688 233.457472 
L 140.091389 233.582828 
L 140.175089 235.013372 
L 140.25879 234.622556 
L 140.426191 233.066652 
L 140.509891 233.71556 
L 140.593592 235.912997 
L 140.844693 233.066652 
L 141.012094 236.178456 
L 141.263196 233.973648 
L 141.346897 234.364468 
L 141.430597 234.10638 
L 141.514298 235.013372 
L 141.597998 234.364468 
L 141.681699 232.417743 
L 141.765399 234.10638 
L 141.8491 233.71556 
L 142.016501 235.013372 
L 142.100201 233.582828 
L 142.183902 234.10638 
L 142.267602 233.582828 
L 142.435003 234.622556 
L 142.686105 233.973648 
L 142.769805 233.066652 
L 142.853506 233.840916 
L 142.937206 233.199384 
L 143.104607 234.231736 
L 143.188308 234.489824 
L 143.355709 233.32474 
L 143.52311 234.622556 
L 143.606811 233.582828 
L 143.774212 234.622556 
L 143.857912 233.582828 
L 143.941613 234.622556 
L 144.025313 233.71556 
L 144.109014 233.973648 
L 144.192714 234.880644 
L 144.276415 234.489824 
L 144.360115 234.747912 
L 144.443816 234.364468 
L 144.611217 235.138732 
L 144.778618 234.622556 
L 144.862318 235.787636 
L 145.029719 234.10638 
L 145.19712 235.529548 
L 145.280821 235.529548 
L 145.364521 235.138732 
L 145.531922 235.654909 
L 145.615623 235.396821 
L 145.699323 235.529548 
L 145.866725 233.71556 
L 146.117826 235.138732 
L 146.368928 233.066652 
L 146.536329 233.582828 
L 146.620029 234.489824 
L 146.871131 232.675832 
L 147.038532 233.32474 
L 147.289633 235.138732 
L 147.373334 234.231736 
L 147.457034 234.489824 
L 147.540735 233.973648 
L 147.624435 232.417743 
L 147.791836 234.489824 
L 147.959237 235.529548 
L 148.042938 234.489824 
L 148.126639 236.303812 
L 148.29404 233.973648 
L 148.461441 234.231736 
L 148.628842 232.941295 
L 148.879943 234.364468 
L 148.963644 233.71556 
L 149.131045 234.622556 
L 149.298446 234.622556 
L 149.382146 235.138732 
L 149.465847 233.457472 
L 149.716948 235.654909 
L 149.800649 234.747912 
L 149.96805 235.912997 
L 150.135451 234.231736 
L 150.219151 234.364468 
L 150.386553 233.840916 
L 150.470253 234.622556 
L 150.553954 234.489824 
L 150.721355 233.582828 
L 150.805055 233.066652 
L 150.972456 234.10638 
L 151.056157 233.973648 
L 151.223558 234.364468 
L 151.307258 234.364468 
L 151.390959 232.675832 
L 151.55836 235.138732 
L 151.725761 233.973648 
L 151.809461 234.10638 
L 151.976862 233.840916 
L 152.144263 234.10638 
L 152.227964 235.138732 
L 152.311664 235.013372 
L 152.395365 235.138732 
L 152.562766 233.457472 
L 152.646467 233.582828 
L 152.897568 235.396821 
L 153.064969 233.71556 
L 153.316071 235.396821 
L 153.399771 235.529548 
L 153.567172 234.364468 
L 153.650873 234.364468 
L 153.901974 233.066652 
L 154.236776 235.27146 
L 154.320477 233.066652 
L 154.404177 233.457472 
L 154.571578 234.747912 
L 154.655279 234.364468 
L 154.82268 233.840916 
L 155.073782 235.529548 
L 155.241183 233.582828 
L 155.324883 233.32474 
L 155.408584 235.27146 
L 155.492284 234.231736 
L 155.575985 234.364468 
L 155.743386 234.880644 
L 155.994487 233.582828 
L 156.161888 236.303812 
L 156.49669 233.71556 
L 156.580391 233.32474 
L 156.747792 234.880644 
L 156.915193 234.489824 
L 156.998893 236.045724 
L 157.082594 235.396821 
L 157.166294 233.32474 
L 157.333696 234.364468 
L 157.417396 235.013372 
L 157.584797 233.71556 
L 157.668498 235.138732 
L 157.835899 233.582828 
L 158.170701 235.396821 
L 158.254401 235.396821 
L 158.589203 233.457472 
L 158.672904 234.10638 
L 158.840305 233.457472 
L 158.924005 233.973648 
L 159.007706 233.457472 
L 159.091406 234.622556 
L 159.342508 233.32474 
L 159.426208 233.71556 
L 159.509909 233.457472 
L 159.59361 235.787636 
L 159.67731 235.27146 
L 159.844711 233.71556 
L 159.928412 233.582828 
L 160.012112 232.675832 
L 160.095813 233.457472 
L 160.179513 233.199384 
L 160.346914 233.973648 
L 160.430615 233.582828 
L 160.514315 235.529548 
L 160.681716 233.457472 
L 160.849117 234.489824 
L 160.932818 233.582828 
L 161.016518 233.973648 
L 161.100219 232.550475 
L 161.183919 234.880644 
L 161.26762 234.231736 
L 161.35132 233.582828 
L 161.435021 234.622556 
L 161.518721 233.457472 
L 161.686122 234.880644 
L 161.769823 234.880644 
L 161.853524 235.013372 
L 162.188326 233.066652 
L 162.355727 234.10638 
L 162.439427 234.489824 
L 162.523128 234.10638 
L 162.606828 234.622556 
L 162.774229 234.10638 
L 162.85793 234.747912 
L 162.94163 234.231736 
L 163.025331 234.622556 
L 163.109031 234.364468 
L 163.276432 236.561901 
L 163.360133 235.529548 
L 163.443833 236.561901 
L 163.611234 233.973648 
L 163.694935 234.364468 
L 163.778635 236.045724 
L 163.862336 235.787636 
L 164.029737 235.138732 
L 164.280839 234.10638 
L 164.364539 235.013372 
L 164.44824 234.10638 
L 164.53194 234.364468 
L 164.615641 235.529548 
L 164.699341 234.622556 
L 164.783042 235.138732 
L 164.866742 234.747912 
L 164.950443 236.045724 
L 165.201544 234.880644 
L 165.285245 235.013372 
L 165.368945 234.364468 
L 165.620047 236.561901 
L 165.703747 237.085453 
L 166.038549 234.364468 
L 166.12225 234.364468 
L 166.20595 233.840916 
L 166.289651 234.10638 
L 166.457052 235.013372 
L 166.791854 232.550475 
L 166.959255 234.231736 
L 167.042956 234.10638 
L 167.126656 234.489824 
L 167.210357 233.457472 
L 167.294057 235.013372 
L 167.377758 234.489824 
L 167.461458 234.622556 
L 167.628859 235.27146 
L 167.71256 234.364468 
L 167.79626 235.138732 
L 167.879961 234.489824 
L 168.047362 235.787636 
L 168.214763 233.840916 
L 168.298463 235.529548 
L 168.382164 235.396821 
L 168.465864 234.622556 
L 168.549565 234.880644 
L 168.633265 235.013372 
L 168.800667 234.622556 
L 168.884367 235.529548 
L 169.051768 234.489824 
L 169.135469 235.654909 
L 169.219169 233.840916 
L 169.470271 235.787636 
L 169.637672 234.880644 
L 169.805073 236.952721 
L 169.888773 236.952721 
L 170.056174 235.27146 
L 170.139875 235.787636 
L 170.223575 236.178456 
L 170.307276 234.880644 
L 170.558377 236.045724 
L 170.642078 236.561901 
L 170.725778 235.138732 
L 170.809479 236.045724 
L 170.97688 234.364468 
L 171.144281 236.561901 
L 171.227982 236.045724 
L 171.311682 237.726985 
L 171.479083 235.654909 
L 171.562784 235.912997 
L 171.646484 237.210809 
L 171.730185 237.085453 
L 171.813885 236.436544 
L 171.897586 237.343541 
L 172.064987 235.912997 
L 172.232388 237.468897 
L 172.316088 237.343541 
L 172.399789 237.210809 
L 172.65089 238.117805 
L 172.901992 235.529548 
L 173.069393 236.952721 
L 173.236794 237.468897 
L 173.320494 237.343541 
L 173.404195 236.178456 
L 173.487896 237.985073 
L 173.571596 236.952721 
L 173.655297 238.375893 
L 173.738997 238.117805 
L 173.822698 236.694633 
L 173.906398 236.952721 
L 173.990099 239.415619 
L 174.2412 237.210809 
L 174.492302 238.89207 
L 174.576002 239.150158 
L 174.659703 237.726985 
L 174.743403 237.985073 
L 174.827104 237.859717 
L 174.910804 238.375893 
L 174.994505 238.250537 
L 175.161906 236.694633 
L 175.245606 236.436544 
L 175.329307 237.726985 
L 175.413007 237.601629 
L 175.580408 239.673708 
L 175.664109 237.726985 
L 175.74781 237.859717 
L 175.83151 237.985073 
L 175.915211 236.303812 
L 175.998911 236.819989 
L 176.166312 237.343541 
L 176.250013 238.766713 
L 176.333713 238.508625 
L 176.501114 237.210809 
L 176.668515 238.508625 
L 176.752216 237.468897 
L 176.835916 238.633981 
L 176.919617 237.085453 
L 177.003317 237.468897 
L 177.170718 238.766713 
L 177.254419 236.561901 
L 177.338119 237.210809 
L 177.42182 236.178456 
L 177.50552 236.694633 
L 177.672921 235.654909 
L 177.840322 237.859717 
L 178.007724 239.415619 
L 178.091424 236.952721 
L 178.258825 237.859717 
L 178.342526 237.985073 
L 178.426226 237.601629 
L 178.509927 238.250537 
L 178.761028 236.436544 
L 178.844729 237.601629 
L 178.928429 237.343541 
L 179.09583 236.694633 
L 179.179531 236.561901 
L 179.263231 236.819989 
L 179.346932 235.787636 
L 179.514333 237.468897 
L 179.598033 236.561901 
L 179.681734 237.726985 
L 179.849135 236.952721 
L 179.932835 238.117805 
L 180.100236 236.561901 
L 180.183937 237.085453 
L 180.267637 237.343541 
L 180.435039 237.085453 
L 180.518739 238.250537 
L 180.60244 236.436544 
L 180.68614 237.726985 
L 180.769841 237.210809 
L 180.853541 238.250537 
L 180.937242 237.985073 
L 181.104643 238.250537 
L 181.188343 237.859717 
L 181.272044 236.561901 
L 181.439445 239.024802 
L 181.606846 236.561901 
L 181.690546 236.436544 
L 181.857947 239.415619 
L 181.941648 239.28289 
L 182.025348 237.985073 
L 182.109049 238.508625 
L 182.192749 238.250537 
L 182.27645 236.819989 
L 182.527551 239.673708 
L 182.694953 237.726985 
L 182.862354 238.766713 
L 183.029755 237.468897 
L 183.197156 238.766713 
L 183.280856 237.985073 
L 183.615658 240.838792 
L 183.86676 237.859717 
L 183.95046 238.766713 
L 184.034161 238.633981 
L 184.117861 236.952721 
L 184.201562 238.766713 
L 184.285262 238.633981 
L 184.368963 237.726985 
L 184.536364 239.540978 
L 184.787465 237.859717 
L 185.038567 238.508625 
L 185.122268 237.859717 
L 185.205968 239.28289 
L 185.289669 238.508625 
L 185.373369 239.799066 
L 185.54077 238.89207 
L 185.624471 238.766713 
L 185.791872 239.799066 
L 186.042973 237.985073 
L 186.126674 238.117805 
L 186.210374 237.985073 
L 186.294075 238.508625 
L 186.377775 240.189884 
L 186.545176 238.375893 
L 186.628877 238.633981 
L 186.796278 240.447972 
L 187.047379 236.952721 
L 187.382182 240.580704 
L 187.465882 236.303812 
L 187.549583 236.952721 
L 187.633283 237.601629 
L 187.716984 236.819989 
L 187.800684 237.085453 
L 188.219187 227.499322 
L 189.139892 196.034691 
L 189.223593 195.776598 
L 189.307293 196.160047 
L 189.474694 197.715947 
L 189.558395 196.034691 
L 189.809497 198.755671 
L 189.976898 198.755671 
L 190.060598 199.271848 
L 190.3117 201.860105 
L 190.3954 202.118193 
L 190.646502 204.581094 
L 190.730202 204.323006 
L 190.813903 205.230002 
L 190.897603 204.70645 
L 191.232405 208.209075 
L 191.316106 208.334431 
L 191.399806 208.850607 
L 191.483507 208.592519 
L 191.567207 209.632247 
L 191.650908 209.374159 
L 192.153111 212.994769 
L 192.236812 213.510945 
L 192.320512 214.941489 
L 192.571614 212.994769 
L 192.739015 215.715754 
L 192.822715 215.715754 
L 192.906416 215.199577 
L 193.073817 218.045923 
L 193.157517 217.138926 
L 193.324918 218.820187 
L 193.408619 218.562099 
L 193.492319 218.304011 
L 193.57602 218.694826 
L 193.65972 218.436738 
L 193.743421 219.085646 
L 193.910822 216.755482 
L 194.078223 219.085646 
L 194.161924 219.727179 
L 194.245624 219.343735 
L 194.413025 221.024995 
L 194.496726 220.766907 
L 194.664127 221.283084 
L 194.747827 220.766907 
L 194.915228 222.706256 
L 194.998929 222.19008 
L 195.25003 223.613253 
L 195.333731 222.838988 
L 195.501132 224.129429 
L 195.584832 224.004073 
L 195.668533 223.097076 
L 195.752233 225.818061 
L 195.835934 224.394888 
L 195.919634 225.818061 
L 196.003335 224.778337 
L 196.170736 227.241234 
L 196.338137 225.427241 
L 196.421838 226.334237 
L 196.505538 225.818061 
L 196.672939 226.466969 
L 196.75664 226.334237 
L 196.84034 227.632054 
L 196.924041 227.36659 
L 197.091442 225.685329 
L 197.258843 227.108502 
L 197.342543 227.632054 
L 197.509944 226.725057 
L 197.761046 230.220306 
L 197.844746 230.869215 
L 197.928447 230.603755 
L 198.179548 227.632054 
L 198.263249 228.922494 
L 198.346949 228.797138 
L 198.598051 224.520249 
L 198.681751 224.520249 
L 198.932853 220.508819 
L 201.109067 139.837835 
L 201.69497 129.219352 
L 201.778671 128.695804 
L 202.197173 122.35421 
L 202.280874 120.931028 
L 202.364574 117.561136 
L 202.448275 117.693872 
L 203.117879 106.942652 
L 203.452681 98.912421 
L 205.294092 57.994387 
L 205.377793 57.220127 
L 205.712595 51.910885 
L 205.796296 51.261982 
L 205.879996 51.394718 
L 205.963697 50.871153 
L 206.047397 51.778149 
L 206.131098 51.261982 
L 206.298499 52.168978 
L 206.382199 51.136625 
L 206.4659 51.520074 
L 207.051803 58.901383 
L 207.386605 67.322443 
L 207.470306 67.322443 
L 207.888808 80.912628 
L 209.228017 122.870377 
L 209.81392 136.858763 
L 210.316124 148.767682 
L 210.483525 151.488672 
L 210.902027 160.425899 
L 210.985728 160.942075 
L 211.32053 166.11858 
L 211.40423 166.767493 
L 211.655332 172.850995 
L 211.739032 173.116459 
L 212.073834 178.160237 
L 212.241235 180.232322 
L 212.99454 188.39528 
L 213.078241 187.871733 
L 213.245642 189.16954 
L 213.329342 189.818453 
L 213.413043 189.302277 
L 213.580444 193.180975 
L 213.664144 192.148622 
L 213.831545 194.353426 
L 213.915246 193.829878 
L 213.998946 193.962606 
L 214.166347 195.776598 
L 214.250048 195.253051 
L 214.333748 193.829878 
L 214.501149 196.034691 
L 214.752251 194.353426 
L 214.835951 195.776598 
L 215.170754 191.374353 
L 215.254454 191.890529 
L 215.338155 191.241626 
L 215.421855 191.374353 
L 215.505556 190.983533 
L 215.589256 188.39528 
L 215.672957 189.16954 
L 217.012165 157.963002 
L 218.686175 105.652207 
L 219.272079 86.745418 
L 219.355779 86.096514 
L 219.606881 79.622183 
L 220.025384 69.129056 
L 220.946089 55.148042 
L 221.02979 54.373782 
L 221.11349 52.427071 
L 221.197191 53.334067 
L 221.448292 50.871153 
L 221.615693 49.447989 
L 221.699394 50.096893 
L 221.783095 49.971536 
L 221.950496 50.096893 
L 222.034196 50.096893 
L 222.117897 49.189896 
L 222.368998 50.096893 
L 222.452699 49.971536 
L 222.954902 54.889967 
L 223.038602 55.015323 
L 223.122303 56.055038 
L 223.289704 59.550305 
L 223.457105 60.199209 
L 224.043008 72.757041 
L 224.126709 74.180205 
L 224.377811 80.52918 
L 224.628912 85.189518 
L 224.880014 91.531112 
L 227.056227 140.870188 
L 227.139928 141.128281 
L 227.47473 147.086426 
L 227.55843 147.477246 
L 227.893232 154.209661 
L 227.976933 154.725837 
L 228.730238 165.993224 
L 228.813938 165.602404 
L 229.06504 167.67449 
L 229.14874 167.416397 
L 229.316141 170.39547 
L 229.399842 170.00465 
L 229.483542 169.746566 
L 229.734644 171.427822 
L 229.818344 170.911646 
L 229.985745 172.725639 
L 230.069446 170.911646 
L 230.153146 171.169739 
L 230.236847 171.302466 
L 230.320547 171.818642 
L 230.655349 169.23039 
L 230.82275 170.911646 
L 231.157553 168.190666 
L 231.241253 168.190666 
L 231.492355 164.179231 
L 231.659756 163.404972 
L 232.245659 156.023653 
L 232.32936 154.983921 
L 232.41306 155.632833 
L 232.664162 149.674679 
L 232.831563 147.602602 
L 233.082664 142.942264 
L 233.250065 142.551444 
L 233.584868 135.170126 
L 233.668568 131.807605 
L 233.752269 132.581874 
L 233.91967 130.900608 
L 235.342578 102.41505 
L 236.263284 89.33367 
L 236.346985 88.684767 
L 236.430685 89.200934 
L 237.18399 81.178083 
L 237.26769 83.117432 
L 237.351391 82.343172 
L 237.435091 82.726621 
L 237.518792 81.952343 
L 237.602492 82.210436 
L 237.686193 81.694269 
L 237.937295 83.375525 
L 238.020995 82.85934 
L 238.104696 83.250169 
L 238.188396 82.210436 
L 238.439498 85.838421 
L 238.606899 85.056781 
L 238.858 86.354589 
L 238.941701 88.293938 
L 239.025401 87.910507 
L 239.360203 91.921923 
L 239.443904 91.796567 
L 239.695005 95.549909 
L 239.778706 97.363901 
L 239.862406 96.066076 
L 239.946107 96.456905 
L 240.113508 100.468339 
L 240.197208 100.85915 
L 240.44831 104.096307 
L 240.532011 104.745228 
L 240.950513 113.15889 
L 241.117914 114.840146 
L 241.201615 114.456716 
L 241.369016 116.270708 
L 241.703818 122.870377 
L 241.954919 125.458639 
L 242.03862 125.849459 
L 242.289721 129.860884 
L 242.373422 129.860884 
L 242.457122 129.602801 
L 242.791925 135.560946 
L 242.875625 134.528594 
L 243.377828 141.261008 
L 243.71263 144.240081 
L 243.796331 143.200357 
L 244.298534 149.416595 
L 244.465935 149.932771 
L 244.549635 149.674679 
L 244.633336 150.581675 
L 244.717036 150.456319 
L 244.800737 150.065499 
L 244.968138 152.653752 
L 245.051839 152.004848 
L 245.30294 153.818841 
L 245.386641 153.560748 
L 245.470341 153.693484 
L 245.554042 155.500097 
L 245.637742 154.983921 
L 245.721443 154.858564 
L 245.888844 152.521024 
L 245.972544 153.169928 
L 246.056245 153.169928 
L 246.139945 153.693484 
L 246.307346 152.911844 
L 246.391047 150.972495 
L 246.474747 151.746764 
L 246.558448 150.065499 
L 246.642148 150.190855 
L 246.809549 150.456319 
L 246.97695 149.025775 
L 247.060651 149.674679 
L 247.228052 148.251506 
L 247.479154 145.530526 
L 247.562854 145.921346 
L 247.646555 145.530526 
L 247.730255 143.333084 
L 247.813956 143.974617 
L 247.897656 144.107353 
L 247.981357 143.458441 
L 248.148758 140.479368 
L 248.232458 140.221284 
L 248.399859 138.665375 
L 248.48356 139.572372 
L 248.818362 134.395866 
L 248.985763 135.170126 
L 249.153164 133.48887 
L 249.487966 128.570448 
L 249.906469 124.68437 
L 249.990169 125.333283 
L 250.324971 120.931028 
L 250.408672 120.79831 
L 250.743474 116.137972 
L 251.161976 112.251894 
L 251.245677 112.126538 
L 251.496778 108.623908 
L 251.580479 109.014737 
L 251.74788 107.075388 
L 251.998982 104.096307 
L 252.082682 105.003303 
L 252.166383 104.354399 
L 252.250083 105.128659 
L 252.417484 103.963588 
L 252.501185 104.745228 
L 252.584885 104.612492 
L 252.668586 104.096307 
L 252.752286 102.41505 
L 252.919687 103.314667 
L 253.087088 103.705496 
L 253.170789 102.798499 
L 253.33819 103.314667 
L 253.42189 101.766147 
L 253.505591 103.056592 
L 253.589291 102.024239 
L 253.672992 102.149596 
L 253.756692 103.18931 
L 253.840393 102.024239 
L 254.175195 104.096307 
L 254.258896 103.314667 
L 254.342596 103.963588 
L 254.426297 105.777581 
L 254.509997 105.003303 
L 254.593698 105.386752 
L 254.761099 106.551841 
L 254.9285 107.333481 
L 255.095901 108.889381 
L 255.179601 109.147474 
L 255.263302 108.498552 
L 255.347002 108.889381 
L 255.430703 110.312545 
L 255.514403 109.663641 
L 255.765505 112.38463 
L 255.849205 111.993819 
L 255.932906 112.38463 
L 256.016606 114.71479 
L 256.100307 113.15889 
L 256.267708 116.396065 
L 256.351409 116.654139 
L 256.686211 120.024032 
L 256.769911 119.375128 
L 257.021013 123.12847 
L 257.188414 122.745021 
L 257.690617 127.921535 
L 257.774317 128.179628 
L 258.025419 132.456517 
L 258.109119 132.581874 
L 258.19282 132.323781 
L 258.611322 133.87969 
L 258.862424 135.693674 
L 258.946125 135.428219 
L 259.280927 139.314288 
L 259.448328 138.665375 
L 259.532028 139.056195 
L 259.615729 138.665375 
L 259.86683 140.612104 
L 259.950531 140.870188 
L 260.034231 141.777184 
L 260.117932 140.737461 
L 260.201632 141.644457 
L 260.285333 140.612104 
L 260.452734 142.684181 
L 260.620135 142.035268 
L 260.703835 142.293361 
L 260.787536 140.737461 
L 260.954937 143.200357 
L 261.038638 143.075001 
L 261.122338 142.684181 
L 261.206039 142.942264 
L 261.37344 144.365437 
L 261.45714 143.200357 
L 261.540841 144.107353 
L 261.791942 142.168004 
L 261.875643 142.293361 
L 261.959343 142.684181 
L 262.043044 141.002915 
L 262.210445 142.809537 
L 262.294145 141.386364 
L 262.377846 142.035268 
L 262.461546 141.909912 
L 262.545247 141.909912 
L 262.712648 138.149199 
L 262.880049 139.056195 
L 262.963749 136.858763 
L 263.04745 138.281935 
L 263.298552 136.335206 
L 263.465953 134.26313 
L 263.549653 134.912043 
L 263.633354 134.65395 
L 263.800755 133.09805 
L 263.884455 133.09805 
L 264.051856 132.323781 
L 264.135557 132.456517 
L 264.302958 130.251704 
L 264.386658 131.158701 
L 264.470359 129.860884 
L 264.554059 130.642525 
L 264.72146 129.735528 
L 264.888861 126.623719 
L 264.972562 127.147276 
L 265.056262 127.147276 
L 265.139963 127.272632 
L 265.474765 124.168203 
L 265.558466 124.426277 
L 265.642166 124.426277 
L 265.725867 122.479566 
L 265.809567 123.003114 
L 265.976968 122.870377 
L 266.31177 119.375128 
L 266.395471 120.540217 
L 266.479171 120.149388 
L 266.730273 117.044968 
L 266.813973 117.561136 
L 267.148775 115.489068 
L 267.232476 115.489068 
L 267.567278 113.033534 
L 267.650978 113.549719 
L 267.734679 113.416983 
L 267.818379 113.807794 
L 267.90208 113.416983 
L 267.985781 111.993819 
L 268.153182 113.549719 
L 268.320583 112.38463 
L 268.404283 113.416983 
L 268.487984 111.60299 
L 268.571684 112.126538 
L 268.655385 113.291627 
L 268.739085 113.15889 
L 268.822786 111.735727 
L 268.990187 113.416983 
L 269.073887 113.291627 
L 269.241288 112.768079 
L 269.324989 113.807794 
L 269.408689 113.675075 
L 269.49239 114.065887 
L 269.57609 113.549719 
L 269.659791 115.098239 
L 269.743491 114.972883 
L 269.910892 114.198623 
L 270.078293 116.654139 
L 270.161994 116.396065 
L 270.329395 116.786876 
L 270.413096 117.561136 
L 270.496796 117.044968 
L 270.580497 117.170324 
L 270.664197 117.303061 
L 270.747898 116.528783 
L 270.831598 116.654139 
L 270.915299 118.858961 
L 271.0827 117.561136 
L 271.250101 119.507865 
L 271.417502 117.951965 
L 271.752304 121.838025 
L 271.919705 120.672954 
L 272.254507 123.91011 
L 272.338207 123.519281 
L 272.589309 124.426277 
L 272.67301 124.68437 
L 272.75671 126.365635 
L 272.924111 125.591366 
L 273.007812 126.107543 
L 273.091512 125.849459 
L 273.510015 131.291428 
L 273.677416 129.860884 
L 273.761116 130.384432 
L 273.844817 131.549521 
L 273.928517 131.158701 
L 274.012218 132.456517 
L 274.095918 132.065697 
L 274.263319 133.230777 
L 274.43072 132.323781 
L 274.598121 134.005046 
L 274.681822 133.48887 
L 274.849223 134.912043 
L 274.932924 135.302854 
L 275.016624 133.363514 
L 275.184025 134.26313 
L 275.351426 133.230777 
L 275.518827 136.077123 
L 275.602528 136.335206 
L 275.686228 136.077123 
L 275.769929 136.467943 
L 275.853629 134.395866 
L 275.93733 134.528594 
L 276.104731 135.428219 
L 276.272132 137.765759 
L 276.439533 134.65395 
L 276.606934 136.335206 
L 276.690634 136.077123 
L 276.774335 136.726026 
L 277.025436 135.560946 
L 277.109137 136.467943 
L 277.192838 135.428219 
L 277.360239 136.60067 
L 277.52764 136.077123 
L 277.61134 136.858763 
L 277.862442 135.428219 
L 277.946142 136.335206 
L 278.113543 134.786677 
L 278.197244 135.170126 
L 278.280944 136.077123 
L 278.532046 134.005046 
L 278.699447 134.528594 
L 278.783147 134.137774 
L 278.866848 133.09805 
L 278.950548 133.746954 
L 279.034249 131.807605 
L 279.117949 132.323781 
L 279.20165 130.642525 
L 279.28535 131.932961 
L 279.536452 129.993612 
L 279.620153 130.900608 
L 279.703853 129.860884 
L 279.787554 130.251704 
L 279.871254 129.086624 
L 280.038655 130.251704 
L 280.122356 129.993612 
L 280.206056 127.921535 
L 280.289757 128.054272 
L 280.457158 126.498363 
L 280.540858 127.014539 
L 280.708259 125.982187 
L 280.79196 126.881812 
L 280.959361 125.849459 
L 281.043061 125.982187 
L 281.210462 124.426277 
L 281.294163 124.942463 
L 281.377863 125.075199 
L 281.461564 124.426277 
L 281.545264 122.479566 
L 281.628965 123.644655 
L 281.712666 123.519281 
L 281.796366 124.168203 
L 281.880067 123.003114 
L 282.047468 124.68437 
L 282.38227 121.705306 
L 282.46597 122.35421 
L 282.549671 124.168203 
L 282.717072 119.633221 
L 282.800772 121.056385 
L 282.884473 120.672954 
L 282.968173 119.242392 
L 283.051874 119.507865 
L 283.135574 120.282125 
L 283.302975 118.984317 
L 283.470376 117.693872 
L 283.554077 118.077321 
L 283.637777 119.891314 
L 283.888879 117.044968 
L 284.139981 119.242392 
L 284.307382 117.693872 
L 284.391082 117.819228 
L 284.558483 120.149388 
L 284.642184 120.282125 
L 284.809585 117.044968 
L 284.893285 117.044968 
L 285.060686 120.79831 
L 285.144387 120.540217 
L 285.311788 117.693872 
L 285.479189 122.35421 
L 285.73029 120.282125 
L 285.813991 120.149388 
L 285.897691 120.282125 
L 286.065092 119.507865 
L 286.148793 121.838025 
L 286.232493 121.189121 
L 286.567296 123.12847 
L 286.734697 122.096117 
L 286.818397 123.12847 
L 286.902098 122.221474 
L 287.069499 124.426277 
L 287.2369 123.644655 
L 287.404301 123.777374 
L 287.488001 125.200546 
L 287.571702 124.426277 
L 287.655402 124.551634 
L 287.739103 124.942463 
L 287.822803 124.68437 
L 287.906504 123.519281 
L 287.990204 126.107543 
L 288.073905 124.293559 
L 288.241306 126.756455 
L 288.325006 126.623719 
L 288.659809 128.312356 
L 288.994611 126.881812 
L 289.078311 127.272632 
L 289.245712 128.828532 
L 289.413113 129.602801 
L 289.496814 129.602801 
L 289.831616 132.065697 
L 289.915316 131.291428 
L 290.166418 132.456517 
L 290.250118 130.509788 
L 290.668621 133.746954 
L 290.836022 134.137774 
L 290.919723 132.839957 
L 291.003423 133.746954 
L 291.087124 132.972694 
L 291.170824 133.621597 
L 291.338225 131.549521 
L 291.505626 132.581874 
L 291.589327 131.416784 
L 291.673027 131.674877 
L 291.756728 131.549521 
L 291.840428 131.674877 
L 292.007829 130.900608 
L 292.17523 133.09805 
L 292.426332 130.384432 
L 292.510032 133.09805 
L 292.593733 132.323781 
L 292.677433 132.581874 
L 292.928535 130.509788 
L 293.012235 129.860884 
L 293.095936 130.642525 
L 293.179636 132.714601 
L 293.263337 132.323781 
L 293.347038 132.456517 
L 293.430738 131.932961 
L 293.598139 132.581874 
L 293.932941 129.860884 
L 294.016642 130.767881 
L 294.100342 129.993612 
L 294.267743 132.581874 
L 294.435144 130.642525 
L 294.518845 132.323781 
L 294.769946 127.663452 
L 294.853647 129.602801 
L 295.188449 127.663452 
L 295.272149 127.530715 
L 295.35585 128.054272 
L 295.43955 126.881812 
L 295.523251 127.014539 
L 295.606952 128.695804 
L 295.690652 125.716723 
L 295.774353 126.365635 
L 295.858053 124.551634 
L 296.025454 127.014539 
L 296.109155 126.365635 
L 296.276556 125.075199 
L 296.360256 125.458639 
L 296.443957 124.168203 
L 296.527657 124.942463 
L 296.695058 124.035466 
L 296.862459 125.075199 
L 296.94616 125.200546 
L 297.113561 121.189121 
L 297.364662 124.817107 
L 297.448363 123.644655 
L 297.532063 124.035466 
L 297.615764 123.003114 
L 297.699464 123.261206 
L 297.866866 125.333283 
L 298.034267 123.91011 
L 298.117967 123.777374 
L 298.201668 124.168203 
L 298.285368 123.519281 
L 298.369069 123.91011 
L 298.452769 123.261206 
L 298.62017 124.293559 
L 298.703871 123.261206 
L 298.787571 123.519281 
L 298.871272 124.426277 
L 299.038673 121.57257 
L 299.122373 120.672954 
L 299.373475 122.221474 
L 299.457175 120.79831 
L 299.708277 121.705306 
L 299.791977 121.963381 
L 299.959378 123.12847 
L 300.043079 123.644655 
L 300.126779 123.12847 
L 300.21048 121.447214 
L 300.294181 121.838025 
L 300.377881 122.096117 
L 300.461582 121.57257 
L 300.545282 122.221474 
L 300.628983 121.838025 
L 300.712683 122.870377 
L 300.880084 121.705306 
L 300.963785 122.221474 
L 301.047485 122.096117 
L 301.131186 122.221474 
L 301.214886 122.096117 
L 301.298587 123.261206 
L 301.382287 122.096117 
L 301.465988 122.479566 
L 301.549688 122.745021 
L 301.80079 124.817107 
L 301.968191 123.261206 
L 302.051891 123.777374 
L 302.219292 127.014539 
L 302.302993 126.881812 
L 302.386693 127.530715 
L 302.470394 125.849459 
L 302.637795 128.054272 
L 302.805196 126.756455 
L 302.888897 126.881812 
L 303.056298 126.365635 
L 303.139998 126.365635 
L 303.223699 127.014539 
L 303.307399 126.756455 
L 303.3911 127.014539 
L 303.642201 125.849459 
L 303.809602 126.756455 
L 303.893303 128.312356 
L 303.977003 128.054272 
L 304.144404 126.881812 
L 304.228105 127.147276 
L 304.479206 128.054272 
L 304.562907 128.570448 
L 304.646607 127.788808 
L 304.814009 129.344708 
L 305.06511 128.437712 
L 305.148811 129.219352 
L 305.232511 129.086624 
L 305.399912 129.860884 
L 305.483613 128.695804 
L 305.651014 129.993612 
L 305.734714 129.602801 
L 305.902115 131.674877 
L 305.985816 130.118977 
L 306.069516 131.158701 
L 306.153217 130.251704 
L 306.236917 131.158701 
L 306.320618 130.509788 
L 306.404318 130.767881 
L 306.488019 129.602801 
L 306.571719 129.735528 
L 306.65542 130.118977 
L 306.73912 131.549521 
L 306.990222 128.828532 
L 307.157623 131.158701 
L 307.325024 129.602801 
L 307.408725 130.384432 
L 307.492425 128.437712 
L 307.576126 131.025964 
L 307.659826 129.860884 
L 307.743527 130.118977 
L 307.827227 129.735528 
L 307.994628 127.530715 
L 308.078329 127.921535 
L 308.162029 129.086624 
L 308.24573 127.921535 
L 308.413131 128.570448 
L 308.496831 127.921535 
L 308.664232 128.570448 
L 308.831633 128.054272 
L 308.915334 128.570448 
L 308.999034 128.179628 
L 309.166435 129.602801 
L 309.333836 129.086624 
L 309.501238 128.953888 
L 309.584938 129.735528 
L 309.668639 129.219352 
L 309.752339 129.477436 
L 309.91974 127.530715 
L 310.003441 127.788808 
L 310.087141 129.477436 
L 310.254542 128.437712 
L 310.421943 129.086624 
L 310.673045 125.591366 
L 310.840446 128.179628 
L 310.924146 127.921535 
L 311.007847 128.312356 
L 311.091547 127.272632 
L 311.175248 127.405359 
L 311.342649 126.623719 
L 311.51005 128.695804 
L 311.677451 125.591366 
L 311.761152 125.849459 
L 311.844852 127.921535 
L 312.095954 124.426277 
L 312.179654 124.68437 
L 312.263355 124.68437 
L 312.347055 124.168203 
L 312.430756 124.68437 
L 312.514456 123.386563 
L 312.681857 124.293559 
L 312.849258 123.777374 
L 312.932959 123.519281 
L 313.016659 124.817107 
L 313.10036 124.68437 
L 313.18406 123.644655 
L 313.267761 123.91011 
L 313.351461 123.12847 
L 313.435162 124.168203 
L 313.518862 124.035466 
L 313.602563 124.551634 
L 313.686263 122.870377 
L 313.937365 125.200546 
L 314.104766 123.644655 
L 314.188467 121.963381 
L 314.355868 125.200546 
L 314.523269 123.91011 
L 314.69067 124.817107 
L 314.77437 124.942463 
L 315.025472 123.386563 
L 315.192873 123.777374 
L 315.276573 123.12847 
L 315.360274 123.386563 
L 315.443974 124.168203 
L 315.695076 122.870377 
L 315.778776 121.838025 
L 316.113578 123.777374 
L 316.28098 122.221474 
L 316.532081 123.91011 
L 316.783183 122.612303 
L 317.201685 124.942463 
L 317.285386 124.68437 
L 317.369086 125.200546 
L 317.536487 124.817107 
L 317.620188 124.942463 
L 317.787589 127.147276 
L 317.871289 126.881812 
L 317.95499 127.014539 
L 318.122391 125.333283 
L 318.206091 125.075199 
L 318.289792 125.982187 
L 318.373492 125.591366 
L 318.457193 126.498363 
L 318.540893 125.982187 
L 318.791995 128.054272 
L 319.043097 126.623719 
L 319.126797 126.365635 
L 319.210498 125.333283 
L 319.294198 126.881812 
L 319.377899 126.107543 
L 319.461599 126.365635 
L 319.5453 127.014539 
L 319.629 126.756455 
L 319.712701 125.982187 
L 319.880102 127.405359 
L 319.963802 127.147276 
L 320.214904 127.921535 
L 320.298604 127.921535 
L 320.382305 127.530715 
L 320.466005 127.788808 
L 320.549706 127.272632 
L 320.800807 128.437712 
L 320.884508 127.272632 
L 321.051909 128.953888 
L 321.13561 129.086624 
L 321.303011 127.663452 
L 321.386711 128.179628 
L 321.554112 130.642525 
L 321.637813 130.384432 
L 321.721513 129.086624 
L 321.805214 129.477436 
L 322.056315 130.384432 
L 322.140016 130.118977 
L 322.307417 130.251704 
L 322.391117 129.860884 
L 322.474818 129.993612 
L 322.558518 130.384432 
L 322.725919 129.477436 
L 322.89332 129.993612 
L 323.060721 128.953888 
L 323.228123 129.993612 
L 323.395524 128.695804 
L 323.479224 129.477436 
L 323.730326 128.570448 
L 323.814026 129.219352 
L 324.148828 127.272632 
L 324.232529 128.695804 
L 324.39993 127.921535 
L 324.567331 128.695804 
L 324.734732 127.788808 
L 324.902133 128.953888 
L 325.069534 127.405359 
L 325.153234 128.054272 
L 325.236935 129.086624 
L 325.320635 128.828532 
L 325.404336 128.953888 
L 325.488037 129.993612 
L 325.571737 127.921535 
L 325.655438 128.828532 
L 325.822839 127.788808 
L 325.99024 126.623719 
L 326.07394 127.014539 
L 326.325042 129.219352 
L 326.576143 127.788808 
L 326.659844 128.437712 
L 326.827245 127.788808 
L 326.910945 128.828532 
L 327.078346 127.530715 
L 327.162047 128.179628 
L 327.245747 127.272632 
L 327.329448 127.405359 
L 327.74795 125.333283 
L 327.831651 126.107543 
L 327.999052 124.942463 
L 328.166453 125.716723 
L 328.250154 124.942463 
L 328.333854 125.982187 
L 328.417555 125.333283 
L 328.501255 125.982187 
L 328.584956 125.716723 
L 328.668656 126.623719 
L 328.919758 124.68437 
L 329.003458 125.982187 
L 329.087159 125.333283 
L 329.33826 127.014539 
L 329.505661 125.200546 
L 329.673062 126.623719 
L 329.756763 126.107543 
L 329.840463 127.272632 
L 329.924164 126.881812 
L 330.091565 125.716723 
L 330.175266 125.982187 
L 330.258966 125.716723 
L 330.426367 126.498363 
L 330.510068 126.240279 
L 330.593768 125.075199 
L 330.761169 127.014539 
L 331.012271 126.107543 
L 331.095971 127.405359 
L 331.179672 127.272632 
L 331.430773 125.458639 
L 331.598174 127.147276 
L 331.681875 126.623719 
L 331.765575 125.716723 
L 331.849276 126.240279 
L 331.932976 125.716723 
L 332.016677 126.365635 
L 332.100377 125.849459 
L 332.184078 125.982187 
L 332.267778 125.591366 
L 332.351479 125.982187 
L 332.51888 124.293559 
L 332.602581 125.333283 
L 332.686281 125.075199 
L 332.853682 125.458639 
L 332.937383 126.623719 
L 333.021083 126.107543 
L 333.104784 127.272632 
L 333.188484 126.756455 
L 333.355885 127.788808 
L 333.439586 126.623719 
L 333.523286 127.921535 
L 333.690687 127.272632 
L 333.774388 127.921535 
L 333.941789 127.147276 
L 334.025489 127.663452 
L 334.10919 126.756455 
L 334.360291 128.437712 
L 334.443992 128.953888 
L 334.527692 128.695804 
L 334.611393 129.735528 
L 334.695093 129.602801 
L 334.946195 128.179628 
L 335.113596 129.344708 
L 335.197297 129.602801 
L 335.280997 128.054272 
L 335.364698 128.570448 
L 335.448398 128.312356 
L 335.532099 127.147276 
L 335.6995 128.054272 
L 335.7832 127.530715 
L 335.950601 129.219352 
L 336.118002 128.437712 
L 336.201703 128.695804 
L 336.285403 127.272632 
L 336.536505 128.953888 
L 336.703906 126.881812 
L 336.787606 128.054272 
L 336.871307 127.405359 
L 337.038708 128.953888 
L 337.122409 128.054272 
L 337.206109 129.477436 
L 337.457211 126.240279 
L 337.792013 129.344708 
L 337.875713 129.086624 
L 337.959414 128.695804 
L 338.377916 130.509788 
L 338.545317 128.695804 
L 338.629018 128.179628 
L 338.796419 130.509788 
L 338.880119 129.735528 
L 338.96382 129.860884 
L 339.04752 129.735528 
L 339.298622 127.147276 
L 339.549724 129.219352 
L 339.633424 128.054272 
L 339.800825 128.695804 
L 339.968226 128.953888 
L 340.051927 128.695804 
L 340.303028 126.498363 
L 340.386729 126.623719 
L 340.63783 127.921535 
L 340.805231 127.663452 
L 340.888932 128.570448 
L 340.972632 127.788808 
L 341.056333 128.054272 
L 341.140033 127.788808 
L 341.223734 126.107543 
L 341.558536 128.312356 
L 341.642237 128.312356 
L 341.725937 126.756455 
L 341.809638 128.312356 
L 341.977039 126.240279 
L 342.22814 128.953888 
L 342.479242 127.530715 
L 342.562942 129.219352 
L 342.646643 127.530715 
L 342.730343 127.921535 
L 342.814044 128.695804 
L 342.897744 128.312356 
L 342.981445 126.881812 
L 343.148846 127.921535 
L 343.651049 124.68437 
L 343.81845 125.716723 
L 343.985851 124.68437 
L 344.153252 126.365635 
L 344.320653 124.168203 
L 344.571755 126.240279 
L 344.655455 124.168203 
L 344.822856 125.200546 
L 344.906557 124.817107 
L 345.073958 125.458639 
L 345.157658 124.293559 
L 345.241359 125.982187 
L 345.325059 125.716723 
L 345.49246 124.168203 
L 345.743562 127.272632 
L 345.827262 125.982187 
L 345.910963 127.405359 
L 345.994663 126.498363 
L 346.078364 127.014539 
L 346.162064 125.982187 
L 346.413166 127.147276 
L 346.496867 126.498363 
L 346.747968 127.921535 
L 346.831669 127.530715 
L 346.915369 127.014539 
L 346.99907 125.591366 
L 347.250171 127.788808 
L 347.333872 127.272632 
L 347.417572 127.272632 
L 347.501273 127.663452 
L 347.584973 126.365635 
L 347.752374 127.921535 
L 347.919775 127.272632 
L 348.003476 127.405359 
L 348.254577 126.240279 
L 348.421978 127.530715 
L 348.505679 126.240279 
L 348.67308 126.881812 
L 348.756781 126.881812 
L 348.840481 126.240279 
L 348.924182 127.663452 
L 349.007882 126.881812 
L 349.258984 129.086624 
L 349.342684 128.828532 
L 349.426385 128.695804 
L 349.593786 126.498363 
L 349.844887 128.828532 
L 349.928588 128.828532 
L 350.012288 129.086624 
L 350.095989 128.570448 
L 350.26339 129.086624 
L 350.34709 127.272632 
L 350.430791 128.179628 
L 350.514491 127.921535 
L 350.598192 128.570448 
L 350.681892 128.179628 
L 350.765593 129.602801 
L 350.849294 127.530715 
L 350.932994 127.788808 
L 351.100395 128.953888 
L 351.184096 128.312356 
L 351.267796 128.437712 
L 351.351497 128.437712 
L 351.518898 129.219352 
L 351.686299 128.312356 
L 351.769999 128.828532 
L 351.9374 126.756455 
L 352.104801 128.179628 
L 352.188502 127.272632 
L 352.272202 128.570448 
L 352.355903 128.179628 
L 352.439603 128.179628 
L 352.774405 125.716723 
L 353.025507 127.921535 
L 353.109207 127.663452 
L 353.192908 126.756455 
L 353.360309 128.054272 
L 353.44401 127.530715 
L 353.52771 127.921535 
L 353.695111 127.147276 
L 353.778812 128.179628 
L 353.862512 127.405359 
L 353.946213 128.570448 
L 354.029913 128.437712 
L 354.197314 127.272632 
L 354.281015 128.179628 
L 354.364715 127.014539 
L 354.448416 128.828532 
L 354.615817 126.623719 
L 354.699517 127.405359 
L 354.783218 129.602801 
L 355.034319 126.623719 
L 355.20172 127.663452 
L 355.369121 127.014539 
L 355.452822 128.054272 
L 355.536523 127.921535 
L 355.620223 126.881812 
L 355.703924 127.147276 
L 355.787624 127.530715 
L 355.871325 127.405359 
L 355.955025 127.663452 
L 356.038726 126.365635 
L 356.122426 126.498363 
L 356.206127 126.240279 
L 356.289827 124.942463 
L 356.457228 126.498363 
L 356.624629 126.498363 
L 356.70833 127.272632 
L 356.79203 127.147276 
L 356.959431 126.498363 
L 357.043132 126.881812 
L 357.294233 124.551634 
L 357.377934 124.68437 
L 357.629035 127.921535 
L 357.880137 126.240279 
L 357.963838 126.881812 
L 358.214939 128.179628 
L 358.38234 125.075199 
L 358.633442 127.788808 
L 358.717142 126.623719 
L 358.884543 127.921535 
L 359.135645 126.107543 
L 359.219345 127.014539 
L 359.303046 126.756455 
L 359.386746 125.849459 
L 359.470447 126.107543 
L 359.637848 126.498363 
L 359.721548 127.272632 
L 359.805249 126.498363 
L 359.888949 127.663452 
L 359.97265 125.849459 
L 360.056351 126.107543 
L 360.140051 125.716723 
L 360.307452 126.365635 
L 360.391153 126.365635 
L 360.558554 127.014539 
L 360.725955 124.942463 
L 360.893356 125.333283 
L 360.977056 125.333283 
L 361.144457 126.623719 
L 361.311858 125.982187 
L 361.395559 124.551634 
L 361.56296 125.716723 
L 361.64666 124.817107 
L 361.814061 127.272632 
L 361.897762 126.756455 
L 362.148863 127.921535 
L 362.232564 127.405359 
L 362.316264 125.591366 
L 362.399965 126.881812 
L 362.567366 126.107543 
L 362.651067 125.982187 
L 362.818468 128.312356 
L 362.985869 124.817107 
L 363.069569 124.68437 
L 363.23697 127.405359 
L 363.404371 125.849459 
L 363.488072 125.982187 
L 363.571772 126.498363 
L 363.655473 125.849459 
L 363.739173 126.107543 
L 363.822874 127.272632 
L 364.073975 124.293559 
L 364.157676 124.68437 
L 364.325077 123.644655 
L 364.492478 126.498363 
L 364.576178 125.849459 
L 364.74358 123.91011 
L 364.82728 124.168203 
L 364.910981 124.942463 
L 364.994681 124.168203 
L 365.078382 125.075199 
L 365.162082 124.551634 
L 365.496884 126.756455 
L 365.580585 125.849459 
L 365.747986 127.663452 
L 365.831686 127.272632 
L 365.915387 127.530715 
L 365.999087 127.272632 
L 366.082788 125.716723 
L 366.250189 126.881812 
L 366.333889 127.405359 
L 366.41759 126.881812 
L 366.50129 128.054272 
L 366.668691 126.881812 
L 367.003494 127.921535 
L 367.254595 127.147276 
L 367.338296 126.240279 
L 367.505697 128.312356 
L 367.589397 126.756455 
L 367.673098 127.272632 
L 367.756798 126.623719 
L 367.840499 127.921535 
L 367.924199 126.623719 
L 368.0079 127.014539 
L 368.175301 127.147276 
L 368.342702 125.458639 
L 368.593803 127.530715 
L 368.677504 127.272632 
L 368.928605 125.591366 
L 369.096006 126.756455 
L 369.179707 126.365635 
L 369.514509 128.312356 
L 369.68191 126.107543 
L 369.765611 126.498363 
L 370.100413 127.788808 
L 370.184113 127.147276 
L 370.267814 127.530715 
L 370.351514 128.953888 
L 370.518915 127.014539 
L 370.686316 126.756455 
L 370.770017 128.179628 
L 371.104819 126.623719 
L 371.188519 127.921535 
L 371.27222 127.405359 
L 371.35592 127.788808 
L 371.607022 125.591366 
L 371.690723 125.458639 
L 371.774423 126.240279 
L 371.858124 126.107543 
L 372.109225 124.551634 
L 372.360327 125.333283 
L 372.444027 125.200546 
L 372.527728 123.91011 
L 372.611428 124.035466 
L 372.695129 123.519281 
L 372.86253 125.075199 
L 372.94623 124.942463 
L 373.029931 125.333283 
L 373.113631 125.200546 
L 373.197332 125.200546 
L 373.281032 126.498363 
L 373.448433 124.817107 
L 373.699535 126.240279 
L 373.783235 126.756455 
L 373.950637 125.075199 
L 374.034337 124.426277 
L 374.118038 125.716723 
L 374.201738 125.075199 
L 374.369139 125.849459 
L 374.53654 124.942463 
L 374.787642 126.498363 
L 374.955043 125.591366 
L 375.038743 125.591366 
L 375.122444 127.147276 
L 375.206144 127.014539 
L 375.289845 126.756455 
L 375.373545 128.054272 
L 375.624647 125.716723 
L 375.792048 128.054272 
L 376.043149 125.200546 
L 376.12685 125.075199 
L 376.210551 127.014539 
L 376.294251 125.458639 
L 376.377952 125.849459 
L 376.461652 125.075199 
L 376.545353 125.849459 
L 376.629053 124.817107 
L 376.712754 125.458639 
L 376.963855 123.261206 
L 377.131256 125.333283 
L 377.214957 125.982187 
L 377.382358 125.458639 
L 377.466058 125.716723 
L 377.549759 128.953888 
L 377.633459 128.570448 
L 377.80086 125.075199 
L 377.884561 127.921535 
L 377.968261 127.663452 
L 378.051962 127.788808 
L 378.135662 128.312356 
L 378.219363 128.179628 
L 378.386764 125.849459 
L 378.470464 124.035466 
L 378.721566 127.663452 
L 378.888967 125.849459 
L 379.056368 127.272632 
L 379.140069 126.881812 
L 379.223769 127.014539 
L 379.30747 127.788808 
L 379.474871 126.498363 
L 379.558571 126.240279 
L 379.725972 127.921535 
L 379.977074 125.849459 
L 380.060774 127.530715 
L 380.144475 127.272632 
L 380.228175 127.530715 
L 380.311876 127.014539 
L 380.395576 127.147276 
L 380.479277 127.921535 
L 380.89778 125.333283 
L 380.98148 125.333283 
L 381.148881 126.498363 
L 381.232582 126.240279 
L 381.316282 124.942463 
L 381.567384 127.788808 
L 381.734785 126.623719 
L 381.902186 126.240279 
L 381.985886 126.107543 
L 382.153287 128.312356 
L 382.320688 126.623719 
L 382.488089 128.312356 
L 382.57179 128.179628 
L 382.65549 127.272632 
L 382.739191 127.788808 
L 382.822891 126.498363 
L 382.906592 127.788808 
L 382.990292 127.663452 
L 383.073993 128.312356 
L 383.241394 127.405359 
L 383.408795 128.312356 
L 383.492496 129.086624 
L 383.994699 126.240279 
L 384.2458 128.570448 
L 384.329501 128.054272 
L 384.413201 128.179628 
L 384.496902 127.147276 
L 384.580602 127.272632 
L 384.664303 126.881812 
L 384.748003 127.405359 
L 384.915404 125.075199 
L 384.999105 125.200546 
L 385.250206 127.530715 
L 385.417608 128.054272 
L 385.668709 126.756455 
L 385.75241 126.756455 
L 385.919811 127.921535 
L 386.003511 127.921535 
L 386.170912 128.312356 
L 386.254613 128.312356 
L 386.338313 127.014539 
L 386.422014 127.405359 
L 386.589415 128.054272 
L 386.673115 128.570448 
L 386.756816 128.312356 
L 386.924217 129.344708 
L 387.007917 129.219352 
L 387.091618 127.788808 
L 387.175318 128.312356 
L 387.42642 125.849459 
L 387.51012 126.881812 
L 387.677521 126.365635 
L 387.928623 128.054272 
L 388.096024 126.498363 
L 388.263425 128.437712 
L 388.347126 128.054272 
L 388.430826 127.530715 
L 388.598227 125.458639 
L 388.765628 127.405359 
L 388.849329 127.014539 
L 388.849329 127.014539 
" style="fill:none;stroke:#1f77b4;stroke-linecap:round;stroke-width:1.5;"/>
   </g>
   <g id="line2d_13">
    <path clip-path="url(#p91d2aaab57)" d="M 80.827633 -1 
L 80.912812 289 
L 80.912812 289 
" style="fill:none;stroke:#ff7f0e;stroke-linecap:round;stroke-width:1.5;"/>
   </g>
   <g id="patch_3">
    <path d="M 54 252 
L 54 34.56 
" style="fill:none;stroke:#cccccc;stroke-linecap:square;stroke-linejoin:miter;stroke-width:0.8;"/>
   </g>
   <g id="patch_4">
    <path d="M 388.8 252 
L 388.8 34.56 
" style="fill:none;stroke:#cccccc;stroke-linecap:square;stroke-linejoin:miter;stroke-width:0.8;"/>
   </g>
   <g id="patch_5">
    <path d="M 54 252 
L 388.8 252 
" style="fill:none;stroke:#cccccc;stroke-linecap:square;stroke-linejoin:miter;stroke-width:0.8;"/>
   </g>
   <g id="patch_6">
    <path d="M 54 34.56 
L 388.8 34.56 
" style="fill:none;stroke:#cccccc;stroke-linecap:square;stroke-linejoin:miter;stroke-width:0.8;"/>
   </g>
  </g>
 </g>
 <defs>
  <clipPath id="p91d2aaab57">
   <rect height="217.44" width="334.8" x="54" y="34.56"/>
  </clipPath>
 </defs>
</svg>
