<?xml version="1.0" encoding="utf-8" standalone="no"?>
<!DOCTYPE svg PUBLIC "-//W3C//DTD SVG 1.1//EN"
  "http://www.w3.org/Graphics/SVG/1.1/DTD/svg11.dtd">
<!-- Created with matplotlib (https://matplotlib.org/) -->
<svg height="288pt" version="1.1" viewBox="0 0 432 288" width="432pt" xmlns="http://www.w3.org/2000/svg" xmlns:xlink="http://www.w3.org/1999/xlink">
 <metadata>
  <rdf:RDF xmlns:cc="http://creativecommons.org/ns#" xmlns:dc="http://purl.org/dc/elements/1.1/" xmlns:rdf="http://www.w3.org/1999/02/22-rdf-syntax-ns#">
   <cc:Work>
    <dc:type rdf:resource="http://purl.org/dc/dcmitype/StillImage"/>
    <dc:date>2022-05-25T22:50:35.912778</dc:date>
    <dc:format>image/svg+xml</dc:format>
    <dc:creator>
     <cc:Agent>
      <dc:title>Matplotlib v3.3.3, https://matplotlib.org/</dc:title>
     </cc:Agent>
    </dc:creator>
   </cc:Work>
  </rdf:RDF>
 </metadata>
 <defs>
  <style type="text/css">*{stroke-linecap:butt;stroke-linejoin:round;}</style>
 </defs>
 <g id="figure_1">
  <g id="patch_1">
   <path d="M 0 288 
L 432 288 
L 432 0 
L 0 0 
z
" style="fill:#ffffff;"/>
  </g>
  <g id="axes_1">
   <g id="patch_2">
    <path d="M 54 252 
L 388.8 252 
L 388.8 34.56 
L 54 34.56 
z
" style="fill:#ffffff;"/>
   </g>
   <g id="matplotlib.axis_1">
    <g id="xtick_1">
     <g id="line2d_1">
      <path clip-path="url(#pca8e4aab0e)" d="M 54 252 
L 54 34.56 
" style="fill:none;stroke:#cccccc;stroke-linecap:round;stroke-width:0.8;"/>
     </g>
     <g id="text_1">
      <!-- 0.000100 -->
      <g style="fill:#262626;" transform="translate(33.147656 266.157812)scale(0.1 -0.1)">
       <defs>
        <path d="M 4.15625 35.296875 
Q 4.15625 48 6.765625 55.734375 
Q 9.375 63.484375 14.515625 67.671875 
Q 19.671875 71.875 27.484375 71.875 
Q 33.25 71.875 37.59375 69.546875 
Q 41.9375 67.234375 44.765625 62.859375 
Q 47.609375 58.5 49.21875 52.21875 
Q 50.828125 45.953125 50.828125 35.296875 
Q 50.828125 22.703125 48.234375 14.96875 
Q 45.65625 7.234375 40.5 3 
Q 35.359375 -1.21875 27.484375 -1.21875 
Q 17.140625 -1.21875 11.234375 6.203125 
Q 4.15625 15.140625 4.15625 35.296875 
z
M 13.1875 35.296875 
Q 13.1875 17.671875 17.3125 11.828125 
Q 21.4375 6 27.484375 6 
Q 33.546875 6 37.671875 11.859375 
Q 41.796875 17.71875 41.796875 35.296875 
Q 41.796875 52.984375 37.671875 58.78125 
Q 33.546875 64.59375 27.390625 64.59375 
Q 21.34375 64.59375 17.71875 59.46875 
Q 13.1875 52.9375 13.1875 35.296875 
z
" id="ArialMT-48"/>
        <path d="M 9.078125 0 
L 9.078125 10.015625 
L 19.09375 10.015625 
L 19.09375 0 
z
" id="ArialMT-46"/>
        <path d="M 37.25 0 
L 28.46875 0 
L 28.46875 56 
Q 25.296875 52.984375 20.140625 49.953125 
Q 14.984375 46.921875 10.890625 45.40625 
L 10.890625 53.90625 
Q 18.265625 57.375 23.78125 62.296875 
Q 29.296875 67.234375 31.59375 71.875 
L 37.25 71.875 
z
" id="ArialMT-49"/>
       </defs>
       <use xlink:href="#ArialMT-48"/>
       <use x="55.615234" xlink:href="#ArialMT-46"/>
       <use x="83.398438" xlink:href="#ArialMT-48"/>
       <use x="139.013672" xlink:href="#ArialMT-48"/>
       <use x="194.628906" xlink:href="#ArialMT-48"/>
       <use x="250.244141" xlink:href="#ArialMT-49"/>
       <use x="305.859375" xlink:href="#ArialMT-48"/>
       <use x="361.474609" xlink:href="#ArialMT-48"/>
      </g>
     </g>
    </g>
    <g id="xtick_2">
     <g id="line2d_2">
      <path clip-path="url(#pca8e4aab0e)" d="M 101.828571 252 
L 101.828571 34.56 
" style="fill:none;stroke:#cccccc;stroke-linecap:round;stroke-width:0.8;"/>
     </g>
     <g id="text_2">
      <!-- 0.000105 -->
      <g style="fill:#262626;" transform="translate(80.976228 266.157812)scale(0.1 -0.1)">
       <defs>
        <path d="M 4.15625 18.75 
L 13.375 19.53125 
Q 14.40625 12.796875 18.140625 9.390625 
Q 21.875 6 27.15625 6 
Q 33.5 6 37.890625 10.78125 
Q 42.28125 15.578125 42.28125 23.484375 
Q 42.28125 31 38.0625 35.34375 
Q 33.84375 39.703125 27 39.703125 
Q 22.75 39.703125 19.328125 37.765625 
Q 15.921875 35.84375 13.96875 32.765625 
L 5.71875 33.84375 
L 12.640625 70.609375 
L 48.25 70.609375 
L 48.25 62.203125 
L 19.671875 62.203125 
L 15.828125 42.96875 
Q 22.265625 47.46875 29.34375 47.46875 
Q 38.71875 47.46875 45.15625 40.96875 
Q 51.609375 34.46875 51.609375 24.265625 
Q 51.609375 14.546875 45.953125 7.46875 
Q 39.0625 -1.21875 27.15625 -1.21875 
Q 17.390625 -1.21875 11.203125 4.25 
Q 5.03125 9.71875 4.15625 18.75 
z
" id="ArialMT-53"/>
       </defs>
       <use xlink:href="#ArialMT-48"/>
       <use x="55.615234" xlink:href="#ArialMT-46"/>
       <use x="83.398438" xlink:href="#ArialMT-48"/>
       <use x="139.013672" xlink:href="#ArialMT-48"/>
       <use x="194.628906" xlink:href="#ArialMT-48"/>
       <use x="250.244141" xlink:href="#ArialMT-49"/>
       <use x="305.859375" xlink:href="#ArialMT-48"/>
       <use x="361.474609" xlink:href="#ArialMT-53"/>
      </g>
     </g>
    </g>
    <g id="xtick_3">
     <g id="line2d_3">
      <path clip-path="url(#pca8e4aab0e)" d="M 149.657143 252 
L 149.657143 34.56 
" style="fill:none;stroke:#cccccc;stroke-linecap:round;stroke-width:0.8;"/>
     </g>
     <g id="text_3">
      <!-- 0.000110 -->
      <g style="fill:#262626;" transform="translate(129.173549 266.157812)scale(0.1 -0.1)">
       <use xlink:href="#ArialMT-48"/>
       <use x="55.615234" xlink:href="#ArialMT-46"/>
       <use x="83.398438" xlink:href="#ArialMT-48"/>
       <use x="139.013672" xlink:href="#ArialMT-48"/>
       <use x="194.628906" xlink:href="#ArialMT-48"/>
       <use x="250.244141" xlink:href="#ArialMT-49"/>
       <use x="298.484375" xlink:href="#ArialMT-49"/>
       <use x="354.099609" xlink:href="#ArialMT-48"/>
      </g>
     </g>
    </g>
    <g id="xtick_4">
     <g id="line2d_4">
      <path clip-path="url(#pca8e4aab0e)" d="M 197.485714 252 
L 197.485714 34.56 
" style="fill:none;stroke:#cccccc;stroke-linecap:round;stroke-width:0.8;"/>
     </g>
     <g id="text_4">
      <!-- 0.000115 -->
      <g style="fill:#262626;" transform="translate(177.002121 266.157812)scale(0.1 -0.1)">
       <use xlink:href="#ArialMT-48"/>
       <use x="55.615234" xlink:href="#ArialMT-46"/>
       <use x="83.398438" xlink:href="#ArialMT-48"/>
       <use x="139.013672" xlink:href="#ArialMT-48"/>
       <use x="194.628906" xlink:href="#ArialMT-48"/>
       <use x="250.244141" xlink:href="#ArialMT-49"/>
       <use x="298.484375" xlink:href="#ArialMT-49"/>
       <use x="354.099609" xlink:href="#ArialMT-53"/>
      </g>
     </g>
    </g>
    <g id="xtick_5">
     <g id="line2d_5">
      <path clip-path="url(#pca8e4aab0e)" d="M 245.314286 252 
L 245.314286 34.56 
" style="fill:none;stroke:#cccccc;stroke-linecap:round;stroke-width:0.8;"/>
     </g>
     <g id="text_5">
      <!-- 0.000120 -->
      <g style="fill:#262626;" transform="translate(224.461942 266.157812)scale(0.1 -0.1)">
       <defs>
        <path d="M 50.34375 8.453125 
L 50.34375 0 
L 3.03125 0 
Q 2.9375 3.171875 4.046875 6.109375 
Q 5.859375 10.9375 9.828125 15.625 
Q 13.8125 20.3125 21.34375 26.46875 
Q 33.015625 36.03125 37.109375 41.625 
Q 41.21875 47.21875 41.21875 52.203125 
Q 41.21875 57.421875 37.46875 61 
Q 33.734375 64.59375 27.734375 64.59375 
Q 21.390625 64.59375 17.578125 60.78125 
Q 13.765625 56.984375 13.71875 50.25 
L 4.6875 51.171875 
Q 5.609375 61.28125 11.65625 66.578125 
Q 17.71875 71.875 27.9375 71.875 
Q 38.234375 71.875 44.234375 66.15625 
Q 50.25 60.453125 50.25 52 
Q 50.25 47.703125 48.484375 43.546875 
Q 46.734375 39.40625 42.65625 34.8125 
Q 38.578125 30.21875 29.109375 22.21875 
Q 21.1875 15.578125 18.9375 13.203125 
Q 16.703125 10.84375 15.234375 8.453125 
z
" id="ArialMT-50"/>
       </defs>
       <use xlink:href="#ArialMT-48"/>
       <use x="55.615234" xlink:href="#ArialMT-46"/>
       <use x="83.398438" xlink:href="#ArialMT-48"/>
       <use x="139.013672" xlink:href="#ArialMT-48"/>
       <use x="194.628906" xlink:href="#ArialMT-48"/>
       <use x="250.244141" xlink:href="#ArialMT-49"/>
       <use x="305.859375" xlink:href="#ArialMT-50"/>
       <use x="361.474609" xlink:href="#ArialMT-48"/>
      </g>
     </g>
    </g>
    <g id="xtick_6">
     <g id="line2d_6">
      <path clip-path="url(#pca8e4aab0e)" d="M 293.142857 252 
L 293.142857 34.56 
" style="fill:none;stroke:#cccccc;stroke-linecap:round;stroke-width:0.8;"/>
     </g>
     <g id="text_6">
      <!-- 0.000125 -->
      <g style="fill:#262626;" transform="translate(272.290513 266.157812)scale(0.1 -0.1)">
       <use xlink:href="#ArialMT-48"/>
       <use x="55.615234" xlink:href="#ArialMT-46"/>
       <use x="83.398438" xlink:href="#ArialMT-48"/>
       <use x="139.013672" xlink:href="#ArialMT-48"/>
       <use x="194.628906" xlink:href="#ArialMT-48"/>
       <use x="250.244141" xlink:href="#ArialMT-49"/>
       <use x="305.859375" xlink:href="#ArialMT-50"/>
       <use x="361.474609" xlink:href="#ArialMT-53"/>
      </g>
     </g>
    </g>
    <g id="xtick_7">
     <g id="line2d_7">
      <path clip-path="url(#pca8e4aab0e)" d="M 340.971429 252 
L 340.971429 34.56 
" style="fill:none;stroke:#cccccc;stroke-linecap:round;stroke-width:0.8;"/>
     </g>
     <g id="text_7">
      <!-- 0.000130 -->
      <g style="fill:#262626;" transform="translate(320.119085 266.157812)scale(0.1 -0.1)">
       <defs>
        <path d="M 4.203125 18.890625 
L 12.984375 20.0625 
Q 14.5 12.59375 18.140625 9.296875 
Q 21.78125 6 27 6 
Q 33.203125 6 37.46875 10.296875 
Q 41.75 14.59375 41.75 20.953125 
Q 41.75 27 37.796875 30.921875 
Q 33.84375 34.859375 27.734375 34.859375 
Q 25.25 34.859375 21.53125 33.890625 
L 22.515625 41.609375 
Q 23.390625 41.5 23.921875 41.5 
Q 29.546875 41.5 34.03125 44.421875 
Q 38.53125 47.359375 38.53125 53.46875 
Q 38.53125 58.296875 35.25 61.46875 
Q 31.984375 64.65625 26.8125 64.65625 
Q 21.6875 64.65625 18.265625 61.421875 
Q 14.84375 58.203125 13.875 51.765625 
L 5.078125 53.328125 
Q 6.6875 62.15625 12.390625 67.015625 
Q 18.109375 71.875 26.609375 71.875 
Q 32.46875 71.875 37.390625 69.359375 
Q 42.328125 66.84375 44.9375 62.5 
Q 47.5625 58.15625 47.5625 53.265625 
Q 47.5625 48.640625 45.0625 44.828125 
Q 42.578125 41.015625 37.703125 38.765625 
Q 44.046875 37.3125 47.5625 32.6875 
Q 51.078125 28.078125 51.078125 21.140625 
Q 51.078125 11.765625 44.234375 5.25 
Q 37.40625 -1.265625 26.953125 -1.265625 
Q 17.53125 -1.265625 11.296875 4.34375 
Q 5.078125 9.96875 4.203125 18.890625 
z
" id="ArialMT-51"/>
       </defs>
       <use xlink:href="#ArialMT-48"/>
       <use x="55.615234" xlink:href="#ArialMT-46"/>
       <use x="83.398438" xlink:href="#ArialMT-48"/>
       <use x="139.013672" xlink:href="#ArialMT-48"/>
       <use x="194.628906" xlink:href="#ArialMT-48"/>
       <use x="250.244141" xlink:href="#ArialMT-49"/>
       <use x="305.859375" xlink:href="#ArialMT-51"/>
       <use x="361.474609" xlink:href="#ArialMT-48"/>
      </g>
     </g>
    </g>
    <g id="xtick_8">
     <g id="line2d_8">
      <path clip-path="url(#pca8e4aab0e)" d="M 388.8 252 
L 388.8 34.56 
" style="fill:none;stroke:#cccccc;stroke-linecap:round;stroke-width:0.8;"/>
     </g>
     <g id="text_8">
      <!-- 0.000135 -->
      <g style="fill:#262626;" transform="translate(367.947656 266.157812)scale(0.1 -0.1)">
       <use xlink:href="#ArialMT-48"/>
       <use x="55.615234" xlink:href="#ArialMT-46"/>
       <use x="83.398438" xlink:href="#ArialMT-48"/>
       <use x="139.013672" xlink:href="#ArialMT-48"/>
       <use x="194.628906" xlink:href="#ArialMT-48"/>
       <use x="250.244141" xlink:href="#ArialMT-49"/>
       <use x="305.859375" xlink:href="#ArialMT-51"/>
       <use x="361.474609" xlink:href="#ArialMT-53"/>
      </g>
     </g>
    </g>
   </g>
   <g id="matplotlib.axis_2">
    <g id="ytick_1">
     <g id="line2d_9">
      <path clip-path="url(#pca8e4aab0e)" d="M 54 230.256 
L 388.8 230.256 
" style="fill:none;stroke:#cccccc;stroke-linecap:round;stroke-width:0.8;"/>
     </g>
     <g id="text_9">
      <!-- 0.008 -->
      <g style="fill:#262626;" transform="translate(21.978125 233.834906)scale(0.1 -0.1)">
       <defs>
        <path d="M 17.671875 38.8125 
Q 12.203125 40.828125 9.5625 44.53125 
Q 6.9375 48.25 6.9375 53.421875 
Q 6.9375 61.234375 12.546875 66.546875 
Q 18.171875 71.875 27.484375 71.875 
Q 36.859375 71.875 42.578125 66.421875 
Q 48.296875 60.984375 48.296875 53.171875 
Q 48.296875 48.1875 45.671875 44.5 
Q 43.0625 40.828125 37.75 38.8125 
Q 44.34375 36.671875 47.78125 31.875 
Q 51.21875 27.09375 51.21875 20.453125 
Q 51.21875 11.28125 44.71875 5.03125 
Q 38.234375 -1.21875 27.640625 -1.21875 
Q 17.046875 -1.21875 10.546875 5.046875 
Q 4.046875 11.328125 4.046875 20.703125 
Q 4.046875 27.6875 7.59375 32.390625 
Q 11.140625 37.109375 17.671875 38.8125 
z
M 15.921875 53.71875 
Q 15.921875 48.640625 19.1875 45.40625 
Q 22.46875 42.1875 27.6875 42.1875 
Q 32.765625 42.1875 36.015625 45.375 
Q 39.265625 48.578125 39.265625 53.21875 
Q 39.265625 58.0625 35.90625 61.359375 
Q 32.5625 64.65625 27.59375 64.65625 
Q 22.5625 64.65625 19.234375 61.421875 
Q 15.921875 58.203125 15.921875 53.71875 
z
M 13.09375 20.65625 
Q 13.09375 16.890625 14.875 13.375 
Q 16.65625 9.859375 20.171875 7.921875 
Q 23.6875 6 27.734375 6 
Q 34.03125 6 38.125 10.046875 
Q 42.234375 14.109375 42.234375 20.359375 
Q 42.234375 26.703125 38.015625 30.859375 
Q 33.796875 35.015625 27.4375 35.015625 
Q 21.234375 35.015625 17.15625 30.90625 
Q 13.09375 26.8125 13.09375 20.65625 
z
" id="ArialMT-56"/>
       </defs>
       <use xlink:href="#ArialMT-48"/>
       <use x="55.615234" xlink:href="#ArialMT-46"/>
       <use x="83.398438" xlink:href="#ArialMT-48"/>
       <use x="139.013672" xlink:href="#ArialMT-48"/>
       <use x="194.628906" xlink:href="#ArialMT-56"/>
      </g>
     </g>
    </g>
    <g id="ytick_2">
     <g id="line2d_10">
      <path clip-path="url(#pca8e4aab0e)" d="M 54 186.768 
L 388.8 186.768 
" style="fill:none;stroke:#cccccc;stroke-linecap:round;stroke-width:0.8;"/>
     </g>
     <g id="text_10">
      <!-- 0.010 -->
      <g style="fill:#262626;" transform="translate(21.978125 190.346906)scale(0.1 -0.1)">
       <use xlink:href="#ArialMT-48"/>
       <use x="55.615234" xlink:href="#ArialMT-46"/>
       <use x="83.398438" xlink:href="#ArialMT-48"/>
       <use x="139.013672" xlink:href="#ArialMT-49"/>
       <use x="194.628906" xlink:href="#ArialMT-48"/>
      </g>
     </g>
    </g>
    <g id="ytick_3">
     <g id="line2d_11">
      <path clip-path="url(#pca8e4aab0e)" d="M 54 143.28 
L 388.8 143.28 
" style="fill:none;stroke:#cccccc;stroke-linecap:round;stroke-width:0.8;"/>
     </g>
     <g id="text_11">
      <!-- 0.012 -->
      <g style="fill:#262626;" transform="translate(21.978125 146.858906)scale(0.1 -0.1)">
       <use xlink:href="#ArialMT-48"/>
       <use x="55.615234" xlink:href="#ArialMT-46"/>
       <use x="83.398438" xlink:href="#ArialMT-48"/>
       <use x="139.013672" xlink:href="#ArialMT-49"/>
       <use x="194.628906" xlink:href="#ArialMT-50"/>
      </g>
     </g>
    </g>
    <g id="ytick_4">
     <g id="line2d_12">
      <path clip-path="url(#pca8e4aab0e)" d="M 54 99.792 
L 388.8 99.792 
" style="fill:none;stroke:#cccccc;stroke-linecap:round;stroke-width:0.8;"/>
     </g>
     <g id="text_12">
      <!-- 0.014 -->
      <g style="fill:#262626;" transform="translate(21.978125 103.370906)scale(0.1 -0.1)">
       <defs>
        <path d="M 32.328125 0 
L 32.328125 17.140625 
L 1.265625 17.140625 
L 1.265625 25.203125 
L 33.9375 71.578125 
L 41.109375 71.578125 
L 41.109375 25.203125 
L 50.78125 25.203125 
L 50.78125 17.140625 
L 41.109375 17.140625 
L 41.109375 0 
z
M 32.328125 25.203125 
L 32.328125 57.46875 
L 9.90625 25.203125 
z
" id="ArialMT-52"/>
       </defs>
       <use xlink:href="#ArialMT-48"/>
       <use x="55.615234" xlink:href="#ArialMT-46"/>
       <use x="83.398438" xlink:href="#ArialMT-48"/>
       <use x="139.013672" xlink:href="#ArialMT-49"/>
       <use x="194.628906" xlink:href="#ArialMT-52"/>
      </g>
     </g>
    </g>
    <g id="ytick_5">
     <g id="line2d_13">
      <path clip-path="url(#pca8e4aab0e)" d="M 54 56.304 
L 388.8 56.304 
" style="fill:none;stroke:#cccccc;stroke-linecap:round;stroke-width:0.8;"/>
     </g>
     <g id="text_13">
      <!-- 0.016 -->
      <g style="fill:#262626;" transform="translate(21.978125 59.882906)scale(0.1 -0.1)">
       <defs>
        <path d="M 49.75 54.046875 
L 41.015625 53.375 
Q 39.84375 58.546875 37.703125 60.890625 
Q 34.125 64.65625 28.90625 64.65625 
Q 24.703125 64.65625 21.53125 62.3125 
Q 17.390625 59.28125 14.984375 53.46875 
Q 12.59375 47.65625 12.5 36.921875 
Q 15.671875 41.75 20.265625 44.09375 
Q 24.859375 46.4375 29.890625 46.4375 
Q 38.671875 46.4375 44.84375 39.96875 
Q 51.03125 33.5 51.03125 23.25 
Q 51.03125 16.5 48.125 10.71875 
Q 45.21875 4.9375 40.140625 1.859375 
Q 35.0625 -1.21875 28.609375 -1.21875 
Q 17.625 -1.21875 10.6875 6.859375 
Q 3.765625 14.9375 3.765625 33.5 
Q 3.765625 54.25 11.421875 63.671875 
Q 18.109375 71.875 29.4375 71.875 
Q 37.890625 71.875 43.28125 67.140625 
Q 48.6875 62.40625 49.75 54.046875 
z
M 13.875 23.1875 
Q 13.875 18.65625 15.796875 14.5 
Q 17.71875 10.359375 21.1875 8.171875 
Q 24.65625 6 28.46875 6 
Q 34.03125 6 38.03125 10.484375 
Q 42.046875 14.984375 42.046875 22.703125 
Q 42.046875 30.125 38.078125 34.390625 
Q 34.125 38.671875 28.125 38.671875 
Q 22.171875 38.671875 18.015625 34.390625 
Q 13.875 30.125 13.875 23.1875 
z
" id="ArialMT-54"/>
       </defs>
       <use xlink:href="#ArialMT-48"/>
       <use x="55.615234" xlink:href="#ArialMT-46"/>
       <use x="83.398438" xlink:href="#ArialMT-48"/>
       <use x="139.013672" xlink:href="#ArialMT-49"/>
       <use x="194.628906" xlink:href="#ArialMT-54"/>
      </g>
     </g>
    </g>
   </g>
   <g id="line2d_14">
    <path clip-path="url(#pca8e4aab0e)" d="M 53.904284 207.739506 
L 54.023858 208.549168 
L 54.143433 210.155209 
L 54.502156 201.540976 
L 54.62173 202.616084 
L 54.860879 196.948466 
L 55.339177 208.814635 
L 55.578325 201.806422 
L 55.817474 196.152088 
L 56.056623 200.187117 
L 56.295772 203.147017 
L 56.415346 197.492663 
L 56.534921 199.377454 
L 56.654495 196.948466 
L 56.77407 198.036859 
L 57.013218 202.350618 
L 57.132793 201.806422 
L 57.252367 200.452583 
L 57.371942 201.540976 
L 57.491516 204.766342 
L 57.61109 203.691213 
L 57.850239 196.948466 
L 57.969814 198.036859 
L 58.208962 203.425747 
L 58.328537 200.996779 
L 58.567686 203.425747 
L 58.68726 203.425747 
L 58.926409 202.616084 
L 59.285132 200.187117 
L 59.404707 201.806422 
L 59.524281 205.310538 
L 59.643855 203.691213 
L 59.76343 200.452583 
L 59.883004 203.147017 
L 60.241727 202.350618 
L 60.361302 197.758129 
L 60.600451 201.262225 
L 60.720025 200.452583 
L 61.078748 196.948466 
L 61.437472 204.500876 
L 61.796195 201.262225 
L 61.915769 200.452583 
L 62.035344 197.758129 
L 62.274492 199.656184 
L 62.513641 203.425747 
L 62.872364 197.758129 
L 62.991939 199.111988 
L 63.231088 206.651113 
L 63.350662 205.045072 
L 63.589811 197.758129 
L 63.82896 202.88155 
L 63.948534 202.616084 
L 64.068109 203.956679 
L 64.307257 202.88155 
L 64.426832 207.460775 
L 64.665981 198.036859 
L 64.785555 197.758129 
L 65.024704 202.88155 
L 65.263853 198.036859 
L 65.383427 198.302325 
L 65.622576 203.425747 
L 65.981299 200.452583 
L 66.100874 201.806422 
L 66.220448 201.806422 
L 66.340022 197.758129 
L 66.459597 199.921651 
L 66.698746 199.111988 
L 66.81832 201.806422 
L 66.937894 201.806422 
L 67.057469 201.540976 
L 67.296618 205.045072 
L 67.416192 203.691213 
L 67.535767 197.227217 
L 67.655341 198.036859 
L 67.89449 205.310538 
L 68.133639 198.302325 
L 68.253213 198.846522 
L 68.372787 205.575984 
L 68.492362 205.310538 
L 68.611936 200.996779 
L 68.970659 203.147017 
L 69.090234 202.350618 
L 69.209808 199.377454 
L 69.329383 200.452583 
L 69.568532 206.385647 
L 69.688106 206.120181 
L 69.927255 202.350618 
L 70.046829 208.814635 
L 70.285978 205.310538 
L 70.405552 211.509068 
L 70.88385 197.492663 
L 71.242573 208.270438 
L 71.481722 203.691213 
L 71.601296 205.310538 
L 71.840445 202.88155 
L 71.96002 202.616084 
L 72.199169 205.045072 
L 72.318743 203.956679 
L 72.557892 199.111988 
L 72.797041 204.500876 
L 72.916615 200.187117 
L 73.155764 201.540976 
L 73.394913 205.575984 
L 73.634061 201.262225 
L 73.753636 201.806422 
L 73.87321 204.500876 
L 74.112359 199.921651 
L 74.590657 205.854735 
L 74.710231 204.766342 
L 74.829806 206.120181 
L 75.068954 209.624297 
L 75.188529 206.120181 
L 75.308103 206.385647 
L 75.427678 202.616084 
L 75.547252 202.88155 
L 75.666826 199.656184 
L 75.786401 199.656184 
L 75.905975 200.452583 
L 76.02555 203.956679 
L 76.145124 200.187117 
L 76.264699 202.071888 
L 76.384273 202.071888 
L 76.503847 207.195309 
L 76.623422 206.651113 
L 76.742996 202.88155 
L 76.982145 203.956679 
L 77.101719 206.120181 
L 77.340868 200.731313 
L 77.460443 203.956679 
L 77.93874 198.846522 
L 78.058315 195.607892 
L 78.177889 195.873358 
L 78.417038 198.846522 
L 78.536612 202.071888 
L 78.656187 200.731313 
L 78.895336 203.956679 
L 79.01491 203.691213 
L 79.254059 206.651113 
L 79.373633 206.651113 
L 79.612782 198.036859 
L 79.851931 202.071888 
L 79.971505 201.262225 
L 80.210654 203.956679 
L 80.449803 199.656184 
L 80.569377 200.187117 
L 80.688952 202.071888 
L 80.808526 200.187117 
L 80.928101 203.425747 
L 81.047675 203.425747 
L 81.167249 204.500876 
L 81.286824 200.731313 
L 81.645547 181.04729 
L 81.765121 186.980374 
L 81.884696 207.460775 
L 82.123845 188.599699 
L 82.362993 200.996779 
L 82.602142 236.037763 
L 82.721717 209.358831 
L 82.841291 208.549168 
L 82.960866 215.013165 
L 83.08044 206.120181 
L 83.319589 207.460775 
L 83.558738 193.178904 
L 83.678312 196.68302 
L 83.797886 196.68302 
L 83.917461 193.988566 
L 84.037035 194.254033 
L 84.15661 198.302325 
L 84.276184 197.492663 
L 84.395758 194.798229 
L 84.634907 202.350618 
L 84.874056 190.48447 
L 84.99363 193.7231 
L 85.113205 193.178904 
L 85.352354 214.747698 
L 85.591503 202.88155 
L 85.711077 202.88155 
L 85.950226 208.270438 
L 86.0698 206.651113 
L 86.189375 206.929843 
L 86.428523 201.262225 
L 86.667672 209.080101 
L 86.787247 209.080101 
L 86.906821 208.814635 
L 87.14597 198.036859 
L 87.265544 200.187117 
L 87.624268 193.44437 
L 87.863416 194.798229 
L 87.982991 193.7231 
L 88.22214 199.111988 
L 88.341714 200.452583 
L 88.461288 204.235409 
L 88.580863 203.147017 
L 88.700437 205.575984 
L 88.820012 205.310538 
L 89.05916 197.758129 
L 89.178735 196.948466 
L 89.298309 197.492663 
L 89.537458 202.88155 
L 89.657033 202.350618 
L 89.896181 198.036859 
L 90.015756 193.988566 
L 90.254905 198.846522 
L 90.374479 197.758129 
L 90.494053 199.921651 
L 90.733202 192.103795 
L 91.2115 203.147017 
L 91.570223 192.913458 
L 91.689798 192.647992 
L 91.809372 194.798229 
L 91.928946 194.798229 
L 92.168095 201.540976 
L 92.28767 201.806422 
L 92.526818 196.68302 
L 92.646393 198.567791 
L 92.885542 203.425747 
L 93.12469 196.68302 
L 93.244265 197.492663 
L 93.363839 194.532763 
L 93.483414 195.063695 
L 93.722562 193.178904 
L 93.961711 190.749936 
L 94.20086 193.44437 
L 94.320435 193.178904 
L 94.440009 191.294133 
L 94.559583 192.647992 
L 94.918307 200.731313 
L 95.037881 195.342425 
L 95.157455 196.152088 
L 95.396604 190.219004 
L 95.516179 190.48447 
L 95.635753 191.294133 
L 95.874902 194.798229 
L 95.994476 194.254033 
L 96.233625 191.294133 
L 96.3532 192.647992 
L 96.472774 188.865145 
L 96.592348 189.674807 
L 96.831497 186.170711 
L 97.070646 191.559599 
L 97.19022 191.838329 
L 97.309795 189.940274 
L 97.429369 189.940274 
L 97.668518 188.055502 
L 97.788092 190.219004 
L 98.027241 187.24584 
L 98.146816 188.599699 
L 98.505539 194.798229 
L 98.744688 193.178904 
L 99.103411 195.063695 
L 99.820857 186.449441 
L 99.940432 188.334233 
L 100.060006 187.52457 
L 100.179581 188.055502 
L 100.299155 185.639779 
L 100.418729 185.905245 
L 100.538304 188.334233 
L 100.657878 186.980374 
L 100.777453 187.52457 
L 100.897027 187.52457 
L 101.016602 187.790036 
L 101.25575 193.7231 
L 101.375325 191.559599 
L 101.494899 192.103795 
L 101.614474 191.559599 
L 101.734048 192.647992 
L 101.853622 196.417554 
L 101.973197 193.44437 
L 102.092771 194.798229 
L 102.33192 192.369261 
L 102.451494 194.254033 
L 102.571069 190.749936 
L 102.690643 190.749936 
L 102.810218 188.055502 
L 103.049367 194.798229 
L 103.288515 188.334233 
L 103.527664 193.7231 
L 103.647239 189.143895 
L 103.766813 188.865145 
L 104.125536 183.741744 
L 104.364685 189.940274 
L 104.484259 191.838329 
L 104.603834 191.559599 
L 104.723408 193.44437 
L 104.962557 191.559599 
L 105.082132 192.103795 
L 105.201706 191.294133 
L 105.32128 193.178904 
L 105.560429 190.219004 
L 105.680004 192.369261 
L 105.799578 192.369261 
L 105.919152 191.028667 
L 106.038727 191.028667 
L 106.277876 182.401149 
L 106.636599 185.361049 
L 106.875748 190.48447 
L 106.995322 191.028667 
L 107.234471 193.178904 
L 107.354045 193.44437 
L 107.712769 186.449441 
L 107.832343 189.409341 
L 107.951917 188.599699 
L 108.071492 190.219004 
L 108.310641 186.714908 
L 108.430215 187.24584 
L 108.669364 190.219004 
L 108.908513 183.210811 
L 109.028087 184.830136 
L 109.147661 188.599699 
L 109.267236 188.055502 
L 109.38681 186.980374 
L 109.625959 191.838329 
L 109.865108 189.409341 
L 109.984682 191.294133 
L 110.104257 190.219004 
L 110.223831 186.449441 
L 110.343406 189.143895 
L 110.46298 187.52457 
L 110.582554 189.143895 
L 110.702129 188.599699 
L 110.941278 194.532763 
L 111.060852 198.302325 
L 111.300001 189.143895 
L 111.419575 191.028667 
L 111.53915 190.749936 
L 111.658724 191.294133 
L 111.778299 194.254033 
L 112.137022 187.52457 
L 112.256596 188.865145 
L 112.376171 194.532763 
L 112.495745 192.647992 
L 112.734894 197.227217 
L 113.093617 189.940274 
L 113.332766 195.607892 
L 113.691489 187.24584 
L 113.811064 188.334233 
L 113.930638 192.103795 
L 114.050212 188.599699 
L 114.169787 189.674807 
L 114.289361 192.913458 
L 114.648084 185.095582 
L 114.767659 187.24584 
L 114.887233 187.24584 
L 115.006808 187.52457 
L 115.245956 190.48447 
L 115.485105 187.24584 
L 115.60468 187.24584 
L 115.843828 191.028667 
L 115.963403 188.865145 
L 116.082977 192.647992 
L 116.202552 192.913458 
L 116.322126 194.798229 
L 116.441701 192.103795 
L 116.561275 193.178904 
L 116.680849 191.028667 
L 117.039573 194.798229 
L 117.278721 193.44437 
L 117.398296 192.369261 
L 117.51787 192.369261 
L 117.637445 189.409341 
L 117.876593 195.342425 
L 117.996168 194.798229 
L 118.115742 187.790036 
L 118.235317 188.055502 
L 118.354891 192.103795 
L 118.59404 187.790036 
L 118.713614 188.334233 
L 118.833189 185.905245 
L 118.952763 185.905245 
L 119.072338 185.361049 
L 119.191912 182.135683 
L 119.431061 188.865145 
L 119.550635 186.170711 
L 119.789784 187.790036 
L 119.909358 186.449441 
L 120.028933 187.24584 
L 120.268082 186.449441 
L 120.507231 189.143895 
L 120.746379 195.607892 
L 120.865954 191.559599 
L 120.985528 191.559599 
L 121.105103 195.607892 
L 121.224677 190.219004 
L 121.344251 191.028667 
L 121.463826 190.219004 
L 121.5834 188.055502 
L 121.702975 189.409341 
L 121.822549 193.988566 
L 121.942123 191.294133 
L 122.061698 194.254033 
L 122.181272 191.028667 
L 122.300847 192.913458 
L 122.779144 188.865145 
L 123.018293 196.948466 
L 123.257442 194.798229 
L 123.377016 197.492663 
L 123.496591 197.227217 
L 123.616165 193.988566 
L 123.73574 193.988566 
L 123.855314 193.7231 
L 123.974888 196.152088 
L 124.094463 195.063695 
L 124.333612 195.873358 
L 124.453186 192.369261 
L 124.692335 193.7231 
L 124.811909 195.607892 
L 124.931484 192.647992 
L 125.051058 192.647992 
L 125.170633 196.417554 
L 125.290207 194.254033 
L 125.409781 194.532763 
L 125.529356 193.988566 
L 125.64893 192.369261 
L 125.768505 189.143895 
L 125.888079 189.674807 
L 126.007653 191.294133 
L 126.127228 195.342425 
L 126.246802 190.219004 
L 126.366377 189.940274 
L 126.605525 195.342425 
L 126.7251 192.647992 
L 126.964249 193.988566 
L 127.083823 193.178904 
L 127.203398 190.749936 
L 127.322972 191.294133 
L 127.562121 197.758129 
L 127.681695 199.921651 
L 128.040418 196.948466 
L 128.279567 197.758129 
L 128.399142 196.152088 
L 128.63829 197.492663 
L 128.997014 205.310538 
L 129.116588 203.425747 
L 129.475311 208.549168 
L 129.71446 206.120181 
L 129.834035 205.045072 
L 129.953609 206.651113 
L 130.073183 210.964872 
L 130.312332 206.651113 
L 130.431907 208.004972 
L 130.551481 207.739506 
L 130.79063 215.013165 
L 130.910204 213.659306 
L 131.029779 208.549168 
L 131.268927 212.053265 
L 131.388502 213.938056 
L 131.627651 210.964872 
L 131.747225 213.659306 
L 131.8668 213.659306 
L 132.345097 222.83102 
L 132.584246 218.251815 
L 132.70382 218.517261 
L 132.823395 222.021378 
L 132.942969 221.477161 
L 133.062544 220.136586 
L 133.182118 220.946249 
L 133.421267 215.278631 
L 133.660416 219.857856 
L 133.899565 219.59239 
L 134.019139 219.59239 
L 134.138713 220.136586 
L 134.258288 216.63249 
L 134.497437 217.973064 
L 134.617011 217.707619 
L 134.85616 220.946249 
L 134.975734 226.866048 
L 135.095309 226.335136 
L 135.214883 224.981277 
L 135.334457 231.458538 
L 135.454032 231.458538 
L 135.573606 238.18801 
L 135.693181 236.303229 
L 135.93233 228.764104 
L 136.051904 229.560482 
L 136.291053 226.866048 
L 136.410627 227.675711 
L 136.530202 229.560482 
L 136.649776 226.600582 
L 136.888925 227.954441 
L 137.008499 227.410245 
L 137.128074 226.335136 
L 137.247648 227.410245 
L 137.367222 224.715811 
L 137.486797 228.485374 
L 137.606371 227.675711 
L 137.725946 228.219908 
L 137.84552 229.295036 
L 138.084669 233.874241 
L 138.323818 234.418448 
L 138.443392 234.418448 
L 138.562967 237.378348 
L 138.802115 230.648895 
L 138.92169 227.954441 
L 139.041264 229.839233 
L 139.280413 229.839233 
L 139.399987 234.683914 
L 139.519562 234.152992 
L 139.639136 232.533667 
L 139.878285 235.22811 
L 140.117434 229.02957 
L 140.237008 226.866048 
L 140.476157 230.648895 
L 140.595732 229.560482 
L 140.715306 226.600582 
L 141.074029 237.922544 
L 141.313178 232.254936 
L 141.432752 231.179807 
L 141.552327 227.675711 
L 141.791476 230.648895 
L 141.91105 229.02957 
L 142.030624 232.799133 
L 142.150199 227.410245 
L 142.269773 227.410245 
L 142.389348 226.056386 
L 142.508922 230.104679 
L 142.628497 227.954441 
L 142.867645 231.458538 
L 142.98722 230.648895 
L 143.106794 229.02957 
L 143.226369 229.02957 
L 143.345943 227.954441 
L 143.585092 229.02957 
L 143.704666 227.410245 
L 143.824241 229.839233 
L 143.943815 225.525474 
L 144.063389 226.056386 
L 144.302538 233.343329 
L 144.541687 227.410245 
L 144.661262 229.02957 
L 144.780836 232.254936 
L 144.90041 231.724004 
L 145.019985 229.02957 
L 145.139559 230.104679 
L 145.259134 237.112892 
L 145.498282 226.866048 
L 145.617857 228.764104 
L 145.857006 225.79092 
L 145.97658 226.866048 
L 146.096154 226.866048 
L 146.215729 229.839233 
L 146.454878 224.715811 
L 146.933175 231.458538 
L 147.172324 230.914341 
L 147.291899 234.152992 
L 147.411473 233.343329 
L 147.531047 229.295036 
L 147.650622 229.560482 
L 147.770196 230.104679 
L 147.889771 229.02957 
L 148.128919 234.962644 
L 148.248494 234.418448 
L 148.487643 231.98947 
L 148.607217 232.799133 
L 148.726791 236.303229 
L 148.846366 234.418448 
L 149.085515 226.600582 
L 149.324664 231.98947 
L 149.444238 231.179807 
L 149.563812 232.254936 
L 149.683387 229.295036 
L 150.161684 237.112892 
L 150.281259 236.037763 
L 150.520408 231.724004 
L 150.759556 238.732207 
L 150.879131 236.303229 
L 150.998705 237.112892 
L 151.357429 230.914341 
L 151.596577 234.683914 
L 151.716152 232.533667 
L 151.835726 233.064599 
L 152.074875 238.466741 
L 152.194449 235.759032 
L 152.314024 237.657088 
L 152.433598 236.303229 
L 152.553173 238.732207 
L 152.792321 231.724004 
L 153.270619 238.732207 
L 153.509768 235.759032 
L 153.629342 236.037763 
L 153.748917 241.161184 
L 154.227214 234.962644 
L 154.585938 241.692107 
L 154.705512 242.236303 
L 154.825086 241.161184 
L 155.064235 233.874241 
L 155.18381 231.458538 
L 155.303384 232.799133 
L 155.662107 241.161184 
L 155.781682 238.732207 
L 155.901256 233.874241 
L 156.140405 235.493566 
L 156.379554 232.533667 
L 156.618703 237.922544 
L 156.857851 228.764104 
L 156.977426 230.104679 
L 157.097 226.335136 
L 157.455723 209.358831 
L 157.694872 202.071888 
L 157.814447 202.88155 
L 157.934021 204.500876 
L 158.412319 193.988566 
L 158.531893 193.7231 
L 158.651468 198.302325 
L 158.771042 197.758129 
L 159.010191 193.988566 
L 159.129765 194.532763 
L 159.24934 193.44437 
L 159.368914 193.44437 
L 159.488488 195.342425 
L 159.608063 194.532763 
L 159.727637 196.948466 
L 159.847212 196.948466 
L 160.086361 194.254033 
L 160.205935 194.532763 
L 160.325509 192.913458 
L 160.564658 198.846522 
L 160.684233 197.758129 
L 160.803807 198.846522 
L 160.923381 198.302325 
L 161.042956 199.656184 
L 161.16253 199.111988 
L 161.282105 200.452583 
L 161.521253 205.045072 
L 161.760402 200.731313 
L 161.879977 201.540976 
L 162.119125 207.460775 
L 162.2387 206.120181 
L 162.358274 202.350618 
L 162.597423 204.766342 
L 162.716998 205.045072 
L 162.956146 206.929843 
L 163.075721 208.004972 
L 163.195295 207.739506 
L 163.31487 206.929843 
L 163.434444 205.045072 
L 163.554018 207.195309 
L 163.673593 206.651113 
L 163.793167 204.766342 
L 163.912742 208.549168 
L 164.032316 207.739506 
L 164.15189 208.814635 
L 164.271465 212.053265 
L 164.391039 209.080101 
L 164.510614 209.358831 
L 164.749763 212.053265 
L 165.22806 205.045072 
L 165.586783 213.128393 
L 165.825932 205.045072 
L 165.945507 207.195309 
L 166.065081 207.195309 
L 166.423804 210.964872 
L 166.543379 209.080101 
L 166.782528 212.318731 
L 167.021676 211.774534 
L 167.141251 211.243602 
L 167.260825 211.509068 
L 167.499974 209.358831 
L 167.858697 219.326924 
L 167.978272 217.442152 
L 168.21742 212.849643 
L 168.456569 209.358831 
L 168.695718 210.964872 
L 168.815292 206.929843 
L 169.054441 209.358831 
L 169.174016 206.651113 
L 169.29359 212.584197 
L 169.652313 207.739506 
L 169.771888 207.460775 
L 170.011037 213.938056 
L 170.250185 218.782727 
L 170.36976 216.353759 
L 170.728483 216.353759 
L 170.848057 219.061457 
L 171.087206 213.659306 
L 171.206781 213.128393 
L 171.326355 215.278631 
L 171.44593 213.128393 
L 171.565504 213.128393 
L 171.685078 214.203502 
L 171.804653 216.353759 
L 171.924227 215.013165 
L 172.522099 201.262225 
L 172.641674 200.996779 
L 172.761248 198.567791 
L 173.000397 190.219004 
L 173.478695 171.079197 
L 173.598269 172.154306 
L 173.956992 166.765438 
L 174.076567 166.765438 
L 174.315715 159.757225 
L 174.913587 139.011378 
L 175.033162 139.54229 
L 175.272311 136.316924 
L 175.631034 131.724434 
L 175.750608 134.697619 
L 175.870183 134.153422 
L 175.989757 132.812827 
L 176.109332 134.432152 
L 176.34848 131.724434 
L 176.468055 127.42396 
L 176.587629 128.220338 
L 176.826778 130.649326 
L 177.185501 128.499068 
L 177.305076 129.030001 
L 177.42465 130.38386 
L 177.783373 117.721313 
L 178.022522 123.641113 
L 178.142097 123.375647 
L 178.381245 121.490876 
L 178.739969 108.815065 
L 178.859543 109.903458 
L 178.979117 106.930274 
L 179.098692 108.018667 
L 179.337841 103.426177 
L 179.457415 102.351049 
L 179.696564 96.152518 
L 179.935713 99.922081 
L 180.772734 76.747245 
L 180.892308 77.012691 
L 181.011882 74.596988 
L 181.131457 75.12792 
L 181.609754 66.234936 
L 181.848903 60.846049 
L 182.088052 65.425274 
L 182.207627 64.894362 
L 182.446775 60.036386 
L 182.56635 60.846049 
L 182.685924 59.505494 
L 182.805499 62.199928 
L 182.925073 59.226723 
L 183.522945 68.663924 
L 183.762094 69.739033 
L 183.881668 69.739033 
L 184.001243 71.092892 
L 184.240391 77.556908 
L 184.359966 76.481779 
L 184.47954 76.481779 
L 184.599115 78.101105 
L 184.718689 78.101105 
L 184.957838 82.136113 
L 185.55571 97.227647 
L 185.675284 93.458085 
L 185.794859 94.811944 
L 186.273156 113.407554 
L 186.512305 110.43437 
L 186.871029 120.137017 
L 186.990603 121.22541 
L 187.708049 137.392052 
L 187.827624 136.58239 
L 187.947198 136.038193 
L 188.066773 136.58239 
L 188.305921 140.896149 
L 188.425496 141.705811 
L 188.54507 144.665711 
L 188.664645 144.134799 
L 188.784219 148.714004 
L 188.903794 147.904362 
L 189.023368 148.435274 
L 189.142942 149.523667 
L 189.262517 147.904362 
L 189.860389 167.575101 
L 189.979963 168.119297 
L 190.219112 161.920747 
L 190.338686 162.730409 
L 190.458261 163.805538 
L 190.69741 171.344663 
L 190.816984 168.92896 
L 190.936558 169.459872 
L 191.056133 172.963968 
L 191.295282 167.575101 
L 191.534431 171.079197 
L 191.893154 179.162518 
L 192.012728 179.162518 
L 192.132303 180.237627 
L 192.371451 176.746815 
L 192.6106 180.516378 
L 192.730175 182.135683 
L 192.969323 176.468064 
L 193.208472 182.666615 
L 193.328047 183.210811 
L 193.567196 188.599699 
L 193.68677 186.714908 
L 193.806344 187.24584 
L 194.045493 184.28594 
L 194.165068 185.639779 
L 194.284642 185.361049 
L 194.404216 185.639779 
L 194.523791 186.980374 
L 194.643365 183.741744 
L 194.882514 173.773631 
L 195.002088 173.508165 
L 195.121663 174.317827 
L 195.480386 184.551386 
L 195.599961 183.210811 
L 195.958684 171.623394 
L 196.078258 172.963968 
L 196.197833 172.963968 
L 196.436981 170.004068 
L 196.556556 170.813731 
L 196.67613 168.384743 
L 197.034853 169.738602 
L 197.154428 168.650209 
L 197.871874 144.400245 
L 197.991449 144.665711 
L 198.708895 128.220338 
L 198.82847 128.499068 
L 198.948044 130.649326 
L 199.067618 129.030001 
L 199.187193 125.525904 
L 199.426342 109.903458 
L 199.545916 110.43437 
L 199.66549 109.624728 
L 199.785065 105.855165 
L 199.904639 105.855165 
L 200.024214 107.47447 
L 200.622086 92.11749 
L 200.74166 90.763631 
L 200.861235 87.259534 
L 200.980809 87.525001 
L 201.219958 85.91896 
L 201.339532 85.64023 
L 201.459107 84.299635 
L 201.578681 84.565101 
L 201.698255 85.109297 
L 202.176553 75.672117 
L 202.296128 70.548695 
L 202.415702 70.548695 
L 202.654851 67.310065 
L 203.491872 55.722627 
L 203.73102 54.912964 
L 204.209318 47.095109 
L 204.448467 52.218531 
L 204.568041 50.068314 
L 204.687616 50.599205 
L 204.80719 46.298731 
L 205.046339 47.639326 
L 205.165913 46.298731 
L 205.405062 48.448988 
L 205.644211 53.306924 
L 205.763785 52.218531 
L 205.88336 52.497261 
L 206.002934 56.266844 
L 206.122509 56.001357 
L 206.242083 52.762747 
L 206.361657 52.762747 
L 206.600806 63.540482 
L 206.720381 62.199928 
L 207.079104 66.779133 
L 207.318253 65.704024 
L 207.437827 66.513667 
L 207.557402 64.894362 
L 207.676976 66.234936 
L 207.916125 70.548695 
L 208.035699 71.358358 
L 208.155274 74.596988 
L 208.274848 73.787346 
L 208.753146 82.680309 
L 208.87272 84.020904 
L 208.992295 83.755438 
L 209.111869 83.211242 
L 209.231443 84.565101 
L 209.470592 95.887052 
L 209.590167 96.696715 
L 209.709741 93.192619 
L 209.94889 104.51457 
L 210.188039 102.895265 
L 210.427187 109.093795 
L 210.546762 109.093795 
L 210.905485 119.061888 
L 211.02506 117.721313 
L 211.264208 117.986779 
L 211.622932 126.879763 
L 211.86208 122.83145 
L 212.101229 127.145209 
L 212.340378 133.887956 
L 212.459952 134.153422 
L 212.699101 138.467181 
L 212.818676 137.936249 
L 212.93825 136.58239 
L 213.177399 139.276844 
L 213.296973 137.126586 
L 213.536122 142.515474 
L 213.894845 151.129707 
L 214.01442 150.333329 
L 214.133994 151.673924 
L 214.253569 147.360165 
L 214.731866 154.368358 
L 214.851441 154.368358 
L 214.971015 154.102892 
L 215.090589 153.293229 
L 215.329738 157.062791 
L 215.449313 155.443466 
L 215.688462 161.642017 
L 215.92761 157.062791 
L 216.047185 157.062791 
L 216.286334 158.13792 
L 216.405908 158.13792 
L 216.525482 153.027763 
L 216.645057 153.027763 
L 216.764631 151.93937 
L 217.00378 160.301442 
L 217.242929 155.987683 
L 217.362503 157.062791 
L 217.482078 159.491779 
L 217.601652 158.416651 
L 217.721227 159.757225 
L 217.840801 158.947583 
L 218.199524 153.293229 
L 218.438673 151.408458 
L 218.677822 156.797325 
L 218.797396 156.253129 
L 219.514843 140.351952 
L 219.634417 143.046406 
L 219.753992 143.046406 
L 219.873566 142.236744 
L 219.99314 143.046406 
L 220.351864 139.54229 
L 220.949736 129.574197 
L 221.06931 129.839663 
L 221.188884 127.42396 
L 221.308459 127.689406 
L 221.428033 128.499068 
L 222.14548 112.053695 
L 222.265054 112.597892 
L 222.504203 109.903458 
L 222.743352 104.780036 
L 222.862926 108.018667 
L 223.102075 102.351049 
L 223.221649 98.31604 
L 223.460798 107.739936 
L 223.580373 103.970374 
L 223.819521 91.307827 
L 223.939096 93.458085 
L 224.05867 98.31604 
L 224.178245 97.771844 
L 224.417394 90.763631 
L 224.536968 88.87886 
L 224.656542 84.830567 
L 224.776117 85.374763 
L 225.015266 89.409772 
L 225.13484 87.525001 
L 225.373989 77.012691 
L 225.493563 79.441679 
L 225.613138 78.910747 
L 225.852286 80.251342 
L 226.091435 73.787346 
L 226.21101 72.977683 
L 226.330584 76.481779 
L 226.450159 74.596988 
L 226.569733 74.596988 
L 226.689307 76.216313 
L 226.808882 76.216313 
L 226.928456 74.318258 
L 227.048031 74.596988 
L 227.167605 77.556908 
L 227.406754 72.433487 
L 227.526328 71.902554 
L 227.885051 79.176213 
L 228.243775 67.854261 
L 228.482923 75.672117 
L 228.602498 74.862454 
L 228.722072 75.672117 
L 228.961221 79.985876 
L 229.20037 82.680309 
L 229.439519 79.176213 
L 229.678668 81.061004 
L 229.798242 81.326471 
L 230.037391 89.144326 
L 230.156965 85.64023 
L 230.515688 92.382956 
L 230.635263 92.382956 
L 230.754837 90.219434 
L 230.993986 91.573293 
L 231.233135 89.688522 
L 231.352709 92.11749 
L 231.472284 98.581506 
L 231.591858 98.581506 
L 231.831007 96.152518 
L 232.070156 105.324233 
L 232.18973 102.895265 
L 232.309305 104.23584 
L 232.428879 103.970374 
L 232.548453 108.018667 
L 232.668028 107.739936 
L 232.787602 108.815065 
L 232.907177 108.815065 
L 233.026751 111.244033 
L 233.146326 116.367454 
L 233.2659 116.367454 
L 233.505049 119.606084 
L 233.983346 109.903458 
L 234.222495 115.026879 
L 234.34207 115.557791 
L 234.461644 116.63292 
L 234.700793 119.606084 
L 234.939942 118.252245 
L 235.298665 127.689406 
L 235.418239 129.308731 
L 235.537814 126.335567 
L 236.016111 129.308731 
L 236.135686 127.42396 
L 236.25526 127.689406 
L 236.374835 134.432152 
L 236.733558 130.38386 
L 236.972707 138.201715 
L 237.211855 134.432152 
L 237.33143 135.772727 
L 237.451004 135.228531 
L 237.570579 135.772727 
L 237.809728 142.515474 
L 238.168451 136.847856 
L 238.4076 140.630683 
L 238.527174 140.086486 
L 238.646748 140.351952 
L 238.885897 137.936249 
L 239.005472 134.432152 
L 239.24462 135.507281 
L 239.364195 137.936249 
L 239.722918 134.432152 
L 239.962067 136.58239 
L 240.440365 132.003165 
L 240.559939 127.954872 
L 240.679513 128.220338 
L 240.799088 126.070101 
L 240.918662 128.764534 
L 241.038237 134.432152 
L 241.277385 127.42396 
L 241.39696 128.499068 
L 241.636109 133.62249 
L 241.755683 129.030001 
L 241.994832 134.153422 
L 242.114406 128.499068 
L 242.233981 128.764534 
L 242.592704 124.185309 
L 242.712278 125.804635 
L 243.071002 121.22541 
L 243.31015 125.804635 
L 243.429725 126.335567 
L 243.788448 118.252245 
L 243.908022 119.061888 
L 244.027597 117.721313 
L 244.147171 118.252245 
L 244.505895 112.053695 
L 244.625469 112.319161 
L 244.745043 113.938487 
L 244.984192 107.739936 
L 245.103767 108.549599 
L 245.223341 105.589699 
L 245.342915 106.399362 
L 245.940787 93.723531 
L 246.060362 94.267747 
L 246.179936 94.002281 
L 246.299511 96.696715 
L 246.53866 93.723531 
L 246.658234 94.267747 
L 246.777808 98.03729 
L 246.897383 97.771844 
L 247.016957 99.112418 
L 247.136532 99.112418 
L 247.495255 93.458085 
L 247.734404 99.656615 
L 247.973552 92.382956 
L 248.212701 96.696715 
L 248.332276 95.07739 
L 248.45185 95.07739 
L 248.571425 94.811944 
L 248.930148 86.715338 
L 249.288871 92.913888 
L 249.408445 92.648422 
L 249.52802 94.002281 
L 249.647594 92.382956 
L 249.767169 87.803731 
L 250.245466 99.112418 
L 250.484615 94.267747 
L 250.60419 93.192619 
L 250.843338 100.731744 
L 251.082487 92.648422 
L 251.202062 94.267747 
L 251.321636 93.458085 
L 251.44121 95.342856 
L 251.560785 93.723531 
L 251.680359 94.267747 
L 251.799934 92.648422 
L 251.919508 92.913888 
L 252.039082 91.307827 
L 252.278231 95.621586 
L 252.756529 103.704908 
L 252.876103 98.581506 
L 252.995678 101.541406 
L 253.115252 101.27594 
L 253.354401 109.624728 
L 253.713124 105.324233 
L 253.832699 106.664807 
L 253.952273 103.426177 
L 254.071847 104.23584 
L 254.430571 108.549599 
L 254.550145 107.47447 
L 254.669719 111.788229 
L 254.789294 111.244033 
L 255.028443 114.748129 
L 255.267592 116.63292 
L 255.387166 116.63292 
L 255.50674 112.597892 
L 255.626315 112.597892 
L 255.865464 119.327354 
L 255.985038 118.517691 
L 256.104612 118.796442 
L 256.463336 124.450776 
L 256.58291 124.185309 
L 256.702484 123.110201 
L 256.941633 128.220338 
L 257.061208 129.839663 
L 257.300357 123.641113 
L 257.419931 125.804635 
L 257.539505 124.994972 
L 257.778654 126.335567 
L 257.898229 128.220338 
L 258.137377 125.804635 
L 258.376526 129.574197 
L 258.496101 129.839663 
L 258.735249 124.729506 
L 258.854824 129.574197 
L 258.974398 128.764534 
L 259.093973 129.308731 
L 259.213547 122.566004 
L 259.333121 123.375647 
L 259.57227 132.534097 
L 259.691845 130.649326 
L 259.930994 132.534097 
L 260.050568 132.003165 
L 260.170142 133.078293 
L 260.409291 130.38386 
L 260.528866 129.574197 
L 260.64844 132.003165 
L 260.887589 129.308731 
L 261.126738 131.193522 
L 261.365886 129.030001 
L 261.485461 130.118394 
L 261.605035 133.34376 
L 261.72461 130.38386 
L 261.844184 131.458968 
L 262.202907 126.879763 
L 262.442056 129.030001 
L 262.561631 131.724434 
L 262.681205 131.193522 
L 262.800779 127.954872 
L 262.920354 127.954872 
L 263.039928 125.260438 
L 263.159503 117.986779 
L 263.398651 119.061888 
L 263.518226 123.641113 
L 263.6378 123.110201 
L 263.757375 119.606084 
L 263.876949 119.87155 
L 263.996524 120.415747 
L 264.116098 120.137017 
L 264.235672 122.021808 
L 264.355247 120.415747 
L 264.474821 120.946679 
L 264.594396 120.681213 
L 264.71397 118.796442 
L 264.833544 119.606084 
L 264.953119 118.252245 
L 265.072693 120.137017 
L 265.311842 114.748129 
L 265.431416 115.557791 
L 265.550991 117.177117 
L 265.670565 115.823258 
L 265.79014 115.823258 
L 266.029288 113.128824 
L 266.268437 117.986779 
L 266.507586 113.67302 
L 266.627161 113.67302 
L 266.746735 116.367454 
L 266.866309 114.748129 
L 267.105458 108.815065 
L 267.344607 100.731744 
L 267.70333 110.43437 
L 267.942479 104.23584 
L 268.062053 106.930274 
L 268.181628 105.324233 
L 268.420777 98.846952 
L 268.659926 106.120611 
L 268.7795 107.47447 
L 269.138223 97.771844 
L 269.377372 107.47447 
L 269.616521 102.085603 
L 269.736095 103.704908 
L 269.975244 101.27594 
L 270.094818 101.820137 
L 270.333967 100.200811 
L 270.453542 99.922081 
L 270.573116 97.506378 
L 270.931839 98.03729 
L 271.170988 100.731744 
L 271.290563 99.391149 
L 271.529711 107.47447 
L 271.76886 102.895265 
L 271.888435 102.616515 
L 272.247158 105.589699 
L 272.486307 105.589699 
L 272.605881 105.324233 
L 272.725456 106.664807 
L 272.964604 102.085603 
L 273.084179 102.351049 
L 273.203753 99.922081 
L 273.442902 104.23584 
L 273.562476 104.780036 
L 273.801625 98.31604 
L 274.040774 106.120611 
L 274.160348 105.045503 
L 274.399497 106.664807 
L 274.519072 106.399362 
L 274.638646 105.324233 
L 274.75822 107.47447 
L 274.877795 102.895265 
L 274.997369 103.160711 
L 275.236518 109.903458 
L 275.475667 111.244033 
L 275.595241 110.713121 
L 275.83439 114.482683 
L 276.073539 119.061888 
L 276.312688 111.522783 
L 276.551837 112.863358 
L 276.790985 118.252245 
L 276.91056 116.911651 
L 277.149709 112.053695 
L 277.269283 112.319161 
L 277.388858 117.721313 
L 277.508432 116.63292 
L 277.867155 122.300538 
L 278.106304 118.517691 
L 278.345453 127.689406 
L 278.584602 122.83145 
L 278.704176 123.919843 
L 278.82375 123.375647 
L 278.943325 121.490876 
L 279.062899 121.490876 
L 279.182474 124.450776 
L 279.302048 123.641113 
L 279.541197 120.137017 
L 279.660771 125.260438 
L 280.019495 118.517691 
L 280.139069 119.061888 
L 280.378218 124.450776 
L 280.497792 123.110201 
L 280.617367 124.994972 
L 280.736941 131.724434 
L 280.856515 130.649326 
L 281.095664 126.879763 
L 281.334813 128.499068 
L 281.454387 127.954872 
L 281.693536 130.649326 
L 281.813111 125.260438 
L 281.932685 126.335567 
L 282.410983 122.566004 
L 282.530557 127.954872 
L 282.650132 126.070101 
L 282.88928 118.517691 
L 283.128429 124.450776 
L 283.248004 123.375647 
L 283.367578 123.919843 
L 283.487152 129.030001 
L 283.606727 128.764534 
L 283.726301 131.193522 
L 283.96545 126.070101 
L 284.204599 130.649326 
L 284.563322 123.375647 
L 284.682897 123.641113 
L 284.802471 124.994972 
L 284.922045 123.919843 
L 285.04162 124.185309 
L 285.161194 123.110201 
L 285.280769 123.110201 
L 285.519917 119.606084 
L 285.639492 119.87155 
L 285.759066 119.87155 
L 285.878641 122.021808 
L 285.998215 120.681213 
L 286.237364 116.367454 
L 286.356938 117.442583 
L 286.715662 123.641113 
L 286.835236 122.021808 
L 286.95481 124.185309 
L 287.193959 118.252245 
L 287.433108 120.415747 
L 287.552682 119.606084 
L 287.672257 117.721313 
L 287.911406 122.021808 
L 288.389703 113.128824 
L 288.509278 112.863358 
L 288.628852 113.67302 
L 288.748427 115.823258 
L 288.868001 115.026879 
L 288.987575 111.788229 
L 289.226724 113.128824 
L 289.346299 114.217217 
L 289.465873 117.986779 
L 289.944171 105.589699 
L 290.183319 110.168924 
L 290.302894 110.168924 
L 290.661617 116.367454 
L 291.139915 110.978566 
L 291.259489 112.597892 
L 291.379064 112.597892 
L 291.618212 117.177117 
L 291.737787 114.748129 
L 291.857361 109.903458 
L 291.976936 112.597892 
L 292.09651 112.597892 
L 292.455233 106.664807 
L 292.574808 110.978566 
L 292.694382 109.903458 
L 292.813957 113.938487 
L 293.053105 112.319161 
L 293.17268 115.026879 
L 293.411829 110.713121 
L 293.531403 113.938487 
L 293.650977 113.407554 
L 293.890126 109.093795 
L 294.009701 112.597892 
L 294.129275 112.597892 
L 294.248849 107.47447 
L 294.368424 107.47447 
L 294.487998 107.739936 
L 294.607573 106.399362 
L 294.846722 113.938487 
L 294.966296 108.815065 
L 295.08587 109.903458 
L 295.205445 108.815065 
L 295.564168 116.101988 
L 295.803317 110.168924 
L 295.922891 109.903458 
L 296.042466 108.815065 
L 296.16204 104.780036 
L 296.281614 105.045503 
L 296.520763 113.938487 
L 296.640338 116.367454 
L 297.118635 109.359261 
L 297.23821 113.407554 
L 297.477359 109.624728 
L 297.596933 113.938487 
L 297.716507 110.713121 
L 297.836082 111.522783 
L 297.955656 111.522783 
L 298.194805 119.327354 
L 298.314379 117.986779 
L 298.433954 113.67302 
L 298.553528 116.101988 
L 298.673103 115.292325 
L 298.792677 115.823258 
L 299.031826 113.67302 
L 299.270975 110.43437 
L 299.390549 112.597892 
L 299.510124 110.713121 
L 299.988421 116.63292 
L 300.107996 114.217217 
L 300.22757 117.177117 
L 300.347144 113.938487 
L 300.466719 116.911651 
L 300.586293 115.823258 
L 300.825442 116.367454 
L 300.945016 117.442583 
L 301.064591 117.442583 
L 301.184165 116.911651 
L 301.423314 114.482683 
L 301.662463 117.177117 
L 301.782037 116.63292 
L 301.901612 114.482683 
L 302.021186 115.823258 
L 302.140761 115.557791 
L 302.260335 115.823258 
L 302.379909 117.986779 
L 302.619058 114.482683 
L 302.738633 115.557791 
L 302.858207 112.597892 
L 303.097356 116.911651 
L 303.21693 117.177117 
L 303.456079 120.946679 
L 303.575654 120.681213 
L 303.695228 117.442583 
L 303.814802 119.327354 
L 303.934377 119.061888 
L 304.053951 115.026879 
L 304.173526 118.517691 
L 304.412674 114.217217 
L 304.651823 113.67302 
L 305.010546 119.606084 
L 305.130121 119.87155 
L 305.249695 117.177117 
L 305.36927 119.061888 
L 305.608418 118.517691 
L 305.727993 119.327354 
L 305.967142 122.021808 
L 306.086716 120.415747 
L 306.206291 121.490876 
L 306.565014 114.217217 
L 306.923737 126.614297 
L 307.162886 123.641113 
L 307.28246 122.300538 
L 307.521609 122.300538 
L 307.641183 123.919843 
L 307.760758 120.415747 
L 307.880332 120.681213 
L 307.999907 118.252245 
L 308.119481 119.606084 
L 308.239056 119.061888 
L 308.35863 120.137017 
L 308.478204 119.061888 
L 308.597779 119.061888 
L 308.836928 122.300538 
L 308.956502 124.185309 
L 309.4348 113.938487 
L 309.554374 114.482683 
L 309.673948 118.517691 
L 309.793523 118.517691 
L 309.913097 115.292325 
L 310.032672 115.557791 
L 310.271821 110.43437 
L 310.391395 110.43437 
L 310.510969 107.209024 
L 310.630544 109.624728 
L 310.750118 107.47447 
L 310.989267 109.624728 
L 311.108841 108.815065 
L 311.467565 115.557791 
L 311.706713 111.522783 
L 311.945862 116.367454 
L 312.065437 113.128824 
L 312.185011 113.938487 
L 312.543734 111.244033 
L 312.782883 112.319161 
L 313.022032 118.252245 
L 313.261181 115.292325 
L 313.380755 114.482683 
L 313.50033 111.244033 
L 313.619904 114.482683 
L 313.739478 114.217217 
L 313.859053 113.67302 
L 313.978627 114.482683 
L 314.098202 110.978566 
L 314.217776 114.482683 
L 314.456925 108.815065 
L 314.576499 108.815065 
L 314.696074 109.903458 
L 314.815648 109.624728 
L 315.174371 117.177117 
L 315.293946 116.911651 
L 315.652669 114.217217 
L 315.891818 106.930274 
L 316.130967 110.168924 
L 316.250541 108.018667 
L 316.370115 113.407554 
L 316.609264 111.788229 
L 316.967988 118.796442 
L 317.087562 116.101988 
L 317.326711 117.177117 
L 317.685434 112.863358 
L 317.924583 110.43437 
L 318.283306 121.756342 
L 318.522455 108.815065 
L 318.642029 111.522783 
L 318.761604 119.606084 
L 318.881178 119.606084 
L 319.120327 113.128824 
L 319.359476 119.606084 
L 319.47905 119.327354 
L 319.598625 117.986779 
L 319.718199 121.22541 
L 319.837773 120.415747 
L 319.957348 118.517691 
L 320.196497 119.061888 
L 320.435645 123.641113 
L 320.674794 117.986779 
L 320.794369 117.177117 
L 320.913943 120.681213 
L 321.033517 119.87155 
L 321.272666 114.217217 
L 321.511815 119.87155 
L 321.63139 119.87155 
L 321.870538 121.756342 
L 321.990113 120.681213 
L 322.109687 115.557791 
L 322.229262 116.911651 
L 322.587985 123.641113 
L 322.707559 122.83145 
L 322.827134 121.22541 
L 323.066282 126.335567 
L 323.185857 126.070101 
L 323.425006 129.574197 
L 323.903303 118.252245 
L 324.022878 117.177117 
L 324.262027 113.938487 
L 324.381601 114.482683 
L 324.740324 120.946679 
L 324.859899 121.756342 
L 324.979473 121.22541 
L 325.099047 119.87155 
L 325.218622 120.137017 
L 325.457771 121.22541 
L 325.577345 119.061888 
L 325.69692 120.415747 
L 325.816494 120.415747 
L 325.936068 124.185309 
L 326.055643 120.681213 
L 326.294792 125.260438 
L 326.414366 122.300538 
L 326.653515 126.614297 
L 327.131812 117.442583 
L 327.61011 125.525904 
L 327.968833 116.911651 
L 328.207982 121.22541 
L 328.327557 120.946679 
L 328.68628 113.407554 
L 328.805854 115.026879 
L 329.045003 121.490876 
L 329.164577 118.252245 
L 329.403726 119.061888 
L 329.642875 117.442583 
L 329.762449 119.87155 
L 329.882024 119.327354 
L 330.001598 120.415747 
L 330.121173 117.177117 
L 330.240747 117.177117 
L 330.360322 114.482683 
L 330.479896 114.482683 
L 330.59947 109.903458 
L 330.838619 116.63292 
L 330.958194 118.252245 
L 331.077768 116.367454 
L 331.197342 118.252245 
L 331.436491 112.863358 
L 331.556066 113.67302 
L 331.67564 113.67302 
L 331.914789 111.788229 
L 332.153938 114.482683 
L 332.393087 113.128824 
L 332.512661 113.67302 
L 332.632235 116.101988 
L 332.990959 108.549599 
L 333.230107 116.63292 
L 333.349682 116.367454 
L 333.469256 116.911651 
L 333.708405 112.053695 
L 333.827979 112.053695 
L 333.947554 113.407554 
L 334.186703 110.978566 
L 334.425851 116.101988 
L 334.545426 109.624728 
L 334.665 111.244033 
L 334.904149 109.359261 
L 335.023724 110.713121 
L 335.143298 106.664807 
L 335.382447 115.823258 
L 335.502021 111.522783 
L 335.621596 111.522783 
L 335.860744 113.938487 
L 335.980319 113.67302 
L 336.099893 112.319161 
L 336.219468 113.128824 
L 336.339042 110.978566 
L 336.458616 111.788229 
L 336.578191 111.244033 
L 336.697765 111.244033 
L 336.81734 108.549599 
L 337.176063 115.557791 
L 337.654361 109.093795 
L 338.013084 117.442583 
L 338.371807 110.43437 
L 338.491381 109.624728 
L 338.610956 115.026879 
L 338.73053 114.748129 
L 338.969679 112.319161 
L 339.208828 113.128824 
L 339.328402 113.128824 
L 339.447977 109.359261 
L 339.567551 115.823258 
L 339.687126 109.093795 
L 339.8067 110.978566 
L 339.926274 115.557791 
L 340.045849 114.748129 
L 340.284998 109.903458 
L 340.524146 117.177117 
L 340.643721 115.557791 
L 340.763295 111.788229 
L 340.88287 115.823258 
L 341.002444 113.128824 
L 341.241593 121.22541 
L 341.480742 110.168924 
L 341.600316 110.978566 
L 341.839465 116.101988 
L 341.959039 114.482683 
L 342.078614 116.911651 
L 342.317763 113.128824 
L 342.556911 118.517691 
L 342.676486 119.327354 
L 342.79606 115.026879 
L 342.915635 115.026879 
L 343.035209 115.292325 
L 343.154783 116.911651 
L 343.393932 112.319161 
L 343.633081 118.517691 
L 343.752656 117.986779 
L 343.87223 115.823258 
L 344.111379 119.87155 
L 344.230953 119.327354 
L 344.350528 114.748129 
L 344.828825 118.252245 
L 344.9484 116.911651 
L 345.067974 117.986779 
L 345.307123 122.300538 
L 345.546272 117.721313 
L 345.665846 120.681213 
L 345.785421 119.606084 
L 345.904995 116.911651 
L 346.024569 119.606084 
L 346.144144 119.606084 
L 346.263718 122.566004 
L 346.383293 119.327354 
L 346.502867 119.327354 
L 346.742016 124.185309 
L 346.86159 120.681213 
L 346.981165 122.566004 
L 347.100739 117.721313 
L 347.339888 119.061888 
L 347.459462 117.986779 
L 347.579037 115.026879 
L 347.698611 120.137017 
L 347.818186 119.606084 
L 347.93776 117.721313 
L 348.176909 119.327354 
L 348.296483 123.110201 
L 348.655206 114.482683 
L 349.01393 120.681213 
L 349.133504 119.87155 
L 349.253078 120.946679 
L 349.372653 119.061888 
L 349.492227 120.415747 
L 349.611802 123.919843 
L 349.731376 122.300538 
L 349.85095 122.300538 
L 349.970525 126.614297 
L 350.090099 124.185309 
L 350.329248 116.63292 
L 350.448823 115.292325 
L 350.687971 117.986779 
L 350.807546 119.061888 
L 350.92712 118.796442 
L 351.046695 118.252245 
L 351.166269 118.517691 
L 351.285843 121.490876 
L 351.524992 118.796442 
L 351.764141 120.946679 
L 351.883715 117.986779 
L 352.00329 117.986779 
L 352.601162 123.919843 
L 352.720736 122.300538 
L 352.959885 115.557791 
L 353.07946 116.911651 
L 353.318608 122.021808 
L 353.557757 124.729506 
L 353.796906 117.177117 
L 353.91648 115.823258 
L 354.036055 117.721313 
L 354.155629 116.911651 
L 354.275204 118.796442 
L 354.394778 117.986779 
L 354.633927 124.185309 
L 354.873076 119.606084 
L 354.99265 117.721313 
L 355.112225 118.252245 
L 355.231799 115.292325 
L 355.351373 115.292325 
L 355.590522 111.522783 
L 355.710097 113.407554 
L 355.949245 111.788229 
L 356.06882 113.407554 
L 356.188394 112.863358 
L 356.427543 115.823258 
L 356.666692 114.217217 
L 356.786266 108.815065 
L 357.025415 115.026879 
L 357.264564 117.986779 
L 357.384138 118.252245 
L 357.623287 113.128824 
L 357.742862 115.026879 
L 357.862436 112.319161 
L 358.101585 117.986779 
L 358.340734 120.415747 
L 358.579882 110.168924 
L 358.819031 119.327354 
L 359.05818 112.863358 
L 359.416903 115.292325 
L 359.536478 116.101988 
L 359.656052 113.938487 
L 359.775627 109.359261 
L 360.014775 118.252245 
L 360.13435 118.252245 
L 360.373499 112.319161 
L 360.493073 113.407554 
L 360.971371 106.930274 
L 361.21052 115.823258 
L 361.330094 113.67302 
L 361.569243 117.177117 
L 361.688817 116.367454 
L 361.927966 112.863358 
L 362.167115 115.823258 
L 362.286689 118.252245 
L 362.406264 117.721313 
L 362.525838 115.823258 
L 362.645412 109.903458 
L 362.764987 109.903458 
L 363.004136 118.252245 
L 363.12371 117.442583 
L 363.362859 114.748129 
L 363.482433 115.557791 
L 363.602008 111.788229 
L 363.841157 118.252245 
L 363.960731 117.721313 
L 364.19988 109.093795 
L 364.319454 111.244033 
L 364.678177 126.879763 
L 364.917326 115.292325 
L 365.036901 116.63292 
L 365.276049 115.292325 
L 365.395624 113.128824 
L 365.515198 113.407554 
L 365.754347 117.442583 
L 365.873922 113.938487 
L 365.993496 117.986779 
L 366.232645 114.482683 
L 366.352219 114.482683 
L 366.591368 122.021808 
L 366.950091 114.482683 
L 367.069666 115.557791 
L 367.308814 119.606084 
L 367.428389 118.796442 
L 367.547963 115.557791 
L 367.787112 115.557791 
L 368.026261 125.804635 
L 368.504559 116.63292 
L 368.743707 119.327354 
L 368.863282 117.986779 
L 368.982856 113.407554 
L 369.222005 113.67302 
L 369.341579 115.557791 
L 369.461154 115.292325 
L 369.819877 119.327354 
L 370.059026 117.177117 
L 370.1786 121.490876 
L 370.298175 120.415747 
L 370.417749 117.721313 
L 370.656898 117.721313 
L 370.776472 116.101988 
L 370.896047 117.442583 
L 371.015621 115.557791 
L 371.135196 119.061888 
L 371.25477 117.986779 
L 371.374344 117.986779 
L 371.613493 115.823258 
L 371.733068 118.252245 
L 372.211365 112.863358 
L 372.450514 105.589699 
L 372.570089 110.168924 
L 372.689663 109.359261 
L 372.809237 110.168924 
L 373.048386 117.177117 
L 373.167961 117.177117 
L 373.287535 113.938487 
L 373.407109 114.217217 
L 373.526684 113.67302 
L 373.885407 118.252245 
L 374.124556 109.093795 
L 374.363705 113.407554 
L 374.483279 113.128824 
L 374.722428 117.986779 
L 374.842002 116.63292 
L 375.081151 109.093795 
L 375.200726 110.43437 
L 375.3203 106.120611 
L 375.679023 113.407554 
L 375.798598 112.053695 
L 375.918172 112.319161 
L 376.037746 111.244033 
L 376.157321 113.67302 
L 376.276895 111.788229 
L 376.39647 106.120611 
L 376.516044 109.624728 
L 376.635619 109.624728 
L 376.755193 110.978566 
L 376.994342 109.093795 
L 377.113916 111.244033 
L 377.233491 110.713121 
L 377.353065 110.978566 
L 377.592214 118.252245 
L 377.831363 114.482683 
L 377.950937 114.217217 
L 378.190086 117.986779 
L 378.429235 110.43437 
L 378.548809 110.713121 
L 378.668384 112.053695 
L 378.787958 109.359261 
L 378.907532 103.426177 
L 379.027107 103.704908 
L 379.146681 105.045503 
L 379.266256 109.624728 
L 379.38583 106.664807 
L 379.505404 106.664807 
L 379.864128 113.128824 
L 379.983702 113.67302 
L 380.103276 110.43437 
L 380.222851 110.978566 
L 380.462 114.482683 
L 380.581574 110.978566 
L 380.820723 117.177117 
L 380.940297 117.442583 
L 381.179446 110.713121 
L 381.299021 111.788229 
L 381.538169 110.43437 
L 381.657744 110.168924 
L 381.777318 108.549599 
L 381.896893 109.359261 
L 382.255616 115.026879 
L 382.37519 113.128824 
L 382.494765 107.47447 
L 382.614339 108.815065 
L 382.853488 113.407554 
L 383.092637 110.168924 
L 383.212211 113.407554 
L 383.331786 112.597892 
L 383.45136 112.863358 
L 383.690509 117.721313 
L 383.810083 117.177117 
L 384.049232 109.903458 
L 384.168806 110.168924 
L 384.407955 114.482683 
L 384.647104 118.517691 
L 384.766678 114.482683 
L 385.244976 116.367454 
L 385.364551 115.823258 
L 385.484125 114.748129 
L 385.603699 114.748129 
L 385.842848 113.67302 
L 386.081997 115.292325 
L 386.201571 113.67302 
L 386.321146 115.292325 
L 386.44072 115.026879 
L 386.560295 115.292325 
L 386.679869 118.252245 
L 386.919018 112.319161 
L 387.038592 114.217217 
L 387.277741 109.903458 
L 387.51689 116.63292 
L 387.636464 115.292325 
L 387.756039 118.252245 
L 387.875613 117.442583 
L 387.995188 117.986779 
L 388.114762 120.415747 
L 388.234336 119.061888 
L 388.353911 115.557791 
L 388.473485 116.367454 
L 388.59306 118.796442 
L 388.712634 118.252245 
L 388.832208 112.597892 
L 388.832208 112.597892 
" style="fill:none;stroke:#1f77b4;stroke-linecap:round;stroke-width:1.5;"/>
   </g>
   <g id="line2d_15">
    <path clip-path="url(#pca8e4aab0e)" d="M 81.965576 -1 
L 81.983457 289 
L 81.983457 289 
" style="fill:none;stroke:#ff7f0e;stroke-linecap:round;stroke-width:1.5;"/>
   </g>
   <g id="patch_3">
    <path d="M 54 252 
L 54 34.56 
" style="fill:none;stroke:#cccccc;stroke-linecap:square;stroke-linejoin:miter;stroke-width:0.8;"/>
   </g>
   <g id="patch_4">
    <path d="M 388.8 252 
L 388.8 34.56 
" style="fill:none;stroke:#cccccc;stroke-linecap:square;stroke-linejoin:miter;stroke-width:0.8;"/>
   </g>
   <g id="patch_5">
    <path d="M 54 252 
L 388.8 252 
" style="fill:none;stroke:#cccccc;stroke-linecap:square;stroke-linejoin:miter;stroke-width:0.8;"/>
   </g>
   <g id="patch_6">
    <path d="M 54 34.56 
L 388.8 34.56 
" style="fill:none;stroke:#cccccc;stroke-linecap:square;stroke-linejoin:miter;stroke-width:0.8;"/>
   </g>
  </g>
 </g>
 <defs>
  <clipPath id="pca8e4aab0e">
   <rect height="217.44" width="334.8" x="54" y="34.56"/>
  </clipPath>
 </defs>
</svg>
