<?xml version="1.0" encoding="utf-8" standalone="no"?>
<!DOCTYPE svg PUBLIC "-//W3C//DTD SVG 1.1//EN"
  "http://www.w3.org/Graphics/SVG/1.1/DTD/svg11.dtd">
<!-- Created with matplotlib (https://matplotlib.org/) -->
<svg height="288pt" version="1.1" viewBox="0 0 432 288" width="432pt" xmlns="http://www.w3.org/2000/svg" xmlns:xlink="http://www.w3.org/1999/xlink">
 <metadata>
  <rdf:RDF xmlns:cc="http://creativecommons.org/ns#" xmlns:dc="http://purl.org/dc/elements/1.1/" xmlns:rdf="http://www.w3.org/1999/02/22-rdf-syntax-ns#">
   <cc:Work>
    <dc:type rdf:resource="http://purl.org/dc/dcmitype/StillImage"/>
    <dc:date>2022-05-25T22:50:38.027151</dc:date>
    <dc:format>image/svg+xml</dc:format>
    <dc:creator>
     <cc:Agent>
      <dc:title>Matplotlib v3.3.3, https://matplotlib.org/</dc:title>
     </cc:Agent>
    </dc:creator>
   </cc:Work>
  </rdf:RDF>
 </metadata>
 <defs>
  <style type="text/css">*{stroke-linecap:butt;stroke-linejoin:round;}</style>
 </defs>
 <g id="figure_1">
  <g id="patch_1">
   <path d="M 0 288 
L 432 288 
L 432 0 
L 0 0 
z
" style="fill:#ffffff;"/>
  </g>
  <g id="axes_1">
   <g id="patch_2">
    <path d="M 54 252 
L 388.8 252 
L 388.8 34.56 
L 54 34.56 
z
" style="fill:#ffffff;"/>
   </g>
   <g id="matplotlib.axis_1">
    <g id="xtick_1">
     <g id="line2d_1">
      <path clip-path="url(#pd9e5d82034)" d="M 91.2 252 
L 91.2 34.56 
" style="fill:none;stroke:#cccccc;stroke-linecap:round;stroke-width:0.8;"/>
     </g>
     <g id="text_1">
      <!-- 0.00027 -->
      <g style="fill:#262626;" transform="translate(73.128125 266.157812)scale(0.1 -0.1)">
       <defs>
        <path d="M 4.15625 35.296875 
Q 4.15625 48 6.765625 55.734375 
Q 9.375 63.484375 14.515625 67.671875 
Q 19.671875 71.875 27.484375 71.875 
Q 33.25 71.875 37.59375 69.546875 
Q 41.9375 67.234375 44.765625 62.859375 
Q 47.609375 58.5 49.21875 52.21875 
Q 50.828125 45.953125 50.828125 35.296875 
Q 50.828125 22.703125 48.234375 14.96875 
Q 45.65625 7.234375 40.5 3 
Q 35.359375 -1.21875 27.484375 -1.21875 
Q 17.140625 -1.21875 11.234375 6.203125 
Q 4.15625 15.140625 4.15625 35.296875 
z
M 13.1875 35.296875 
Q 13.1875 17.671875 17.3125 11.828125 
Q 21.4375 6 27.484375 6 
Q 33.546875 6 37.671875 11.859375 
Q 41.796875 17.71875 41.796875 35.296875 
Q 41.796875 52.984375 37.671875 58.78125 
Q 33.546875 64.59375 27.390625 64.59375 
Q 21.34375 64.59375 17.71875 59.46875 
Q 13.1875 52.9375 13.1875 35.296875 
z
" id="ArialMT-48"/>
        <path d="M 9.078125 0 
L 9.078125 10.015625 
L 19.09375 10.015625 
L 19.09375 0 
z
" id="ArialMT-46"/>
        <path d="M 50.34375 8.453125 
L 50.34375 0 
L 3.03125 0 
Q 2.9375 3.171875 4.046875 6.109375 
Q 5.859375 10.9375 9.828125 15.625 
Q 13.8125 20.3125 21.34375 26.46875 
Q 33.015625 36.03125 37.109375 41.625 
Q 41.21875 47.21875 41.21875 52.203125 
Q 41.21875 57.421875 37.46875 61 
Q 33.734375 64.59375 27.734375 64.59375 
Q 21.390625 64.59375 17.578125 60.78125 
Q 13.765625 56.984375 13.71875 50.25 
L 4.6875 51.171875 
Q 5.609375 61.28125 11.65625 66.578125 
Q 17.71875 71.875 27.9375 71.875 
Q 38.234375 71.875 44.234375 66.15625 
Q 50.25 60.453125 50.25 52 
Q 50.25 47.703125 48.484375 43.546875 
Q 46.734375 39.40625 42.65625 34.8125 
Q 38.578125 30.21875 29.109375 22.21875 
Q 21.1875 15.578125 18.9375 13.203125 
Q 16.703125 10.84375 15.234375 8.453125 
z
" id="ArialMT-50"/>
        <path d="M 4.734375 62.203125 
L 4.734375 70.65625 
L 51.078125 70.65625 
L 51.078125 63.8125 
Q 44.234375 56.546875 37.515625 44.484375 
Q 30.8125 32.421875 27.15625 19.671875 
Q 24.515625 10.6875 23.78125 0 
L 14.75 0 
Q 14.890625 8.453125 18.0625 20.40625 
Q 21.234375 32.375 27.171875 43.484375 
Q 33.109375 54.59375 39.796875 62.203125 
z
" id="ArialMT-55"/>
       </defs>
       <use xlink:href="#ArialMT-48"/>
       <use x="55.615234" xlink:href="#ArialMT-46"/>
       <use x="83.398438" xlink:href="#ArialMT-48"/>
       <use x="139.013672" xlink:href="#ArialMT-48"/>
       <use x="194.628906" xlink:href="#ArialMT-48"/>
       <use x="250.244141" xlink:href="#ArialMT-50"/>
       <use x="305.859375" xlink:href="#ArialMT-55"/>
      </g>
     </g>
    </g>
    <g id="xtick_2">
     <g id="line2d_2">
      <path clip-path="url(#pd9e5d82034)" d="M 165.6 252 
L 165.6 34.56 
" style="fill:none;stroke:#cccccc;stroke-linecap:round;stroke-width:0.8;"/>
     </g>
     <g id="text_2">
      <!-- 0.00028 -->
      <g style="fill:#262626;" transform="translate(147.528125 266.157812)scale(0.1 -0.1)">
       <defs>
        <path d="M 17.671875 38.8125 
Q 12.203125 40.828125 9.5625 44.53125 
Q 6.9375 48.25 6.9375 53.421875 
Q 6.9375 61.234375 12.546875 66.546875 
Q 18.171875 71.875 27.484375 71.875 
Q 36.859375 71.875 42.578125 66.421875 
Q 48.296875 60.984375 48.296875 53.171875 
Q 48.296875 48.1875 45.671875 44.5 
Q 43.0625 40.828125 37.75 38.8125 
Q 44.34375 36.671875 47.78125 31.875 
Q 51.21875 27.09375 51.21875 20.453125 
Q 51.21875 11.28125 44.71875 5.03125 
Q 38.234375 -1.21875 27.640625 -1.21875 
Q 17.046875 -1.21875 10.546875 5.046875 
Q 4.046875 11.328125 4.046875 20.703125 
Q 4.046875 27.6875 7.59375 32.390625 
Q 11.140625 37.109375 17.671875 38.8125 
z
M 15.921875 53.71875 
Q 15.921875 48.640625 19.1875 45.40625 
Q 22.46875 42.1875 27.6875 42.1875 
Q 32.765625 42.1875 36.015625 45.375 
Q 39.265625 48.578125 39.265625 53.21875 
Q 39.265625 58.0625 35.90625 61.359375 
Q 32.5625 64.65625 27.59375 64.65625 
Q 22.5625 64.65625 19.234375 61.421875 
Q 15.921875 58.203125 15.921875 53.71875 
z
M 13.09375 20.65625 
Q 13.09375 16.890625 14.875 13.375 
Q 16.65625 9.859375 20.171875 7.921875 
Q 23.6875 6 27.734375 6 
Q 34.03125 6 38.125 10.046875 
Q 42.234375 14.109375 42.234375 20.359375 
Q 42.234375 26.703125 38.015625 30.859375 
Q 33.796875 35.015625 27.4375 35.015625 
Q 21.234375 35.015625 17.15625 30.90625 
Q 13.09375 26.8125 13.09375 20.65625 
z
" id="ArialMT-56"/>
       </defs>
       <use xlink:href="#ArialMT-48"/>
       <use x="55.615234" xlink:href="#ArialMT-46"/>
       <use x="83.398438" xlink:href="#ArialMT-48"/>
       <use x="139.013672" xlink:href="#ArialMT-48"/>
       <use x="194.628906" xlink:href="#ArialMT-48"/>
       <use x="250.244141" xlink:href="#ArialMT-50"/>
       <use x="305.859375" xlink:href="#ArialMT-56"/>
      </g>
     </g>
    </g>
    <g id="xtick_3">
     <g id="line2d_3">
      <path clip-path="url(#pd9e5d82034)" d="M 240 252 
L 240 34.56 
" style="fill:none;stroke:#cccccc;stroke-linecap:round;stroke-width:0.8;"/>
     </g>
     <g id="text_3">
      <!-- 0.00029 -->
      <g style="fill:#262626;" transform="translate(221.928125 266.157812)scale(0.1 -0.1)">
       <defs>
        <path d="M 5.46875 16.546875 
L 13.921875 17.328125 
Q 14.984375 11.375 18.015625 8.6875 
Q 21.046875 6 25.78125 6 
Q 29.828125 6 32.875 7.859375 
Q 35.9375 9.71875 37.890625 12.8125 
Q 39.84375 15.921875 41.15625 21.1875 
Q 42.484375 26.46875 42.484375 31.9375 
Q 42.484375 32.515625 42.4375 33.6875 
Q 39.796875 29.5 35.234375 26.875 
Q 30.671875 24.265625 25.34375 24.265625 
Q 16.453125 24.265625 10.296875 30.703125 
Q 4.15625 37.15625 4.15625 47.703125 
Q 4.15625 58.59375 10.578125 65.234375 
Q 17 71.875 26.65625 71.875 
Q 33.640625 71.875 39.421875 68.109375 
Q 45.21875 64.359375 48.21875 57.390625 
Q 51.21875 50.4375 51.21875 37.25 
Q 51.21875 23.53125 48.234375 15.40625 
Q 45.265625 7.28125 39.375 3.03125 
Q 33.5 -1.21875 25.59375 -1.21875 
Q 17.1875 -1.21875 11.859375 3.4375 
Q 6.546875 8.109375 5.46875 16.546875 
z
M 41.453125 48.140625 
Q 41.453125 55.71875 37.421875 60.15625 
Q 33.40625 64.59375 27.734375 64.59375 
Q 21.875 64.59375 17.53125 59.8125 
Q 13.1875 55.03125 13.1875 47.40625 
Q 13.1875 40.578125 17.3125 36.296875 
Q 21.4375 32.03125 27.484375 32.03125 
Q 33.59375 32.03125 37.515625 36.296875 
Q 41.453125 40.578125 41.453125 48.140625 
z
" id="ArialMT-57"/>
       </defs>
       <use xlink:href="#ArialMT-48"/>
       <use x="55.615234" xlink:href="#ArialMT-46"/>
       <use x="83.398438" xlink:href="#ArialMT-48"/>
       <use x="139.013672" xlink:href="#ArialMT-48"/>
       <use x="194.628906" xlink:href="#ArialMT-48"/>
       <use x="250.244141" xlink:href="#ArialMT-50"/>
       <use x="305.859375" xlink:href="#ArialMT-57"/>
      </g>
     </g>
    </g>
    <g id="xtick_4">
     <g id="line2d_4">
      <path clip-path="url(#pd9e5d82034)" d="M 314.4 252 
L 314.4 34.56 
" style="fill:none;stroke:#cccccc;stroke-linecap:round;stroke-width:0.8;"/>
     </g>
     <g id="text_4">
      <!-- 0.00030 -->
      <g style="fill:#262626;" transform="translate(296.328125 266.157812)scale(0.1 -0.1)">
       <defs>
        <path d="M 4.203125 18.890625 
L 12.984375 20.0625 
Q 14.5 12.59375 18.140625 9.296875 
Q 21.78125 6 27 6 
Q 33.203125 6 37.46875 10.296875 
Q 41.75 14.59375 41.75 20.953125 
Q 41.75 27 37.796875 30.921875 
Q 33.84375 34.859375 27.734375 34.859375 
Q 25.25 34.859375 21.53125 33.890625 
L 22.515625 41.609375 
Q 23.390625 41.5 23.921875 41.5 
Q 29.546875 41.5 34.03125 44.421875 
Q 38.53125 47.359375 38.53125 53.46875 
Q 38.53125 58.296875 35.25 61.46875 
Q 31.984375 64.65625 26.8125 64.65625 
Q 21.6875 64.65625 18.265625 61.421875 
Q 14.84375 58.203125 13.875 51.765625 
L 5.078125 53.328125 
Q 6.6875 62.15625 12.390625 67.015625 
Q 18.109375 71.875 26.609375 71.875 
Q 32.46875 71.875 37.390625 69.359375 
Q 42.328125 66.84375 44.9375 62.5 
Q 47.5625 58.15625 47.5625 53.265625 
Q 47.5625 48.640625 45.0625 44.828125 
Q 42.578125 41.015625 37.703125 38.765625 
Q 44.046875 37.3125 47.5625 32.6875 
Q 51.078125 28.078125 51.078125 21.140625 
Q 51.078125 11.765625 44.234375 5.25 
Q 37.40625 -1.265625 26.953125 -1.265625 
Q 17.53125 -1.265625 11.296875 4.34375 
Q 5.078125 9.96875 4.203125 18.890625 
z
" id="ArialMT-51"/>
       </defs>
       <use xlink:href="#ArialMT-48"/>
       <use x="55.615234" xlink:href="#ArialMT-46"/>
       <use x="83.398438" xlink:href="#ArialMT-48"/>
       <use x="139.013672" xlink:href="#ArialMT-48"/>
       <use x="194.628906" xlink:href="#ArialMT-48"/>
       <use x="250.244141" xlink:href="#ArialMT-51"/>
       <use x="305.859375" xlink:href="#ArialMT-48"/>
      </g>
     </g>
    </g>
    <g id="xtick_5">
     <g id="line2d_5">
      <path clip-path="url(#pd9e5d82034)" d="M 388.8 252 
L 388.8 34.56 
" style="fill:none;stroke:#cccccc;stroke-linecap:round;stroke-width:0.8;"/>
     </g>
     <g id="text_5">
      <!-- 0.00031 -->
      <g style="fill:#262626;" transform="translate(370.728125 266.157812)scale(0.1 -0.1)">
       <defs>
        <path d="M 37.25 0 
L 28.46875 0 
L 28.46875 56 
Q 25.296875 52.984375 20.140625 49.953125 
Q 14.984375 46.921875 10.890625 45.40625 
L 10.890625 53.90625 
Q 18.265625 57.375 23.78125 62.296875 
Q 29.296875 67.234375 31.59375 71.875 
L 37.25 71.875 
z
" id="ArialMT-49"/>
       </defs>
       <use xlink:href="#ArialMT-48"/>
       <use x="55.615234" xlink:href="#ArialMT-46"/>
       <use x="83.398438" xlink:href="#ArialMT-48"/>
       <use x="139.013672" xlink:href="#ArialMT-48"/>
       <use x="194.628906" xlink:href="#ArialMT-48"/>
       <use x="250.244141" xlink:href="#ArialMT-51"/>
       <use x="305.859375" xlink:href="#ArialMT-49"/>
      </g>
     </g>
    </g>
   </g>
   <g id="matplotlib.axis_2">
    <g id="ytick_1">
     <g id="line2d_6">
      <path clip-path="url(#pd9e5d82034)" d="M 54 252 
L 388.8 252 
" style="fill:none;stroke:#cccccc;stroke-linecap:round;stroke-width:0.8;"/>
     </g>
     <g id="text_6">
      <!-- 0.005 -->
      <g style="fill:#262626;" transform="translate(21.978125 255.578906)scale(0.1 -0.1)">
       <defs>
        <path d="M 4.15625 18.75 
L 13.375 19.53125 
Q 14.40625 12.796875 18.140625 9.390625 
Q 21.875 6 27.15625 6 
Q 33.5 6 37.890625 10.78125 
Q 42.28125 15.578125 42.28125 23.484375 
Q 42.28125 31 38.0625 35.34375 
Q 33.84375 39.703125 27 39.703125 
Q 22.75 39.703125 19.328125 37.765625 
Q 15.921875 35.84375 13.96875 32.765625 
L 5.71875 33.84375 
L 12.640625 70.609375 
L 48.25 70.609375 
L 48.25 62.203125 
L 19.671875 62.203125 
L 15.828125 42.96875 
Q 22.265625 47.46875 29.34375 47.46875 
Q 38.71875 47.46875 45.15625 40.96875 
Q 51.609375 34.46875 51.609375 24.265625 
Q 51.609375 14.546875 45.953125 7.46875 
Q 39.0625 -1.21875 27.15625 -1.21875 
Q 17.390625 -1.21875 11.203125 4.25 
Q 5.03125 9.71875 4.15625 18.75 
z
" id="ArialMT-53"/>
       </defs>
       <use xlink:href="#ArialMT-48"/>
       <use x="55.615234" xlink:href="#ArialMT-46"/>
       <use x="83.398438" xlink:href="#ArialMT-48"/>
       <use x="139.013672" xlink:href="#ArialMT-48"/>
       <use x="194.628906" xlink:href="#ArialMT-53"/>
      </g>
     </g>
    </g>
    <g id="ytick_2">
     <g id="line2d_7">
      <path clip-path="url(#pd9e5d82034)" d="M 54 215.76 
L 388.8 215.76 
" style="fill:none;stroke:#cccccc;stroke-linecap:round;stroke-width:0.8;"/>
     </g>
     <g id="text_7">
      <!-- 0.010 -->
      <g style="fill:#262626;" transform="translate(21.978125 219.338906)scale(0.1 -0.1)">
       <use xlink:href="#ArialMT-48"/>
       <use x="55.615234" xlink:href="#ArialMT-46"/>
       <use x="83.398438" xlink:href="#ArialMT-48"/>
       <use x="139.013672" xlink:href="#ArialMT-49"/>
       <use x="194.628906" xlink:href="#ArialMT-48"/>
      </g>
     </g>
    </g>
    <g id="ytick_3">
     <g id="line2d_8">
      <path clip-path="url(#pd9e5d82034)" d="M 54 179.52 
L 388.8 179.52 
" style="fill:none;stroke:#cccccc;stroke-linecap:round;stroke-width:0.8;"/>
     </g>
     <g id="text_8">
      <!-- 0.015 -->
      <g style="fill:#262626;" transform="translate(21.978125 183.098906)scale(0.1 -0.1)">
       <use xlink:href="#ArialMT-48"/>
       <use x="55.615234" xlink:href="#ArialMT-46"/>
       <use x="83.398438" xlink:href="#ArialMT-48"/>
       <use x="139.013672" xlink:href="#ArialMT-49"/>
       <use x="194.628906" xlink:href="#ArialMT-53"/>
      </g>
     </g>
    </g>
    <g id="ytick_4">
     <g id="line2d_9">
      <path clip-path="url(#pd9e5d82034)" d="M 54 143.28 
L 388.8 143.28 
" style="fill:none;stroke:#cccccc;stroke-linecap:round;stroke-width:0.8;"/>
     </g>
     <g id="text_9">
      <!-- 0.020 -->
      <g style="fill:#262626;" transform="translate(21.978125 146.858906)scale(0.1 -0.1)">
       <use xlink:href="#ArialMT-48"/>
       <use x="55.615234" xlink:href="#ArialMT-46"/>
       <use x="83.398438" xlink:href="#ArialMT-48"/>
       <use x="139.013672" xlink:href="#ArialMT-50"/>
       <use x="194.628906" xlink:href="#ArialMT-48"/>
      </g>
     </g>
    </g>
    <g id="ytick_5">
     <g id="line2d_10">
      <path clip-path="url(#pd9e5d82034)" d="M 54 107.04 
L 388.8 107.04 
" style="fill:none;stroke:#cccccc;stroke-linecap:round;stroke-width:0.8;"/>
     </g>
     <g id="text_10">
      <!-- 0.025 -->
      <g style="fill:#262626;" transform="translate(21.978125 110.618906)scale(0.1 -0.1)">
       <use xlink:href="#ArialMT-48"/>
       <use x="55.615234" xlink:href="#ArialMT-46"/>
       <use x="83.398438" xlink:href="#ArialMT-48"/>
       <use x="139.013672" xlink:href="#ArialMT-50"/>
       <use x="194.628906" xlink:href="#ArialMT-53"/>
      </g>
     </g>
    </g>
    <g id="ytick_6">
     <g id="line2d_11">
      <path clip-path="url(#pd9e5d82034)" d="M 54 70.8 
L 388.8 70.8 
" style="fill:none;stroke:#cccccc;stroke-linecap:round;stroke-width:0.8;"/>
     </g>
     <g id="text_11">
      <!-- 0.030 -->
      <g style="fill:#262626;" transform="translate(21.978125 74.378906)scale(0.1 -0.1)">
       <use xlink:href="#ArialMT-48"/>
       <use x="55.615234" xlink:href="#ArialMT-46"/>
       <use x="83.398438" xlink:href="#ArialMT-48"/>
       <use x="139.013672" xlink:href="#ArialMT-51"/>
       <use x="194.628906" xlink:href="#ArialMT-48"/>
      </g>
     </g>
    </g>
    <g id="ytick_7">
     <g id="line2d_12">
      <path clip-path="url(#pd9e5d82034)" d="M 54 34.56 
L 388.8 34.56 
" style="fill:none;stroke:#cccccc;stroke-linecap:round;stroke-width:0.8;"/>
     </g>
     <g id="text_12">
      <!-- 0.035 -->
      <g style="fill:#262626;" transform="translate(21.978125 38.138906)scale(0.1 -0.1)">
       <use xlink:href="#ArialMT-48"/>
       <use x="55.615234" xlink:href="#ArialMT-46"/>
       <use x="83.398438" xlink:href="#ArialMT-48"/>
       <use x="139.013672" xlink:href="#ArialMT-51"/>
       <use x="194.628906" xlink:href="#ArialMT-53"/>
      </g>
     </g>
    </g>
   </g>
   <g id="line2d_13">
    <path clip-path="url(#pd9e5d82034)" d="M 53.956172 230.590478 
L 54.049174 231.176708 
L 54.142176 229.229983 
L 54.328181 231.176708 
L 54.421183 230.590478 
L 54.607188 231.762938 
L 54.70019 229.816213 
L 54.886195 231.950972 
L 55.0722 229.816213 
L 55.444209 231.56384 
L 55.537211 231.375806 
L 55.630214 232.338104 
L 55.723216 231.56384 
L 55.816218 233.311467 
L 56.002223 230.97761 
L 56.188228 233.698599 
L 56.374232 229.041949 
L 56.467234 229.628179 
L 56.560237 231.950972 
L 56.653239 231.56384 
L 56.746241 230.203345 
L 56.839244 232.15007 
L 56.932246 231.950972 
L 57.118251 229.816213 
L 57.211253 230.015311 
L 57.304255 229.041949 
L 57.49026 232.338104 
L 57.676265 228.654817 
L 57.955272 232.15007 
L 58.048274 231.176708 
L 58.141276 232.924335 
L 58.327281 228.842851 
L 58.420283 229.628179 
L 58.606288 233.123429 
L 58.792292 230.789576 
L 58.885295 231.950972 
L 59.071299 230.789576 
L 59.164302 230.97761 
L 59.257304 228.654817 
L 59.350306 231.176708 
L 59.443309 229.628179 
L 59.536311 229.816213 
L 59.629313 229.229983 
L 59.815318 232.537202 
L 59.90832 233.698599 
L 60.094325 230.015311 
L 60.28033 232.537202 
L 60.466334 230.789576 
L 60.559337 229.628179 
L 60.745341 232.15007 
L 60.931346 230.015311 
L 61.024348 231.176708 
L 61.11735 229.041949 
L 61.303355 231.762938 
L 61.396357 231.762938 
L 61.48936 232.725237 
L 61.582362 231.950972 
L 61.768367 228.068587 
L 62.047374 230.97761 
L 62.233378 229.628179 
L 62.326381 230.789576 
L 62.512385 227.095231 
L 62.605388 226.90719 
L 62.791392 230.789576 
L 62.977397 228.267684 
L 63.070399 230.402443 
L 63.163401 229.816213 
L 63.349406 230.590478 
L 63.442408 231.950972 
L 63.628413 230.015311 
L 63.721415 231.375806 
L 63.814418 231.176708 
L 63.90742 231.176708 
L 64.000422 230.97761 
L 64.093425 228.654817 
L 64.186427 232.537202 
L 64.465434 228.654817 
L 64.558436 228.842851 
L 64.651439 230.015311 
L 64.930446 227.869495 
L 65.023448 228.068587 
L 65.11645 231.176708 
L 65.209453 230.97761 
L 65.302455 230.015311 
L 65.395457 230.203345 
L 65.488459 229.429081 
L 65.581462 229.816213 
L 65.674464 228.267684 
L 65.860469 232.15007 
L 65.953471 231.56384 
L 66.139476 228.267684 
L 66.232478 228.267684 
L 66.511485 230.789576 
L 66.604487 230.402443 
L 66.69749 228.267684 
L 66.790492 229.229983 
L 66.883494 227.869495 
L 66.976497 229.429081 
L 67.162501 228.068587 
L 67.441508 230.97761 
L 67.627513 227.869495 
L 67.720515 229.816213 
L 67.813517 227.681454 
L 67.999522 230.203345 
L 68.092524 230.402443 
L 68.278529 227.869495 
L 68.464534 230.015311 
L 68.557536 230.203345 
L 68.650538 229.041949 
L 68.743541 225.933834 
L 68.929545 228.654817 
L 69.022548 229.229983 
L 69.11555 231.950972 
L 69.301555 228.068587 
L 69.487559 228.654817 
L 69.580562 230.402443 
L 69.766566 228.654817 
L 69.859569 230.402443 
L 69.952571 228.654817 
L 70.045573 228.842851 
L 70.138575 230.203345 
L 70.32458 228.267684 
L 70.417582 229.041949 
L 70.603587 225.347604 
L 70.789592 227.095231 
L 70.882594 227.869495 
L 70.975596 226.708099 
L 71.068599 227.294322 
L 71.161601 227.095231 
L 71.254603 228.068587 
L 71.347606 230.97761 
L 71.440608 229.041949 
L 71.626613 229.628179 
L 71.719615 229.628179 
L 71.812617 230.402443 
L 71.998622 228.654817 
L 72.184626 231.56384 
L 72.277629 231.950972 
L 72.463633 228.068587 
L 72.74264 231.375806 
L 72.835643 229.229983 
L 73.207652 232.338104 
L 73.393657 230.590478 
L 73.486659 231.176708 
L 73.765666 229.628179 
L 73.858668 230.590478 
L 73.951671 230.015311 
L 74.044673 230.203345 
L 74.137675 231.375806 
L 74.230678 229.429081 
L 74.416682 231.176708 
L 74.602687 232.537202 
L 74.788691 230.203345 
L 74.881694 230.590478 
L 74.974696 229.816213 
L 75.067698 230.203345 
L 75.160701 231.375806 
L 75.253703 230.789576 
L 75.346705 232.725237 
L 75.439708 232.537202 
L 75.53271 231.762938 
L 75.718715 227.482363 
L 75.904719 231.56384 
L 75.997722 230.97761 
L 76.090724 232.725237 
L 76.183726 230.97761 
L 76.369731 232.338104 
L 76.555736 229.628179 
L 76.74174 232.15007 
L 76.927745 230.203345 
L 77.020747 230.015311 
L 77.206752 231.762938 
L 77.299754 231.375806 
L 77.485759 233.510561 
L 77.578761 230.203345 
L 77.671763 230.789576 
L 77.764766 234.871056 
L 78.043773 229.229983 
L 78.136775 230.97761 
L 78.229777 229.816213 
L 78.32278 230.203345 
L 78.415782 231.56384 
L 78.508784 230.402443 
L 78.601787 232.338104 
L 78.787791 227.681454 
L 78.973796 231.950972 
L 79.066798 232.725237 
L 79.252803 226.90719 
L 79.438807 230.402443 
L 79.53181 228.654817 
L 79.624812 229.041949 
L 79.717814 227.869495 
L 79.810817 230.203345 
L 79.903819 230.015311 
L 79.996821 230.789576 
L 80.089824 229.429081 
L 80.182826 230.015311 
L 80.275828 229.229983 
L 80.368831 230.789576 
L 80.461833 230.015311 
L 80.554835 231.375806 
L 80.74084 230.97761 
L 80.833842 230.97761 
L 81.019847 231.762938 
L 81.112849 229.429081 
L 81.205851 230.203345 
L 81.298854 232.15007 
L 81.391856 227.869495 
L 81.484858 229.041949 
L 81.670863 226.708099 
L 81.856868 230.015311 
L 82.042872 228.842851 
L 82.228877 227.869495 
L 82.321879 228.455719 
L 82.414882 227.095231 
L 82.600886 228.455719 
L 82.693889 228.654817 
L 82.879893 231.176708 
L 82.972896 233.897694 
L 83.1589 229.816213 
L 83.251903 230.203345 
L 83.437907 231.56384 
L 83.716914 228.267684 
L 83.809916 227.869495 
L 83.902919 230.015311 
L 83.995921 228.842851 
L 84.088923 229.229983 
L 84.181926 230.590478 
L 84.36793 228.267684 
L 84.553935 229.816213 
L 84.646937 230.015311 
L 84.73994 230.97761 
L 84.832942 229.041949 
L 84.925944 229.229983 
L 85.018947 229.041949 
L 85.204951 230.203345 
L 85.297954 229.429081 
L 85.390956 231.950972 
L 85.576961 229.041949 
L 85.669963 230.203345 
L 85.762965 228.654817 
L 85.94897 230.97761 
L 86.134974 228.842851 
L 86.227977 230.97761 
L 86.320979 230.402443 
L 86.413981 231.375806 
L 86.506984 229.229983 
L 86.692988 231.375806 
L 86.785991 231.375806 
L 86.971995 229.229983 
L 87.064998 229.628179 
L 87.158 230.97761 
L 87.251002 229.229983 
L 87.344005 229.429081 
L 87.437007 229.041949 
L 87.530009 228.068587 
L 87.809016 233.510561 
L 87.995021 229.628179 
L 88.181025 234.483924 
L 88.274028 233.510561 
L 88.460032 227.294322 
L 88.646037 230.203345 
L 88.832042 229.041949 
L 88.925044 229.628179 
L 89.018046 231.176708 
L 89.204051 229.229983 
L 89.483058 231.950972 
L 89.669063 227.294322 
L 89.855067 230.590478 
L 89.94807 229.429081 
L 90.134074 228.267684 
L 90.320079 232.924335 
L 90.599086 229.628179 
L 90.692088 229.816213 
L 90.78509 230.402443 
L 90.878093 231.762938 
L 90.971095 230.015311 
L 91.1571 231.762938 
L 91.250102 229.816213 
L 91.529109 232.725237 
L 91.715114 229.628179 
L 91.808116 229.041949 
L 91.901118 226.90719 
L 91.994121 227.482363 
L 92.087123 229.041949 
L 92.180125 228.455719 
L 92.273128 229.816213 
L 92.459132 228.267684 
L 92.645137 230.402443 
L 92.738139 230.789576 
L 92.831141 229.429081 
L 92.924144 230.015311 
L 93.110148 229.816213 
L 93.203151 229.041949 
L 93.296153 229.229983 
L 93.389155 227.681454 
L 93.57516 230.789576 
L 93.668162 231.375806 
L 93.761165 228.455719 
L 93.947169 229.628179 
L 94.040172 228.068587 
L 94.133174 230.789576 
L 94.412181 228.842851 
L 94.598185 228.267684 
L 94.691188 230.789576 
L 94.877192 228.267684 
L 94.970195 228.654817 
L 95.063197 227.681454 
L 95.156199 228.455719 
L 95.342204 230.590478 
L 95.435206 230.590478 
L 95.621211 230.97761 
L 95.714213 229.628179 
L 95.807216 230.203345 
L 95.900218 229.628179 
L 95.99322 231.762938 
L 96.086223 231.56384 
L 96.179225 231.950972 
L 96.272227 231.56384 
L 96.36523 231.950972 
L 96.551234 229.229983 
L 96.737239 231.950972 
L 96.923243 225.933834 
L 97.20225 229.229983 
L 97.295253 228.455719 
L 97.481257 229.229983 
L 97.57426 228.267684 
L 97.760264 230.203345 
L 97.946269 230.97761 
L 98.132274 228.267684 
L 98.318278 232.15007 
L 98.411281 231.56384 
L 98.504283 229.229983 
L 98.597285 230.203345 
L 98.690288 230.015311 
L 98.78329 230.015311 
L 99.062297 231.950972 
L 99.248301 230.015311 
L 99.341304 229.429081 
L 99.434306 227.869495 
L 99.527308 230.015311 
L 99.620311 228.267684 
L 99.713313 229.041949 
L 99.899318 226.320966 
L 100.271327 228.654817 
L 100.364329 231.176708 
L 100.643336 229.041949 
L 100.736339 226.520058 
L 101.015346 233.123429 
L 101.20135 228.842851 
L 101.387355 231.950972 
L 101.666362 226.121869 
L 101.759364 228.455719 
L 101.852366 227.869495 
L 102.038371 231.375806 
L 102.131373 232.924335 
L 102.317378 230.203345 
L 102.41038 229.429081 
L 102.596385 230.015311 
L 102.689387 230.015311 
L 102.78239 230.402443 
L 102.875392 229.816213 
L 102.968394 230.402443 
L 103.154399 230.015311 
L 103.247401 229.816213 
L 103.340404 230.402443 
L 103.433406 234.284826 
L 103.526408 233.698599 
L 103.61941 234.284826 
L 103.805415 232.15007 
L 103.99142 230.015311 
L 104.084422 230.015311 
L 104.177424 229.041949 
L 104.270427 229.429081 
L 104.456431 231.375806 
L 104.549434 231.762938 
L 104.642436 230.402443 
L 104.735438 231.56384 
L 104.828441 229.229983 
L 104.921443 229.429081 
L 105.107448 229.816213 
L 105.20045 229.628179 
L 105.293452 230.203345 
L 105.386455 229.429081 
L 105.572459 230.97761 
L 105.758464 229.041949 
L 105.851466 231.176708 
L 105.944468 230.789576 
L 106.130473 227.681454 
L 106.223475 231.375806 
L 106.316478 230.97761 
L 106.40948 231.56384 
L 106.688487 228.455719 
L 106.781489 229.816213 
L 106.874492 229.429081 
L 106.967494 230.590478 
L 107.060496 230.203345 
L 107.153499 230.97761 
L 107.339503 230.402443 
L 107.525508 229.229983 
L 107.61851 229.429081 
L 107.711513 228.654817 
L 107.897517 230.97761 
L 107.99052 230.402443 
L 108.083522 231.176708 
L 108.176524 227.681454 
L 108.269526 231.56384 
L 108.362529 229.041949 
L 108.548533 231.762938 
L 108.641536 231.56384 
L 108.82754 229.229983 
L 108.920543 229.628179 
L 109.013545 229.816213 
L 109.19955 230.590478 
L 109.292552 230.015311 
L 109.478557 227.294322 
L 109.664561 230.97761 
L 109.757564 230.789576 
L 109.850566 230.015311 
L 109.943568 230.789576 
L 110.036571 228.455719 
L 110.222575 230.789576 
L 110.40858 227.681454 
L 110.594584 230.015311 
L 110.780589 230.015311 
L 110.966594 228.654817 
L 111.152598 234.483924 
L 111.338603 229.429081 
L 111.431605 229.816213 
L 111.524608 228.842851 
L 111.61761 230.590478 
L 111.710612 229.229983 
L 111.896617 229.816213 
L 111.989619 229.816213 
L 112.082622 230.97761 
L 112.454631 228.842851 
L 112.547633 230.789576 
L 112.640635 229.816213 
L 112.733638 231.762938 
L 112.919642 227.294322 
L 113.105647 230.402443 
L 113.198649 229.628179 
L 113.384654 231.375806 
L 113.570659 228.455719 
L 113.663661 229.816213 
L 113.849666 225.734736 
L 114.03567 230.97761 
L 114.128673 230.97761 
L 114.500682 229.041949 
L 114.779689 231.176708 
L 114.965693 228.455719 
L 115.058696 226.90719 
L 115.151698 228.654817 
L 115.337703 222.626615 
L 115.430705 235.446222 
L 115.523707 233.897694 
L 115.61671 225.15957 
L 115.895717 231.375806 
L 115.988719 241.087295 
L 116.081721 240.888197 
L 116.174724 226.121869 
L 116.267726 232.725237 
L 116.360728 232.537202 
L 116.453731 230.015311 
L 116.546733 230.203345 
L 116.639735 230.97761 
L 116.732738 228.267684 
L 116.82574 231.176708 
L 116.918742 226.90719 
L 117.011745 227.482363 
L 117.197749 227.294322 
L 117.290751 227.869495 
L 117.383754 229.628179 
L 117.476756 227.869495 
L 117.569758 230.203345 
L 117.662761 229.628179 
L 117.755763 227.294322 
L 118.127772 234.085731 
L 118.313777 233.123429 
L 118.406779 233.311467 
L 118.499782 232.725237 
L 118.592784 234.085731 
L 119.057796 230.015311 
L 119.150798 231.375806 
L 119.2438 230.789576 
L 119.429805 232.725237 
L 119.615809 229.429081 
L 119.708812 229.816213 
L 119.894816 229.229983 
L 119.987819 230.402443 
L 120.080821 229.041949 
L 120.266826 230.402443 
L 120.359828 230.402443 
L 120.45283 233.698599 
L 120.545833 232.725237 
L 120.638835 235.05909 
L 120.917842 229.816213 
L 121.010844 230.789576 
L 121.196849 230.203345 
L 121.382854 231.375806 
L 121.568858 230.015311 
L 121.847865 232.537202 
L 121.940867 231.375806 
L 122.03387 232.15007 
L 122.126872 227.869495 
L 122.219874 228.654817 
L 122.312877 228.654817 
L 122.405879 230.402443 
L 122.498881 229.816213 
L 122.684886 230.97761 
L 122.870891 229.816213 
L 122.963893 230.203345 
L 123.149898 231.176708 
L 123.335902 229.229983 
L 123.428905 230.789576 
L 123.521907 230.590478 
L 123.707912 230.789576 
L 123.800914 230.590478 
L 123.986918 231.950972 
L 124.079921 232.15007 
L 124.172923 231.950972 
L 124.358928 229.429081 
L 124.45193 229.041949 
L 124.730937 229.816213 
L 124.823939 231.56384 
L 125.009944 230.590478 
L 125.102946 230.789576 
L 125.195949 230.203345 
L 125.381953 232.15007 
L 125.474956 231.762938 
L 125.567958 233.897694 
L 125.753963 231.950972 
L 125.846965 233.698599 
L 125.939967 231.176708 
L 126.03297 231.762938 
L 126.125972 230.97761 
L 126.218974 231.176708 
L 126.311976 230.97761 
L 126.497981 229.628179 
L 126.590983 230.789576 
L 126.683986 230.402443 
L 126.776988 230.590478 
L 126.86999 232.15007 
L 127.148997 227.482363 
L 127.242 228.842851 
L 127.335002 228.455719 
L 127.428004 228.842851 
L 127.614009 227.681454 
L 127.800014 228.455719 
L 127.893016 229.429081 
L 127.986018 229.229983 
L 128.172023 231.56384 
L 128.45103 227.869495 
L 128.730037 230.789576 
L 128.916041 229.229983 
L 129.009044 230.402443 
L 129.102046 230.015311 
L 129.195048 230.402443 
L 129.288051 229.816213 
L 129.381053 228.267684 
L 129.66006 230.789576 
L 129.846065 226.121869 
L 130.032069 228.267684 
L 130.125072 229.429081 
L 130.311076 232.537202 
L 130.497081 228.267684 
L 130.776088 230.402443 
L 130.86909 229.229983 
L 131.148097 235.05909 
L 131.334102 231.950972 
L 131.427104 231.56384 
L 131.520106 232.338104 
L 131.613109 230.789576 
L 131.706111 231.375806 
L 131.985118 227.869495 
L 132.171123 230.015311 
L 132.264125 229.229983 
L 132.357127 230.789576 
L 132.543132 228.455719 
L 132.636134 228.654817 
L 132.915141 231.176708 
L 133.008143 230.203345 
L 133.101146 231.950972 
L 133.194148 229.628179 
L 133.380153 230.97761 
L 133.566157 230.590478 
L 133.65916 228.654817 
L 133.752162 229.229983 
L 133.845164 228.654817 
L 133.938167 229.041949 
L 134.031169 228.455719 
L 134.310176 232.338104 
L 134.496181 230.203345 
L 134.589183 230.402443 
L 134.682185 229.628179 
L 134.775188 230.203345 
L 134.961192 227.681454 
L 135.147197 230.015311 
L 135.240199 228.654817 
L 135.426204 230.590478 
L 135.519206 230.015311 
L 135.612208 228.654817 
L 135.798213 230.97761 
L 135.891215 231.375806 
L 135.984218 230.590478 
L 136.07722 228.068587 
L 136.356227 230.789576 
L 136.449229 230.015311 
L 136.635234 227.681454 
L 136.821239 228.455719 
L 137.007243 230.97761 
L 137.100246 230.402443 
L 137.193248 231.56384 
L 137.379252 229.816213 
L 137.472255 229.628179 
L 137.565257 227.869495 
L 137.751262 229.816213 
L 137.844264 229.628179 
L 137.937266 231.950972 
L 138.030269 230.789576 
L 138.123271 231.176708 
L 138.216273 230.203345 
L 138.309276 230.402443 
L 138.49528 229.041949 
L 138.681285 231.56384 
L 138.86729 229.816213 
L 139.053294 230.97761 
L 139.146297 231.56384 
L 139.239299 228.455719 
L 139.332301 230.590478 
L 139.425304 229.041949 
L 139.518306 229.628179 
L 139.611308 231.56384 
L 139.70431 229.229983 
L 139.797313 230.015311 
L 139.890315 228.267684 
L 140.262324 230.97761 
L 140.355327 230.590478 
L 140.448329 229.041949 
L 140.634334 232.15007 
L 140.820338 229.229983 
L 141.099345 230.97761 
L 141.378352 228.455719 
L 141.564357 230.015311 
L 141.750362 230.590478 
L 141.843364 229.816213 
L 142.029368 230.015311 
L 142.215373 228.842851 
L 142.49438 231.762938 
L 142.680385 226.708099 
L 142.773387 226.520058 
L 142.866389 228.654817 
L 142.959392 227.681454 
L 143.052394 229.816213 
L 143.145396 227.095231 
L 143.331401 230.015311 
L 143.424403 229.229983 
L 143.517406 231.375806 
L 143.70341 228.068587 
L 143.796413 230.015311 
L 143.889415 228.654817 
L 144.075419 230.203345 
L 144.168422 229.816213 
L 144.261424 231.375806 
L 144.447429 229.041949 
L 144.540431 230.203345 
L 144.633433 228.654817 
L 144.819438 229.628179 
L 145.005443 228.068587 
L 145.098445 228.455719 
L 145.28445 229.816213 
L 145.377452 227.681454 
L 145.470454 229.429081 
L 145.563457 227.869495 
L 145.842464 231.762938 
L 146.028468 229.229983 
L 146.121471 229.229983 
L 146.307475 230.203345 
L 146.400477 230.402443 
L 146.586482 228.654817 
L 146.772487 231.375806 
L 146.865489 231.176708 
L 147.051494 228.267684 
L 147.144496 228.654817 
L 147.237498 228.455719 
L 147.330501 230.015311 
L 147.516505 228.267684 
L 147.609508 230.97761 
L 147.70251 229.429081 
L 147.795512 229.628179 
L 147.981517 228.068587 
L 148.074519 230.590478 
L 148.260524 230.015311 
L 148.353526 230.015311 
L 148.446529 230.203345 
L 148.632533 228.654817 
L 148.725535 229.229983 
L 148.91154 228.842851 
L 149.004542 231.56384 
L 149.190547 228.455719 
L 149.283549 230.97761 
L 149.376552 230.402443 
L 149.469554 231.56384 
L 149.655559 228.455719 
L 149.934566 230.402443 
L 150.027568 228.068587 
L 150.12057 228.267684 
L 150.399577 230.789576 
L 150.585582 230.015311 
L 150.678584 229.628179 
L 150.771586 231.56384 
L 151.050593 228.654817 
L 151.236598 230.015311 
L 151.3296 228.455719 
L 151.422603 230.015311 
L 151.608607 228.842851 
L 151.794612 228.267684 
L 151.887614 230.402443 
L 152.073619 228.068587 
L 152.352626 231.176708 
L 152.538631 228.654817 
L 152.724635 230.015311 
L 152.817638 228.842851 
L 153.189647 231.762938 
L 153.375651 230.590478 
L 153.468654 231.176708 
L 153.561656 230.97761 
L 153.840663 228.068587 
L 154.11967 231.56384 
L 154.212672 229.628179 
L 154.305675 229.816213 
L 154.398677 229.041949 
L 154.491679 230.789576 
L 154.770686 229.229983 
L 154.863689 229.429081 
L 154.956691 230.402443 
L 155.142696 228.068587 
L 155.3287 229.816213 
L 155.421702 229.628179 
L 155.514705 228.455719 
L 155.607707 228.842851 
L 155.700709 227.681454 
L 155.793712 228.455719 
L 155.979716 227.095231 
L 156.072719 229.041949 
L 156.165721 227.482363 
L 156.351726 230.203345 
L 156.53773 226.320966 
L 156.723735 229.816213 
L 156.90974 227.482363 
L 157.095744 228.267684 
L 157.188747 230.590478 
L 157.374751 227.482363 
L 157.467754 227.294322 
L 157.653758 230.402443 
L 157.74676 230.402443 
L 157.839763 228.842851 
L 158.025767 230.590478 
L 158.11877 230.015311 
L 158.304774 227.482363 
L 158.490779 229.628179 
L 158.583781 229.816213 
L 158.769786 227.482363 
L 158.955791 230.203345 
L 159.048793 227.869495 
L 159.3278 231.176708 
L 159.420802 230.97761 
L 159.513805 231.375806 
L 159.699809 228.455719 
L 159.792811 229.229983 
L 159.978816 233.897694 
L 160.164821 231.176708 
L 160.443828 230.590478 
L 160.53683 230.789576 
L 160.629832 229.816213 
L 160.722835 230.402443 
L 160.908839 229.041949 
L 161.094844 229.628179 
L 161.187846 229.628179 
L 161.280849 230.015311 
L 161.373851 229.041949 
L 161.559856 230.015311 
L 161.74586 226.90719 
L 161.931865 229.229983 
L 162.024867 230.402443 
L 162.117869 230.203345 
L 162.210872 230.203345 
L 162.303874 230.590478 
L 162.396876 230.203345 
L 162.489879 227.681454 
L 162.582881 229.628179 
L 162.675883 228.654817 
L 162.768886 230.402443 
L 162.861888 229.041949 
L 162.95489 230.789576 
L 163.233897 229.229983 
L 163.3269 231.56384 
L 163.512904 229.628179 
L 163.698909 228.455719 
L 163.884914 230.203345 
L 164.163921 230.97761 
L 164.349925 228.455719 
L 164.442927 228.842851 
L 164.628932 229.816213 
L 164.721934 229.816213 
L 164.814937 228.654817 
L 164.907939 229.041949 
L 165.093944 230.203345 
L 165.186946 229.628179 
L 165.279948 229.816213 
L 165.372951 231.375806 
L 165.558955 230.789576 
L 165.651958 230.789576 
L 165.837962 228.455719 
L 166.023967 230.590478 
L 166.116969 230.015311 
L 166.209972 228.455719 
L 166.302974 229.041949 
L 166.395976 227.869495 
L 166.581981 229.429081 
L 166.674983 228.455719 
L 166.767985 231.176708 
L 166.95399 229.429081 
L 167.046992 230.402443 
L 167.232997 229.229983 
L 167.419002 230.402443 
L 167.605006 230.015311 
L 167.791011 228.455719 
L 167.977016 229.816213 
L 168.070018 227.294322 
L 168.256023 230.789576 
L 168.349025 230.789576 
L 168.53503 227.294322 
L 168.628032 228.267684 
L 168.721034 228.068587 
L 168.907039 232.15007 
L 169.000041 231.762938 
L 169.093043 231.762938 
L 169.37205 228.842851 
L 169.651057 230.97761 
L 169.74406 228.267684 
L 169.837062 231.56384 
L 170.116069 229.041949 
L 170.209071 230.97761 
L 170.395076 230.203345 
L 170.488078 230.97761 
L 170.581081 229.628179 
L 170.95309 231.950972 
L 171.325099 229.628179 
L 171.418101 230.590478 
L 171.511104 230.203345 
L 171.697108 232.725237 
L 171.883113 230.402443 
L 171.976115 231.176708 
L 172.069118 229.229983 
L 172.255122 232.537202 
L 172.348125 229.628179 
L 172.441127 230.789576 
L 172.627132 230.203345 
L 172.813136 234.671958 
L 172.906139 231.176708 
L 172.999141 231.375806 
L 173.092143 230.015311 
L 173.185146 230.97761 
L 173.278148 230.015311 
L 173.37115 230.590478 
L 173.464152 230.402443 
L 173.650157 229.628179 
L 173.743159 230.203345 
L 173.836162 230.015311 
L 174.115169 230.789576 
L 174.208171 232.15007 
L 174.301173 231.375806 
L 174.394176 229.229983 
L 174.487178 230.402443 
L 174.58018 229.429081 
L 174.766185 231.375806 
L 174.95219 228.455719 
L 175.045192 229.429081 
L 175.138194 231.762938 
L 175.231197 231.56384 
L 175.324199 231.56384 
L 175.417201 232.537202 
L 175.696208 230.402443 
L 175.882213 229.041949 
L 176.254222 232.15007 
L 176.440227 230.015311 
L 176.533229 230.789576 
L 176.626231 230.203345 
L 176.719234 231.375806 
L 176.812236 230.015311 
L 176.905238 231.950972 
L 176.998241 231.762938 
L 177.091243 231.56384 
L 177.37025 228.455719 
L 177.556255 231.176708 
L 177.742259 229.041949 
L 177.835261 230.402443 
L 178.021266 229.041949 
L 178.114268 229.628179 
L 178.300273 231.56384 
L 178.393275 232.537202 
L 178.486278 231.176708 
L 178.57928 231.375806 
L 178.765285 233.311467 
L 178.858287 233.311467 
L 178.951289 232.725237 
L 179.230296 234.483924 
L 179.323299 233.510561 
L 179.416301 230.789576 
L 179.509303 233.123429 
L 179.602306 231.762938 
L 179.695308 232.537202 
L 179.78831 230.97761 
L 179.881313 233.311467 
L 180.160319 230.97761 
L 180.253322 231.950972 
L 180.346324 231.56384 
L 180.439326 233.311467 
L 180.532329 231.375806 
L 180.625331 232.725237 
L 180.718333 231.950972 
L 180.904338 235.05909 
L 180.99734 234.284826 
L 181.090343 231.950972 
L 181.183345 232.924335 
L 181.276347 232.15007 
L 181.36935 232.338104 
L 181.648357 231.56384 
L 181.834361 233.123429 
L 181.927364 232.924335 
L 182.113368 232.15007 
L 182.206371 232.338104 
L 182.299373 232.924335 
L 182.392375 232.338104 
L 182.485377 233.897694 
L 182.57838 232.725237 
L 182.764384 234.871056 
L 182.950389 231.762938 
L 183.043391 233.897694 
L 183.229396 232.15007 
L 183.322398 232.537202 
L 183.508403 231.176708 
L 183.601405 230.97761 
L 183.694408 233.123429 
L 183.78741 232.338104 
L 183.880412 233.123429 
L 184.066417 227.869495 
L 184.159419 229.229983 
L 184.252422 231.950972 
L 184.345424 230.015311 
L 184.624431 231.762938 
L 184.717433 234.483924 
L 184.810435 233.698599 
L 184.903438 235.05909 
L 185.089442 230.015311 
L 185.275447 236.806717 
L 185.368449 233.897694 
L 185.554454 232.15007 
L 185.647456 232.537202 
L 185.740459 231.762938 
L 185.926463 233.311467 
L 186.019466 232.924335 
L 186.20547 228.654817 
L 186.298473 229.429081 
L 186.484477 234.085731 
L 186.57748 232.725237 
L 186.670482 229.628179 
L 186.763484 233.897694 
L 186.856486 233.311467 
L 187.135493 230.789576 
L 187.321498 232.924335 
L 187.4145 233.311467 
L 187.600505 232.924335 
L 187.693507 233.123429 
L 187.879512 229.816213 
L 188.158519 234.671958 
L 188.251521 234.671958 
L 188.344524 232.537202 
L 188.437526 233.311467 
L 188.716533 231.762938 
L 188.902538 232.537202 
L 188.99554 231.375806 
L 189.181544 232.924335 
L 189.274547 232.15007 
L 189.553554 233.897694 
L 189.646556 233.510561 
L 189.739558 232.338104 
L 190.018565 234.284826 
L 190.20457 231.950972 
L 190.297572 232.924335 
L 190.390575 232.725237 
L 190.483577 231.950972 
L 190.576579 232.15007 
L 190.669582 234.871056 
L 190.762584 234.671958 
L 190.855586 232.924335 
L 190.948589 234.284826 
L 191.134593 231.375806 
L 191.4136 234.483924 
L 191.506602 235.05909 
L 191.599605 234.871056 
L 191.692607 233.311467 
L 191.785609 233.510561 
L 191.971614 232.537202 
L 192.157619 234.085731 
L 192.250621 231.762938 
L 192.343623 232.15007 
L 192.436626 234.871056 
L 192.529628 234.671958 
L 192.62263 233.897694 
L 192.715633 234.085731 
L 192.808635 233.311467 
L 192.901637 234.085731 
L 193.087642 233.311467 
L 193.273647 234.483924 
L 193.459651 231.176708 
L 193.552653 231.176708 
L 193.83166 233.897694 
L 193.924663 232.537202 
L 194.017665 233.123429 
L 194.110667 234.671958 
L 194.296672 231.375806 
L 194.482677 234.085731 
L 194.575679 233.123429 
L 194.761684 233.698599 
L 194.947688 233.311467 
L 195.040691 234.085731 
L 195.226695 230.015311 
L 195.319698 229.628179 
L 196.063716 204.564131 
L 196.249721 196.412234 
L 196.342723 195.051739 
L 196.528728 190.384032 
L 196.62173 188.835503 
L 196.807735 190.771164 
L 196.993739 189.609768 
L 197.086742 189.609768 
L 197.179744 189.808866 
L 197.272746 192.330757 
L 197.365749 191.16936 
L 197.458751 191.556492 
L 197.644756 194.664607 
L 197.737758 194.465509 
L 197.83076 193.304112 
L 197.923763 194.078377 
L 198.109767 196.213136 
L 198.202769 196.025102 
L 198.388774 198.735027 
L 198.481776 200.095522 
L 198.574779 197.960763 
L 198.667781 198.159861 
L 198.946788 202.04224 
L 199.132793 201.267975 
L 199.225795 205.736591 
L 199.504802 202.04224 
L 199.783809 206.123723 
L 199.876811 207.28512 
L 199.969814 204.951263 
L 200.062816 205.736591 
L 200.155818 208.446516 
L 200.24882 207.87135 
L 200.434825 209.807011 
L 200.62083 208.446516 
L 200.806834 211.167506 
L 200.899837 208.446516 
L 201.085841 211.94177 
L 201.178844 211.554638 
L 201.271846 211.753729 
L 201.364848 214.474718 
L 201.457851 212.727091 
L 201.643855 213.888488 
L 201.82986 216.023247 
L 201.922862 214.474718 
L 202.015865 215.835213 
L 202.387874 212.339959 
L 202.573878 217.770874 
L 202.666881 216.410379 
L 202.759883 217.195707 
L 202.852885 215.248983 
L 202.945888 218.357104 
L 203.131892 216.222345 
L 203.224895 216.222345 
L 203.503902 219.330459 
L 203.596904 217.582839 
L 203.782909 219.330459 
L 203.875911 217.770874 
L 203.968913 218.357104 
L 204.154918 220.491856 
L 204.24792 219.330459 
L 204.340923 219.5185 
L 204.526927 219.905633 
L 204.61993 219.131368 
L 204.712932 219.5185 
L 204.898936 222.626615 
L 205.084941 221.664316 
L 205.270946 219.905633 
L 205.45695 223.98711 
L 205.642955 221.852351 
L 205.735957 222.825713 
L 205.82896 221.465218 
L 205.921962 221.852351 
L 206.014964 221.078086 
L 206.107967 222.626615 
L 206.200969 222.438581 
L 206.293971 220.690954 
L 206.479976 224.186208 
L 206.758983 222.239483 
L 206.944987 223.411943 
L 207.409999 219.131368 
L 207.875011 204.376096 
L 207.968013 202.62847 
L 208.619029 175.429669 
L 208.991039 159.501944 
L 209.270045 151.150942 
L 209.549052 143.77331 
L 209.828059 136.97085 
L 210.107066 130.566574 
L 210.200069 130.367469 
L 210.572078 126.285999 
L 210.758083 122.602711 
L 210.851085 121.817376 
L 210.944087 123.177871 
L 211.130092 119.107457 
L 211.223094 119.494583 
L 211.316097 119.881722 
L 211.502101 118.322136 
L 211.595103 118.709262 
L 212.24612 111.143595 
L 212.711131 102.980627 
L 213.083141 91.32242 
L 213.176143 90.935295 
L 214.013164 69.377557 
L 214.292171 62.774189 
L 214.385173 62.187958 
L 214.571178 58.305566 
L 214.66418 58.692705 
L 214.757182 56.358855 
L 214.943187 56.945071 
L 215.036189 53.449831 
L 215.129192 54.423187 
L 215.501201 49.954591 
L 215.594203 50.728842 
L 215.687206 49.567452 
L 215.87321 53.261797 
L 215.966212 51.901303 
L 216.059215 55.584577 
L 216.152217 55.396543 
L 216.245219 54.224082 
L 216.338222 58.117532 
L 216.431224 57.33221 
L 216.617229 60.82745 
L 216.989238 67.829028 
L 217.268245 76.567155 
L 217.361247 77.142328 
L 218.012264 97.925788 
L 218.198268 101.033916 
L 218.570277 112.891215 
L 218.942287 119.107457 
L 219.314296 132.314194 
L 219.407298 131.528872 
L 220.058315 143.77331 
L 220.151317 143.961344 
L 220.337322 149.403322 
L 220.430324 147.456598 
L 220.709331 152.511437 
L 220.895335 158.141449 
L 220.988338 159.114805 
L 221.08134 158.528575 
L 221.360347 163.583414 
L 221.453349 165.530139 
L 221.546352 165.131943 
L 221.732356 168.240071 
L 221.825359 168.439162 
L 222.476375 179.124014 
L 222.569377 178.349749 
L 223.127391 184.167796 
L 223.220393 183.205491 
L 223.4994 186.114514 
L 223.685405 185.141152 
L 223.778407 187.663043 
L 223.87141 187.087877 
L 224.057414 189.9969 
L 224.150417 188.835503 
L 224.243419 189.023538 
L 224.336421 191.357395 
L 224.429424 190.970262 
L 224.522426 190.384032 
L 224.708431 191.943625 
L 224.894435 190.771164 
L 224.987437 189.41067 
L 225.08044 193.105021 
L 225.359447 187.475009 
L 225.545451 190.195998 
L 225.917461 183.979755 
L 226.103465 183.979755 
L 226.382472 179.511146 
L 226.661479 174.843439 
L 226.940486 167.465807 
L 227.126491 165.131943 
L 227.312495 158.141449 
L 227.405498 157.75431 
L 227.591502 152.710542 
L 227.684505 151.925207 
L 227.963512 140.278056 
L 228.056514 139.492735 
L 229.358547 103.754892 
L 229.451549 104.341122 
L 229.544551 102.394411 
L 229.823558 92.49488 
L 231.311595 60.440338 
L 231.404598 59.466983 
L 231.590602 53.648936 
L 231.683604 53.648936 
L 231.776607 54.036048 
L 231.869609 49.755487 
L 231.962611 51.115981 
L 232.055614 48.793174 
L 232.148616 48.981209 
L 232.241618 47.43268 
L 232.334621 48.406063 
L 232.520625 42.189806 
L 232.70663 43.738335 
L 232.799632 43.152119 
L 232.892635 44.899725 
L 233.078639 41.60359 
L 233.264644 44.512613 
L 233.357646 44.125474 
L 233.450649 44.711691 
L 233.543651 43.550301 
L 233.822658 49.368348 
L 233.91566 48.206958 
L 234.008662 49.180313 
L 234.101665 48.594097 
L 234.194667 51.315059 
L 234.380672 50.540808 
L 234.566676 53.062692 
L 234.659679 55.783682 
L 234.752681 54.611221 
L 235.031688 60.82745 
L 235.217693 64.521809 
L 235.403697 67.629937 
L 236.054714 79.476178 
L 236.147716 78.115684 
L 236.240718 80.250443 
L 236.33372 79.476178 
L 236.798732 95.791029 
L 236.891734 95.403904 
L 237.170741 102.206363 
L 237.728755 114.638848 
L 237.821758 113.665479 
L 238.286769 124.538365 
L 238.937785 134.636987 
L 239.12379 137.944206 
L 239.216792 138.13224 
L 239.681804 145.708978 
L 240.053813 149.403322 
L 240.239818 152.898576 
L 240.704829 159.501944 
L 240.797832 157.953415 
L 240.890834 158.340541 
L 240.983836 159.31391 
L 241.169841 158.915714 
L 241.262843 160.088174 
L 241.355846 159.31391 
L 241.448848 163.196289 
L 241.54185 161.249564 
L 241.634853 163.583414 
L 241.727855 162.222933 
L 241.91386 164.744817 
L 242.099864 162.997197 
L 242.378871 166.105312 
L 242.657878 163.771462 
L 242.843883 162.80915 
L 243.215892 159.701035 
L 243.308894 162.610058 
L 243.494899 160.088174 
L 243.587901 161.06153 
L 243.773906 155.232426 
L 243.959911 156.780955 
L 244.052913 156.205782 
L 245.54095 135.422322 
L 245.633952 134.836092 
L 245.819957 129.593204 
L 245.912959 130.367469 
L 246.098964 130.179435 
L 246.470973 119.682631 
L 246.656978 118.134102 
L 247.214992 106.088755 
L 247.307994 105.889651 
L 247.400996 106.475881 
L 247.680003 99.485387 
L 247.773006 101.819237 
L 247.95901 96.764398 
L 248.238017 90.548156 
L 248.33102 91.32242 
L 249.168041 78.701914 
L 249.261043 79.863304 
L 249.447048 76.567155 
L 249.54005 76.368064 
L 249.912059 71.512316 
L 250.005061 72.684776 
L 250.284068 69.764682 
L 250.470073 69.576648 
L 250.563075 69.963787 
L 250.74908 72.684776 
L 250.842082 70.151821 
L 250.935085 70.738051 
L 251.028087 69.963787 
L 251.121089 70.151821 
L 251.214092 70.738051 
L 251.493099 75.980925 
L 251.586101 75.792891 
L 251.772106 76.567155 
L 251.865108 75.394695 
L 251.95811 76.368064 
L 252.144115 79.476178 
L 252.423122 84.918157 
L 252.516124 81.810029 
L 252.609126 82.971432 
L 252.795131 86.079546 
L 252.888133 86.466685 
L 253.074138 89.386766 
L 253.16714 89.187661 
L 253.260143 90.548156 
L 253.353145 94.043409 
L 253.446147 90.935295 
L 253.632152 93.656284 
L 253.725154 96.576364 
L 253.818157 95.990134 
L 254.097164 100.458743 
L 254.190166 100.646777 
L 254.283168 103.179732 
L 254.37617 102.980627 
L 255.027187 113.079249 
L 255.120189 111.917859 
L 255.306194 114.439744 
L 255.771205 120.855077 
L 255.864208 120.069756 
L 256.050212 125.89886 
L 256.143215 125.124595 
L 256.329219 126.673124 
L 256.422221 126.285999 
L 256.701228 132.115102 
L 256.794231 130.754608 
L 257.073238 132.701333 
L 257.16624 135.223217 
L 257.259242 134.249861 
L 257.817256 139.890931 
L 258.003261 139.304701 
L 258.096263 139.492735 
L 258.282268 142.412815 
L 258.37527 141.052321 
L 258.654277 143.18708 
L 258.747279 142.600849 
L 258.840282 146.096103 
L 258.933284 145.708978 
L 259.026286 144.934713 
L 259.119289 146.096103 
L 259.212291 145.908069 
L 259.305293 144.746665 
L 259.398296 146.682333 
L 259.491298 144.746665 
L 259.677303 145.133804 
L 259.770305 145.133804 
L 259.95631 143.77331 
L 260.142314 144.348483 
L 260.328319 146.494299 
L 260.421321 145.908069 
L 260.607326 142.600849 
L 260.700328 142.213724 
L 260.793331 144.547574 
L 260.886333 144.348483 
L 261.16534 141.240355 
L 261.351344 142.213724 
L 261.444347 142.412815 
L 261.630351 139.890931 
L 261.723354 139.105596 
L 261.816356 139.304701 
L 262.281368 130.953699 
L 262.37437 132.502228 
L 262.467372 134.249861 
L 262.932384 126.872229 
L 263.118388 125.124595 
L 263.211391 124.925504 
L 263.397395 121.043112 
L 263.5834 123.764101 
L 263.862407 117.547872 
L 263.955409 118.322136 
L 264.513423 112.692124 
L 264.606426 111.917859 
L 264.699428 113.278354 
L 264.978435 107.44925 
L 265.071437 107.44925 
L 265.16444 104.341122 
L 265.350444 107.836375 
L 265.629451 103.179732 
L 265.722453 103.367766 
L 266.00146 98.899157 
L 266.094463 101.233007 
L 266.187465 101.033916 
L 266.466472 96.178168 
L 266.559474 97.538663 
L 266.652477 97.151524 
L 266.931484 93.070054 
L 267.024486 95.016765 
L 267.210491 92.295789 
L 267.303493 93.855375 
L 267.396495 91.521525 
L 267.5825 93.269145 
L 267.675502 93.070054 
L 267.768504 93.269145 
L 268.047511 91.134386 
L 268.140514 91.134386 
L 268.233516 92.682915 
L 268.326518 91.134386 
L 268.698528 95.215869 
L 268.884532 93.855375 
L 268.977535 93.855375 
L 269.163539 92.295789 
L 269.349544 96.178168 
L 269.442546 95.016765 
L 269.721553 95.990134 
L 269.814556 95.791029 
L 269.907558 95.990134 
L 270.00056 94.629639 
L 270.186565 98.323984 
L 270.372569 100.845882 
L 270.465572 100.845882 
L 270.930583 105.701616 
L 271.116588 103.179732 
L 271.20959 103.367766 
L 271.674602 111.53072 
L 271.767604 109.584009 
L 271.860607 109.971134 
L 272.046611 112.105893 
L 272.139613 111.331629 
L 272.232616 113.278354 
L 272.325618 112.493032 
L 272.511623 114.439744 
L 272.604625 114.638848 
L 272.79063 117.934997 
L 272.883632 118.322136 
L 273.069637 121.430251 
L 273.162639 119.881722 
L 273.534648 123.177871 
L 273.627651 123.376975 
L 273.906658 127.458445 
L 273.99966 126.48509 
L 274.092662 128.033619 
L 274.185665 127.07132 
L 274.278667 128.033619 
L 274.371669 131.927068 
L 274.557674 129.781252 
L 274.650676 128.619849 
L 274.836681 131.340838 
L 275.022685 132.701333 
L 275.20869 130.953699 
L 275.487697 134.448953 
L 275.673702 129.980343 
L 275.952709 134.636987 
L 276.045711 134.249861 
L 276.138713 132.314194 
L 276.324718 134.836092 
L 276.41772 133.088458 
L 276.510723 135.223217 
L 276.789729 132.701333 
L 276.882732 134.061827 
L 277.068736 132.502228 
L 277.161739 132.889367 
L 277.254741 133.674688 
L 277.347743 133.276492 
L 277.440746 133.674688 
L 277.533748 133.088458 
L 277.62675 133.674688 
L 277.812755 132.115102 
L 277.905757 133.088458 
L 277.99876 131.727963 
L 278.091762 133.088458 
L 278.277767 130.367469 
L 278.370769 132.502228 
L 278.463771 132.115102 
L 278.649776 129.980343 
L 278.928783 131.927068 
L 279.114787 127.845584 
L 279.20779 127.07132 
L 279.393794 129.980343 
L 279.486797 126.48509 
L 279.579799 126.673124 
L 279.765804 127.259354 
L 279.951808 123.764101 
L 280.044811 124.925504 
L 280.137813 123.177871 
L 280.323818 124.73747 
L 280.602825 120.456895 
L 280.881832 117.746963 
L 280.974834 118.709262 
L 281.160838 115.999343 
L 281.253841 117.746963 
L 281.532848 113.079249 
L 281.62585 112.891215 
L 281.718852 114.052618 
L 281.904857 111.718768 
L 281.997859 113.278354 
L 282.090862 112.692124 
L 282.276866 108.997779 
L 282.462871 110.944504 
L 282.741878 106.287847 
L 282.83488 106.86302 
L 282.927883 108.422606 
L 283.020885 107.44925 
L 283.113887 107.836375 
L 283.20689 107.062111 
L 283.392894 108.809745 
L 283.485896 108.997779 
L 283.578899 106.86302 
L 283.671901 108.997779 
L 283.764903 108.61064 
L 283.857906 108.223514 
L 284.136913 103.754892 
L 284.229915 103.953996 
L 284.322917 103.754892 
L 284.41592 104.728261 
L 284.694927 101.620146 
L 284.787929 102.206363 
L 284.973934 103.754892 
L 285.066936 103.367766 
L 285.159938 102.394411 
L 285.438945 105.115386 
L 285.62495 104.142031 
L 285.903957 105.314491 
L 285.996959 103.566858 
L 286.275966 105.701616 
L 286.461971 102.394411 
L 286.83398 107.250145 
L 286.926982 105.889651 
L 287.019985 107.637284 
L 287.112987 106.088755 
L 287.298992 108.223514 
L 287.391994 107.44925 
L 287.484996 109.395975 
L 287.577999 108.223514 
L 287.764003 109.971134 
L 287.857005 111.331629 
L 287.950008 110.557365 
L 288.04301 110.745399 
L 288.136012 112.692124 
L 288.322017 111.53072 
L 288.415019 111.718768 
L 288.508022 112.891215 
L 288.601024 111.331629 
L 288.694026 111.53072 
L 288.880031 115.025974 
L 289.066036 115.800238 
L 289.159038 114.826883 
L 289.25204 115.025974 
L 289.531047 116.574503 
L 289.62405 116.961642 
L 289.810054 114.826883 
L 289.996059 115.800238 
L 290.182063 119.881722 
L 290.275066 119.107457 
L 290.368068 120.456895 
L 290.46107 118.322136 
L 290.554073 121.043112 
L 290.647075 117.934997 
L 290.83308 119.295492 
L 290.926082 119.494583 
L 291.391094 123.963205 
L 291.577098 123.177871 
L 291.949108 126.673124 
L 292.04211 124.925504 
L 292.135112 125.124595 
L 292.228115 125.124595 
L 292.321117 124.73747 
L 292.414119 123.56501 
L 292.600124 130.754608 
L 292.879131 124.15124 
L 293.065135 127.259354 
L 293.158138 127.845584 
L 293.25114 130.179435 
L 293.437145 128.619849 
L 293.623149 125.31263 
L 293.809154 130.367469 
L 293.995159 126.097964 
L 294.088161 126.673124 
L 294.181163 125.124595 
L 294.274166 127.259354 
L 294.367168 125.89886 
L 294.46017 127.259354 
L 294.553173 125.710825 
L 294.646175 126.285999 
L 294.832179 130.754608 
L 294.925182 126.673124 
L 295.018184 127.259354 
L 295.111186 127.458445 
L 295.297191 125.89886 
L 295.483196 127.845584 
L 295.576198 124.925504 
L 295.762203 126.48509 
L 295.855205 124.538365 
L 295.948207 126.285999 
L 296.04121 125.710825 
L 296.134212 126.285999 
L 296.227214 125.710825 
L 296.320217 123.177871 
L 296.599224 125.89886 
L 296.692226 125.710825 
L 296.87823 123.56501 
L 296.971233 124.73747 
L 297.157237 122.403606 
L 297.25024 122.989836 
L 297.343242 121.242216 
L 297.436244 121.430251 
L 297.529247 122.016481 
L 297.622249 123.56501 
L 297.901256 118.322136 
L 297.994258 119.682631 
L 298.180263 118.134102 
L 298.273265 118.134102 
L 298.366268 116.187377 
L 298.45927 118.322136 
L 298.645275 115.800238 
L 298.738277 115.999343 
L 298.831279 114.251709 
L 298.924282 116.961642 
L 299.110286 114.439744 
L 299.389293 113.665479 
L 299.575298 111.917859 
L 299.761302 113.079249 
L 299.854305 112.692124 
L 299.947307 113.665479 
L 300.040309 113.278354 
L 300.319316 110.745399 
L 300.412319 113.278354 
L 300.505321 110.745399 
L 300.691326 112.105893 
L 300.784328 113.079249 
L 300.87733 111.143595 
L 300.970333 113.853513 
L 301.063335 111.143595 
L 301.156337 111.331629 
L 301.24934 111.143595 
L 301.342342 112.105893 
L 301.714351 110.170239 
L 301.807353 108.997779 
L 301.900356 110.557365 
L 302.08636 109.584009 
L 302.272365 112.692124 
L 302.644374 107.836375 
L 302.830379 109.971134 
L 302.923381 107.44925 
L 303.109386 109.584009 
L 303.202388 109.584009 
L 303.295391 107.250145 
L 303.481395 110.358273 
L 303.574397 109.971134 
L 303.853404 107.836375 
L 303.946407 108.223514 
L 304.132411 111.53072 
L 304.225414 110.170239 
L 304.318416 110.745399 
L 304.411418 110.557365 
L 304.597423 112.105893 
L 304.690425 110.358273 
L 305.062435 113.853513 
L 305.248439 111.331629 
L 305.341442 112.493032 
L 305.434444 115.413113 
L 305.620449 114.439744 
L 305.713451 112.304985 
L 305.806453 112.493032 
L 305.899455 112.105893 
L 306.08546 115.025974 
L 306.271465 116.574503 
L 306.364467 117.746963 
L 306.550472 115.800238 
L 306.736476 117.160733 
L 307.108486 118.709262 
L 307.201488 119.682631 
L 307.387493 119.295492 
L 307.480495 119.881722 
L 307.573497 119.494583 
L 307.6665 120.456895 
L 307.945507 119.107457 
L 308.131511 121.242216 
L 308.317516 122.215572 
L 308.410518 122.790745 
L 308.689525 120.855077 
L 308.968532 122.215572 
L 309.154537 124.73747 
L 309.247539 122.403606 
L 309.340541 122.602711 
L 309.526546 125.31263 
L 309.619548 124.538365 
L 309.712551 127.07132 
L 309.805553 124.350331 
L 309.898555 125.124595 
L 310.08456 128.23271 
L 310.270565 123.376975 
L 310.363567 123.56501 
L 310.456569 125.124595 
L 310.549571 124.925504 
L 310.642574 124.73747 
L 310.735576 124.925504 
L 310.828578 123.764101 
L 311.107585 124.538365 
L 311.200588 127.259354 
L 311.29359 123.56501 
L 311.479595 125.31263 
L 311.665599 123.963205 
L 311.758602 124.925504 
L 311.851604 123.764101 
L 311.944606 124.350331 
L 312.130611 123.56501 
L 312.223613 123.764101 
L 312.409618 124.538365 
L 312.50262 122.403606 
L 312.595622 122.790745 
L 312.781627 121.817376 
L 312.874629 122.403606 
L 313.153636 120.268847 
L 313.246639 121.043112 
L 313.432643 119.107457 
L 313.618648 120.069756 
L 313.71165 118.709262 
L 313.804653 119.682631 
L 313.897655 118.134102 
L 314.08366 121.629342 
L 314.269664 119.295492 
L 314.362667 121.629342 
L 314.455669 119.682631 
L 314.734676 121.242216 
L 314.827678 121.043112 
L 315.013683 117.160733 
L 315.106685 117.359837 
L 315.199687 115.800238 
L 315.385692 118.709262 
L 315.571697 116.386468 
L 315.757701 116.773607 
L 315.943706 118.322136 
L 316.036708 117.359837 
L 316.129711 114.052618 
L 316.222713 115.413113 
L 316.315715 115.025974 
L 316.408718 113.466388 
L 316.594722 114.439744 
L 316.687725 115.413113 
L 316.966732 114.251709 
L 317.059734 114.439744 
L 317.152736 115.601147 
L 317.245738 113.665479 
L 317.338741 114.052618 
L 317.431743 115.413113 
L 317.617748 114.251709 
L 317.803752 111.53072 
L 317.989757 113.853513 
L 318.082759 114.052618 
L 318.361766 112.105893 
L 318.454769 111.917859 
L 318.547771 114.826883 
L 318.640773 114.439744 
L 318.91978 112.304985 
L 319.012783 112.304985 
L 319.105785 111.917859 
L 319.198787 112.105893 
L 319.384792 114.826883 
L 319.477794 112.304985 
L 319.570796 115.800238 
L 319.663799 113.853513 
L 319.756801 114.251709 
L 319.849803 113.278354 
L 319.942806 115.413113 
L 320.035808 115.214008 
L 320.221813 113.466388 
L 320.314815 114.052618 
L 320.407817 115.413113 
L 320.593822 113.079249 
L 320.686824 116.386468 
L 320.965831 113.079249 
L 321.244838 115.601147 
L 321.337841 115.601147 
L 321.523845 112.891215 
L 321.70985 115.214008 
L 321.988857 113.079249 
L 322.081859 115.214008 
L 322.174861 114.439744 
L 322.453868 117.160733 
L 322.546871 114.638848 
L 322.639873 114.826883 
L 322.825878 117.359837 
L 322.91888 118.322136 
L 323.011882 116.187377 
L 323.197887 118.134102 
L 323.290889 118.134102 
L 323.383892 116.386468 
L 323.476894 116.574503 
L 323.569896 116.187377 
L 323.755901 119.107457 
L 323.941905 117.547872 
L 324.12791 119.881722 
L 324.220912 120.655986 
L 324.313915 118.134102 
L 324.499919 119.881722 
L 324.592922 118.908366 
L 324.685924 121.043112 
L 324.778926 119.295492 
L 324.871929 121.242216 
L 324.964931 118.709262 
L 325.150936 122.403606 
L 325.429943 118.521227 
L 325.615947 120.456895 
L 325.70895 121.043112 
L 325.894954 119.881722 
L 326.173961 121.043112 
L 326.266963 119.682631 
L 326.452968 121.430251 
L 326.731975 119.682631 
L 326.824977 122.016481 
L 326.91798 121.817376 
L 327.010982 122.215572 
L 327.103984 121.629342 
L 327.196987 121.817376 
L 327.289989 122.790745 
L 327.382991 120.268847 
L 327.568996 122.403606 
L 327.755001 122.016481 
L 327.848003 123.177871 
L 328.034008 119.881722 
L 328.12701 122.403606 
L 328.220012 121.242216 
L 328.313014 122.602711 
L 328.406017 122.016481 
L 328.499019 123.177871 
L 328.592021 122.403606 
L 328.685024 122.602711 
L 328.778026 123.376975 
L 328.871028 121.629342 
L 329.057033 122.403606 
L 329.243038 121.242216 
L 329.33604 122.016481 
L 329.522045 123.963205 
L 329.615047 122.215572 
L 329.708049 122.403606 
L 329.894054 121.430251 
L 330.080059 122.602711 
L 330.359066 118.908366 
L 330.452068 120.655986 
L 330.54507 119.295492 
L 330.638072 119.494583 
L 330.731075 119.494583 
L 330.824077 119.295492 
L 330.917079 120.456895 
L 331.010082 119.881722 
L 331.103084 120.456895 
L 331.196086 119.682631 
L 331.289089 119.881722 
L 331.382091 118.908366 
L 331.475093 120.456895 
L 331.661098 119.682631 
L 331.847103 120.069756 
L 331.940105 119.107457 
L 332.033107 122.016481 
L 332.12611 119.881722 
L 332.219112 120.069756 
L 332.312114 120.069756 
L 332.405117 121.242216 
L 332.498119 118.521227 
L 332.591121 118.709262 
L 332.684124 117.746963 
L 332.777126 119.881722 
L 332.96313 118.134102 
L 333.056133 116.773607 
L 333.242137 120.655986 
L 333.428142 118.709262 
L 333.614147 119.295492 
L 333.707149 119.295492 
L 333.800151 118.134102 
L 333.893154 118.521227 
L 333.986156 118.322136 
L 334.265163 115.025974 
L 334.451168 116.386468 
L 334.54417 115.601147 
L 334.637172 117.160733 
L 334.823177 115.999343 
L 334.916179 116.187377 
L 335.009181 114.439744 
L 335.195186 117.160733 
L 335.381191 112.493032 
L 335.567195 115.025974 
L 335.660198 116.386468 
L 335.846202 114.439744 
L 335.939205 116.574503 
L 336.125209 113.466388 
L 336.218212 113.853513 
L 336.404216 116.187377 
L 336.590221 112.692124 
L 336.869228 115.601147 
L 336.96223 115.214008 
L 337.055233 117.160733 
L 337.148235 115.800238 
L 337.334239 116.773607 
L 337.520244 115.601147 
L 337.613246 117.746963 
L 337.706249 117.547872 
L 337.799251 117.746963 
L 337.985256 115.025974 
L 338.17126 119.295492 
L 338.264263 116.574503 
L 338.357265 116.773607 
L 338.450267 115.800238 
L 338.636272 116.773607 
L 338.729274 116.961642 
L 338.822277 117.746963 
L 339.008281 115.214008 
L 339.101284 115.214008 
L 339.194286 115.800238 
L 339.287288 115.601147 
L 339.380291 115.025974 
L 339.659297 116.961642 
L 339.7523 116.187377 
L 339.845302 116.961642 
L 339.938304 115.999343 
L 340.031307 116.187377 
L 340.124309 117.746963 
L 340.217311 117.359837 
L 340.310314 116.386468 
L 340.403316 116.961642 
L 340.496318 116.773607 
L 340.589321 117.934997 
L 340.682323 116.386468 
L 341.147335 119.881722 
L 341.240337 119.682631 
L 341.426342 118.521227 
L 341.612346 119.881722 
L 341.891353 117.359837 
L 341.984355 119.107457 
L 342.077358 118.521227 
L 342.17036 119.881722 
L 342.263362 118.709262 
L 342.449367 120.069756 
L 342.635372 118.908366 
L 342.728374 119.107457 
L 343.007381 120.456895 
L 343.100383 119.881722 
L 343.193386 122.403606 
L 343.37939 120.069756 
L 343.472393 115.800238 
L 343.658397 120.456895 
L 343.844402 118.134102 
L 344.030406 120.069756 
L 344.123409 118.521227 
L 344.216411 119.107457 
L 344.402416 117.934997 
L 344.495418 119.494583 
L 344.681423 118.521227 
L 344.774425 118.134102 
L 344.867427 119.494583 
L 344.96043 118.134102 
L 345.146434 119.295492 
L 345.425441 121.430251 
L 345.611446 118.134102 
L 345.704448 118.322136 
L 345.797451 117.746963 
L 345.983455 120.855077 
L 346.16946 120.268847 
L 346.262462 119.295492 
L 346.541469 120.069756 
L 346.634471 119.881722 
L 346.727474 120.069756 
L 346.820476 121.430251 
L 347.192485 118.521227 
L 347.37849 117.359837 
L 347.564495 119.494583 
L 347.750499 116.574503 
L 347.843502 120.069756 
L 347.936504 119.494583 
L 348.215511 116.187377 
L 348.494518 120.456895 
L 348.58752 119.881722 
L 348.680522 116.961642 
L 348.773525 117.547872 
L 348.959529 115.800238 
L 349.052532 117.160733 
L 349.238536 116.386468 
L 349.424541 117.934997 
L 349.517543 117.934997 
L 349.610546 118.709262 
L 349.79655 116.773607 
L 349.982555 118.322136 
L 350.261562 117.547872 
L 350.354564 119.107457 
L 350.447567 118.134102 
L 350.540569 118.322136 
L 350.726574 120.855077 
L 350.819576 118.709262 
L 350.912578 119.107457 
L 351.00558 120.456895 
L 351.191585 118.322136 
L 351.284587 119.494583 
L 351.37759 118.908366 
L 351.470592 120.855077 
L 351.563594 120.268847 
L 351.656597 117.547872 
L 351.749599 118.521227 
L 351.842601 118.322136 
L 352.121608 115.214008 
L 352.214611 116.773607 
L 352.307613 116.574503 
L 352.493618 117.547872 
L 352.772625 115.999343 
L 352.865627 116.574503 
L 353.051631 115.025974 
L 353.144634 115.025974 
L 353.237636 116.574503 
L 353.330638 115.800238 
L 353.609645 117.934997 
L 353.79565 117.160733 
L 353.888652 116.961642 
L 354.074657 114.052618 
L 354.167659 114.439744 
L 354.353664 117.359837 
L 354.539669 116.187377 
L 354.632671 117.746963 
L 354.818676 116.574503 
L 354.911678 116.961642 
L 355.00468 116.574503 
L 355.097683 117.359837 
L 355.190685 116.187377 
L 355.283687 116.574503 
L 355.469692 118.521227 
L 355.655696 117.934997 
L 355.934703 115.800238 
L 356.120708 117.934997 
L 356.21371 117.746963 
L 356.399715 115.999343 
L 356.58572 116.574503 
L 356.678722 115.800238 
L 356.864727 117.746963 
L 357.050731 116.574503 
L 357.143734 116.961642 
L 357.329738 113.853513 
L 357.422741 113.466388 
L 357.515743 116.187377 
L 357.608745 115.413113 
L 357.79475 116.961642 
L 357.980754 114.439744 
L 358.166759 113.278354 
L 358.352764 117.746963 
L 358.538768 116.961642 
L 358.631771 116.773607 
L 358.817775 118.908366 
L 358.910778 118.521227 
L 359.189785 119.295492 
L 359.375789 117.359837 
L 359.468792 118.521227 
L 359.561794 117.746963 
L 359.840801 120.069756 
L 359.933803 121.242216 
L 360.026805 118.322136 
L 360.305812 121.430251 
L 360.491817 119.494583 
L 360.584819 119.881722 
L 360.770824 118.521227 
L 360.863826 118.908366 
L 361.049831 117.746963 
L 361.235836 119.295492 
L 361.328838 118.521227 
L 361.42184 119.107457 
L 361.607845 118.521227 
L 361.700847 118.709262 
L 361.79385 118.521227 
L 362.072856 115.413113 
L 362.165859 116.773607 
L 362.258861 116.574503 
L 362.351863 115.999343 
L 362.444866 117.359837 
L 362.537868 117.160733 
L 362.63087 116.961642 
L 362.723873 116.187377 
L 363.095882 119.682631 
L 363.188884 119.682631 
L 363.374889 117.934997 
L 363.467891 116.773607 
L 363.560894 119.682631 
L 363.653896 118.322136 
L 363.839901 120.268847 
L 363.932903 119.682631 
L 364.118908 121.242216 
L 364.21191 121.629342 
L 364.304912 119.881722 
L 364.397914 120.069756 
L 364.583919 120.855077 
L 364.676921 120.655986 
L 364.862926 116.386468 
L 365.048931 119.295492 
L 365.141933 118.908366 
L 365.234935 116.961642 
L 365.327938 119.107457 
L 365.42094 117.934997 
L 365.513942 119.107457 
L 365.606945 118.521227 
L 365.699947 120.069756 
L 365.792949 116.773607 
L 365.885952 118.521227 
L 366.071956 115.413113 
L 366.257961 116.187377 
L 366.350963 115.999343 
L 366.443966 117.746963 
L 366.536968 114.826883 
L 366.62997 117.359837 
L 366.815975 116.386468 
L 366.908977 116.386468 
L 367.001979 119.295492 
L 367.187984 116.574503 
L 367.280986 118.134102 
L 367.466991 117.547872 
L 367.559993 117.547872 
L 367.652996 116.961642 
L 367.932003 118.322136 
L 368.025005 117.359837 
L 368.118007 119.107457 
L 368.21101 117.934997 
L 368.304012 118.322136 
L 368.490017 116.773607 
L 368.676021 119.494583 
L 368.862026 118.709262 
L 368.955028 117.359837 
L 369.04803 119.881722 
L 369.141033 119.295492 
L 369.42004 113.853513 
L 369.513042 115.601147 
L 369.699047 115.025974 
L 369.792049 116.187377 
L 369.885051 115.800238 
L 370.071056 117.160733 
L 370.164058 116.187377 
L 370.257061 117.934997 
L 370.536068 112.891215 
L 370.815075 116.961642 
L 371.094081 112.493032 
L 371.187084 113.278354 
L 371.280086 117.359837 
L 371.373088 116.574503 
L 371.559093 114.439744 
L 371.745098 115.601147 
L 371.8381 115.214008 
L 371.931102 114.251709 
L 372.024105 117.359837 
L 372.117107 117.160733 
L 372.210109 116.574503 
L 372.303112 116.961642 
L 372.396114 119.107457 
L 372.675121 114.826883 
L 372.954128 117.359837 
L 373.04713 117.359837 
L 373.233135 118.134102 
L 373.326137 117.746963 
L 373.419139 116.574503 
L 373.512142 117.934997 
L 373.698146 116.961642 
L 373.791149 118.134102 
L 373.884151 117.746963 
L 373.977153 119.494583 
L 374.070156 119.295492 
L 374.163158 120.456895 
L 374.442165 117.160733 
L 374.535167 116.386468 
L 374.62817 117.160733 
L 374.721172 115.601147 
L 375.000179 117.746963 
L 375.093181 118.134102 
L 375.186184 117.160733 
L 375.372188 117.746963 
L 375.651195 115.413113 
L 375.930202 117.160733 
L 376.023204 118.521227 
L 376.209209 116.961642 
L 376.395214 118.709262 
L 376.488216 117.160733 
L 376.860225 120.855077 
L 377.04623 114.826883 
L 377.232235 119.881722 
L 377.511242 117.934997 
L 377.604244 118.134102 
L 377.697246 119.494583 
L 377.790248 117.934997 
L 377.883251 118.322136 
L 377.976253 120.655986 
L 378.162258 116.961642 
L 378.25526 118.322136 
L 378.348262 117.934997 
L 378.441265 118.134102 
L 378.534267 119.881722 
L 378.720272 119.107457 
L 378.813274 117.160733 
L 378.999279 120.456895 
L 379.092281 119.682631 
L 379.185283 120.655986 
L 379.371288 116.961642 
L 379.46429 120.268847 
L 379.557293 118.709262 
L 379.650295 119.494583 
L 379.743297 117.934997 
L 379.929302 119.107457 
L 380.301311 117.547872 
L 380.580318 121.242216 
L 380.766323 118.134102 
L 380.859325 118.709262 
L 380.952327 117.746963 
L 381.231334 120.655986 
L 381.324337 120.268847 
L 381.417339 118.908366 
L 381.510341 119.682631 
L 381.603344 117.934997 
L 381.696346 119.494583 
L 381.882351 118.709262 
L 381.975353 120.268847 
L 382.25436 118.521227 
L 382.347362 118.521227 
L 382.440364 120.855077 
L 382.719371 118.521227 
L 382.812374 117.160733 
L 382.905376 119.107457 
L 382.998378 118.908366 
L 383.091381 118.709262 
L 383.277385 120.069756 
L 383.370388 120.456895 
L 383.556392 117.746963 
L 383.649395 117.547872 
L 383.742397 118.322136 
L 383.835399 117.547872 
L 383.928402 115.800238 
L 384.207409 117.746963 
L 384.300411 117.359837 
L 384.393413 115.999343 
L 384.579418 119.682631 
L 384.858425 116.574503 
L 384.951427 117.746963 
L 385.044429 116.386468 
L 385.137432 117.160733 
L 385.230434 119.107457 
L 385.323436 115.214008 
L 385.509441 117.160733 
L 385.602443 115.999343 
L 385.695446 117.934997 
L 385.788448 117.746963 
L 385.88145 117.359837 
L 385.974453 119.107457 
L 386.067455 118.322136 
L 386.160457 116.187377 
L 386.25346 118.134102 
L 386.439464 116.386468 
L 386.532467 118.134102 
L 386.718471 114.826883 
L 386.811473 115.601147 
L 386.997478 117.746963 
L 387.09048 117.934997 
L 387.183483 115.601147 
L 387.369487 118.521227 
L 387.46249 118.322136 
L 387.648494 116.386468 
L 387.834499 117.746963 
L 387.927501 116.773607 
L 388.020504 116.961642 
L 388.113506 118.322136 
L 388.206508 117.359837 
L 388.299511 119.494583 
L 388.578518 116.773607 
L 388.67152 119.494583 
L 388.764522 118.709262 
L 388.857525 116.187377 
L 388.857525 116.187377 
" style="fill:none;stroke:#1f77b4;stroke-linecap:round;stroke-width:1.5;"/>
   </g>
   <g id="line2d_14">
    <path clip-path="url(#pd9e5d82034)" d="M 115.516488 -1 
L 115.630491 289 
L 115.630491 289 
" style="fill:none;stroke:#ff7f0e;stroke-linecap:round;stroke-width:1.5;"/>
   </g>
   <g id="patch_3">
    <path d="M 54 252 
L 54 34.56 
" style="fill:none;stroke:#cccccc;stroke-linecap:square;stroke-linejoin:miter;stroke-width:0.8;"/>
   </g>
   <g id="patch_4">
    <path d="M 388.8 252 
L 388.8 34.56 
" style="fill:none;stroke:#cccccc;stroke-linecap:square;stroke-linejoin:miter;stroke-width:0.8;"/>
   </g>
   <g id="patch_5">
    <path d="M 54 252 
L 388.8 252 
" style="fill:none;stroke:#cccccc;stroke-linecap:square;stroke-linejoin:miter;stroke-width:0.8;"/>
   </g>
   <g id="patch_6">
    <path d="M 54 34.56 
L 388.8 34.56 
" style="fill:none;stroke:#cccccc;stroke-linecap:square;stroke-linejoin:miter;stroke-width:0.8;"/>
   </g>
  </g>
 </g>
 <defs>
  <clipPath id="pd9e5d82034">
   <rect height="217.44" width="334.8" x="54" y="34.56"/>
  </clipPath>
 </defs>
</svg>
