<?xml version="1.0" encoding="utf-8" standalone="no"?>
<!DOCTYPE svg PUBLIC "-//W3C//DTD SVG 1.1//EN"
  "http://www.w3.org/Graphics/SVG/1.1/DTD/svg11.dtd">
<!-- Created with matplotlib (https://matplotlib.org/) -->
<svg height="288pt" version="1.1" viewBox="0 0 432 288" width="432pt" xmlns="http://www.w3.org/2000/svg" xmlns:xlink="http://www.w3.org/1999/xlink">
 <metadata>
  <rdf:RDF xmlns:cc="http://creativecommons.org/ns#" xmlns:dc="http://purl.org/dc/elements/1.1/" xmlns:rdf="http://www.w3.org/1999/02/22-rdf-syntax-ns#">
   <cc:Work>
    <dc:type rdf:resource="http://purl.org/dc/dcmitype/StillImage"/>
    <dc:date>2022-05-25T22:50:38.776454</dc:date>
    <dc:format>image/svg+xml</dc:format>
    <dc:creator>
     <cc:Agent>
      <dc:title>Matplotlib v3.3.3, https://matplotlib.org/</dc:title>
     </cc:Agent>
    </dc:creator>
   </cc:Work>
  </rdf:RDF>
 </metadata>
 <defs>
  <style type="text/css">*{stroke-linecap:butt;stroke-linejoin:round;}</style>
 </defs>
 <g id="figure_1">
  <g id="patch_1">
   <path d="M 0 288 
L 432 288 
L 432 0 
L 0 0 
z
" style="fill:#ffffff;"/>
  </g>
  <g id="axes_1">
   <g id="patch_2">
    <path d="M 54 252 
L 388.8 252 
L 388.8 34.56 
L 54 34.56 
z
" style="fill:#ffffff;"/>
   </g>
   <g id="matplotlib.axis_1">
    <g id="xtick_1">
     <g id="line2d_1">
      <path clip-path="url(#pe184a304f1)" d="M 54 252 
L 54 34.56 
" style="fill:none;stroke:#cccccc;stroke-linecap:round;stroke-width:0.8;"/>
     </g>
     <g id="text_1">
      <!-- 0 -->
      <g style="fill:#262626;" transform="translate(51.219531 266.157812)scale(0.1 -0.1)">
       <defs>
        <path d="M 4.15625 35.296875 
Q 4.15625 48 6.765625 55.734375 
Q 9.375 63.484375 14.515625 67.671875 
Q 19.671875 71.875 27.484375 71.875 
Q 33.25 71.875 37.59375 69.546875 
Q 41.9375 67.234375 44.765625 62.859375 
Q 47.609375 58.5 49.21875 52.21875 
Q 50.828125 45.953125 50.828125 35.296875 
Q 50.828125 22.703125 48.234375 14.96875 
Q 45.65625 7.234375 40.5 3 
Q 35.359375 -1.21875 27.484375 -1.21875 
Q 17.140625 -1.21875 11.234375 6.203125 
Q 4.15625 15.140625 4.15625 35.296875 
z
M 13.1875 35.296875 
Q 13.1875 17.671875 17.3125 11.828125 
Q 21.4375 6 27.484375 6 
Q 33.546875 6 37.671875 11.859375 
Q 41.796875 17.71875 41.796875 35.296875 
Q 41.796875 52.984375 37.671875 58.78125 
Q 33.546875 64.59375 27.390625 64.59375 
Q 21.34375 64.59375 17.71875 59.46875 
Q 13.1875 52.9375 13.1875 35.296875 
z
" id="ArialMT-48"/>
       </defs>
       <use xlink:href="#ArialMT-48"/>
      </g>
     </g>
    </g>
    <g id="xtick_2">
     <g id="line2d_2">
      <path clip-path="url(#pe184a304f1)" d="M 128.4 252 
L 128.4 34.56 
" style="fill:none;stroke:#cccccc;stroke-linecap:round;stroke-width:0.8;"/>
     </g>
     <g id="text_2">
      <!-- 1 -->
      <g style="fill:#262626;" transform="translate(125.619531 266.157812)scale(0.1 -0.1)">
       <defs>
        <path d="M 37.25 0 
L 28.46875 0 
L 28.46875 56 
Q 25.296875 52.984375 20.140625 49.953125 
Q 14.984375 46.921875 10.890625 45.40625 
L 10.890625 53.90625 
Q 18.265625 57.375 23.78125 62.296875 
Q 29.296875 67.234375 31.59375 71.875 
L 37.25 71.875 
z
" id="ArialMT-49"/>
       </defs>
       <use xlink:href="#ArialMT-49"/>
      </g>
     </g>
    </g>
    <g id="xtick_3">
     <g id="line2d_3">
      <path clip-path="url(#pe184a304f1)" d="M 202.8 252 
L 202.8 34.56 
" style="fill:none;stroke:#cccccc;stroke-linecap:round;stroke-width:0.8;"/>
     </g>
     <g id="text_3">
      <!-- 2 -->
      <g style="fill:#262626;" transform="translate(200.019531 266.157812)scale(0.1 -0.1)">
       <defs>
        <path d="M 50.34375 8.453125 
L 50.34375 0 
L 3.03125 0 
Q 2.9375 3.171875 4.046875 6.109375 
Q 5.859375 10.9375 9.828125 15.625 
Q 13.8125 20.3125 21.34375 26.46875 
Q 33.015625 36.03125 37.109375 41.625 
Q 41.21875 47.21875 41.21875 52.203125 
Q 41.21875 57.421875 37.46875 61 
Q 33.734375 64.59375 27.734375 64.59375 
Q 21.390625 64.59375 17.578125 60.78125 
Q 13.765625 56.984375 13.71875 50.25 
L 4.6875 51.171875 
Q 5.609375 61.28125 11.65625 66.578125 
Q 17.71875 71.875 27.9375 71.875 
Q 38.234375 71.875 44.234375 66.15625 
Q 50.25 60.453125 50.25 52 
Q 50.25 47.703125 48.484375 43.546875 
Q 46.734375 39.40625 42.65625 34.8125 
Q 38.578125 30.21875 29.109375 22.21875 
Q 21.1875 15.578125 18.9375 13.203125 
Q 16.703125 10.84375 15.234375 8.453125 
z
" id="ArialMT-50"/>
       </defs>
       <use xlink:href="#ArialMT-50"/>
      </g>
     </g>
    </g>
    <g id="xtick_4">
     <g id="line2d_4">
      <path clip-path="url(#pe184a304f1)" d="M 277.2 252 
L 277.2 34.56 
" style="fill:none;stroke:#cccccc;stroke-linecap:round;stroke-width:0.8;"/>
     </g>
     <g id="text_4">
      <!-- 3 -->
      <g style="fill:#262626;" transform="translate(274.419531 266.157812)scale(0.1 -0.1)">
       <defs>
        <path d="M 4.203125 18.890625 
L 12.984375 20.0625 
Q 14.5 12.59375 18.140625 9.296875 
Q 21.78125 6 27 6 
Q 33.203125 6 37.46875 10.296875 
Q 41.75 14.59375 41.75 20.953125 
Q 41.75 27 37.796875 30.921875 
Q 33.84375 34.859375 27.734375 34.859375 
Q 25.25 34.859375 21.53125 33.890625 
L 22.515625 41.609375 
Q 23.390625 41.5 23.921875 41.5 
Q 29.546875 41.5 34.03125 44.421875 
Q 38.53125 47.359375 38.53125 53.46875 
Q 38.53125 58.296875 35.25 61.46875 
Q 31.984375 64.65625 26.8125 64.65625 
Q 21.6875 64.65625 18.265625 61.421875 
Q 14.84375 58.203125 13.875 51.765625 
L 5.078125 53.328125 
Q 6.6875 62.15625 12.390625 67.015625 
Q 18.109375 71.875 26.609375 71.875 
Q 32.46875 71.875 37.390625 69.359375 
Q 42.328125 66.84375 44.9375 62.5 
Q 47.5625 58.15625 47.5625 53.265625 
Q 47.5625 48.640625 45.0625 44.828125 
Q 42.578125 41.015625 37.703125 38.765625 
Q 44.046875 37.3125 47.5625 32.6875 
Q 51.078125 28.078125 51.078125 21.140625 
Q 51.078125 11.765625 44.234375 5.25 
Q 37.40625 -1.265625 26.953125 -1.265625 
Q 17.53125 -1.265625 11.296875 4.34375 
Q 5.078125 9.96875 4.203125 18.890625 
z
" id="ArialMT-51"/>
       </defs>
       <use xlink:href="#ArialMT-51"/>
      </g>
     </g>
    </g>
    <g id="xtick_5">
     <g id="line2d_5">
      <path clip-path="url(#pe184a304f1)" d="M 351.6 252 
L 351.6 34.56 
" style="fill:none;stroke:#cccccc;stroke-linecap:round;stroke-width:0.8;"/>
     </g>
     <g id="text_5">
      <!-- 4 -->
      <g style="fill:#262626;" transform="translate(348.819531 266.157812)scale(0.1 -0.1)">
       <defs>
        <path d="M 32.328125 0 
L 32.328125 17.140625 
L 1.265625 17.140625 
L 1.265625 25.203125 
L 33.9375 71.578125 
L 41.109375 71.578125 
L 41.109375 25.203125 
L 50.78125 25.203125 
L 50.78125 17.140625 
L 41.109375 17.140625 
L 41.109375 0 
z
M 32.328125 25.203125 
L 32.328125 57.46875 
L 9.90625 25.203125 
z
" id="ArialMT-52"/>
       </defs>
       <use xlink:href="#ArialMT-52"/>
      </g>
     </g>
    </g>
    <g id="text_6">
     <!-- 1e−5 -->
     <g style="fill:#262626;" transform="translate(366.276563 278.303125)scale(0.1 -0.1)">
      <defs>
       <path d="M 42.09375 16.703125 
L 51.171875 15.578125 
Q 49.03125 7.625 43.21875 3.21875 
Q 37.40625 -1.171875 28.375 -1.171875 
Q 17 -1.171875 10.328125 5.828125 
Q 3.65625 12.84375 3.65625 25.484375 
Q 3.65625 38.578125 10.390625 45.796875 
Q 17.140625 53.03125 27.875 53.03125 
Q 38.28125 53.03125 44.875 45.953125 
Q 51.46875 38.875 51.46875 26.03125 
Q 51.46875 25.25 51.421875 23.6875 
L 12.75 23.6875 
Q 13.234375 15.140625 17.578125 10.59375 
Q 21.921875 6.0625 28.421875 6.0625 
Q 33.25 6.0625 36.671875 8.59375 
Q 40.09375 11.140625 42.09375 16.703125 
z
M 13.234375 30.90625 
L 42.1875 30.90625 
Q 41.609375 37.453125 38.875 40.71875 
Q 34.671875 45.796875 27.984375 45.796875 
Q 21.921875 45.796875 17.796875 41.75 
Q 13.671875 37.703125 13.234375 30.90625 
z
" id="ArialMT-101"/>
       <path d="M 52.828125 31.203125 
L 5.5625 31.203125 
L 5.5625 39.40625 
L 52.828125 39.40625 
z
" id="ArialMT-8722"/>
       <path d="M 4.15625 18.75 
L 13.375 19.53125 
Q 14.40625 12.796875 18.140625 9.390625 
Q 21.875 6 27.15625 6 
Q 33.5 6 37.890625 10.78125 
Q 42.28125 15.578125 42.28125 23.484375 
Q 42.28125 31 38.0625 35.34375 
Q 33.84375 39.703125 27 39.703125 
Q 22.75 39.703125 19.328125 37.765625 
Q 15.921875 35.84375 13.96875 32.765625 
L 5.71875 33.84375 
L 12.640625 70.609375 
L 48.25 70.609375 
L 48.25 62.203125 
L 19.671875 62.203125 
L 15.828125 42.96875 
Q 22.265625 47.46875 29.34375 47.46875 
Q 38.71875 47.46875 45.15625 40.96875 
Q 51.609375 34.46875 51.609375 24.265625 
Q 51.609375 14.546875 45.953125 7.46875 
Q 39.0625 -1.21875 27.15625 -1.21875 
Q 17.390625 -1.21875 11.203125 4.25 
Q 5.03125 9.71875 4.15625 18.75 
z
" id="ArialMT-53"/>
      </defs>
      <use xlink:href="#ArialMT-49"/>
      <use x="55.615234" xlink:href="#ArialMT-101"/>
      <use x="111.230469" xlink:href="#ArialMT-8722"/>
      <use x="169.628906" xlink:href="#ArialMT-53"/>
     </g>
    </g>
   </g>
   <g id="matplotlib.axis_2">
    <g id="ytick_1">
     <g id="line2d_6">
      <path clip-path="url(#pe184a304f1)" d="M 54 252 
L 388.8 252 
" style="fill:none;stroke:#cccccc;stroke-linecap:round;stroke-width:0.8;"/>
     </g>
     <g id="text_7">
      <!-- 0.00 -->
      <g style="fill:#262626;" transform="translate(27.539062 255.578906)scale(0.1 -0.1)">
       <defs>
        <path d="M 9.078125 0 
L 9.078125 10.015625 
L 19.09375 10.015625 
L 19.09375 0 
z
" id="ArialMT-46"/>
       </defs>
       <use xlink:href="#ArialMT-48"/>
       <use x="55.615234" xlink:href="#ArialMT-46"/>
       <use x="83.398438" xlink:href="#ArialMT-48"/>
       <use x="139.013672" xlink:href="#ArialMT-48"/>
      </g>
     </g>
    </g>
    <g id="ytick_2">
     <g id="line2d_7">
      <path clip-path="url(#pe184a304f1)" d="M 54 215.76 
L 388.8 215.76 
" style="fill:none;stroke:#cccccc;stroke-linecap:round;stroke-width:0.8;"/>
     </g>
     <g id="text_8">
      <!-- 0.01 -->
      <g style="fill:#262626;" transform="translate(27.539062 219.338906)scale(0.1 -0.1)">
       <use xlink:href="#ArialMT-48"/>
       <use x="55.615234" xlink:href="#ArialMT-46"/>
       <use x="83.398438" xlink:href="#ArialMT-48"/>
       <use x="139.013672" xlink:href="#ArialMT-49"/>
      </g>
     </g>
    </g>
    <g id="ytick_3">
     <g id="line2d_8">
      <path clip-path="url(#pe184a304f1)" d="M 54 179.52 
L 388.8 179.52 
" style="fill:none;stroke:#cccccc;stroke-linecap:round;stroke-width:0.8;"/>
     </g>
     <g id="text_9">
      <!-- 0.02 -->
      <g style="fill:#262626;" transform="translate(27.539062 183.098906)scale(0.1 -0.1)">
       <use xlink:href="#ArialMT-48"/>
       <use x="55.615234" xlink:href="#ArialMT-46"/>
       <use x="83.398438" xlink:href="#ArialMT-48"/>
       <use x="139.013672" xlink:href="#ArialMT-50"/>
      </g>
     </g>
    </g>
    <g id="ytick_4">
     <g id="line2d_9">
      <path clip-path="url(#pe184a304f1)" d="M 54 143.28 
L 388.8 143.28 
" style="fill:none;stroke:#cccccc;stroke-linecap:round;stroke-width:0.8;"/>
     </g>
     <g id="text_10">
      <!-- 0.03 -->
      <g style="fill:#262626;" transform="translate(27.539062 146.858906)scale(0.1 -0.1)">
       <use xlink:href="#ArialMT-48"/>
       <use x="55.615234" xlink:href="#ArialMT-46"/>
       <use x="83.398438" xlink:href="#ArialMT-48"/>
       <use x="139.013672" xlink:href="#ArialMT-51"/>
      </g>
     </g>
    </g>
    <g id="ytick_5">
     <g id="line2d_10">
      <path clip-path="url(#pe184a304f1)" d="M 54 107.04 
L 388.8 107.04 
" style="fill:none;stroke:#cccccc;stroke-linecap:round;stroke-width:0.8;"/>
     </g>
     <g id="text_11">
      <!-- 0.04 -->
      <g style="fill:#262626;" transform="translate(27.539062 110.618906)scale(0.1 -0.1)">
       <use xlink:href="#ArialMT-48"/>
       <use x="55.615234" xlink:href="#ArialMT-46"/>
       <use x="83.398438" xlink:href="#ArialMT-48"/>
       <use x="139.013672" xlink:href="#ArialMT-52"/>
      </g>
     </g>
    </g>
    <g id="ytick_6">
     <g id="line2d_11">
      <path clip-path="url(#pe184a304f1)" d="M 54 70.8 
L 388.8 70.8 
" style="fill:none;stroke:#cccccc;stroke-linecap:round;stroke-width:0.8;"/>
     </g>
     <g id="text_12">
      <!-- 0.05 -->
      <g style="fill:#262626;" transform="translate(27.539062 74.378906)scale(0.1 -0.1)">
       <use xlink:href="#ArialMT-48"/>
       <use x="55.615234" xlink:href="#ArialMT-46"/>
       <use x="83.398438" xlink:href="#ArialMT-48"/>
       <use x="139.013672" xlink:href="#ArialMT-53"/>
      </g>
     </g>
    </g>
    <g id="ytick_7">
     <g id="line2d_12">
      <path clip-path="url(#pe184a304f1)" d="M 54 34.56 
L 388.8 34.56 
" style="fill:none;stroke:#cccccc;stroke-linecap:round;stroke-width:0.8;"/>
     </g>
     <g id="text_13">
      <!-- 0.06 -->
      <g style="fill:#262626;" transform="translate(27.539062 38.138906)scale(0.1 -0.1)">
       <defs>
        <path d="M 49.75 54.046875 
L 41.015625 53.375 
Q 39.84375 58.546875 37.703125 60.890625 
Q 34.125 64.65625 28.90625 64.65625 
Q 24.703125 64.65625 21.53125 62.3125 
Q 17.390625 59.28125 14.984375 53.46875 
Q 12.59375 47.65625 12.5 36.921875 
Q 15.671875 41.75 20.265625 44.09375 
Q 24.859375 46.4375 29.890625 46.4375 
Q 38.671875 46.4375 44.84375 39.96875 
Q 51.03125 33.5 51.03125 23.25 
Q 51.03125 16.5 48.125 10.71875 
Q 45.21875 4.9375 40.140625 1.859375 
Q 35.0625 -1.21875 28.609375 -1.21875 
Q 17.625 -1.21875 10.6875 6.859375 
Q 3.765625 14.9375 3.765625 33.5 
Q 3.765625 54.25 11.421875 63.671875 
Q 18.109375 71.875 29.4375 71.875 
Q 37.890625 71.875 43.28125 67.140625 
Q 48.6875 62.40625 49.75 54.046875 
z
M 13.875 23.1875 
Q 13.875 18.65625 15.796875 14.5 
Q 17.71875 10.359375 21.1875 8.171875 
Q 24.65625 6 28.46875 6 
Q 34.03125 6 38.03125 10.484375 
Q 42.046875 14.984375 42.046875 22.703125 
Q 42.046875 30.125 38.078125 34.390625 
Q 34.125 38.671875 28.125 38.671875 
Q 22.171875 38.671875 18.015625 34.390625 
Q 13.875 30.125 13.875 23.1875 
z
" id="ArialMT-54"/>
       </defs>
       <use xlink:href="#ArialMT-48"/>
       <use x="55.615234" xlink:href="#ArialMT-46"/>
       <use x="83.398438" xlink:href="#ArialMT-48"/>
       <use x="139.013672" xlink:href="#ArialMT-54"/>
      </g>
     </g>
    </g>
   </g>
   <g id="line2d_13">
    <path clip-path="url(#pe184a304f1)" d="M 54 216.859454 
L 54.093012 216.273224 
L 54.279035 216.859454 
L 54.372046 216.472322 
L 54.465058 218.031911 
L 54.55807 215.886092 
L 54.837105 217.633718 
L 55.023128 216.472322 
L 55.209151 217.246586 
L 55.395174 216.67142 
L 55.767221 218.219949 
L 55.953244 215.498959 
L 56.139267 217.058552 
L 56.232279 216.273224 
L 56.418302 217.445684 
L 56.511314 216.472322 
L 56.604325 216.67142 
L 56.88336 215.498959 
L 57.069383 217.445684 
L 57.162395 217.445684 
L 57.255407 216.859454 
L 57.44143 217.445684 
L 57.627453 216.273224 
L 57.720465 216.472322 
L 57.813476 217.246586 
L 58.092511 216.273224 
L 58.185523 216.273224 
L 58.464558 216.67142 
L 58.557569 217.445684 
L 58.836604 216.273224 
L 59.115639 217.633718 
L 59.208651 217.246586 
L 59.487686 217.832816 
L 59.580697 217.445684 
L 59.673709 217.832816 
L 59.859732 216.67142 
L 59.952744 217.058552 
L 60.045755 217.832816 
L 60.231779 215.886092 
L 60.510813 217.058552 
L 60.696837 216.472322 
L 60.789848 216.859454 
L 60.975872 216.08519 
L 61.161895 215.698057 
L 61.347918 216.67142 
L 61.44093 216.472322 
L 61.533941 216.859454 
L 61.626953 216.67142 
L 61.719965 217.246586 
L 61.905988 216.273224 
L 61.998999 217.246586 
L 62.092011 216.859454 
L 62.278034 217.633718 
L 62.371046 217.246586 
L 62.464058 218.031911 
L 62.557069 217.633718 
L 62.650081 218.031911 
L 62.743092 216.859454 
L 63.022127 217.633718 
L 63.115139 216.273224 
L 63.301162 216.67142 
L 63.394174 216.273224 
L 63.580197 217.445684 
L 63.673209 217.445684 
L 63.76622 218.219949 
L 63.952243 216.859454 
L 64.045255 216.472322 
L 64.138267 217.058552 
L 64.231278 216.859454 
L 64.32429 217.058552 
L 64.417302 218.419043 
L 64.603325 217.832816 
L 64.696336 217.633718 
L 64.789348 217.832816 
L 64.975371 216.859454 
L 65.068383 217.445684 
L 65.347418 216.67142 
L 65.533441 218.419043 
L 65.719464 216.67142 
L 65.812476 216.859454 
L 65.998499 218.607081 
L 66.184522 217.832816 
L 66.277534 217.445684 
L 66.370546 218.219949 
L 66.463557 218.031911 
L 66.64958 216.67142 
L 66.742592 218.219949 
L 66.928615 217.246586 
L 67.021627 217.445684 
L 67.20765 216.859454 
L 67.300662 218.219949 
L 67.393673 218.031911 
L 67.486685 218.031911 
L 67.672708 217.058552 
L 67.76572 218.219949 
L 67.858732 218.031911 
L 68.044755 218.031911 
L 68.32379 217.058552 
L 68.509813 218.607081 
L 68.695836 216.859454 
L 68.881859 218.419043 
L 68.974871 217.832816 
L 69.067883 216.472322 
L 69.160894 217.246586 
L 69.253906 216.859454 
L 69.532941 218.031911 
L 69.625952 218.031911 
L 69.811976 215.498959 
L 69.997999 218.419043 
L 70.09101 218.419043 
L 70.277034 217.246586 
L 70.370045 217.832816 
L 70.463057 217.058552 
L 70.556069 217.246586 
L 70.64908 216.859454 
L 70.742092 215.886092 
L 70.928115 217.058552 
L 71.021127 217.445684 
L 71.114138 216.472322 
L 71.20715 216.859454 
L 71.300161 216.472322 
L 71.486185 218.031911 
L 71.579196 218.607081 
L 71.76522 217.633718 
L 71.858231 217.633718 
L 72.044254 217.445684 
L 72.323289 215.698057 
L 72.416301 215.698057 
L 72.695336 218.607081 
L 72.788347 218.419043 
L 72.974371 216.67142 
L 73.067382 217.832816 
L 73.160394 217.633718 
L 73.346417 216.273224 
L 73.439429 216.472322 
L 73.625452 217.246586 
L 73.718464 217.445684 
L 73.997499 216.08519 
L 74.09051 216.472322 
L 74.183522 217.832816 
L 74.276533 217.633718 
L 74.462557 216.472322 
L 74.555568 216.859454 
L 74.64858 217.058552 
L 74.741591 216.859454 
L 74.834603 215.886092 
L 75.113638 217.058552 
L 75.20665 216.859454 
L 75.299661 217.445684 
L 75.485684 217.246586 
L 75.578696 217.633718 
L 75.950743 216.273224 
L 76.043754 217.832816 
L 76.136766 217.246586 
L 76.229777 218.607081 
L 76.322789 217.058552 
L 76.415801 217.633718 
L 76.508812 217.058552 
L 76.601824 217.445684 
L 76.694836 217.246586 
L 76.787847 217.633718 
L 76.880859 217.058552 
L 76.97387 217.445684 
L 77.066882 217.246586 
L 77.252905 217.445684 
L 77.345917 217.445684 
L 77.438928 217.832816 
L 77.624952 216.859454 
L 77.810975 217.246586 
L 77.996998 216.273224 
L 78.276033 217.832816 
L 78.462056 216.859454 
L 78.555068 216.859454 
L 78.64808 217.633718 
L 78.741091 217.445684 
L 78.834103 216.859454 
L 78.927114 217.058552 
L 79.206149 218.607081 
L 79.299161 217.246586 
L 79.392173 217.832816 
L 79.578196 216.472322 
L 79.671207 216.67142 
L 79.764219 216.472322 
L 79.950242 217.246586 
L 80.043254 217.445684 
L 80.136265 216.859454 
L 80.322289 217.445684 
L 80.4153 217.832816 
L 80.694335 216.472322 
L 80.880358 217.445684 
L 80.97337 217.445684 
L 81.066382 218.031911 
L 81.252405 217.832816 
L 81.438428 216.67142 
L 81.810475 217.832816 
L 81.996498 216.472322 
L 82.182521 217.058552 
L 82.275533 217.058552 
L 82.368544 216.472322 
L 82.554568 217.058552 
L 82.647579 217.058552 
L 82.833602 216.273224 
L 82.926614 216.859454 
L 83.019626 216.67142 
L 83.205649 216.08519 
L 83.298661 217.058552 
L 83.484684 216.08519 
L 83.670707 217.246586 
L 83.763719 216.859454 
L 83.85673 217.058552 
L 84.042754 215.698057 
L 84.321788 216.859454 
L 84.4148 216.67142 
L 84.693835 217.832816 
L 84.786847 217.832816 
L 84.97287 217.246586 
L 85.158893 218.219949 
L 85.251905 216.67142 
L 85.437928 217.058552 
L 85.623951 217.633718 
L 85.716963 218.031911 
L 85.809974 217.832816 
L 85.995998 216.859454 
L 86.089009 217.633718 
L 86.275032 217.058552 
L 86.554067 215.698057 
L 86.740091 218.031911 
L 86.926114 217.246586 
L 87.019125 217.832816 
L 87.112137 217.445684 
L 87.29816 217.832816 
L 87.391172 217.832816 
L 87.484184 216.67142 
L 87.577195 217.246586 
L 87.763218 216.273224 
L 87.949242 217.058552 
L 88.135265 217.445684 
L 88.228277 217.445684 
L 88.4143 216.08519 
L 88.600323 217.246586 
L 88.693335 216.472322 
L 88.786346 216.67142 
L 88.972369 217.633718 
L 89.065381 217.633718 
L 89.158393 218.031911 
L 89.344416 216.859454 
L 89.530439 218.419043 
L 89.809474 216.67142 
L 89.995497 217.445684 
L 90.181521 217.058552 
L 90.274532 216.472322 
L 90.553567 218.607081 
L 90.832602 217.058552 
L 90.925614 217.246586 
L 91.018625 217.058552 
L 91.204648 215.886092 
L 91.390672 216.08519 
L 91.483683 217.246586 
L 91.576695 216.472322 
L 91.762718 217.832816 
L 91.85573 217.246586 
L 92.041753 217.832816 
L 92.134765 217.445684 
L 92.227776 217.633718 
L 92.506811 214.138468 
L 92.599823 214.337563 
L 92.692834 218.806175 
L 92.785846 218.607081 
L 92.878858 212.589939 
L 93.157892 218.219949 
L 93.343916 222.301425 
L 93.436927 214.138468 
L 93.622951 218.419043 
L 93.901985 217.633718 
L 93.994997 216.08519 
L 94.088009 217.445684 
L 94.18102 215.498959 
L 94.274032 215.698057 
L 94.367043 216.08519 
L 94.553067 214.923793 
L 94.73909 216.472322 
L 94.832102 215.698057 
L 94.925113 216.08519 
L 95.018125 215.886092 
L 95.204148 217.633718 
L 95.29716 217.445684 
L 95.390171 218.607081 
L 95.483183 217.445684 
L 95.576195 217.832816 
L 95.669206 217.246586 
L 95.855229 217.633718 
L 96.041253 217.058552 
L 96.134264 217.058552 
L 96.227276 215.886092 
L 96.320288 216.08519 
L 96.506311 216.859454 
L 96.599322 217.058552 
L 96.692334 216.67142 
L 96.785346 216.859454 
L 96.878357 215.886092 
L 96.971369 217.246586 
L 97.157392 215.886092 
L 97.250404 214.724695 
L 97.343415 215.698057 
L 97.436427 215.111827 
L 97.62245 217.633718 
L 97.715462 217.246586 
L 97.808473 217.633718 
L 97.994497 217.246586 
L 98.087508 217.832816 
L 98.459555 216.08519 
L 98.552566 215.698057 
L 98.924613 217.445684 
L 99.110636 216.273224 
L 99.203648 216.67142 
L 99.296659 216.472322 
L 99.389671 215.886092 
L 99.482683 216.67142 
L 99.575694 215.886092 
L 99.668706 216.08519 
L 99.761717 215.498959 
L 100.040752 216.859454 
L 100.133764 215.310925 
L 100.226776 215.498959 
L 100.412799 217.058552 
L 100.50581 216.859454 
L 100.598822 215.886092 
L 100.691834 216.273224 
L 101.06388 214.724695 
L 101.342915 216.472322 
L 101.528938 215.111827 
L 101.714962 215.310925 
L 101.807973 214.724695 
L 102.087008 215.698057 
L 102.18002 215.111827 
L 102.366043 216.08519 
L 102.459055 216.67142 
L 102.552066 215.886092 
L 102.738089 216.08519 
L 102.924113 214.724695 
L 103.017124 215.111827 
L 103.110136 213.950431 
L 103.296159 216.273224 
L 103.389171 215.111827 
L 103.668206 216.273224 
L 103.94724 215.111827 
L 104.040252 216.08519 
L 104.226275 215.886092 
L 104.412299 215.886092 
L 104.50531 215.698057 
L 104.598322 215.111827 
L 104.691333 215.698057 
L 104.784345 215.310925 
L 104.877357 215.886092 
L 105.06338 214.5256 
L 105.156392 214.724695 
L 105.435426 216.08519 
L 105.528438 215.698057 
L 105.62145 216.67142 
L 105.807473 214.724695 
L 105.900484 214.923793 
L 105.993496 215.698057 
L 106.086508 213.950431 
L 106.272531 215.111827 
L 106.365543 215.698057 
L 106.551566 215.498959 
L 106.644577 215.886092 
L 106.923612 214.138468 
L 107.016624 214.5256 
L 107.109636 214.337563 
L 107.202647 214.5256 
L 107.295659 215.111827 
L 107.38867 214.337563 
L 107.574694 215.310925 
L 107.667705 215.498959 
L 107.760717 215.111827 
L 108.039752 216.273224 
L 108.132763 214.923793 
L 108.225775 216.08519 
L 108.318787 215.698057 
L 108.50481 214.337563 
L 108.690833 215.886092 
L 108.876856 214.337563 
L 109.06288 215.886092 
L 109.248903 215.886092 
L 109.341914 215.498959 
L 109.620949 213.364204 
L 109.713961 213.751336 
L 109.806973 215.111827 
L 109.899984 214.923793 
L 110.086007 214.138468 
L 110.272031 214.923793 
L 110.365042 215.498959 
L 110.644077 214.923793 
L 110.737089 215.310925 
L 110.923112 213.950431 
L 111.109135 214.5256 
L 111.202147 214.138468 
L 111.295158 214.724695 
L 111.481182 214.337563 
L 111.667205 215.886092 
L 111.853228 214.923793 
L 111.94624 215.111827 
L 112.039251 216.08519 
L 112.225275 214.923793 
L 112.50431 216.859454 
L 112.597321 216.67142 
L 112.783344 215.111827 
L 112.969368 215.498959 
L 113.248403 214.923793 
L 113.341414 215.498959 
L 113.434426 215.310925 
L 113.527437 214.724695 
L 113.620449 215.698057 
L 113.713461 215.111827 
L 113.806472 215.310925 
L 113.899484 214.923793 
L 113.992496 215.498959 
L 114.085507 215.111827 
L 114.27153 216.08519 
L 114.457554 214.138468 
L 114.643577 214.138468 
L 114.8296 215.498959 
L 114.922612 216.08519 
L 115.015623 214.724695 
L 115.201647 215.698057 
L 115.294658 216.273224 
L 115.38767 215.498959 
L 115.573693 215.698057 
L 115.759716 216.67142 
L 115.94574 216.273224 
L 116.131763 215.698057 
L 116.410798 214.724695 
L 116.689833 215.310925 
L 116.875856 216.273224 
L 117.061879 215.886092 
L 117.154891 216.08519 
L 117.247902 214.724695 
L 117.433925 216.08519 
L 117.619949 215.498959 
L 117.71296 216.472322 
L 117.805972 215.111827 
L 117.898984 216.08519 
L 117.991995 215.111827 
L 118.178018 216.08519 
L 118.364042 213.751336 
L 118.457053 214.5256 
L 118.550065 215.886092 
L 118.643077 215.698057 
L 118.8291 216.273224 
L 119.015123 215.111827 
L 119.108135 215.310925 
L 119.573193 214.5256 
L 119.666204 214.5256 
L 119.945239 215.886092 
L 120.038251 214.5256 
L 120.131262 215.111827 
L 120.317286 214.724695 
L 120.410297 214.724695 
L 120.503309 215.498959 
L 120.596321 214.337563 
L 120.875355 216.273224 
L 120.968367 214.724695 
L 121.061379 214.923793 
L 121.15439 214.5256 
L 121.340414 215.698057 
L 121.433425 214.337563 
L 121.526437 214.724695 
L 121.71246 214.337563 
L 121.898483 216.08519 
L 122.27053 214.337563 
L 122.549565 215.498959 
L 122.828599 214.923793 
L 123.107634 216.08519 
L 123.293658 214.724695 
L 123.479681 215.310925 
L 123.572692 215.111827 
L 123.758716 213.563298 
L 123.851727 214.138468 
L 123.944739 213.751336 
L 124.130762 214.724695 
L 124.223774 214.724695 
L 124.316785 214.337563 
L 124.409797 214.724695 
L 124.502809 214.138468 
L 124.59582 214.337563 
L 124.781844 215.111827 
L 125.246902 214.337563 
L 125.339913 214.337563 
L 125.618948 214.923793 
L 125.71196 214.724695 
L 125.897983 215.886092 
L 125.990995 215.111827 
L 126.270029 215.498959 
L 126.456053 214.5256 
L 126.642076 215.111827 
L 126.735088 214.724695 
L 127.014122 216.08519 
L 127.200146 213.950431 
L 127.293157 214.724695 
L 127.386169 214.337563 
L 127.572192 215.698057 
L 127.851227 215.111827 
L 127.944239 214.5256 
L 128.03725 214.724695 
L 128.223274 214.337563 
L 128.316285 214.724695 
L 128.59532 213.950431 
L 128.688332 214.923793 
L 128.781343 213.950431 
L 128.874355 214.138468 
L 128.967366 215.111827 
L 129.060378 214.923793 
L 129.15339 213.751336 
L 129.246401 214.337563 
L 129.339413 214.138468 
L 129.525436 214.724695 
L 129.618448 214.724695 
L 129.711459 214.923793 
L 129.804471 215.886092 
L 129.897483 215.310925 
L 129.990494 215.886092 
L 130.176518 214.337563 
L 130.269529 214.337563 
L 130.455552 215.886092 
L 130.548564 215.698057 
L 130.734587 216.273224 
L 130.920611 216.472322 
L 131.106634 215.886092 
L 131.199645 216.859454 
L 131.385669 215.886092 
L 131.47868 216.08519 
L 131.664703 215.111827 
L 131.757715 215.310925 
L 131.850727 215.698057 
L 131.943738 215.498959 
L 132.03675 214.923793 
L 132.222773 215.498959 
L 132.315785 215.498959 
L 132.408796 217.058552 
L 132.59482 216.273224 
L 132.780843 216.859454 
L 132.966866 214.5256 
L 133.152889 215.111827 
L 133.245901 215.111827 
L 133.431924 215.498959 
L 133.524936 214.724695 
L 133.617948 214.923793 
L 133.803971 213.950431 
L 133.989994 215.111827 
L 134.083006 215.698057 
L 134.36204 213.751336 
L 134.641075 215.886092 
L 134.827099 216.273224 
L 134.92011 215.498959 
L 135.013122 215.698057 
L 135.106133 214.724695 
L 135.199145 216.08519 
L 135.292157 215.111827 
L 135.47818 215.498959 
L 135.664203 213.950431 
L 135.850226 215.310925 
L 135.943238 215.310925 
L 136.03625 215.111827 
L 136.129261 215.886092 
L 136.222273 214.923793 
L 136.315285 215.111827 
L 136.408296 215.111827 
L 136.501308 214.5256 
L 136.687331 215.310925 
L 136.780343 214.923793 
L 136.873354 215.111827 
L 136.966366 214.724695 
L 137.059377 213.751336 
L 137.431424 216.08519 
L 137.710459 214.923793 
L 137.989494 214.337563 
L 138.082505 214.5256 
L 138.268529 214.138468 
L 138.36154 215.310925 
L 138.454552 215.111827 
L 138.640575 215.111827 
L 138.733587 215.498959 
L 138.91961 214.724695 
L 139.012622 214.923793 
L 139.291656 213.563298 
L 139.663703 214.5256 
L 139.756714 215.310925 
L 139.849726 214.923793 
L 139.942738 215.310925 
L 140.128761 214.724695 
L 140.221773 215.111827 
L 140.314784 214.337563 
L 140.407796 215.111827 
L 140.500807 214.337563 
L 140.593819 214.923793 
L 140.779842 214.138468 
L 140.965866 215.698057 
L 141.151889 213.950431 
L 141.2449 212.977072 
L 141.337912 214.923793 
L 141.523935 213.950431 
L 141.616947 213.364204 
L 141.895982 215.310925 
L 141.988993 214.138468 
L 142.175017 214.923793 
L 142.268028 214.138468 
L 142.36104 214.5256 
L 142.454052 214.138468 
L 142.640075 214.923793 
L 142.733086 215.111827 
L 142.91911 214.337563 
L 143.012121 213.950431 
L 143.198144 214.923793 
L 143.291156 214.724695 
L 143.384168 214.724695 
L 143.570191 214.337563 
L 143.663203 215.310925 
L 143.756214 215.111827 
L 144.035249 213.950431 
L 144.128261 214.337563 
L 144.221272 212.977072 
L 144.314284 214.337563 
L 144.407296 214.138468 
L 144.68633 214.138468 
L 144.779342 213.751336 
L 144.965365 214.337563 
L 145.151389 215.111827 
L 145.337412 214.138468 
L 145.523435 216.08519 
L 145.616447 215.498959 
L 145.709458 213.364204 
L 145.80247 214.724695 
L 145.895481 214.138468 
L 145.988493 214.337563 
L 146.081505 214.923793 
L 146.267528 214.5256 
L 146.36054 214.5256 
L 146.546563 213.364204 
L 146.732586 215.498959 
L 146.825598 215.111827 
L 147.011621 213.364204 
L 147.104633 215.111827 
L 147.197644 214.923793 
L 147.290656 214.923793 
L 147.476679 214.337563 
L 147.569691 213.950431 
L 147.662702 214.337563 
L 147.848726 215.698057 
L 147.941737 216.08519 
L 148.220772 215.111827 
L 148.406795 215.498959 
L 148.499807 215.111827 
L 148.592818 216.08519 
L 148.778842 214.5256 
L 148.964865 215.111827 
L 149.057877 213.950431 
L 149.150888 215.698057 
L 149.336911 215.111827 
L 149.429923 214.724695 
L 149.522935 215.111827 
L 149.708958 213.950431 
L 149.894981 215.111827 
L 150.081004 213.751336 
L 150.174016 213.751336 
L 150.453051 214.5256 
L 150.639074 215.698057 
L 150.732086 215.886092 
L 150.825097 215.310925 
L 150.918109 213.950431 
L 151.104132 215.310925 
L 151.197144 215.310925 
L 151.290155 214.724695 
L 151.56919 215.310925 
L 151.755214 214.138468 
L 151.848225 214.724695 
L 151.941237 213.950431 
L 152.034248 215.111827 
L 152.12726 214.923793 
L 152.220272 214.923793 
L 152.406295 213.364204 
L 152.592318 214.138468 
L 152.68533 214.5256 
L 152.778341 214.138468 
L 152.871353 214.923793 
L 153.336411 214.138468 
L 153.429423 215.886092 
L 153.522434 214.923793 
L 153.708458 216.472322 
L 153.894481 215.498959 
L 153.987493 215.698057 
L 154.080504 213.751336 
L 154.266527 214.337563 
L 154.452551 213.751336 
L 154.545562 213.165106 
L 154.731585 214.138468 
L 154.917609 214.5256 
L 155.01062 214.138468 
L 155.103632 213.165106 
L 155.289655 214.5256 
L 155.382667 213.950431 
L 155.661702 215.111827 
L 155.754713 214.138468 
L 155.940737 215.698057 
L 156.033748 215.498959 
L 156.12676 214.5256 
L 156.219771 215.310925 
L 156.405795 214.5256 
L 156.498806 214.337563 
L 156.68483 215.698057 
L 156.870853 214.724695 
L 156.963864 214.724695 
L 157.056876 215.886092 
L 157.242899 214.5256 
L 157.428922 214.138468 
L 157.707957 214.724695 
L 157.893981 215.498959 
L 157.986992 214.724695 
L 158.080004 214.923793 
L 158.173015 214.138468 
L 158.359039 215.111827 
L 158.45205 214.724695 
L 158.638074 213.751336 
L 158.731085 215.310925 
L 158.824097 215.111827 
L 158.917108 213.751336 
L 159.01012 213.950431 
L 159.103132 213.950431 
L 159.196143 213.751336 
L 159.382167 215.310925 
L 159.56819 214.5256 
L 159.754213 215.111827 
L 159.940236 213.364204 
L 160.033248 213.364204 
L 160.126259 213.950431 
L 160.312283 213.563298 
L 160.405294 213.563298 
L 160.498306 213.165106 
L 160.684329 214.138468 
L 160.777341 214.138468 
L 160.870352 213.950431 
L 161.149387 215.310925 
L 161.335411 214.138468 
L 161.428422 213.751336 
L 161.521434 213.950431 
L 161.707457 214.724695 
L 161.89348 214.5256 
L 162.079504 214.923793 
L 162.172515 215.886092 
L 162.45155 214.337563 
L 162.544562 215.310925 
L 162.637573 215.111827 
L 162.823596 213.563298 
L 162.916608 214.724695 
L 163.00962 213.364204 
L 163.195643 214.724695 
L 163.381666 214.138468 
L 163.474678 214.5256 
L 163.567689 214.337563 
L 163.660701 213.563298 
L 163.753713 214.5256 
L 163.846724 213.751336 
L 163.939736 214.5256 
L 164.032748 213.950431 
L 164.218771 216.08519 
L 164.497806 214.5256 
L 164.590817 214.724695 
L 165.055875 212.777974 
L 165.148887 213.364204 
L 165.33491 213.165106 
L 165.520933 215.111827 
L 165.613945 214.923793 
L 165.706957 213.950431 
L 165.89298 214.5256 
L 165.985992 214.337563 
L 166.079003 214.5256 
L 166.265026 215.498959 
L 166.45105 214.724695 
L 166.637073 214.923793 
L 166.823096 213.950431 
L 167.009119 214.5256 
L 167.195143 214.337563 
L 167.288154 214.337563 
L 167.381166 214.724695 
L 167.474178 214.337563 
L 167.567189 215.111827 
L 167.660201 214.138468 
L 167.753212 214.5256 
L 167.846224 213.751336 
L 167.939236 214.138468 
L 168.032247 213.950431 
L 168.311282 214.5256 
L 168.497305 213.751336 
L 168.590317 215.111827 
L 168.77634 214.138468 
L 168.962363 215.111827 
L 169.055375 214.923793 
L 169.148387 215.111827 
L 169.33441 213.950431 
L 169.427422 214.724695 
L 169.706456 213.950431 
L 169.799468 214.923793 
L 169.89248 213.950431 
L 170.078503 214.923793 
L 170.171515 214.923793 
L 170.264526 215.310925 
L 170.450549 214.724695 
L 170.543561 214.923793 
L 170.729584 215.886092 
L 170.822596 214.337563 
L 170.915608 215.310925 
L 171.008619 214.923793 
L 171.194642 215.498959 
L 171.380666 214.337563 
L 171.566689 215.498959 
L 171.6597 215.310925 
L 171.752712 214.138468 
L 171.845724 214.337563 
L 172.031747 215.886092 
L 172.124759 215.498959 
L 172.21777 215.111827 
L 172.403793 213.751336 
L 172.589817 215.310925 
L 172.77584 213.563298 
L 172.961863 214.5256 
L 173.054875 214.138468 
L 173.147886 215.111827 
L 173.240898 214.138468 
L 173.426921 214.724695 
L 173.519933 215.698057 
L 173.705956 214.724695 
L 173.798968 214.138468 
L 174.078003 216.08519 
L 174.264026 214.337563 
L 174.357037 214.5256 
L 174.450049 214.337563 
L 174.543061 214.5256 
L 174.729084 212.777974 
L 175.008119 214.923793 
L 175.287154 213.751336 
L 175.380165 214.5256 
L 175.473177 214.337563 
L 175.6592 213.364204 
L 176.031247 215.310925 
L 176.124258 214.724695 
L 176.21727 214.923793 
L 176.403293 214.337563 
L 176.496305 214.5256 
L 176.682328 215.111827 
L 176.868351 213.364204 
L 176.961363 213.563298 
L 177.054374 214.724695 
L 177.147386 213.751336 
L 177.240398 213.950431 
L 177.333409 213.751336 
L 177.426421 214.337563 
L 177.519433 213.165106 
L 177.798467 214.337563 
L 177.891479 214.138468 
L 177.984491 215.111827 
L 178.077502 213.950431 
L 178.356537 215.698057 
L 178.54256 214.724695 
L 178.635572 214.5256 
L 178.728584 215.111827 
L 179.007619 213.563298 
L 179.10063 214.138468 
L 179.193642 212.777974 
L 179.286653 213.563298 
L 179.472677 213.165106 
L 179.565688 213.364204 
L 179.6587 214.138468 
L 179.751711 213.950431 
L 179.844723 214.5256 
L 179.937735 213.563298 
L 180.123758 214.138468 
L 180.309781 213.165106 
L 180.402793 212.977072 
L 180.588816 214.337563 
L 180.681828 214.337563 
L 180.774839 213.563298 
L 180.867851 213.950431 
L 180.960863 215.310925 
L 181.053874 214.923793 
L 181.239897 212.390841 
L 181.425921 213.364204 
L 181.518932 213.563298 
L 181.611944 212.977072 
L 181.704956 213.751336 
L 181.797967 213.364204 
L 181.890979 214.337563 
L 182.077002 212.977072 
L 182.170014 214.337563 
L 182.356037 212.977072 
L 182.54206 213.563298 
L 182.635072 213.165106 
L 182.821095 214.724695 
L 182.914107 214.724695 
L 183.007118 215.310925 
L 183.10013 213.751336 
L 183.379165 214.5256 
L 183.751211 212.589939 
L 183.844223 212.777974 
L 183.937234 213.364204 
L 184.030246 212.977072 
L 184.309281 214.724695 
L 184.867351 212.390841 
L 185.146386 214.724695 
L 185.332409 214.337563 
L 185.42542 214.5256 
L 185.518432 215.111827 
L 185.611444 213.563298 
L 185.704455 213.751336 
L 185.797467 215.310925 
L 185.890478 214.923793 
L 185.98349 215.310925 
L 186.076502 214.337563 
L 186.262525 215.498959 
L 186.355537 215.886092 
L 186.54156 215.111827 
L 186.634571 215.111827 
L 186.727583 216.273224 
L 186.820595 216.08519 
L 186.913606 215.698057 
L 187.285653 216.472322 
L 187.378664 216.273224 
L 187.471676 215.111827 
L 187.657699 215.886092 
L 187.843723 215.498959 
L 188.029746 215.886092 
L 188.215769 214.5256 
L 188.308781 215.111827 
L 188.401792 214.138468 
L 188.587815 215.111827 
L 188.773839 213.950431 
L 188.86685 214.138468 
L 188.959862 213.950431 
L 189.238897 215.698057 
L 189.42492 214.337563 
L 189.517932 215.310925 
L 189.610943 215.111827 
L 189.796967 215.698057 
L 189.889978 214.724695 
L 189.98299 215.498959 
L 190.076001 215.310925 
L 190.262025 215.886092 
L 190.448048 216.472322 
L 190.634071 215.498959 
L 190.820094 216.08519 
L 190.913106 216.472322 
L 191.006118 217.445684 
L 191.099129 216.67142 
L 191.285152 217.246586 
L 191.378164 217.246586 
L 191.471176 217.445684 
L 191.564187 218.419043 
L 191.657199 217.445684 
L 191.750211 217.633718 
L 191.843222 216.859454 
L 192.122257 217.633718 
L 192.215269 218.806175 
L 192.401292 218.031911 
L 192.494304 218.806175 
L 192.587315 217.633718 
L 192.773338 219.381345 
L 192.86635 218.994213 
L 192.959362 218.994213 
L 193.145385 219.58044 
L 193.238397 219.381345 
L 193.42442 217.633718 
L 193.610443 219.967572 
L 193.703455 218.994213 
L 193.796466 219.779538 
L 193.889478 219.381345 
L 194.168513 220.741836 
L 194.261524 220.553802 
L 194.447548 218.994213 
L 194.540559 219.58044 
L 194.633571 219.193308 
L 194.819594 220.553802 
L 195.005617 220.354704 
L 195.098629 220.354704 
L 195.191641 220.16667 
L 195.377664 220.940934 
L 195.563687 220.354704 
L 195.656699 221.527161 
L 195.842722 220.354704 
L 196.028745 220.354704 
L 196.121757 220.741836 
L 196.214768 221.715199 
L 196.400792 220.741836 
L 196.679827 221.527161 
L 196.86585 220.553802 
L 196.958861 221.128969 
L 197.051873 220.741836 
L 197.237896 222.102331 
L 197.330908 221.914293 
L 197.423919 222.489463 
L 197.609943 220.741836 
L 197.795966 221.527161 
L 197.888978 221.328066 
L 197.981989 219.967572 
L 198.168012 221.527161 
L 198.261024 221.328066 
L 198.354036 219.967572 
L 198.633071 222.489463 
L 198.912105 220.741836 
L 199.005117 221.328066 
L 199.098129 220.940934 
L 199.284152 222.688558 
L 199.563187 220.553802 
L 199.74921 220.940934 
L 199.935233 222.102331 
L 200.028245 220.940934 
L 200.214268 221.328066 
L 200.30728 221.328066 
L 200.493303 221.715199 
L 200.586315 220.940934 
L 200.865349 221.715199 
L 200.958361 220.354704 
L 201.144384 222.102331 
L 201.237396 221.328066 
L 201.330408 221.527161 
L 201.423419 221.128969 
L 201.516431 220.16667 
L 201.888477 222.102331 
L 202.074501 220.940934 
L 202.260524 220.553802 
L 202.539559 221.914293 
L 202.63257 221.527161 
L 202.725582 221.914293 
L 202.818593 221.715199 
L 202.911605 221.128969 
L 203.004617 221.914293 
L 203.097628 221.715199 
L 203.283652 221.914293 
L 203.376663 220.940934 
L 203.469675 221.527161 
L 203.562686 221.328066 
L 203.74871 221.527161 
L 203.841721 221.527161 
L 204.027745 221.128969 
L 204.306779 222.489463 
L 204.399791 222.301425 
L 204.492803 222.301425 
L 204.585814 221.128969 
L 204.771838 222.688558 
L 204.864849 222.102331 
L 204.957861 222.489463 
L 205.050872 221.914293 
L 205.143884 222.887656 
L 205.329907 222.301425 
L 205.422919 222.887656 
L 205.51593 222.688558 
L 205.701954 223.274788 
L 205.794965 222.301425 
L 205.980989 222.887656 
L 206.167012 221.715199 
L 206.446047 223.66192 
L 206.63207 222.489463 
L 206.818093 223.462822 
L 207.004116 222.301425 
L 207.097128 221.914293 
L 207.283151 222.887656 
L 207.376163 222.102331 
L 207.655198 223.849956 
L 207.748209 223.07569 
L 207.934233 223.274788 
L 208.027244 223.274788 
L 208.213268 223.849956 
L 208.306279 222.887656 
L 208.492302 223.66192 
L 208.678326 224.049052 
L 208.864349 222.688558 
L 208.95736 223.66192 
L 209.143384 222.489463 
L 209.422419 223.66192 
L 209.51543 222.489463 
L 209.794465 224.635281 
L 209.980488 223.07569 
L 210.0735 223.274788 
L 210.259523 223.07569 
L 210.352535 223.66192 
L 210.538558 222.489463 
L 210.63157 221.914293 
L 210.910605 224.049052 
L 211.189639 222.301425 
L 211.282651 222.489463 
L 211.654697 218.806175 
L 212.119756 205.787473 
L 212.677825 185.004 
L 213.142883 179.373994 
L 213.421918 182.283018 
L 213.51493 181.895885 
L 213.700953 183.455471 
L 213.886976 184.428833 
L 214.073 185.391132 
L 214.259023 187.525891 
L 214.352034 187.337857 
L 214.445046 187.724989 
L 214.538058 187.525891 
L 214.724081 190.634013 
L 214.817093 190.24688 
L 215.003116 190.634013 
L 215.189139 191.9945 
L 215.282151 191.9945 
L 215.375162 193.554093 
L 215.468174 192.392696 
L 215.561186 193.742127 
L 215.654197 193.354995 
L 215.933232 195.887946 
L 216.026244 195.887946 
L 216.491302 197.823607 
L 216.677325 197.436475 
L 216.770337 197.635573 
L 216.95636 200.345499 
L 217.049371 199.958366 
L 217.142383 199.3832 
L 217.421418 200.931729 
L 217.51443 200.743691 
L 217.700453 201.705993 
L 217.886476 202.491318 
L 218.072499 203.265582 
L 218.258523 202.29222 
L 218.444546 205.400341 
L 218.537557 205.212304 
L 218.630569 204.238945 
L 218.723581 205.013209 
L 218.816592 204.814111 
L 218.909604 205.400341 
L 219.002616 205.013209 
L 219.095627 205.986568 
L 219.188639 205.599436 
L 219.374662 206.3737 
L 219.467674 207.347062 
L 219.653697 207.147965 
L 219.932732 207.734195 
L 220.025743 207.535097 
L 220.118755 208.707554 
L 220.304778 207.734195 
L 220.39779 208.121327 
L 220.490801 207.922229 
L 220.676825 208.707554 
L 220.769836 209.094686 
L 220.862848 208.707554 
L 220.95586 209.669856 
L 221.141883 208.895591 
L 221.327906 209.86895 
L 221.420918 210.45518 
L 221.513929 210.256083 
L 221.699953 211.229445 
L 221.792964 211.030347 
L 221.978987 211.616577 
L 222.071999 211.417479 
L 222.165011 210.842313 
L 222.258022 212.390841 
L 222.537057 210.842313 
L 222.72308 213.165106 
L 222.909104 212.589939 
L 223.002115 212.977072 
L 223.095127 211.815675 
L 223.188138 212.390841 
L 223.374162 211.815675 
L 224.118255 199.571234 
L 226.350534 124.014081 
L 226.815592 116.636449 
L 226.908603 116.636449 
L 227.28065 114.114564 
L 227.466673 110.619311 
L 227.559685 109.645941 
L 227.652696 110.619311 
L 227.83872 108.473495 
L 227.931731 108.473495 
L 228.303778 104.591102 
L 228.861847 96.439205 
L 229.419917 84.581893 
L 230.16401 66.906548 
L 230.629068 56.807926 
L 230.815091 52.925547 
L 231.187138 48.844064 
L 231.373161 45.735949 
L 231.466173 45.34881 
L 231.652196 44.18742 
L 231.745208 44.18742 
L 231.838219 42.826926 
L 232.024242 44.18742 
L 232.117254 43.60119 
L 232.210266 44.18742 
L 233.04737 57.394156 
L 235.837719 124.788346 
L 235.930731 125.573667 
L 236.302777 134.311794 
L 236.581812 139.941806 
L 237.418916 151.400923 
L 237.883975 159.751917 
L 239.279149 173.35685 
L 239.465172 174.319155 
L 239.558184 175.679643 
L 239.651195 175.292511 
L 239.837219 178.0135 
L 239.93023 177.814402 
L 240.023242 177.626367 
L 240.116253 179.573092 
L 240.209265 179.373994 
L 240.395288 180.148259 
L 240.4883 179.573092 
L 240.674323 181.121621 
L 240.860346 182.67015 
L 241.04637 181.508753 
L 241.139381 182.283018 
L 241.232393 182.094977 
L 241.325405 182.283018 
L 241.418416 181.895885 
L 241.511428 182.283018 
L 242.348532 178.787764 
L 243.092625 167.527746 
L 243.185637 166.753481 
L 245.603939 103.429712 
L 246.627067 79.92525 
L 247.185137 67.492778 
L 248.115253 49.043155 
L 248.301276 47.295535 
L 248.952357 41.466431 
L 249.231392 39.331672 
L 249.510427 41.079292 
L 249.603439 40.692167 
L 249.69645 39.132581 
L 249.789462 40.105937 
L 249.882474 39.906845 
L 250.440543 45.547915 
L 251.184636 54.485133 
L 251.37066 56.807926 
L 251.742706 63.22326 
L 252.021741 69.240398 
L 252.579811 77.5914 
L 252.951857 85.942388 
L 253.230892 90.023871 
L 253.509927 97.014379 
L 253.602939 97.987734 
L 253.974985 105.564471 
L 254.161008 109.059711 
L 254.719078 119.932597 
L 254.81209 119.744563 
L 255.091124 127.3213 
L 255.184136 127.89646 
L 255.742206 137.419922 
L 255.835217 137.607956 
L 256.300276 143.824192 
L 256.393287 143.636158 
L 256.57931 146.545181 
L 257.602438 156.643803 
L 257.788461 156.256671 
L 258.532554 158.977653 
L 258.625566 158.789619 
L 258.811589 158.004291 
L 258.997613 158.004291 
L 259.090624 158.590521 
L 259.276647 156.842894 
L 259.462671 157.429124 
L 259.741706 155.283308 
L 259.834717 155.095274 
L 259.927729 155.482406 
L 260.113752 153.734779 
L 260.206764 153.535682 
L 260.485798 150.239526 
L 260.57881 149.852394 
L 261.13688 142.861893 
L 261.415915 138.194186 
L 261.69495 134.698933 
L 261.973984 130.617449 
L 262.439043 124.213186 
L 262.904101 115.862184 
L 264.671321 91.384366 
L 264.857345 90.41101 
L 265.043368 86.141492 
L 266.066496 73.122791 
L 266.159507 74.682376 
L 266.345531 72.160492 
L 266.438542 72.348526 
L 266.624565 71.375157 
L 266.717577 72.348526 
L 266.9036 70.600893 
L 266.996612 70.600893 
L 267.089624 71.375157 
L 267.182635 70.213767 
L 267.275647 70.401801 
L 267.554682 72.547617 
L 267.647693 71.762296 
L 268.112751 75.655732 
L 268.205763 75.843766 
L 268.391786 78.951894 
L 268.484798 78.564755 
L 268.763833 80.898619 
L 268.949856 83.033364 
L 269.321902 86.528618 
L 269.414914 86.329527 
L 269.600937 89.636746 
L 269.693949 90.41101 
L 269.879972 93.131986 
L 270.065995 95.266745 
L 270.252019 96.439205 
L 270.34503 96.439205 
L 270.438042 97.21347 
L 270.810088 102.655448 
L 270.9031 103.230608 
L 271.368158 108.86062 
L 271.647193 111.968735 
L 271.926228 114.888829 
L 272.391286 120.330793 
L 272.484298 122.078427 
L 272.577309 121.680231 
L 273.042367 127.3213 
L 273.693449 132.177048 
L 273.879472 133.150404 
L 274.065495 135.086058 
L 274.34453 136.258519 
L 274.530553 137.807047 
L 274.716576 138.393278 
L 274.9026 140.140904 
L 274.995611 139.941806 
L 275.088623 140.528037 
L 275.181635 139.167542 
L 275.367658 140.528037 
L 275.460669 140.915169 
L 275.553681 142.076565 
L 275.646693 141.888531 
L 275.739704 141.302301 
L 275.832716 141.689433 
L 276.111751 141.302301 
L 276.297774 142.861893 
L 276.390786 142.275663 
L 276.483797 140.716071 
L 276.762832 142.275663 
L 276.855844 142.076565 
L 277.22789 140.328939 
L 277.413913 139.167542 
L 277.599937 137.032783 
L 277.78596 138.194186 
L 277.878972 138.393278 
L 278.34403 133.338438 
L 278.437041 133.725577 
L 278.623065 132.564174 
L 278.716076 132.365083 
L 278.902099 130.429415 
L 279.367158 126.14884 
L 279.553181 124.014081 
L 279.646192 123.626956 
L 279.832216 121.293092 
L 280.11125 119.158333 
L 280.66932 114.114564 
L 280.855343 113.329229 
L 281.041367 109.833976 
L 281.22739 109.44685 
L 281.320402 108.672586 
L 281.413413 109.059711 
L 281.78546 105.177332 
L 281.878471 104.790207 
L 282.064495 103.429712 
L 282.157506 103.042573 
L 282.250518 102.069218 
L 282.343529 102.257252 
L 282.529553 102.456343 
L 282.808587 98.961103 
L 282.901599 99.149138 
L 283.273646 96.62724 
L 283.55268 96.240114 
L 283.738704 94.492481 
L 283.831715 94.105355 
L 283.924727 94.293389 
L 284.017739 94.87962 
L 284.11075 94.492481 
L 284.203762 94.87962 
L 284.389785 93.331091 
L 284.66882 94.492481 
L 284.761832 94.105355 
L 284.947855 92.744861 
L 285.040866 92.943952 
L 285.319901 94.87962 
L 285.412913 94.87962 
L 285.598936 94.105355 
L 285.970983 97.401504 
L 286.063994 97.401504 
L 286.436041 98.374873 
L 286.622064 100.122493 
L 286.808087 101.482988 
L 286.99411 101.482988 
L 287.180134 104.790207 
L 287.273145 104.004872 
L 287.459169 106.924966 
L 287.55218 106.338736 
L 287.645192 105.564471 
L 287.831215 106.924966 
L 288.296273 111.393575 
L 288.389285 111.7807 
L 288.482296 113.141195 
L 288.575308 112.942104 
L 288.761331 115.076863 
L 288.854343 114.50169 
L 289.040366 115.475045 
L 289.226389 117.410713 
L 289.412413 117.996943 
L 289.598436 119.545472 
L 289.691447 119.744563 
L 289.970482 123.239817 
L 290.063494 124.213186 
L 290.249517 123.239817 
L 290.43554 124.213186 
L 290.621564 125.374576 
L 291.272645 129.843185 
L 291.55168 131.977944 
L 291.644691 132.177048 
L 291.830715 130.042289 
L 292.016738 131.391714 
L 292.10975 131.004588 
L 292.295773 131.590818 
L 292.481796 131.391714 
L 292.667819 132.564174 
L 292.760831 132.177048 
L 293.039866 131.789909 
L 293.132877 131.977944 
L 293.225889 131.391714 
L 293.411912 133.338438 
L 293.597936 131.391714 
L 293.690947 131.789909 
L 293.87697 131.590818 
L 293.969982 132.365083 
L 294.528052 130.230324 
L 294.621063 130.617449 
L 294.714075 130.230324 
L 294.807087 130.429415 
L 294.99311 129.644094 
L 295.179133 129.843185 
L 295.458168 127.89646 
L 295.55118 128.294656 
L 295.644191 128.095565 
L 295.737203 128.294656 
L 295.923226 126.73507 
L 296.016238 126.347931 
L 296.109249 126.535979 
L 296.295273 124.98745 
L 296.574307 122.653587 
L 296.853342 121.879322 
L 297.039365 119.932597 
L 297.132377 119.357438 
L 297.225389 119.744563 
L 297.504424 117.410713 
L 297.690447 115.475045 
L 297.783458 115.475045 
L 297.969482 113.528334 
L 298.155505 113.915459 
L 298.43454 111.968735 
L 298.527551 111.968735 
L 298.806586 108.86062 
L 298.899598 109.059711 
L 298.99261 109.059711 
L 299.085621 109.44685 
L 299.271644 107.898321 
L 299.364656 107.113 
L 299.457668 107.312091 
L 299.550679 107.898321 
L 299.643691 107.511183 
L 299.736703 108.086356 
L 299.922726 107.113 
L 300.015737 107.113 
L 300.294772 105.365367 
L 300.387784 104.978241 
L 300.573807 106.338736 
L 300.666819 104.790207 
L 300.852842 105.365367 
L 301.038865 105.365367 
L 301.410912 103.042573 
L 301.503923 104.203977 
L 301.782958 102.655448 
L 301.87597 103.230608 
L 301.968981 103.042573 
L 302.061993 103.230608 
L 302.248016 102.456343 
L 302.43404 103.816838 
L 302.527051 102.843482 
L 302.713074 103.429712 
L 302.899098 104.978241 
L 302.992109 104.790207 
L 303.085121 105.365367 
L 303.178132 104.591102 
L 303.550179 106.924966 
L 303.643191 106.150701 
L 303.829214 108.086356 
L 303.922225 108.285447 
L 304.015237 107.898321 
L 304.387284 109.833976 
L 304.480295 109.44685 
L 304.573307 109.645941 
L 304.852342 112.167839 
L 304.945353 112.366931 
L 305.038365 111.7807 
L 305.224388 112.942104 
L 305.3174 112.942104 
L 305.782458 115.275954 
L 306.340528 117.222679 
L 306.433539 116.249323 
L 306.526551 116.437357 
L 306.991609 119.158333 
L 307.084621 118.771208 
L 307.177632 120.131702 
L 307.363655 118.384069 
L 307.549679 119.545472 
L 307.64269 120.330793 
L 307.735702 119.932597 
L 308.014737 122.266461 
L 308.107748 123.040725 
L 308.20076 122.653587 
L 308.665818 124.213186 
L 308.851841 124.788346 
L 308.944853 124.600311 
L 309.037865 124.014081 
L 309.223888 125.761715 
L 309.316899 125.573667 
L 309.409911 126.347931 
L 309.502923 125.573667 
L 309.595934 126.934161 
L 309.688946 126.73507 
L 309.781958 126.347931 
L 309.874969 126.535979 
L 309.967981 125.761715 
L 310.060992 126.347931 
L 310.154004 126.14884 
L 310.340027 127.3213 
L 310.433039 126.14884 
L 310.526051 127.3213 
L 310.712074 125.573667 
L 310.805085 125.761715 
L 310.991109 124.788346 
L 311.08412 125.573667 
L 311.177132 124.213186 
L 311.363155 125.374576 
L 311.456167 124.40122 
L 311.549178 125.374576 
L 311.64219 124.40122 
L 311.735202 124.600311 
L 311.828213 124.40122 
L 312.107248 124.788346 
L 312.293271 123.040725 
L 312.479295 124.40122 
L 312.665318 123.239817 
L 312.758329 123.438921 
L 312.944353 122.852691 
L 313.037364 123.239817 
L 313.223388 121.293092 
L 313.316399 122.852691 
L 313.781457 120.717932 
L 313.874469 121.293092 
L 314.246515 118.384069 
L 314.339527 118.583173 
L 314.432539 117.609804 
L 314.618562 118.583173 
L 314.897597 117.023588 
L 314.990608 116.437357 
L 315.08362 116.636449 
L 315.362655 113.528334 
L 315.455666 113.528334 
L 315.548678 112.75407 
L 315.64169 113.141195 
L 315.734701 112.554965 
L 315.827713 112.75407 
L 315.920725 113.716368 
L 316.106748 111.393575 
L 316.199759 112.942104 
L 316.385783 111.393575 
L 316.478794 111.393575 
L 316.571806 111.19447 
L 316.664818 110.03308 
L 316.757829 111.006436 
L 316.943852 110.221115 
L 317.036864 109.833976 
L 317.129876 108.086356 
L 317.315899 109.258816 
L 317.40891 109.059711 
L 317.687945 109.645941 
L 317.780957 109.059711 
L 317.873969 109.833976 
L 318.153003 108.473495 
L 318.432038 110.03308 
L 318.618062 109.059711 
L 318.711073 109.44685 
L 318.804085 108.672586 
L 318.990108 109.258816 
L 319.08312 110.420206 
L 319.455166 108.86062 
L 319.548178 109.258816 
L 319.734201 108.672586 
L 319.827213 108.672586 
L 320.013236 108.86062 
L 320.199259 109.833976 
L 320.292271 109.059711 
L 320.571306 110.221115 
L 320.757329 109.645941 
L 320.943352 110.807345 
L 321.129375 110.03308 
L 321.315399 111.006436 
L 321.40841 110.807345 
L 321.501422 111.19447 
L 321.687445 112.554965 
L 321.96648 113.329229 
L 322.059492 114.888829 
L 322.245515 113.716368 
L 322.431538 114.888829 
L 322.52455 115.076863 
L 322.617561 114.689724 
L 322.710573 114.888829 
L 322.896596 116.636449 
L 322.989608 115.663093 
L 323.082619 117.222679 
L 323.175631 116.824483 
L 323.361654 117.410713 
L 323.547677 118.771208 
L 323.640689 118.583173 
L 323.733701 117.797852 
L 324.012736 118.583173 
L 324.105747 118.384069 
L 324.477794 119.545472 
L 324.570805 119.545472 
L 324.663817 119.932597 
L 324.84984 119.158333 
L 324.942852 119.932597 
L 325.035863 119.744563 
L 325.128875 120.717932 
L 325.314898 119.932597 
L 325.40791 119.744563 
L 325.500921 120.330793 
L 325.593933 120.131702 
L 325.779956 121.680231 
L 325.872968 120.905967 
L 326.058991 121.492197 
L 326.152003 121.105058 
L 326.338026 122.465552 
L 326.524049 121.879322 
L 326.710073 124.213186 
L 326.803084 123.626956 
L 326.989107 121.879322 
L 327.175131 122.078427 
L 327.268142 122.078427 
L 327.454166 124.213186 
L 327.7332 124.213186 
L 327.826212 123.438921 
L 327.919224 123.826047 
L 328.105247 122.078427 
L 328.384282 124.014081 
L 328.570305 122.465552 
L 328.756328 123.040725 
L 329.035363 120.330793 
L 329.128375 120.717932 
L 329.221386 120.330793 
L 329.314398 121.105058 
L 329.500421 119.545472 
L 329.686444 120.518828 
L 329.779456 120.518828 
L 329.872468 120.131702 
L 329.965479 119.158333 
L 330.151503 120.905967 
L 330.337526 120.131702 
L 330.523549 120.518828 
L 330.802584 118.970299 
L 330.895596 119.744563 
L 330.988607 118.970299 
L 331.081619 119.357438 
L 331.17463 118.184977 
L 331.267642 118.384069 
L 331.453665 117.609804 
L 331.546677 117.797852 
L 331.639688 118.384069 
L 331.825712 118.184977 
L 332.011735 116.437357 
L 332.104747 116.824483 
L 332.476793 115.862184 
L 332.569805 116.050218 
L 332.662816 114.888829 
L 332.755828 115.076863 
L 332.84884 114.114564 
L 333.034863 115.275954 
L 333.127874 115.275954 
L 333.220886 115.076863 
L 333.406909 113.716368 
L 333.499921 114.302598 
L 333.592933 114.114564 
L 333.685944 114.50169 
L 333.871967 113.528334 
L 334.057991 113.329229 
L 334.244014 111.19447 
L 334.430037 112.554965 
L 334.61606 111.581609 
L 334.802084 112.167839 
L 334.895095 112.942104 
L 334.988107 111.393575 
L 335.17413 112.366931 
L 335.267142 113.141195 
L 335.453165 112.554965 
L 335.546177 112.75407 
L 335.639188 112.554965 
L 335.7322 113.329229 
L 335.918223 112.167839 
L 336.011235 112.554965 
L 336.104246 113.528334 
L 336.29027 111.393575 
L 336.476293 113.528334 
L 336.569304 112.75407 
L 336.755328 113.528334 
L 337.127374 112.167839 
L 337.313397 112.554965 
L 337.406409 113.329229 
L 337.499421 112.942104 
L 337.592432 113.716368 
L 337.685444 113.141195 
L 337.778455 113.528334 
L 337.871467 112.554965 
L 338.150502 113.915459 
L 338.336525 112.554965 
L 338.522548 111.393575 
L 338.61556 111.393575 
L 338.894595 112.366931 
L 339.17363 114.689724 
L 339.266641 113.716368 
L 339.545676 115.275954 
L 339.638688 114.888829 
L 339.7317 115.076863 
L 339.824711 116.050218 
L 339.917723 115.862184 
L 340.103746 115.275954 
L 340.382781 117.996943 
L 340.475792 117.996943 
L 340.661816 116.249323 
L 340.754827 116.249323 
L 340.940851 117.410713 
L 341.033862 116.050218 
L 341.126874 117.410713 
L 341.219885 117.222679 
L 341.312897 117.410713 
L 341.405909 116.824483 
L 341.591932 118.384069 
L 341.777955 117.410713 
L 341.870967 117.609804 
L 342.05699 118.771208 
L 342.243013 118.583173 
L 342.336025 117.797852 
L 342.429037 118.184977 
L 342.522048 119.545472 
L 342.708071 118.583173 
L 342.801083 117.609804 
L 342.894095 117.797852 
L 342.987106 117.609804 
L 343.080118 118.583173 
L 343.173129 118.384069 
L 343.266141 119.357438 
L 343.452164 118.384069 
L 343.824211 119.158333 
L 343.917222 120.131702 
L 344.010234 119.158333 
L 344.196257 120.905967 
L 344.382281 118.970299 
L 344.568304 120.330793 
L 344.754327 121.105058 
L 344.847339 121.105058 
L 344.94035 120.905967 
L 345.033362 121.293092 
L 345.126374 120.518828 
L 345.219385 120.905967 
L 345.312397 120.131702 
L 345.405408 121.105058 
L 345.49842 120.905967 
L 345.591432 121.680231 
L 345.777455 120.717932 
L 345.963478 119.357438 
L 346.05649 119.357438 
L 346.149501 120.131702 
L 346.242513 118.771208 
L 346.335525 118.970299 
L 346.428536 119.744563 
L 346.614559 118.771208 
L 346.800583 119.357438 
L 346.893594 118.184977 
L 347.079618 118.771208 
L 347.358652 116.636449 
L 347.451664 117.023588 
L 347.637687 118.384069 
L 347.730699 117.410713 
L 347.823711 117.996943 
L 347.916722 117.797852 
L 348.009734 118.583173 
L 348.288769 116.824483 
L 348.38178 117.609804 
L 348.660815 117.222679 
L 348.753827 117.222679 
L 348.93985 116.437357 
L 349.125873 117.222679 
L 349.311896 116.636449 
L 349.404908 116.437357 
L 349.49792 117.023588 
L 349.590931 116.636449 
L 349.683943 117.222679 
L 349.869966 115.663093 
L 350.055989 116.824483 
L 350.335024 115.862184 
L 350.428036 115.862184 
L 350.707071 114.689724 
L 350.800082 115.275954 
L 350.893094 114.689724 
L 350.986106 115.275954 
L 351.079117 114.302598 
L 351.172129 114.50169 
L 351.26514 114.302598 
L 351.358152 113.716368 
L 351.451164 113.915459 
L 351.637187 113.329229 
L 351.82321 112.75407 
L 351.916222 112.942104 
L 352.102245 111.968735 
L 352.288268 113.141195 
L 352.38128 112.554965 
L 352.474292 112.942104 
L 352.567303 114.50169 
L 352.753326 112.366931 
L 352.846338 113.528334 
L 352.93935 113.329229 
L 353.125373 112.942104 
L 353.311396 113.528334 
L 353.404408 112.554965 
L 353.683443 115.275954 
L 353.962478 114.888829 
L 354.055489 113.915459 
L 354.148501 114.689724 
L 354.334524 113.716368 
L 354.520547 114.689724 
L 354.613559 114.689724 
L 354.70657 114.888829 
L 354.799582 114.114564 
L 354.892594 114.888829 
L 354.985605 114.50169 
L 355.078617 114.888829 
L 355.171629 115.862184 
L 355.357652 113.915459 
L 355.543675 115.663093 
L 355.636687 115.663093 
L 355.729698 115.076863 
L 355.82271 115.275954 
L 355.915722 114.50169 
L 356.008733 115.275954 
L 356.287768 113.329229 
L 356.566803 115.663093 
L 356.659815 115.275954 
L 356.752826 116.050218 
L 356.938849 114.50169 
L 357.031861 116.437357 
L 357.310896 115.076863 
L 357.403907 115.275954 
L 357.496919 116.636449 
L 357.589931 115.862184 
L 357.775954 116.824483 
L 358.054989 117.609804 
L 358.241012 118.184977 
L 358.427035 117.023588 
L 358.520047 117.023588 
L 358.70607 118.384069 
L 358.892093 118.771208 
L 358.985105 117.996943 
L 359.171128 118.970299 
L 359.26414 118.771208 
L 359.357152 118.970299 
L 359.450163 117.996943 
L 359.543175 118.583173 
L 359.729198 118.184977 
L 359.82221 117.996943 
L 360.008233 118.771208 
L 360.101244 117.996943 
L 360.287268 118.771208 
L 360.380279 118.771208 
L 360.473291 118.583173 
L 360.659314 117.023588 
L 360.752326 116.824483 
L 360.845337 117.797852 
L 360.938349 117.222679 
L 361.031361 118.970299 
L 361.124372 118.384069 
L 361.217384 115.862184 
L 361.496419 120.330793 
L 361.682442 117.797852 
L 362.054489 118.583173 
L 362.240512 117.023588 
L 362.426535 117.996943 
L 362.519547 117.797852 
L 362.612558 119.357438 
L 362.70557 119.158333 
L 362.891593 117.797852 
L 363.077616 119.357438 
L 363.26364 119.158333 
L 363.356651 119.158333 
L 363.449663 118.384069 
L 363.542674 119.545472 
L 363.635686 119.357438 
L 363.728698 119.158333 
L 363.821709 119.545472 
L 364.007733 117.023588 
L 364.193756 118.583173 
L 364.286767 118.184977 
L 364.472791 117.222679 
L 364.751826 117.609804 
L 364.937849 117.023588 
L 365.03086 115.862184 
L 365.123872 116.824483 
L 365.216884 116.050218 
L 365.402907 117.222679 
L 365.495918 116.437357 
L 365.681942 117.410713 
L 365.867965 115.663093 
L 365.960977 115.862184 
L 366.053988 115.663093 
L 366.240011 116.249323 
L 366.333023 115.862184 
L 366.426035 117.410713 
L 366.519046 116.249323 
L 366.612058 116.636449 
L 366.798081 115.862184 
L 366.891093 115.663093 
L 366.984104 116.050218 
L 367.077116 115.275954 
L 367.170128 116.437357 
L 367.263139 115.475045 
L 367.449163 116.824483 
L 367.542174 116.824483 
L 367.635186 117.023588 
L 367.728197 115.475045 
L 367.914221 116.050218 
L 368.007232 115.663093 
L 368.193256 116.636449 
L 368.286267 116.437357 
L 368.379279 116.636449 
L 368.565302 115.862184 
L 368.658314 116.050218 
L 368.937348 114.50169 
L 369.03036 115.663093 
L 369.216383 114.689724 
L 369.309395 114.689724 
L 369.402407 114.50169 
L 369.495418 114.689724 
L 369.58843 114.302598 
L 369.681441 114.689724 
L 369.867465 114.114564 
L 369.960476 113.716368 
L 370.053488 113.915459 
L 370.239511 115.862184 
L 370.332523 116.050218 
L 370.611558 113.716368 
L 370.797581 112.75407 
L 370.983604 114.50169 
L 371.169627 113.915459 
L 371.355651 115.275954 
L 371.541674 115.475045 
L 371.634685 116.824483 
L 371.91372 115.862184 
L 372.006732 116.636449 
L 372.099744 115.862184 
L 372.285767 116.050218 
L 372.378778 115.663093 
L 372.564802 116.636449 
L 372.657813 115.862184 
L 372.750825 116.050218 
L 372.843837 115.275954 
L 372.936848 115.663093 
L 373.02986 116.636449 
L 373.215883 115.475045 
L 373.308895 116.050218 
L 373.401906 115.663093 
L 373.58793 116.249323 
L 373.773953 115.862184 
L 373.866964 114.689724 
L 373.959976 114.888829 
L 374.052988 115.663093 
L 374.332022 115.275954 
L 374.611057 116.437357 
L 374.797081 116.249323 
L 374.890092 115.475045 
L 374.983104 116.824483 
L 375.076115 116.249323 
L 375.169127 116.824483 
L 375.262139 116.636449 
L 375.448162 117.410713 
L 375.541174 117.609804 
L 375.634185 117.410713 
L 375.820208 118.771208 
L 375.91322 118.384069 
L 376.006232 118.583173 
L 376.192255 118.184977 
L 376.285267 118.184977 
L 376.378278 119.158333 
L 376.47129 118.970299 
L 376.564301 118.583173 
L 376.657313 118.970299 
L 376.750325 118.384069 
L 376.843336 118.583173 
L 376.936348 118.184977 
L 377.029359 118.384069 
L 377.122371 118.970299 
L 377.308394 117.609804 
L 377.401406 118.583173 
L 377.494418 118.384069 
L 377.680441 117.222679 
L 377.866464 118.184977 
L 378.052487 117.609804 
L 378.331522 118.583173 
L 378.424534 117.996943 
L 378.517545 118.583173 
L 378.610557 118.184977 
L 378.79658 116.249323 
L 378.889592 116.824483 
L 378.982604 116.437357 
L 379.35465 117.797852 
L 379.447662 119.158333 
L 379.633685 116.636449 
L 379.91272 118.384069 
L 380.005731 117.996943 
L 380.191755 118.583173 
L 380.377778 118.184977 
L 380.470789 117.609804 
L 380.749824 118.583173 
L 380.842836 119.744563 
L 380.935848 118.970299 
L 381.121871 119.158333 
L 381.214882 118.184977 
L 381.400906 119.158333 
L 381.493917 119.158333 
L 381.679941 118.771208 
L 381.772952 118.771208 
L 381.958975 117.797852 
L 382.051987 118.184977 
L 382.331022 117.410713 
L 382.517045 117.996943 
L 382.79608 116.437357 
L 382.889092 116.636449 
L 382.982103 117.797852 
L 383.261138 115.862184 
L 383.35415 116.636449 
L 383.633185 115.076863 
L 383.912219 117.410713 
L 384.005231 116.824483 
L 384.098243 115.663093 
L 384.191254 116.050218 
L 384.284266 115.862184 
L 384.470289 116.824483 
L 384.656312 116.249323 
L 384.749324 115.862184 
L 384.842336 116.050218 
L 385.028359 116.824483 
L 385.214382 115.862184 
L 385.307394 116.050218 
L 385.493417 117.023588 
L 385.586429 117.023588 
L 385.865463 117.410713 
L 386.051487 116.437357 
L 386.144498 116.636449 
L 386.330522 116.437357 
L 386.516545 116.824483 
L 386.609556 115.862184 
L 386.702568 117.410713 
L 386.79558 116.636449 
L 386.888591 117.023588 
L 386.981603 115.475045 
L 387.074615 116.249323 
L 387.167626 116.050218 
L 387.353649 116.636449 
L 387.539673 115.275954 
L 387.632684 116.050218 
L 387.818708 115.475045 
L 387.911719 115.275954 
L 388.190754 116.249323 
L 388.283766 116.249323 
L 388.376777 117.797852 
L 388.469789 116.437357 
L 388.5628 116.824483 
L 388.655812 116.437357 
L 388.841835 116.636449 
L 388.841835 116.636449 
" style="fill:none;stroke:#1f77b4;stroke-linecap:round;stroke-width:1.5;"/>
   </g>
   <g id="line2d_14">
    <path clip-path="url(#pe184a304f1)" d="M 92.775537 -1 
L 92.878858 242.26639 
L 92.94255 289 
L 92.94255 289 
" style="fill:none;stroke:#ff7f0e;stroke-linecap:round;stroke-width:1.5;"/>
   </g>
   <g id="patch_3">
    <path d="M 54 252 
L 54 34.56 
" style="fill:none;stroke:#cccccc;stroke-linecap:square;stroke-linejoin:miter;stroke-width:0.8;"/>
   </g>
   <g id="patch_4">
    <path d="M 388.8 252 
L 388.8 34.56 
" style="fill:none;stroke:#cccccc;stroke-linecap:square;stroke-linejoin:miter;stroke-width:0.8;"/>
   </g>
   <g id="patch_5">
    <path d="M 54 252 
L 388.8 252 
" style="fill:none;stroke:#cccccc;stroke-linecap:square;stroke-linejoin:miter;stroke-width:0.8;"/>
   </g>
   <g id="patch_6">
    <path d="M 54 34.56 
L 388.8 34.56 
" style="fill:none;stroke:#cccccc;stroke-linecap:square;stroke-linejoin:miter;stroke-width:0.8;"/>
   </g>
  </g>
 </g>
 <defs>
  <clipPath id="pe184a304f1">
   <rect height="217.44" width="334.8" x="54" y="34.56"/>
  </clipPath>
 </defs>
</svg>
