<?xml version="1.0" encoding="utf-8" standalone="no"?>
<!DOCTYPE svg PUBLIC "-//W3C//DTD SVG 1.1//EN"
  "http://www.w3.org/Graphics/SVG/1.1/DTD/svg11.dtd">
<svg height="288pt" version="1.1" viewBox="0 0 432 288" width="432pt" xmlns="http://www.w3.org/2000/svg" xmlns:xlink="http://www.w3.org/1999/xlink">
 <metadata>
  <rdf:RDF xmlns:cc="http://creativecommons.org/ns#" xmlns:dc="http://purl.org/dc/elements/1.1/" xmlns:rdf="http://www.w3.org/1999/02/22-rdf-syntax-ns#">
   <cc:Work>
    <dc:type rdf:resource="http://purl.org/dc/dcmitype/StillImage"/>
    <dc:date>2022-05-26T23:48:04.465805</dc:date>
    <dc:format>image/svg+xml</dc:format>
    <dc:creator>
     <cc:Agent>
      <dc:title>Matplotlib v3.4.0, https://matplotlib.org/</dc:title>
     </cc:Agent>
    </dc:creator>
   </cc:Work>
  </rdf:RDF>
 </metadata>
 <defs>
  <style type="text/css">*{stroke-linecap:butt;stroke-linejoin:round;}</style>
 </defs>
 <g id="figure_1">
  <g id="patch_1">
   <path d="M 0 288 
L 432 288 
L 432 0 
L 0 0 
z
" style="fill:#ffffff;"/>
  </g>
  <g id="axes_1">
   <g id="patch_2">
    <path d="M 54 252 
L 388.8 252 
L 388.8 34.56 
L 54 34.56 
z
" style="fill:#ffffff;"/>
   </g>
   <g id="matplotlib.axis_1">
    <g id="xtick_1">
     <g id="line2d_1">
      <path clip-path="url(#p855facf394)" d="M 87.48 252 
L 87.48 34.56 
" style="fill:none;stroke:#cccccc;stroke-linecap:round;stroke-width:0.8;"/>
     </g>
     <g id="text_1">
      <!-- 0.00010 -->
      <g style="fill:#262626;" transform="translate(66.803438 266.598437)scale(0.1 -0.1)">
       <defs>
        <path d="M 2034 4250 
Q 1547 4250 1301 3770 
Q 1056 3291 1056 2328 
Q 1056 1369 1301 889 
Q 1547 409 2034 409 
Q 2525 409 2770 889 
Q 3016 1369 3016 2328 
Q 3016 3291 2770 3770 
Q 2525 4250 2034 4250 
z
M 2034 4750 
Q 2819 4750 3233 4129 
Q 3647 3509 3647 2328 
Q 3647 1150 3233 529 
Q 2819 -91 2034 -91 
Q 1250 -91 836 529 
Q 422 1150 422 2328 
Q 422 3509 836 4129 
Q 1250 4750 2034 4750 
z
" id="DejaVuSans-30" transform="scale(0.015625)"/>
        <path d="M 684 794 
L 1344 794 
L 1344 0 
L 684 0 
L 684 794 
z
" id="DejaVuSans-2e" transform="scale(0.015625)"/>
        <path d="M 794 531 
L 1825 531 
L 1825 4091 
L 703 3866 
L 703 4441 
L 1819 4666 
L 2450 4666 
L 2450 531 
L 3481 531 
L 3481 0 
L 794 0 
L 794 531 
z
" id="DejaVuSans-31" transform="scale(0.015625)"/>
       </defs>
       <use xlink:href="#DejaVuSans-30"/>
       <use x="63.623047" xlink:href="#DejaVuSans-2e"/>
       <use x="95.410156" xlink:href="#DejaVuSans-30"/>
       <use x="159.033203" xlink:href="#DejaVuSans-30"/>
       <use x="222.65625" xlink:href="#DejaVuSans-30"/>
       <use x="286.279297" xlink:href="#DejaVuSans-31"/>
       <use x="349.902344" xlink:href="#DejaVuSans-30"/>
      </g>
     </g>
    </g>
    <g id="xtick_2">
     <g id="line2d_2">
      <path clip-path="url(#p855facf394)" d="M 154.44 252 
L 154.44 34.56 
" style="fill:none;stroke:#cccccc;stroke-linecap:round;stroke-width:0.8;"/>
     </g>
     <g id="text_2">
      <!-- 0.00012 -->
      <g style="fill:#262626;" transform="translate(133.763438 266.598437)scale(0.1 -0.1)">
       <defs>
        <path d="M 1228 531 
L 3431 531 
L 3431 0 
L 469 0 
L 469 531 
Q 828 903 1448 1529 
Q 2069 2156 2228 2338 
Q 2531 2678 2651 2914 
Q 2772 3150 2772 3378 
Q 2772 3750 2511 3984 
Q 2250 4219 1831 4219 
Q 1534 4219 1204 4116 
Q 875 4013 500 3803 
L 500 4441 
Q 881 4594 1212 4672 
Q 1544 4750 1819 4750 
Q 2544 4750 2975 4387 
Q 3406 4025 3406 3419 
Q 3406 3131 3298 2873 
Q 3191 2616 2906 2266 
Q 2828 2175 2409 1742 
Q 1991 1309 1228 531 
z
" id="DejaVuSans-32" transform="scale(0.015625)"/>
       </defs>
       <use xlink:href="#DejaVuSans-30"/>
       <use x="63.623047" xlink:href="#DejaVuSans-2e"/>
       <use x="95.410156" xlink:href="#DejaVuSans-30"/>
       <use x="159.033203" xlink:href="#DejaVuSans-30"/>
       <use x="222.65625" xlink:href="#DejaVuSans-30"/>
       <use x="286.279297" xlink:href="#DejaVuSans-31"/>
       <use x="349.902344" xlink:href="#DejaVuSans-32"/>
      </g>
     </g>
    </g>
    <g id="xtick_3">
     <g id="line2d_3">
      <path clip-path="url(#p855facf394)" d="M 221.4 252 
L 221.4 34.56 
" style="fill:none;stroke:#cccccc;stroke-linecap:round;stroke-width:0.8;"/>
     </g>
     <g id="text_3">
      <!-- 0.00014 -->
      <g style="fill:#262626;" transform="translate(200.723438 266.598437)scale(0.1 -0.1)">
       <defs>
        <path d="M 2419 4116 
L 825 1625 
L 2419 1625 
L 2419 4116 
z
M 2253 4666 
L 3047 4666 
L 3047 1625 
L 3713 1625 
L 3713 1100 
L 3047 1100 
L 3047 0 
L 2419 0 
L 2419 1100 
L 313 1100 
L 313 1709 
L 2253 4666 
z
" id="DejaVuSans-34" transform="scale(0.015625)"/>
       </defs>
       <use xlink:href="#DejaVuSans-30"/>
       <use x="63.623047" xlink:href="#DejaVuSans-2e"/>
       <use x="95.410156" xlink:href="#DejaVuSans-30"/>
       <use x="159.033203" xlink:href="#DejaVuSans-30"/>
       <use x="222.65625" xlink:href="#DejaVuSans-30"/>
       <use x="286.279297" xlink:href="#DejaVuSans-31"/>
       <use x="349.902344" xlink:href="#DejaVuSans-34"/>
      </g>
     </g>
    </g>
    <g id="xtick_4">
     <g id="line2d_4">
      <path clip-path="url(#p855facf394)" d="M 288.36 252 
L 288.36 34.56 
" style="fill:none;stroke:#cccccc;stroke-linecap:round;stroke-width:0.8;"/>
     </g>
     <g id="text_4">
      <!-- 0.00016 -->
      <g style="fill:#262626;" transform="translate(267.683438 266.598437)scale(0.1 -0.1)">
       <defs>
        <path d="M 2113 2584 
Q 1688 2584 1439 2293 
Q 1191 2003 1191 1497 
Q 1191 994 1439 701 
Q 1688 409 2113 409 
Q 2538 409 2786 701 
Q 3034 994 3034 1497 
Q 3034 2003 2786 2293 
Q 2538 2584 2113 2584 
z
M 3366 4563 
L 3366 3988 
Q 3128 4100 2886 4159 
Q 2644 4219 2406 4219 
Q 1781 4219 1451 3797 
Q 1122 3375 1075 2522 
Q 1259 2794 1537 2939 
Q 1816 3084 2150 3084 
Q 2853 3084 3261 2657 
Q 3669 2231 3669 1497 
Q 3669 778 3244 343 
Q 2819 -91 2113 -91 
Q 1303 -91 875 529 
Q 447 1150 447 2328 
Q 447 3434 972 4092 
Q 1497 4750 2381 4750 
Q 2619 4750 2861 4703 
Q 3103 4656 3366 4563 
z
" id="DejaVuSans-36" transform="scale(0.015625)"/>
       </defs>
       <use xlink:href="#DejaVuSans-30"/>
       <use x="63.623047" xlink:href="#DejaVuSans-2e"/>
       <use x="95.410156" xlink:href="#DejaVuSans-30"/>
       <use x="159.033203" xlink:href="#DejaVuSans-30"/>
       <use x="222.65625" xlink:href="#DejaVuSans-30"/>
       <use x="286.279297" xlink:href="#DejaVuSans-31"/>
       <use x="349.902344" xlink:href="#DejaVuSans-36"/>
      </g>
     </g>
    </g>
    <g id="xtick_5">
     <g id="line2d_5">
      <path clip-path="url(#p855facf394)" d="M 355.32 252 
L 355.32 34.56 
" style="fill:none;stroke:#cccccc;stroke-linecap:round;stroke-width:0.8;"/>
     </g>
     <g id="text_5">
      <!-- 0.00018 -->
      <g style="fill:#262626;" transform="translate(334.643438 266.598437)scale(0.1 -0.1)">
       <defs>
        <path d="M 2034 2216 
Q 1584 2216 1326 1975 
Q 1069 1734 1069 1313 
Q 1069 891 1326 650 
Q 1584 409 2034 409 
Q 2484 409 2743 651 
Q 3003 894 3003 1313 
Q 3003 1734 2745 1975 
Q 2488 2216 2034 2216 
z
M 1403 2484 
Q 997 2584 770 2862 
Q 544 3141 544 3541 
Q 544 4100 942 4425 
Q 1341 4750 2034 4750 
Q 2731 4750 3128 4425 
Q 3525 4100 3525 3541 
Q 3525 3141 3298 2862 
Q 3072 2584 2669 2484 
Q 3125 2378 3379 2068 
Q 3634 1759 3634 1313 
Q 3634 634 3220 271 
Q 2806 -91 2034 -91 
Q 1263 -91 848 271 
Q 434 634 434 1313 
Q 434 1759 690 2068 
Q 947 2378 1403 2484 
z
M 1172 3481 
Q 1172 3119 1398 2916 
Q 1625 2713 2034 2713 
Q 2441 2713 2670 2916 
Q 2900 3119 2900 3481 
Q 2900 3844 2670 4047 
Q 2441 4250 2034 4250 
Q 1625 4250 1398 4047 
Q 1172 3844 1172 3481 
z
" id="DejaVuSans-38" transform="scale(0.015625)"/>
       </defs>
       <use xlink:href="#DejaVuSans-30"/>
       <use x="63.623047" xlink:href="#DejaVuSans-2e"/>
       <use x="95.410156" xlink:href="#DejaVuSans-30"/>
       <use x="159.033203" xlink:href="#DejaVuSans-30"/>
       <use x="222.65625" xlink:href="#DejaVuSans-30"/>
       <use x="286.279297" xlink:href="#DejaVuSans-31"/>
       <use x="349.902344" xlink:href="#DejaVuSans-38"/>
      </g>
     </g>
    </g>
   </g>
   <g id="matplotlib.axis_2">
    <g id="ytick_1">
     <g id="line2d_6">
      <path clip-path="url(#p855facf394)" d="M 54 252 
L 388.8 252 
" style="fill:none;stroke:#cccccc;stroke-linecap:round;stroke-width:0.8;"/>
     </g>
     <g id="text_6">
      <!-- 0.00 -->
      <g style="fill:#262626;" transform="translate(24.734375 255.799219)scale(0.1 -0.1)">
       <use xlink:href="#DejaVuSans-30"/>
       <use x="63.623047" xlink:href="#DejaVuSans-2e"/>
       <use x="95.410156" xlink:href="#DejaVuSans-30"/>
       <use x="159.033203" xlink:href="#DejaVuSans-30"/>
      </g>
     </g>
    </g>
    <g id="ytick_2">
     <g id="line2d_7">
      <path clip-path="url(#p855facf394)" d="M 54 208.512 
L 388.8 208.512 
" style="fill:none;stroke:#cccccc;stroke-linecap:round;stroke-width:0.8;"/>
     </g>
     <g id="text_7">
      <!-- 0.02 -->
      <g style="fill:#262626;" transform="translate(24.734375 212.311219)scale(0.1 -0.1)">
       <use xlink:href="#DejaVuSans-30"/>
       <use x="63.623047" xlink:href="#DejaVuSans-2e"/>
       <use x="95.410156" xlink:href="#DejaVuSans-30"/>
       <use x="159.033203" xlink:href="#DejaVuSans-32"/>
      </g>
     </g>
    </g>
    <g id="ytick_3">
     <g id="line2d_8">
      <path clip-path="url(#p855facf394)" d="M 54 165.024 
L 388.8 165.024 
" style="fill:none;stroke:#cccccc;stroke-linecap:round;stroke-width:0.8;"/>
     </g>
     <g id="text_8">
      <!-- 0.04 -->
      <g style="fill:#262626;" transform="translate(24.734375 168.823219)scale(0.1 -0.1)">
       <use xlink:href="#DejaVuSans-30"/>
       <use x="63.623047" xlink:href="#DejaVuSans-2e"/>
       <use x="95.410156" xlink:href="#DejaVuSans-30"/>
       <use x="159.033203" xlink:href="#DejaVuSans-34"/>
      </g>
     </g>
    </g>
    <g id="ytick_4">
     <g id="line2d_9">
      <path clip-path="url(#p855facf394)" d="M 54 121.536 
L 388.8 121.536 
" style="fill:none;stroke:#cccccc;stroke-linecap:round;stroke-width:0.8;"/>
     </g>
     <g id="text_9">
      <!-- 0.06 -->
      <g style="fill:#262626;" transform="translate(24.734375 125.335219)scale(0.1 -0.1)">
       <use xlink:href="#DejaVuSans-30"/>
       <use x="63.623047" xlink:href="#DejaVuSans-2e"/>
       <use x="95.410156" xlink:href="#DejaVuSans-30"/>
       <use x="159.033203" xlink:href="#DejaVuSans-36"/>
      </g>
     </g>
    </g>
    <g id="ytick_5">
     <g id="line2d_10">
      <path clip-path="url(#p855facf394)" d="M 54 78.048 
L 388.8 78.048 
" style="fill:none;stroke:#cccccc;stroke-linecap:round;stroke-width:0.8;"/>
     </g>
     <g id="text_10">
      <!-- 0.08 -->
      <g style="fill:#262626;" transform="translate(24.734375 81.847219)scale(0.1 -0.1)">
       <use xlink:href="#DejaVuSans-30"/>
       <use x="63.623047" xlink:href="#DejaVuSans-2e"/>
       <use x="95.410156" xlink:href="#DejaVuSans-30"/>
       <use x="159.033203" xlink:href="#DejaVuSans-38"/>
      </g>
     </g>
    </g>
    <g id="ytick_6">
     <g id="line2d_11">
      <path clip-path="url(#p855facf394)" d="M 54 34.56 
L 388.8 34.56 
" style="fill:none;stroke:#cccccc;stroke-linecap:round;stroke-width:0.8;"/>
     </g>
     <g id="text_11">
      <!-- 0.10 -->
      <g style="fill:#262626;" transform="translate(24.734375 38.359219)scale(0.1 -0.1)">
       <use xlink:href="#DejaVuSans-30"/>
       <use x="63.623047" xlink:href="#DejaVuSans-2e"/>
       <use x="95.410156" xlink:href="#DejaVuSans-31"/>
       <use x="159.033203" xlink:href="#DejaVuSans-30"/>
      </g>
     </g>
    </g>
   </g>
   <g id="line2d_12">
    <path clip-path="url(#p855facf394)" d="M 53.949138 234.320224 
L 54.011915 234.212714 
L 54.200244 234.563123 
L 54.263021 234.346771 
L 54.388574 234.913533 
L 54.576903 234.64409 
L 54.63968 234.589668 
L 54.765232 235.047591 
L 54.890785 234.804694 
L 54.953562 234.45561 
L 55.016338 234.508704 
L 55.204668 235.021045 
L 55.392997 234.45561 
L 55.455774 234.589668 
L 55.51855 234.482157 
L 55.581327 234.563123 
L 55.70688 234.346771 
L 56.020762 235.290489 
L 56.083538 235.021045 
L 56.271868 234.616214 
L 56.334644 235.155103 
L 56.397421 234.966624 
L 56.460197 235.263943 
L 56.522974 235.155103 
L 56.58575 234.482157 
L 56.648527 234.508704 
L 56.711303 234.589668 
L 56.899633 233.888849 
L 57.025186 234.482157 
L 57.150739 234.131747 
L 57.276291 234.589668 
L 57.401844 233.915395 
L 57.527397 234.050781 
L 57.715727 234.427737 
L 57.778503 234.346771 
L 57.84128 234.320224 
L 57.904056 234.427737 
L 57.966833 234.212714 
L 58.029609 234.293678 
L 58.155162 234.804694 
L 58.343492 233.915395 
L 58.469044 234.859113 
L 58.531821 234.45561 
L 58.594597 234.725054 
L 58.72015 234.482157 
L 58.782927 234.535248 
L 58.845703 234.293678 
L 58.971256 234.616214 
L 59.034033 234.482157 
L 59.096809 234.589668 
L 59.159586 234.64409 
L 59.285139 233.969815 
L 59.347915 234.050781 
L 59.536245 234.778147 
L 59.599021 234.427737 
L 59.661798 234.64409 
L 60.038456 234.239258 
L 60.101233 233.807882 
L 60.289562 234.697181 
L 60.477892 235.263943 
L 60.666221 234.401191 
L 60.854551 234.7516 
L 61.04288 234.212714 
L 61.293986 234.94008 
L 61.356762 234.670634 
L 61.419539 234.7516 
L 61.482315 235.505513 
L 61.545092 235.209523 
L 61.733421 234.804694 
L 61.858974 234.832567 
L 62.172857 234.535248 
L 62.298409 234.64409 
L 62.361186 234.482157 
L 62.549515 235.155103 
L 62.675068 234.589668 
L 62.737845 234.670634 
L 62.800621 235.102011 
L 62.863398 234.994499 
L 62.988951 234.563123 
L 63.051727 234.7516 
L 63.114504 234.589668 
L 63.240057 234.024235 
L 63.36561 234.427737 
L 63.491162 234.346771 
L 63.616715 234.697181 
L 63.679492 234.320224 
L 63.742268 234.535248 
L 63.993374 233.807882 
L 64.181704 234.994499 
L 64.24448 234.88566 
L 64.370033 234.64409 
L 64.495586 234.64409 
L 64.558363 234.616214 
L 64.621139 234.45561 
L 64.683916 234.616214 
L 64.746692 234.589668 
L 64.872245 234.589668 
L 64.997798 234.265805 
L 65.060574 234.346771 
L 65.186127 234.7516 
L 65.374457 234.293678 
L 65.625563 235.047591 
L 65.688339 234.563123 
L 65.751116 234.725054 
L 65.813892 234.994499 
L 66.002221 234.401191 
L 66.253327 234.7516 
L 66.441657 233.943268 
L 66.504433 234.131747 
L 66.629986 234.913533 
L 66.692763 234.725054 
L 66.755539 234.64409 
L 67.006645 235.344909 
L 67.069422 235.155103 
L 67.194975 234.778147 
L 67.257751 234.320224 
L 67.320527 234.427737 
L 67.383304 234.401191 
L 67.571633 235.021045 
L 67.63441 235.182976 
L 67.697186 235.128557 
L 67.948292 234.105201 
L 68.073845 234.7516 
L 68.136622 234.725054 
L 68.262175 234.105201 
L 68.324951 234.45561 
L 68.576057 234.670634 
L 68.764386 235.021045 
L 68.827163 234.966624 
L 68.889939 234.804694 
L 68.952716 235.047591 
L 69.015492 234.94008 
L 69.203822 234.913533 
L 69.329375 234.832567 
L 69.454928 235.317035 
L 69.517704 235.182976 
L 69.580481 235.425874 
L 69.643257 235.290489 
L 69.76881 234.427737 
L 69.894363 234.913533 
L 69.957139 234.832567 
L 70.019916 234.589668 
L 70.082692 234.670634 
L 70.145469 235.102011 
L 70.208245 234.94008 
L 70.333798 234.88566 
L 70.459351 235.317035 
L 70.522128 235.371454 
L 70.647681 234.670634 
L 70.710457 234.697181 
L 70.898787 234.482157 
L 70.961563 234.589668 
L 71.024339 234.966624 
L 71.087116 234.88566 
L 71.149892 234.804694 
L 71.275445 234.293678 
L 71.526551 234.94008 
L 71.714881 234.482157 
L 71.840434 234.697181 
L 71.90321 234.697181 
L 72.028763 234.212714 
L 72.217093 234.725054 
L 72.342645 234.589668 
L 72.468198 235.021045 
L 72.530975 234.994499 
L 72.656528 235.23607 
L 72.782081 234.859113 
L 72.907634 235.209523 
L 72.97041 235.075464 
L 73.033187 235.155103 
L 73.221516 234.616214 
L 73.284293 234.535248 
L 73.472622 234.077328 
L 73.535398 234.105201 
L 73.660951 234.508704 
L 73.786504 234.346771 
L 73.849281 234.778147 
L 73.912057 234.7516 
L 73.974834 234.697181 
L 74.03761 234.832567 
L 74.100387 234.725054 
L 74.163163 234.697181 
L 74.22594 234.966624 
L 74.288716 234.7516 
L 74.414269 234.374644 
L 74.790928 234.105201 
L 75.10481 235.182976 
L 75.167587 234.94008 
L 75.230363 234.88566 
L 75.29314 234.670634 
L 75.418693 235.075464 
L 75.481469 234.994499 
L 75.669799 234.482157 
L 75.732575 234.563123 
L 75.795352 234.697181 
L 76.109234 234.050781 
L 76.234787 234.346771 
L 76.297563 234.131747 
L 76.36034 234.293678 
L 76.423116 234.346771 
L 76.485893 234.024235 
L 76.548669 234.105201 
L 76.611446 234.105201 
L 76.736999 234.670634 
L 76.799775 234.535248 
L 76.925328 234.105201 
L 76.988105 234.239258 
L 77.050881 234.670634 
L 77.239211 233.996361 
L 77.364763 234.265805 
L 77.42754 234.024235 
L 77.490316 234.077328 
L 77.553093 234.589668 
L 77.615869 234.427737 
L 77.741422 233.834429 
L 77.929752 234.94008 
L 77.992528 234.832567 
L 78.118081 234.024235 
L 78.180858 234.184839 
L 78.306411 234.859113 
L 78.369187 234.859113 
L 78.620293 233.888849 
L 78.745846 234.535248 
L 78.808622 234.427737 
L 78.871399 233.862302 
L 78.934175 234.131747 
L 78.996952 234.832567 
L 79.059728 234.725054 
L 79.185281 233.943268 
L 79.310834 233.888849 
L 79.436387 234.427737 
L 79.499164 234.265805 
L 79.687493 234.589668 
L 79.938599 234.239258 
L 80.001375 234.374644 
L 80.064152 234.482157 
L 80.252481 233.943268 
L 80.503587 234.778147 
L 80.566364 234.725054 
L 80.62914 234.535248 
L 80.691917 234.589668 
L 80.81747 234.563123 
L 80.880246 234.265805 
L 80.943023 234.401191 
L 81.068575 234.077328 
L 81.256905 235.047591 
L 81.319681 235.021045 
L 81.382458 234.45561 
L 81.445234 234.670634 
L 81.570787 234.88566 
L 81.633564 234.725054 
L 81.759117 235.425874 
L 81.88467 234.563123 
L 81.947446 234.64409 
L 82.072999 234.913533 
L 82.198552 234.535248 
L 82.261329 234.64409 
L 82.386881 234.64409 
L 82.449658 234.616214 
L 82.512434 234.320224 
L 82.637987 234.725054 
L 82.700764 234.670634 
L 82.76354 234.482157 
L 82.826317 234.64409 
L 82.889093 234.482157 
L 82.95187 234.563123 
L 83.077423 234.374644 
L 83.265752 235.559933 
L 83.391305 234.7516 
L 83.454082 234.804694 
L 83.516858 234.859113 
L 83.579635 235.102011 
L 83.642411 235.021045 
L 83.705187 235.128557 
L 83.893517 234.697181 
L 83.956293 234.804694 
L 84.081846 234.184839 
L 84.144623 234.401191 
L 84.395729 235.128557 
L 84.521282 234.859113 
L 84.584058 235.182976 
L 84.646835 234.94008 
L 84.709611 235.128557 
L 84.772388 234.994499 
L 84.89794 234.966624 
L 85.023493 235.047591 
L 85.211823 234.293678 
L 85.274599 234.482157 
L 85.337376 234.45561 
L 85.525705 234.050781 
L 85.588482 234.427737 
L 85.651258 234.320224 
L 85.714035 234.374644 
L 85.776811 234.265805 
L 85.839588 234.374644 
L 85.902364 234.535248 
L 85.965141 234.482157 
L 86.027917 234.45561 
L 86.090694 234.589668 
L 86.216246 234.374644 
L 86.341799 234.64409 
L 86.467352 234.482157 
L 86.592905 234.589668 
L 86.718458 234.64409 
L 86.844011 233.969815 
L 86.906788 233.996361 
L 87.032341 234.725054 
L 87.095117 234.697181 
L 87.157894 234.320224 
L 87.22067 234.346771 
L 87.346223 234.7516 
L 87.408999 234.427737 
L 87.471776 234.508704 
L 87.597329 234.859113 
L 87.660105 234.64409 
L 87.785658 235.182976 
L 87.973988 234.320224 
L 88.036764 234.293678 
L 88.099541 235.748411 
L 88.162317 234.966624 
L 88.225094 233.242449 
L 88.413423 236.692129 
L 88.4762 236.611162 
L 88.601753 234.616214 
L 88.727305 235.721865 
L 88.790082 235.398001 
L 88.852858 235.559933 
L 88.915635 234.158292 
L 88.978411 234.670634 
L 89.103964 234.616214 
L 89.292294 233.080516 
L 89.480623 233.969815 
L 89.5434 233.619405 
L 89.606176 233.726916 
L 89.731729 234.320224 
L 89.920058 235.80283 
L 90.108388 234.670634 
L 90.233941 234.966624 
L 90.296717 234.832567 
L 90.359494 234.697181 
L 90.547823 234.966624 
L 90.798929 234.184839 
L 90.924482 234.589668 
L 90.987259 234.563123 
L 91.175588 233.996361 
L 91.363917 233.969815 
L 91.48947 233.888849 
L 91.552247 233.969815 
L 91.740576 234.804694 
L 91.803353 234.346771 
L 91.866129 234.427737 
L 91.928906 235.155103 
L 91.991682 235.075464 
L 92.054459 234.88566 
L 92.117235 235.182976 
L 92.180012 235.075464 
L 92.305565 234.320224 
L 92.368341 234.427737 
L 92.431117 234.45561 
L 92.493894 234.184839 
L 92.55667 234.265805 
L 92.682223 234.563123 
L 92.870553 233.834429 
L 92.933329 233.807882 
L 93.058882 234.024235 
L 93.184435 235.128557 
L 93.247212 235.102011 
L 93.498318 234.212714 
L 93.561094 234.482157 
L 93.623871 234.535248 
L 93.686647 234.158292 
L 93.749423 234.293678 
L 93.874976 234.239258 
L 94.063306 234.535248 
L 94.126082 234.374644 
L 94.251635 234.7516 
L 94.691071 233.457473 
L 94.816624 233.943268 
L 94.8794 233.969815 
L 94.942176 233.645952 
L 95.004953 234.239258 
L 95.067729 234.077328 
L 95.381612 234.482157 
L 95.507165 233.996361 
L 95.569941 234.158292 
L 95.632718 234.45561 
L 95.695494 234.401191 
L 95.758271 234.45561 
L 96.009377 233.862302 
L 96.260482 234.670634 
L 96.323259 234.563123 
L 96.448812 234.131747 
L 96.511588 234.346771 
L 96.574365 234.077328 
L 96.637141 234.158292 
L 96.699918 234.131747 
L 96.762694 234.265805 
L 96.825471 234.184839 
L 96.888247 233.700371 
L 96.951024 233.888849 
L 97.20213 234.859113 
L 97.327683 234.804694 
L 97.390459 235.047591 
L 97.641565 233.834429 
L 97.767118 234.374644 
L 97.829894 234.346771 
L 97.892671 234.346771 
L 97.955447 233.943268 
L 98.018224 233.996361 
L 98.26933 234.563123 
L 98.394883 234.239258 
L 98.645989 234.589668 
L 98.708765 234.374644 
L 98.771541 234.401191 
L 98.834318 234.508704 
L 99.022647 234.184839 
L 99.1482 234.670634 
L 99.33653 234.320224 
L 99.399306 234.077328 
L 99.524859 234.94008 
L 99.650412 234.427737 
L 99.775965 234.616214 
L 99.838742 234.45561 
L 99.964294 235.075464 
L 100.027071 234.832567 
L 100.152624 234.7516 
L 100.2154 234.778147 
L 100.340953 235.021045 
L 100.40373 234.966624 
L 100.466506 234.7516 
L 100.654836 235.533387 
L 100.780389 234.589668 
L 100.843165 234.778147 
L 100.905942 234.725054 
L 101.157048 233.834429 
L 101.345377 234.239258 
L 101.659259 235.128557 
L 101.784812 234.859113 
L 101.847589 235.128557 
L 101.910365 234.913533 
L 101.973142 234.859113 
L 102.035918 235.021045 
L 102.098695 234.913533 
L 102.287024 234.563123 
L 102.412577 234.158292 
L 102.600906 234.94008 
L 102.789236 234.184839 
L 102.914789 234.7516 
L 102.977565 234.401191 
L 103.040342 234.563123 
L 103.103118 234.563123 
L 103.291448 234.158292 
L 103.60533 234.64409 
L 103.730883 234.239258 
L 103.793659 234.239258 
L 103.856436 234.45561 
L 103.919212 234.158292 
L 104.044765 234.670634 
L 104.107542 234.64409 
L 104.170318 234.535248 
L 104.233095 234.131747 
L 104.295871 234.508704 
L 104.358648 234.482157 
L 104.484201 234.535248 
L 104.735307 235.317035 
L 104.923636 234.401191 
L 104.986412 234.427737 
L 105.111965 234.913533 
L 105.237518 234.508704 
L 105.425848 234.374644 
L 105.614177 234.859113 
L 105.676954 234.832567 
L 105.865283 234.077328 
L 106.053613 234.158292 
L 106.179166 234.535248 
L 106.241942 234.346771 
L 106.304718 233.943268 
L 106.430271 234.616214 
L 106.493048 234.293678 
L 106.555824 234.427737 
L 106.618601 234.589668 
L 106.681377 234.482157 
L 106.869707 234.050781 
L 107.058036 234.589668 
L 107.120813 234.265805 
L 107.183589 234.804694 
L 107.246366 234.725054 
L 107.434695 234.859113 
L 107.497471 234.508704 
L 107.560248 234.616214 
L 107.685801 234.966624 
L 107.748577 235.021045 
L 107.811354 234.913533 
L 107.936907 235.23607 
L 108.125236 234.401191 
L 108.188013 234.482157 
L 108.376342 234.832567 
L 108.564672 234.778147 
L 108.753001 234.535248 
L 108.815777 234.45561 
L 108.94133 234.778147 
L 109.12966 234.482157 
L 109.255213 234.913533 
L 109.317989 234.535248 
L 109.380766 234.563123 
L 109.443542 235.102011 
L 109.506319 234.859113 
L 109.569095 234.482157 
L 109.631872 234.508704 
L 109.757425 234.64409 
L 109.820201 234.563123 
L 109.945754 235.209523 
L 110.134083 234.077328 
L 110.19686 234.670634 
L 110.259636 234.589668 
L 110.322413 234.320224 
L 110.573519 235.290489 
L 110.824625 234.293678 
L 110.887401 234.45561 
L 110.950178 234.320224 
L 111.138507 234.024235 
L 111.326836 234.697181 
L 111.389613 234.64409 
L 111.577942 234.184839 
L 111.640719 233.969815 
L 111.891825 234.913533 
L 111.954601 234.725054 
L 112.142931 233.781338 
L 112.268484 234.670634 
L 112.33126 234.616214 
L 112.394037 234.7516 
L 112.519589 234.45561 
L 112.582366 234.966624 
L 112.645142 234.697181 
L 112.770695 234.966624 
L 112.833472 234.725054 
L 113.021801 235.128557 
L 113.084578 234.535248 
L 113.147354 234.670634 
L 113.335684 235.344909 
L 113.39846 234.966624 
L 113.461237 235.021045 
L 113.524013 234.94008 
L 113.649566 235.317035 
L 113.775119 234.563123 
L 113.837895 234.670634 
L 113.900672 235.263943 
L 113.963448 235.182976 
L 114.026225 235.021045 
L 114.089001 235.047591 
L 114.151778 235.047591 
L 114.214554 235.371454 
L 114.277331 234.994499 
L 114.340107 235.047591 
L 114.46566 235.021045 
L 114.591213 235.559933 
L 114.842319 235.182976 
L 115.030648 235.102011 
L 115.218978 235.721865 
L 115.344531 235.209523 
L 115.470084 235.425874 
L 115.783966 234.670634 
L 115.846743 234.725054 
L 116.097849 234.94008 
L 116.160625 235.398001 
L 116.286178 234.725054 
L 116.348954 234.778147 
L 116.662837 235.667445 
L 116.725613 235.209523 
L 116.78839 235.317035 
L 116.851166 235.452421 
L 117.039496 235.23607 
L 117.227825 235.695318 
L 117.290602 235.695318 
L 117.353378 235.883797 
L 117.478931 235.559933 
L 117.541707 235.640899 
L 117.604484 235.371454 
L 117.730037 235.991308 
L 117.792813 235.478967 
L 117.85559 235.505513 
L 117.918366 235.505513 
L 117.981143 235.991308 
L 118.043919 235.936889 
L 118.232249 235.23607 
L 118.295025 235.344909 
L 118.483355 235.748411 
L 118.546131 236.098821 
L 118.608908 236.017855 
L 118.797237 234.966624 
L 118.860013 235.344909 
L 118.92279 235.317035 
L 119.111119 235.23607 
L 119.173896 235.425874 
L 119.236672 235.398001 
L 119.425002 234.859113 
L 119.676108 236.234206 
L 119.801661 235.910343 
L 119.98999 235.075464 
L 120.178319 235.80283 
L 120.241096 236.072275 
L 120.429425 235.478967 
L 120.554978 236.341719 
L 120.617755 236.234206 
L 121.119967 235.478967 
L 121.182743 235.533387 
L 121.24552 235.721865 
L 121.433849 235.425874 
L 121.496625 235.559933 
L 121.559402 235.128557 
L 121.622178 235.398001 
L 121.747731 235.855924 
L 121.873284 235.505513 
L 121.936061 235.586479 
L 121.998837 235.855924 
L 122.061614 235.667445 
L 122.12439 235.883797 
L 122.187167 235.774957 
L 122.563825 235.371454 
L 122.814931 236.045728 
L 123.066037 235.614352 
L 123.128814 236.045728 
L 123.19159 235.883797 
L 123.254367 235.883797 
L 123.317143 236.260753 
L 123.37992 236.017855 
L 123.505473 235.533387 
L 123.819355 236.422684 
L 123.882131 236.287299 
L 124.070461 235.80283 
L 124.133237 236.287299 
L 124.196014 236.098821 
L 124.25879 236.017855 
L 124.384343 236.422684 
L 124.572673 235.533387 
L 124.635449 236.072275 
L 124.698226 235.829377 
L 124.823779 235.667445 
L 124.886555 236.206333 
L 124.949332 235.883797 
L 125.012108 235.829377 
L 125.074885 235.964763 
L 125.137661 235.505513 
L 125.200437 235.80283 
L 125.388767 236.125367 
L 125.451543 236.017855 
L 125.51432 236.072275 
L 125.577096 235.559933 
L 125.639873 235.614352 
L 125.765426 236.396139 
L 125.828202 236.179787 
L 125.890979 236.017855 
L 126.016532 236.368265 
L 126.079308 236.315172 
L 126.330414 236.045728 
L 126.39319 236.315172 
L 126.644296 235.317035 
L 126.707073 235.586479 
L 126.769849 235.398001 
L 126.958179 235.640899 
L 127.083732 235.559933 
L 127.209285 236.206333 
L 127.774273 234.778147 
L 127.837049 235.23607 
L 127.962602 234.64409 
L 128.025379 234.670634 
L 128.150932 234.401191 
L 128.276485 234.88566 
L 128.527591 234.184839 
L 128.590367 234.265805 
L 128.653144 234.184839 
L 128.778697 234.482157 
L 128.841473 234.7516 
L 128.904249 234.616214 
L 128.967026 234.563123 
L 129.092579 234.239258 
L 129.155355 234.725054 
L 129.218132 234.563123 
L 129.469238 235.128557 
L 129.594791 234.320224 
L 129.720344 233.888849 
L 129.845897 234.374644 
L 129.908673 234.131747 
L 129.97145 234.158292 
L 130.097003 234.077328 
L 130.159779 234.45561 
L 130.222555 234.239258 
L 130.285332 233.834429 
L 130.348108 234.050781 
L 130.536438 234.804694 
L 130.85032 234.077328 
L 130.913097 234.158292 
L 131.03865 234.563123 
L 131.226979 234.239258 
L 131.352532 234.239258 
L 131.415308 234.778147 
L 131.478085 234.64409 
L 131.540861 234.64409 
L 131.603638 234.482157 
L 131.666414 234.832567 
L 131.854744 234.077328 
L 131.980297 234.346771 
L 132.10585 234.077328 
L 132.294179 234.832567 
L 132.419732 234.265805 
L 132.482509 234.804694 
L 132.545285 234.64409 
L 132.608062 234.265805 
L 132.796391 234.832567 
L 133.110273 234.184839 
L 133.235826 234.832567 
L 133.298603 234.265805 
L 133.361379 234.293678 
L 133.486932 234.589668 
L 133.612485 234.374644 
L 133.675262 234.670634 
L 133.738038 234.508704 
L 133.989144 233.915395 
L 134.05192 234.131747 
L 134.114697 234.105201 
L 134.177473 234.105201 
L 134.24025 233.943268 
L 134.554132 234.88566 
L 134.742462 234.184839 
L 134.930791 234.158292 
L 134.993568 234.050781 
L 135.181897 234.320224 
L 135.433003 234.725054 
L 135.621332 234.184839 
L 135.935215 233.349962 
L 136.060768 233.673825 
L 136.186321 232.945131 
L 136.311874 233.242449 
L 136.437426 232.756653 
L 136.562979 233.404382 
L 137.002415 232.136798 
L 137.065191 232.406244 
L 137.253521 231.463852 
L 137.44185 231.814262 
L 137.504627 231.516945 
L 137.567403 231.571365 
L 137.63018 232.029288 
L 137.692956 232.002741 
L 137.881285 231.08557 
L 137.944062 231.113443 
L 138.132391 231.759842 
L 138.383497 230.763033 
L 138.446274 231.463852 
L 138.50905 231.194409 
L 138.69738 230.95151 
L 138.822933 231.355013 
L 138.885709 231.301922 
L 138.948485 231.544818 
L 139.011262 231.355013 
L 139.074038 231.220955 
L 139.199591 231.597912 
L 139.262368 230.73516 
L 139.325144 230.816126 
L 139.387921 230.95151 
L 139.450697 230.843999 
L 139.701803 229.819315 
L 139.76458 230.034339 
L 139.952909 230.224144 
L 140.015686 230.143178 
L 140.078462 230.546681 
L 140.204015 229.523325 
L 140.266791 229.549871 
L 140.329568 229.549871 
L 140.392344 229.711802 
L 140.706227 228.903472 
L 140.769003 229.280426 
L 140.83178 228.606153 
L 140.894556 228.741539 
L 141.020109 229.037529 
L 141.082886 228.768086 
L 141.145662 228.875597 
L 141.333992 229.199462 
L 141.459544 229.064076 
L 141.522321 229.442359 
L 141.585097 229.387939 
L 141.647874 229.226006 
L 141.773427 229.711802 
L 141.836203 229.711802 
L 142.024533 229.172915 
L 142.087309 229.253882 
L 142.275639 229.873735 
L 142.401192 229.253882 
L 142.463968 229.361392 
L 142.652298 229.576418 
L 142.715074 229.495452 
L 142.96618 230.277237 
L 143.154509 229.630838 
L 143.217286 229.900281 
L 143.342839 230.923637 
L 143.405615 230.682067 
L 143.468392 230.78958 
L 143.531168 230.73516 
L 143.656721 231.355013 
L 143.845051 230.95151 
L 144.03338 231.274047 
L 144.096156 230.95151 
L 144.410039 231.814262 
L 144.535592 231.597912 
L 144.723921 232.353151 
L 144.786698 232.191218 
L 144.849474 232.325278 
L 144.975027 231.921775 
L 145.163357 232.892039 
L 145.288909 232.272184 
L 145.414462 232.460663 
L 145.477239 232.406244 
L 145.602792 232.594721 
L 145.665568 232.568174 
L 145.728345 232.70356 
L 145.791121 232.54163 
L 145.853898 233.268996 
L 145.916674 233.188029 
L 146.042227 232.70356 
L 146.16778 233.349962 
L 146.230557 233.214576 
L 146.35611 232.784526 
L 146.418886 232.811073 
L 146.481662 232.83762 
L 146.607215 233.376506 
L 146.669992 233.107063 
L 146.732768 233.134936 
L 146.795545 233.134936 
L 146.858321 232.892039 
L 146.921098 233.05397 
L 147.046651 232.864164 
L 147.172204 232.918586 
L 147.23498 232.864164 
L 147.297757 233.107063 
L 147.360533 232.83762 
L 147.42331 232.918586 
L 147.611639 232.945131 
L 147.674416 232.649141 
L 147.737192 232.83762 
L 147.799968 232.784526 
L 147.862745 233.05397 
L 147.988298 232.434117 
L 148.113851 233.242449 
L 148.30218 232.622594 
L 148.364957 232.568174 
L 148.553286 232.002741 
L 148.678839 232.515083 
L 148.741616 232.460663 
L 148.992721 231.516945 
L 149.118274 231.652331 
L 149.181051 231.705423 
L 149.243827 231.328466 
L 149.306604 231.571365 
L 149.432157 231.059023 
L 149.494933 231.139989 
L 149.55771 231.301922 
L 149.683263 230.843999 
L 149.746039 230.89709 
L 149.871592 230.573227 
L 149.934369 230.73516 
L 150.059922 229.981247 
L 150.248251 230.708613 
L 150.311027 230.43917 
L 150.43658 229.819315 
L 150.562133 230.250691 
L 150.687686 229.387939 
L 150.876016 230.143178 
L 151.001569 229.602963 
L 151.064345 229.792768 
L 151.315451 229.037529 
L 151.441004 229.361392 
L 151.566557 228.713666 
L 151.629333 228.956563 
L 151.69211 228.930016 
L 151.754886 228.525187 
L 151.817663 228.579607 
L 152.131545 228.875597 
L 152.257098 227.716855 
L 152.319875 228.121684 
L 152.382651 227.986298 
L 152.508204 228.229197 
L 152.570981 228.093811 
L 152.822086 228.660573 
L 152.947639 229.091949 
L 153.010416 228.768086 
L 153.073192 228.98311 
L 153.135969 229.037529 
L 153.261522 228.768086 
L 153.387075 228.794631 
L 153.512628 228.713666 
L 153.638181 228.39113 
L 153.700957 228.472096 
L 153.82651 228.660573 
L 154.014839 228.498641 
L 154.391498 229.442359 
L 154.517051 229.064076 
L 154.579828 229.091949 
L 154.642604 228.903472 
L 154.89371 229.845861 
L 155.019263 229.549871 
L 155.144816 230.43917 
L 155.333145 229.387939 
L 155.395922 229.792768 
L 155.584251 230.49359 
L 155.772581 230.143178 
L 155.898134 230.412623 
L 156.14924 230.062214 
L 156.274793 230.6011 
L 156.337569 230.358204 
L 156.525898 230.843999 
L 156.588675 230.978057 
L 156.777004 230.654194 
L 156.965334 230.870546 
L 157.153663 231.544818 
L 157.279216 231.004603 
L 157.404769 231.435979 
L 157.467546 231.059023 
L 157.530322 231.220955 
L 157.593099 231.571365 
L 157.655875 231.516945 
L 157.844204 231.032476 
L 157.906981 231.032476 
L 158.158087 231.624458 
L 158.220863 231.463852 
L 158.28364 231.409433 
L 158.471969 231.678878 
L 158.534746 231.814262 
L 158.660299 231.516945 
L 158.723075 231.705423 
L 158.911405 231.08557 
L 159.225287 231.652331 
L 159.288063 231.274047 
L 159.35084 231.328466 
L 159.539169 231.220955 
L 159.601946 230.978057 
L 159.664722 231.032476 
L 159.853052 230.843999 
L 159.915828 230.73516 
L 159.978605 230.843999 
L 160.292487 231.678878 
L 160.41804 231.113443 
L 160.480816 231.166536 
L 160.669146 230.412623 
L 160.857475 230.73516 
L 160.920252 230.682067 
L 160.983028 230.89709 
L 161.045805 231.516945 
L 161.108581 231.247502 
L 161.234134 230.520134 
L 161.359687 230.816126 
L 161.422464 230.654194 
L 161.48524 230.78958 
L 161.548016 230.843999 
L 161.736346 230.007794 
L 161.799122 229.926828 
L 161.924675 230.277237 
L 161.987452 230.224144 
L 162.113005 229.764895 
L 162.301334 230.412623 
L 162.364111 230.358204 
L 162.489664 229.523325 
L 162.677993 230.277237 
L 162.803546 229.602963 
L 162.991875 229.873735 
L 163.054652 229.819315 
L 163.117428 230.062214 
L 163.242981 229.414486 
L 163.368534 229.738349 
L 163.431311 229.495452 
L 163.494087 229.602963 
L 163.61964 229.873735 
L 163.80797 229.253882 
L 163.870746 229.333519 
L 164.059075 228.875597 
L 164.184628 229.306973 
L 164.310181 229.091949 
L 164.372958 229.253882 
L 164.435734 229.738349 
L 164.498511 229.414486 
L 164.624064 229.091949 
L 164.812393 229.926828 
L 165.000723 229.091949 
L 165.063499 229.468905 
L 165.126276 229.414486 
L 165.189052 229.118496 
L 165.251829 229.306973 
L 165.314605 229.226006 
L 165.628487 229.981247 
L 165.691264 229.926828 
L 165.879593 229.226006 
L 165.94237 229.333519 
L 166.005146 229.199462 
L 166.067923 229.442359 
L 166.130699 229.361392 
L 166.193476 228.903472 
L 166.256252 229.253882 
L 166.319029 229.199462 
L 166.381805 228.98311 
L 166.444582 229.172915 
L 166.570134 230.250691 
L 166.82124 229.711802 
L 166.884017 229.711802 
L 167.00957 229.361392 
L 167.135123 229.764895 
L 167.197899 229.576418 
L 167.386229 230.169724 
L 167.449005 230.034339 
L 167.574558 230.573227 
L 167.637335 230.331657 
L 167.700111 230.196271 
L 167.762888 230.465714 
L 167.825664 230.43917 
L 167.88844 230.143178 
L 167.951217 230.43917 
L 168.013993 230.358204 
L 168.07677 230.088758 
L 168.139546 230.169724 
L 168.202323 230.43917 
L 168.265099 230.331657 
L 168.327876 230.143178 
L 168.390652 230.38475 
L 168.453429 230.169724 
L 168.641758 230.73516 
L 168.767311 230.923637 
L 168.830088 230.843999 
L 168.892864 230.978057 
L 169.018417 230.682067 
L 169.081194 230.89709 
L 169.14397 230.654194 
L 169.206746 230.816126 
L 169.269523 230.870546 
L 169.332299 231.274047 
L 169.395076 231.247502 
L 169.457852 231.004603 
L 169.520629 231.382886 
L 169.583405 231.247502 
L 169.708958 231.571365 
L 169.771735 231.516945 
L 169.897288 230.6011 
L 169.960064 230.73516 
L 170.148394 231.382886 
L 170.21117 231.274047 
L 170.336723 230.763033 
L 170.399499 230.763033 
L 170.462276 230.49359 
L 170.587829 230.816126 
L 170.776158 230.358204 
L 170.964488 231.490399 
L 171.027264 231.166536 
L 171.152817 231.624458 
L 171.403923 230.520134 
L 171.4667 230.224144 
L 171.529476 230.250691 
L 171.655029 230.250691 
L 171.906135 230.682067 
L 171.968911 230.520134 
L 172.031688 230.6011 
L 172.220017 231.435979 
L 172.282794 231.004603 
L 172.408347 230.520134 
L 172.471123 230.6011 
L 172.5339 230.627647 
L 172.596676 230.49359 
L 172.659453 230.627647 
L 172.785006 229.873735 
L 172.910558 230.088758 
L 173.036111 230.843999 
L 173.224441 230.43917 
L 173.349994 230.708613 
L 173.663876 229.900281 
L 173.726653 230.196271 
L 173.852206 229.602963 
L 173.914982 230.224144 
L 173.977759 230.169724 
L 174.040535 229.981247 
L 174.103312 230.115305 
L 174.291641 229.738349 
L 174.417194 229.414486 
L 174.542747 230.062214 
L 174.605523 230.088758 
L 174.856629 229.576418 
L 174.982182 229.845861 
L 175.044959 229.442359 
L 175.107735 229.468905 
L 175.170512 229.495452 
L 175.296065 229.926828 
L 175.358841 229.900281 
L 175.421617 229.549871 
L 175.609947 230.38475 
L 176.049382 229.037529 
L 176.112159 229.091949 
L 176.174935 229.442359 
L 176.237712 229.253882 
L 176.300488 229.226006 
L 176.363265 229.037529 
L 176.488818 229.953374 
L 176.551594 229.711802 
L 176.614371 229.873735 
L 176.8027 229.683929 
L 176.928253 229.602963 
L 177.116582 228.98311 
L 177.179359 229.172915 
L 177.304912 229.845861 
L 177.367688 229.764895 
L 177.493241 230.034339 
L 177.618794 229.657382 
L 177.807124 230.196271 
L 177.8699 230.250691 
L 177.995453 229.873735 
L 178.058229 230.143178 
L 178.183782 229.630838 
L 178.246559 229.926828 
L 178.309335 229.630838 
L 178.372112 229.792768 
L 178.497665 230.331657 
L 178.560441 230.303784 
L 178.623218 230.062214 
L 178.685994 230.196271 
L 178.748771 230.250691 
L 178.811547 230.143178 
L 178.874324 230.412623 
L 178.9371 230.277237 
L 178.999877 230.412623 
L 179.062653 230.303784 
L 179.12543 229.819315 
L 179.188206 229.981247 
L 179.376535 230.43917 
L 179.564865 230.277237 
L 179.690418 229.738349 
L 179.753194 229.764895 
L 179.878747 230.224144 
L 180.0043 229.549871 
L 180.19263 230.708613 
L 180.255406 230.546681 
L 180.318183 230.224144 
L 180.380959 230.331657 
L 180.443735 230.763033 
L 180.506512 230.6011 
L 180.632065 229.953374 
L 180.694841 230.331657 
L 180.757618 230.224144 
L 180.820394 229.873735 
L 180.945947 231.139989 
L 181.008724 230.708613 
L 181.134277 229.683929 
L 181.25983 230.573227 
L 181.385383 230.143178 
L 181.510936 230.923637 
L 181.573712 230.654194 
L 181.699265 230.169724 
L 181.762041 230.224144 
L 181.887594 230.38475 
L 181.950371 230.89709 
L 182.013147 230.627647 
L 182.264253 230.115305 
L 182.32703 230.224144 
L 182.389806 230.682067 
L 182.452583 230.627647 
L 182.578136 230.331657 
L 182.640912 230.358204 
L 182.829242 230.95151 
L 182.892018 230.73516 
L 182.954794 230.870546 
L 183.143124 230.6011 
L 183.2059 230.196271 
L 183.268677 230.38475 
L 183.331453 230.412623 
L 183.457006 230.196271 
L 183.582559 230.573227 
L 183.645336 231.113443 
L 183.708112 230.763033 
L 183.833665 230.73516 
L 183.896442 231.113443 
L 183.959218 231.032476 
L 184.084771 230.43917 
L 184.147548 230.816126 
L 184.210324 230.73516 
L 184.46143 230.034339 
L 184.524206 230.143178 
L 184.649759 231.032476 
L 184.838089 230.143178 
L 184.900865 230.412623 
L 184.963642 230.331657 
L 185.026418 229.981247 
L 185.089195 230.250691 
L 185.151971 230.224144 
L 185.214748 230.062214 
L 185.277524 230.303784 
L 185.340301 230.143178 
L 185.52863 230.303784 
L 185.591406 229.900281 
L 185.654183 230.007794 
L 185.716959 230.224144 
L 185.779736 229.981247 
L 185.842512 230.088758 
L 185.905289 230.034339 
L 185.968065 230.250691 
L 186.030842 230.143178 
L 186.093618 229.764895 
L 186.219171 230.816126 
L 186.407501 229.630838 
L 186.533054 230.78958 
L 186.658607 230.143178 
L 186.721383 230.196271 
L 186.846936 229.926828 
L 186.909712 230.38475 
L 186.972489 230.224144 
L 187.098042 230.007794 
L 187.160818 230.115305 
L 187.286371 229.738349 
L 187.411924 229.845861 
L 187.474701 229.873735 
L 187.537477 229.764895 
L 187.600254 230.250691 
L 187.66303 230.224144 
L 187.788583 230.143178 
L 187.976912 229.711802 
L 188.102465 230.38475 
L 188.165242 230.331657 
L 188.228018 230.465714 
L 188.290795 230.196271 
L 188.353571 230.303784 
L 188.604677 230.682067 
L 188.73023 229.953374 
L 188.793007 230.169724 
L 188.91856 230.546681 
L 188.981336 230.115305 
L 189.044113 230.465714 
L 189.106889 230.331657 
L 189.420771 230.034339 
L 189.546324 230.546681 
L 189.671877 230.143178 
L 189.734654 230.303784 
L 189.79743 229.926828 
L 189.860207 230.034339 
L 190.048536 230.627647 
L 190.111313 230.465714 
L 190.174089 230.546681 
L 190.236866 230.73516 
L 190.425195 230.088758 
L 190.487971 230.277237 
L 190.676301 230.816126 
L 190.927407 230.143178 
L 190.990183 230.062214 
L 191.05296 230.412623 
L 191.115736 230.331657 
L 191.241289 229.657382 
L 191.429619 230.38475 
L 191.492395 230.412623 
L 191.743501 229.900281 
L 191.994607 230.43917 
L 192.308489 230.169724 
L 192.371266 230.6011 
L 192.434042 230.546681 
L 192.496819 230.250691 
L 192.559595 230.303784 
L 192.747925 230.682067 
L 192.810701 230.627647 
L 192.936254 230.169724 
L 192.99903 230.196271 
L 193.18736 230.708613 
L 193.312913 230.196271 
L 193.438466 230.38475 
L 193.501242 230.38475 
L 193.564019 230.034339 
L 193.626795 230.303784 
L 193.752348 230.923637 
L 193.940678 230.627647 
L 194.003454 231.059023 
L 194.191784 230.034339 
L 194.25456 230.49359 
L 194.317336 230.465714 
L 194.380113 230.465714 
L 194.505666 230.169724 
L 194.693995 230.843999 
L 194.819548 230.546681 
L 194.882325 230.303784 
L 194.945101 230.358204 
L 195.070654 231.032476 
L 195.196207 230.250691 
L 195.258984 230.38475 
L 195.384537 230.682067 
L 195.447313 230.38475 
L 195.510089 230.573227 
L 195.572866 230.520134 
L 195.698419 230.843999 
L 195.823972 230.49359 
L 195.949525 230.816126 
L 196.075078 230.115305 
L 196.137854 230.143178 
L 196.200631 230.062214 
L 196.38896 230.627647 
L 196.57729 229.953374 
L 196.828395 230.816126 
L 196.891172 230.43917 
L 196.953948 230.654194 
L 197.079501 230.196271 
L 197.142278 230.358204 
L 197.205054 230.358204 
L 197.393384 229.764895 
L 197.45616 230.143178 
L 197.518937 229.900281 
L 197.581713 230.034339 
L 197.64449 229.981247 
L 197.707266 229.549871 
L 197.770043 229.792768 
L 197.895596 229.738349 
L 198.083925 230.546681 
L 198.209478 229.845861 
L 198.397807 230.331657 
L 198.460584 230.088758 
L 198.52336 230.115305 
L 198.648913 230.331657 
L 198.774466 229.926828 
L 198.837243 230.088758 
L 198.900019 230.007794 
L 199.339454 230.654194 
L 199.465007 230.034339 
L 199.653337 230.49359 
L 199.716113 230.49359 
L 199.841666 230.654194 
L 200.029996 230.573227 
L 200.092772 230.682067 
L 200.281102 229.981247 
L 200.406655 230.196271 
L 200.469431 230.034339 
L 200.65776 230.546681 
L 200.783313 230.6011 
L 200.84609 230.923637 
L 200.908866 230.870546 
L 201.034419 230.034339 
L 201.097196 230.115305 
L 201.222749 230.43917 
L 201.411078 229.900281 
L 201.473855 229.845861 
L 201.536631 230.43917 
L 201.599408 230.169724 
L 201.91329 230.682067 
L 202.038843 229.819315 
L 202.101619 229.873735 
L 202.352725 229.764895 
L 202.666608 230.763033 
L 202.729384 230.196271 
L 202.792161 230.277237 
L 202.98049 230.546681 
L 203.043266 230.250691 
L 203.106043 230.331657 
L 203.168819 230.412623 
L 203.231596 230.358204 
L 203.294372 230.358204 
L 203.419925 231.08557 
L 203.482702 230.978057 
L 203.671031 230.143178 
L 203.733808 230.654194 
L 203.796584 230.573227 
L 203.859361 230.38475 
L 203.922137 230.546681 
L 204.04769 230.143178 
L 204.173243 230.923637 
L 204.23602 230.627647 
L 204.298796 230.412623 
L 204.361572 230.520134 
L 204.424349 230.627647 
L 204.487125 229.953374 
L 204.549902 230.062214 
L 204.675455 230.708613 
L 204.738231 230.546681 
L 204.863784 230.088758 
L 204.989337 230.78958 
L 205.052114 230.73516 
L 205.177667 230.816126 
L 205.240443 231.139989 
L 205.365996 230.816126 
L 205.428773 231.328466 
L 205.491549 230.978057 
L 205.617102 231.409433 
L 205.679878 231.059023 
L 205.742655 231.274047 
L 205.805431 231.08557 
L 205.868208 231.274047 
L 205.930984 231.139989 
L 206.18209 230.708613 
L 206.307643 231.139989 
L 206.747079 230.38475 
L 206.809855 230.034339 
L 206.998184 230.95151 
L 207.060961 230.870546 
L 207.123737 230.412623 
L 207.186514 230.43917 
L 207.24929 230.331657 
L 207.312067 230.412623 
L 207.563173 230.169724 
L 207.751502 230.627647 
L 207.814279 230.358204 
L 207.877055 230.520134 
L 207.939832 230.843999 
L 208.002608 230.627647 
L 208.190937 230.224144 
L 208.253714 230.277237 
L 208.31649 230.763033 
L 208.379267 230.49359 
L 208.442043 230.465714 
L 208.630373 230.708613 
L 208.693149 230.816126 
L 208.818702 230.250691 
L 208.944255 229.738349 
L 209.195361 230.546681 
L 209.320914 230.115305 
L 209.38369 230.196271 
L 209.446467 230.331657 
L 209.697573 229.387939 
L 209.823126 230.627647 
L 209.885902 230.088758 
L 209.948679 229.819315 
L 210.011455 230.007794 
L 210.074232 230.143178 
L 210.262561 229.523325 
L 210.325338 229.657382 
L 210.388114 229.602963 
L 210.450891 229.900281 
L 210.513667 229.764895 
L 210.576444 229.873735 
L 210.701996 230.465714 
L 210.827549 229.900281 
L 210.953102 230.358204 
L 211.015879 230.196271 
L 211.141432 230.6011 
L 211.266985 229.953374 
L 211.329761 229.981247 
L 211.392538 230.358204 
L 211.455314 230.169724 
L 211.518091 230.303784 
L 211.643644 229.981247 
L 211.70642 230.007794 
L 211.831973 230.062214 
L 211.894749 229.657382 
L 211.957526 229.819315 
L 212.083079 230.062214 
L 212.145855 229.361392 
L 212.208632 229.387939 
L 212.271408 229.442359 
L 212.334185 229.683929 
L 212.396961 230.43917 
L 212.459738 230.034339 
L 212.522514 229.602963 
L 212.585291 229.657382 
L 212.899173 230.277237 
L 212.96195 230.115305 
L 213.087503 229.845861 
L 213.150279 230.224144 
L 213.213055 230.088758 
L 213.275832 230.143178 
L 213.338608 229.981247 
L 213.464161 229.387939 
L 213.589714 229.468905 
L 213.84082 230.73516 
L 214.02915 230.250691 
L 214.091926 229.414486 
L 214.154703 229.468905 
L 214.217479 229.845861 
L 214.280256 229.819315 
L 214.343032 229.845861 
L 214.468585 229.576418 
L 214.719691 230.49359 
L 214.90802 229.953374 
L 214.970797 230.169724 
L 215.09635 229.900281 
L 215.284679 229.926828 
L 215.347456 229.657382 
L 215.410232 230.331657 
L 215.473009 230.196271 
L 215.598562 229.576418 
L 215.661338 229.657382 
L 215.724114 229.981247 
L 215.786891 229.873735 
L 215.849667 229.711802 
L 215.912444 229.845861 
L 215.97522 229.845861 
L 216.037997 230.224144 
L 216.100773 230.034339 
L 216.289103 230.358204 
L 216.414656 230.169724 
L 216.477432 230.358204 
L 216.540209 230.250691 
L 216.728538 230.062214 
L 216.791315 229.819315 
L 216.916867 230.43917 
L 216.979644 230.358204 
L 217.04242 230.062214 
L 217.105197 230.115305 
L 217.23075 230.465714 
L 217.419079 229.683929 
L 217.481856 230.034339 
L 217.544632 229.873735 
L 217.670185 230.034339 
L 217.732962 229.683929 
L 217.795738 229.845861 
L 217.858515 230.331657 
L 217.921291 230.169724 
L 217.984068 230.169724 
L 218.109621 230.303784 
L 218.172397 230.303784 
L 218.235173 230.6011 
L 218.29795 230.38475 
L 218.486279 229.792768 
L 218.549056 230.250691 
L 218.611832 229.926828 
L 218.674609 229.711802 
L 218.737385 229.873735 
L 218.925715 230.358204 
L 218.988491 230.250691 
L 219.051268 230.303784 
L 219.114044 230.358204 
L 219.239597 229.657382 
L 219.302374 229.792768 
L 219.427926 230.331657 
L 219.490703 230.169724 
L 219.553479 230.115305 
L 219.616256 230.38475 
L 219.867362 229.602963 
L 219.992915 230.115305 
L 220.055691 229.819315 
L 220.118468 229.900281 
L 220.306797 230.062214 
L 220.495127 229.873735 
L 220.557903 229.306973 
L 220.62068 229.523325 
L 220.746232 230.682067 
L 220.871785 230.331657 
L 221.060115 229.711802 
L 221.185668 229.199462 
L 221.248444 229.145042 
L 221.49955 229.981247 
L 221.562327 229.792768 
L 221.625103 229.900281 
L 221.68788 229.981247 
L 221.750656 229.926828 
L 221.813433 229.845861 
L 221.876209 230.115305 
L 221.938985 230.088758 
L 222.001762 229.683929 
L 222.127315 230.088758 
L 222.190091 230.143178 
L 222.378421 229.387939 
L 222.441197 229.602963 
L 222.503974 229.442359 
L 222.56675 229.576418 
L 222.75508 230.816126 
L 222.880633 230.143178 
L 222.943409 230.303784 
L 223.068962 230.6011 
L 223.194515 230.412623 
L 223.320068 229.819315 
L 223.508397 230.196271 
L 223.571174 230.196271 
L 223.63395 229.981247 
L 223.759503 230.358204 
L 224.010609 229.845861 
L 224.073386 229.873735 
L 224.261715 230.303784 
L 224.450044 230.088758 
L 224.512821 229.630838 
L 224.575597 229.845861 
L 224.763927 230.303784 
L 224.826703 230.277237 
L 224.88948 230.277237 
L 224.952256 230.6011 
L 225.015033 230.49359 
L 225.642798 229.764895 
L 225.705574 229.873735 
L 225.76835 230.303784 
L 225.831127 230.196271 
L 225.893903 229.981247 
L 226.145009 230.978057 
L 226.207786 230.816126 
L 226.270562 230.520134 
L 226.333339 230.763033 
L 226.396115 230.627647 
L 226.521668 229.523325 
L 226.584445 229.576418 
L 226.709998 230.007794 
L 226.835551 229.738349 
L 226.898327 230.034339 
L 226.961103 229.711802 
L 227.149433 230.465714 
L 227.337762 230.465714 
L 227.526092 229.953374 
L 227.651645 230.277237 
L 227.714421 230.224144 
L 227.777198 230.115305 
L 228.028304 230.73516 
L 228.153857 230.169724 
L 228.342186 230.870546 
L 228.467739 230.088758 
L 228.530515 230.224144 
L 228.593292 230.520134 
L 228.718845 230.007794 
L 228.907174 230.412623 
L 228.969951 230.277237 
L 229.095504 230.627647 
L 229.15828 230.412623 
L 229.221057 230.43917 
L 229.34661 230.43917 
L 229.472162 230.763033 
L 229.534939 230.708613 
L 229.660492 230.196271 
L 229.723268 230.303784 
L 229.974374 230.654194 
L 230.288257 230.143178 
L 230.476586 230.573227 
L 230.602139 230.169724 
L 230.664916 230.196271 
L 230.790468 230.303784 
L 230.916021 230.654194 
L 231.104351 230.250691 
L 231.29268 230.49359 
L 231.355457 230.412623 
L 231.48101 229.926828 
L 231.606563 230.034339 
L 231.732116 230.358204 
L 231.794892 230.007794 
L 231.857669 230.034339 
L 231.983221 230.573227 
L 232.108774 229.845861 
L 232.234327 230.654194 
L 232.297104 230.573227 
L 232.35988 230.6011 
L 232.54821 229.845861 
L 232.673763 230.520134 
L 232.736539 230.43917 
L 232.862092 229.819315 
L 232.987645 229.900281 
L 233.113198 229.953374 
L 233.364304 230.412623 
L 233.678186 229.361392 
L 233.929292 230.143178 
L 233.992069 230.062214 
L 234.054845 229.926828 
L 234.117622 230.007794 
L 234.368728 229.926828 
L 234.431504 229.738349 
L 234.557057 230.062214 
L 234.619833 229.981247 
L 234.68261 229.926828 
L 234.745386 230.115305 
L 234.808163 230.007794 
L 234.996492 229.873735 
L 235.059269 230.224144 
L 235.184822 229.792768 
L 235.247598 230.250691 
L 235.310375 230.196271 
L 235.498704 229.792768 
L 235.561481 229.900281 
L 235.624257 230.277237 
L 235.687034 230.062214 
L 235.812586 229.414486 
L 236.000916 229.981247 
L 236.063692 229.845861 
L 236.252022 229.361392 
L 236.377575 229.926828 
L 236.440351 229.845861 
L 236.503128 229.900281 
L 236.628681 230.196271 
L 236.691457 230.034339 
L 236.754234 229.683929 
L 236.81701 229.764895 
L 236.942563 229.900281 
L 237.130892 229.711802 
L 237.193669 229.711802 
L 237.256445 229.414486 
L 237.507551 230.196271 
L 237.633104 230.573227 
L 237.821434 229.953374 
L 238.009763 230.573227 
L 238.07254 230.546681 
L 238.198093 230.654194 
L 238.260869 230.6011 
L 238.449198 229.683929 
L 238.511975 229.738349 
L 238.574751 229.711802 
L 238.637528 230.088758 
L 238.700304 229.819315 
L 238.763081 229.495452 
L 238.825857 229.630838 
L 239.13974 230.43917 
L 239.328069 229.953374 
L 239.390846 230.115305 
L 239.453622 230.034339 
L 239.579175 230.520134 
L 239.641951 230.331657 
L 239.767504 230.412623 
L 239.830281 230.358204 
L 239.893057 230.062214 
L 240.01861 230.49359 
L 240.20694 229.926828 
L 240.332493 230.143178 
L 240.395269 229.738349 
L 240.458046 230.062214 
L 240.520822 229.926828 
L 240.583599 229.764895 
L 240.646375 229.819315 
L 240.709152 229.845861 
L 240.771928 230.088758 
L 240.834704 230.034339 
L 240.960257 229.657382 
L 241.148587 230.546681 
L 241.211363 230.277237 
L 241.399693 229.792768 
L 241.713575 230.870546 
L 241.776352 231.113443 
L 242.090234 230.007794 
L 242.15301 230.062214 
L 242.215787 230.277237 
L 242.278563 230.250691 
L 242.466893 229.361392 
L 242.529669 229.764895 
L 242.592446 229.495452 
L 242.780775 230.412623 
L 242.843552 230.143178 
L 242.906328 230.115305 
L 243.031881 230.465714 
L 243.220211 229.764895 
L 243.345763 230.143178 
L 243.40854 230.088758 
L 243.471316 229.630838 
L 243.534093 229.792768 
L 243.722422 230.358204 
L 243.910752 229.764895 
L 243.973528 229.683929 
L 244.036305 230.007794 
L 244.099081 229.900281 
L 244.224634 230.115305 
L 244.287411 230.088758 
L 244.538516 230.465714 
L 244.852399 229.900281 
L 245.040728 230.358204 
L 245.103505 230.224144 
L 245.291834 230.708613 
L 245.354611 231.08557 
L 245.417387 230.89709 
L 245.668493 230.277237 
L 245.73127 230.412623 
L 245.794046 230.115305 
L 245.856822 230.196271 
L 246.045152 230.6011 
L 246.359034 229.792768 
L 246.547364 230.573227 
L 246.672917 230.816126 
L 247.049575 229.495452 
L 247.112352 229.523325 
L 247.237905 229.602963 
L 247.86567 230.73516 
L 247.928446 230.682067 
L 248.242329 229.683929 
L 248.305105 229.792768 
L 248.367881 230.143178 
L 248.430658 229.981247 
L 248.556211 230.115305 
L 248.681764 229.657382 
L 248.807317 230.303784 
L 248.870093 230.034339 
L 248.93287 230.277237 
L 248.995646 230.143178 
L 249.058423 230.062214 
L 249.121199 229.468905 
L 249.183976 229.576418 
L 249.246752 230.196271 
L 249.309529 230.169724 
L 249.435082 229.873735 
L 249.497858 230.303784 
L 249.560634 230.169724 
L 249.686187 230.115305 
L 249.874517 230.627647 
L 250.00007 230.088758 
L 250.062846 230.224144 
L 250.188399 230.682067 
L 250.251176 230.546681 
L 250.376729 230.007794 
L 250.439505 230.062214 
L 250.565058 229.738349 
L 250.690611 230.115305 
L 250.816164 229.953374 
L 251.06727 230.978057 
L 251.255599 229.981247 
L 251.318376 230.143178 
L 251.381152 230.816126 
L 251.443929 230.573227 
L 251.506705 230.143178 
L 251.569482 230.224144 
L 251.632258 230.250691 
L 251.695035 230.007794 
L 251.820588 230.250691 
L 251.883364 230.088758 
L 251.946141 229.414486 
L 252.008917 229.792768 
L 252.13447 230.6011 
L 252.260023 230.088758 
L 252.385576 230.250691 
L 252.511129 230.843999 
L 252.573905 230.78958 
L 252.762235 230.6011 
L 252.825011 230.89709 
L 252.887788 230.870546 
L 253.076117 229.953374 
L 253.20167 230.115305 
L 253.327223 230.95151 
L 253.389999 230.708613 
L 253.578329 230.169724 
L 253.703882 230.43917 
L 253.892211 229.873735 
L 254.080541 230.143178 
L 254.143317 229.926828 
L 254.206094 230.007794 
L 254.331647 230.520134 
L 254.4572 230.007794 
L 254.645529 230.007794 
L 254.708305 229.845861 
L 254.833858 230.708613 
L 254.896635 230.43917 
L 255.084964 229.738349 
L 255.210517 230.358204 
L 255.273294 229.981247 
L 255.33607 230.034339 
L 255.398847 230.303784 
L 255.461623 230.277237 
L 255.5244 230.303784 
L 255.587176 230.196271 
L 255.649953 230.277237 
L 255.775506 230.682067 
L 255.838282 230.49359 
L 255.901058 230.78958 
L 255.963835 230.763033 
L 256.152164 229.602963 
L 256.214941 229.711802 
L 256.40327 230.143178 
L 256.5916 230.331657 
L 256.717153 230.331657 
L 256.779929 230.143178 
L 256.905482 230.546681 
L 257.093812 229.683929 
L 257.156588 229.900281 
L 257.344917 231.059023 
L 257.721576 230.169724 
L 257.784353 230.49359 
L 257.847129 230.196271 
L 258.098235 230.95151 
L 258.223788 230.546681 
L 258.286565 230.682067 
L 258.474894 229.819315 
L 258.53767 229.468905 
L 258.600447 229.738349 
L 258.663223 229.657382 
L 258.726 229.764895 
L 258.788776 229.657382 
L 258.851553 229.711802 
L 259.039882 230.627647 
L 259.165435 230.546681 
L 259.228212 230.358204 
L 259.290988 230.43917 
L 259.353765 230.520134 
L 259.416541 230.465714 
L 259.479318 230.870546 
L 259.667647 230.277237 
L 259.7932 230.816126 
L 260.044306 230.088758 
L 260.107082 230.303784 
L 260.169859 230.627647 
L 260.232635 230.520134 
L 260.295412 230.465714 
L 260.358188 230.816126 
L 260.420965 230.682067 
L 260.483741 230.224144 
L 260.546518 230.49359 
L 260.797624 230.49359 
L 260.8604 230.816126 
L 260.923176 230.303784 
L 260.985953 230.654194 
L 261.048729 231.032476 
L 261.111506 230.682067 
L 261.174282 230.708613 
L 261.362612 230.708613 
L 261.425388 230.38475 
L 261.488165 230.546681 
L 261.739271 231.382886 
L 261.9276 230.49359 
L 262.053153 230.78958 
L 262.178706 230.331657 
L 262.304259 230.73516 
L 262.492588 230.115305 
L 262.743694 230.78958 
L 262.932024 230.088758 
L 263.245906 230.89709 
L 263.308683 230.816126 
L 263.434235 230.546681 
L 263.497012 230.89709 
L 263.559788 230.654194 
L 263.622565 230.49359 
L 263.748118 230.654194 
L 263.936447 229.630838 
L 263.999224 229.845861 
L 264.062 230.358204 
L 264.124777 230.331657 
L 264.187553 230.250691 
L 264.313106 230.627647 
L 264.438659 230.088758 
L 264.501436 230.169724 
L 264.564212 230.224144 
L 264.752541 230.816126 
L 264.878094 230.250691 
L 264.940871 230.331657 
L 265.003647 230.708613 
L 265.1292 229.602963 
L 265.31753 230.224144 
L 265.380306 230.358204 
L 265.505859 229.845861 
L 265.568636 229.953374 
L 265.694189 230.627647 
L 265.756965 230.224144 
L 265.819742 230.331657 
L 265.882518 230.627647 
L 266.008071 229.953374 
L 266.070847 229.981247 
L 266.133624 229.926828 
L 266.321953 230.169724 
L 266.38473 230.062214 
L 266.447506 230.303784 
L 266.573059 229.468905 
L 266.635836 229.630838 
L 266.824165 230.303784 
L 266.886942 230.43917 
L 267.012495 230.062214 
L 267.200824 230.546681 
L 267.2636 230.250691 
L 267.389153 230.6011 
L 267.577483 230.062214 
L 267.703036 230.358204 
L 267.765812 230.169724 
L 267.828589 230.546681 
L 267.891365 230.465714 
L 268.079695 230.38475 
L 268.142471 230.034339 
L 268.205248 230.224144 
L 268.268024 230.007794 
L 268.330801 230.169724 
L 268.393577 230.331657 
L 268.456353 229.900281 
L 268.51913 230.062214 
L 268.644683 230.224144 
L 268.770236 229.442359 
L 268.833012 229.602963 
L 269.084118 230.627647 
L 269.272448 230.763033 
L 269.523554 230.169724 
L 269.58633 230.250691 
L 269.711883 230.843999 
L 269.774659 230.708613 
L 269.962989 229.873735 
L 270.025765 230.034339 
L 270.088542 229.981247 
L 270.151318 229.873735 
L 270.214095 229.981247 
L 270.339648 230.654194 
L 270.465201 230.062214 
L 270.527977 230.143178 
L 270.65353 230.250691 
L 270.84186 229.926828 
L 271.030189 230.546681 
L 271.092965 230.870546 
L 271.155742 230.654194 
L 271.281295 230.115305 
L 271.406848 230.654194 
L 271.469624 230.358204 
L 271.532401 230.465714 
L 271.595177 230.38475 
L 271.657954 230.682067 
L 271.72073 230.520134 
L 271.846283 230.465714 
L 271.90906 230.520134 
L 272.034613 230.250691 
L 272.097389 230.763033 
L 272.160166 230.73516 
L 272.222942 230.331657 
L 272.285718 230.43917 
L 272.411271 230.43917 
L 272.536824 229.926828 
L 272.599601 229.953374 
L 272.662377 229.845861 
L 272.78793 230.143178 
L 272.97626 229.549871 
L 273.227366 230.546681 
L 273.415695 229.792768 
L 273.604024 230.115305 
L 273.666801 229.981247 
L 273.729577 229.576418 
L 273.792354 229.819315 
L 273.85513 229.764895 
L 273.980683 230.088758 
L 274.04346 229.953374 
L 274.169013 229.495452 
L 274.231789 229.602963 
L 274.357342 229.199462 
L 274.796777 230.708613 
L 274.985107 230.196271 
L 275.047883 230.169724 
L 275.11066 229.981247 
L 275.173436 230.115305 
L 275.236213 229.981247 
L 275.361766 230.6011 
L 275.550095 229.495452 
L 275.612872 229.549871 
L 275.801201 229.711802 
L 275.863978 230.115305 
L 275.926754 230.088758 
L 275.98953 229.630838 
L 276.052307 229.900281 
L 276.240636 230.303784 
L 276.303413 230.358204 
L 276.366189 230.224144 
L 276.428966 230.546681 
L 276.617295 229.711802 
L 276.680072 229.953374 
L 276.868401 230.412623 
L 276.931178 230.682067 
L 276.993954 230.546681 
L 277.119507 230.062214 
L 277.182284 230.169724 
L 277.24506 230.303784 
L 277.370613 229.819315 
L 277.496166 230.95151 
L 277.558942 230.708613 
L 277.621719 230.224144 
L 277.684495 230.331657 
L 277.747272 230.627647 
L 277.998378 229.845861 
L 278.123931 230.224144 
L 278.375037 229.953374 
L 278.437813 229.630838 
L 278.563366 230.49359 
L 278.626142 230.38475 
L 278.688919 230.277237 
L 278.877248 230.49359 
L 278.940025 230.465714 
L 279.002801 229.900281 
L 279.065578 230.034339 
L 279.191131 230.573227 
L 279.253907 230.331657 
L 279.316684 230.358204 
L 279.37946 230.412623 
L 279.56779 230.169724 
L 279.693343 230.250691 
L 279.818895 230.763033 
L 280.007225 229.981247 
L 280.070001 230.088758 
L 280.132778 229.657382 
L 280.383884 230.89709 
L 280.44666 230.870546 
L 280.572213 230.546681 
L 280.63499 230.816126 
L 280.697766 230.654194 
L 280.886096 230.196271 
L 280.948872 230.6011 
L 281.011648 230.520134 
L 281.074425 230.38475 
L 281.137201 230.763033 
L 281.325531 230.224144 
L 281.51386 229.819315 
L 281.576637 229.926828 
L 281.639413 229.630838 
L 281.827743 230.034339 
L 281.890519 230.115305 
L 281.953296 229.819315 
L 282.016072 229.900281 
L 282.204402 230.088758 
L 282.267178 230.277237 
L 282.392731 229.873735 
L 282.58106 230.520134 
L 282.643837 230.49359 
L 282.832166 229.819315 
L 282.957719 230.115305 
L 283.146049 229.442359 
L 283.208825 229.711802 
L 283.397155 230.331657 
L 283.711037 229.819315 
L 283.773813 229.819315 
L 283.899366 230.43917 
L 283.962143 230.303784 
L 284.150472 230.654194 
L 284.401578 229.657382 
L 284.527131 230.465714 
L 284.589908 230.303784 
L 284.715461 230.73516 
L 284.778237 230.627647 
L 284.841013 230.43917 
L 284.90379 230.546681 
L 284.966566 230.546681 
L 285.154896 229.926828 
L 285.280449 230.034339 
L 285.343225 230.250691 
L 285.406002 230.143178 
L 285.719884 230.654194 
L 285.782661 230.546681 
L 285.845437 230.196271 
L 285.908214 230.43917 
L 286.033766 230.682067 
L 286.096543 230.520134 
L 286.159319 230.38475 
L 286.284872 229.926828 
L 286.473202 230.573227 
L 286.661531 230.062214 
L 286.912637 230.38475 
L 287.100967 230.088758 
L 287.289296 230.73516 
L 287.414849 230.573227 
L 287.540402 230.95151 
L 287.728731 230.465714 
L 287.854284 229.819315 
L 287.917061 230.38475 
L 287.979837 230.224144 
L 288.168167 229.306973 
L 288.230943 229.361392 
L 288.356496 230.38475 
L 288.607602 229.602963 
L 288.733155 230.196271 
L 288.795931 230.034339 
L 288.858708 230.143178 
L 288.984261 230.38475 
L 289.047037 229.953374 
L 289.109814 230.115305 
L 289.17259 230.654194 
L 289.235367 230.520134 
L 289.298143 230.250691 
L 289.36092 230.277237 
L 289.423696 230.303784 
L 289.549249 230.062214 
L 289.674802 230.573227 
L 289.800355 230.115305 
L 289.863131 230.224144 
L 289.988684 230.331657 
L 290.051461 230.43917 
L 290.177014 229.981247 
L 290.365343 230.412623 
L 290.490896 230.224144 
L 290.553673 230.331657 
L 290.742002 230.923637 
L 290.867555 230.224144 
L 290.930332 230.250691 
L 290.993108 230.143178 
L 291.055884 230.870546 
L 291.118661 230.78958 
L 291.244214 230.303784 
L 291.432543 230.627647 
L 291.620873 230.224144 
L 291.809202 230.923637 
L 291.871979 230.843999 
L 292.060308 230.143178 
L 292.123085 230.331657 
L 292.185861 230.38475 
L 292.248638 230.277237 
L 292.311414 230.43917 
L 292.37419 230.331657 
L 292.56252 230.277237 
L 292.688073 230.007794 
L 293.001955 230.870546 
L 293.190285 230.034339 
L 293.253061 230.007794 
L 293.315838 230.224144 
L 293.378614 230.062214 
L 293.62972 230.520134 
L 293.692496 230.465714 
L 293.755273 230.78958 
L 293.818049 230.546681 
L 293.880826 230.6011 
L 294.069155 229.981247 
L 294.194708 229.630838 
L 294.257485 229.683929 
L 294.508591 230.303784 
L 294.634144 229.981247 
L 294.69692 230.034339 
L 294.822473 230.843999 
L 294.885249 230.49359 
L 294.948026 230.546681 
L 295.073579 229.819315 
L 295.136355 229.926828 
L 295.450238 230.654194 
L 295.826897 229.711802 
L 295.95245 230.43917 
L 296.015226 230.143178 
L 296.078003 230.303784 
L 296.140779 230.303784 
L 296.203555 230.627647 
L 296.329108 229.900281 
L 296.517438 230.358204 
L 296.642991 229.738349 
L 296.768544 230.43917 
L 296.83132 230.331657 
L 296.894097 230.682067 
L 296.956873 230.331657 
L 297.01965 230.38475 
L 297.145203 230.978057 
L 297.207979 230.95151 
L 297.333532 230.303784 
L 297.396308 230.38475 
L 297.710191 229.900281 
L 297.772967 229.711802 
L 297.89852 230.465714 
L 298.08685 230.034339 
L 298.212403 230.43917 
L 298.275179 230.303784 
L 298.463509 230.115305 
L 298.526285 230.143178 
L 298.589062 229.900281 
L 298.714614 230.520134 
L 298.777391 230.49359 
L 298.902944 230.196271 
L 298.96572 230.49359 
L 299.028497 230.412623 
L 299.091273 229.981247 
L 299.279603 230.573227 
L 299.405156 230.007794 
L 299.467932 230.088758 
L 299.593485 230.331657 
L 299.719038 229.738349 
L 299.781815 229.764895 
L 299.970144 230.250691 
L 300.03292 230.250691 
L 300.22125 231.08557 
L 300.284026 230.870546 
L 300.472356 230.007794 
L 300.535132 229.926828 
L 300.597909 229.442359 
L 300.660685 229.683929 
L 300.786238 229.981247 
L 300.849015 230.303784 
L 300.911791 230.196271 
L 300.974568 230.303784 
L 301.037344 230.89709 
L 301.100121 230.763033 
L 301.414003 230.062214 
L 301.476779 229.873735 
L 301.539556 230.358204 
L 301.602332 230.250691 
L 301.727885 229.306973 
L 301.916215 230.331657 
L 302.104544 229.711802 
L 302.230097 230.331657 
L 302.292874 230.250691 
L 302.418426 229.926828 
L 302.481203 229.981247 
L 302.606756 230.38475 
L 302.669532 230.331657 
L 302.983415 229.576418 
L 303.046191 229.711802 
L 303.297297 230.034339 
L 303.360074 230.465714 
L 303.42285 230.303784 
L 303.485627 230.169724 
L 303.548403 230.277237 
L 303.61118 230.196271 
L 303.736732 230.627647 
L 303.799509 230.546681 
L 303.925062 229.926828 
L 304.176168 230.303784 
L 304.238944 230.115305 
L 304.364497 230.923637 
L 304.427274 230.654194 
L 304.49005 230.277237 
L 304.552827 230.412623 
L 304.67838 230.682067 
L 304.741156 230.43917 
L 304.803933 230.627647 
L 304.866709 230.843999 
L 305.055038 229.792768 
L 305.117815 229.900281 
L 305.243368 230.627647 
L 305.306144 230.520134 
L 305.368921 230.062214 
L 305.431697 230.143178 
L 305.494474 230.062214 
L 305.55725 230.196271 
L 305.682803 230.843999 
L 305.933909 230.169724 
L 306.059462 229.576418 
L 306.310568 230.115305 
L 306.373344 230.38475 
L 306.436121 230.143178 
L 306.498897 230.303784 
L 306.62445 230.277237 
L 306.81278 230.843999 
L 307.001109 229.953374 
L 307.063886 230.169724 
L 307.126662 230.034339 
L 307.189439 230.088758 
L 307.252215 230.520134 
L 307.314992 230.250691 
L 307.440544 230.412623 
L 307.503321 229.900281 
L 307.566097 229.926828 
L 307.754427 230.088758 
L 308.131086 229.738349 
L 308.193862 229.981247 
L 308.256639 229.953374 
L 308.382192 229.683929 
L 308.444968 229.792768 
L 308.507745 230.088758 
L 308.570521 229.900281 
L 308.633298 229.900281 
L 308.884403 230.627647 
L 309.009956 230.78958 
L 309.135509 230.38475 
L 309.198286 230.816126 
L 309.261062 230.763033 
L 309.512168 229.845861 
L 309.637721 229.953374 
L 309.888827 230.062214 
L 309.951603 230.062214 
L 310.139933 229.845861 
L 310.202709 230.358204 
L 310.265486 230.196271 
L 310.328262 230.143178 
L 310.391039 230.43917 
L 310.453815 230.358204 
L 310.579368 230.546681 
L 310.704921 230.224144 
L 310.956027 230.89709 
L 311.08158 230.465714 
L 311.144357 230.49359 
L 311.207133 230.573227 
L 311.395462 229.738349 
L 311.458239 229.819315 
L 311.583792 230.358204 
L 311.709345 229.953374 
L 311.772121 230.250691 
L 311.834898 230.034339 
L 311.897674 229.845861 
L 311.960451 229.981247 
L 312.086004 230.331657 
L 312.14878 229.792768 
L 312.211557 229.953374 
L 312.399886 230.546681 
L 312.525439 230.412623 
L 312.588215 230.573227 
L 312.650992 230.78958 
L 312.713768 230.763033 
L 312.776545 230.627647 
L 312.839321 230.169724 
L 312.902098 230.224144 
L 313.027651 230.78958 
L 313.153204 230.250691 
L 313.278757 230.843999 
L 313.467086 230.38475 
L 313.592639 230.627647 
L 313.655416 230.303784 
L 313.718192 230.43917 
L 313.906521 230.169724 
L 314.094851 230.654194 
L 314.157627 230.654194 
L 314.220404 230.816126 
L 314.28318 230.763033 
L 314.345957 230.763033 
L 314.534286 229.953374 
L 314.597063 229.981247 
L 314.910945 230.6011 
L 315.036498 229.900281 
L 315.162051 230.520134 
L 315.224827 230.331657 
L 315.287604 230.062214 
L 315.35038 230.224144 
L 315.475933 230.303784 
L 315.53871 230.412623 
L 315.601486 230.331657 
L 315.664263 230.277237 
L 315.789816 230.870546 
L 315.852592 230.682067 
L 315.978145 229.953374 
L 316.103698 230.412623 
L 316.166475 230.358204 
L 316.229251 230.6011 
L 316.292027 230.277237 
L 316.354804 230.38475 
L 316.41758 230.412623 
L 316.480357 230.224144 
L 316.543133 230.303784 
L 316.60591 230.520134 
L 316.731463 229.953374 
L 316.919792 230.196271 
L 316.982569 230.169724 
L 317.045345 230.303784 
L 317.108122 230.007794 
L 317.170898 230.143178 
L 317.233675 230.196271 
L 317.296451 230.115305 
L 317.48478 230.088758 
L 317.547557 229.900281 
L 317.610333 230.303784 
L 317.67311 229.926828 
L 317.735886 230.224144 
L 317.798663 230.088758 
L 317.924216 230.520134 
L 317.986992 230.358204 
L 318.049769 230.115305 
L 318.112545 230.303784 
L 318.238098 230.088758 
L 318.300875 230.196271 
L 318.363651 230.654194 
L 318.426428 230.49359 
L 318.551981 229.953374 
L 318.614757 230.6011 
L 318.677534 230.520134 
L 318.74031 230.465714 
L 318.928639 229.711802 
L 318.991416 229.549871 
L 319.493628 230.573227 
L 319.556404 230.654194 
L 319.619181 230.6011 
L 319.681957 230.49359 
L 319.744734 230.682067 
L 319.80751 230.43917 
L 319.870287 230.978057 
L 319.933063 230.870546 
L 319.995839 230.43917 
L 320.058616 230.49359 
L 320.121392 230.49359 
L 320.246945 230.088758 
L 320.435275 230.627647 
L 320.623604 230.224144 
L 320.686381 230.303784 
L 320.749157 229.981247 
L 320.811934 230.331657 
L 320.87471 230.062214 
L 320.937487 230.007794 
L 321.000263 230.143178 
L 321.06304 229.873735 
L 321.125816 229.981247 
L 321.251369 230.115305 
L 321.376922 230.546681 
L 321.439698 230.250691 
L 321.502475 230.331657 
L 321.753581 230.520134 
L 321.879134 230.277237 
L 321.94191 229.792768 
L 322.004687 230.169724 
L 322.13024 230.6011 
L 322.255793 230.034339 
L 322.381346 230.43917 
L 322.444122 230.331657 
L 322.569675 230.763033 
L 322.758004 229.711802 
L 322.820781 229.873735 
L 322.883557 229.845861 
L 322.946334 229.819315 
L 323.134663 230.331657 
L 323.19744 230.78958 
L 323.260216 230.654194 
L 323.385769 230.303784 
L 323.448546 230.465714 
L 323.511322 230.277237 
L 323.574099 230.546681 
L 323.699652 229.926828 
L 323.762428 230.007794 
L 323.887981 230.573227 
L 323.950757 230.277237 
L 324.013534 230.303784 
L 324.07631 230.520134 
L 324.139087 230.38475 
L 324.327416 230.169724 
L 324.390193 230.115305 
L 324.515746 230.49359 
L 324.578522 230.277237 
L 324.704075 230.143178 
L 324.766852 230.224144 
L 324.829628 229.792768 
L 324.892405 229.900281 
L 325.017957 230.465714 
L 325.080734 230.303784 
L 325.206287 230.224144 
L 325.269063 230.49359 
L 325.33184 230.224144 
L 325.394616 230.38475 
L 325.457393 230.923637 
L 325.520169 230.6011 
L 325.582946 230.224144 
L 325.645722 230.277237 
L 325.708499 230.6011 
L 325.771275 230.520134 
L 325.959605 230.088758 
L 326.147934 230.816126 
L 326.210711 230.78958 
L 326.273487 230.573227 
L 326.336263 230.78958 
L 326.524593 230.38475 
L 326.587369 230.412623 
L 326.650146 230.277237 
L 326.775699 230.763033 
L 326.964028 230.169724 
L 327.215134 230.358204 
L 327.277911 230.6011 
L 327.340687 230.250691 
L 327.403464 230.43917 
L 327.46624 230.708613 
L 327.529016 230.520134 
L 327.591793 230.43917 
L 327.780122 229.764895 
L 327.842899 229.845861 
L 327.968452 230.654194 
L 328.094005 230.250691 
L 328.470664 230.6011 
L 328.53344 230.38475 
L 328.596217 230.465714 
L 328.658993 230.708613 
L 328.847322 230.196271 
L 328.910099 230.358204 
L 328.972875 230.277237 
L 329.161205 229.738349 
L 329.223981 229.819315 
L 329.349534 230.169724 
L 329.412311 229.873735 
L 329.537864 230.331657 
L 329.663417 229.953374 
L 329.726193 230.007794 
L 329.851746 230.546681 
L 330.102852 230.034339 
L 330.165628 229.981247 
L 330.291181 229.738349 
L 330.353958 230.250691 
L 330.416734 230.115305 
L 330.605064 229.900281 
L 330.730617 230.331657 
L 330.793393 230.143178 
L 330.85617 229.873735 
L 330.918946 229.981247 
L 330.981723 230.224144 
L 331.044499 230.115305 
L 331.232829 229.468905 
L 331.295605 229.819315 
L 331.358381 229.683929 
L 331.421158 229.819315 
L 331.483934 230.412623 
L 331.546711 230.143178 
L 331.73504 229.819315 
L 331.860593 230.546681 
L 331.92337 230.49359 
L 331.986146 230.43917 
L 332.048923 229.953374 
L 332.111699 230.224144 
L 332.174476 230.546681 
L 332.237252 230.331657 
L 332.425582 230.520134 
L 332.551134 230.277237 
L 332.613911 230.465714 
L 332.676687 230.49359 
L 332.739464 230.654194 
L 332.80224 230.573227 
L 332.865017 230.38475 
L 332.927793 230.546681 
L 333.178899 230.169724 
L 333.241676 230.250691 
L 333.304452 230.546681 
L 333.367229 230.520134 
L 333.492782 229.711802 
L 333.618335 229.953374 
L 333.743888 230.43917 
L 334.05777 229.873735 
L 334.308876 231.274047 
L 334.371652 230.843999 
L 334.559982 229.738349 
L 334.748311 230.682067 
L 334.811088 230.49359 
L 335.062193 229.900281 
L 335.187746 229.792768 
L 335.313299 230.250691 
L 335.438852 230.196271 
L 335.564405 229.495452 
L 335.627182 229.576418 
L 335.689958 229.738349 
L 335.752735 229.523325 
L 335.815511 229.792768 
L 335.878288 229.738349 
L 336.066617 229.630838 
L 336.254947 230.143178 
L 336.317723 230.115305 
L 336.380499 230.115305 
L 336.443276 229.900281 
L 336.506052 230.007794 
L 336.945488 229.873735 
L 337.071041 230.546681 
L 337.196594 230.224144 
L 337.322147 230.682067 
L 337.573252 230.143178 
L 337.824358 230.250691 
L 337.887135 230.196271 
L 338.075464 230.89709 
L 338.263794 229.873735 
L 338.32657 229.981247 
L 338.5149 230.682067 
L 338.577676 230.573227 
L 338.640453 229.926828 
L 338.703229 230.062214 
L 338.954335 229.657382 
L 339.142664 230.250691 
L 339.205441 229.926828 
L 339.268217 230.224144 
L 339.330994 230.062214 
L 339.456547 229.387939 
L 339.5821 230.196271 
L 339.644876 230.034339 
L 339.833206 230.331657 
L 339.895982 230.250691 
L 339.958759 229.926828 
L 340.021535 230.303784 
L 340.084312 230.007794 
L 340.272641 230.465714 
L 340.398194 230.331657 
L 340.46097 230.38475 
L 340.586523 230.115305 
L 340.712076 230.682067 
L 340.774853 230.627647 
L 340.837629 230.763033 
L 340.963182 230.250691 
L 341.088735 230.627647 
L 341.151512 230.6011 
L 341.214288 230.303784 
L 341.277065 230.358204 
L 341.465394 230.843999 
L 341.653723 230.573227 
L 341.842053 231.113443 
L 342.155935 230.196271 
L 342.281488 230.73516 
L 342.469818 229.873735 
L 342.658147 230.89709 
L 342.7837 230.115305 
L 342.846476 230.412623 
L 342.909253 230.38475 
L 343.034806 230.573227 
L 343.097582 230.520134 
L 343.160359 230.088758 
L 343.223135 230.224144 
L 343.285912 230.358204 
L 343.411465 229.819315 
L 343.537018 230.763033 
L 343.599794 230.682067 
L 343.662571 230.062214 
L 343.725347 230.224144 
L 343.788124 230.062214 
L 343.8509 230.277237 
L 343.913676 230.034339 
L 343.976453 230.088758 
L 344.102006 230.38475 
L 344.227559 229.900281 
L 344.290335 230.520134 
L 344.353112 230.358204 
L 344.541441 230.654194 
L 344.792547 230.303784 
L 344.855324 230.412623 
L 344.980877 231.004603 
L 345.169206 230.277237 
L 345.231982 230.43917 
L 345.294759 230.007794 
L 345.545865 230.978057 
L 345.859747 229.764895 
L 345.922524 230.196271 
L 346.17363 230.627647 
L 346.299183 230.978057 
L 346.361959 230.95151 
L 346.613065 230.412623 
L 346.675841 230.43917 
L 346.738618 230.49359 
L 346.864171 230.978057 
L 346.926947 230.870546 
L 347.0525 230.763033 
L 347.178053 230.088758 
L 347.303606 230.843999 
L 347.429159 230.465714 
L 347.491936 230.89709 
L 347.554712 230.654194 
L 347.743041 230.923637 
L 347.868594 230.6011 
L 347.931371 230.763033 
L 347.994147 230.708613 
L 348.056924 230.73516 
L 348.182477 230.412623 
L 348.245253 230.465714 
L 348.30803 230.465714 
L 348.433583 230.816126 
L 348.496359 230.358204 
L 348.559136 230.520134 
L 348.621912 230.520134 
L 348.810242 230.062214 
L 348.873018 229.981247 
L 348.935794 229.711802 
L 349.1869 230.303784 
L 349.249677 229.657382 
L 349.312453 229.873735 
L 349.37523 230.546681 
L 349.438006 230.331657 
L 349.500783 230.331657 
L 349.689112 229.900281 
L 349.751889 230.196271 
L 349.814665 230.007794 
L 349.877442 229.792768 
L 349.940218 229.819315 
L 350.065771 230.034339 
L 350.191324 230.412623 
L 350.316877 230.250691 
L 350.505206 229.576418 
L 350.567983 229.845861 
L 350.693536 230.062214 
L 350.756312 229.981247 
L 350.819089 229.657382 
L 350.881865 229.819315 
L 351.007418 230.250691 
L 351.195748 229.981247 
L 351.321301 230.331657 
L 351.384077 230.654194 
L 351.446853 230.520134 
L 351.50963 229.764895 
L 351.572406 230.169724 
L 351.635183 230.358204 
L 351.823512 229.657382 
L 351.949065 230.546681 
L 352.011842 230.088758 
L 352.074618 230.115305 
L 352.137395 230.007794 
L 352.262948 230.43917 
L 352.325724 229.819315 
L 352.388501 229.981247 
L 352.57683 229.873735 
L 352.890712 229.630838 
L 353.079042 230.465714 
L 353.267371 230.43917 
L 353.518477 230.115305 
L 353.769583 230.870546 
L 354.020689 229.981247 
L 354.083465 229.981247 
L 354.209018 230.49359 
L 354.334571 229.953374 
L 354.648454 230.250691 
L 354.836783 229.792768 
L 354.962336 230.250691 
L 355.150666 229.981247 
L 355.213442 230.034339 
L 355.338995 230.546681 
L 355.527324 230.358204 
L 355.841207 230.250691 
L 355.903983 230.331657 
L 356.029536 230.816126 
L 356.217866 229.953374 
L 356.280642 230.007794 
L 356.343419 230.38475 
L 356.406195 230.143178 
L 356.657301 230.870546 
L 356.720077 230.843999 
L 356.84563 230.654194 
L 356.908407 230.843999 
L 356.971183 230.412623 
L 357.03396 230.573227 
L 357.159513 230.73516 
L 357.285066 230.062214 
L 357.347842 230.43917 
L 357.410619 229.981247 
L 357.473395 230.196271 
L 357.536172 230.007794 
L 357.661725 230.816126 
L 357.724501 230.78958 
L 357.850054 230.520134 
L 357.91283 230.546681 
L 358.038383 230.73516 
L 358.289489 230.277237 
L 358.352266 230.224144 
L 358.415042 229.981247 
L 358.477819 230.034339 
L 358.666148 230.6011 
L 358.728925 230.277237 
L 358.791701 230.38475 
L 358.917254 230.95151 
L 359.042807 230.196271 
L 359.105583 230.6011 
L 359.231136 230.38475 
L 359.293913 230.49359 
L 359.482242 229.576418 
L 359.545019 229.953374 
L 359.607795 229.926828 
L 359.796125 229.683929 
L 359.984454 230.303784 
L 360.23556 230.034339 
L 360.298336 230.277237 
L 360.486666 229.657382 
L 360.863325 230.654194 
L 361.051654 230.546681 
L 361.239984 230.331657 
L 361.428313 230.520134 
L 361.679419 229.926828 
L 361.742195 229.981247 
L 361.804972 230.49359 
L 361.867748 230.358204 
L 362.056078 230.708613 
L 362.181631 230.412623 
L 362.244407 230.49359 
L 362.36996 230.654194 
L 362.432737 230.6011 
L 362.495513 230.224144 
L 362.55829 230.331657 
L 362.683843 230.78958 
L 362.746619 230.708613 
L 362.809395 230.38475 
L 362.872172 230.654194 
L 362.934948 230.465714 
L 362.997725 230.520134 
L 363.060501 230.816126 
L 363.123278 230.627647 
L 363.248831 230.546681 
L 363.311607 230.627647 
L 363.499937 230.115305 
L 363.562713 230.088758 
L 363.688266 230.520134 
L 363.751043 230.870546 
L 363.813819 230.546681 
L 363.876596 230.78958 
L 363.939372 230.978057 
L 364.064925 230.78958 
L 364.127701 230.923637 
L 364.190478 230.78958 
L 364.316031 231.004603 
L 364.567137 230.573227 
L 364.755466 231.139989 
L 364.881019 230.358204 
L 364.943796 230.654194 
L 365.132125 230.654194 
L 365.194902 230.412623 
L 365.257678 230.573227 
L 365.508784 230.43917 
L 365.57156 230.088758 
L 365.634337 230.303784 
L 365.885443 230.870546 
L 365.948219 230.708613 
L 366.010996 230.78958 
L 366.073772 230.923637 
L 366.262102 230.6011 
L 366.513207 230.89709 
L 366.63876 230.062214 
L 366.701537 230.088758 
L 366.764313 230.224144 
L 366.889866 231.08557 
L 366.952643 230.73516 
L 367.015419 230.78958 
L 367.078196 230.763033 
L 367.140972 230.573227 
L 367.203749 230.73516 
L 367.392078 230.6011 
L 367.580408 230.870546 
L 367.768737 230.95151 
L 367.831513 230.73516 
L 367.89429 230.843999 
L 368.019843 230.682067 
L 368.082619 230.816126 
L 368.145396 230.978057 
L 368.396502 230.115305 
L 368.522055 229.845861 
L 368.710384 230.708613 
L 368.835937 231.08557 
L 369.024266 230.520134 
L 369.087043 230.816126 
L 369.149819 230.654194 
L 369.275372 230.224144 
L 369.338149 230.303784 
L 369.400925 230.358204 
L 369.526478 230.6011 
L 369.903137 229.495452 
L 370.21702 230.6011 
L 370.279796 230.573227 
L 370.405349 229.981247 
L 370.468125 230.115305 
L 370.656455 231.004603 
L 370.719231 230.95151 
L 370.907561 230.034339 
L 370.970337 230.062214 
L 371.158667 230.843999 
L 371.28422 230.303784 
L 371.409773 230.358204 
L 371.535325 230.654194 
L 371.598102 230.520134 
L 371.786431 229.953374 
L 371.974761 229.602963 
L 372.100314 230.358204 
L 372.16309 230.034339 
L 372.288643 229.981247 
L 372.414196 230.224144 
L 372.476973 230.169724 
L 372.539749 229.819315 
L 372.602526 230.007794 
L 372.853631 230.816126 
L 372.916408 230.708613 
L 373.041961 229.792768 
L 373.167514 230.49359 
L 373.355843 230.169724 
L 373.41862 230.277237 
L 373.481396 230.73516 
L 373.544173 230.708613 
L 373.669726 229.926828 
L 373.732502 230.196271 
L 373.795279 230.277237 
L 373.858055 229.738349 
L 373.920832 229.981247 
L 374.234714 230.654194 
L 374.360267 230.43917 
L 374.423043 230.169724 
L 374.48582 230.331657 
L 374.548596 230.143178 
L 374.611373 230.546681 
L 374.674149 230.277237 
L 374.736926 230.034339 
L 374.799702 230.358204 
L 374.862479 230.224144 
L 374.925255 230.115305 
L 374.988032 230.169724 
L 375.050808 230.43917 
L 375.176361 229.764895 
L 375.301914 230.007794 
L 375.490243 229.387939 
L 375.615796 230.277237 
L 375.678573 230.115305 
L 375.804126 230.224144 
L 375.866902 230.49359 
L 375.992455 230.007794 
L 376.055232 230.088758 
L 376.180785 230.465714 
L 376.243561 230.412623 
L 376.369114 230.358204 
L 376.431891 230.682067 
L 376.494667 230.546681 
L 376.557443 230.654194 
L 376.745773 230.115305 
L 376.996879 230.627647 
L 377.185208 229.819315 
L 377.310761 230.6011 
L 377.373538 230.412623 
L 377.436314 230.520134 
L 377.561867 230.816126 
L 377.624644 230.465714 
L 377.68742 230.6011 
L 377.812973 230.520134 
L 377.875749 230.546681 
L 377.938526 230.43917 
L 378.126855 231.059023 
L 378.440738 230.520134 
L 378.503514 230.520134 
L 378.566291 231.194409 
L 378.629067 231.139989 
L 378.75462 230.412623 
L 378.880173 230.816126 
L 379.005726 230.034339 
L 379.194055 230.627647 
L 379.256832 230.358204 
L 379.319608 230.546681 
L 379.382385 230.708613 
L 379.445161 230.573227 
L 379.570714 230.358204 
L 379.633491 230.49359 
L 379.759044 231.08557 
L 379.884597 230.088758 
L 379.947373 230.303784 
L 380.135703 230.923637 
L 380.324032 230.331657 
L 380.449585 230.654194 
L 380.512361 230.358204 
L 380.575138 230.43917 
L 380.637914 231.004603 
L 380.700691 230.870546 
L 380.88902 230.573227 
L 380.951797 230.78958 
L 381.014573 230.73516 
L 381.140126 230.277237 
L 381.328456 230.708613 
L 381.454009 230.331657 
L 381.579562 230.682067 
L 381.705114 230.088758 
L 381.893444 230.654194 
L 382.018997 230.520134 
L 382.207326 229.900281 
L 382.332879 230.358204 
L 382.521209 229.981247 
L 382.646762 230.520134 
L 382.835091 230.007794 
L 382.960644 230.196271 
L 383.02342 230.38475 
L 383.148973 229.926828 
L 383.274526 230.465714 
L 383.337303 230.250691 
L 383.525632 230.78958 
L 383.713962 230.088758 
L 383.839515 230.708613 
L 383.965068 230.520134 
L 384.027844 230.6011 
L 384.153397 230.43917 
L 384.27895 230.708613 
L 384.530056 230.169724 
L 384.655609 230.465714 
L 384.718385 230.763033 
L 384.781162 230.73516 
L 384.843938 230.224144 
L 384.906715 230.303784 
L 385.095044 230.816126 
L 385.283374 230.277237 
L 385.534479 231.166536 
L 385.660032 230.224144 
L 385.722809 230.38475 
L 385.848362 230.465714 
L 385.973915 230.169724 
L 386.162244 230.6011 
L 386.287797 230.627647 
L 386.350574 230.708613 
L 386.41335 230.520134 
L 386.476127 230.682067 
L 386.538903 230.627647 
L 386.727232 230.277237 
L 386.915562 230.682067 
L 386.978338 230.6011 
L 387.103891 230.250691 
L 387.229444 230.923637 
L 387.292221 230.573227 
L 387.354997 230.95151 
L 387.417774 230.816126 
L 387.543327 230.224144 
L 387.606103 230.573227 
L 387.66888 230.412623 
L 387.794433 230.196271 
L 388.045538 230.49359 
L 388.108315 230.654194 
L 388.171091 230.465714 
L 388.233868 230.682067 
L 388.359421 230.303784 
L 388.484974 230.546681 
L 388.610527 230.277237 
L 388.73608 231.032476 
L 388.861633 230.654194 
L 388.861633 230.654194 
" style="fill:none;stroke:#1f77b4;stroke-linecap:round;stroke-width:1.5;"/>
   </g>
   <g id="line2d_13">
    <path clip-path="url(#p855facf394)" d="M 87.43052 289 
L 87.434341 -1 
M 87.962798 -1 
L 87.966321 289 
M 88.032276 289 
L 88.036764 240.386034 
L 88.056045 289 
" style="fill:none;stroke:#ff7f0e;stroke-linecap:round;stroke-width:1.5;"/>
   </g>
   <g id="patch_3">
    <path d="M 54 252 
L 54 34.56 
" style="fill:none;stroke:#cccccc;stroke-linecap:square;stroke-linejoin:miter;stroke-width:0.8;"/>
   </g>
   <g id="patch_4">
    <path d="M 388.8 252 
L 388.8 34.56 
" style="fill:none;stroke:#cccccc;stroke-linecap:square;stroke-linejoin:miter;stroke-width:0.8;"/>
   </g>
   <g id="patch_5">
    <path d="M 54 252 
L 388.8 252 
" style="fill:none;stroke:#cccccc;stroke-linecap:square;stroke-linejoin:miter;stroke-width:0.8;"/>
   </g>
   <g id="patch_6">
    <path d="M 54 34.56 
L 388.8 34.56 
" style="fill:none;stroke:#cccccc;stroke-linecap:square;stroke-linejoin:miter;stroke-width:0.8;"/>
   </g>
  </g>
 </g>
 <defs>
  <clipPath id="p855facf394">
   <rect height="217.44" width="334.8" x="54" y="34.56"/>
  </clipPath>
 </defs>
</svg>
