<?xml version="1.0" encoding="utf-8" standalone="no"?>
<!DOCTYPE svg PUBLIC "-//W3C//DTD SVG 1.1//EN"
  "http://www.w3.org/Graphics/SVG/1.1/DTD/svg11.dtd">
<!-- Created with matplotlib (https://matplotlib.org/) -->
<svg height="288pt" version="1.1" viewBox="0 0 432 288" width="432pt" xmlns="http://www.w3.org/2000/svg" xmlns:xlink="http://www.w3.org/1999/xlink">
 <metadata>
  <rdf:RDF xmlns:cc="http://creativecommons.org/ns#" xmlns:dc="http://purl.org/dc/elements/1.1/" xmlns:rdf="http://www.w3.org/1999/02/22-rdf-syntax-ns#">
   <cc:Work>
    <dc:type rdf:resource="http://purl.org/dc/dcmitype/StillImage"/>
    <dc:date>2022-05-25T22:50:37.705014</dc:date>
    <dc:format>image/svg+xml</dc:format>
    <dc:creator>
     <cc:Agent>
      <dc:title>Matplotlib v3.3.3, https://matplotlib.org/</dc:title>
     </cc:Agent>
    </dc:creator>
   </cc:Work>
  </rdf:RDF>
 </metadata>
 <defs>
  <style type="text/css">*{stroke-linecap:butt;stroke-linejoin:round;}</style>
 </defs>
 <g id="figure_1">
  <g id="patch_1">
   <path d="M 0 288 
L 432 288 
L 432 0 
L 0 0 
z
" style="fill:#ffffff;"/>
  </g>
  <g id="axes_1">
   <g id="patch_2">
    <path d="M 54 252 
L 388.8 252 
L 388.8 34.56 
L 54 34.56 
z
" style="fill:#ffffff;"/>
   </g>
   <g id="matplotlib.axis_1">
    <g id="xtick_1">
     <g id="line2d_1">
      <path clip-path="url(#p11f4624964)" d="M 54 252 
L 54 34.56 
" style="fill:none;stroke:#cccccc;stroke-linecap:round;stroke-width:0.8;"/>
     </g>
     <g id="text_1">
      <!-- 0.00039 -->
      <g style="fill:#262626;" transform="translate(35.928125 266.157812)scale(0.1 -0.1)">
       <defs>
        <path d="M 4.15625 35.296875 
Q 4.15625 48 6.765625 55.734375 
Q 9.375 63.484375 14.515625 67.671875 
Q 19.671875 71.875 27.484375 71.875 
Q 33.25 71.875 37.59375 69.546875 
Q 41.9375 67.234375 44.765625 62.859375 
Q 47.609375 58.5 49.21875 52.21875 
Q 50.828125 45.953125 50.828125 35.296875 
Q 50.828125 22.703125 48.234375 14.96875 
Q 45.65625 7.234375 40.5 3 
Q 35.359375 -1.21875 27.484375 -1.21875 
Q 17.140625 -1.21875 11.234375 6.203125 
Q 4.15625 15.140625 4.15625 35.296875 
z
M 13.1875 35.296875 
Q 13.1875 17.671875 17.3125 11.828125 
Q 21.4375 6 27.484375 6 
Q 33.546875 6 37.671875 11.859375 
Q 41.796875 17.71875 41.796875 35.296875 
Q 41.796875 52.984375 37.671875 58.78125 
Q 33.546875 64.59375 27.390625 64.59375 
Q 21.34375 64.59375 17.71875 59.46875 
Q 13.1875 52.9375 13.1875 35.296875 
z
" id="ArialMT-48"/>
        <path d="M 9.078125 0 
L 9.078125 10.015625 
L 19.09375 10.015625 
L 19.09375 0 
z
" id="ArialMT-46"/>
        <path d="M 4.203125 18.890625 
L 12.984375 20.0625 
Q 14.5 12.59375 18.140625 9.296875 
Q 21.78125 6 27 6 
Q 33.203125 6 37.46875 10.296875 
Q 41.75 14.59375 41.75 20.953125 
Q 41.75 27 37.796875 30.921875 
Q 33.84375 34.859375 27.734375 34.859375 
Q 25.25 34.859375 21.53125 33.890625 
L 22.515625 41.609375 
Q 23.390625 41.5 23.921875 41.5 
Q 29.546875 41.5 34.03125 44.421875 
Q 38.53125 47.359375 38.53125 53.46875 
Q 38.53125 58.296875 35.25 61.46875 
Q 31.984375 64.65625 26.8125 64.65625 
Q 21.6875 64.65625 18.265625 61.421875 
Q 14.84375 58.203125 13.875 51.765625 
L 5.078125 53.328125 
Q 6.6875 62.15625 12.390625 67.015625 
Q 18.109375 71.875 26.609375 71.875 
Q 32.46875 71.875 37.390625 69.359375 
Q 42.328125 66.84375 44.9375 62.5 
Q 47.5625 58.15625 47.5625 53.265625 
Q 47.5625 48.640625 45.0625 44.828125 
Q 42.578125 41.015625 37.703125 38.765625 
Q 44.046875 37.3125 47.5625 32.6875 
Q 51.078125 28.078125 51.078125 21.140625 
Q 51.078125 11.765625 44.234375 5.25 
Q 37.40625 -1.265625 26.953125 -1.265625 
Q 17.53125 -1.265625 11.296875 4.34375 
Q 5.078125 9.96875 4.203125 18.890625 
z
" id="ArialMT-51"/>
        <path d="M 5.46875 16.546875 
L 13.921875 17.328125 
Q 14.984375 11.375 18.015625 8.6875 
Q 21.046875 6 25.78125 6 
Q 29.828125 6 32.875 7.859375 
Q 35.9375 9.71875 37.890625 12.8125 
Q 39.84375 15.921875 41.15625 21.1875 
Q 42.484375 26.46875 42.484375 31.9375 
Q 42.484375 32.515625 42.4375 33.6875 
Q 39.796875 29.5 35.234375 26.875 
Q 30.671875 24.265625 25.34375 24.265625 
Q 16.453125 24.265625 10.296875 30.703125 
Q 4.15625 37.15625 4.15625 47.703125 
Q 4.15625 58.59375 10.578125 65.234375 
Q 17 71.875 26.65625 71.875 
Q 33.640625 71.875 39.421875 68.109375 
Q 45.21875 64.359375 48.21875 57.390625 
Q 51.21875 50.4375 51.21875 37.25 
Q 51.21875 23.53125 48.234375 15.40625 
Q 45.265625 7.28125 39.375 3.03125 
Q 33.5 -1.21875 25.59375 -1.21875 
Q 17.1875 -1.21875 11.859375 3.4375 
Q 6.546875 8.109375 5.46875 16.546875 
z
M 41.453125 48.140625 
Q 41.453125 55.71875 37.421875 60.15625 
Q 33.40625 64.59375 27.734375 64.59375 
Q 21.875 64.59375 17.53125 59.8125 
Q 13.1875 55.03125 13.1875 47.40625 
Q 13.1875 40.578125 17.3125 36.296875 
Q 21.4375 32.03125 27.484375 32.03125 
Q 33.59375 32.03125 37.515625 36.296875 
Q 41.453125 40.578125 41.453125 48.140625 
z
" id="ArialMT-57"/>
       </defs>
       <use xlink:href="#ArialMT-48"/>
       <use x="55.615234" xlink:href="#ArialMT-46"/>
       <use x="83.398438" xlink:href="#ArialMT-48"/>
       <use x="139.013672" xlink:href="#ArialMT-48"/>
       <use x="194.628906" xlink:href="#ArialMT-48"/>
       <use x="250.244141" xlink:href="#ArialMT-51"/>
       <use x="305.859375" xlink:href="#ArialMT-57"/>
      </g>
     </g>
    </g>
    <g id="xtick_2">
     <g id="line2d_2">
      <path clip-path="url(#p11f4624964)" d="M 120.96 252 
L 120.96 34.56 
" style="fill:none;stroke:#cccccc;stroke-linecap:round;stroke-width:0.8;"/>
     </g>
     <g id="text_2">
      <!-- 0.00040 -->
      <g style="fill:#262626;" transform="translate(102.888125 266.157812)scale(0.1 -0.1)">
       <defs>
        <path d="M 32.328125 0 
L 32.328125 17.140625 
L 1.265625 17.140625 
L 1.265625 25.203125 
L 33.9375 71.578125 
L 41.109375 71.578125 
L 41.109375 25.203125 
L 50.78125 25.203125 
L 50.78125 17.140625 
L 41.109375 17.140625 
L 41.109375 0 
z
M 32.328125 25.203125 
L 32.328125 57.46875 
L 9.90625 25.203125 
z
" id="ArialMT-52"/>
       </defs>
       <use xlink:href="#ArialMT-48"/>
       <use x="55.615234" xlink:href="#ArialMT-46"/>
       <use x="83.398438" xlink:href="#ArialMT-48"/>
       <use x="139.013672" xlink:href="#ArialMT-48"/>
       <use x="194.628906" xlink:href="#ArialMT-48"/>
       <use x="250.244141" xlink:href="#ArialMT-52"/>
       <use x="305.859375" xlink:href="#ArialMT-48"/>
      </g>
     </g>
    </g>
    <g id="xtick_3">
     <g id="line2d_3">
      <path clip-path="url(#p11f4624964)" d="M 187.92 252 
L 187.92 34.56 
" style="fill:none;stroke:#cccccc;stroke-linecap:round;stroke-width:0.8;"/>
     </g>
     <g id="text_3">
      <!-- 0.00041 -->
      <g style="fill:#262626;" transform="translate(169.848125 266.157812)scale(0.1 -0.1)">
       <defs>
        <path d="M 37.25 0 
L 28.46875 0 
L 28.46875 56 
Q 25.296875 52.984375 20.140625 49.953125 
Q 14.984375 46.921875 10.890625 45.40625 
L 10.890625 53.90625 
Q 18.265625 57.375 23.78125 62.296875 
Q 29.296875 67.234375 31.59375 71.875 
L 37.25 71.875 
z
" id="ArialMT-49"/>
       </defs>
       <use xlink:href="#ArialMT-48"/>
       <use x="55.615234" xlink:href="#ArialMT-46"/>
       <use x="83.398438" xlink:href="#ArialMT-48"/>
       <use x="139.013672" xlink:href="#ArialMT-48"/>
       <use x="194.628906" xlink:href="#ArialMT-48"/>
       <use x="250.244141" xlink:href="#ArialMT-52"/>
       <use x="305.859375" xlink:href="#ArialMT-49"/>
      </g>
     </g>
    </g>
    <g id="xtick_4">
     <g id="line2d_4">
      <path clip-path="url(#p11f4624964)" d="M 254.88 252 
L 254.88 34.56 
" style="fill:none;stroke:#cccccc;stroke-linecap:round;stroke-width:0.8;"/>
     </g>
     <g id="text_4">
      <!-- 0.00042 -->
      <g style="fill:#262626;" transform="translate(236.808125 266.157812)scale(0.1 -0.1)">
       <defs>
        <path d="M 50.34375 8.453125 
L 50.34375 0 
L 3.03125 0 
Q 2.9375 3.171875 4.046875 6.109375 
Q 5.859375 10.9375 9.828125 15.625 
Q 13.8125 20.3125 21.34375 26.46875 
Q 33.015625 36.03125 37.109375 41.625 
Q 41.21875 47.21875 41.21875 52.203125 
Q 41.21875 57.421875 37.46875 61 
Q 33.734375 64.59375 27.734375 64.59375 
Q 21.390625 64.59375 17.578125 60.78125 
Q 13.765625 56.984375 13.71875 50.25 
L 4.6875 51.171875 
Q 5.609375 61.28125 11.65625 66.578125 
Q 17.71875 71.875 27.9375 71.875 
Q 38.234375 71.875 44.234375 66.15625 
Q 50.25 60.453125 50.25 52 
Q 50.25 47.703125 48.484375 43.546875 
Q 46.734375 39.40625 42.65625 34.8125 
Q 38.578125 30.21875 29.109375 22.21875 
Q 21.1875 15.578125 18.9375 13.203125 
Q 16.703125 10.84375 15.234375 8.453125 
z
" id="ArialMT-50"/>
       </defs>
       <use xlink:href="#ArialMT-48"/>
       <use x="55.615234" xlink:href="#ArialMT-46"/>
       <use x="83.398438" xlink:href="#ArialMT-48"/>
       <use x="139.013672" xlink:href="#ArialMT-48"/>
       <use x="194.628906" xlink:href="#ArialMT-48"/>
       <use x="250.244141" xlink:href="#ArialMT-52"/>
       <use x="305.859375" xlink:href="#ArialMT-50"/>
      </g>
     </g>
    </g>
    <g id="xtick_5">
     <g id="line2d_5">
      <path clip-path="url(#p11f4624964)" d="M 321.84 252 
L 321.84 34.56 
" style="fill:none;stroke:#cccccc;stroke-linecap:round;stroke-width:0.8;"/>
     </g>
     <g id="text_5">
      <!-- 0.00043 -->
      <g style="fill:#262626;" transform="translate(303.768125 266.157812)scale(0.1 -0.1)">
       <use xlink:href="#ArialMT-48"/>
       <use x="55.615234" xlink:href="#ArialMT-46"/>
       <use x="83.398438" xlink:href="#ArialMT-48"/>
       <use x="139.013672" xlink:href="#ArialMT-48"/>
       <use x="194.628906" xlink:href="#ArialMT-48"/>
       <use x="250.244141" xlink:href="#ArialMT-52"/>
       <use x="305.859375" xlink:href="#ArialMT-51"/>
      </g>
     </g>
    </g>
    <g id="xtick_6">
     <g id="line2d_6">
      <path clip-path="url(#p11f4624964)" d="M 388.8 252 
L 388.8 34.56 
" style="fill:none;stroke:#cccccc;stroke-linecap:round;stroke-width:0.8;"/>
     </g>
     <g id="text_6">
      <!-- 0.00044 -->
      <g style="fill:#262626;" transform="translate(370.728125 266.157812)scale(0.1 -0.1)">
       <use xlink:href="#ArialMT-48"/>
       <use x="55.615234" xlink:href="#ArialMT-46"/>
       <use x="83.398438" xlink:href="#ArialMT-48"/>
       <use x="139.013672" xlink:href="#ArialMT-48"/>
       <use x="194.628906" xlink:href="#ArialMT-48"/>
       <use x="250.244141" xlink:href="#ArialMT-52"/>
       <use x="305.859375" xlink:href="#ArialMT-52"/>
      </g>
     </g>
    </g>
   </g>
   <g id="matplotlib.axis_2">
    <g id="ytick_1">
     <g id="line2d_7">
      <path clip-path="url(#p11f4624964)" d="M 54 252 
L 388.8 252 
" style="fill:none;stroke:#cccccc;stroke-linecap:round;stroke-width:0.8;"/>
     </g>
     <g id="text_7">
      <!-- 0.005 -->
      <g style="fill:#262626;" transform="translate(21.978125 255.578906)scale(0.1 -0.1)">
       <defs>
        <path d="M 4.15625 18.75 
L 13.375 19.53125 
Q 14.40625 12.796875 18.140625 9.390625 
Q 21.875 6 27.15625 6 
Q 33.5 6 37.890625 10.78125 
Q 42.28125 15.578125 42.28125 23.484375 
Q 42.28125 31 38.0625 35.34375 
Q 33.84375 39.703125 27 39.703125 
Q 22.75 39.703125 19.328125 37.765625 
Q 15.921875 35.84375 13.96875 32.765625 
L 5.71875 33.84375 
L 12.640625 70.609375 
L 48.25 70.609375 
L 48.25 62.203125 
L 19.671875 62.203125 
L 15.828125 42.96875 
Q 22.265625 47.46875 29.34375 47.46875 
Q 38.71875 47.46875 45.15625 40.96875 
Q 51.609375 34.46875 51.609375 24.265625 
Q 51.609375 14.546875 45.953125 7.46875 
Q 39.0625 -1.21875 27.15625 -1.21875 
Q 17.390625 -1.21875 11.203125 4.25 
Q 5.03125 9.71875 4.15625 18.75 
z
" id="ArialMT-53"/>
       </defs>
       <use xlink:href="#ArialMT-48"/>
       <use x="55.615234" xlink:href="#ArialMT-46"/>
       <use x="83.398438" xlink:href="#ArialMT-48"/>
       <use x="139.013672" xlink:href="#ArialMT-48"/>
       <use x="194.628906" xlink:href="#ArialMT-53"/>
      </g>
     </g>
    </g>
    <g id="ytick_2">
     <g id="line2d_8">
      <path clip-path="url(#p11f4624964)" d="M 54 215.76 
L 388.8 215.76 
" style="fill:none;stroke:#cccccc;stroke-linecap:round;stroke-width:0.8;"/>
     </g>
     <g id="text_8">
      <!-- 0.010 -->
      <g style="fill:#262626;" transform="translate(21.978125 219.338906)scale(0.1 -0.1)">
       <use xlink:href="#ArialMT-48"/>
       <use x="55.615234" xlink:href="#ArialMT-46"/>
       <use x="83.398438" xlink:href="#ArialMT-48"/>
       <use x="139.013672" xlink:href="#ArialMT-49"/>
       <use x="194.628906" xlink:href="#ArialMT-48"/>
      </g>
     </g>
    </g>
    <g id="ytick_3">
     <g id="line2d_9">
      <path clip-path="url(#p11f4624964)" d="M 54 179.52 
L 388.8 179.52 
" style="fill:none;stroke:#cccccc;stroke-linecap:round;stroke-width:0.8;"/>
     </g>
     <g id="text_9">
      <!-- 0.015 -->
      <g style="fill:#262626;" transform="translate(21.978125 183.098906)scale(0.1 -0.1)">
       <use xlink:href="#ArialMT-48"/>
       <use x="55.615234" xlink:href="#ArialMT-46"/>
       <use x="83.398438" xlink:href="#ArialMT-48"/>
       <use x="139.013672" xlink:href="#ArialMT-49"/>
       <use x="194.628906" xlink:href="#ArialMT-53"/>
      </g>
     </g>
    </g>
    <g id="ytick_4">
     <g id="line2d_10">
      <path clip-path="url(#p11f4624964)" d="M 54 143.28 
L 388.8 143.28 
" style="fill:none;stroke:#cccccc;stroke-linecap:round;stroke-width:0.8;"/>
     </g>
     <g id="text_10">
      <!-- 0.020 -->
      <g style="fill:#262626;" transform="translate(21.978125 146.858906)scale(0.1 -0.1)">
       <use xlink:href="#ArialMT-48"/>
       <use x="55.615234" xlink:href="#ArialMT-46"/>
       <use x="83.398438" xlink:href="#ArialMT-48"/>
       <use x="139.013672" xlink:href="#ArialMT-50"/>
       <use x="194.628906" xlink:href="#ArialMT-48"/>
      </g>
     </g>
    </g>
    <g id="ytick_5">
     <g id="line2d_11">
      <path clip-path="url(#p11f4624964)" d="M 54 107.04 
L 388.8 107.04 
" style="fill:none;stroke:#cccccc;stroke-linecap:round;stroke-width:0.8;"/>
     </g>
     <g id="text_11">
      <!-- 0.025 -->
      <g style="fill:#262626;" transform="translate(21.978125 110.618906)scale(0.1 -0.1)">
       <use xlink:href="#ArialMT-48"/>
       <use x="55.615234" xlink:href="#ArialMT-46"/>
       <use x="83.398438" xlink:href="#ArialMT-48"/>
       <use x="139.013672" xlink:href="#ArialMT-50"/>
       <use x="194.628906" xlink:href="#ArialMT-53"/>
      </g>
     </g>
    </g>
    <g id="ytick_6">
     <g id="line2d_12">
      <path clip-path="url(#p11f4624964)" d="M 54 70.8 
L 388.8 70.8 
" style="fill:none;stroke:#cccccc;stroke-linecap:round;stroke-width:0.8;"/>
     </g>
     <g id="text_12">
      <!-- 0.030 -->
      <g style="fill:#262626;" transform="translate(21.978125 74.378906)scale(0.1 -0.1)">
       <use xlink:href="#ArialMT-48"/>
       <use x="55.615234" xlink:href="#ArialMT-46"/>
       <use x="83.398438" xlink:href="#ArialMT-48"/>
       <use x="139.013672" xlink:href="#ArialMT-51"/>
       <use x="194.628906" xlink:href="#ArialMT-48"/>
      </g>
     </g>
    </g>
    <g id="ytick_7">
     <g id="line2d_13">
      <path clip-path="url(#p11f4624964)" d="M 54 34.56 
L 388.8 34.56 
" style="fill:none;stroke:#cccccc;stroke-linecap:round;stroke-width:0.8;"/>
     </g>
     <g id="text_13">
      <!-- 0.035 -->
      <g style="fill:#262626;" transform="translate(21.978125 38.138906)scale(0.1 -0.1)">
       <use xlink:href="#ArialMT-48"/>
       <use x="55.615234" xlink:href="#ArialMT-46"/>
       <use x="83.398438" xlink:href="#ArialMT-48"/>
       <use x="139.013672" xlink:href="#ArialMT-51"/>
       <use x="194.628906" xlink:href="#ArialMT-53"/>
      </g>
     </g>
    </g>
   </g>
   <g id="line2d_14">
    <path clip-path="url(#p11f4624964)" d="M 53.981431 230.590478 
L 54.065133 228.455719 
L 54.148835 229.229983 
L 54.316239 232.338104 
L 54.483643 231.56384 
L 54.651047 229.816213 
L 54.734749 232.537202 
L 54.902153 229.041949 
L 54.985856 229.429081 
L 55.15326 230.97761 
L 55.236962 229.816213 
L 55.320664 231.375806 
L 55.404366 230.402443 
L 55.57177 231.762938 
L 55.739174 229.041949 
L 55.822876 232.15007 
L 55.906579 231.950972 
L 55.990281 230.203345 
L 56.073983 230.402443 
L 56.241387 231.56384 
L 56.325089 231.375806 
L 56.408791 231.56384 
L 56.492493 230.203345 
L 56.659897 232.725237 
L 56.743599 233.123429 
L 57.16211 230.015311 
L 57.329514 230.015311 
L 57.58062 231.56384 
L 57.664322 231.375806 
L 57.748024 233.698599 
L 57.831727 230.97761 
L 57.915429 231.176708 
L 57.999131 229.816213 
L 58.082833 231.176708 
L 58.166535 230.97761 
L 58.250237 230.203345 
L 58.417641 230.789576 
L 58.585045 230.203345 
L 58.668747 231.375806 
L 58.752449 230.789576 
L 58.836152 226.90719 
L 59.003556 231.762938 
L 59.254662 229.229983 
L 59.505768 231.375806 
L 59.58947 231.56384 
L 59.673172 230.203345 
L 59.756875 230.590478 
L 59.840577 230.402443 
L 59.924279 231.762938 
L 60.007981 231.176708 
L 60.091683 229.041949 
L 60.175385 230.015311 
L 60.342789 229.041949 
L 60.510193 231.56384 
L 60.677598 231.176708 
L 60.7613 232.924335 
L 60.928704 231.762938 
L 61.012406 232.725237 
L 61.096108 231.950972 
L 61.17981 234.671958 
L 61.514618 230.590478 
L 61.59832 231.375806 
L 61.682023 229.628179 
L 61.765725 230.402443 
L 61.849427 229.229983 
L 61.933129 230.203345 
L 62.016831 230.015311 
L 62.100533 230.015311 
L 62.184235 229.229983 
L 62.351639 231.375806 
L 62.435341 230.97761 
L 62.519043 229.816213 
L 62.602746 231.176708 
L 62.686448 230.590478 
L 63.021256 234.671958 
L 63.104958 234.085731 
L 63.18866 230.97761 
L 63.272362 231.56384 
L 63.439766 233.311467 
L 63.690873 230.203345 
L 63.774575 231.375806 
L 63.858277 231.176708 
L 63.941979 230.203345 
L 64.025681 231.950972 
L 64.109383 230.97761 
L 64.276787 231.56384 
L 64.360489 230.402443 
L 64.444191 231.375806 
L 64.527894 230.203345 
L 64.611596 230.402443 
L 64.695298 230.97761 
L 64.862702 228.455719 
L 65.030106 231.950972 
L 65.19751 230.015311 
L 65.364914 231.950972 
L 65.532319 229.229983 
L 65.616021 228.068587 
L 65.867127 230.97761 
L 66.118233 228.068587 
L 66.285637 231.176708 
L 66.369339 229.628179 
L 66.536744 232.15007 
L 66.620446 229.229983 
L 66.704148 230.203345 
L 66.78785 228.455719 
L 66.871552 228.842851 
L 66.955254 228.842851 
L 67.20636 231.176708 
L 67.373765 230.203345 
L 67.541169 231.56384 
L 67.624871 231.56384 
L 67.792275 230.015311 
L 67.875977 228.842851 
L 67.959679 230.97761 
L 68.294487 228.842851 
L 68.461892 232.15007 
L 68.545594 229.628179 
L 68.629296 231.56384 
L 68.7967 228.842851 
L 68.964104 230.590478 
L 69.047806 229.429081 
L 69.298913 231.56384 
L 69.382615 230.203345 
L 69.466317 230.789576 
L 69.550019 230.590478 
L 69.633721 229.628179 
L 69.717423 229.816213 
L 69.884827 231.56384 
L 70.052231 230.203345 
L 70.219635 230.97761 
L 70.38704 230.402443 
L 70.554444 230.789576 
L 70.638146 230.97761 
L 70.889252 232.924335 
L 71.056656 229.628179 
L 71.140358 230.015311 
L 71.307763 230.789576 
L 71.391465 228.842851 
L 71.642571 231.56384 
L 71.809975 229.628179 
L 71.977379 232.537202 
L 72.061081 231.56384 
L 72.144784 231.762938 
L 72.228486 231.375806 
L 72.39589 231.950972 
L 72.479592 231.56384 
L 72.730698 234.085731 
L 73.149209 227.482363 
L 73.316613 230.789576 
L 73.400315 230.015311 
L 73.484017 229.628179 
L 73.567719 229.816213 
L 73.651421 229.229983 
L 73.818825 231.950972 
L 73.902527 229.628179 
L 74.069932 231.56384 
L 74.237336 231.176708 
L 74.321038 231.375806 
L 74.40474 229.229983 
L 74.655846 233.311467 
L 74.82325 231.176708 
L 74.906952 231.375806 
L 75.074357 230.590478 
L 75.158059 230.97761 
L 75.325463 229.229983 
L 75.409165 230.590478 
L 75.492867 229.429081 
L 75.827675 232.338104 
L 75.99508 230.590478 
L 76.078782 230.402443 
L 76.246186 232.15007 
L 76.41359 230.203345 
L 76.497292 231.176708 
L 76.580994 230.203345 
L 76.748398 232.338104 
L 76.915803 230.015311 
L 76.999505 230.590478 
L 77.083207 230.402443 
L 77.166909 229.041949 
L 77.250611 229.429081 
L 77.334313 229.816213 
L 77.501717 231.375806 
L 77.752823 232.725237 
L 77.920228 229.041949 
L 78.087632 231.762938 
L 78.255036 229.041949 
L 78.338738 230.590478 
L 78.506142 228.267684 
L 78.589844 228.842851 
L 78.673546 229.229983 
L 78.757248 229.041949 
L 78.924653 230.402443 
L 79.008355 229.628179 
L 79.092057 230.97761 
L 79.259461 229.041949 
L 79.426865 232.338104 
L 79.510567 230.402443 
L 79.677971 231.950972 
L 79.761673 227.869495 
L 79.845376 230.789576 
L 79.929078 230.590478 
L 80.01278 230.402443 
L 80.180184 227.869495 
L 80.347588 230.789576 
L 80.43129 230.402443 
L 80.514992 230.402443 
L 80.598694 226.90719 
L 80.766099 230.402443 
L 80.849801 230.015311 
L 81.017205 227.681454 
L 81.268311 229.816213 
L 81.352013 231.950972 
L 81.435715 231.762938 
L 81.603119 230.590478 
L 81.686821 231.176708 
L 81.770524 230.97761 
L 81.854226 230.789576 
L 82.02163 232.725237 
L 82.105332 230.402443 
L 82.189034 231.762938 
L 82.356438 229.229983 
L 82.523842 231.950972 
L 82.691247 230.402443 
L 82.774949 230.590478 
L 82.858651 231.56384 
L 83.026055 228.267684 
L 83.109757 228.654817 
L 83.277161 231.176708 
L 83.360863 230.789576 
L 83.61197 231.56384 
L 83.695672 231.375806 
L 83.779374 230.590478 
L 83.946778 233.123429 
L 84.03048 233.510561 
L 84.114182 231.56384 
L 84.197884 232.15007 
L 84.281586 231.176708 
L 84.365288 231.56384 
L 84.44899 231.375806 
L 84.700097 229.628179 
L 84.783799 228.068587 
L 85.034905 230.789576 
L 85.118607 230.789576 
L 85.202309 229.041949 
L 85.286011 230.789576 
L 85.369713 230.590478 
L 85.453415 231.762938 
L 85.537118 229.429081 
L 85.704522 230.402443 
L 85.788224 229.628179 
L 85.955628 231.950972 
L 86.03933 231.762938 
L 86.123032 230.97761 
L 86.206734 231.762938 
L 86.290436 231.56384 
L 86.374138 230.590478 
L 86.625245 232.15007 
L 86.792649 229.628179 
L 86.960053 231.56384 
L 87.127457 230.015311 
L 87.294861 230.789576 
L 87.378563 230.402443 
L 87.462266 230.97761 
L 87.62967 230.402443 
L 87.713372 230.402443 
L 87.797074 232.338104 
L 87.880776 229.229983 
L 88.04818 233.897694 
L 88.131882 233.311467 
L 88.466691 230.402443 
L 88.717797 232.725237 
L 88.885201 230.590478 
L 88.968903 232.537202 
L 89.052605 231.56384 
L 89.136307 232.537202 
L 89.387414 230.590478 
L 89.471116 230.203345 
L 89.554818 230.97761 
L 89.722222 228.455719 
L 89.805924 229.816213 
L 89.889626 229.429081 
L 89.973328 228.654817 
L 90.05703 230.402443 
L 90.140732 229.628179 
L 90.308137 233.897694 
L 90.391839 233.311467 
L 90.642945 230.402443 
L 90.726647 232.338104 
L 90.810349 231.375806 
L 90.894051 232.15007 
L 90.977753 231.762938 
L 91.145157 228.842851 
L 91.228859 230.590478 
L 91.312562 230.203345 
L 91.396264 230.015311 
L 91.563668 232.15007 
L 91.731072 228.842851 
L 91.814774 231.375806 
L 91.898476 231.176708 
L 91.982178 231.950972 
L 92.06588 230.97761 
L 92.149582 231.762938 
L 92.316987 228.842851 
L 92.400689 229.816213 
L 92.484391 228.842851 
L 92.651795 231.375806 
L 92.819199 229.429081 
L 93.070305 231.176708 
L 93.154007 229.041949 
L 93.23771 230.203345 
L 93.321412 228.654817 
L 93.572518 233.123429 
L 93.65622 232.537202 
L 93.739922 233.123429 
L 93.907326 230.203345 
L 93.991028 231.950972 
L 94.07473 231.375806 
L 94.242135 228.654817 
L 94.325837 230.590478 
L 94.409539 229.229983 
L 94.493241 229.429081 
L 94.576943 229.041949 
L 94.660645 229.429081 
L 94.828049 230.97761 
L 94.995453 228.455719 
L 95.079156 229.229983 
L 95.24656 227.482363 
L 95.413964 230.015311 
L 95.497666 230.402443 
L 95.66507 229.816213 
L 95.832474 230.590478 
L 95.916176 230.015311 
L 95.999878 230.97761 
L 96.167283 230.402443 
L 96.250985 232.725237 
L 96.502091 229.628179 
L 96.585793 230.015311 
L 96.669495 228.842851 
L 96.753197 230.97761 
L 96.920601 228.654817 
L 97.004304 228.842851 
L 97.088006 229.628179 
L 97.25541 232.537202 
L 97.422814 228.455719 
L 97.590218 231.176708 
L 97.67392 230.203345 
L 97.757622 230.97761 
L 97.841324 228.654817 
L 98.008729 231.375806 
L 98.176133 230.203345 
L 98.343537 231.950972 
L 98.510941 228.842851 
L 98.678345 231.56384 
L 98.762047 230.402443 
L 98.845749 231.950972 
L 98.929452 230.590478 
L 99.096856 232.338104 
L 99.26426 230.402443 
L 99.347962 233.311467 
L 99.599068 229.816213 
L 99.68277 231.56384 
L 99.766472 229.429081 
L 99.850174 229.816213 
L 99.933877 230.203345 
L 100.017579 231.176708 
L 100.184983 230.590478 
L 100.268685 231.762938 
L 100.436089 229.816213 
L 100.519791 231.56384 
L 100.603493 230.402443 
L 100.687195 230.590478 
L 100.770897 232.338104 
L 100.938302 231.375806 
L 101.189408 231.950972 
L 101.356812 230.789576 
L 101.440514 230.402443 
L 101.607918 233.123429 
L 101.859025 230.402443 
L 102.193833 231.762938 
L 102.361237 230.590478 
L 102.444939 230.97761 
L 102.612343 234.284826 
L 102.779748 231.950972 
L 102.86345 231.375806 
L 102.947152 232.338104 
L 103.030854 230.402443 
L 103.114556 231.176708 
L 103.28196 229.628179 
L 103.533066 233.698599 
L 103.784173 228.455719 
L 103.867875 233.311467 
L 103.951577 232.725237 
L 104.118981 229.429081 
L 104.286385 232.537202 
L 104.453789 231.375806 
L 104.537491 231.950972 
L 104.788598 228.455719 
L 105.039704 234.284826 
L 105.207108 228.842851 
L 105.374512 231.56384 
L 105.458214 231.176708 
L 105.541916 229.429081 
L 105.625619 229.628179 
L 105.709321 229.429081 
L 105.876725 231.950972 
L 106.044129 229.041949 
L 106.127831 229.229983 
L 106.378937 228.842851 
L 106.462639 232.537202 
L 106.546342 231.950972 
L 106.630044 231.762938 
L 106.797448 231.176708 
L 106.88115 232.338104 
L 106.964852 230.203345 
L 107.048554 231.176708 
L 107.132256 230.203345 
L 107.29966 232.15007 
L 107.383362 229.816213 
L 107.550767 231.56384 
L 107.801873 230.402443 
L 107.885575 230.402443 
L 107.969277 230.590478 
L 108.052979 228.842851 
L 108.136681 229.229983 
L 108.220383 229.429081 
L 108.304085 229.041949 
L 108.387787 231.375806 
L 108.47149 230.402443 
L 108.555192 231.375806 
L 108.722596 228.842851 
L 108.806298 232.338104 
L 109.30851 226.708099 
L 109.392212 230.015311 
L 109.475915 229.628179 
L 109.559617 229.229983 
L 109.643319 230.789576 
L 109.727021 229.041949 
L 109.810723 230.015311 
L 109.894425 229.816213 
L 109.978127 229.816213 
L 110.145531 227.294322 
L 110.312935 230.590478 
L 110.48034 228.654817 
L 110.564042 228.842851 
L 110.982552 231.56384 
L 111.233658 229.041949 
L 111.31736 229.429081 
L 111.484765 230.97761 
L 111.568467 230.789576 
L 111.652169 232.15007 
L 111.819573 229.429081 
L 111.903275 229.628179 
L 111.986977 229.041949 
L 112.154381 230.789576 
L 112.238083 228.654817 
L 112.321786 229.041949 
L 112.405488 228.842851 
L 112.48919 228.267684 
L 112.656594 230.203345 
L 112.740296 229.816213 
L 112.9077 231.176708 
L 113.075104 228.654817 
L 113.158806 229.628179 
L 113.242509 228.842851 
L 113.326211 231.56384 
L 113.577317 228.068587 
L 113.661019 228.068587 
L 113.828423 231.375806 
L 113.995827 228.654817 
L 114.163231 231.375806 
L 114.246934 229.816213 
L 114.414338 231.762938 
L 114.49804 230.590478 
L 114.581742 231.56384 
L 114.749146 230.590478 
L 114.832848 230.97761 
L 115.167657 227.095231 
L 115.418763 231.176708 
L 115.502465 229.816213 
L 115.586167 231.375806 
L 116.004677 227.095231 
L 116.088379 230.203345 
L 116.172082 229.628179 
L 116.255784 228.267684 
L 116.339486 228.455719 
L 116.50689 231.762938 
L 116.841698 228.267684 
L 117.009102 231.176708 
L 117.176507 228.654817 
L 117.260209 230.789576 
L 117.427613 228.654817 
L 117.595017 232.15007 
L 117.678719 230.402443 
L 117.762421 232.338104 
L 117.929825 230.789576 
L 118.09723 232.924335 
L 118.348336 230.015311 
L 118.599442 232.725237 
L 118.683144 232.924335 
L 118.766846 229.816213 
L 118.850548 230.402443 
L 118.93425 232.924335 
L 119.101655 228.842851 
L 119.185357 230.97761 
L 119.352761 228.842851 
L 119.436463 229.429081 
L 119.520165 231.56384 
L 119.687569 230.402443 
L 119.771271 231.176708 
L 120.022378 229.628179 
L 120.10608 230.97761 
L 120.189782 229.628179 
L 120.273484 230.015311 
L 120.440888 231.176708 
L 120.52459 231.950972 
L 120.691994 229.229983 
L 120.775696 230.015311 
L 121.026803 227.482363 
L 121.277909 230.789576 
L 121.361611 230.203345 
L 121.445313 230.402443 
L 121.612717 232.15007 
L 121.780121 230.789576 
L 121.863824 231.176708 
L 121.947526 229.816213 
L 122.031228 232.338104 
L 122.282334 228.267684 
L 122.366036 228.455719 
L 122.53344 231.56384 
L 122.617142 229.429081 
L 122.700844 229.816213 
L 122.784546 230.590478 
L 122.868249 230.203345 
L 122.951951 231.375806 
L 123.203057 227.095231 
L 123.537865 232.15007 
L 123.705269 230.203345 
L 123.788972 231.375806 
L 123.956376 227.095231 
L 124.040078 230.402443 
L 124.12378 229.429081 
L 124.207482 228.842851 
L 124.291184 230.97761 
L 124.54229 229.229983 
L 124.625992 229.229983 
L 125.044503 232.338104 
L 125.211907 230.402443 
L 125.295609 230.203345 
L 125.379311 228.455719 
L 125.546715 231.762938 
L 125.797822 230.203345 
L 125.881524 232.15007 
L 126.048928 230.015311 
L 126.13263 230.402443 
L 126.216332 229.229983 
L 126.383736 232.338104 
L 126.467438 231.375806 
L 126.55114 230.97761 
L 126.634843 231.950972 
L 126.718545 231.176708 
L 126.802247 232.537202 
L 126.885949 231.762938 
L 127.053353 232.924335 
L 127.137055 230.97761 
L 127.220757 231.56384 
L 127.304459 231.56384 
L 127.388161 231.176708 
L 127.471863 231.375806 
L 127.639268 233.698599 
L 127.806672 230.203345 
L 127.890374 231.950972 
L 127.974076 231.176708 
L 128.057778 231.762938 
L 128.14148 231.176708 
L 128.392586 233.123429 
L 128.476288 230.590478 
L 128.643693 232.338104 
L 128.811097 230.590478 
L 128.894799 234.085731 
L 129.062203 230.97761 
L 129.145905 230.590478 
L 129.397011 232.725237 
L 129.480714 232.725237 
L 129.564416 230.402443 
L 129.648118 231.375806 
L 129.73182 230.590478 
L 129.815522 228.654817 
L 130.066628 231.176708 
L 130.15033 231.56384 
L 130.234032 230.789576 
L 130.401436 234.085731 
L 130.652543 231.56384 
L 130.736245 232.725237 
L 130.819947 230.590478 
L 130.903649 231.375806 
L 130.987351 230.97761 
L 131.154755 233.897694 
L 131.322159 233.311467 
L 131.405862 232.924335 
L 131.489564 235.258188 
L 131.573266 233.123429 
L 131.656968 234.085731 
L 131.908074 230.203345 
L 131.991776 230.203345 
L 132.15918 232.537202 
L 132.242882 231.950972 
L 132.326584 229.429081 
L 132.410287 232.15007 
L 132.493989 231.762938 
L 132.577691 232.924335 
L 132.828797 230.97761 
L 132.912499 231.56384 
L 132.996201 234.085731 
L 133.079903 233.510561 
L 133.33101 230.402443 
L 133.414712 232.725237 
L 133.665818 230.590478 
L 133.74952 232.725237 
L 133.916924 230.789576 
L 134.000626 231.762938 
L 134.084328 230.203345 
L 134.16803 230.789576 
L 134.335435 233.510561 
L 134.419137 234.284826 
L 134.502839 236.419585 
L 134.670243 230.203345 
L 134.753945 229.628179 
L 134.837647 230.015311 
L 134.921349 227.869495 
L 135.005051 222.626615 
L 135.172455 235.258188 
L 135.256158 224.960472 
L 135.33986 228.068587 
L 135.507264 234.671958 
L 135.590966 243.609183 
L 135.674668 243.222051 
L 135.75837 227.681454 
L 135.842072 233.897694 
L 135.925774 232.15007 
L 136.009476 231.56384 
L 136.260583 226.708099 
L 136.344285 228.068587 
L 136.427987 225.546702 
L 136.595391 228.068587 
L 136.679093 227.095231 
L 136.846497 231.176708 
L 136.930199 229.041949 
L 137.013901 230.590478 
L 137.097603 230.015311 
L 137.181306 230.203345 
L 137.34871 235.05909 
L 137.432412 234.483924 
L 137.516114 236.419585 
L 137.76722 231.56384 
L 137.850922 230.590478 
L 137.934624 231.950972 
L 138.018326 231.56384 
L 138.185731 233.123429 
L 138.269433 229.429081 
L 138.353135 230.015311 
L 138.436837 232.338104 
L 138.604241 228.267684 
L 138.855347 230.590478 
L 138.939049 230.789576 
L 139.022751 228.842851 
L 139.106454 229.628179 
L 139.190156 227.869495 
L 139.35756 230.97761 
L 139.524964 233.123429 
L 139.608666 235.05909 
L 139.692368 234.483924 
L 139.859772 231.176708 
L 140.110879 233.698599 
L 140.194581 230.590478 
L 140.278283 230.789576 
L 140.361985 230.402443 
L 140.613091 234.085731 
L 140.696793 233.311467 
L 140.864197 230.402443 
L 140.9479 229.628179 
L 141.031602 230.203345 
L 141.115304 230.015311 
L 141.199006 230.203345 
L 141.282708 227.869495 
L 141.36641 228.068587 
L 141.617516 232.15007 
L 141.701218 230.203345 
L 141.868622 232.725237 
L 142.036027 230.203345 
L 142.119729 231.375806 
L 142.203431 231.176708 
L 142.370835 230.015311 
L 142.454537 231.56384 
L 142.538239 231.176708 
L 142.621941 231.176708 
L 142.705643 230.97761 
L 142.95675 233.123429 
L 143.040452 232.924335 
L 143.291558 228.842851 
L 143.37526 229.628179 
L 143.458962 230.789576 
L 143.542664 229.628179 
L 143.626366 229.816213 
L 143.710068 229.628179 
L 143.79377 228.267684 
L 143.877473 230.590478 
L 143.961175 229.628179 
L 144.128579 232.537202 
L 144.212281 232.15007 
L 144.295983 229.628179 
L 144.379685 230.402443 
L 144.463387 232.725237 
L 144.630791 230.203345 
L 144.714493 229.041949 
L 144.798196 230.590478 
L 144.881898 229.816213 
L 144.9656 231.176708 
L 145.133004 228.068587 
L 145.216706 228.654817 
L 145.300408 231.375806 
L 145.467812 229.628179 
L 145.551514 229.816213 
L 145.635216 232.924335 
L 145.718918 231.950972 
L 145.802621 230.590478 
L 145.970025 231.375806 
L 146.053727 231.762938 
L 146.137429 231.176708 
L 146.221131 232.537202 
L 146.555939 230.015311 
L 146.639641 230.789576 
L 146.807046 228.842851 
L 147.058152 230.97761 
L 147.225556 230.590478 
L 147.309258 231.56384 
L 147.39296 229.628179 
L 147.476662 230.97761 
L 147.560364 230.203345 
L 147.644067 231.950972 
L 147.727769 230.590478 
L 147.811471 232.725237 
L 147.978875 231.176708 
L 148.062577 231.375806 
L 148.146279 232.725237 
L 148.229981 231.762938 
L 148.313683 232.725237 
L 148.648492 229.429081 
L 148.732194 231.56384 
L 148.815896 231.375806 
L 148.899598 231.950972 
L 148.9833 230.97761 
L 149.067002 232.338104 
L 149.234406 229.816213 
L 149.318108 231.950972 
L 149.569215 229.816213 
L 149.736619 230.789576 
L 149.904023 232.15007 
L 149.987725 230.789576 
L 150.071427 230.97761 
L 150.238831 230.402443 
L 150.322533 231.176708 
L 150.406235 228.654817 
L 150.57364 232.924335 
L 150.657342 232.725237 
L 150.741044 230.97761 
L 150.824746 232.338104 
L 150.99215 231.176708 
L 151.075852 229.041949 
L 151.159554 230.590478 
L 151.243256 230.203345 
L 151.41066 231.176708 
L 151.494363 231.176708 
L 151.661767 231.56384 
L 151.829171 229.816213 
L 151.912873 230.97761 
L 151.996575 229.229983 
L 152.247681 231.176708 
L 152.331383 230.015311 
L 152.498788 232.15007 
L 152.58249 230.789576 
L 152.666192 231.375806 
L 152.833596 228.654817 
L 152.917298 228.654817 
L 153.084702 231.56384 
L 153.168404 231.176708 
L 153.252106 228.267684 
L 153.335808 229.041949 
L 153.503213 230.590478 
L 153.586915 230.402443 
L 153.670617 230.789576 
L 153.838021 229.816213 
L 153.921723 229.041949 
L 154.172829 231.56384 
L 154.256531 230.789576 
L 154.340234 231.176708 
L 154.507638 228.068587 
L 154.758744 231.762938 
L 154.842446 231.762938 
L 154.926148 232.537202 
L 155.093552 229.816213 
L 155.177254 229.816213 
L 155.260956 229.041949 
L 155.344659 231.375806 
L 155.428361 228.842851 
L 155.512063 229.229983 
L 155.595765 228.842851 
L 155.679467 231.375806 
L 155.930573 226.90719 
L 156.181679 231.56384 
L 156.265382 229.816213 
L 156.432786 232.338104 
L 156.516488 231.56384 
L 156.60019 233.897694 
L 156.767594 230.97761 
L 156.851296 229.816213 
L 156.934998 230.590478 
L 157.0187 229.628179 
L 157.186104 230.789576 
L 157.269807 228.455719 
L 157.353509 230.402443 
L 157.437211 230.203345 
L 157.520913 229.229983 
L 157.604615 230.97761 
L 157.772019 229.041949 
L 157.855721 230.789576 
L 158.023125 228.654817 
L 158.19053 230.590478 
L 158.274232 229.816213 
L 158.357934 230.590478 
L 158.441636 227.681454 
L 158.525338 228.068587 
L 158.776444 228.654817 
L 158.860146 231.56384 
L 158.943848 230.590478 
L 159.02755 230.97761 
L 159.194955 229.628179 
L 159.446061 230.789576 
L 159.529763 227.869495 
L 159.697167 229.816213 
L 159.780869 229.229983 
L 159.864571 229.429081 
L 159.948273 229.429081 
L 160.031975 229.628179 
L 160.115678 232.537202 
L 160.19938 230.97761 
L 160.283082 231.375806 
L 160.366784 231.950972 
L 160.450486 233.311467 
L 160.701592 228.267684 
L 160.952698 231.56384 
L 161.120103 233.123429 
L 161.287507 226.90719 
L 161.371209 231.176708 
L 161.454911 230.590478 
L 161.538613 230.590478 
L 161.622315 230.015311 
L 161.706017 230.590478 
L 161.789719 229.429081 
L 161.873421 230.97761 
L 162.040826 228.842851 
L 162.124528 230.203345 
L 162.20823 229.041949 
L 162.375634 231.375806 
L 162.459336 230.402443 
L 162.543038 229.816213 
L 162.62674 228.267684 
L 162.710442 228.455719 
L 162.877846 229.816213 
L 162.961549 229.816213 
L 163.212655 230.590478 
L 163.380059 230.203345 
L 163.463761 230.97761 
L 163.631165 229.229983 
L 163.714867 230.789576 
L 163.798569 230.590478 
L 163.882272 230.789576 
L 163.965974 231.375806 
L 164.21708 228.068587 
L 164.384484 230.402443 
L 164.468186 229.429081 
L 164.551888 231.950972 
L 164.63559 229.429081 
L 164.802994 230.97761 
L 164.886697 231.176708 
L 165.137803 229.229983 
L 165.221505 230.590478 
L 165.305207 229.429081 
L 165.556313 230.97761 
L 165.640015 230.590478 
L 165.80742 227.482363 
L 165.891122 227.869495 
L 165.974824 228.842851 
L 166.058526 232.15007 
L 166.142228 228.267684 
L 166.22593 228.455719 
L 166.309632 227.681454 
L 166.477036 229.229983 
L 166.560738 228.842851 
L 166.64444 231.56384 
L 166.811845 228.455719 
L 166.979249 230.402443 
L 167.146653 229.229983 
L 167.230355 231.762938 
L 167.565163 228.842851 
L 167.648865 231.176708 
L 167.81627 230.015311 
L 167.983674 231.950972 
L 168.067376 231.762938 
L 168.402184 228.842851 
L 168.485886 231.375806 
L 168.569588 228.455719 
L 168.65329 228.654817 
L 168.736993 229.229983 
L 168.904397 230.97761 
L 168.988099 230.789576 
L 169.155503 229.429081 
L 169.239205 230.015311 
L 169.406609 228.455719 
L 169.490311 228.842851 
L 169.574013 228.068587 
L 169.741418 229.041949 
L 169.82512 228.455719 
L 169.908822 229.429081 
L 170.159928 226.90719 
L 170.327332 230.015311 
L 170.411034 230.203345 
L 170.662141 228.654817 
L 170.829545 232.15007 
L 171.080651 225.734736 
L 171.415459 231.762938 
L 171.499161 231.375806 
L 171.582864 230.97761 
L 171.750268 229.041949 
L 171.917672 229.041949 
L 172.001374 231.375806 
L 172.25248 226.90719 
L 172.419884 229.816213 
L 172.503587 229.628179 
L 172.587289 229.041949 
L 172.670991 230.590478 
L 173.005799 227.681454 
L 173.089501 228.267684 
L 173.173203 229.628179 
L 173.256905 228.654817 
L 173.340607 230.015311 
L 173.424309 229.816213 
L 173.508012 227.294322 
L 173.675416 230.203345 
L 173.759118 230.789576 
L 173.926522 229.429081 
L 174.010224 229.429081 
L 174.093926 230.015311 
L 174.177628 228.068587 
L 174.26133 228.455719 
L 174.428735 230.789576 
L 174.512437 227.681454 
L 174.596139 229.041949 
L 174.763543 227.482363 
L 174.930947 230.590478 
L 175.182053 226.90719 
L 175.265755 226.520058 
L 175.349457 230.015311 
L 175.516862 225.734736 
L 175.600564 227.482363 
L 175.684266 230.015311 
L 175.85167 225.933834 
L 175.935372 226.90719 
L 176.019074 230.203345 
L 176.102776 229.041949 
L 176.186478 226.121869 
L 176.437585 230.015311 
L 176.521287 230.203345 
L 176.688691 227.482363 
L 176.772393 228.068587 
L 176.856095 227.294322 
L 177.023499 229.229983 
L 177.107201 229.229983 
L 177.274606 228.654817 
L 177.44201 229.628179 
L 177.525712 228.654817 
L 177.693116 229.628179 
L 177.776818 230.789576 
L 177.86052 229.429081 
L 177.944222 229.816213 
L 178.111626 228.654817 
L 178.195328 229.041949 
L 178.362733 225.734736 
L 178.446435 226.90719 
L 178.530137 230.015311 
L 178.697541 228.455719 
L 178.864945 229.816213 
L 178.948647 229.628179 
L 179.032349 227.294322 
L 179.116051 229.429081 
L 179.199754 229.229983 
L 179.283456 229.229983 
L 179.367158 227.095231 
L 179.618264 229.429081 
L 179.701966 227.681454 
L 179.86937 229.628179 
L 179.953072 229.041949 
L 180.120476 225.933834 
L 180.204179 226.520058 
L 180.371583 229.041949 
L 180.455285 229.816213 
L 180.790093 227.482363 
L 180.957497 229.429081 
L 181.041199 227.095231 
L 181.376008 230.789576 
L 181.45971 231.375806 
L 181.794518 227.095231 
L 181.87822 230.203345 
L 182.045625 226.320966 
L 182.296731 230.402443 
L 182.380433 228.267684 
L 182.464135 230.203345 
L 182.547837 228.842851 
L 182.631539 229.628179 
L 182.715241 227.869495 
L 182.798943 228.455719 
L 183.05005 226.708099 
L 183.217454 227.482363 
L 183.301156 229.229983 
L 183.384858 228.654817 
L 183.46856 227.294322 
L 183.552262 227.869495 
L 183.635964 231.375806 
L 183.719666 230.590478 
L 183.88707 230.015311 
L 183.970773 230.015311 
L 184.054475 228.267684 
L 184.221879 230.590478 
L 184.305581 229.816213 
L 184.556687 234.483924 
L 184.891495 229.628179 
L 184.975198 229.429081 
L 185.226304 232.338104 
L 185.310006 232.338104 
L 185.47741 230.590478 
L 185.644814 228.455719 
L 185.728516 228.654817 
L 185.812218 228.654817 
L 185.895921 227.681454 
L 186.147027 230.97761 
L 186.230729 230.97761 
L 186.398133 229.816213 
L 186.481835 231.375806 
L 186.732941 229.816213 
L 186.816643 229.429081 
L 186.900346 227.482363 
L 187.06775 231.375806 
L 187.235154 225.734736 
L 187.48626 230.789576 
L 187.653664 227.294322 
L 187.821069 227.482363 
L 187.988473 229.628179 
L 188.072175 230.97761 
L 188.155877 230.015311 
L 188.239579 230.203345 
L 188.323281 232.924335 
L 188.406983 232.725237 
L 188.825494 229.041949 
L 188.909196 229.429081 
L 188.992898 229.229983 
L 189.0766 228.654817 
L 189.327706 232.725237 
L 189.49511 229.816213 
L 189.662514 230.203345 
L 189.829919 231.56384 
L 190.081025 227.294322 
L 190.248429 229.816213 
L 190.332131 229.229983 
L 190.415833 229.429081 
L 190.499535 230.590478 
L 190.583237 227.294322 
L 190.66694 231.56384 
L 190.834344 230.015311 
L 191.001748 231.762938 
L 191.08545 231.950972 
L 191.169152 232.537202 
L 191.336556 230.203345 
L 191.420258 230.97761 
L 191.50396 229.429081 
L 191.671365 230.97761 
L 191.922471 229.429081 
L 192.006173 230.590478 
L 192.089875 229.041949 
L 192.173577 229.429081 
L 192.508385 232.924335 
L 192.67579 229.628179 
L 192.843194 230.402443 
L 193.010598 228.455719 
L 193.178002 231.176708 
L 193.261704 230.015311 
L 193.345406 233.123429 
L 193.596513 229.229983 
L 194.015023 231.375806 
L 194.098725 230.203345 
L 194.182427 231.762938 
L 194.266129 230.402443 
L 194.349831 231.375806 
L 194.433533 229.429081 
L 194.517236 229.816213 
L 194.68464 228.068587 
L 194.768342 230.402443 
L 194.852044 229.816213 
L 194.935746 230.015311 
L 195.019448 229.816213 
L 195.10315 230.203345 
L 195.270554 229.229983 
L 195.521661 232.537202 
L 195.689065 230.402443 
L 195.772767 230.015311 
L 196.023873 233.311467 
L 196.107575 233.698599 
L 196.274979 230.97761 
L 196.358681 231.950972 
L 196.442384 231.176708 
L 196.69349 233.698599 
L 196.777192 231.762938 
L 196.860894 232.15007 
L 196.944596 231.56384 
L 197.112 233.311467 
L 197.195702 231.176708 
L 197.279404 231.375806 
L 197.363107 233.311467 
L 197.446809 232.537202 
L 197.530511 230.402443 
L 197.697915 232.537202 
L 197.781617 231.762938 
L 197.865319 231.950972 
L 197.949021 232.338104 
L 198.032723 231.950972 
L 198.116425 230.402443 
L 198.367532 235.64532 
L 198.451234 235.05909 
L 198.534936 234.483924 
L 198.786042 230.402443 
L 199.037148 232.537202 
L 199.12085 231.56384 
L 199.204552 228.654817 
L 199.288255 230.203345 
L 199.455659 234.483924 
L 199.539361 234.085731 
L 199.623063 231.176708 
L 199.706765 231.762938 
L 199.790467 234.085731 
L 199.874169 232.537202 
L 200.125275 234.085731 
L 200.376382 231.762938 
L 200.543786 235.833355 
L 200.71119 230.590478 
L 200.962296 233.897694 
L 201.045998 233.510561 
L 201.297105 230.015311 
L 201.464509 235.64532 
L 201.548211 236.806717 
L 201.631913 235.833355 
L 201.799317 232.338104 
L 201.883019 233.897694 
L 201.966721 233.123429 
L 202.30153 237.979174 
L 202.468934 233.897694 
L 202.552636 233.510561 
L 202.636338 231.176708 
L 202.803742 233.123429 
L 203.054848 230.97761 
L 203.138551 231.950972 
L 203.222253 231.56384 
L 203.389657 231.950972 
L 203.473359 231.762938 
L 203.640763 233.123429 
L 203.808167 232.338104 
L 203.891869 234.483924 
L 203.975571 232.725237 
L 204.142976 233.897694 
L 204.226678 232.15007 
L 204.394082 235.258188 
L 204.72889 230.590478 
L 204.979997 233.897694 
L 205.063699 234.284826 
L 205.231103 230.789576 
L 205.314805 231.950972 
L 205.482209 234.085731 
L 205.649613 232.537202 
L 205.733315 234.671958 
L 205.817017 234.284826 
L 205.900719 234.284826 
L 206.068124 233.897694 
L 206.31923 229.816213 
L 206.570336 231.375806 
L 206.73774 229.816213 
L 206.905145 230.789576 
L 207.239953 227.294322 
L 208.32808 190.771164 
L 208.411782 190.771164 
L 208.579186 192.131659 
L 208.662888 192.131659 
L 208.74659 190.970262 
L 208.830293 192.518791 
L 208.913995 191.744527 
L 209.165101 194.664607 
L 209.248803 194.078377 
L 209.583611 197.374533 
L 209.834718 197.772728 
L 210.002122 200.095522 
L 210.33693 204.176999 
L 210.420632 203.789866 
L 210.504334 202.04224 
L 210.671738 206.123723 
L 210.755441 206.123723 
L 210.922845 205.338395 
L 211.006547 206.123723 
L 211.090249 205.537493 
L 211.341355 210.194143 
L 211.508759 209.618977 
L 211.676164 209.032747 
L 211.759866 209.231845 
L 212.010972 213.114224 
L 212.178376 211.554638 
L 212.34578 213.700454 
L 212.429482 213.114224 
L 212.513184 211.167506 
L 212.847993 214.86185 
L 213.015397 211.94177 
L 213.099099 212.727091 
L 213.517609 217.582839 
L 213.768716 214.86185 
L 213.93612 217.969972 
L 214.019822 217.770874 
L 214.103524 215.835213 
L 214.270928 219.905633 
L 214.522034 217.195707 
L 214.689439 218.357104 
L 214.773141 218.158006 
L 215.024247 220.878988 
L 215.191651 219.717592 
L 215.275353 221.078086 
L 215.359055 219.905633 
L 215.52646 220.878988 
L 215.610162 219.905633 
L 215.693864 222.825713 
L 215.861268 221.078086 
L 215.94497 222.051449 
L 216.112374 219.5185 
L 216.279778 222.626615 
L 216.447183 220.878988 
L 216.530885 220.303822 
L 216.614587 221.078086 
L 216.698289 223.98711 
L 216.781991 223.799075 
L 216.949395 222.825713 
L 217.033097 223.212845 
L 217.116799 225.15957 
L 217.451608 220.690954 
L 217.53531 223.212845 
L 218.037522 212.915126 
L 218.121224 214.474718 
L 219.293053 169.025392 
L 219.376756 167.277772 
L 219.627862 156.780955 
L 220.464883 132.502228 
L 220.967095 125.511734 
L 221.050797 126.097964 
L 221.301904 122.016481 
L 221.636712 118.908366 
L 221.97152 115.601147 
L 222.138924 112.891215 
L 222.222627 112.304985 
L 222.390031 106.287847 
L 222.473733 106.674986 
L 222.557435 105.314491 
L 222.808541 97.538663 
L 222.892243 96.963489 
L 223.227052 89.187661 
L 223.56186 78.115684 
L 223.645562 79.863304 
L 224.064072 68.990418 
L 224.147775 68.404201 
L 224.649987 56.358855 
L 224.733689 56.557959 
L 224.817391 57.918454 
L 225.068498 51.901303 
L 225.235902 52.476476 
L 225.403306 49.954591 
L 225.57071 51.115981 
L 225.654412 51.50312 
L 225.738114 50.341703 
L 225.905518 54.611221 
L 226.072923 56.170821 
L 226.156625 55.009431 
L 226.407731 61.413694 
L 226.742539 69.576648 
L 226.993646 77.142328 
L 227.830666 102.980627 
L 229.421006 144.348483 
L 229.504708 145.708978 
L 229.58841 145.133804 
L 229.755814 150.564712 
L 230.592835 166.691542 
L 230.676537 167.277772 
L 230.760239 169.799657 
L 230.843942 169.600566 
L 230.927644 169.025392 
L 231.513558 177.376387 
L 231.680962 178.150652 
L 231.932069 185.34025 
L 232.099473 184.953118 
L 232.183175 183.979755 
L 232.350579 187.087877 
L 232.434281 186.700744 
L 232.601685 188.249273 
L 232.685387 188.061239 
L 232.76909 189.41067 
L 232.852792 188.249273 
L 232.936494 189.023538 
L 233.020196 191.744527 
L 233.103898 190.384032 
L 233.1876 190.58313 
L 233.271302 189.609768 
L 233.355004 190.58313 
L 233.522408 189.222636 
L 233.689813 191.744527 
L 233.857217 189.9969 
L 233.940919 190.771164 
L 234.024621 189.808866 
L 234.108323 190.384032 
L 234.192025 190.195998 
L 234.275727 188.061239 
L 234.359429 188.249273 
L 234.443131 188.448371 
L 234.526833 189.609768 
L 235.112748 179.312048 
L 235.19645 180.097376 
L 235.782365 164.169644 
L 235.866067 163.771462 
L 236.117173 157.367185 
L 236.284577 151.350047 
L 236.451981 148.042828 
L 236.954194 129.206079 
L 237.289002 120.655986 
L 237.623811 107.44925 
L 238.126023 92.882019 
L 238.79564 75.980925 
L 238.963044 70.151821 
L 239.130448 71.324281 
L 239.21415 68.990418 
L 239.297852 62.38705 
L 239.381555 62.97328 
L 239.967469 54.423187 
L 240.134873 51.702198 
L 240.218575 52.089337 
L 240.302277 51.315059 
L 240.469682 47.233602 
L 240.637086 48.981209 
L 240.720788 48.406063 
L 240.888192 46.647359 
L 240.971894 46.26022 
L 241.055596 46.459324 
L 241.139298 43.738335 
L 241.223 44.899725 
L 241.306703 43.93744 
L 241.557809 48.406063 
L 241.641511 46.846463 
L 241.725213 49.180313 
L 241.808915 48.594097 
L 241.892617 48.981209 
L 242.060021 48.406063 
L 242.143723 48.594097 
L 242.227425 52.476476 
L 242.311128 51.901303 
L 242.39483 51.901303 
L 242.729638 60.440338 
L 242.81334 59.666061 
L 243.231851 69.576648 
L 243.315553 69.576648 
L 243.399255 68.791327 
L 243.482957 70.538947 
L 243.817765 83.170523 
L 243.901467 83.557662 
L 244.152573 87.639132 
L 244.236276 87.440041 
L 244.654786 99.872513 
L 245.324403 117.547872 
L 245.408105 115.800238 
L 245.575509 119.107457 
L 245.742913 126.48509 
L 245.826615 124.15124 
L 245.994019 127.07132 
L 246.245126 133.475597 
L 246.328828 134.636987 
L 246.41253 134.249861 
L 246.579934 136.97085 
L 246.747338 141.638551 
L 246.83104 141.052321 
L 247.249551 149.602413 
L 247.333253 149.602413 
L 248.086572 161.249564 
L 248.170274 161.06153 
L 248.253976 160.475299 
L 248.42138 162.80915 
L 248.588784 161.636703 
L 248.672486 162.023828 
L 248.756188 163.196289 
L 248.83989 162.80915 
L 248.923592 161.835794 
L 249.090997 163.771462 
L 249.174699 159.889069 
L 249.342103 162.997197 
L 249.509507 161.448669 
L 249.593209 163.196289 
L 249.760613 160.862438 
L 249.928018 162.80915 
L 250.01172 162.80915 
L 250.095422 162.422024 
L 250.179124 159.701035 
L 250.262826 161.636703 
L 250.346528 161.448669 
L 250.597634 158.727679 
L 250.765038 156.980046 
L 250.84874 156.980046 
L 251.099847 153.097667 
L 251.183549 154.646196 
L 251.267251 153.67284 
L 251.518357 148.241919 
L 251.685761 146.295194 
L 252.104272 138.718471 
L 252.187974 139.105596 
L 252.271676 138.917562 
L 252.522782 135.223217 
L 253.443505 117.160733 
L 253.527207 116.961642 
L 253.862016 108.422606 
L 253.945718 108.997779 
L 254.02942 107.250145 
L 254.280526 98.711123 
L 254.44793 96.377259 
L 254.782739 89.386766 
L 254.866441 89.187661 
L 255.284951 84.719052 
L 255.368653 81.223798 
L 255.452355 81.810029 
L 255.703462 78.115684 
L 255.787164 78.502809 
L 256.03827 77.540511 
L 256.121972 75.593799 
L 256.205674 75.980925 
L 256.289376 77.540511 
L 256.45678 75.007569 
L 256.624185 75.792891 
L 256.707887 73.846166 
L 256.791589 74.62043 
L 256.875291 73.846166 
L 257.042695 77.341419 
L 257.126397 77.341419 
L 257.210099 73.846166 
L 257.293801 74.045271 
L 257.377503 75.007569 
L 257.461205 73.45904 
L 257.544908 73.846166 
L 258.130822 78.115684 
L 258.214524 76.755189 
L 258.381928 80.062408 
L 258.46563 79.288144 
L 258.549333 79.863304 
L 258.967843 88.413397 
L 259.051545 88.413397 
L 259.218949 91.32242 
L 259.386353 94.629639 
L 259.470056 94.2425 
L 259.553758 93.656284 
L 259.804864 99.485387 
L 259.888566 98.124893 
L 259.972268 101.033916 
L 260.05597 99.872513 
L 260.390778 106.475881 
L 260.474481 106.088755 
L 260.725587 112.493032 
L 260.809289 111.331629 
L 260.976693 113.079249 
L 261.227799 119.881722 
L 261.311501 119.682631 
L 261.395204 118.521227 
L 261.64631 121.817376 
L 261.730012 121.817376 
L 261.981118 123.56501 
L 262.06482 122.989836 
L 262.315926 129.006974 
L 262.399629 128.23271 
L 262.483331 126.872229 
L 262.567033 127.646493 
L 262.818139 133.674688 
L 262.901841 133.862722 
L 262.985543 134.836092 
L 263.236649 139.492735 
L 263.404054 140.665195 
L 263.487756 140.278056 
L 263.738862 143.77331 
L 264.07367 142.213724 
L 264.659585 147.655689 
L 264.743287 145.133804 
L 264.994393 147.655689 
L 265.161797 145.708978 
L 265.2455 145.908069 
L 265.329202 146.295194 
L 265.496606 144.547574 
L 265.580308 145.321839 
L 265.747712 143.386184 
L 265.831414 143.961344 
L 265.915116 143.77331 
L 266.08252 140.665195 
L 266.166223 143.574219 
L 266.249925 142.600849 
L 266.501031 137.357976 
L 266.584733 138.530436 
L 266.668435 136.782803 
L 266.752137 137.357976 
L 267.003243 134.061827 
L 267.086945 136.196586 
L 267.170648 135.610356 
L 267.25435 135.610356 
L 267.338052 135.223217 
L 267.421754 131.927068 
L 267.505456 132.314194 
L 267.589158 131.927068 
L 267.67286 129.206079 
L 267.756562 130.953699 
L 267.923966 129.781252 
L 268.007668 129.980343 
L 268.175073 125.31263 
L 268.258775 125.124595 
L 268.342477 123.56501 
L 268.426179 123.963205 
L 268.593583 121.430251 
L 268.677285 122.403606 
L 269.012094 117.160733 
L 269.095796 117.746963 
L 269.179498 116.961642 
L 269.430604 111.718768 
L 269.514306 114.439744 
L 269.68171 110.358273 
L 269.849114 108.223514 
L 270.016519 106.674986 
L 270.100221 106.674986 
L 270.518731 101.233007 
L 270.602433 101.819237 
L 270.686135 98.711123 
L 270.769837 99.684479 
L 270.937242 98.711123 
L 271.020944 99.098248 
L 271.188348 98.124893 
L 271.27205 98.124893 
L 271.355752 95.602995 
L 271.439454 95.990134 
L 271.606858 95.016765 
L 271.69056 96.764398 
L 271.941667 93.468236 
L 272.025369 93.656284 
L 272.109071 93.855375 
L 272.276475 91.521525 
L 272.360177 95.016765 
L 272.443879 93.656284 
L 272.527581 95.403904 
L 272.611283 94.430548 
L 272.86239 96.178168 
L 273.029794 92.882019 
L 273.197198 94.430548 
L 273.2809 94.430548 
L 273.364602 96.576364 
L 273.448304 95.215869 
L 273.615708 96.576364 
L 273.69941 94.817674 
L 273.866815 96.764398 
L 273.950517 98.323984 
L 274.201623 96.178168 
L 274.452729 98.711123 
L 274.536431 97.538663 
L 274.703835 99.872513 
L 274.87124 102.781536 
L 275.038644 101.620146 
L 275.206048 102.980627 
L 275.540856 106.674986 
L 275.624558 106.86302 
L 275.708261 106.674986 
L 276.043069 112.692124 
L 276.126771 112.891215 
L 276.294175 111.718768 
L 276.377877 114.439744 
L 276.461579 114.052618 
L 276.628983 115.413113 
L 276.712686 115.025974 
L 276.796388 117.746963 
L 276.88009 117.359837 
L 277.047494 118.908366 
L 277.131196 118.908366 
L 277.633409 124.350331 
L 277.717111 123.963205 
L 277.800813 124.15124 
L 278.051919 127.458445 
L 278.135621 127.646493 
L 278.219323 127.458445 
L 278.386727 129.206079 
L 278.470429 128.420758 
L 278.554131 129.206079 
L 278.637834 131.727963 
L 278.721536 131.340838 
L 279.056344 129.593204 
L 279.140046 130.754608 
L 279.223748 129.394113 
L 279.391152 130.754608 
L 279.474854 132.889367 
L 279.558557 132.701333 
L 279.642259 130.566574 
L 279.893365 133.674688 
L 280.060769 131.927068 
L 280.144471 131.927068 
L 280.311875 134.061827 
L 280.395577 133.674688 
L 280.47928 134.061827 
L 280.562982 135.035183 
L 280.730386 133.088458 
L 280.814088 134.448953 
L 280.89779 134.249861 
L 281.065194 133.088458 
L 281.148896 135.223217 
L 281.232598 135.035183 
L 281.3163 132.502228 
L 281.400002 133.674688 
L 281.483705 130.367469 
L 281.567407 130.566574 
L 281.651109 129.394113 
L 281.734811 132.115102 
L 281.818513 131.727963 
L 281.902215 132.314194 
L 281.985917 131.528872 
L 282.069619 129.593204 
L 282.237023 131.927068 
L 282.48813 125.89886 
L 282.571832 126.872229 
L 282.655534 126.872229 
L 282.822938 130.179435 
L 282.90664 126.872229 
L 282.990342 127.646493 
L 283.074044 127.845584 
L 283.157746 124.15124 
L 283.241448 125.31263 
L 283.408853 126.48509 
L 283.659959 120.268847 
L 283.827363 123.177871 
L 284.162171 118.322136 
L 284.245873 119.682631 
L 284.49698 115.800238 
L 284.664384 118.709262 
L 284.748086 118.134102 
L 284.999192 113.466388 
L 285.082894 115.025974 
L 285.166596 114.826883 
L 285.417703 111.718768 
L 285.501405 112.493032 
L 285.668809 111.143595 
L 285.752511 111.331629 
L 285.919915 109.19687 
L 286.003617 109.971134 
L 286.171021 106.287847 
L 286.254724 107.062111 
L 286.338426 109.395975 
L 286.50583 106.287847 
L 286.589532 106.475881 
L 286.756936 103.953996 
L 286.840638 104.142031 
L 287.091744 103.179732 
L 287.175447 105.502525 
L 287.259149 104.927352 
L 287.342851 104.728261 
L 287.510255 105.502525 
L 287.593957 104.142031 
L 287.677659 106.86302 
L 287.761361 106.674986 
L 287.845063 102.781536 
L 287.928765 103.367766 
L 288.096169 104.927352 
L 288.263574 107.44925 
L 288.347276 106.287847 
L 288.51468 107.250145 
L 288.598382 107.062111 
L 288.682084 105.889651 
L 288.849488 106.475881 
L 289.016892 104.927352 
L 289.100595 104.927352 
L 289.184297 105.701616 
L 289.267999 105.502525 
L 289.351701 105.889651 
L 289.435403 104.927352 
L 289.519105 105.502525 
L 289.602807 107.250145 
L 289.686509 106.86302 
L 289.770211 107.062111 
L 289.853913 105.889651 
L 290.021317 108.809745 
L 290.10502 108.809745 
L 290.188722 108.422606 
L 290.272424 109.7831 
L 290.356126 108.809745 
L 290.439828 109.7831 
L 290.52353 112.105893 
L 290.690934 109.971134 
L 290.774636 110.170239 
L 290.858338 112.891215 
L 290.94204 110.745399 
L 291.109445 112.105893 
L 291.193147 111.718768 
L 291.360551 113.853513 
L 291.527955 112.304985 
L 291.779061 116.961642 
L 291.862763 116.386468 
L 292.030168 117.746963 
L 292.197572 119.107457 
L 292.281274 119.295492 
L 292.364976 116.773607 
L 292.699784 123.56501 
L 292.867188 120.655986 
L 293.034593 124.15124 
L 293.118295 122.790745 
L 293.201997 123.764101 
L 293.285699 122.215572 
L 293.453103 124.15124 
L 293.704209 124.925504 
L 293.787911 125.124595 
L 293.871614 122.989836 
L 294.12272 126.673124 
L 294.206422 125.710825 
L 294.373826 127.845584 
L 294.457528 126.872229 
L 294.54123 124.350331 
L 294.792336 129.593204 
L 294.959741 125.511734 
L 295.043443 126.673124 
L 295.127145 128.033619 
L 295.210847 127.07132 
L 295.294549 128.619849 
L 295.378251 127.845584 
L 295.461953 128.619849 
L 295.545655 128.420758 
L 295.629357 127.845584 
L 295.713059 125.710825 
L 295.880464 130.566574 
L 296.047868 126.48509 
L 296.298974 130.179435 
L 296.55008 127.07132 
L 296.717484 128.033619 
L 296.801187 129.206079 
L 296.884889 129.006974 
L 297.052293 124.538365 
L 297.135995 127.458445 
L 297.219697 126.673124 
L 297.387101 127.646493 
L 297.554505 126.097964 
L 297.638207 126.285999 
L 297.72191 127.458445 
L 297.973016 121.043112 
L 298.14042 124.350331 
L 298.224122 123.963205 
L 298.307824 122.989836 
L 298.475228 124.538365 
L 298.55893 122.403606 
L 298.642633 122.989836 
L 298.726335 123.56501 
L 298.810037 123.376975 
L 299.312249 120.069756 
L 299.395951 120.456895 
L 299.563355 118.908366 
L 299.647058 120.069756 
L 299.814462 119.295492 
L 299.898164 119.107457 
L 299.981866 119.682631 
L 300.14927 119.107457 
L 300.232972 118.908366 
L 300.316674 117.359837 
L 300.400376 119.295492 
L 300.484078 116.386468 
L 300.567781 118.322136 
L 300.651483 117.746963 
L 300.818887 117.547872 
L 300.986291 115.800238 
L 301.069993 115.999343 
L 301.153695 117.359837 
L 301.237397 114.052618 
L 301.321099 114.251709 
L 301.488503 115.413113 
L 301.572206 115.800238 
L 301.655908 115.601147 
L 301.823312 111.718768 
L 301.907014 111.917859 
L 301.990716 111.53072 
L 302.074418 112.105893 
L 302.241822 110.745399 
L 302.325524 110.944504 
L 302.409226 108.61064 
L 302.492929 108.809745 
L 302.576631 108.61064 
L 302.660333 110.944504 
L 302.744035 108.809745 
L 302.827737 109.395975 
L 302.911439 109.971134 
L 302.995141 109.395975 
L 303.162545 110.358273 
L 303.413652 106.475881 
L 303.581056 108.997779 
L 303.832162 106.674986 
L 304.083268 111.53072 
L 304.334374 108.422606 
L 304.501779 111.53072 
L 304.585481 110.170239 
L 304.752885 113.278354 
L 304.920289 110.358273 
L 305.087693 112.304985 
L 305.171395 113.853513 
L 305.3388 112.304985 
L 305.506204 115.800238 
L 305.673608 112.891215 
L 305.924714 116.187377 
L 306.092118 114.052618 
L 306.17582 111.718768 
L 306.510629 115.999343 
L 306.594331 113.853513 
L 306.678033 115.601147 
L 306.761735 114.251709 
L 306.845437 116.574503 
L 307.012841 113.466388 
L 307.096543 114.251709 
L 307.34765 118.521227 
L 307.598756 117.746963 
L 307.682458 118.322136 
L 307.849862 120.268847 
L 307.933564 119.494583 
L 308.017266 119.881722 
L 308.100968 121.430251 
L 308.18467 120.069756 
L 308.352075 122.215572 
L 308.435777 120.069756 
L 308.519479 120.855077 
L 308.686883 119.881722 
L 309.021691 123.56501 
L 309.105393 123.56501 
L 309.272798 120.655986 
L 309.440202 122.602711 
L 309.523904 122.403606 
L 309.691308 122.790745 
L 309.77501 120.655986 
L 310.026116 123.963205 
L 310.109819 122.403606 
L 310.277223 126.285999 
L 310.360925 124.350331 
L 310.528329 125.511734 
L 310.612031 124.925504 
L 310.695733 123.177871 
L 310.863137 124.15124 
L 310.946839 124.350331 
L 311.030541 123.963205 
L 311.197946 122.403606 
L 311.36535 124.538365 
L 311.532754 123.56501 
L 311.616456 121.817376 
L 311.700158 122.602711 
L 311.78386 122.016481 
L 311.867562 123.963205 
L 312.118669 122.016481 
L 312.202371 122.016481 
L 312.453477 125.710825 
L 312.537179 126.097964 
L 312.955689 120.855077 
L 313.123094 122.403606 
L 313.206796 121.817376 
L 313.3742 122.989836 
L 313.541604 119.881722 
L 313.709008 122.215572 
L 313.79271 119.682631 
L 313.876412 119.881722 
L 313.960115 121.043112 
L 314.043817 120.855077 
L 314.127519 121.242216 
L 314.462327 116.961642 
L 314.629731 119.107457 
L 314.797135 117.547872 
L 314.96454 120.655986 
L 315.048242 117.934997 
L 315.131944 118.322136 
L 315.299348 117.746963 
L 315.38305 117.934997 
L 315.550454 115.214008 
L 315.717858 117.746963 
L 315.80156 118.521227 
L 315.885263 117.160733 
L 315.968965 117.547872 
L 316.052667 118.322136 
L 316.136369 116.386468 
L 316.220071 116.961642 
L 316.303773 116.574503 
L 316.387475 116.773607 
L 316.554879 116.187377 
L 316.722283 116.773607 
L 316.805986 115.214008 
L 316.889688 116.386468 
L 316.97339 115.025974 
L 317.057092 115.800238 
L 317.140794 115.601147 
L 317.224496 116.187377 
L 317.3919 114.052618 
L 317.559304 115.601147 
L 317.810411 113.278354 
L 317.977815 115.214008 
L 318.061517 114.638848 
L 318.145219 115.025974 
L 318.312623 111.718768 
L 318.480027 113.665479 
L 318.731134 112.105893 
L 318.814836 113.853513 
L 318.898538 113.466388 
L 319.065942 111.143595 
L 319.233346 112.105893 
L 319.317048 111.917859 
L 319.484452 111.331629 
L 319.568154 111.53072 
L 319.651856 112.105893 
L 319.819261 115.025974 
L 319.902963 114.439744 
L 319.986665 112.304985 
L 320.070367 112.493032 
L 320.237771 113.665479 
L 320.321473 115.413113 
L 320.572579 113.853513 
L 320.656282 114.826883 
L 320.739984 117.359837 
L 320.823686 115.800238 
L 320.99109 117.934997 
L 321.074792 117.359837 
L 321.158494 115.601147 
L 321.325898 117.547872 
L 321.577005 113.853513 
L 321.744409 117.359837 
L 321.911813 115.601147 
L 322.079217 116.961642 
L 322.246621 115.214008 
L 322.330323 115.214008 
L 322.497727 117.359837 
L 322.58143 117.746963 
L 322.665132 116.773607 
L 322.748834 117.359837 
L 322.832536 117.160733 
L 322.99994 121.043112 
L 323.083642 118.521227 
L 323.167344 119.682631 
L 323.251046 119.494583 
L 323.334748 118.709262 
L 323.41845 119.881722 
L 323.585855 118.322136 
L 323.669557 119.107457 
L 323.753259 117.746963 
L 323.920663 120.069756 
L 324.004365 118.709262 
L 324.088067 119.107457 
L 324.339173 121.242216 
L 324.422875 121.043112 
L 324.506578 120.655986 
L 324.59028 121.817376 
L 324.673982 120.655986 
L 324.757684 122.790745 
L 324.841386 121.242216 
L 325.00879 122.989836 
L 325.092492 122.790745 
L 325.176194 122.989836 
L 325.259896 121.430251 
L 325.427301 122.215572 
L 325.511003 121.043112 
L 325.594705 121.817376 
L 325.678407 120.069756 
L 325.762109 120.855077 
L 325.845811 120.655986 
L 325.929513 120.268847 
L 326.013215 122.403606 
L 326.096917 120.855077 
L 326.180619 121.043112 
L 326.264321 122.403606 
L 326.348023 121.242216 
L 326.431726 123.177871 
L 326.59913 119.295492 
L 326.766534 122.016481 
L 326.850236 119.881722 
L 326.933938 120.069756 
L 327.101342 119.881722 
L 327.185044 120.268847 
L 327.268746 119.107457 
L 327.436151 121.629342 
L 327.519853 120.655986 
L 327.603555 121.242216 
L 327.687257 119.494583 
L 327.854661 121.430251 
L 327.938363 120.268847 
L 328.022065 121.629342 
L 328.105767 119.295492 
L 328.189469 119.682631 
L 328.273172 120.456895 
L 328.440576 122.790745 
L 328.691682 121.043112 
L 328.942788 122.790745 
L 329.193894 119.682631 
L 329.277597 120.268847 
L 329.361299 119.682631 
L 329.445001 117.934997 
L 329.528703 118.134102 
L 329.779809 120.456895 
L 329.863511 120.069756 
L 329.947213 118.908366 
L 330.030915 119.295492 
L 330.114617 120.268847 
L 330.19832 119.682631 
L 330.365724 116.386468 
L 330.61683 118.709262 
L 330.700532 120.655986 
L 330.784234 120.069756 
L 330.867936 118.322136 
L 330.951638 120.268847 
L 331.202745 116.961642 
L 331.286447 118.322136 
L 331.453851 116.386468 
L 331.537553 117.934997 
L 331.788659 114.638848 
L 331.956063 117.746963 
L 332.039765 116.773607 
L 332.20717 117.359837 
L 332.374574 113.853513 
L 332.458276 115.601147 
L 332.541978 114.052618 
L 332.62568 116.386468 
L 332.876786 113.853513 
L 333.044191 116.961642 
L 333.127893 116.773607 
L 333.378999 118.709262 
L 333.546403 116.961642 
L 333.630105 116.773607 
L 333.713807 116.961642 
L 333.797509 115.999343 
L 333.881211 117.547872 
L 334.048616 115.214008 
L 334.132318 115.214008 
L 334.21602 115.601147 
L 334.383424 112.304985 
L 334.467126 114.638848 
L 334.550828 114.251709 
L 334.63453 114.251709 
L 334.801934 115.800238 
L 334.885636 115.413113 
L 335.053041 113.278354 
L 335.136743 113.079249 
L 335.304147 115.601147 
L 335.387849 113.665479 
L 335.471551 114.052618 
L 335.555253 115.999343 
L 335.722657 113.466388 
L 335.806359 114.439744 
L 335.890061 114.052618 
L 335.973764 114.638848 
L 336.057466 117.359837 
L 336.141168 116.574503 
L 336.22487 115.214008 
L 336.392274 118.908366 
L 336.559678 115.800238 
L 336.727082 118.521227 
L 336.810784 117.934997 
L 336.978189 117.359837 
L 337.061891 116.961642 
L 337.145593 117.160733 
L 337.229295 118.709262 
L 337.312997 116.574503 
L 337.396699 117.547872 
L 337.480401 117.359837 
L 337.564103 117.547872 
L 337.647805 119.682631 
L 337.731507 118.322136 
L 337.815209 119.295492 
L 337.898912 118.521227 
L 338.066316 119.295492 
L 338.23372 117.746963 
L 338.317422 118.521227 
L 338.401124 118.322136 
L 338.484826 117.934997 
L 338.568528 116.773607 
L 338.735932 119.107457 
L 338.819635 118.322136 
L 338.903337 118.521227 
L 338.987039 118.521227 
L 339.154443 120.268847 
L 339.405549 117.547872 
L 339.489251 116.773607 
L 339.656655 118.709262 
L 339.740358 117.160733 
L 339.991464 121.817376 
L 340.24257 119.295492 
L 340.326272 119.107457 
L 340.409974 121.043112 
L 340.493676 119.682631 
L 340.912187 122.215572 
L 340.995889 120.268847 
L 341.079591 122.016481 
L 341.246995 120.069756 
L 341.330697 120.456895 
L 341.414399 120.655986 
L 341.498101 123.177871 
L 341.665506 121.817376 
L 341.83291 120.655986 
L 341.916612 120.855077 
L 342.000314 119.295492 
L 342.084016 119.682631 
L 342.25142 121.430251 
L 342.335122 121.817376 
L 342.418824 121.629342 
L 342.502526 122.602711 
L 342.586228 122.016481 
L 342.669931 119.682631 
L 342.837335 120.855077 
L 342.921037 120.268847 
L 343.004739 121.242216 
L 343.255845 117.160733 
L 343.339547 117.746963 
L 343.423249 120.268847 
L 343.506951 118.709262 
L 343.590654 118.908366 
L 343.84176 122.989836 
L 344.092866 119.682631 
L 344.176568 119.881722 
L 344.26027 118.322136 
L 344.343972 120.069756 
L 344.427674 119.682631 
L 344.511377 120.456895 
L 344.595079 119.295492 
L 344.678781 119.494583 
L 344.929887 120.855077 
L 345.013589 119.107457 
L 345.097291 122.215572 
L 345.264695 119.107457 
L 345.348397 118.134102 
L 345.432099 118.521227 
L 345.515802 118.322136 
L 345.599504 118.709262 
L 345.683206 120.268847 
L 345.766908 119.881722 
L 345.85061 119.881722 
L 345.934312 118.134102 
L 346.101716 118.709262 
L 346.185418 117.746963 
L 346.26912 119.107457 
L 346.352822 117.547872 
L 346.436525 118.322136 
L 346.603929 117.746963 
L 346.771333 119.295492 
L 346.938737 116.386468 
L 347.022439 117.160733 
L 347.106141 116.961642 
L 347.44095 115.214008 
L 347.524652 116.961642 
L 347.608354 115.601147 
L 347.692056 116.187377 
L 347.775758 115.025974 
L 347.85946 116.187377 
L 347.943162 115.025974 
L 348.27797 119.295492 
L 348.445375 116.773607 
L 348.529077 117.160733 
L 348.696481 118.709262 
L 348.863885 116.574503 
L 348.947587 115.601147 
L 349.031289 116.187377 
L 349.114991 118.134102 
L 349.198693 117.160733 
L 349.282395 117.547872 
L 349.366098 116.386468 
L 349.4498 117.359837 
L 349.533502 120.069756 
L 349.700906 117.359837 
L 349.784608 117.547872 
L 349.86831 119.295492 
L 349.952012 116.574503 
L 350.035714 118.322136 
L 350.119416 116.961642 
L 350.203118 118.521227 
L 350.286821 117.359837 
L 350.370523 117.547872 
L 350.454225 117.934997 
L 350.621629 115.999343 
L 350.789033 118.709262 
L 350.872735 118.134102 
L 351.040139 115.025974 
L 351.123841 116.574503 
L 351.291246 114.439744 
L 351.374948 115.413113 
L 351.45865 115.214008 
L 351.542352 115.601147 
L 351.626054 116.574503 
L 351.793458 115.214008 
L 351.87716 116.773607 
L 351.960862 115.413113 
L 352.295671 120.268847 
L 352.379373 119.682631 
L 352.546777 116.574503 
L 352.714181 118.521227 
L 352.797883 120.069756 
L 352.965287 119.494583 
L 353.048989 119.881722 
L 353.216394 117.746963 
L 353.300096 117.359837 
L 353.551202 120.655986 
L 353.634904 120.655986 
L 353.718606 118.908366 
L 353.802308 119.682631 
L 353.88601 118.521227 
L 353.969712 119.107457 
L 354.304521 115.601147 
L 354.555627 118.908366 
L 354.639329 116.773607 
L 354.723031 117.160733 
L 354.890435 118.908366 
L 354.974137 118.322136 
L 355.141542 119.295492 
L 355.308946 117.547872 
L 355.392648 115.214008 
L 355.560052 117.746963 
L 355.727456 119.682631 
L 355.89486 118.134102 
L 355.978563 119.494583 
L 356.145967 115.999343 
L 356.229669 116.773607 
L 356.397073 118.709262 
L 356.480775 118.134102 
L 356.648179 121.242216 
L 356.815583 118.709262 
L 356.899285 119.682631 
L 357.06669 119.107457 
L 357.150392 119.682631 
L 357.234094 117.359837 
L 357.4852 121.043112 
L 357.568902 117.746963 
L 357.652604 118.134102 
L 357.820008 122.016481 
L 357.987413 118.908366 
L 358.071115 118.908366 
L 358.154817 118.521227 
L 358.238519 119.682631 
L 358.322221 118.709262 
L 358.489625 120.655986 
L 358.573327 119.881722 
L 358.657029 117.160733 
L 358.740731 117.934997 
L 358.824433 117.547872 
L 358.908136 118.322136 
L 359.07554 117.160733 
L 359.159242 119.881722 
L 359.242944 115.800238 
L 359.326646 116.386468 
L 359.410348 114.826883 
L 359.661454 116.773607 
L 359.745156 116.386468 
L 359.828859 116.386468 
L 359.912561 116.574503 
L 359.996263 120.456895 
L 360.079965 120.069756 
L 360.163667 116.961642 
L 360.331071 119.881722 
L 360.414773 119.881722 
L 360.498475 116.574503 
L 360.582177 118.908366 
L 360.749581 116.773607 
L 360.916986 118.521227 
L 361.000688 118.134102 
L 361.08439 116.574503 
L 361.335496 119.295492 
L 361.754007 115.800238 
L 361.921411 117.160733 
L 362.005113 116.574503 
L 362.088815 117.934997 
L 362.172517 115.999343 
L 362.256219 118.709262 
L 362.423623 115.999343 
L 362.507325 116.187377 
L 362.67473 117.746963 
L 362.758432 115.601147 
L 362.842134 115.800238 
L 362.925836 117.160733 
L 363.009538 115.601147 
L 363.09324 115.999343 
L 363.260644 116.961642 
L 363.344346 116.574503 
L 363.51175 115.413113 
L 363.679155 116.773607 
L 363.762857 115.999343 
L 363.846559 116.386468 
L 363.930261 115.999343 
L 364.013963 116.961642 
L 364.181367 115.999343 
L 364.265069 116.773607 
L 364.348771 116.574503 
L 364.432473 116.961642 
L 364.68358 116.386468 
L 364.767282 112.891215 
L 364.850984 114.052618 
L 365.018388 117.934997 
L 365.10209 117.746963 
L 365.185792 116.386468 
L 365.269494 116.574503 
L 365.353196 117.160733 
L 365.436898 115.601147 
L 365.604303 118.709262 
L 365.688005 117.934997 
L 365.855409 117.547872 
L 365.939111 116.961642 
L 366.022813 115.214008 
L 366.273919 117.547872 
L 366.441323 116.773607 
L 366.525026 118.322136 
L 366.608728 117.934997 
L 366.69243 116.386468 
L 366.776132 116.574503 
L 366.943536 119.682631 
L 367.027238 115.999343 
L 367.11094 116.773607 
L 367.194642 117.359837 
L 367.278344 119.494583 
L 367.529451 115.999343 
L 367.613153 115.999343 
L 367.780557 119.494583 
L 367.947961 118.134102 
L 368.031663 117.547872 
L 368.115365 117.934997 
L 368.199067 120.069756 
L 368.282769 119.881722 
L 368.450174 121.043112 
L 368.617578 118.521227 
L 368.70128 117.934997 
L 368.784982 120.268847 
L 369.036088 117.359837 
L 369.370897 120.456895 
L 369.538301 118.134102 
L 369.789407 121.043112 
L 369.873109 120.456895 
L 370.040513 117.746963 
L 370.207917 118.134102 
L 370.291619 119.494583 
L 370.459024 117.934997 
L 370.542726 118.322136 
L 370.71013 119.682631 
L 370.793832 119.881722 
L 370.877534 121.430251 
L 370.961236 120.069756 
L 371.044938 120.456895 
L 371.12864 119.494583 
L 371.212342 119.881722 
L 371.296045 118.908366 
L 371.379747 119.107457 
L 371.463449 119.494583 
L 371.547151 119.295492 
L 371.630853 119.494583 
L 371.798257 116.574503 
L 371.881959 117.934997 
L 371.965661 117.160733 
L 372.133065 119.682631 
L 372.216767 119.107457 
L 372.30047 120.855077 
L 372.384172 119.295492 
L 372.467874 119.494583 
L 372.71898 118.908366 
L 372.802682 118.134102 
L 372.886384 118.521227 
L 373.053788 119.682631 
L 373.13749 119.682631 
L 373.304895 121.817376 
L 373.472299 118.709262 
L 373.556001 120.069756 
L 373.639703 122.602711 
L 373.890809 120.456895 
L 374.058213 118.322136 
L 374.141916 119.107457 
L 374.225618 119.682631 
L 374.30932 118.134102 
L 374.393022 118.521227 
L 374.476724 118.322136 
L 374.644128 118.521227 
L 374.895234 116.773607 
L 374.978936 119.107457 
L 375.146341 118.134102 
L 375.313745 119.682631 
L 375.397447 119.107457 
L 375.564851 118.521227 
L 375.732255 119.881722 
L 375.815957 119.682631 
L 376.067064 117.359837 
L 376.150766 117.934997 
L 376.234468 119.881722 
L 376.401872 118.709262 
L 376.485574 119.295492 
L 376.569276 118.709262 
L 376.652978 116.773607 
L 376.820382 120.855077 
L 376.904084 119.682631 
L 376.987786 117.746963 
L 377.071489 118.134102 
L 377.238893 121.629342 
L 377.406297 118.908366 
L 377.489999 120.069756 
L 377.573701 119.295492 
L 377.657403 119.494583 
L 377.824807 121.043112 
L 377.992212 118.134102 
L 378.159616 120.456895 
L 378.32702 116.961642 
L 378.410722 119.494583 
L 378.494424 119.295492 
L 378.578126 118.134102 
L 378.74553 119.295492 
L 378.996637 117.160733 
L 379.164041 119.494583 
L 379.247743 118.908366 
L 379.331445 119.682631 
L 379.498849 115.999343 
L 379.666253 118.709262 
L 379.833657 117.160733 
L 379.91736 117.547872 
L 380.001062 116.773607 
L 380.168466 117.746963 
L 380.252168 117.746963 
L 380.33587 117.547872 
L 380.419572 118.322136 
L 380.503274 117.160733 
L 380.670678 119.295492 
L 380.75438 118.521227 
L 380.838083 117.359837 
L 381.005487 117.934997 
L 381.172891 121.817376 
L 381.340295 118.521227 
L 381.423997 117.746963 
L 381.507699 118.908366 
L 381.591401 118.709262 
L 381.675103 116.773607 
L 381.842508 118.709262 
L 381.92621 118.521227 
L 382.009912 118.521227 
L 382.093614 117.359837 
L 382.261018 118.908366 
L 382.428422 118.322136 
L 382.512124 118.908366 
L 382.679528 116.773607 
L 382.846933 118.908366 
L 382.930635 117.934997 
L 383.014337 118.134102 
L 383.265443 116.187377 
L 383.683953 120.069756 
L 383.851358 117.746963 
L 384.102464 120.069756 
L 384.186166 120.069756 
L 384.35357 118.709262 
L 384.437272 119.682631 
L 384.520974 119.295492 
L 384.604676 116.386468 
L 384.855783 121.629342 
L 385.023187 118.521227 
L 385.106889 119.494583 
L 385.190591 118.322136 
L 385.274293 120.069756 
L 385.525399 118.908366 
L 385.609102 118.709262 
L 385.692804 119.494583 
L 385.776506 118.134102 
L 385.860208 120.456895 
L 385.94391 119.881722 
L 386.027612 120.268847 
L 386.111314 123.177871 
L 386.195016 120.069756 
L 386.278718 120.855077 
L 386.36242 121.242216 
L 386.446122 120.456895 
L 386.613527 122.016481 
L 386.864633 119.682631 
L 387.199441 118.322136 
L 387.366845 120.855077 
L 387.617952 117.746963 
L 387.701654 118.709262 
L 387.785356 117.934997 
L 387.95276 120.456895 
L 388.036462 119.295492 
L 388.120164 119.682631 
L 388.203866 119.295492 
L 388.287568 120.268847 
L 388.37127 119.494583 
L 388.622377 121.817376 
L 388.873483 120.268847 
L 388.873483 120.268847 
" style="fill:none;stroke:#1f77b4;stroke-linecap:round;stroke-width:1.5;"/>
   </g>
   <g id="line2d_15">
    <path clip-path="url(#p11f4624964)" d="M 135.167072 -1 
L 135.249963 289 
L 135.249963 289 
" style="fill:none;stroke:#ff7f0e;stroke-linecap:round;stroke-width:1.5;"/>
   </g>
   <g id="patch_3">
    <path d="M 54 252 
L 54 34.56 
" style="fill:none;stroke:#cccccc;stroke-linecap:square;stroke-linejoin:miter;stroke-width:0.8;"/>
   </g>
   <g id="patch_4">
    <path d="M 388.8 252 
L 388.8 34.56 
" style="fill:none;stroke:#cccccc;stroke-linecap:square;stroke-linejoin:miter;stroke-width:0.8;"/>
   </g>
   <g id="patch_5">
    <path d="M 54 252 
L 388.8 252 
" style="fill:none;stroke:#cccccc;stroke-linecap:square;stroke-linejoin:miter;stroke-width:0.8;"/>
   </g>
   <g id="patch_6">
    <path d="M 54 34.56 
L 388.8 34.56 
" style="fill:none;stroke:#cccccc;stroke-linecap:square;stroke-linejoin:miter;stroke-width:0.8;"/>
   </g>
  </g>
 </g>
 <defs>
  <clipPath id="p11f4624964">
   <rect height="217.44" width="334.8" x="54" y="34.56"/>
  </clipPath>
 </defs>
</svg>
