<?xml version="1.0" encoding="utf-8" standalone="no"?>
<!DOCTYPE svg PUBLIC "-//W3C//DTD SVG 1.1//EN"
  "http://www.w3.org/Graphics/SVG/1.1/DTD/svg11.dtd">
<!-- Created with matplotlib (https://matplotlib.org/) -->
<svg height="288pt" version="1.1" viewBox="0 0 432 288" width="432pt" xmlns="http://www.w3.org/2000/svg" xmlns:xlink="http://www.w3.org/1999/xlink">
 <metadata>
  <rdf:RDF xmlns:cc="http://creativecommons.org/ns#" xmlns:dc="http://purl.org/dc/elements/1.1/" xmlns:rdf="http://www.w3.org/1999/02/22-rdf-syntax-ns#">
   <cc:Work>
    <dc:type rdf:resource="http://purl.org/dc/dcmitype/StillImage"/>
    <dc:date>2022-05-25T22:50:38.550927</dc:date>
    <dc:format>image/svg+xml</dc:format>
    <dc:creator>
     <cc:Agent>
      <dc:title>Matplotlib v3.3.3, https://matplotlib.org/</dc:title>
     </cc:Agent>
    </dc:creator>
   </cc:Work>
  </rdf:RDF>
 </metadata>
 <defs>
  <style type="text/css">*{stroke-linecap:butt;stroke-linejoin:round;}</style>
 </defs>
 <g id="figure_1">
  <g id="patch_1">
   <path d="M 0 288 
L 432 288 
L 432 0 
L 0 0 
z
" style="fill:#ffffff;"/>
  </g>
  <g id="axes_1">
   <g id="patch_2">
    <path d="M 54 252 
L 388.8 252 
L 388.8 34.56 
L 54 34.56 
z
" style="fill:#ffffff;"/>
   </g>
   <g id="matplotlib.axis_1">
    <g id="xtick_1">
     <g id="line2d_1">
      <path clip-path="url(#p2921e1382e)" d="M 54 252 
L 54 34.56 
" style="fill:none;stroke:#cccccc;stroke-linecap:round;stroke-width:0.8;"/>
     </g>
     <g id="text_1">
      <!-- 0.00013 -->
      <g style="fill:#262626;" transform="translate(35.928125 266.157812)scale(0.1 -0.1)">
       <defs>
        <path d="M 4.15625 35.296875 
Q 4.15625 48 6.765625 55.734375 
Q 9.375 63.484375 14.515625 67.671875 
Q 19.671875 71.875 27.484375 71.875 
Q 33.25 71.875 37.59375 69.546875 
Q 41.9375 67.234375 44.765625 62.859375 
Q 47.609375 58.5 49.21875 52.21875 
Q 50.828125 45.953125 50.828125 35.296875 
Q 50.828125 22.703125 48.234375 14.96875 
Q 45.65625 7.234375 40.5 3 
Q 35.359375 -1.21875 27.484375 -1.21875 
Q 17.140625 -1.21875 11.234375 6.203125 
Q 4.15625 15.140625 4.15625 35.296875 
z
M 13.1875 35.296875 
Q 13.1875 17.671875 17.3125 11.828125 
Q 21.4375 6 27.484375 6 
Q 33.546875 6 37.671875 11.859375 
Q 41.796875 17.71875 41.796875 35.296875 
Q 41.796875 52.984375 37.671875 58.78125 
Q 33.546875 64.59375 27.390625 64.59375 
Q 21.34375 64.59375 17.71875 59.46875 
Q 13.1875 52.9375 13.1875 35.296875 
z
" id="ArialMT-48"/>
        <path d="M 9.078125 0 
L 9.078125 10.015625 
L 19.09375 10.015625 
L 19.09375 0 
z
" id="ArialMT-46"/>
        <path d="M 37.25 0 
L 28.46875 0 
L 28.46875 56 
Q 25.296875 52.984375 20.140625 49.953125 
Q 14.984375 46.921875 10.890625 45.40625 
L 10.890625 53.90625 
Q 18.265625 57.375 23.78125 62.296875 
Q 29.296875 67.234375 31.59375 71.875 
L 37.25 71.875 
z
" id="ArialMT-49"/>
        <path d="M 4.203125 18.890625 
L 12.984375 20.0625 
Q 14.5 12.59375 18.140625 9.296875 
Q 21.78125 6 27 6 
Q 33.203125 6 37.46875 10.296875 
Q 41.75 14.59375 41.75 20.953125 
Q 41.75 27 37.796875 30.921875 
Q 33.84375 34.859375 27.734375 34.859375 
Q 25.25 34.859375 21.53125 33.890625 
L 22.515625 41.609375 
Q 23.390625 41.5 23.921875 41.5 
Q 29.546875 41.5 34.03125 44.421875 
Q 38.53125 47.359375 38.53125 53.46875 
Q 38.53125 58.296875 35.25 61.46875 
Q 31.984375 64.65625 26.8125 64.65625 
Q 21.6875 64.65625 18.265625 61.421875 
Q 14.84375 58.203125 13.875 51.765625 
L 5.078125 53.328125 
Q 6.6875 62.15625 12.390625 67.015625 
Q 18.109375 71.875 26.609375 71.875 
Q 32.46875 71.875 37.390625 69.359375 
Q 42.328125 66.84375 44.9375 62.5 
Q 47.5625 58.15625 47.5625 53.265625 
Q 47.5625 48.640625 45.0625 44.828125 
Q 42.578125 41.015625 37.703125 38.765625 
Q 44.046875 37.3125 47.5625 32.6875 
Q 51.078125 28.078125 51.078125 21.140625 
Q 51.078125 11.765625 44.234375 5.25 
Q 37.40625 -1.265625 26.953125 -1.265625 
Q 17.53125 -1.265625 11.296875 4.34375 
Q 5.078125 9.96875 4.203125 18.890625 
z
" id="ArialMT-51"/>
       </defs>
       <use xlink:href="#ArialMT-48"/>
       <use x="55.615234" xlink:href="#ArialMT-46"/>
       <use x="83.398438" xlink:href="#ArialMT-48"/>
       <use x="139.013672" xlink:href="#ArialMT-48"/>
       <use x="194.628906" xlink:href="#ArialMT-48"/>
       <use x="250.244141" xlink:href="#ArialMT-49"/>
       <use x="305.859375" xlink:href="#ArialMT-51"/>
      </g>
     </g>
    </g>
    <g id="xtick_2">
     <g id="line2d_2">
      <path clip-path="url(#p2921e1382e)" d="M 120.96 252 
L 120.96 34.56 
" style="fill:none;stroke:#cccccc;stroke-linecap:round;stroke-width:0.8;"/>
     </g>
     <g id="text_2">
      <!-- 0.00014 -->
      <g style="fill:#262626;" transform="translate(102.888125 266.157812)scale(0.1 -0.1)">
       <defs>
        <path d="M 32.328125 0 
L 32.328125 17.140625 
L 1.265625 17.140625 
L 1.265625 25.203125 
L 33.9375 71.578125 
L 41.109375 71.578125 
L 41.109375 25.203125 
L 50.78125 25.203125 
L 50.78125 17.140625 
L 41.109375 17.140625 
L 41.109375 0 
z
M 32.328125 25.203125 
L 32.328125 57.46875 
L 9.90625 25.203125 
z
" id="ArialMT-52"/>
       </defs>
       <use xlink:href="#ArialMT-48"/>
       <use x="55.615234" xlink:href="#ArialMT-46"/>
       <use x="83.398438" xlink:href="#ArialMT-48"/>
       <use x="139.013672" xlink:href="#ArialMT-48"/>
       <use x="194.628906" xlink:href="#ArialMT-48"/>
       <use x="250.244141" xlink:href="#ArialMT-49"/>
       <use x="305.859375" xlink:href="#ArialMT-52"/>
      </g>
     </g>
    </g>
    <g id="xtick_3">
     <g id="line2d_3">
      <path clip-path="url(#p2921e1382e)" d="M 187.92 252 
L 187.92 34.56 
" style="fill:none;stroke:#cccccc;stroke-linecap:round;stroke-width:0.8;"/>
     </g>
     <g id="text_3">
      <!-- 0.00015 -->
      <g style="fill:#262626;" transform="translate(169.848125 266.157812)scale(0.1 -0.1)">
       <defs>
        <path d="M 4.15625 18.75 
L 13.375 19.53125 
Q 14.40625 12.796875 18.140625 9.390625 
Q 21.875 6 27.15625 6 
Q 33.5 6 37.890625 10.78125 
Q 42.28125 15.578125 42.28125 23.484375 
Q 42.28125 31 38.0625 35.34375 
Q 33.84375 39.703125 27 39.703125 
Q 22.75 39.703125 19.328125 37.765625 
Q 15.921875 35.84375 13.96875 32.765625 
L 5.71875 33.84375 
L 12.640625 70.609375 
L 48.25 70.609375 
L 48.25 62.203125 
L 19.671875 62.203125 
L 15.828125 42.96875 
Q 22.265625 47.46875 29.34375 47.46875 
Q 38.71875 47.46875 45.15625 40.96875 
Q 51.609375 34.46875 51.609375 24.265625 
Q 51.609375 14.546875 45.953125 7.46875 
Q 39.0625 -1.21875 27.15625 -1.21875 
Q 17.390625 -1.21875 11.203125 4.25 
Q 5.03125 9.71875 4.15625 18.75 
z
" id="ArialMT-53"/>
       </defs>
       <use xlink:href="#ArialMT-48"/>
       <use x="55.615234" xlink:href="#ArialMT-46"/>
       <use x="83.398438" xlink:href="#ArialMT-48"/>
       <use x="139.013672" xlink:href="#ArialMT-48"/>
       <use x="194.628906" xlink:href="#ArialMT-48"/>
       <use x="250.244141" xlink:href="#ArialMT-49"/>
       <use x="305.859375" xlink:href="#ArialMT-53"/>
      </g>
     </g>
    </g>
    <g id="xtick_4">
     <g id="line2d_4">
      <path clip-path="url(#p2921e1382e)" d="M 254.88 252 
L 254.88 34.56 
" style="fill:none;stroke:#cccccc;stroke-linecap:round;stroke-width:0.8;"/>
     </g>
     <g id="text_4">
      <!-- 0.00016 -->
      <g style="fill:#262626;" transform="translate(236.808125 266.157812)scale(0.1 -0.1)">
       <defs>
        <path d="M 49.75 54.046875 
L 41.015625 53.375 
Q 39.84375 58.546875 37.703125 60.890625 
Q 34.125 64.65625 28.90625 64.65625 
Q 24.703125 64.65625 21.53125 62.3125 
Q 17.390625 59.28125 14.984375 53.46875 
Q 12.59375 47.65625 12.5 36.921875 
Q 15.671875 41.75 20.265625 44.09375 
Q 24.859375 46.4375 29.890625 46.4375 
Q 38.671875 46.4375 44.84375 39.96875 
Q 51.03125 33.5 51.03125 23.25 
Q 51.03125 16.5 48.125 10.71875 
Q 45.21875 4.9375 40.140625 1.859375 
Q 35.0625 -1.21875 28.609375 -1.21875 
Q 17.625 -1.21875 10.6875 6.859375 
Q 3.765625 14.9375 3.765625 33.5 
Q 3.765625 54.25 11.421875 63.671875 
Q 18.109375 71.875 29.4375 71.875 
Q 37.890625 71.875 43.28125 67.140625 
Q 48.6875 62.40625 49.75 54.046875 
z
M 13.875 23.1875 
Q 13.875 18.65625 15.796875 14.5 
Q 17.71875 10.359375 21.1875 8.171875 
Q 24.65625 6 28.46875 6 
Q 34.03125 6 38.03125 10.484375 
Q 42.046875 14.984375 42.046875 22.703125 
Q 42.046875 30.125 38.078125 34.390625 
Q 34.125 38.671875 28.125 38.671875 
Q 22.171875 38.671875 18.015625 34.390625 
Q 13.875 30.125 13.875 23.1875 
z
" id="ArialMT-54"/>
       </defs>
       <use xlink:href="#ArialMT-48"/>
       <use x="55.615234" xlink:href="#ArialMT-46"/>
       <use x="83.398438" xlink:href="#ArialMT-48"/>
       <use x="139.013672" xlink:href="#ArialMT-48"/>
       <use x="194.628906" xlink:href="#ArialMT-48"/>
       <use x="250.244141" xlink:href="#ArialMT-49"/>
       <use x="305.859375" xlink:href="#ArialMT-54"/>
      </g>
     </g>
    </g>
    <g id="xtick_5">
     <g id="line2d_5">
      <path clip-path="url(#p2921e1382e)" d="M 321.84 252 
L 321.84 34.56 
" style="fill:none;stroke:#cccccc;stroke-linecap:round;stroke-width:0.8;"/>
     </g>
     <g id="text_5">
      <!-- 0.00017 -->
      <g style="fill:#262626;" transform="translate(303.768125 266.157812)scale(0.1 -0.1)">
       <defs>
        <path d="M 4.734375 62.203125 
L 4.734375 70.65625 
L 51.078125 70.65625 
L 51.078125 63.8125 
Q 44.234375 56.546875 37.515625 44.484375 
Q 30.8125 32.421875 27.15625 19.671875 
Q 24.515625 10.6875 23.78125 0 
L 14.75 0 
Q 14.890625 8.453125 18.0625 20.40625 
Q 21.234375 32.375 27.171875 43.484375 
Q 33.109375 54.59375 39.796875 62.203125 
z
" id="ArialMT-55"/>
       </defs>
       <use xlink:href="#ArialMT-48"/>
       <use x="55.615234" xlink:href="#ArialMT-46"/>
       <use x="83.398438" xlink:href="#ArialMT-48"/>
       <use x="139.013672" xlink:href="#ArialMT-48"/>
       <use x="194.628906" xlink:href="#ArialMT-48"/>
       <use x="250.244141" xlink:href="#ArialMT-49"/>
       <use x="305.859375" xlink:href="#ArialMT-55"/>
      </g>
     </g>
    </g>
    <g id="xtick_6">
     <g id="line2d_6">
      <path clip-path="url(#p2921e1382e)" d="M 388.8 252 
L 388.8 34.56 
" style="fill:none;stroke:#cccccc;stroke-linecap:round;stroke-width:0.8;"/>
     </g>
     <g id="text_6">
      <!-- 0.00018 -->
      <g style="fill:#262626;" transform="translate(370.728125 266.157812)scale(0.1 -0.1)">
       <defs>
        <path d="M 17.671875 38.8125 
Q 12.203125 40.828125 9.5625 44.53125 
Q 6.9375 48.25 6.9375 53.421875 
Q 6.9375 61.234375 12.546875 66.546875 
Q 18.171875 71.875 27.484375 71.875 
Q 36.859375 71.875 42.578125 66.421875 
Q 48.296875 60.984375 48.296875 53.171875 
Q 48.296875 48.1875 45.671875 44.5 
Q 43.0625 40.828125 37.75 38.8125 
Q 44.34375 36.671875 47.78125 31.875 
Q 51.21875 27.09375 51.21875 20.453125 
Q 51.21875 11.28125 44.71875 5.03125 
Q 38.234375 -1.21875 27.640625 -1.21875 
Q 17.046875 -1.21875 10.546875 5.046875 
Q 4.046875 11.328125 4.046875 20.703125 
Q 4.046875 27.6875 7.59375 32.390625 
Q 11.140625 37.109375 17.671875 38.8125 
z
M 15.921875 53.71875 
Q 15.921875 48.640625 19.1875 45.40625 
Q 22.46875 42.1875 27.6875 42.1875 
Q 32.765625 42.1875 36.015625 45.375 
Q 39.265625 48.578125 39.265625 53.21875 
Q 39.265625 58.0625 35.90625 61.359375 
Q 32.5625 64.65625 27.59375 64.65625 
Q 22.5625 64.65625 19.234375 61.421875 
Q 15.921875 58.203125 15.921875 53.71875 
z
M 13.09375 20.65625 
Q 13.09375 16.890625 14.875 13.375 
Q 16.65625 9.859375 20.171875 7.921875 
Q 23.6875 6 27.734375 6 
Q 34.03125 6 38.125 10.046875 
Q 42.234375 14.109375 42.234375 20.359375 
Q 42.234375 26.703125 38.015625 30.859375 
Q 33.796875 35.015625 27.4375 35.015625 
Q 21.234375 35.015625 17.15625 30.90625 
Q 13.09375 26.8125 13.09375 20.65625 
z
" id="ArialMT-56"/>
       </defs>
       <use xlink:href="#ArialMT-48"/>
       <use x="55.615234" xlink:href="#ArialMT-46"/>
       <use x="83.398438" xlink:href="#ArialMT-48"/>
       <use x="139.013672" xlink:href="#ArialMT-48"/>
       <use x="194.628906" xlink:href="#ArialMT-48"/>
       <use x="250.244141" xlink:href="#ArialMT-49"/>
       <use x="305.859375" xlink:href="#ArialMT-56"/>
      </g>
     </g>
    </g>
   </g>
   <g id="matplotlib.axis_2">
    <g id="ytick_1">
     <g id="line2d_7">
      <path clip-path="url(#p2921e1382e)" d="M 54 252 
L 388.8 252 
" style="fill:none;stroke:#cccccc;stroke-linecap:round;stroke-width:0.8;"/>
     </g>
     <g id="text_7">
      <!-- 0.00 -->
      <g style="fill:#262626;" transform="translate(27.539062 255.578906)scale(0.1 -0.1)">
       <use xlink:href="#ArialMT-48"/>
       <use x="55.615234" xlink:href="#ArialMT-46"/>
       <use x="83.398438" xlink:href="#ArialMT-48"/>
       <use x="139.013672" xlink:href="#ArialMT-48"/>
      </g>
     </g>
    </g>
    <g id="ytick_2">
     <g id="line2d_8">
      <path clip-path="url(#p2921e1382e)" d="M 54 215.76 
L 388.8 215.76 
" style="fill:none;stroke:#cccccc;stroke-linecap:round;stroke-width:0.8;"/>
     </g>
     <g id="text_8">
      <!-- 0.01 -->
      <g style="fill:#262626;" transform="translate(27.539062 219.338906)scale(0.1 -0.1)">
       <use xlink:href="#ArialMT-48"/>
       <use x="55.615234" xlink:href="#ArialMT-46"/>
       <use x="83.398438" xlink:href="#ArialMT-48"/>
       <use x="139.013672" xlink:href="#ArialMT-49"/>
      </g>
     </g>
    </g>
    <g id="ytick_3">
     <g id="line2d_9">
      <path clip-path="url(#p2921e1382e)" d="M 54 179.52 
L 388.8 179.52 
" style="fill:none;stroke:#cccccc;stroke-linecap:round;stroke-width:0.8;"/>
     </g>
     <g id="text_9">
      <!-- 0.02 -->
      <g style="fill:#262626;" transform="translate(27.539062 183.098906)scale(0.1 -0.1)">
       <defs>
        <path d="M 50.34375 8.453125 
L 50.34375 0 
L 3.03125 0 
Q 2.9375 3.171875 4.046875 6.109375 
Q 5.859375 10.9375 9.828125 15.625 
Q 13.8125 20.3125 21.34375 26.46875 
Q 33.015625 36.03125 37.109375 41.625 
Q 41.21875 47.21875 41.21875 52.203125 
Q 41.21875 57.421875 37.46875 61 
Q 33.734375 64.59375 27.734375 64.59375 
Q 21.390625 64.59375 17.578125 60.78125 
Q 13.765625 56.984375 13.71875 50.25 
L 4.6875 51.171875 
Q 5.609375 61.28125 11.65625 66.578125 
Q 17.71875 71.875 27.9375 71.875 
Q 38.234375 71.875 44.234375 66.15625 
Q 50.25 60.453125 50.25 52 
Q 50.25 47.703125 48.484375 43.546875 
Q 46.734375 39.40625 42.65625 34.8125 
Q 38.578125 30.21875 29.109375 22.21875 
Q 21.1875 15.578125 18.9375 13.203125 
Q 16.703125 10.84375 15.234375 8.453125 
z
" id="ArialMT-50"/>
       </defs>
       <use xlink:href="#ArialMT-48"/>
       <use x="55.615234" xlink:href="#ArialMT-46"/>
       <use x="83.398438" xlink:href="#ArialMT-48"/>
       <use x="139.013672" xlink:href="#ArialMT-50"/>
      </g>
     </g>
    </g>
    <g id="ytick_4">
     <g id="line2d_10">
      <path clip-path="url(#p2921e1382e)" d="M 54 143.28 
L 388.8 143.28 
" style="fill:none;stroke:#cccccc;stroke-linecap:round;stroke-width:0.8;"/>
     </g>
     <g id="text_10">
      <!-- 0.03 -->
      <g style="fill:#262626;" transform="translate(27.539062 146.858906)scale(0.1 -0.1)">
       <use xlink:href="#ArialMT-48"/>
       <use x="55.615234" xlink:href="#ArialMT-46"/>
       <use x="83.398438" xlink:href="#ArialMT-48"/>
       <use x="139.013672" xlink:href="#ArialMT-51"/>
      </g>
     </g>
    </g>
    <g id="ytick_5">
     <g id="line2d_11">
      <path clip-path="url(#p2921e1382e)" d="M 54 107.04 
L 388.8 107.04 
" style="fill:none;stroke:#cccccc;stroke-linecap:round;stroke-width:0.8;"/>
     </g>
     <g id="text_11">
      <!-- 0.04 -->
      <g style="fill:#262626;" transform="translate(27.539062 110.618906)scale(0.1 -0.1)">
       <use xlink:href="#ArialMT-48"/>
       <use x="55.615234" xlink:href="#ArialMT-46"/>
       <use x="83.398438" xlink:href="#ArialMT-48"/>
       <use x="139.013672" xlink:href="#ArialMT-52"/>
      </g>
     </g>
    </g>
    <g id="ytick_6">
     <g id="line2d_12">
      <path clip-path="url(#p2921e1382e)" d="M 54 70.8 
L 388.8 70.8 
" style="fill:none;stroke:#cccccc;stroke-linecap:round;stroke-width:0.8;"/>
     </g>
     <g id="text_12">
      <!-- 0.05 -->
      <g style="fill:#262626;" transform="translate(27.539062 74.378906)scale(0.1 -0.1)">
       <use xlink:href="#ArialMT-48"/>
       <use x="55.615234" xlink:href="#ArialMT-46"/>
       <use x="83.398438" xlink:href="#ArialMT-48"/>
       <use x="139.013672" xlink:href="#ArialMT-53"/>
      </g>
     </g>
    </g>
    <g id="ytick_7">
     <g id="line2d_13">
      <path clip-path="url(#p2921e1382e)" d="M 54 34.56 
L 388.8 34.56 
" style="fill:none;stroke:#cccccc;stroke-linecap:round;stroke-width:0.8;"/>
     </g>
     <g id="text_13">
      <!-- 0.06 -->
      <g style="fill:#262626;" transform="translate(27.539062 38.138906)scale(0.1 -0.1)">
       <use xlink:href="#ArialMT-48"/>
       <use x="55.615234" xlink:href="#ArialMT-46"/>
       <use x="83.398438" xlink:href="#ArialMT-48"/>
       <use x="139.013672" xlink:href="#ArialMT-54"/>
      </g>
     </g>
    </g>
   </g>
   <g id="line2d_14">
    <path clip-path="url(#p2921e1382e)" d="M 53.938009 217.445684 
L 54.105413 216.08519 
L 54.272817 217.246586 
L 54.356519 217.058552 
L 54.440221 217.445684 
L 54.607625 216.273224 
L 54.77503 218.219949 
L 54.858732 217.832816 
L 54.942434 216.08519 
L 55.19354 218.419043 
L 55.277242 217.445684 
L 55.444646 218.031911 
L 55.528348 219.193308 
L 55.695753 218.419043 
L 55.779455 218.607081 
L 55.946859 218.031911 
L 56.114263 218.607081 
L 56.197965 219.381345 
L 56.449071 216.472322 
L 56.616476 218.031911 
L 56.700178 217.633718 
L 56.78388 216.472322 
L 56.951284 218.031911 
L 57.034986 217.058552 
L 57.118688 217.445684 
L 57.20239 218.419043 
L 57.453496 217.633718 
L 57.704603 218.419043 
L 57.788305 218.219949 
L 57.872007 217.445684 
L 57.955709 217.633718 
L 58.039411 218.419043 
L 58.123113 216.859454 
L 58.206815 217.246586 
L 58.290517 217.445684 
L 58.374219 217.058552 
L 58.457922 217.832816 
L 58.625326 216.472322 
L 58.876432 218.419043 
L 59.127538 216.859454 
L 59.21124 218.031911 
L 59.294942 217.445684 
L 59.462347 218.607081 
L 59.629751 216.67142 
L 59.713453 216.859454 
L 59.797155 216.67142 
L 59.964559 218.031911 
L 60.048261 216.472322 
L 60.131963 216.859454 
L 60.215665 217.058552 
L 60.299367 216.859454 
L 60.38307 218.806175 
L 60.717878 216.67142 
L 60.80158 217.445684 
L 60.885282 216.859454 
L 61.052686 217.832816 
L 61.136388 217.246586 
L 61.471197 218.806175 
L 61.554899 218.031911 
L 61.638601 218.419043 
L 61.722303 217.445684 
L 61.806005 217.832816 
L 61.973409 217.058552 
L 62.057111 217.832816 
L 62.140813 217.058552 
L 62.308218 217.633718 
L 62.39192 216.67142 
L 62.475622 217.058552 
L 62.559324 216.67142 
L 62.726728 218.419043 
L 62.81043 218.219949 
L 62.894132 217.633718 
L 62.977834 218.219949 
L 63.145238 216.273224 
L 63.312643 218.031911 
L 63.480047 218.419043 
L 63.563749 217.246586 
L 63.647451 217.633718 
L 63.898557 216.859454 
L 63.982259 216.859454 
L 64.149663 217.445684 
L 64.233366 217.058552 
L 64.40077 217.832816 
L 64.484472 217.832816 
L 64.568174 218.419043 
L 64.651876 217.246586 
L 64.902982 218.607081 
L 65.070386 218.031911 
L 65.237791 216.859454 
L 65.572599 218.419043 
L 65.740003 216.67142 
L 65.823705 217.058552 
L 65.907407 218.219949 
L 65.991109 217.246586 
L 66.242216 218.031911 
L 66.325918 218.031911 
L 66.40962 218.419043 
L 66.493322 217.058552 
L 66.660726 218.031911 
L 66.744428 217.832816 
L 66.911832 217.246586 
L 66.995534 217.246586 
L 67.079237 217.445684 
L 67.330343 216.67142 
L 67.581449 218.031911 
L 67.665151 217.445684 
L 67.916257 218.607081 
L 67.999959 218.607081 
L 68.083662 219.381345 
L 68.251066 218.419043 
L 68.502172 217.633718 
L 68.669576 217.058552 
L 68.753278 218.419043 
L 68.920682 217.058552 
L 69.088087 217.832816 
L 69.171789 217.058552 
L 69.339193 218.219949 
L 69.422895 218.031911 
L 69.590299 217.832816 
L 69.757703 219.381345 
L 69.841405 218.994213 
L 70.00881 218.219949 
L 70.176214 218.031911 
L 70.343618 218.607081 
L 70.42732 217.832816 
L 70.594724 218.806175 
L 70.678426 218.419043 
L 70.84583 218.806175 
L 70.929533 219.381345 
L 71.264341 217.832816 
L 71.348043 218.219949 
L 71.515447 217.633718 
L 71.682851 218.607081 
L 71.766553 218.419043 
L 71.850256 217.633718 
L 71.933958 217.832816 
L 72.01766 217.445684 
L 72.268766 218.031911 
L 72.352468 217.832816 
L 72.43617 218.219949 
L 72.519872 217.832816 
L 72.603574 218.219949 
L 72.687276 218.031911 
L 72.938383 216.273224 
L 73.022085 216.472322 
L 73.189489 217.445684 
L 73.273191 217.445684 
L 73.356893 218.607081 
L 73.440595 217.633718 
L 73.524297 218.994213 
L 73.607999 218.607081 
L 73.691701 217.832816 
L 73.775404 219.193308 
L 73.942808 218.031911 
L 74.02651 217.832816 
L 74.277616 218.219949 
L 74.361318 217.246586 
L 74.528722 217.633718 
L 74.696126 217.633718 
L 74.779829 217.832816 
L 74.863531 217.445684 
L 74.947233 218.031911 
L 75.030935 217.445684 
L 75.198339 218.994213 
L 75.533147 216.859454 
L 75.616849 218.219949 
L 75.700552 217.832816 
L 75.784254 217.058552 
L 75.951658 217.832816 
L 76.202764 214.5256 
L 76.370168 220.553802 
L 76.45387 214.138468 
L 76.537572 215.498959 
L 76.704977 217.633718 
L 76.872381 223.07569 
L 76.956083 215.498959 
L 77.123487 218.806175 
L 77.458295 215.111827 
L 77.541997 216.859454 
L 77.6257 215.698057 
L 77.960508 216.859454 
L 78.04421 216.859454 
L 78.127912 216.08519 
L 78.295316 218.219949 
L 78.379018 216.859454 
L 78.46272 218.031911 
L 78.630125 217.246586 
L 78.713827 218.806175 
L 78.797529 218.419043 
L 78.881231 218.219949 
L 78.964933 218.419043 
L 79.048635 217.832816 
L 79.132337 218.031911 
L 79.216039 218.607081 
L 79.299741 217.832816 
L 79.383443 218.607081 
L 79.467145 216.472322 
L 79.550848 217.832816 
L 79.718252 217.058552 
L 79.885656 218.031911 
L 80.136762 217.445684 
L 80.304166 216.859454 
L 80.387868 217.246586 
L 80.471571 216.08519 
L 80.638975 217.832816 
L 80.722677 217.246586 
L 80.806379 218.419043 
L 80.890081 218.031911 
L 80.973783 217.832816 
L 81.308591 218.607081 
L 81.392294 217.445684 
L 81.475996 217.832816 
L 81.559698 216.859454 
L 81.6434 218.219949 
L 81.727102 217.832816 
L 81.894506 217.832816 
L 81.978208 218.806175 
L 82.229314 216.472322 
L 82.313016 216.859454 
L 82.480421 218.031911 
L 82.647825 217.058552 
L 82.898931 218.607081 
L 83.150037 216.472322 
L 83.317442 218.031911 
L 83.484846 216.859454 
L 83.568548 217.058552 
L 83.65225 218.607081 
L 83.735952 217.445684 
L 83.903356 218.219949 
L 84.07076 216.67142 
L 84.238164 216.472322 
L 84.405569 217.633718 
L 84.656675 216.08519 
L 84.740377 215.698057 
L 84.824079 216.472322 
L 84.907781 216.08519 
L 85.075185 216.67142 
L 85.158887 216.472322 
L 85.24259 217.058552 
L 85.326292 216.472322 
L 85.409994 216.67142 
L 85.493696 216.67142 
L 85.577398 217.246586 
L 85.744802 215.886092 
L 85.828504 217.058552 
L 85.995908 216.08519 
L 86.07961 217.058552 
L 86.163312 216.859454 
L 86.330717 215.698057 
L 86.498121 217.445684 
L 86.665525 215.698057 
L 86.749227 216.08519 
L 86.916631 215.498959 
L 87.084035 216.859454 
L 87.25144 215.111827 
L 87.418844 215.886092 
L 87.502546 216.273224 
L 87.586248 216.08519 
L 87.753652 214.923793 
L 87.837354 214.337563 
L 87.921056 214.5256 
L 88.088461 214.923793 
L 88.255865 214.724695 
L 88.339567 216.08519 
L 88.423269 215.886092 
L 88.506971 216.273224 
L 88.758077 215.111827 
L 88.841779 214.138468 
L 89.009183 215.310925 
L 89.092886 214.138468 
L 89.427694 215.886092 
L 89.511396 215.886092 
L 89.595098 215.498959 
L 89.6788 216.273224 
L 89.846204 214.337563 
L 90.013609 215.886092 
L 90.181013 214.724695 
L 90.348417 215.310925 
L 90.432119 214.724695 
L 90.515821 214.923793 
L 90.766927 215.698057 
L 90.850629 215.498959 
L 90.934331 216.08519 
L 91.018034 215.498959 
L 91.101736 215.698057 
L 91.185438 215.698057 
L 91.26914 215.111827 
L 91.352842 215.886092 
L 91.436544 214.724695 
L 91.603948 216.08519 
L 91.68765 216.08519 
L 91.855054 214.5256 
L 92.189863 216.273224 
L 92.440969 215.310925 
L 92.524671 215.498959 
L 92.608373 214.724695 
L 92.692075 215.111827 
L 92.85948 216.472322 
L 92.943182 214.923793 
L 93.026884 216.08519 
L 93.110586 215.886092 
L 93.194288 216.08519 
L 93.27799 216.67142 
L 93.361692 216.273224 
L 93.445394 216.67142 
L 93.529096 215.310925 
L 93.612798 215.698057 
L 93.6965 215.498959 
L 93.863905 217.246586 
L 94.031309 216.472322 
L 94.115011 216.859454 
L 94.366117 215.698057 
L 94.533521 216.67142 
L 94.617223 214.724695 
L 94.784628 216.08519 
L 94.952032 216.67142 
L 95.119436 215.886092 
L 95.203138 215.886092 
L 95.28684 216.472322 
L 95.370542 215.886092 
L 95.454244 216.273224 
L 95.621648 215.310925 
L 95.789053 215.310925 
L 95.872755 215.498959 
L 96.040159 215.310925 
L 96.123861 216.08519 
L 96.207563 215.498959 
L 96.291265 216.273224 
L 96.458669 215.310925 
L 96.626073 216.273224 
L 96.960882 214.724695 
L 97.211988 217.246586 
L 97.463094 215.111827 
L 97.965307 217.058552 
L 98.049009 216.859454 
L 98.132711 217.246586 
L 98.216413 215.698057 
L 98.300115 215.886092 
L 98.383817 215.698057 
L 98.467519 214.724695 
L 98.634924 215.698057 
L 98.718626 214.724695 
L 98.802328 215.111827 
L 98.88603 214.923793 
L 99.137136 216.472322 
L 99.220838 215.498959 
L 99.471944 216.273224 
L 99.639349 215.111827 
L 99.723051 216.472322 
L 99.806753 216.08519 
L 99.890455 216.859454 
L 100.141561 214.724695 
L 100.225263 214.923793 
L 100.476369 216.273224 
L 100.560072 216.08519 
L 100.643774 215.498959 
L 100.727476 216.08519 
L 100.811178 215.886092 
L 100.89488 215.498959 
L 101.145986 216.67142 
L 101.31339 215.698057 
L 101.397092 216.08519 
L 101.480795 215.698057 
L 101.564497 216.273224 
L 101.731901 214.5256 
L 101.815603 214.724695 
L 101.983007 215.698057 
L 102.150411 214.724695 
L 102.317815 216.472322 
L 102.652624 215.698057 
L 102.736326 216.67142 
L 102.820028 215.111827 
L 102.90373 215.310925 
L 102.987432 214.724695 
L 103.154836 216.67142 
L 103.238538 215.698057 
L 103.32224 216.08519 
L 103.489645 214.5256 
L 103.573347 214.923793 
L 103.657049 214.724695 
L 103.740751 214.138468 
L 104.159261 216.67142 
L 104.326666 215.111827 
L 104.410368 215.886092 
L 104.49407 215.498959 
L 104.577772 215.698057 
L 104.661474 214.923793 
L 104.745176 215.698057 
L 104.91258 215.111827 
L 104.996282 215.111827 
L 105.079984 215.886092 
L 105.163686 215.698057 
L 105.247388 215.310925 
L 105.414793 216.273224 
L 105.498495 215.498959 
L 105.582197 216.08519 
L 105.665899 215.111827 
L 105.749601 216.08519 
L 105.917005 215.498959 
L 106.000707 216.273224 
L 106.251814 214.337563 
L 106.419218 216.08519 
L 106.586622 214.923793 
L 106.670324 215.310925 
L 106.92143 213.950431 
L 107.088834 215.698057 
L 107.256239 215.310925 
L 107.339941 216.08519 
L 107.591047 214.5256 
L 107.674749 215.698057 
L 107.842153 213.563298 
L 108.009557 215.310925 
L 108.176962 214.724695 
L 108.260664 214.923793 
L 108.344366 215.498959 
L 108.428068 215.310925 
L 108.51177 214.724695 
L 108.595472 214.923793 
L 108.679174 215.111827 
L 108.762876 216.08519 
L 109.013982 214.337563 
L 109.097684 214.5256 
L 109.181387 215.310925 
L 109.265089 215.111827 
L 109.432493 215.498959 
L 109.516195 215.498959 
L 109.683599 217.058552 
L 109.851003 214.5256 
L 109.934705 215.310925 
L 110.018407 215.111827 
L 110.185812 215.698057 
L 110.269514 216.67142 
L 110.436918 214.724695 
L 110.52062 215.111827 
L 110.604322 216.472322 
L 110.855428 214.724695 
L 111.022833 215.886092 
L 111.190237 215.498959 
L 111.273939 216.273224 
L 111.441343 215.310925 
L 111.776151 215.886092 
L 111.859853 215.698057 
L 111.943555 214.923793 
L 112.027258 216.273224 
L 112.11096 215.310925 
L 112.194662 216.273224 
L 112.362066 214.923793 
L 112.445768 216.472322 
L 112.52947 216.08519 
L 112.864278 213.950431 
L 112.947981 215.111827 
L 113.199087 213.364204 
L 113.617597 216.273224 
L 113.785001 214.923793 
L 113.868703 214.724695 
L 114.11981 215.498959 
L 114.203512 216.67142 
L 114.287214 216.08519 
L 114.370916 216.859454 
L 114.53832 215.498959 
L 114.622022 215.698057 
L 114.789426 215.886092 
L 114.873129 215.698057 
L 115.040533 214.923793 
L 115.124235 215.111827 
L 115.207937 214.923793 
L 115.291639 215.498959 
L 115.375341 215.111827 
L 115.542745 215.886092 
L 115.626447 215.498959 
L 115.793852 215.698057 
L 115.877554 215.111827 
L 115.961256 215.310925 
L 116.12866 215.698057 
L 116.212362 215.310925 
L 116.296064 215.498959 
L 116.379766 215.310925 
L 116.54717 215.886092 
L 116.630872 215.111827 
L 116.714574 215.698057 
L 116.881979 215.310925 
L 116.965681 215.310925 
L 117.133085 216.273224 
L 117.300489 215.498959 
L 117.384191 215.698057 
L 117.467893 216.67142 
L 117.802702 215.111827 
L 118.053808 214.724695 
L 118.221212 216.273224 
L 118.304914 216.472322 
L 118.388616 215.498959 
L 118.55602 216.08519 
L 118.723425 214.923793 
L 118.807127 215.698057 
L 118.890829 215.498959 
L 118.974531 215.886092 
L 119.141935 214.5256 
L 119.309339 215.886092 
L 119.560445 213.751336 
L 119.72785 215.310925 
L 119.811552 215.310925 
L 119.978956 214.724695 
L 120.14636 214.337563 
L 120.313764 215.111827 
L 120.397466 214.337563 
L 120.481168 214.923793 
L 120.56487 214.724695 
L 120.648573 214.337563 
L 120.899679 214.923793 
L 120.983381 214.5256 
L 121.234487 215.498959 
L 121.318189 214.5256 
L 121.401891 214.724695 
L 121.569296 213.950431 
L 121.652998 214.923793 
L 121.820402 213.563298 
L 121.987806 213.950431 
L 122.071508 213.950431 
L 122.238912 215.111827 
L 122.406316 213.950431 
L 122.573721 215.310925 
L 122.657423 213.950431 
L 122.741125 214.337563 
L 122.908529 215.310925 
L 122.992231 214.923793 
L 123.075933 213.751336 
L 123.243337 214.923793 
L 123.327039 215.310925 
L 123.410741 214.337563 
L 123.578146 215.698057 
L 123.829252 214.923793 
L 123.912954 214.337563 
L 123.996656 215.498959 
L 124.247762 213.950431 
L 124.498869 215.498959 
L 124.749975 214.5256 
L 125.084783 215.111827 
L 125.252187 214.923793 
L 125.335889 215.498959 
L 125.503294 214.923793 
L 125.586996 214.923793 
L 125.670698 213.950431 
L 125.7544 214.5256 
L 125.838102 214.138468 
L 126.089208 215.498959 
L 126.17291 215.698057 
L 126.424017 214.923793 
L 126.507719 216.67142 
L 126.591421 215.498959 
L 126.675123 215.698057 
L 126.758825 214.724695 
L 126.842527 215.111827 
L 126.926229 214.337563 
L 127.093633 215.498959 
L 127.261037 215.111827 
L 127.428442 215.498959 
L 127.512144 213.950431 
L 127.679548 215.310925 
L 127.846952 214.724695 
L 127.930654 214.923793 
L 128.014356 215.886092 
L 128.18176 215.111827 
L 128.349165 215.698057 
L 128.516569 214.337563 
L 128.683973 215.886092 
L 128.767675 215.310925 
L 128.851377 213.950431 
L 128.935079 214.138468 
L 129.018781 214.724695 
L 129.102483 214.337563 
L 129.186186 215.111827 
L 129.269888 214.923793 
L 129.35359 214.138468 
L 129.437292 215.310925 
L 129.520994 214.923793 
L 129.604696 214.337563 
L 129.855802 215.698057 
L 130.023206 214.724695 
L 130.106908 214.923793 
L 130.274313 214.724695 
L 130.441717 215.111827 
L 130.609121 213.950431 
L 130.776525 214.5256 
L 130.860227 213.563298 
L 131.278738 216.08519 
L 131.446142 213.950431 
L 131.529844 214.337563 
L 131.613546 214.337563 
L 131.78095 215.310925 
L 131.864652 214.724695 
L 132.032056 215.698057 
L 132.115759 214.138468 
L 132.199461 214.923793 
L 132.283163 214.724695 
L 132.450567 215.310925 
L 132.617971 213.563298 
L 133.120184 215.698057 
L 133.203886 215.498959 
L 133.287588 216.273224 
L 133.37129 216.08519 
L 133.538694 214.337563 
L 133.706098 215.111827 
L 133.7898 213.950431 
L 133.873502 214.337563 
L 133.957205 213.751336 
L 134.208311 215.111827 
L 134.292013 213.950431 
L 134.375715 214.337563 
L 134.543119 213.563298 
L 134.626821 213.364204 
L 134.710523 214.337563 
L 134.794225 213.950431 
L 134.877927 214.138468 
L 134.96163 215.310925 
L 135.129034 214.337563 
L 135.212736 214.337563 
L 135.296438 213.751336 
L 135.38014 214.923793 
L 135.463842 214.724695 
L 135.631246 213.751336 
L 135.714948 213.950431 
L 135.79865 214.138468 
L 136.049757 215.111827 
L 136.133459 214.923793 
L 136.217161 215.310925 
L 136.300863 214.337563 
L 136.384565 214.923793 
L 136.468267 213.751336 
L 136.551969 213.950431 
L 136.635671 214.138468 
L 136.719373 215.111827 
L 136.803075 214.923793 
L 136.97048 213.751336 
L 137.054182 214.138468 
L 137.137884 213.950431 
L 137.221586 214.138468 
L 137.305288 215.498959 
L 137.556394 214.5256 
L 137.640096 214.337563 
L 137.807501 215.498959 
L 137.974905 214.337563 
L 138.142309 215.698057 
L 138.309713 215.111827 
L 138.477117 215.111827 
L 138.560819 214.5256 
L 138.644521 215.111827 
L 138.728223 214.337563 
L 138.895628 215.310925 
L 138.97933 214.337563 
L 139.063032 214.724695 
L 139.314138 213.364204 
L 139.565244 214.724695 
L 139.648946 214.724695 
L 139.732649 215.498959 
L 139.983755 214.138468 
L 140.151159 214.724695 
L 140.318563 215.498959 
L 140.402265 215.498959 
L 140.569669 213.165106 
L 140.653372 213.950431 
L 140.820776 215.310925 
L 140.904478 215.310925 
L 141.071882 215.698057 
L 141.239286 215.111827 
L 141.322988 215.111827 
L 141.490392 214.138468 
L 141.574094 214.337563 
L 141.741499 214.923793 
L 141.908903 213.751336 
L 142.076307 215.111827 
L 142.243711 215.498959 
L 142.327413 215.310925 
L 142.411115 216.08519 
L 142.494817 215.111827 
L 142.57852 216.273224 
L 142.662222 215.111827 
L 142.745924 215.310925 
L 142.829626 215.698057 
L 142.913328 215.310925 
L 142.99703 215.498959 
L 143.080732 216.08519 
L 143.164434 215.698057 
L 143.248136 216.273224 
L 143.499242 214.5256 
L 143.582945 215.111827 
L 143.750349 214.5256 
L 143.834051 214.5256 
L 144.001455 215.886092 
L 144.085157 215.886092 
L 144.252561 214.5256 
L 144.336263 214.724695 
L 144.419965 214.5256 
L 144.503668 216.08519 
L 144.58737 215.310925 
L 144.671072 216.273224 
L 144.838476 215.111827 
L 144.922178 215.111827 
L 145.00588 214.923793 
L 145.089582 215.310925 
L 145.173284 214.337563 
L 145.256986 214.5256 
L 145.340688 214.138468 
L 145.508093 214.724695 
L 145.675497 214.138468 
L 145.926603 215.698057 
L 146.094007 215.111827 
L 146.512518 214.337563 
L 146.59622 215.310925 
L 146.763624 214.724695 
L 146.931028 214.923793 
L 147.01473 214.923793 
L 147.265836 214.337563 
L 147.349539 215.111827 
L 147.433241 214.923793 
L 147.516943 215.111827 
L 147.600645 213.950431 
L 147.684347 214.138468 
L 147.851751 214.923793 
L 147.935453 214.724695 
L 148.102857 213.563298 
L 148.186559 213.950431 
L 148.270261 215.111827 
L 148.353964 214.923793 
L 148.437666 215.498959 
L 148.521368 214.5256 
L 148.688772 215.498959 
L 148.772474 217.246586 
L 148.939878 214.5256 
L 149.02358 214.923793 
L 149.274687 213.950431 
L 149.442091 215.111827 
L 149.525793 214.923793 
L 149.609495 214.724695 
L 149.693197 215.886092 
L 149.776899 215.698057 
L 149.944303 214.724695 
L 150.111707 214.923793 
L 150.195409 214.923793 
L 150.530218 214.337563 
L 150.61392 215.310925 
L 150.697622 215.111827 
L 150.781324 214.923793 
L 151.116132 215.698057 
L 151.283537 214.5256 
L 151.367239 215.111827 
L 151.534643 214.138468 
L 151.785749 215.886092 
L 151.953153 213.751336 
L 152.036855 214.923793 
L 152.120558 214.724695 
L 152.20426 214.138468 
L 152.287962 215.310925 
L 152.455366 214.724695 
L 152.539068 215.498959 
L 152.62277 215.310925 
L 152.706472 214.5256 
L 152.790174 215.698057 
L 153.04128 213.165106 
L 153.292387 215.698057 
L 153.459791 214.337563 
L 153.627195 215.498959 
L 153.794599 214.923793 
L 153.962003 215.498959 
L 154.045706 215.111827 
L 154.21311 215.886092 
L 154.380514 214.337563 
L 154.464216 214.5256 
L 154.63162 216.67142 
L 154.799024 214.138468 
L 154.882726 214.5256 
L 154.966428 215.498959 
L 155.133833 214.5256 
L 155.217535 214.724695 
L 155.301237 214.5256 
L 155.552343 212.589939 
L 155.719747 215.498959 
L 155.803449 214.923793 
L 155.970854 212.977072 
L 156.138258 216.08519 
L 156.22196 214.5256 
L 156.305662 214.724695 
L 156.473066 214.923793 
L 156.556768 214.138468 
L 156.64047 214.5256 
L 156.724172 214.337563 
L 156.807874 214.724695 
L 156.975279 213.563298 
L 157.226385 215.498959 
L 157.310087 215.111827 
L 157.477491 213.165106 
L 157.644895 215.111827 
L 157.896002 213.950431 
L 158.063406 215.310925 
L 158.314512 213.165106 
L 158.481916 214.724695 
L 158.64932 213.751336 
L 158.816725 215.498959 
L 158.900427 215.310925 
L 158.984129 215.698057 
L 159.486341 213.563298 
L 159.570043 213.950431 
L 159.737447 216.67142 
L 159.904852 215.498959 
L 159.988554 215.498959 
L 160.23966 216.08519 
L 160.323362 215.310925 
L 160.490766 216.273224 
L 160.574468 215.886092 
L 160.825575 216.273224 
L 160.909277 215.886092 
L 160.992979 216.273224 
L 161.160383 216.08519 
L 161.244085 216.08519 
L 161.411489 217.058552 
L 161.662595 215.498959 
L 161.83 215.310925 
L 161.913702 215.886092 
L 162.081106 214.337563 
L 162.164808 214.337563 
L 162.24851 213.563298 
L 162.332212 213.950431 
L 162.499616 214.923793 
L 162.583318 214.724695 
L 162.750723 216.67142 
L 162.918127 214.724695 
L 163.001829 216.273224 
L 163.169233 214.923793 
L 163.252935 215.698057 
L 163.336637 215.310925 
L 163.420339 216.472322 
L 163.504041 215.498959 
L 163.587744 216.08519 
L 163.755148 214.724695 
L 164.089956 217.058552 
L 164.173658 216.859454 
L 164.508466 214.923793 
L 164.675871 216.08519 
L 164.759573 216.472322 
L 164.926977 215.886092 
L 165.010679 217.058552 
L 165.094381 215.698057 
L 165.261785 217.445684 
L 165.429189 218.031911 
L 165.512892 217.832816 
L 165.596594 218.607081 
L 165.763998 217.445684 
L 165.8477 217.633718 
L 165.931402 219.58044 
L 166.015104 218.994213 
L 166.098806 219.193308 
L 166.182508 218.607081 
L 166.349912 218.994213 
L 166.433614 218.219949 
L 166.517317 219.967572 
L 166.601019 219.779538 
L 166.684721 219.381345 
L 166.768423 219.58044 
L 166.935827 218.607081 
L 167.103231 220.354704 
L 167.354337 219.193308 
L 167.521742 220.940934 
L 167.605444 219.58044 
L 167.689146 219.967572 
L 167.772848 220.553802 
L 167.85655 220.354704 
L 168.023954 220.553802 
L 168.107656 219.58044 
L 168.191358 219.967572 
L 168.27506 219.779538 
L 168.358763 219.967572 
L 168.526167 220.741836 
L 168.609869 220.354704 
L 168.693571 220.741836 
L 168.777273 220.553802 
L 168.860975 221.328066 
L 169.028379 219.967572 
L 169.112081 220.354704 
L 169.279485 219.779538 
L 169.530592 221.914293 
L 169.614294 221.527161 
L 169.697996 221.914293 
L 169.781698 221.128969 
L 169.8654 221.715199 
L 170.032804 221.128969 
L 170.200208 222.301425 
L 170.283911 221.914293 
L 170.367613 223.66192 
L 170.618719 221.128969 
L 170.702421 222.102331 
L 170.786123 220.940934 
L 171.037229 222.489463 
L 171.204633 221.328066 
L 171.372038 222.102331 
L 171.539442 221.527161 
L 171.623144 223.462822 
L 171.790548 221.128969 
L 171.87425 222.102331 
L 172.125356 221.328066 
L 172.209059 220.940934 
L 172.292761 221.715199 
L 172.376463 221.527161 
L 172.460165 221.527161 
L 172.543867 221.128969 
L 172.711271 222.688558 
L 172.878675 220.354704 
L 172.962377 220.553802 
L 173.129781 221.914293 
L 173.297186 222.102331 
L 173.380888 221.715199 
L 173.46459 220.16667 
L 173.715696 221.128969 
L 173.8831 220.553802 
L 174.050504 221.715199 
L 174.217909 220.940934 
L 174.301611 220.741836 
L 174.385313 219.381345 
L 174.636419 221.328066 
L 174.803823 220.553802 
L 174.887525 220.741836 
L 175.05493 221.715199 
L 175.222334 221.527161 
L 175.306036 220.741836 
L 175.47344 222.489463 
L 175.557142 222.489463 
L 175.724546 221.128969 
L 175.89195 221.914293 
L 175.975652 221.527161 
L 176.059355 222.887656 
L 176.143057 221.715199 
L 176.226759 221.914293 
L 176.310461 221.914293 
L 176.394163 221.328066 
L 176.477865 221.715199 
L 176.645269 220.354704 
L 176.728971 221.715199 
L 176.812673 221.527161 
L 176.896375 222.301425 
L 176.980078 221.328066 
L 177.06378 221.914293 
L 177.147482 221.527161 
L 177.314886 222.102331 
L 177.48229 222.887656 
L 177.565992 222.887656 
L 177.733396 224.436184 
L 177.817098 222.301425 
L 177.9008 222.489463 
L 177.984503 222.489463 
L 178.068205 223.07569 
L 178.151907 222.887656 
L 178.235609 223.07569 
L 178.403013 221.914293 
L 178.654119 224.049052 
L 178.821523 223.462822 
L 178.905226 223.66192 
L 178.988928 223.274788 
L 179.156332 221.527161 
L 179.240034 221.715199 
L 179.407438 222.887656 
L 179.49114 221.715199 
L 179.658544 223.66192 
L 179.825949 222.688558 
L 180.077055 224.049052 
L 180.244459 223.462822 
L 180.328161 223.66192 
L 180.579267 223.274788 
L 180.746671 223.849956 
L 180.830374 223.849956 
L 180.914076 225.597581 
L 181.165182 223.66192 
L 181.248884 224.049052 
L 181.332586 224.237088 
L 181.49999 223.462822 
L 181.667394 224.237088 
L 181.751097 223.274788 
L 182.085905 224.823317 
L 182.169607 223.66192 
L 182.253309 224.635281 
L 182.504415 223.462822 
L 182.588117 224.237088 
L 182.755522 223.849956 
L 182.839224 224.436184 
L 183.09033 223.07569 
L 183.676245 212.777974 
L 184.262159 189.284575 
L 184.596967 182.67015 
L 184.68067 182.67015 
L 184.764372 182.869241 
L 184.848074 182.67015 
L 185.015478 183.068339 
L 185.768797 188.112121 
L 185.852499 187.525891 
L 185.936201 187.924087 
L 186.019903 190.058839 
L 186.103605 189.859748 
L 186.187307 190.058839 
L 186.354711 191.607368 
L 186.438413 191.419334 
L 186.522116 191.806466 
L 186.68952 193.554093 
L 186.773222 193.742127 
L 186.940626 195.489754 
L 187.024328 194.914587 
L 187.10803 195.688852 
L 187.191732 195.489754 
L 187.359136 196.275079 
L 187.693945 199.3832 
L 187.777647 198.79697 
L 188.028753 200.544596 
L 188.279859 199.770332 
L 188.447264 202.491318 
L 188.614668 201.130823 
L 188.69837 201.517955 
L 188.865774 203.453616 
L 189.11688 202.679352 
L 189.367986 205.400341 
L 189.451689 205.013209 
L 189.535391 204.814111 
L 189.702795 205.013209 
L 189.870199 206.561738 
L 189.953901 206.760832 
L 190.037603 206.174606 
L 190.288709 207.535097 
L 190.372412 207.535097 
L 190.456114 208.508459 
L 190.623518 208.121327 
L 190.70722 208.309361 
L 190.790922 207.734195 
L 190.958326 208.707554 
L 191.12573 207.535097 
L 191.209432 208.309361 
L 191.293135 207.922229 
L 191.460539 209.669856 
L 191.544241 209.481818 
L 191.711645 210.068048 
L 191.795347 210.068048 
L 191.879049 209.86895 
L 191.962751 211.030347 
L 192.130155 210.256083 
L 192.213857 211.417479 
L 192.29756 210.643215 
L 192.381262 211.417479 
L 192.548666 210.842313 
L 192.799772 213.563298 
L 192.883474 212.003709 
L 192.967176 212.390841 
L 193.218283 213.950431 
L 193.469389 212.589939 
L 193.553091 212.589939 
L 193.636793 212.202807 
L 193.804197 212.777974 
L 194.222708 209.86895 
L 194.72492 196.662211 
L 196.398962 134.698933 
L 196.73377 126.14884 
L 196.817472 125.573667 
L 197.319685 117.410713 
L 197.403387 117.609804 
L 197.905599 111.006436 
L 198.156706 107.69923 
L 198.240408 107.312091 
L 198.993727 96.240114 
L 199.412237 86.141492 
L 199.579641 83.033364 
L 199.747045 78.564755 
L 200.416662 61.663674 
L 200.584066 59.340881 
L 200.918875 54.086937 
L 201.086279 50.403649 
L 201.169981 50.204558 
L 201.504789 46.52127 
L 201.588491 46.52127 
L 201.672193 46.709305 
L 201.755895 45.735949 
L 202.258108 51.377018 
L 203.095129 68.853273 
L 204.852873 118.771208 
L 205.020277 122.266461 
L 206.610617 154.121912 
L 206.694319 154.896176 
L 206.945425 158.977653 
L 207.782446 169.275373 
L 207.866148 168.88824 
L 207.94985 169.076275 
L 208.200956 172.770626 
L 208.452062 174.905378 
L 208.703169 177.814402 
L 209.121679 180.347357 
L 209.205381 180.535391 
L 209.289083 181.508753 
L 209.372785 180.922523 
L 209.456488 182.283018 
L 209.54019 182.094977 
L 209.623892 182.094977 
L 209.707594 182.482109 
L 209.9587 181.121621 
L 210.209806 182.67015 
L 210.37721 181.121621 
L 210.460913 181.508753 
L 210.628317 179.373994 
L 210.712019 179.573092 
L 210.795721 179.373994 
L 210.879423 179.573092 
L 211.883848 164.032492 
L 212.971975 134.112703 
L 213.474188 117.609804 
L 213.55789 116.050218 
L 213.808996 108.086356 
L 214.143804 99.149138 
L 214.478613 91.185275 
L 214.897123 81.086653 
L 215.734144 64.196616 
L 215.901548 60.88941 
L 215.98525 60.30318 
L 216.320059 52.925547 
L 216.487463 50.978823 
L 216.738569 46.709305 
L 216.822271 47.096444 
L 216.905973 46.322179 
L 216.989675 44.18742 
L 217.073377 44.375455 
L 217.15708 44.574546 
L 217.324484 43.988316 
L 217.491888 45.735949 
L 217.57559 44.961685 
L 217.9941 46.709305 
L 218.077803 46.52127 
L 218.161505 46.709305 
L 218.580015 52.538408 
L 219.751844 72.934756 
L 220.505163 89.249607 
L 220.588865 89.636746 
L 220.756269 93.718216 
L 220.839971 94.691585 
L 221.425886 108.086356 
L 221.676992 113.716368 
L 222.095503 123.239817 
L 222.346609 126.14884 
L 222.681417 133.725577 
L 222.932524 137.220817 
L 223.099928 139.941806 
L 223.518438 144.797554 
L 223.60214 144.60952 
L 223.853247 149.266164 
L 224.271757 154.32101 
L 224.439161 155.482406 
L 224.606565 157.429124 
L 224.77397 158.203389 
L 224.857672 158.004291 
L 225.025076 160.338148 
L 225.276182 159.751917 
L 225.443586 160.338148 
L 225.527288 159.751917 
L 225.61099 159.951015 
L 225.694692 159.951015 
L 225.778395 159.563883 
L 226.029501 160.924378 
L 226.113203 160.537246 
L 226.280607 158.977653 
L 226.364309 158.789619 
L 226.615415 157.816256 
L 226.78282 157.030935 
L 227.117628 153.148549 
L 227.20133 153.148549 
L 227.452436 151.01379 
L 228.038351 142.662796 
L 228.122053 142.463698 
L 228.456861 137.220817 
L 228.540563 136.645658 
L 228.707968 132.177048 
L 228.79167 132.365083 
L 229.21018 123.239817 
L 229.293882 122.852691 
L 230.549414 100.896758 
L 230.633116 100.708723 
L 230.967924 95.46585 
L 231.051626 94.691585 
L 231.21903 91.583457 
L 231.470137 88.475343 
L 231.553839 88.475343 
L 231.637541 87.889113 
L 232.056051 81.672883 
L 232.139753 81.473779 
L 232.307157 79.92525 
L 232.474562 78.951894 
L 232.558264 79.33902 
L 232.80937 76.230905 
L 233.144178 74.870411 
L 233.22788 75.069502 
L 233.311582 74.870411 
L 233.395285 75.069502 
L 233.478987 75.843766 
L 233.562689 75.25755 
L 233.730093 76.042871 
L 233.813795 76.042871 
L 233.981199 77.016226 
L 234.148603 78.564755 
L 234.232305 78.564755 
L 234.39971 79.150985 
L 234.567114 80.898619 
L 235.23673 87.889113 
L 235.990049 97.401504 
L 236.073751 97.21347 
L 236.492262 104.403068 
L 236.659666 107.312091 
L 236.743368 106.537827 
L 236.82707 106.537827 
L 237.161878 112.366931 
L 237.245581 112.554965 
L 237.412985 113.528334 
L 237.664091 117.996943 
L 237.747793 117.797852 
L 237.998899 121.105058 
L 238.082601 121.293092 
L 238.333708 125.573667 
L 238.668516 129.06892 
L 238.752218 128.681795 
L 239.003324 131.789909 
L 239.421835 135.672288 
L 239.756643 137.220817 
L 240.175154 141.302301 
L 240.258856 141.302301 
L 240.342558 141.888531 
L 240.42626 140.716071 
L 240.509962 141.114267 
L 240.677366 142.861893 
L 240.761068 141.888531 
L 240.928472 143.249026 
L 241.095877 143.049928 
L 241.179579 143.824192 
L 241.263281 143.43706 
L 241.430685 143.824192 
L 241.681791 142.275663 
L 241.849195 144.02329 
L 241.932897 143.049928 
L 242.0166 143.43706 
L 242.267706 140.716071 
L 242.351408 141.114267 
L 242.43511 140.716071 
L 242.518812 141.114267 
L 242.686216 140.140904 
L 242.769918 140.528037 
L 242.937323 139.167542 
L 243.021025 138.968451 
L 243.188429 138.006152 
L 243.272131 138.194186 
L 243.774343 132.564174 
L 243.941748 131.203679 
L 244.02545 131.391714 
L 244.276556 129.456059 
L 244.360258 128.869829 
L 244.611364 124.98745 
L 244.695066 124.788346 
L 246.285406 106.725861 
L 246.45281 107.69923 
L 246.871321 103.230608 
L 246.955023 102.655448 
L 247.038725 103.042573 
L 247.122427 102.655448 
L 247.289831 101.095849 
L 247.373533 101.870113 
L 247.540937 99.934459 
L 247.708342 100.708723 
L 247.792044 100.321584 
L 247.959448 98.761999 
L 248.04315 98.573964 
L 248.294256 97.600609 
L 248.377958 97.987734 
L 248.629064 95.852975 
L 248.712767 96.62724 
L 248.880171 94.691585 
L 248.963873 95.46585 
L 249.047575 95.266745 
L 249.214979 95.852975 
L 249.382383 95.078711 
L 249.63349 93.519125 
L 249.884596 95.653884 
L 249.968298 95.266745 
L 250.219404 98.186839 
L 250.386808 97.014379 
L 250.47051 97.401504 
L 250.637915 99.735368 
L 250.805319 98.761999 
L 251.056425 102.456343 
L 251.140127 102.456343 
L 251.391233 104.591102 
L 251.474935 103.617747 
L 251.558638 104.403068 
L 251.726042 107.312091 
L 251.809744 107.312091 
L 252.395658 113.915459 
L 252.563063 112.366931 
L 252.897871 115.475045 
L 253.065275 116.636449 
L 253.232679 119.357438 
L 253.400083 117.410713 
L 253.734892 123.438921 
L 253.818594 123.040725 
L 253.985998 123.239817 
L 254.404509 126.535979 
L 254.488211 126.535979 
L 254.739317 127.89646 
L 254.823019 127.509335 
L 254.906721 127.89646 
L 254.990423 127.708426 
L 255.241529 131.391714 
L 255.325232 130.816554 
L 255.576338 132.365083 
L 255.66004 131.391714 
L 255.743742 132.752208 
L 255.827444 131.977944 
L 256.07855 133.338438 
L 256.162252 132.951313 
L 256.329657 134.499842 
L 256.497061 132.951313 
L 256.664465 134.311794 
L 256.748167 134.499842 
L 256.831869 132.365083 
L 256.915571 132.752208 
L 257.082975 133.537529 
L 257.166677 132.951313 
L 257.25038 133.338438 
L 257.417784 132.752208 
L 257.585188 132.752208 
L 257.66889 132.564174 
L 257.919996 130.429415 
L 258.003698 130.816554 
L 258.0874 129.456059 
L 258.254805 130.230324 
L 258.338507 130.230324 
L 258.422209 130.042289 
L 258.505911 128.869829 
L 258.589613 129.06892 
L 258.757017 129.843185 
L 259.008123 127.708426 
L 259.091825 127.509335 
L 259.342932 126.14884 
L 259.510336 126.347931 
L 259.67774 125.374576 
L 259.761442 124.014081 
L 259.845144 124.213186 
L 260.347357 120.131702 
L 260.431059 121.105058 
L 260.514761 120.905967 
L 260.682165 118.970299 
L 260.765867 118.970299 
L 261.519186 112.554965 
L 261.602888 113.329229 
L 262.188803 108.672586 
L 262.272505 108.285447 
L 262.356207 108.86062 
L 262.607313 106.537827 
L 262.774717 107.511183 
L 262.858419 106.725861 
L 262.942121 106.924966 
L 263.109526 106.338736 
L 263.27693 107.69923 
L 263.360632 105.951597 
L 263.528036 108.285447 
L 263.779142 106.725861 
L 263.946547 107.312091 
L 264.197653 104.403068 
L 264.281355 103.617747 
L 264.532461 107.312091 
L 264.699865 105.177332 
L 264.867269 106.537827 
L 265.034674 104.403068 
L 265.118376 105.365367 
L 265.202078 104.591102 
L 265.28578 105.564471 
L 265.369482 105.365367 
L 265.453184 105.177332 
L 265.536886 104.591102 
L 265.620588 105.177332 
L 265.787992 106.924966 
L 265.871695 107.511183 
L 266.039099 106.725861 
L 266.122801 107.69923 
L 266.206503 107.113 
L 266.541311 110.03308 
L 266.708715 109.258816 
L 266.792418 110.420206 
L 266.87612 110.221115 
L 267.043524 111.968735 
L 267.127226 111.393575 
L 267.210928 111.581609 
L 267.462034 114.302598 
L 267.545736 113.716368 
L 267.629438 113.528334 
L 267.71314 113.915459 
L 267.880545 115.275954 
L 267.964247 115.275954 
L 268.047949 115.076863 
L 268.299055 117.797852 
L 268.382757 117.609804 
L 268.550161 118.384069 
L 268.801268 119.357438 
L 268.968672 118.970299 
L 269.30348 121.680231 
L 269.554586 122.266461 
L 269.638288 121.879322 
L 269.721991 122.078427 
L 269.805693 121.680231 
L 270.056799 123.626956 
L 270.140501 122.852691 
L 270.307905 123.826047 
L 270.391607 123.438921 
L 270.642714 125.761715 
L 270.726416 125.374576 
L 270.810118 124.98745 
L 270.89382 125.960806 
L 271.061224 125.186541 
L 271.31233 127.708426 
L 271.479734 127.708426 
L 271.563436 127.122196 
L 271.730841 127.89646 
L 271.898245 126.535979 
L 271.981947 127.89646 
L 272.065649 127.509335 
L 272.149351 127.89646 
L 272.233053 126.73507 
L 272.316755 127.3213 
L 272.400457 126.934161 
L 272.484159 128.095565 
L 272.90267 125.573667 
L 272.986372 125.573667 
L 273.070074 126.347931 
L 273.153776 125.573667 
L 273.237478 125.761715 
L 273.32118 125.761715 
L 273.404882 125.573667 
L 273.572287 124.014081 
L 273.739691 125.186541 
L 273.823393 125.186541 
L 273.990797 124.98745 
L 274.074499 124.014081 
L 274.241903 124.788346 
L 274.49301 123.040725 
L 274.576712 123.040725 
L 274.744116 122.852691 
L 274.91152 121.105058 
L 274.995222 122.465552 
L 275.078924 122.078427 
L 275.413733 119.357438 
L 275.497435 120.131702 
L 275.664839 119.545472 
L 275.748541 119.357438 
L 275.999647 120.717932 
L 276.167051 118.970299 
L 276.250753 118.771208 
L 276.50186 117.222679 
L 276.585562 117.410713 
L 276.669264 117.222679 
L 277.087774 113.716368 
L 277.255178 114.888829 
L 277.506285 112.554965 
L 277.589987 113.528334 
L 277.673689 113.141195 
L 277.841093 111.968735 
L 278.008497 111.581609 
L 278.175901 110.221115 
L 278.343306 110.619311 
L 278.427008 110.807345 
L 278.51071 111.581609 
L 278.594412 109.645941 
L 278.678114 110.03308 
L 278.761816 110.619311 
L 278.92922 109.833976 
L 279.012922 110.619311 
L 279.096624 110.03308 
L 279.264029 110.619311 
L 279.431433 109.44685 
L 279.598837 110.420206 
L 279.682539 109.645941 
L 279.849943 111.581609 
L 279.933645 110.420206 
L 280.017347 111.006436 
L 280.101049 110.221115 
L 280.184752 111.19447 
L 280.268454 110.807345 
L 280.51956 111.581609 
L 280.770666 110.221115 
L 280.854368 110.807345 
L 280.93807 110.03308 
L 281.105474 111.968735 
L 281.189177 111.7807 
L 281.272879 110.221115 
L 281.356581 110.619311 
L 281.440283 110.619311 
L 281.523985 111.393575 
L 281.607687 111.19447 
L 281.691389 111.19447 
L 281.942495 112.554965 
L 282.026197 112.366931 
L 282.193602 112.942104 
L 282.444708 113.716368 
L 282.52841 113.141195 
L 282.612112 113.329229 
L 282.695814 114.302598 
L 282.863218 113.528334 
L 283.281729 117.023588 
L 283.365431 116.050218 
L 283.616537 117.797852 
L 283.783941 117.222679 
L 283.951345 117.996943 
L 284.11875 118.970299 
L 284.286154 120.330793 
L 284.369856 118.970299 
L 284.453558 119.357438 
L 284.53726 120.717932 
L 284.704664 119.744563 
L 284.872068 120.905967 
L 284.955771 122.465552 
L 285.039473 122.266461 
L 285.123175 121.879322 
L 285.206877 122.852691 
L 285.374281 121.293092 
L 285.541685 122.653587 
L 285.625387 121.879322 
L 285.792791 122.852691 
L 285.876493 123.438921 
L 286.1276 121.879322 
L 286.211302 122.852691 
L 286.295004 122.465552 
L 286.378706 123.239817 
L 286.462408 122.852691 
L 286.629812 123.438921 
L 286.713514 122.852691 
L 286.880919 123.626956 
L 286.964621 123.040725 
L 287.048323 123.438921 
L 287.132025 123.040725 
L 287.215727 123.626956 
L 287.299429 123.239817 
L 287.383131 124.014081 
L 287.550535 123.040725 
L 287.801641 124.788346 
L 288.052748 123.438921 
L 288.220152 123.826047 
L 288.387556 123.438921 
L 288.471258 123.438921 
L 288.55496 124.40122 
L 288.638662 124.213186 
L 288.973471 123.239817 
L 289.057173 122.078427 
L 289.140875 122.653587 
L 289.308279 121.680231 
L 289.391981 121.879322 
L 289.475683 121.680231 
L 289.559385 122.078427 
L 289.726789 120.905967 
L 289.810492 121.680231 
L 289.894194 120.905967 
L 289.977896 121.293092 
L 290.229002 119.932597 
L 290.396406 120.518828 
L 290.480108 119.158333 
L 290.56381 119.545472 
L 290.647512 119.545472 
L 290.814917 118.771208 
L 290.982321 120.131702 
L 291.233427 118.583173 
L 291.317129 118.771208 
L 291.400831 118.583173 
L 291.484533 118.771208 
L 291.568235 117.996943 
L 291.651938 118.184977 
L 291.73564 118.583173 
L 291.903044 117.609804 
L 291.986746 118.583173 
L 292.15415 117.410713 
L 292.237852 117.222679 
L 292.321554 117.609804 
L 292.488958 117.222679 
L 292.57266 118.384069 
L 292.656363 116.636449 
L 292.740065 117.410713 
L 292.907469 115.275954 
L 293.074873 116.050218 
L 293.325979 114.302598 
L 293.577086 114.689724 
L 293.660788 114.689724 
L 293.74449 114.888829 
L 293.995596 113.141195 
L 294.079298 113.329229 
L 294.163 112.75407 
L 294.330404 113.329229 
L 294.497808 112.167839 
L 294.581511 112.942104 
L 294.665213 112.366931 
L 294.832617 113.528334 
L 295.000021 112.75407 
L 295.167425 112.75407 
L 295.251127 113.329229 
L 295.334829 112.554965 
L 295.585936 114.114564 
L 295.75334 113.528334 
L 295.837042 113.716368 
L 296.004446 114.888829 
L 296.088148 114.689724 
L 296.17185 113.716368 
L 296.339254 115.475045 
L 296.506659 114.302598 
L 296.590361 115.475045 
L 296.757765 114.689724 
L 296.841467 114.888829 
L 296.925169 115.663093 
L 297.008871 115.275954 
L 297.092573 116.050218 
L 297.176275 115.663093 
L 297.259977 114.302598 
L 297.427382 116.050218 
L 297.511084 114.114564 
L 297.76219 115.475045 
L 297.845892 115.475045 
L 298.096998 116.050218 
L 298.264402 116.824483 
L 298.599211 115.663093 
L 298.682913 115.862184 
L 298.766615 117.410713 
L 298.850317 117.023588 
L 299.017721 117.609804 
L 299.101423 117.609804 
L 299.268827 116.824483 
L 299.603636 118.583173 
L 299.687338 118.384069 
L 299.77104 119.158333 
L 299.854742 118.771208 
L 299.938444 120.518828 
L 300.022146 119.357438 
L 300.18955 120.131702 
L 300.356955 119.744563 
L 300.608061 121.879322 
L 300.691763 121.879322 
L 300.859167 120.717932 
L 300.942869 121.492197 
L 301.026571 121.293092 
L 301.110273 121.293092 
L 301.193975 122.078427 
L 301.277678 121.492197 
L 301.36138 119.744563 
L 301.612486 121.492197 
L 301.77989 121.105058 
L 301.863592 120.518828 
L 302.114698 121.879322 
L 302.198401 120.717932 
L 302.365805 122.078427 
L 302.449507 121.105058 
L 302.533209 121.293092 
L 302.700613 122.266461 
L 302.784315 122.078427 
L 302.951719 122.266461 
L 303.119124 121.293092 
L 303.202826 122.078427 
L 303.286528 121.680231 
L 303.537634 123.239817 
L 303.621336 122.653587 
L 303.705038 122.852691 
L 303.78874 123.826047 
L 304.039846 121.680231 
L 304.123549 122.653587 
L 304.207251 122.465552 
L 304.290953 122.266461 
L 304.374655 121.293092 
L 304.458357 121.492197 
L 304.625761 121.879322 
L 304.709463 121.492197 
L 304.793165 121.879322 
L 304.960569 120.717932 
L 305.044272 120.905967 
L 305.127974 121.105058 
L 305.295378 120.717932 
L 305.462782 121.105058 
L 305.546484 121.105058 
L 305.713888 120.717932 
L 305.79759 120.905967 
L 306.132399 118.184977 
L 306.467207 119.744563 
L 306.718313 116.824483 
L 306.802015 118.184977 
L 306.96942 117.222679 
L 307.136824 118.771208 
L 307.38793 116.824483 
L 307.555334 117.222679 
L 307.722738 117.797852 
L 307.890143 117.996943 
L 307.973845 117.609804 
L 308.057547 116.636449 
L 308.224951 117.410713 
L 308.308653 117.023588 
L 308.392355 117.222679 
L 308.476057 118.384069 
L 308.559759 118.184977 
L 308.810865 116.437357 
L 308.894568 116.437357 
L 308.97827 116.636449 
L 309.061972 115.862184 
L 309.145674 116.824483 
L 309.39678 115.475045 
L 309.480482 115.663093 
L 309.647886 116.437357 
L 309.815291 115.076863 
L 309.898993 115.475045 
L 310.233801 114.114564 
L 310.317503 114.114564 
L 310.568609 115.475045 
L 310.652311 114.302598 
L 310.736013 115.275954 
L 310.819716 115.076863 
L 310.903418 115.076863 
L 311.070822 115.663093 
L 311.154524 115.475045 
L 311.321928 114.50169 
L 311.489332 115.862184 
L 311.573034 115.663093 
L 311.740439 116.050218 
L 311.907843 115.862184 
L 312.075247 116.437357 
L 312.158949 117.609804 
L 312.242651 117.023588 
L 312.326353 117.609804 
L 312.410055 117.410713 
L 312.577459 116.437357 
L 312.828566 117.410713 
L 312.912268 116.636449 
L 312.99597 117.023588 
L 313.079672 116.824483 
L 313.247076 117.222679 
L 313.41448 117.996943 
L 313.498182 117.023588 
L 313.581884 117.410713 
L 313.749289 116.636449 
L 313.832991 116.824483 
L 314.000395 117.797852 
L 314.167799 117.222679 
L 314.335203 118.184977 
L 314.502607 117.023588 
L 314.837416 118.970299 
L 314.921118 119.158333 
L 315.00482 118.384069 
L 315.088522 118.583173 
L 315.255926 117.797852 
L 315.339628 119.357438 
L 315.42333 118.970299 
L 315.590735 119.545472 
L 315.674437 120.717932 
L 315.758139 119.357438 
L 316.009245 120.717932 
L 316.092947 120.330793 
L 316.176649 120.905967 
L 316.260351 120.131702 
L 316.344053 120.905967 
L 316.427755 120.330793 
L 316.511458 120.905967 
L 316.59516 120.518828 
L 316.678862 120.717932 
L 316.762564 120.518828 
L 316.846266 121.105058 
L 316.929968 120.905967 
L 317.01367 121.105058 
L 317.097372 120.131702 
L 317.348478 120.905967 
L 317.43218 121.105058 
L 317.515883 120.905967 
L 317.599585 119.158333 
L 317.683287 120.518828 
L 317.766989 120.131702 
L 317.850691 120.518828 
L 317.934393 119.932597 
L 318.018095 120.330793 
L 318.185499 118.583173 
L 318.352903 120.518828 
L 318.60401 118.583173 
L 318.855116 119.545472 
L 318.938818 119.545472 
L 319.106222 119.158333 
L 319.189924 120.131702 
L 319.273626 119.744563 
L 319.441031 119.932597 
L 319.524733 119.545472 
L 319.775839 120.717932 
L 319.859541 120.717932 
L 319.943243 120.905967 
L 320.110647 119.357438 
L 320.278051 120.330793 
L 320.361754 120.330793 
L 320.529158 121.492197 
L 320.61286 121.105058 
L 320.696562 119.744563 
L 320.863966 120.330793 
L 321.03137 119.545472 
L 321.115072 120.131702 
L 321.282477 118.771208 
L 321.449881 119.158333 
L 321.868391 118.384069 
L 321.952093 118.384069 
L 322.035795 118.184977 
L 322.203199 117.410713 
L 322.286902 117.410713 
L 322.370604 117.996943 
L 322.454306 117.797852 
L 322.538008 117.797852 
L 322.62171 118.384069 
L 322.705412 117.996943 
L 322.789114 118.184977 
L 322.872816 115.862184 
L 323.04022 117.609804 
L 323.123922 117.023588 
L 323.207625 117.222679 
L 323.291327 117.797852 
L 323.375029 116.824483 
L 323.458731 117.410713 
L 323.626135 117.023588 
L 323.709837 117.996943 
L 323.960943 117.023588 
L 324.044645 117.996943 
L 324.21205 117.609804 
L 324.379454 117.023588 
L 324.546858 117.996943 
L 324.63056 117.609804 
L 324.714262 118.184977 
L 324.965368 116.636449 
L 325.132773 117.023588 
L 325.216475 115.663093 
L 325.300177 115.862184 
L 325.383879 115.076863 
L 325.634985 116.437357 
L 325.718687 116.636449 
L 325.802389 115.663093 
L 325.886091 116.437357 
L 326.137198 115.076863 
L 326.388304 116.437357 
L 326.472006 115.275954 
L 326.555708 116.050218 
L 326.63941 115.862184 
L 326.723112 116.050218 
L 326.890516 115.076863 
L 327.057921 116.050218 
L 327.141623 115.475045 
L 327.392729 116.437357 
L 327.476431 116.249323 
L 327.560133 117.410713 
L 327.727537 116.636449 
L 327.811239 116.824483 
L 327.894941 116.050218 
L 328.062346 116.636449 
L 328.146048 116.249323 
L 328.22975 117.609804 
L 328.313452 116.249323 
L 328.397154 117.023588 
L 328.564558 116.437357 
L 328.64826 117.797852 
L 328.731962 117.609804 
L 328.899366 118.771208 
L 329.066771 118.384069 
L 329.234175 116.824483 
L 329.401579 117.797852 
L 329.568983 117.410713 
L 329.820089 118.583173 
L 330.071196 117.996943 
L 330.154898 117.222679 
L 330.322302 117.797852 
L 330.406004 117.797852 
L 330.489706 117.996943 
L 330.573408 117.023588 
L 330.65711 117.222679 
L 330.740812 117.410713 
L 330.908217 118.771208 
L 330.991919 117.222679 
L 331.243025 118.970299 
L 331.326727 118.384069 
L 331.410429 118.771208 
L 331.661535 117.996943 
L 331.745237 119.744563 
L 331.82894 119.545472 
L 331.912642 119.545472 
L 331.996344 118.771208 
L 332.331152 120.131702 
L 332.498556 120.131702 
L 332.582258 120.518828 
L 332.66596 120.330793 
L 332.833365 120.518828 
L 333.084471 119.545472 
L 333.168173 120.330793 
L 333.251875 120.131702 
L 333.502981 119.545472 
L 333.586683 119.932597 
L 333.754088 119.357438 
L 333.83779 119.932597 
L 333.921492 119.158333 
L 334.088896 119.744563 
L 334.172598 119.545472 
L 334.2563 119.932597 
L 334.340002 117.996943 
L 334.423704 118.384069 
L 334.507406 118.184977 
L 334.591108 118.771208 
L 334.674811 118.384069 
L 334.758513 118.583173 
L 334.842215 119.545472 
L 334.925917 119.158333 
L 335.009619 119.357438 
L 335.093321 120.131702 
L 335.260725 118.970299 
L 335.344427 118.970299 
L 335.428129 119.357438 
L 335.511831 118.970299 
L 335.595533 119.357438 
L 335.679236 120.518828 
L 335.84664 119.158333 
L 336.181448 120.131702 
L 336.348852 118.970299 
L 336.432554 119.744563 
L 336.516256 119.357438 
L 336.683661 119.744563 
L 336.767363 119.158333 
L 336.851065 119.545472 
L 336.934767 119.357438 
L 337.185873 118.384069 
L 337.269575 118.771208 
L 337.604384 117.797852 
L 337.688086 118.583173 
L 337.771788 117.609804 
L 337.85549 117.996943 
L 337.939192 119.357438 
L 338.022894 118.970299 
L 338.190298 116.437357 
L 338.274 117.996943 
L 338.357702 117.797852 
L 338.525107 116.249323 
L 338.692511 117.410713 
L 338.776213 117.797852 
L 339.027319 116.050218 
L 339.278425 117.410713 
L 339.44583 117.023588 
L 339.529532 117.410713 
L 339.696936 116.824483 
L 339.86434 117.996943 
L 339.948042 117.996943 
L 340.031744 118.184977 
L 340.115446 117.996943 
L 340.28285 118.384069 
L 340.533957 117.609804 
L 340.701361 119.158333 
L 340.785063 118.970299 
L 340.868765 117.609804 
L 340.952467 117.996943 
L 341.036169 117.996943 
L 341.287275 118.583173 
L 341.45468 117.410713 
L 341.705786 118.583173 
L 341.789488 117.023588 
L 341.87319 117.222679 
L 341.956892 117.609804 
L 342.040594 116.636449 
L 342.207998 117.222679 
L 342.375403 116.050218 
L 342.542807 117.222679 
L 342.626509 117.023588 
L 342.793913 116.824483 
L 342.961317 117.410713 
L 343.045019 116.050218 
L 343.212423 118.583173 
L 343.379828 116.636449 
L 343.46353 116.824483 
L 343.547232 117.222679 
L 343.630934 118.583173 
L 343.714636 118.384069 
L 344.049444 118.970299 
L 344.133146 118.583173 
L 344.216849 119.158333 
L 344.300551 118.970299 
L 344.384253 118.771208 
L 344.635359 119.744563 
L 344.719061 118.583173 
L 344.802763 120.717932 
L 344.970167 119.158333 
L 345.137571 120.330793 
L 345.221274 118.583173 
L 345.304976 118.771208 
L 345.388678 119.545472 
L 345.556082 119.158333 
L 345.639784 119.932597 
L 345.89089 118.184977 
L 345.974592 118.771208 
L 346.058294 118.384069 
L 346.225699 119.545472 
L 346.309401 119.932597 
L 346.476805 117.609804 
L 346.727911 119.744563 
L 346.895315 118.184977 
L 346.979017 118.384069 
L 347.230124 120.717932 
L 347.313826 120.330793 
L 347.397528 118.771208 
L 347.48123 119.545472 
L 347.564932 118.771208 
L 347.732336 120.330793 
L 347.816038 120.131702 
L 347.89974 118.384069 
L 347.983442 118.771208 
L 348.234549 121.105058 
L 348.401953 120.717932 
L 348.569357 119.357438 
L 348.653059 120.717932 
L 348.820463 118.970299 
L 348.904165 118.771208 
L 348.987868 118.970299 
L 349.07157 118.583173 
L 349.238974 119.932597 
L 349.406378 118.384069 
L 349.657484 120.131702 
L 349.824888 118.970299 
L 349.90859 119.357438 
L 349.992293 118.970299 
L 350.159697 119.744563 
L 350.243399 118.384069 
L 350.327101 118.583173 
L 350.410803 118.384069 
L 350.494505 118.583173 
L 350.578207 117.609804 
L 350.745611 117.996943 
L 350.913016 119.932597 
L 350.996718 120.131702 
L 351.08042 118.583173 
L 351.247824 119.357438 
L 351.331526 119.158333 
L 351.666334 120.131702 
L 351.750036 119.158333 
L 351.833738 119.357438 
L 352.001143 119.932597 
L 352.168547 119.545472 
L 352.335951 120.330793 
L 352.419653 119.545472 
L 352.587057 120.717932 
L 352.670759 120.330793 
L 352.921866 120.330793 
L 353.005568 120.905967 
L 353.172972 120.518828 
L 353.256674 120.905967 
L 353.340376 120.518828 
L 353.424078 118.771208 
L 353.758886 120.905967 
L 353.926291 118.970299 
L 354.177397 121.105058 
L 354.344801 118.970299 
L 354.428503 119.357438 
L 354.512205 119.932597 
L 354.595907 119.744563 
L 354.763312 118.583173 
L 354.847014 118.583173 
L 355.014418 117.996943 
L 355.09812 118.771208 
L 355.181822 118.583173 
L 355.265524 118.771208 
L 355.432928 118.184977 
L 355.51663 119.545472 
L 355.600332 119.158333 
L 355.684035 119.357438 
L 355.935141 118.583173 
L 356.186247 120.131702 
L 356.437353 120.518828 
L 356.604757 118.771208 
L 356.855864 120.330793 
L 356.939566 119.744563 
L 357.023268 120.330793 
L 357.10697 120.131702 
L 357.274374 119.545472 
L 357.441778 120.131702 
L 357.52548 119.158333 
L 357.609183 119.357438 
L 357.692885 118.771208 
L 357.860289 119.744563 
L 357.943991 119.545472 
L 358.027693 118.771208 
L 358.195097 119.357438 
L 358.278799 118.771208 
L 358.362501 119.357438 
L 358.446203 118.583173 
L 358.529905 119.158333 
L 358.613608 118.771208 
L 358.69731 119.545472 
L 358.781012 117.996943 
L 358.864714 118.384069 
L 358.948416 118.184977 
L 359.283224 119.545472 
L 359.366926 119.357438 
L 359.450628 118.771208 
L 359.534331 119.158333 
L 359.618033 118.771208 
L 359.869139 120.131702 
L 359.952841 119.545472 
L 360.036543 119.744563 
L 360.203947 119.744563 
L 360.287649 120.518828 
L 360.371351 120.330793 
L 360.538756 118.771208 
L 360.70616 120.330793 
L 360.789862 119.545472 
L 360.873564 120.330793 
L 360.957266 118.771208 
L 361.208372 121.680231 
L 361.292074 121.680231 
L 361.459479 120.905967 
L 361.626883 121.105058 
L 361.710585 121.105058 
L 361.961691 119.744563 
L 362.129095 119.545472 
L 362.296499 119.932597 
L 362.380202 120.131702 
L 362.463904 118.970299 
L 362.631308 119.357438 
L 362.71501 118.771208 
L 362.798712 119.158333 
L 362.966116 118.771208 
L 363.217222 119.932597 
L 363.300924 119.545472 
L 363.384627 120.518828 
L 363.468329 119.744563 
L 363.552031 120.518828 
L 363.635733 120.330793 
L 363.886839 118.583173 
L 364.137945 120.518828 
L 364.221647 120.518828 
L 364.30535 120.131702 
L 364.389052 120.330793 
L 364.472754 119.545472 
L 364.556456 120.131702 
L 364.640158 119.744563 
L 364.807562 120.131702 
L 364.974966 119.744563 
L 365.226072 121.680231 
L 365.393477 120.905967 
L 365.560881 119.744563 
L 365.644583 120.131702 
L 365.728285 119.932597 
L 365.895689 121.105058 
L 365.979391 119.158333 
L 366.063093 119.744563 
L 366.146795 119.744563 
L 366.230498 119.545472 
L 366.3142 118.384069 
L 366.397902 118.583173 
L 366.481604 118.384069 
L 366.649008 119.357438 
L 366.73271 119.158333 
L 366.900114 119.158333 
L 366.983816 118.384069 
L 367.234923 119.744563 
L 367.318625 118.970299 
L 367.402327 119.357438 
L 367.486029 118.384069 
L 367.653433 119.545472 
L 367.820837 120.518828 
L 367.988241 119.744563 
L 368.071943 120.518828 
L 368.32305 119.545472 
L 368.574156 121.492197 
L 368.825262 119.545472 
L 368.908964 120.905967 
L 369.160071 119.545472 
L 369.243773 119.357438 
L 369.327475 119.545472 
L 369.494879 121.492197 
L 369.745985 119.158333 
L 369.829687 119.357438 
L 369.997091 118.970299 
L 370.080794 117.996943 
L 370.164496 119.357438 
L 370.248198 118.970299 
L 370.3319 118.583173 
L 370.583006 119.357438 
L 370.834112 117.797852 
L 371.001517 119.357438 
L 371.336325 117.410713 
L 371.671133 118.970299 
L 371.754835 119.357438 
L 371.92224 118.970299 
L 372.089644 119.545472 
L 372.173346 118.771208 
L 372.257048 119.158333 
L 372.34075 118.384069 
L 372.591856 119.744563 
L 372.675558 119.744563 
L 372.75926 119.357438 
L 372.842962 119.545472 
L 373.010367 118.970299 
L 373.094069 118.970299 
L 373.177771 117.797852 
L 373.261473 117.996943 
L 373.428877 119.545472 
L 373.679983 118.184977 
L 373.847388 119.545472 
L 373.93109 119.357438 
L 374.014792 118.184977 
L 374.098494 118.771208 
L 374.265898 117.797852 
L 374.3496 117.996943 
L 374.433302 117.797852 
L 374.517004 117.996943 
L 374.684408 117.410713 
L 374.851813 118.384069 
L 375.019217 117.797852 
L 375.102919 117.797852 
L 375.186621 117.410713 
L 375.270323 117.609804 
L 375.437727 119.744563 
L 375.605131 117.797852 
L 375.772536 118.583173 
L 375.856238 118.184977 
L 376.023642 119.744563 
L 376.191046 118.583173 
L 376.35845 119.932597 
L 376.525854 118.583173 
L 376.609556 119.744563 
L 376.693258 119.357438 
L 376.944365 120.131702 
L 377.111769 119.357438 
L 377.195471 119.158333 
L 377.279173 119.545472 
L 377.530279 118.583173 
L 377.613981 119.158333 
L 377.697684 118.583173 
L 377.781386 119.744563 
L 377.94879 117.996943 
L 378.032492 118.384069 
L 378.283598 119.545472 
L 378.3673 118.970299 
L 378.451002 119.545472 
L 378.618407 118.384069 
L 378.702109 117.996943 
L 378.785811 118.970299 
L 378.869513 118.771208 
L 378.953215 117.797852 
L 379.120619 118.184977 
L 379.204321 118.384069 
L 379.288023 118.970299 
L 379.371725 118.583173 
L 379.622832 119.158333 
L 379.706534 118.583173 
L 379.95764 120.717932 
L 380.208746 119.744563 
L 380.292448 121.105058 
L 380.37615 119.744563 
L 380.459852 119.932597 
L 380.627257 120.330793 
L 380.710959 120.518828 
L 380.794661 119.744563 
L 380.878363 120.518828 
L 380.962065 120.330793 
L 381.045767 119.545472 
L 381.213171 120.717932 
L 381.464277 119.357438 
L 381.54798 119.932597 
L 381.631682 119.744563 
L 381.715384 119.744563 
L 381.882788 118.184977 
L 381.96649 118.771208 
L 382.050192 118.384069 
L 382.133894 118.771208 
L 382.301298 118.384069 
L 382.385 117.797852 
L 382.468703 117.996943 
L 382.552405 117.797852 
L 382.636107 118.384069 
L 382.719809 118.184977 
L 382.803511 118.184977 
L 382.887213 119.357438 
L 383.054617 118.184977 
L 383.222021 119.357438 
L 383.305723 119.158333 
L 383.389426 119.932597 
L 383.724234 118.384069 
L 383.807936 118.771208 
L 383.891638 117.609804 
L 383.97534 118.184977 
L 384.059042 117.996943 
L 384.142744 118.384069 
L 384.226446 119.744563 
L 384.310148 119.357438 
L 384.393851 118.970299 
L 384.561255 119.744563 
L 384.728659 118.970299 
L 384.812361 119.158333 
L 384.979765 121.293092 
L 385.063467 120.717932 
L 385.147169 120.905967 
L 385.230871 121.680231 
L 385.481978 119.545472 
L 385.649382 118.583173 
L 385.733084 118.771208 
L 385.816786 119.357438 
L 385.900488 119.158333 
L 385.98419 119.545472 
L 386.151594 117.996943 
L 386.318999 119.158333 
L 386.402701 118.384069 
L 386.486403 118.583173 
L 386.570105 118.384069 
L 386.653807 118.583173 
L 386.737509 117.797852 
L 386.821211 118.771208 
L 386.904913 118.583173 
L 387.072317 119.158333 
L 387.156019 118.771208 
L 387.239722 117.797852 
L 387.490828 119.158333 
L 387.57453 119.545472 
L 387.909338 117.996943 
L 388.244147 118.583173 
L 388.327849 118.384069 
L 388.411551 118.771208 
L 388.495253 118.583173 
L 388.662657 120.518828 
L 388.830061 119.744563 
L 388.830061 119.744563 
" style="fill:none;stroke:#1f77b4;stroke-linecap:round;stroke-width:1.5;"/>
   </g>
   <g id="line2d_15">
    <path clip-path="url(#p2921e1382e)" d="M 76.364011 -1 
L 76.45387 250.119644 
L 76.53339 289 
L 76.53339 289 
" style="fill:none;stroke:#ff7f0e;stroke-linecap:round;stroke-width:1.5;"/>
   </g>
   <g id="patch_3">
    <path d="M 54 252 
L 54 34.56 
" style="fill:none;stroke:#cccccc;stroke-linecap:square;stroke-linejoin:miter;stroke-width:0.8;"/>
   </g>
   <g id="patch_4">
    <path d="M 388.8 252 
L 388.8 34.56 
" style="fill:none;stroke:#cccccc;stroke-linecap:square;stroke-linejoin:miter;stroke-width:0.8;"/>
   </g>
   <g id="patch_5">
    <path d="M 54 252 
L 388.8 252 
" style="fill:none;stroke:#cccccc;stroke-linecap:square;stroke-linejoin:miter;stroke-width:0.8;"/>
   </g>
   <g id="patch_6">
    <path d="M 54 34.56 
L 388.8 34.56 
" style="fill:none;stroke:#cccccc;stroke-linecap:square;stroke-linejoin:miter;stroke-width:0.8;"/>
   </g>
  </g>
 </g>
 <defs>
  <clipPath id="p2921e1382e">
   <rect height="217.44" width="334.8" x="54" y="34.56"/>
  </clipPath>
 </defs>
</svg>
