<?xml version="1.0" encoding="utf-8" standalone="no"?>
<!DOCTYPE svg PUBLIC "-//W3C//DTD SVG 1.1//EN"
  "http://www.w3.org/Graphics/SVG/1.1/DTD/svg11.dtd">
<!-- Created with matplotlib (https://matplotlib.org/) -->
<svg height="288pt" version="1.1" viewBox="0 0 432 288" width="432pt" xmlns="http://www.w3.org/2000/svg" xmlns:xlink="http://www.w3.org/1999/xlink">
 <metadata>
  <rdf:RDF xmlns:cc="http://creativecommons.org/ns#" xmlns:dc="http://purl.org/dc/elements/1.1/" xmlns:rdf="http://www.w3.org/1999/02/22-rdf-syntax-ns#">
   <cc:Work>
    <dc:type rdf:resource="http://purl.org/dc/dcmitype/StillImage"/>
    <dc:date>2022-05-25T22:50:33.693856</dc:date>
    <dc:format>image/svg+xml</dc:format>
    <dc:creator>
     <cc:Agent>
      <dc:title>Matplotlib v3.3.3, https://matplotlib.org/</dc:title>
     </cc:Agent>
    </dc:creator>
   </cc:Work>
  </rdf:RDF>
 </metadata>
 <defs>
  <style type="text/css">*{stroke-linecap:butt;stroke-linejoin:round;}</style>
 </defs>
 <g id="figure_1">
  <g id="patch_1">
   <path d="M 0 288 
L 432 288 
L 432 0 
L 0 0 
z
" style="fill:#ffffff;"/>
  </g>
  <g id="axes_1">
   <g id="patch_2">
    <path d="M 54 252 
L 388.8 252 
L 388.8 34.56 
L 54 34.56 
z
" style="fill:#ffffff;"/>
   </g>
   <g id="matplotlib.axis_1">
    <g id="xtick_1">
     <g id="line2d_1">
      <path clip-path="url(#pcb8d89ff27)" d="M 54 252 
L 54 34.56 
" style="fill:none;stroke:#cccccc;stroke-linecap:round;stroke-width:0.8;"/>
     </g>
     <g id="text_1">
      <!-- 0.001810 -->
      <g style="fill:#262626;" transform="translate(33.147656 266.157812)scale(0.1 -0.1)">
       <defs>
        <path d="M 4.15625 35.296875 
Q 4.15625 48 6.765625 55.734375 
Q 9.375 63.484375 14.515625 67.671875 
Q 19.671875 71.875 27.484375 71.875 
Q 33.25 71.875 37.59375 69.546875 
Q 41.9375 67.234375 44.765625 62.859375 
Q 47.609375 58.5 49.21875 52.21875 
Q 50.828125 45.953125 50.828125 35.296875 
Q 50.828125 22.703125 48.234375 14.96875 
Q 45.65625 7.234375 40.5 3 
Q 35.359375 -1.21875 27.484375 -1.21875 
Q 17.140625 -1.21875 11.234375 6.203125 
Q 4.15625 15.140625 4.15625 35.296875 
z
M 13.1875 35.296875 
Q 13.1875 17.671875 17.3125 11.828125 
Q 21.4375 6 27.484375 6 
Q 33.546875 6 37.671875 11.859375 
Q 41.796875 17.71875 41.796875 35.296875 
Q 41.796875 52.984375 37.671875 58.78125 
Q 33.546875 64.59375 27.390625 64.59375 
Q 21.34375 64.59375 17.71875 59.46875 
Q 13.1875 52.9375 13.1875 35.296875 
z
" id="ArialMT-48"/>
        <path d="M 9.078125 0 
L 9.078125 10.015625 
L 19.09375 10.015625 
L 19.09375 0 
z
" id="ArialMT-46"/>
        <path d="M 37.25 0 
L 28.46875 0 
L 28.46875 56 
Q 25.296875 52.984375 20.140625 49.953125 
Q 14.984375 46.921875 10.890625 45.40625 
L 10.890625 53.90625 
Q 18.265625 57.375 23.78125 62.296875 
Q 29.296875 67.234375 31.59375 71.875 
L 37.25 71.875 
z
" id="ArialMT-49"/>
        <path d="M 17.671875 38.8125 
Q 12.203125 40.828125 9.5625 44.53125 
Q 6.9375 48.25 6.9375 53.421875 
Q 6.9375 61.234375 12.546875 66.546875 
Q 18.171875 71.875 27.484375 71.875 
Q 36.859375 71.875 42.578125 66.421875 
Q 48.296875 60.984375 48.296875 53.171875 
Q 48.296875 48.1875 45.671875 44.5 
Q 43.0625 40.828125 37.75 38.8125 
Q 44.34375 36.671875 47.78125 31.875 
Q 51.21875 27.09375 51.21875 20.453125 
Q 51.21875 11.28125 44.71875 5.03125 
Q 38.234375 -1.21875 27.640625 -1.21875 
Q 17.046875 -1.21875 10.546875 5.046875 
Q 4.046875 11.328125 4.046875 20.703125 
Q 4.046875 27.6875 7.59375 32.390625 
Q 11.140625 37.109375 17.671875 38.8125 
z
M 15.921875 53.71875 
Q 15.921875 48.640625 19.1875 45.40625 
Q 22.46875 42.1875 27.6875 42.1875 
Q 32.765625 42.1875 36.015625 45.375 
Q 39.265625 48.578125 39.265625 53.21875 
Q 39.265625 58.0625 35.90625 61.359375 
Q 32.5625 64.65625 27.59375 64.65625 
Q 22.5625 64.65625 19.234375 61.421875 
Q 15.921875 58.203125 15.921875 53.71875 
z
M 13.09375 20.65625 
Q 13.09375 16.890625 14.875 13.375 
Q 16.65625 9.859375 20.171875 7.921875 
Q 23.6875 6 27.734375 6 
Q 34.03125 6 38.125 10.046875 
Q 42.234375 14.109375 42.234375 20.359375 
Q 42.234375 26.703125 38.015625 30.859375 
Q 33.796875 35.015625 27.4375 35.015625 
Q 21.234375 35.015625 17.15625 30.90625 
Q 13.09375 26.8125 13.09375 20.65625 
z
" id="ArialMT-56"/>
       </defs>
       <use xlink:href="#ArialMT-48"/>
       <use x="55.615234" xlink:href="#ArialMT-46"/>
       <use x="83.398438" xlink:href="#ArialMT-48"/>
       <use x="139.013672" xlink:href="#ArialMT-48"/>
       <use x="194.628906" xlink:href="#ArialMT-49"/>
       <use x="250.244141" xlink:href="#ArialMT-56"/>
       <use x="305.859375" xlink:href="#ArialMT-49"/>
       <use x="361.474609" xlink:href="#ArialMT-48"/>
      </g>
     </g>
    </g>
    <g id="xtick_2">
     <g id="line2d_2">
      <path clip-path="url(#pcb8d89ff27)" d="M 101.828571 252 
L 101.828571 34.56 
" style="fill:none;stroke:#cccccc;stroke-linecap:round;stroke-width:0.8;"/>
     </g>
     <g id="text_2">
      <!-- 0.001815 -->
      <g style="fill:#262626;" transform="translate(80.976228 266.157812)scale(0.1 -0.1)">
       <defs>
        <path d="M 4.15625 18.75 
L 13.375 19.53125 
Q 14.40625 12.796875 18.140625 9.390625 
Q 21.875 6 27.15625 6 
Q 33.5 6 37.890625 10.78125 
Q 42.28125 15.578125 42.28125 23.484375 
Q 42.28125 31 38.0625 35.34375 
Q 33.84375 39.703125 27 39.703125 
Q 22.75 39.703125 19.328125 37.765625 
Q 15.921875 35.84375 13.96875 32.765625 
L 5.71875 33.84375 
L 12.640625 70.609375 
L 48.25 70.609375 
L 48.25 62.203125 
L 19.671875 62.203125 
L 15.828125 42.96875 
Q 22.265625 47.46875 29.34375 47.46875 
Q 38.71875 47.46875 45.15625 40.96875 
Q 51.609375 34.46875 51.609375 24.265625 
Q 51.609375 14.546875 45.953125 7.46875 
Q 39.0625 -1.21875 27.15625 -1.21875 
Q 17.390625 -1.21875 11.203125 4.25 
Q 5.03125 9.71875 4.15625 18.75 
z
" id="ArialMT-53"/>
       </defs>
       <use xlink:href="#ArialMT-48"/>
       <use x="55.615234" xlink:href="#ArialMT-46"/>
       <use x="83.398438" xlink:href="#ArialMT-48"/>
       <use x="139.013672" xlink:href="#ArialMT-48"/>
       <use x="194.628906" xlink:href="#ArialMT-49"/>
       <use x="250.244141" xlink:href="#ArialMT-56"/>
       <use x="305.859375" xlink:href="#ArialMT-49"/>
       <use x="361.474609" xlink:href="#ArialMT-53"/>
      </g>
     </g>
    </g>
    <g id="xtick_3">
     <g id="line2d_3">
      <path clip-path="url(#pcb8d89ff27)" d="M 149.657143 252 
L 149.657143 34.56 
" style="fill:none;stroke:#cccccc;stroke-linecap:round;stroke-width:0.8;"/>
     </g>
     <g id="text_3">
      <!-- 0.001820 -->
      <g style="fill:#262626;" transform="translate(128.804799 266.157812)scale(0.1 -0.1)">
       <defs>
        <path d="M 50.34375 8.453125 
L 50.34375 0 
L 3.03125 0 
Q 2.9375 3.171875 4.046875 6.109375 
Q 5.859375 10.9375 9.828125 15.625 
Q 13.8125 20.3125 21.34375 26.46875 
Q 33.015625 36.03125 37.109375 41.625 
Q 41.21875 47.21875 41.21875 52.203125 
Q 41.21875 57.421875 37.46875 61 
Q 33.734375 64.59375 27.734375 64.59375 
Q 21.390625 64.59375 17.578125 60.78125 
Q 13.765625 56.984375 13.71875 50.25 
L 4.6875 51.171875 
Q 5.609375 61.28125 11.65625 66.578125 
Q 17.71875 71.875 27.9375 71.875 
Q 38.234375 71.875 44.234375 66.15625 
Q 50.25 60.453125 50.25 52 
Q 50.25 47.703125 48.484375 43.546875 
Q 46.734375 39.40625 42.65625 34.8125 
Q 38.578125 30.21875 29.109375 22.21875 
Q 21.1875 15.578125 18.9375 13.203125 
Q 16.703125 10.84375 15.234375 8.453125 
z
" id="ArialMT-50"/>
       </defs>
       <use xlink:href="#ArialMT-48"/>
       <use x="55.615234" xlink:href="#ArialMT-46"/>
       <use x="83.398438" xlink:href="#ArialMT-48"/>
       <use x="139.013672" xlink:href="#ArialMT-48"/>
       <use x="194.628906" xlink:href="#ArialMT-49"/>
       <use x="250.244141" xlink:href="#ArialMT-56"/>
       <use x="305.859375" xlink:href="#ArialMT-50"/>
       <use x="361.474609" xlink:href="#ArialMT-48"/>
      </g>
     </g>
    </g>
    <g id="xtick_4">
     <g id="line2d_4">
      <path clip-path="url(#pcb8d89ff27)" d="M 197.485714 252 
L 197.485714 34.56 
" style="fill:none;stroke:#cccccc;stroke-linecap:round;stroke-width:0.8;"/>
     </g>
     <g id="text_4">
      <!-- 0.001825 -->
      <g style="fill:#262626;" transform="translate(176.633371 266.157812)scale(0.1 -0.1)">
       <use xlink:href="#ArialMT-48"/>
       <use x="55.615234" xlink:href="#ArialMT-46"/>
       <use x="83.398438" xlink:href="#ArialMT-48"/>
       <use x="139.013672" xlink:href="#ArialMT-48"/>
       <use x="194.628906" xlink:href="#ArialMT-49"/>
       <use x="250.244141" xlink:href="#ArialMT-56"/>
       <use x="305.859375" xlink:href="#ArialMT-50"/>
       <use x="361.474609" xlink:href="#ArialMT-53"/>
      </g>
     </g>
    </g>
    <g id="xtick_5">
     <g id="line2d_5">
      <path clip-path="url(#pcb8d89ff27)" d="M 245.314286 252 
L 245.314286 34.56 
" style="fill:none;stroke:#cccccc;stroke-linecap:round;stroke-width:0.8;"/>
     </g>
     <g id="text_5">
      <!-- 0.001830 -->
      <g style="fill:#262626;" transform="translate(224.461942 266.157812)scale(0.1 -0.1)">
       <defs>
        <path d="M 4.203125 18.890625 
L 12.984375 20.0625 
Q 14.5 12.59375 18.140625 9.296875 
Q 21.78125 6 27 6 
Q 33.203125 6 37.46875 10.296875 
Q 41.75 14.59375 41.75 20.953125 
Q 41.75 27 37.796875 30.921875 
Q 33.84375 34.859375 27.734375 34.859375 
Q 25.25 34.859375 21.53125 33.890625 
L 22.515625 41.609375 
Q 23.390625 41.5 23.921875 41.5 
Q 29.546875 41.5 34.03125 44.421875 
Q 38.53125 47.359375 38.53125 53.46875 
Q 38.53125 58.296875 35.25 61.46875 
Q 31.984375 64.65625 26.8125 64.65625 
Q 21.6875 64.65625 18.265625 61.421875 
Q 14.84375 58.203125 13.875 51.765625 
L 5.078125 53.328125 
Q 6.6875 62.15625 12.390625 67.015625 
Q 18.109375 71.875 26.609375 71.875 
Q 32.46875 71.875 37.390625 69.359375 
Q 42.328125 66.84375 44.9375 62.5 
Q 47.5625 58.15625 47.5625 53.265625 
Q 47.5625 48.640625 45.0625 44.828125 
Q 42.578125 41.015625 37.703125 38.765625 
Q 44.046875 37.3125 47.5625 32.6875 
Q 51.078125 28.078125 51.078125 21.140625 
Q 51.078125 11.765625 44.234375 5.25 
Q 37.40625 -1.265625 26.953125 -1.265625 
Q 17.53125 -1.265625 11.296875 4.34375 
Q 5.078125 9.96875 4.203125 18.890625 
z
" id="ArialMT-51"/>
       </defs>
       <use xlink:href="#ArialMT-48"/>
       <use x="55.615234" xlink:href="#ArialMT-46"/>
       <use x="83.398438" xlink:href="#ArialMT-48"/>
       <use x="139.013672" xlink:href="#ArialMT-48"/>
       <use x="194.628906" xlink:href="#ArialMT-49"/>
       <use x="250.244141" xlink:href="#ArialMT-56"/>
       <use x="305.859375" xlink:href="#ArialMT-51"/>
       <use x="361.474609" xlink:href="#ArialMT-48"/>
      </g>
     </g>
    </g>
    <g id="xtick_6">
     <g id="line2d_6">
      <path clip-path="url(#pcb8d89ff27)" d="M 293.142857 252 
L 293.142857 34.56 
" style="fill:none;stroke:#cccccc;stroke-linecap:round;stroke-width:0.8;"/>
     </g>
     <g id="text_6">
      <!-- 0.001835 -->
      <g style="fill:#262626;" transform="translate(272.290513 266.157812)scale(0.1 -0.1)">
       <use xlink:href="#ArialMT-48"/>
       <use x="55.615234" xlink:href="#ArialMT-46"/>
       <use x="83.398438" xlink:href="#ArialMT-48"/>
       <use x="139.013672" xlink:href="#ArialMT-48"/>
       <use x="194.628906" xlink:href="#ArialMT-49"/>
       <use x="250.244141" xlink:href="#ArialMT-56"/>
       <use x="305.859375" xlink:href="#ArialMT-51"/>
       <use x="361.474609" xlink:href="#ArialMT-53"/>
      </g>
     </g>
    </g>
    <g id="xtick_7">
     <g id="line2d_7">
      <path clip-path="url(#pcb8d89ff27)" d="M 340.971429 252 
L 340.971429 34.56 
" style="fill:none;stroke:#cccccc;stroke-linecap:round;stroke-width:0.8;"/>
     </g>
     <g id="text_7">
      <!-- 0.001840 -->
      <g style="fill:#262626;" transform="translate(320.119085 266.157812)scale(0.1 -0.1)">
       <defs>
        <path d="M 32.328125 0 
L 32.328125 17.140625 
L 1.265625 17.140625 
L 1.265625 25.203125 
L 33.9375 71.578125 
L 41.109375 71.578125 
L 41.109375 25.203125 
L 50.78125 25.203125 
L 50.78125 17.140625 
L 41.109375 17.140625 
L 41.109375 0 
z
M 32.328125 25.203125 
L 32.328125 57.46875 
L 9.90625 25.203125 
z
" id="ArialMT-52"/>
       </defs>
       <use xlink:href="#ArialMT-48"/>
       <use x="55.615234" xlink:href="#ArialMT-46"/>
       <use x="83.398438" xlink:href="#ArialMT-48"/>
       <use x="139.013672" xlink:href="#ArialMT-48"/>
       <use x="194.628906" xlink:href="#ArialMT-49"/>
       <use x="250.244141" xlink:href="#ArialMT-56"/>
       <use x="305.859375" xlink:href="#ArialMT-52"/>
       <use x="361.474609" xlink:href="#ArialMT-48"/>
      </g>
     </g>
    </g>
    <g id="xtick_8">
     <g id="line2d_8">
      <path clip-path="url(#pcb8d89ff27)" d="M 388.8 252 
L 388.8 34.56 
" style="fill:none;stroke:#cccccc;stroke-linecap:round;stroke-width:0.8;"/>
     </g>
     <g id="text_8">
      <!-- 0.001845 -->
      <g style="fill:#262626;" transform="translate(367.947656 266.157812)scale(0.1 -0.1)">
       <use xlink:href="#ArialMT-48"/>
       <use x="55.615234" xlink:href="#ArialMT-46"/>
       <use x="83.398438" xlink:href="#ArialMT-48"/>
       <use x="139.013672" xlink:href="#ArialMT-48"/>
       <use x="194.628906" xlink:href="#ArialMT-49"/>
       <use x="250.244141" xlink:href="#ArialMT-56"/>
       <use x="305.859375" xlink:href="#ArialMT-52"/>
       <use x="361.474609" xlink:href="#ArialMT-53"/>
      </g>
     </g>
    </g>
   </g>
   <g id="matplotlib.axis_2">
    <g id="ytick_1">
     <g id="line2d_9">
      <path clip-path="url(#pcb8d89ff27)" d="M 54 252 
L 388.8 252 
" style="fill:none;stroke:#cccccc;stroke-linecap:round;stroke-width:0.8;"/>
     </g>
     <g id="text_9">
      <!-- 0.006 -->
      <g style="fill:#262626;" transform="translate(21.978125 255.578906)scale(0.1 -0.1)">
       <defs>
        <path d="M 49.75 54.046875 
L 41.015625 53.375 
Q 39.84375 58.546875 37.703125 60.890625 
Q 34.125 64.65625 28.90625 64.65625 
Q 24.703125 64.65625 21.53125 62.3125 
Q 17.390625 59.28125 14.984375 53.46875 
Q 12.59375 47.65625 12.5 36.921875 
Q 15.671875 41.75 20.265625 44.09375 
Q 24.859375 46.4375 29.890625 46.4375 
Q 38.671875 46.4375 44.84375 39.96875 
Q 51.03125 33.5 51.03125 23.25 
Q 51.03125 16.5 48.125 10.71875 
Q 45.21875 4.9375 40.140625 1.859375 
Q 35.0625 -1.21875 28.609375 -1.21875 
Q 17.625 -1.21875 10.6875 6.859375 
Q 3.765625 14.9375 3.765625 33.5 
Q 3.765625 54.25 11.421875 63.671875 
Q 18.109375 71.875 29.4375 71.875 
Q 37.890625 71.875 43.28125 67.140625 
Q 48.6875 62.40625 49.75 54.046875 
z
M 13.875 23.1875 
Q 13.875 18.65625 15.796875 14.5 
Q 17.71875 10.359375 21.1875 8.171875 
Q 24.65625 6 28.46875 6 
Q 34.03125 6 38.03125 10.484375 
Q 42.046875 14.984375 42.046875 22.703125 
Q 42.046875 30.125 38.078125 34.390625 
Q 34.125 38.671875 28.125 38.671875 
Q 22.171875 38.671875 18.015625 34.390625 
Q 13.875 30.125 13.875 23.1875 
z
" id="ArialMT-54"/>
       </defs>
       <use xlink:href="#ArialMT-48"/>
       <use x="55.615234" xlink:href="#ArialMT-46"/>
       <use x="83.398438" xlink:href="#ArialMT-48"/>
       <use x="139.013672" xlink:href="#ArialMT-48"/>
       <use x="194.628906" xlink:href="#ArialMT-54"/>
      </g>
     </g>
    </g>
    <g id="ytick_2">
     <g id="line2d_10">
      <path clip-path="url(#pcb8d89ff27)" d="M 54 215.76 
L 388.8 215.76 
" style="fill:none;stroke:#cccccc;stroke-linecap:round;stroke-width:0.8;"/>
     </g>
     <g id="text_10">
      <!-- 0.008 -->
      <g style="fill:#262626;" transform="translate(21.978125 219.338906)scale(0.1 -0.1)">
       <use xlink:href="#ArialMT-48"/>
       <use x="55.615234" xlink:href="#ArialMT-46"/>
       <use x="83.398438" xlink:href="#ArialMT-48"/>
       <use x="139.013672" xlink:href="#ArialMT-48"/>
       <use x="194.628906" xlink:href="#ArialMT-56"/>
      </g>
     </g>
    </g>
    <g id="ytick_3">
     <g id="line2d_11">
      <path clip-path="url(#pcb8d89ff27)" d="M 54 179.52 
L 388.8 179.52 
" style="fill:none;stroke:#cccccc;stroke-linecap:round;stroke-width:0.8;"/>
     </g>
     <g id="text_11">
      <!-- 0.010 -->
      <g style="fill:#262626;" transform="translate(21.978125 183.098906)scale(0.1 -0.1)">
       <use xlink:href="#ArialMT-48"/>
       <use x="55.615234" xlink:href="#ArialMT-46"/>
       <use x="83.398438" xlink:href="#ArialMT-48"/>
       <use x="139.013672" xlink:href="#ArialMT-49"/>
       <use x="194.628906" xlink:href="#ArialMT-48"/>
      </g>
     </g>
    </g>
    <g id="ytick_4">
     <g id="line2d_12">
      <path clip-path="url(#pcb8d89ff27)" d="M 54 143.28 
L 388.8 143.28 
" style="fill:none;stroke:#cccccc;stroke-linecap:round;stroke-width:0.8;"/>
     </g>
     <g id="text_12">
      <!-- 0.012 -->
      <g style="fill:#262626;" transform="translate(21.978125 146.858906)scale(0.1 -0.1)">
       <use xlink:href="#ArialMT-48"/>
       <use x="55.615234" xlink:href="#ArialMT-46"/>
       <use x="83.398438" xlink:href="#ArialMT-48"/>
       <use x="139.013672" xlink:href="#ArialMT-49"/>
       <use x="194.628906" xlink:href="#ArialMT-50"/>
      </g>
     </g>
    </g>
    <g id="ytick_5">
     <g id="line2d_13">
      <path clip-path="url(#pcb8d89ff27)" d="M 54 107.04 
L 388.8 107.04 
" style="fill:none;stroke:#cccccc;stroke-linecap:round;stroke-width:0.8;"/>
     </g>
     <g id="text_13">
      <!-- 0.014 -->
      <g style="fill:#262626;" transform="translate(21.978125 110.618906)scale(0.1 -0.1)">
       <use xlink:href="#ArialMT-48"/>
       <use x="55.615234" xlink:href="#ArialMT-46"/>
       <use x="83.398438" xlink:href="#ArialMT-48"/>
       <use x="139.013672" xlink:href="#ArialMT-49"/>
       <use x="194.628906" xlink:href="#ArialMT-52"/>
      </g>
     </g>
    </g>
    <g id="ytick_6">
     <g id="line2d_14">
      <path clip-path="url(#pcb8d89ff27)" d="M 54 70.8 
L 388.8 70.8 
" style="fill:none;stroke:#cccccc;stroke-linecap:round;stroke-width:0.8;"/>
     </g>
     <g id="text_14">
      <!-- 0.016 -->
      <g style="fill:#262626;" transform="translate(21.978125 74.378906)scale(0.1 -0.1)">
       <use xlink:href="#ArialMT-48"/>
       <use x="55.615234" xlink:href="#ArialMT-46"/>
       <use x="83.398438" xlink:href="#ArialMT-48"/>
       <use x="139.013672" xlink:href="#ArialMT-49"/>
       <use x="194.628906" xlink:href="#ArialMT-54"/>
      </g>
     </g>
    </g>
    <g id="ytick_7">
     <g id="line2d_15">
      <path clip-path="url(#pcb8d89ff27)" d="M 54 34.56 
L 388.8 34.56 
" style="fill:none;stroke:#cccccc;stroke-linecap:round;stroke-width:0.8;"/>
     </g>
     <g id="text_15">
      <!-- 0.018 -->
      <g style="fill:#262626;" transform="translate(21.978125 38.138906)scale(0.1 -0.1)">
       <use xlink:href="#ArialMT-48"/>
       <use x="55.615234" xlink:href="#ArialMT-46"/>
       <use x="83.398438" xlink:href="#ArialMT-48"/>
       <use x="139.013672" xlink:href="#ArialMT-49"/>
       <use x="194.628906" xlink:href="#ArialMT-56"/>
      </g>
     </g>
    </g>
   </g>
   <g id="line2d_16">
    <path clip-path="url(#pcb8d89ff27)" d="M 53.922685 189.806657 
L 54.161829 191.377316 
L 54.281401 189.585435 
L 54.400972 191.598521 
L 54.520544 191.156094 
L 54.640116 196.089261 
L 54.759687 194.297396 
L 54.879259 197.892195 
L 54.998831 195.19332 
L 55.118403 195.868039 
L 55.237974 194.750893 
L 55.357546 194.750893 
L 55.477118 193.622678 
L 55.596689 194.297396 
L 55.835833 189.585435 
L 56.074976 191.156094 
L 56.194548 188.910716 
L 56.31412 191.377316 
L 56.433691 191.156094 
L 56.553263 192.27324 
L 56.672835 196.542758 
L 56.911978 194.518618 
L 57.151122 197.892195 
L 57.390265 194.518618 
L 57.629409 199.68406 
L 57.868552 195.19332 
L 57.988124 194.518618 
L 58.227267 190.923819 
L 58.346839 187.561295 
L 58.705554 190.260154 
L 58.825126 189.35316 
L 59.064269 194.518618 
L 59.183841 194.297396 
L 59.303413 190.923819 
L 59.422984 191.830813 
L 59.542556 196.089261 
L 59.662128 194.750893 
L 59.7817 195.646817 
L 60.020843 192.27324 
L 60.140415 190.481375 
L 60.259987 193.401456 
L 60.379558 193.16918 
L 60.49913 196.76398 
L 60.618702 196.542758 
L 60.977417 189.585435 
L 61.096989 189.585435 
L 61.21656 190.702597 
L 61.455704 195.425612 
L 61.575275 194.518618 
L 61.694847 194.518618 
L 61.814419 194.972115 
L 61.933991 194.972115 
L 62.173134 194.076175 
L 62.292706 194.972115 
L 62.412277 192.947959 
L 62.531849 193.16918 
L 62.651421 192.505515 
L 62.770993 194.750893 
L 62.890564 194.076175 
L 63.129708 190.481375 
L 63.368851 192.947959 
L 63.488423 192.052018 
L 63.727566 188.678441 
L 63.847138 189.131938 
L 63.96671 190.027878 
L 64.205853 192.27324 
L 64.325425 193.16918 
L 64.564568 192.052018 
L 64.803712 196.76398 
L 64.923284 197.892195 
L 65.401571 192.27324 
L 65.521142 194.750893 
L 65.640714 194.518618 
L 65.760286 192.947959 
L 65.879857 193.16918 
L 66.119001 184.86242 
L 66.477716 195.19332 
L 66.597288 194.972115 
L 66.836431 191.598521 
L 66.956003 193.16918 
L 67.075575 192.947959 
L 67.314718 191.598521 
L 67.43429 188.910716 
L 67.553861 189.35316 
L 67.793005 193.16918 
L 67.912577 191.830813 
L 68.032148 193.16918 
L 68.271292 192.27324 
L 68.390864 189.35316 
L 68.510435 190.027878 
L 68.86915 193.843899 
L 68.988722 192.505515 
L 69.108294 193.843899 
L 69.227866 192.505515 
L 69.347437 188.457219 
L 69.586581 188.236014 
L 69.825724 185.990636 
L 69.945296 187.107798 
L 70.064868 185.990636 
L 70.184439 186.886576 
L 70.423583 194.518618 
L 70.543154 194.972115 
L 70.662726 196.996255 
L 70.782298 195.868039 
L 71.141013 189.585435 
L 71.260585 190.027878 
L 71.6193 196.76398 
L 71.858443 193.401456 
L 71.978015 194.297396 
L 72.097587 192.505515 
L 72.33673 195.425612 
L 72.695445 188.678441 
L 72.934589 195.425612 
L 73.173732 195.19332 
L 73.293304 196.542758 
L 73.652019 192.947959 
L 73.771591 194.972115 
L 74.010734 192.27324 
L 74.130306 194.076175 
L 74.249878 192.947959 
L 74.36945 193.843899 
L 74.608593 191.830813 
L 74.728165 192.726737 
L 74.967308 191.598521 
L 75.206452 193.843899 
L 75.326023 192.052018 
L 75.445595 193.401456 
L 75.565167 192.505515 
L 75.80431 193.622678 
L 75.923882 193.843899 
L 76.163025 190.923819 
L 76.282597 192.505515 
L 76.402169 191.598521 
L 76.641312 184.419993 
L 76.880456 191.156094 
L 77.000027 190.027878 
L 77.358743 198.113417 
L 77.597886 192.726737 
L 77.717458 193.622678 
L 77.956601 190.027878 
L 78.434888 196.996255 
L 78.55446 194.972115 
L 78.674031 188.678441 
L 79.032747 192.947959 
L 79.152318 192.27324 
L 79.27189 195.646817 
L 79.391462 195.868039 
L 79.511034 196.76398 
L 79.750177 193.622678 
L 79.98932 190.702597 
L 80.228464 202.60414 
L 80.467607 195.425612 
L 80.587179 192.505515 
L 80.706751 193.401456 
L 80.826322 196.089261 
L 80.945894 195.646817 
L 81.304609 187.782517 
L 81.424181 187.782517 
L 81.543753 188.236014 
L 81.782896 193.16918 
L 82.02204 190.923819 
L 82.141611 191.830813 
L 82.261183 193.622678 
L 82.380755 192.726737 
L 82.619898 190.027878 
L 82.859042 188.910716 
L 83.4569 192.27324 
L 83.696044 195.19332 
L 83.935187 188.236014 
L 84.054759 192.27324 
L 84.174331 191.598521 
L 84.293902 192.505515 
L 84.413474 194.297396 
L 84.533046 194.297396 
L 84.652617 194.518618 
L 84.772189 193.843899 
L 84.891761 194.297396 
L 85.130904 191.156094 
L 85.250476 191.830813 
L 85.370048 194.076175 
L 85.728763 188.457219 
L 85.848335 188.910716 
L 85.967906 192.27324 
L 86.087478 191.377316 
L 86.20705 189.585435 
L 86.326622 190.702597 
L 86.565765 195.868039 
L 86.804908 192.27324 
L 86.92448 191.377316 
L 87.044052 192.726737 
L 87.402767 186.886576 
L 87.64191 189.585435 
L 87.761482 187.561295 
L 88.000626 192.052018 
L 88.478913 189.585435 
L 88.957199 192.505515 
L 89.076771 192.505515 
L 89.67463 187.561295 
L 90.033345 195.646817 
L 90.272488 192.726737 
L 90.39206 194.297396 
L 90.511632 193.843899 
L 90.631204 195.19332 
L 90.870347 192.27324 
L 90.989919 193.16918 
L 91.10949 195.425612 
L 91.468206 186.665355 
L 91.587777 186.211857 
L 91.707349 185.315917 
L 91.826921 186.886576 
L 91.946492 191.598521 
L 92.066064 190.702597 
L 92.185636 188.678441 
L 92.305208 191.156094 
L 92.544351 188.678441 
L 92.783494 193.16918 
L 92.903066 191.156094 
L 93.022638 192.947959 
L 93.14221 191.156094 
L 93.261781 196.089261 
L 93.381353 195.646817 
L 93.500925 194.297396 
L 93.620497 195.868039 
L 93.740068 193.401456 
L 93.85964 193.843899 
L 94.098783 190.027878 
L 94.337927 198.345693 
L 94.696642 189.806657 
L 94.816214 189.806657 
L 94.935785 190.702597 
L 95.174929 188.003722 
L 95.294501 188.236014 
L 95.414072 194.750893 
L 95.653216 189.35316 
L 95.772787 192.505515 
L 96.011931 191.598521 
L 96.131503 192.505515 
L 96.251074 196.542758 
L 96.370646 195.646817 
L 96.490218 191.830813 
L 96.60979 193.843899 
L 96.968505 190.027878 
L 97.32722 193.843899 
L 97.566363 188.457219 
L 97.685935 188.678441 
L 97.925078 190.702597 
L 98.283794 186.886576 
L 98.522937 191.598521 
L 98.642509 189.585435 
L 99.001224 193.843899 
L 99.240367 190.702597 
L 99.479511 185.083642 
L 99.599083 180.371697 
L 99.838226 202.382918 
L 99.957798 184.419993 
L 100.196941 184.187718 
L 100.316513 188.236014 
L 100.555656 216.52984 
L 100.7948 196.542758 
L 100.914371 200.137557 
L 101.033943 200.137557 
L 101.273087 189.585435 
L 101.392658 185.990636 
L 101.631802 191.377316 
L 101.870945 184.641215 
L 102.110089 192.27324 
L 102.349232 184.419993 
L 102.468804 186.433079 
L 102.588376 186.211857 
L 102.707947 183.512999 
L 102.827519 184.86242 
L 103.305806 199.241616 
L 103.544949 192.947959 
L 103.664521 192.947959 
L 103.784093 192.052018 
L 103.903664 190.260154 
L 104.142808 194.750893 
L 104.381951 183.512999 
L 104.501523 184.86242 
L 104.740667 189.131938 
L 104.860238 192.27324 
L 104.97981 191.830813 
L 105.099382 191.830813 
L 105.218953 192.947959 
L 105.577669 186.886576 
L 105.69724 187.107798 
L 105.936384 188.910716 
L 106.055955 188.678441 
L 106.295099 194.518618 
L 106.534242 191.830813 
L 106.653814 192.052018 
L 106.773386 190.923819 
L 106.892957 192.052018 
L 107.012529 187.561295 
L 107.132101 187.561295 
L 107.490816 190.481375 
L 107.610388 190.923819 
L 107.72996 190.027878 
L 107.969103 193.622678 
L 108.088675 193.622678 
L 108.327818 189.806657 
L 108.44739 190.702597 
L 108.686533 189.35316 
L 108.925677 185.537139 
L 109.16482 189.585435 
L 109.284392 189.35316 
L 109.403964 190.027878 
L 109.523535 190.027878 
L 109.643107 192.505515 
L 109.88225 187.340073 
L 110.001822 188.003722 
L 110.121394 183.291777 
L 110.240966 186.886576 
L 110.360537 187.107798 
L 110.480109 188.678441 
L 110.599681 187.782517 
L 110.719253 185.083642 
L 110.838824 186.665355 
L 111.077968 183.745274 
L 111.197539 186.433079 
L 111.556255 185.315917 
L 111.675826 183.291777 
L 111.795398 187.782517 
L 112.034541 181.499913 
L 112.273685 184.641215 
L 112.393257 184.86242 
L 112.512828 188.910716 
L 112.6324 188.003722 
L 112.751972 185.315917 
L 112.871544 185.75836 
L 113.110687 184.187718 
L 113.34983 189.585435 
L 113.469402 188.910716 
L 113.588974 188.910716 
L 113.828117 185.75836 
L 113.947689 185.990636 
L 114.067261 185.315917 
L 114.186832 186.665355 
L 114.425976 185.990636 
L 114.545548 186.211857 
L 114.665119 185.083642 
L 114.784691 185.315917 
L 115.023834 182.163561 
L 115.143406 181.267621 
L 115.262978 183.070555 
L 115.38255 182.617058 
L 115.502121 181.046416 
L 115.621693 183.512999 
L 115.741265 183.070555 
L 115.860837 183.512999 
L 116.09998 188.003722 
L 116.458695 178.126319 
L 116.578267 177.672822 
L 116.81741 183.291777 
L 117.056554 182.617058 
L 117.295697 179.9182 
L 117.654412 184.187718 
L 117.773984 184.187718 
L 117.893556 183.745274 
L 118.013127 184.187718 
L 118.132699 182.395837 
L 118.252271 182.617058 
L 118.371843 183.745274 
L 118.491414 186.665355 
L 118.730558 182.395837 
L 118.85013 185.315917 
L 119.089273 178.801037 
L 119.328416 181.721118 
L 119.447988 181.499913 
L 119.56756 178.126319 
L 119.687132 179.022259 
L 119.926275 179.022259 
L 120.045847 179.9182 
L 120.165418 179.9182 
L 120.404562 184.187718 
L 120.643705 178.34754 
L 120.763277 178.126319 
L 120.882849 178.34754 
L 121.121992 179.696978 
L 121.241564 179.022259 
L 121.600279 181.94234 
L 121.719851 181.721118 
L 121.958994 176.102179 
L 122.198138 179.696978 
L 122.317709 181.94234 
L 122.795996 175.880957 
L 123.03514 181.267621 
L 123.154711 180.592919 
L 123.393855 176.99812 
L 123.632998 184.419993 
L 123.75257 181.046416 
L 123.872142 181.499913 
L 123.991714 179.9182 
L 124.230857 183.291777 
L 124.350429 182.83828 
L 124.47 184.641215 
L 124.709144 182.163561 
L 124.948287 181.267621 
L 125.067859 182.617058 
L 125.187431 182.395837 
L 125.426574 179.475756 
L 125.546146 181.046416 
L 125.665718 184.419993 
L 125.785289 181.721118 
L 125.904861 185.083642 
L 126.144004 180.592919 
L 126.383148 187.561295 
L 126.50272 186.433079 
L 126.741863 181.046416 
L 126.861435 182.83828 
L 126.981007 182.163561 
L 127.22015 179.9182 
L 127.459293 181.267621 
L 127.578865 183.512999 
L 127.93758 179.475756 
L 128.176724 184.187718 
L 128.296295 184.641215 
L 128.655011 180.825194 
L 128.774582 181.94234 
L 129.013726 179.696978 
L 129.252869 183.966496 
L 129.611584 179.254535 
L 129.9703 184.419993 
L 130.209443 182.83828 
L 130.329015 184.419993 
L 130.448586 183.291777 
L 130.68773 184.419993 
L 130.807302 183.512999 
L 131.046445 179.254535 
L 131.166017 178.579816 
L 131.285588 180.150475 
L 131.40516 180.150475 
L 131.883447 185.315917 
L 132.003019 180.371697 
L 132.242162 182.163561 
L 132.361734 182.395837 
L 132.481306 181.267621 
L 132.720449 183.512999 
L 132.959593 182.395837 
L 133.198736 179.254535 
L 133.318308 179.022259 
L 133.437879 178.34754 
L 133.557451 178.801037 
L 133.677023 180.825194 
L 133.796595 179.9182 
L 133.916166 180.371697 
L 134.035738 179.9182 
L 134.15531 176.102179 
L 134.274881 176.555676 
L 134.394453 174.53152 
L 134.514025 177.905114 
L 134.633597 177.672822 
L 134.753168 176.334454 
L 134.87274 177.672822 
L 134.992312 181.046416 
L 135.111883 179.475756 
L 135.231455 179.475756 
L 135.470599 174.53152 
L 135.709742 180.150475 
L 135.829314 181.499913 
L 135.948886 178.801037 
L 136.068457 180.150475 
L 136.188029 179.9182 
L 136.427172 176.776898 
L 136.666316 181.94234 
L 136.785888 180.825194 
L 136.905459 181.267621 
L 137.025031 176.102179 
L 137.264174 175.42746 
L 137.383746 178.34754 
L 137.742461 174.53152 
L 137.981605 172.960877 
L 138.220748 179.9182 
L 138.34032 181.046416 
L 138.579463 174.310315 
L 138.699035 177.672822 
L 138.938179 175.880957 
L 139.177322 177.230395 
L 139.296894 177.230395 
L 139.536037 179.9182 
L 139.655609 177.672822 
L 139.775181 179.022259 
L 139.894752 177.672822 
L 140.014324 178.126319 
L 140.253467 176.334454 
L 140.373039 177.451617 
L 140.731754 184.187718 
L 140.851326 185.083642 
L 141.09047 180.371697 
L 141.210041 180.150475 
L 141.329613 181.267621 
L 141.449185 183.512999 
L 141.688328 182.617058 
L 141.8079 182.395837 
L 141.927472 184.419993 
L 142.047043 183.512999 
L 142.286187 191.377316 
L 142.764474 185.083642 
L 142.884045 184.641215 
L 143.003617 185.75836 
L 143.24276 189.35316 
L 143.362332 191.598521 
L 143.481904 190.481375 
L 143.721047 187.561295 
L 143.840619 188.003722 
L 143.960191 189.806657 
L 144.079763 189.806657 
L 144.318906 187.107798 
L 144.438478 184.86242 
L 144.558049 187.107798 
L 144.916765 183.291777 
L 145.036336 183.745274 
L 145.155908 183.070555 
L 145.395051 187.561295 
L 145.514623 183.512999 
L 145.634195 183.291777 
L 145.873338 185.75836 
L 146.112482 186.886576 
L 146.232053 190.702597 
L 146.351625 190.702597 
L 146.471197 191.830813 
L 146.590769 190.702597 
L 146.829912 195.19332 
L 147.069056 191.156094 
L 147.308199 189.131938 
L 147.427771 194.518618 
L 147.547342 194.518618 
L 147.666914 196.089261 
L 147.786486 196.089261 
L 148.145201 193.843899 
L 148.264773 194.750893 
L 148.74306 201.486995 
L 148.862631 200.812276 
L 148.982203 201.254702 
L 149.101775 201.254702 
L 149.221347 201.486995 
L 149.340918 201.033498 
L 149.46049 202.161713 
L 149.819205 198.788119 
L 149.938777 200.358779 
L 150.058349 199.009341 
L 150.297492 201.929421 
L 150.417064 201.033498 
L 150.536635 203.953578 
L 150.656207 203.732356 
L 150.775779 203.953578 
L 150.895351 204.628297 
L 151.134494 208.897815 
L 151.373637 205.52422 
L 151.493209 206.431215 
L 151.612781 209.793738 
L 151.732353 209.793738 
L 151.851924 209.340241 
L 151.971496 204.849502 
L 152.330211 208.444301 
L 152.569355 212.260322 
L 152.808498 208.223096 
L 153.047642 210.468457 
L 153.167213 206.652436 
L 153.286785 207.548377 
L 153.6455 213.609759 
L 153.884644 210.01496 
L 154.004215 209.572517 
L 154.243359 212.713819 
L 154.36293 208.897815 
L 154.602074 215.855121 
L 154.841217 214.284478 
L 154.960789 214.516753 
L 155.199933 219.449928 
L 155.439076 214.516753 
L 155.558648 216.52984 
L 155.797791 214.284478 
L 156.036935 216.308618 
L 156.276078 219.903425 
L 156.39565 219.449928 
L 156.634793 217.42578 
L 156.873937 219.682204 
L 157.11308 212.93504 
L 157.471795 217.204558 
L 157.591367 217.42578 
L 157.83051 219.682204 
L 157.950082 219.007493 
L 158.069654 213.609759 
L 158.189226 214.063256 
L 158.428369 227.535459 
L 158.667512 216.762115 
L 158.787084 217.204558 
L 159.026228 219.007493 
L 159.265371 211.596673 
L 159.504514 214.063256 
L 159.743658 215.180402 
L 159.982801 220.34586 
L 160.102373 219.449928 
L 160.341517 212.492614 
L 160.58066 220.799357 
L 160.939375 212.260322 
L 161.058947 212.492614 
L 161.29809 216.762115 
L 161.537234 215.180402 
L 161.656805 213.167316 
L 161.776377 213.167316 
L 161.895949 213.842035 
L 162.135092 221.927573 
L 162.493807 216.762115 
L 162.613379 216.308618 
L 162.732951 216.762115 
L 162.852523 216.762115 
L 162.972094 216.52984 
L 163.091666 215.412694 
L 163.211238 216.983337 
L 163.33081 213.167316 
L 163.450381 213.388537 
L 163.569953 218.775201 
L 163.689525 219.007493 
L 163.928668 214.284478 
L 164.04824 214.959197 
L 164.167812 217.879277 
L 164.287383 217.42578 
L 164.526527 218.332774 
L 164.76567 216.308618 
L 164.885242 215.855121 
L 165.124385 214.737975 
L 165.243957 214.516753 
L 165.4831 217.879277 
L 165.602672 217.204558 
L 165.961387 214.063256 
L 166.080959 215.633899 
L 166.200531 220.124639 
L 166.320103 220.34586 
L 166.559246 217.658055 
L 166.798389 222.602284 
L 166.917961 223.044727 
L 167.037533 223.044727 
L 167.157105 223.94066 
L 167.276676 225.743586 
L 167.635391 217.879277 
L 167.754963 221.020579 
L 167.994107 219.682204 
L 168.113678 223.265941 
L 168.23325 223.498224 
L 168.352822 222.370009 
L 168.472393 222.823506 
L 168.711537 225.964808 
L 168.831109 225.290089 
L 168.95068 225.290089 
L 169.070252 225.743586 
L 169.189824 224.394157 
L 169.309396 219.449928 
L 169.428967 221.020579 
L 169.548539 225.964808 
L 169.668111 225.964808 
L 169.907254 223.265941 
L 170.146398 221.252855 
L 170.265969 220.799357 
L 170.505113 226.418305 
L 170.744256 222.370009 
L 170.9834 226.639526 
L 171.222543 221.69529 
L 171.342115 220.799357 
L 171.461687 225.290089 
L 171.70083 223.265941 
L 171.820402 225.743586 
L 172.059545 223.719438 
L 172.179117 223.719438 
L 172.298689 224.615378 
L 172.537832 217.879277 
L 172.776975 220.34586 
L 172.896547 219.682204 
L 173.255262 223.719438 
L 173.374834 223.265941 
L 173.494406 222.370009 
L 173.613977 220.124639 
L 173.972693 224.172935 
L 174.092264 222.148787 
L 174.211836 223.94066 
L 174.331408 223.265941 
L 174.45098 218.332774 
L 174.570551 218.553996 
L 174.690123 218.332774 
L 174.929266 214.737975 
L 175.048838 214.737975 
L 175.16841 213.167316 
L 175.287982 216.762115 
L 175.646697 208.676593 
L 175.88584 198.345693 
L 176.005412 200.358779 
L 176.124984 199.916335 
L 176.364127 192.27324 
L 176.483699 191.598521 
L 176.60327 188.457219 
L 176.842414 192.726737 
L 176.961986 192.726737 
L 177.081557 193.16918 
L 177.201129 188.236014 
L 177.320701 189.806657 
L 177.559844 193.16918 
L 177.918559 194.972115 
L 178.157703 192.505515 
L 178.516418 194.972115 
L 178.63599 193.401456 
L 178.755561 194.076175 
L 178.994705 195.868039 
L 179.114277 192.505515 
L 179.233848 194.750893 
L 179.35342 192.947959 
L 179.472992 192.947959 
L 179.592563 196.089261 
L 179.712135 194.297396 
L 179.831707 197.217477 
L 179.951279 195.425612 
L 180.190422 201.033498 
L 180.309994 199.68406 
L 180.429566 200.358779 
L 180.668709 197.217477 
L 181.027424 200.137557 
L 181.146996 199.241616 
L 181.266568 201.708216 
L 181.386139 200.591054 
L 181.505711 201.033498 
L 181.744854 198.566914 
L 181.983998 200.812276 
L 182.10357 201.486995 
L 182.223141 200.591054 
L 182.462285 205.52422 
L 182.581856 205.52422 
L 182.821 200.591054 
L 183.060143 204.407075 
L 183.179715 201.929421 
L 183.299287 204.1748 
L 183.418859 203.057637 
L 183.53843 204.1748 
L 183.658002 200.137557 
L 183.897145 203.511134 
L 184.016717 202.836415 
L 184.136289 201.033498 
L 184.375432 203.953578 
L 184.495004 205.977717 
L 184.734147 203.511134 
L 184.853719 207.09488 
L 185.092863 201.033498 
L 185.212434 205.303015 
L 185.332006 204.628297 
L 185.451578 205.081794 
L 185.57115 204.849502 
L 185.690721 203.732356 
L 185.810293 206.198939 
L 185.929865 204.407075 
L 186.169008 205.977717 
L 186.408152 200.591054 
L 186.527723 202.60414 
L 186.647295 200.591054 
L 186.886438 202.161713 
L 187.245154 207.327155 
L 187.484297 202.60414 
L 187.603869 203.732356 
L 187.843012 207.769599 
L 187.962584 206.873658 
L 188.082156 202.161713 
L 188.201727 203.278859 
L 188.321299 202.836415 
L 188.440871 203.278859 
L 188.560443 202.382918 
L 188.680014 199.241616 
L 188.919158 205.081794 
L 189.158301 207.327155 
L 189.277873 206.431215 
L 189.397445 206.873658 
L 189.517016 209.11902 
L 189.75616 208.001874 
L 190.114875 198.113417 
L 190.234447 196.089261 
L 190.354018 196.996255 
L 190.47359 194.972115 
L 190.712733 197.892195 
L 190.832305 195.425612 
L 191.19102 180.371697 
L 191.430164 176.99812 
L 192.028022 163.083474 
L 192.147594 161.955258 
L 192.386738 157.68574 
L 192.506309 157.68574 
L 192.625881 156.789816 
L 192.865024 150.949639 
L 193.22374 143.992333 
L 193.343311 143.085338 
L 193.582455 143.085338 
L 194.060742 133.882637 
L 194.180313 134.103859 
L 194.299885 133.207935 
L 194.419457 134.103859 
L 194.6586 130.287838 
L 194.778172 130.066633 
L 194.897744 128.717195 
L 195.017315 131.405 
L 195.376031 127.146536 
L 195.495602 127.58898 
L 195.854317 126.018337 
L 196.093461 120.399381 
L 196.213033 121.748819 
L 196.332604 124.447678 
L 196.452176 122.202316 
L 196.69132 112.76734 
L 196.930463 116.140934 
L 197.050035 116.362139 
L 197.169606 114.559221 
L 197.528322 104.460596 
L 197.767465 107.380676 
L 198.12618 101.540516 
L 198.365324 91.652059 
L 198.604467 87.614816 
L 198.724039 84.241239 
L 198.84361 84.473514 
L 198.963182 83.345298 
L 199.082754 84.915958 
L 199.202326 84.241239 
L 199.441469 77.958635 
L 199.561041 78.179856 
L 199.680613 77.726359 
L 199.800184 77.958635 
L 199.919756 77.726359 
L 200.158899 75.713273 
L 200.398043 71.21148 
L 200.517615 73.689117 
L 200.637186 72.560918 
L 200.756758 69.198394 
L 200.995901 76.609197 
L 201.115473 75.480998 
L 201.235045 77.051641 
L 201.59376 70.094318 
L 201.952475 74.363836 
L 202.072047 75.713273 
L 202.31119 81.553434 
L 202.669906 85.369455 
L 202.909049 86.265378 
L 203.028621 86.265378 
L 203.267764 94.350917 
L 203.626479 104.681818 
L 203.865623 99.737581 
L 203.985194 102.215234 
L 204.224338 111.417919 
L 204.34391 112.76734 
L 204.463481 111.871416 
L 204.702625 112.76734 
L 204.822196 113.66328 
L 205.300483 124.226456 
L 205.539627 124.668899 
L 205.659199 125.56484 
L 205.77877 128.042477 
L 205.898342 126.018337 
L 206.137485 132.311995 
L 206.376629 135.906794 
L 206.735344 144.888256 
L 206.854916 143.76004 
L 207.213631 149.157774 
L 207.452774 152.520298 
L 207.572346 149.157774 
L 207.931061 151.403136 
L 208.050633 151.624358 
L 208.648492 164.421841 
L 208.887635 162.851198 
L 209.126778 165.09656 
L 209.24635 165.09656 
L 209.365922 161.280539 
L 209.844209 167.574213 
L 209.96378 166.899495 
L 210.202924 172.50738 
L 210.322496 170.040797 
L 210.561639 171.611439 
L 210.681211 173.182099 
L 210.800783 170.040797 
L 210.920354 170.93672 
L 211.159498 176.334454 
L 211.398641 175.659735 
L 211.637785 177.905114 
L 211.757356 178.126319 
L 211.876928 178.801037 
L 211.9965 177.905114 
L 212.116071 176.102179 
L 212.355215 179.696978 
L 212.474787 180.150475 
L 212.594358 179.9182 
L 212.71393 180.825194 
L 212.833502 177.672822 
L 212.953073 177.672822 
L 213.072645 176.334454 
L 213.192217 177.672822 
L 213.311789 177.672822 
L 213.550932 171.390217 
L 213.790076 173.414374 
L 214.627078 165.09656 
L 214.746649 165.09656 
L 214.985793 159.256399 
L 215.105364 160.163393 
L 215.224936 160.163393 
L 215.344508 158.58168 
L 215.583651 152.299076 
L 215.703223 154.997935 
L 215.822795 154.090941 
L 215.942366 150.274937 
L 216.061938 151.403136 
L 216.301082 149.821423 
L 216.659797 138.373377 
L 216.779369 141.968176 
L 217.138084 131.183779 
L 217.257655 129.834341 
L 217.377227 129.834341 
L 217.496799 127.821255 
L 217.735942 121.527597 
L 217.855514 119.956938 
L 217.975086 120.399381 
L 218.453373 105.810033 
L 218.692516 104.007099 
L 218.812088 105.135315 
L 218.931659 104.460596 
L 219.290375 94.350917 
L 219.768662 89.185459 
L 219.888233 89.185459 
L 220.007805 83.798795 
L 220.246948 85.369455 
L 220.486092 79.529277 
L 220.605664 79.308055 
L 220.725235 77.505121 
L 220.844807 78.401061 
L 220.964379 77.505121 
L 221.442666 64.032918 
L 221.562237 61.334077 
L 221.920953 67.627718 
L 222.040524 67.174237 
L 222.160096 64.928876 
L 222.279668 66.046005 
L 222.638383 64.254157 
L 222.757955 68.070161 
L 222.997098 59.542196 
L 223.11667 59.984639 
L 223.355813 64.928876 
L 223.475385 63.3582 
L 223.714528 59.7634 
L 223.8341 61.555282 
L 223.953672 61.555282 
L 224.073243 61.112838 
L 224.312387 66.046005 
L 224.55153 65.150081 
L 224.910246 70.094318 
L 225.029817 68.966119 
L 225.149389 71.443755 
L 225.268961 71.21148 
L 225.508104 76.830402 
L 225.627676 75.934478 
L 225.747248 70.094318 
L 225.986391 75.259759 
L 226.345106 84.473514 
L 226.464678 84.020017 
L 226.823393 88.057243 
L 227.062536 89.638956 
L 227.182108 90.756118 
L 227.30168 90.302621 
L 227.899539 98.841657 
L 228.138682 104.903039 
L 228.258254 106.473682 
L 228.377825 106.473682 
L 228.736541 112.092638 
L 228.856112 112.546135 
L 228.975684 113.66328 
L 229.095256 111.196697 
L 229.453971 120.852878 
L 229.812686 118.607517 
L 230.051829 126.018337 
L 230.410545 129.391914 
L 230.530116 129.159639 
L 230.649688 129.834341 
L 230.888832 134.103859 
L 231.008403 137.245161 
L 231.127975 134.557356 
L 231.247547 137.477436 
L 231.48669 146.237694 
L 231.606262 146.912413 
L 231.725834 146.912413 
L 231.964977 147.35484 
L 232.084549 148.704277 
L 232.323692 146.680138 
L 232.562836 147.576061 
L 232.801979 152.299076 
L 232.921551 150.949639 
L 233.160694 153.869736 
L 233.280266 155.6616 
L 233.399838 154.323233 
L 233.758553 158.139237 
L 234.23684 148.925499 
L 234.595555 157.68574 
L 234.715127 157.68574 
L 235.073842 152.299076 
L 235.312985 155.219157 
L 235.552129 158.139237 
L 235.6717 157.68574 
L 235.791272 155.6616 
L 235.910844 156.789816 
L 236.149987 154.323233 
L 236.269559 154.090941 
L 236.389131 153.416222 
L 236.508702 153.869736 
L 236.628274 151.17086 
L 236.747846 151.17086 
L 236.986989 147.808337 
L 237.106561 149.821423 
L 237.226133 145.109478 
L 237.345704 145.3307 
L 237.465276 147.576061 
L 237.70442 141.293457 
L 237.823991 141.968176 
L 237.943563 141.968176 
L 238.063135 141.293457 
L 238.42185 133.882637 
L 238.660993 139.722815 
L 238.780565 135.674518 
L 238.900137 136.128016 
L 239.019709 133.42914 
L 239.13928 133.42914 
L 239.617567 122.877035 
L 239.737139 122.202316 
L 239.976282 117.479301 
L 240.095854 118.607517 
L 240.215426 117.711576 
L 240.334997 117.932798 
L 240.574141 120.399381 
L 240.932856 117.036858 
L 241.171999 111.417919 
L 241.411143 106.927179 
L 241.530715 107.82312 
L 241.650286 107.148401 
L 241.769858 103.785877 
L 241.88943 104.228321 
L 242.248145 98.388143 
L 242.367717 97.049776 
L 242.487288 97.270998 
L 242.60686 96.375057 
L 242.846004 93.676198 
L 242.965575 96.596279 
L 243.563434 84.473514 
L 243.683006 84.694736 
L 243.802577 84.473514 
L 244.041721 86.265378 
L 244.161293 86.718875 
L 244.280864 85.811881 
L 244.400436 86.940097 
L 244.759151 83.124076 
L 244.878723 85.369455 
L 245.237438 82.217082 
L 245.35701 84.020017 
L 245.476581 83.345298 
L 245.715725 86.044157 
L 245.835297 82.449358 
L 245.954868 83.124076 
L 246.07444 85.137163 
L 246.194012 84.020017 
L 246.433155 88.289535 
L 246.79187 84.241239 
L 247.031014 89.638956 
L 247.270157 86.940097 
L 247.389729 86.940097 
L 247.509301 90.302621 
L 247.628872 90.534896 
L 247.748444 91.430837 
L 247.868016 90.534896 
L 247.987588 88.731962 
L 248.107159 89.860178 
L 248.346303 95.246858 
L 248.465874 94.350917 
L 248.705018 99.295154 
L 248.82459 95.025636 
L 249.063733 98.388143 
L 249.183305 98.620435 
L 249.422448 101.761737 
L 249.661592 103.111158 
L 249.900735 107.601898 
L 250.020307 105.577741 
L 250.139879 107.601898 
L 250.25945 106.473682 
L 250.379022 106.473682 
L 250.498594 106.25246 
L 250.618165 106.473682 
L 250.857309 112.313843 
L 250.976881 113.66328 
L 251.096452 113.442058 
L 251.216024 113.895555 
L 251.455167 116.815653 
L 251.694311 113.442058 
L 252.172598 123.551737 
L 252.292169 122.423538 
L 252.411741 119.735733 
L 252.531313 122.202316 
L 252.650885 127.146536 
L 252.890028 125.343618 
L 253.0096 125.122396 
L 253.129172 125.797115 
L 253.248743 128.717195 
L 253.487887 126.018337 
L 253.607458 127.367758 
L 253.72703 126.914261 
L 253.846602 129.391914 
L 253.966174 129.159639 
L 254.085745 130.962557 
L 254.324889 130.066633 
L 254.44446 133.882637 
L 254.564032 132.311995 
L 254.803176 136.349237 
L 254.922747 136.128016 
L 255.281463 132.754438 
L 255.401034 135.906794 
L 255.640178 132.311995 
L 255.759749 135.674518 
L 255.879321 134.778578 
L 256.118465 138.152155 
L 256.357608 137.023939 
L 256.596751 140.165241 
L 256.716323 139.722815 
L 256.835895 137.245161 
L 257.075038 142.642895 
L 257.19461 143.992333 
L 257.433753 141.514679 
L 257.553325 144.888256 
L 257.672897 143.76004 
L 257.792469 144.434759 
L 258.031612 140.165241 
L 258.151184 140.397533 
L 258.270756 137.698658 
L 258.509899 139.048096 
L 258.629471 136.128016 
L 258.868614 137.91988 
L 258.988186 137.477436 
L 259.107758 137.477436 
L 259.227329 137.245161 
L 259.346901 134.325081 
L 259.586044 138.373377 
L 260.064331 128.717195 
L 260.303475 131.637276 
L 260.423046 131.858498 
L 260.542618 131.637276 
L 260.66219 130.066633 
L 260.781762 130.730282 
L 260.901333 129.159639 
L 261.020905 125.122396 
L 261.140477 125.122396 
L 261.260049 124.668899 
L 261.37962 123.551737 
L 261.499192 124.226456 
L 261.738335 119.735733 
L 261.857907 120.631657 
L 262.097051 124.447678 
L 262.336194 116.58336 
L 262.455766 119.503441 
L 262.575337 118.386295 
L 262.694909 118.607517 
L 263.053624 111.871416 
L 263.173196 112.76734 
L 263.292768 112.092638 
L 263.531911 105.810033 
L 263.771055 107.82312 
L 263.890626 104.228321 
L 264.249342 112.313843 
L 264.368913 106.031255 
L 264.488485 106.473682 
L 264.608057 108.730114 
L 264.727628 104.007099 
L 264.8472 106.473682 
L 264.966772 106.25246 
L 265.086344 103.33238 
L 265.205915 104.228321 
L 265.325487 104.007099 
L 265.56463 99.969856 
L 265.684202 104.903039 
L 265.803774 104.903039 
L 266.042917 98.620435 
L 266.162489 97.049776 
L 266.282061 97.724495 
L 266.401632 97.724495 
L 266.521204 99.737581 
L 266.879919 95.025636 
L 266.999491 95.479133 
L 267.119063 94.572139 
L 267.358206 98.166938 
L 267.59735 97.492219 
L 267.836493 98.388143 
L 267.956065 98.166938 
L 268.075637 98.388143 
L 268.195208 99.969856 
L 268.31478 97.724495 
L 268.434352 97.724495 
L 268.553923 97.492219 
L 268.673495 95.92156 
L 268.793067 96.596279 
L 269.03221 102.889953 
L 269.151782 102.657661 
L 269.390926 97.492219 
L 269.510497 98.388143 
L 269.630069 98.620435 
L 269.749641 99.516359 
L 269.869212 97.492219 
L 270.108356 99.737581 
L 270.227928 101.087018 
L 270.347499 101.087018 
L 270.467071 103.785877 
L 270.586643 103.111158 
L 270.706214 103.785877 
L 270.825786 105.577741 
L 270.945358 102.657661 
L 271.184501 110.068481 
L 271.423645 110.7432 
L 271.662788 107.601898 
L 271.78236 108.951336 
L 271.901932 112.313843 
L 272.021503 112.092638 
L 272.141075 110.068481 
L 272.260647 113.220854 
L 272.380219 110.7432 
L 272.49979 111.417919 
L 272.738934 117.932798 
L 272.858505 118.828739 
L 272.978077 114.791496 
L 273.217221 117.711576 
L 273.456364 115.466215 
L 273.815079 121.0741 
L 273.934651 120.631657 
L 274.173794 124.901175 
L 274.293366 123.99418 
L 274.532509 118.607517 
L 274.771653 122.644743 
L 274.891225 122.877035 
L 275.130368 119.282236 
L 275.24994 126.471834 
L 275.489083 122.423538 
L 275.608655 124.226456 
L 275.728227 123.09824 
L 275.847798 126.693039 
L 275.96737 126.018337 
L 276.086942 124.447678 
L 276.206514 124.901175 
L 276.326085 128.263698 
L 276.445657 126.914261 
L 276.565229 124.226456 
L 276.6848 125.343618 
L 277.043516 131.858498 
L 277.402231 127.146536 
L 277.521802 128.48492 
L 277.641374 128.042477 
L 277.760946 129.834341 
L 277.880518 128.938417 
L 278.239233 134.103859 
L 278.358805 129.834341 
L 278.478376 132.311995 
L 278.597948 131.637276 
L 278.71752 132.533216 
L 278.837091 135.453297 
L 278.956663 134.778578 
L 279.315378 129.391914 
L 279.43495 129.834341 
L 279.554522 133.207935 
L 279.793665 127.146536 
L 279.913237 128.717195 
L 280.15238 133.650362 
L 280.391524 125.797115 
L 280.511096 126.239542 
L 280.750239 128.717195 
L 280.989382 132.311995 
L 281.108954 130.730282 
L 281.228526 126.018337 
L 281.587241 130.962557 
L 281.945956 124.668899 
L 282.1851 125.343618 
L 282.304671 125.122396 
L 282.543815 121.527597 
L 282.663386 117.479301 
L 282.782958 117.932798 
L 282.90253 119.503441 
L 283.022102 117.258079 
L 283.141673 117.932798 
L 283.261245 117.711576 
L 283.500389 118.607517 
L 283.61996 116.362139 
L 283.739532 119.735733 
L 283.859104 119.735733 
L 283.978675 118.828739 
L 284.217819 114.791496 
L 284.456962 119.282236 
L 284.696106 114.791496 
L 285.174393 119.061014 
L 285.293964 117.932798 
L 285.533108 119.735733 
L 285.652679 119.735733 
L 285.891823 113.442058 
L 286.011395 115.23394 
L 286.250538 111.650194 
L 286.37011 110.7432 
L 286.489682 106.705957 
L 286.728825 108.497838 
L 286.848397 107.82312 
L 286.967968 107.82312 
L 287.08754 109.393762 
L 287.326684 106.25246 
L 287.565827 109.17254 
L 287.685399 108.276617 
L 287.80497 108.951336 
L 288.044114 108.951336 
L 288.163686 109.393762 
L 288.283257 111.871416 
L 288.522401 107.601898 
L 288.641972 106.927179 
L 288.761544 103.33238 
L 289.000688 107.148401 
L 289.359403 105.810033 
L 289.598546 108.730114 
L 289.83769 107.148401 
L 289.957261 107.82312 
L 290.196405 104.007099 
L 290.315977 104.228321 
L 290.55512 105.810033 
L 290.674692 109.17254 
L 291.033407 101.982942 
L 291.152979 103.564655 
L 291.27255 101.761737 
L 291.511694 106.473682 
L 291.631266 105.577741 
L 291.750837 109.17254 
L 291.870409 107.82312 
L 292.109552 112.988561 
L 292.348696 109.17254 
L 292.468268 110.521978 
L 292.587839 109.626054 
L 292.707411 105.356536 
L 292.946554 109.17254 
L 293.066126 109.17254 
L 293.30527 108.497838 
L 293.663985 113.895555 
L 293.783556 114.559221 
L 293.903128 113.220854 
L 294.142272 113.895555 
L 294.381415 108.497838 
L 294.500987 108.730114 
L 294.859702 110.7432 
L 295.098845 113.895555 
L 295.218417 112.092638 
L 295.577132 119.061014 
L 295.816276 114.337999 
L 296.055419 117.711576 
L 296.174991 117.036858 
L 296.294563 112.76734 
L 296.414134 112.988561 
L 296.533706 115.687437 
L 296.653278 115.466215 
L 296.892421 122.202316 
L 297.011993 118.607517 
L 297.251136 118.386295 
L 297.49028 124.447678 
L 297.609852 124.226456 
L 297.729423 122.644743 
L 297.848995 123.99418 
L 298.088138 118.15402 
L 298.20771 117.932798 
L 298.566425 126.239542 
L 298.685997 127.58898 
L 298.805569 124.447678 
L 298.92514 126.018337 
L 299.044712 131.637276 
L 299.403427 124.447678 
L 299.642571 128.042477 
L 299.881714 122.644743 
L 300.001286 122.877035 
L 300.120858 124.668899 
L 300.240429 123.551737 
L 300.479573 116.140934 
L 300.718716 126.471834 
L 300.95786 118.828739 
L 301.197003 121.981094 
L 301.316575 121.527597 
L 301.555718 124.226456 
L 301.67529 124.226456 
L 301.794862 124.668899 
L 302.034005 126.239542 
L 302.273149 127.367758 
L 302.512292 126.018337 
L 302.631864 126.914261 
L 302.751436 130.066633 
L 303.110151 124.226456 
L 303.349294 127.367758 
L 303.588438 123.551737 
L 303.708009 119.503441 
L 303.827581 119.956938 
L 303.947153 121.306375 
L 304.066724 125.122396 
L 304.186296 124.901175 
L 304.42544 120.399381 
L 304.784155 124.901175 
L 305.023298 119.735733 
L 305.14287 121.527597 
L 305.501585 116.362139 
L 305.621157 116.815653 
L 305.740729 116.815653 
L 305.979872 114.791496 
L 306.099444 115.012718 
L 306.219015 116.58336 
L 306.338587 114.791496 
L 306.458159 115.908642 
L 306.697302 113.220854 
L 306.816874 112.546135 
L 307.175589 121.748819 
L 307.414733 115.466215 
L 307.653876 118.607517 
L 307.773448 117.711576 
L 308.012591 109.847259 
L 308.132163 109.17254 
L 308.251735 112.546135 
L 308.371306 111.196697 
L 308.490878 107.601898 
L 309.088737 112.313843 
L 309.208308 112.092638 
L 309.447452 113.442058 
L 309.567024 115.908642 
L 309.806167 108.055395 
L 309.925739 108.730114 
L 310.164882 112.313843 
L 310.284454 110.975475 
L 310.404026 111.417919 
L 310.523597 112.988561 
L 310.643169 112.76734 
L 310.762741 111.417919 
L 311.001884 106.031255 
L 311.121456 105.810033 
L 311.360599 111.871416 
L 311.599743 108.497838 
L 311.719315 108.497838 
L 311.838886 109.17254 
L 312.07803 114.116777 
L 312.317173 105.577741 
L 312.436745 106.473682 
L 312.675888 108.497838 
L 312.79546 108.497838 
L 313.034603 105.577741 
L 313.154175 106.927179 
L 313.273747 106.473682 
L 313.51289 110.521978 
L 313.632462 110.7432 
L 313.752034 110.068481 
L 313.991177 112.988561 
L 314.110749 112.092638 
L 314.230321 112.313843 
L 314.349892 114.116777 
L 314.469464 111.417919 
L 314.589036 112.313843 
L 314.708608 115.908642 
L 314.947751 113.442058 
L 315.067323 112.988561 
L 315.186894 114.791496 
L 315.306466 114.559221 
L 315.54561 110.300756 
L 315.665181 108.951336 
L 315.784753 108.951336 
L 315.904325 112.313843 
L 316.023896 110.521978 
L 316.26304 114.791496 
L 316.382612 112.988561 
L 316.860899 117.711576 
L 316.98047 117.258079 
L 317.100042 117.479301 
L 317.219614 115.687437 
L 317.458757 118.828739 
L 317.697901 116.362139 
L 317.817472 117.258079 
L 317.937044 119.282236 
L 318.176187 117.036858 
L 318.415331 120.17816 
L 318.654474 113.895555 
L 318.893618 116.815653 
L 319.013189 112.988561 
L 319.252333 116.58336 
L 319.371905 120.399381 
L 319.491476 119.282236 
L 319.611048 121.527597 
L 319.73062 120.852878 
L 320.089335 122.644743 
L 320.328478 117.711576 
L 320.44805 121.527597 
L 320.567622 121.0741 
L 320.806765 127.146536 
L 321.16548 121.0741 
L 321.285052 122.644743 
L 321.404624 120.17816 
L 321.643767 122.644743 
L 321.763339 122.202316 
L 322.122054 115.908642 
L 322.241626 117.258079 
L 322.361198 115.687437 
L 322.600341 119.735733 
L 322.839485 116.362139 
L 323.078628 119.282236 
L 323.317771 117.036858 
L 323.556915 119.282236 
L 323.796058 113.895555 
L 323.91563 115.908642 
L 324.154773 123.551737 
L 324.393917 117.932798 
L 324.513489 118.15402 
L 324.752632 121.527597 
L 324.872204 121.0741 
L 324.991775 121.0741 
L 325.111347 118.828739 
L 325.230919 119.735733 
L 325.470062 122.644743 
L 325.589634 121.306375 
L 325.709206 116.140934 
L 325.948349 123.99418 
L 326.067921 121.981094 
L 326.187493 122.423538 
L 326.546208 114.116777 
L 326.785351 117.258079 
L 326.904923 116.140934 
L 327.144066 120.17816 
L 327.622353 113.895555 
L 327.741925 113.220854 
L 327.861497 113.66328 
L 327.981069 115.23394 
L 328.220212 111.871416 
L 328.339784 112.546135 
L 328.578927 116.58336 
L 328.698499 117.479301 
L 328.937642 112.313843 
L 329.176786 113.220854 
L 329.296357 112.313843 
L 329.415929 113.442058 
L 329.535501 112.092638 
L 329.655073 107.380676 
L 329.774644 108.055395 
L 330.013788 111.196697 
L 330.133359 111.196697 
L 330.252931 111.650194 
L 330.372503 111.196697 
L 330.492075 109.393762 
L 330.611646 110.300756 
L 330.731218 115.012718 
L 331.329077 107.82312 
L 331.448648 107.82312 
L 331.687792 114.116777 
L 331.807364 114.791496 
L 331.926935 113.895555 
L 332.046507 110.7432 
L 332.28565 112.76734 
L 332.405222 112.092638 
L 332.763937 114.116777 
L 333.003081 108.951336 
L 333.242224 110.300756 
L 333.361796 110.300756 
L 333.600939 112.546135 
L 333.720511 111.650194 
L 333.840083 109.393762 
L 334.079226 113.442058 
L 334.198798 112.313843 
L 334.31837 112.988561 
L 334.437941 112.546135 
L 334.796657 105.810033 
L 335.394515 116.140934 
L 335.633659 109.626054 
L 335.75323 110.7432 
L 335.872802 110.7432 
L 336.111945 116.58336 
L 336.351089 111.871416 
L 336.590232 108.730114 
L 336.829376 113.442058 
L 336.948948 110.7432 
L 337.188091 112.546135 
L 337.307663 112.76734 
L 337.427234 111.417919 
L 337.546806 114.559221 
L 337.666378 114.116777 
L 337.78595 115.687437 
L 337.905521 115.687437 
L 338.025093 116.140934 
L 338.144665 114.337999 
L 338.264236 110.521978 
L 338.383808 110.521978 
L 338.981667 122.423538 
L 339.101239 119.061014 
L 339.22081 119.061014 
L 339.579525 113.66328 
L 339.699097 115.012718 
L 339.818669 112.092638 
L 340.057812 116.362139 
L 340.296956 113.220854 
L 340.536099 117.932798 
L 340.655671 118.15402 
L 340.894814 115.908642 
L 341.253529 126.239542 
L 341.373101 126.693039 
L 341.492673 127.58898 
L 342.090532 119.735733 
L 342.329675 121.748819 
L 342.449247 119.956938 
L 342.568818 120.631657 
L 342.927534 125.343618 
L 343.166677 121.748819 
L 343.286249 121.527597 
L 343.40582 120.399381 
L 343.525392 121.527597 
L 343.644964 121.0741 
L 344.123251 128.263698 
L 344.362394 122.423538 
L 344.481966 123.551737 
L 344.601538 123.09824 
L 344.721109 124.447678 
L 344.840681 122.644743 
L 344.960253 118.15402 
L 345.079825 119.061014 
L 345.318968 123.551737 
L 345.558111 123.99418 
L 345.797255 117.258079 
L 345.916827 120.17816 
L 346.036398 119.061014 
L 346.15597 119.282236 
L 346.275542 117.479301 
L 346.395113 112.988561 
L 346.514685 112.988561 
L 346.8734 124.668899 
L 347.112544 122.423538 
L 347.232115 121.0741 
L 347.351687 124.226456 
L 347.471259 124.226456 
L 347.829974 116.815653 
L 347.949546 120.631657 
L 348.188689 117.932798 
L 348.308261 119.956938 
L 348.547404 118.828739 
L 348.666976 117.711576 
L 348.786548 119.503441 
L 349.025691 117.932798 
L 349.264835 118.828739 
L 349.503978 117.711576 
L 349.743122 112.546135 
L 349.982265 119.282236 
L 350.101837 119.061014 
L 350.34098 121.748819 
L 350.580124 113.220854 
L 350.819267 116.362139 
L 351.058411 121.0741 
L 351.177982 120.631657 
L 351.297554 119.503441 
L 351.536697 114.337999 
L 351.656269 117.036858 
L 351.775841 117.036858 
L 351.895413 116.815653 
L 352.134556 111.196697 
L 352.373699 112.988561 
L 352.493271 113.220854 
L 352.612843 112.313843 
L 352.851986 113.66328 
L 352.971558 117.711576 
L 353.210702 110.521978 
L 353.330273 111.650194 
L 353.449845 114.559221 
L 353.569417 113.66328 
L 353.80856 115.908642 
L 353.928132 117.479301 
L 354.167275 112.313843 
L 354.286847 112.76734 
L 354.406419 112.313843 
L 354.52599 111.417919 
L 354.645562 111.650194 
L 354.884706 114.337999 
L 355.004277 112.988561 
L 355.123849 115.012718 
L 355.243421 112.76734 
L 355.362992 112.76734 
L 355.482564 115.012718 
L 355.602136 114.337999 
L 355.721708 115.687437 
L 356.080423 110.7432 
L 356.199995 112.313843 
L 356.439138 110.068481 
L 356.55871 110.068481 
L 356.678281 112.76734 
L 356.797853 109.847259 
L 356.917425 110.975475 
L 357.156568 114.337999 
L 357.27614 115.012718 
L 357.395712 112.313843 
L 357.634855 116.815653 
L 357.99357 111.417919 
L 358.232714 115.23394 
L 358.352285 114.337999 
L 358.471857 115.012718 
L 358.591429 116.362139 
L 358.950144 109.17254 
L 359.069716 109.626054 
L 359.308859 111.650194 
L 359.428431 110.300756 
L 359.548003 113.895555 
L 359.667574 112.988561 
L 359.787146 108.951336 
L 359.906718 110.975475 
L 360.265433 121.0741 
L 360.385005 121.748819 
L 360.504576 120.17816 
L 360.624148 117.036858 
L 360.863292 119.282236 
L 360.982863 119.735733 
L 361.341578 111.871416 
L 361.580722 117.258079 
L 361.819865 115.466215 
L 361.939437 115.466215 
L 362.059009 115.687437 
L 362.298152 110.975475 
L 362.656867 118.15402 
L 362.776439 115.687437 
L 363.015583 117.479301 
L 363.135154 115.687437 
L 363.254726 116.140934 
L 363.493869 114.559221 
L 363.733013 120.631657 
L 363.852585 122.202316 
L 364.091728 117.258079 
L 364.570015 123.09824 
L 364.809158 115.687437 
L 364.92873 112.313843 
L 365.048302 113.895555 
L 365.287445 120.631657 
L 365.526589 119.503441 
L 365.64616 118.386295 
L 365.765732 118.607517 
L 365.885304 120.852878 
L 366.004876 120.399381 
L 366.124447 119.503441 
L 366.244019 120.17816 
L 366.483162 116.362139 
L 366.602734 115.687437 
L 366.841878 119.735733 
L 366.961449 119.503441 
L 367.320165 125.797115 
L 367.439736 121.527597 
L 367.67888 122.202316 
L 368.037595 118.607517 
L 368.157167 118.15402 
L 368.276738 119.956938 
L 368.39631 119.282236 
L 368.515882 117.711576 
L 368.635453 118.15402 
L 368.755025 116.362139 
L 368.994169 119.061014 
L 369.233312 115.466215 
L 369.352884 115.687437 
L 369.472455 116.58336 
L 369.592027 115.908642 
L 369.950742 121.306375 
L 370.189886 116.140934 
L 370.429029 119.735733 
L 370.548601 118.828739 
L 370.668173 119.503441 
L 370.787744 118.607517 
L 371.026888 116.140934 
L 371.14646 116.140934 
L 371.385603 114.559221 
L 371.505175 112.092638 
L 371.983462 123.551737 
L 372.222605 115.23394 
L 372.342177 113.66328 
L 372.461748 117.932798 
L 372.58132 117.932798 
L 372.820464 122.202316 
L 372.940035 120.852878 
L 373.179179 117.036858 
L 373.298751 116.140934 
L 373.418322 118.828739 
L 373.657466 117.932798 
L 373.896609 113.442058 
L 374.016181 116.140934 
L 374.135753 115.23394 
L 374.374896 117.932798 
L 374.614039 114.559221 
L 374.853183 111.871416 
L 374.972755 113.895555 
L 375.33147 112.988561 
L 375.451042 113.442058 
L 375.570613 115.466215 
L 375.690185 114.559221 
L 375.929328 116.362139 
L 376.0489 116.815653 
L 376.168472 119.282236 
L 376.407615 118.15402 
L 376.646759 119.956938 
L 376.885902 114.116777 
L 377.125046 117.036858 
L 377.244617 116.140934 
L 377.364189 116.362139 
L 377.603332 113.895555 
L 377.722904 117.479301 
L 377.842476 116.815653 
L 378.081619 119.282236 
L 378.201191 116.58336 
L 378.320763 117.479301 
L 378.679478 114.559221 
L 378.79905 115.466215 
L 379.038193 119.735733 
L 379.277337 116.362139 
L 379.396908 116.140934 
L 379.51648 116.362139 
L 379.755623 115.908642 
L 379.994767 120.631657 
L 380.114339 120.852878 
L 380.23391 121.748819 
L 380.353482 119.503441 
L 380.592625 121.981094 
L 380.831769 117.036858 
L 380.951341 116.140934 
L 381.310056 117.258079 
L 381.429628 116.362139 
L 381.549199 120.852878 
L 381.668771 120.399381 
L 381.788343 118.386295 
L 382.027486 112.546135 
L 382.26663 121.306375 
L 382.505773 118.607517 
L 382.625345 117.479301 
L 382.864488 121.527597 
L 382.98406 119.735733 
L 383.223203 112.76734 
L 383.581918 118.828739 
L 383.70149 118.607517 
L 383.821062 117.932798 
L 383.940634 120.631657 
L 384.060205 120.631657 
L 384.179777 121.748819 
L 384.299349 119.282236 
L 384.418921 120.852878 
L 384.777636 116.815653 
L 385.136351 119.956938 
L 385.255923 119.282236 
L 385.495066 122.423538 
L 385.614638 122.423538 
L 385.853781 117.258079 
L 386.092925 114.559221 
L 386.332068 119.735733 
L 386.571212 123.319462 
L 386.929927 118.607517 
L 387.049498 120.17816 
L 387.288642 116.140934 
L 387.408214 113.66328 
L 387.527785 113.895555 
L 387.647357 113.442058 
L 387.8865 115.23394 
L 388.245216 120.399381 
L 388.364787 119.282236 
L 388.484359 119.735733 
L 388.603931 121.527597 
L 388.843074 117.036858 
L 388.843074 117.036858 
" style="fill:none;stroke:#1f77b4;stroke-linecap:round;stroke-width:1.5;"/>
   </g>
   <g id="line2d_17">
    <path clip-path="url(#pcb8d89ff27)" d="M 99.912374 -1 
L 99.93782 289 
L 99.93782 289 
" style="fill:none;stroke:#ff7f0e;stroke-linecap:round;stroke-width:1.5;"/>
   </g>
   <g id="patch_3">
    <path d="M 54 252 
L 54 34.56 
" style="fill:none;stroke:#cccccc;stroke-linecap:square;stroke-linejoin:miter;stroke-width:0.8;"/>
   </g>
   <g id="patch_4">
    <path d="M 388.8 252 
L 388.8 34.56 
" style="fill:none;stroke:#cccccc;stroke-linecap:square;stroke-linejoin:miter;stroke-width:0.8;"/>
   </g>
   <g id="patch_5">
    <path d="M 54 252 
L 388.8 252 
" style="fill:none;stroke:#cccccc;stroke-linecap:square;stroke-linejoin:miter;stroke-width:0.8;"/>
   </g>
   <g id="patch_6">
    <path d="M 54 34.56 
L 388.8 34.56 
" style="fill:none;stroke:#cccccc;stroke-linecap:square;stroke-linejoin:miter;stroke-width:0.8;"/>
   </g>
  </g>
 </g>
 <defs>
  <clipPath id="pcb8d89ff27">
   <rect height="217.44" width="334.8" x="54" y="34.56"/>
  </clipPath>
 </defs>
</svg>
