<?xml version="1.0" encoding="utf-8" standalone="no"?>
<!DOCTYPE svg PUBLIC "-//W3C//DTD SVG 1.1//EN"
  "http://www.w3.org/Graphics/SVG/1.1/DTD/svg11.dtd">
<svg height="288pt" version="1.1" viewBox="0 0 432 288" width="432pt" xmlns="http://www.w3.org/2000/svg" xmlns:xlink="http://www.w3.org/1999/xlink">
 <metadata>
  <rdf:RDF xmlns:cc="http://creativecommons.org/ns#" xmlns:dc="http://purl.org/dc/elements/1.1/" xmlns:rdf="http://www.w3.org/1999/02/22-rdf-syntax-ns#">
   <cc:Work>
    <dc:type rdf:resource="http://purl.org/dc/dcmitype/StillImage"/>
    <dc:date>2022-05-26T23:48:04.194726</dc:date>
    <dc:format>image/svg+xml</dc:format>
    <dc:creator>
     <cc:Agent>
      <dc:title>Matplotlib v3.4.0, https://matplotlib.org/</dc:title>
     </cc:Agent>
    </dc:creator>
   </cc:Work>
  </rdf:RDF>
 </metadata>
 <defs>
  <style type="text/css">*{stroke-linecap:butt;stroke-linejoin:round;}</style>
 </defs>
 <g id="figure_1">
  <g id="patch_1">
   <path d="M 0 288 
L 432 288 
L 432 0 
L 0 0 
z
" style="fill:#ffffff;"/>
  </g>
  <g id="axes_1">
   <g id="patch_2">
    <path d="M 54 252 
L 388.8 252 
L 388.8 34.56 
L 54 34.56 
z
" style="fill:#ffffff;"/>
   </g>
   <g id="matplotlib.axis_1">
    <g id="xtick_1">
     <g id="line2d_1">
      <path clip-path="url(#p73c528982e)" d="M 54 252 
L 54 34.56 
" style="fill:none;stroke:#cccccc;stroke-linecap:round;stroke-width:0.8;"/>
     </g>
     <g id="text_1">
      <!-- 0.00024 -->
      <g style="fill:#262626;" transform="translate(33.323437 266.598437)scale(0.1 -0.1)">
       <defs>
        <path d="M 2034 4250 
Q 1547 4250 1301 3770 
Q 1056 3291 1056 2328 
Q 1056 1369 1301 889 
Q 1547 409 2034 409 
Q 2525 409 2770 889 
Q 3016 1369 3016 2328 
Q 3016 3291 2770 3770 
Q 2525 4250 2034 4250 
z
M 2034 4750 
Q 2819 4750 3233 4129 
Q 3647 3509 3647 2328 
Q 3647 1150 3233 529 
Q 2819 -91 2034 -91 
Q 1250 -91 836 529 
Q 422 1150 422 2328 
Q 422 3509 836 4129 
Q 1250 4750 2034 4750 
z
" id="DejaVuSans-30" transform="scale(0.015625)"/>
        <path d="M 684 794 
L 1344 794 
L 1344 0 
L 684 0 
L 684 794 
z
" id="DejaVuSans-2e" transform="scale(0.015625)"/>
        <path d="M 1228 531 
L 3431 531 
L 3431 0 
L 469 0 
L 469 531 
Q 828 903 1448 1529 
Q 2069 2156 2228 2338 
Q 2531 2678 2651 2914 
Q 2772 3150 2772 3378 
Q 2772 3750 2511 3984 
Q 2250 4219 1831 4219 
Q 1534 4219 1204 4116 
Q 875 4013 500 3803 
L 500 4441 
Q 881 4594 1212 4672 
Q 1544 4750 1819 4750 
Q 2544 4750 2975 4387 
Q 3406 4025 3406 3419 
Q 3406 3131 3298 2873 
Q 3191 2616 2906 2266 
Q 2828 2175 2409 1742 
Q 1991 1309 1228 531 
z
" id="DejaVuSans-32" transform="scale(0.015625)"/>
        <path d="M 2419 4116 
L 825 1625 
L 2419 1625 
L 2419 4116 
z
M 2253 4666 
L 3047 4666 
L 3047 1625 
L 3713 1625 
L 3713 1100 
L 3047 1100 
L 3047 0 
L 2419 0 
L 2419 1100 
L 313 1100 
L 313 1709 
L 2253 4666 
z
" id="DejaVuSans-34" transform="scale(0.015625)"/>
       </defs>
       <use xlink:href="#DejaVuSans-30"/>
       <use x="63.623047" xlink:href="#DejaVuSans-2e"/>
       <use x="95.410156" xlink:href="#DejaVuSans-30"/>
       <use x="159.033203" xlink:href="#DejaVuSans-30"/>
       <use x="222.65625" xlink:href="#DejaVuSans-30"/>
       <use x="286.279297" xlink:href="#DejaVuSans-32"/>
       <use x="349.902344" xlink:href="#DejaVuSans-34"/>
      </g>
     </g>
    </g>
    <g id="xtick_2">
     <g id="line2d_2">
      <path clip-path="url(#p73c528982e)" d="M 120.96 252 
L 120.96 34.56 
" style="fill:none;stroke:#cccccc;stroke-linecap:round;stroke-width:0.8;"/>
     </g>
     <g id="text_2">
      <!-- 0.00026 -->
      <g style="fill:#262626;" transform="translate(100.283438 266.598437)scale(0.1 -0.1)">
       <defs>
        <path d="M 2113 2584 
Q 1688 2584 1439 2293 
Q 1191 2003 1191 1497 
Q 1191 994 1439 701 
Q 1688 409 2113 409 
Q 2538 409 2786 701 
Q 3034 994 3034 1497 
Q 3034 2003 2786 2293 
Q 2538 2584 2113 2584 
z
M 3366 4563 
L 3366 3988 
Q 3128 4100 2886 4159 
Q 2644 4219 2406 4219 
Q 1781 4219 1451 3797 
Q 1122 3375 1075 2522 
Q 1259 2794 1537 2939 
Q 1816 3084 2150 3084 
Q 2853 3084 3261 2657 
Q 3669 2231 3669 1497 
Q 3669 778 3244 343 
Q 2819 -91 2113 -91 
Q 1303 -91 875 529 
Q 447 1150 447 2328 
Q 447 3434 972 4092 
Q 1497 4750 2381 4750 
Q 2619 4750 2861 4703 
Q 3103 4656 3366 4563 
z
" id="DejaVuSans-36" transform="scale(0.015625)"/>
       </defs>
       <use xlink:href="#DejaVuSans-30"/>
       <use x="63.623047" xlink:href="#DejaVuSans-2e"/>
       <use x="95.410156" xlink:href="#DejaVuSans-30"/>
       <use x="159.033203" xlink:href="#DejaVuSans-30"/>
       <use x="222.65625" xlink:href="#DejaVuSans-30"/>
       <use x="286.279297" xlink:href="#DejaVuSans-32"/>
       <use x="349.902344" xlink:href="#DejaVuSans-36"/>
      </g>
     </g>
    </g>
    <g id="xtick_3">
     <g id="line2d_3">
      <path clip-path="url(#p73c528982e)" d="M 187.92 252 
L 187.92 34.56 
" style="fill:none;stroke:#cccccc;stroke-linecap:round;stroke-width:0.8;"/>
     </g>
     <g id="text_3">
      <!-- 0.00028 -->
      <g style="fill:#262626;" transform="translate(167.243438 266.598437)scale(0.1 -0.1)">
       <defs>
        <path d="M 2034 2216 
Q 1584 2216 1326 1975 
Q 1069 1734 1069 1313 
Q 1069 891 1326 650 
Q 1584 409 2034 409 
Q 2484 409 2743 651 
Q 3003 894 3003 1313 
Q 3003 1734 2745 1975 
Q 2488 2216 2034 2216 
z
M 1403 2484 
Q 997 2584 770 2862 
Q 544 3141 544 3541 
Q 544 4100 942 4425 
Q 1341 4750 2034 4750 
Q 2731 4750 3128 4425 
Q 3525 4100 3525 3541 
Q 3525 3141 3298 2862 
Q 3072 2584 2669 2484 
Q 3125 2378 3379 2068 
Q 3634 1759 3634 1313 
Q 3634 634 3220 271 
Q 2806 -91 2034 -91 
Q 1263 -91 848 271 
Q 434 634 434 1313 
Q 434 1759 690 2068 
Q 947 2378 1403 2484 
z
M 1172 3481 
Q 1172 3119 1398 2916 
Q 1625 2713 2034 2713 
Q 2441 2713 2670 2916 
Q 2900 3119 2900 3481 
Q 2900 3844 2670 4047 
Q 2441 4250 2034 4250 
Q 1625 4250 1398 4047 
Q 1172 3844 1172 3481 
z
" id="DejaVuSans-38" transform="scale(0.015625)"/>
       </defs>
       <use xlink:href="#DejaVuSans-30"/>
       <use x="63.623047" xlink:href="#DejaVuSans-2e"/>
       <use x="95.410156" xlink:href="#DejaVuSans-30"/>
       <use x="159.033203" xlink:href="#DejaVuSans-30"/>
       <use x="222.65625" xlink:href="#DejaVuSans-30"/>
       <use x="286.279297" xlink:href="#DejaVuSans-32"/>
       <use x="349.902344" xlink:href="#DejaVuSans-38"/>
      </g>
     </g>
    </g>
    <g id="xtick_4">
     <g id="line2d_4">
      <path clip-path="url(#p73c528982e)" d="M 254.88 252 
L 254.88 34.56 
" style="fill:none;stroke:#cccccc;stroke-linecap:round;stroke-width:0.8;"/>
     </g>
     <g id="text_4">
      <!-- 0.00030 -->
      <g style="fill:#262626;" transform="translate(234.203438 266.598437)scale(0.1 -0.1)">
       <defs>
        <path d="M 2597 2516 
Q 3050 2419 3304 2112 
Q 3559 1806 3559 1356 
Q 3559 666 3084 287 
Q 2609 -91 1734 -91 
Q 1441 -91 1130 -33 
Q 819 25 488 141 
L 488 750 
Q 750 597 1062 519 
Q 1375 441 1716 441 
Q 2309 441 2620 675 
Q 2931 909 2931 1356 
Q 2931 1769 2642 2001 
Q 2353 2234 1838 2234 
L 1294 2234 
L 1294 2753 
L 1863 2753 
Q 2328 2753 2575 2939 
Q 2822 3125 2822 3475 
Q 2822 3834 2567 4026 
Q 2313 4219 1838 4219 
Q 1578 4219 1281 4162 
Q 984 4106 628 3988 
L 628 4550 
Q 988 4650 1302 4700 
Q 1616 4750 1894 4750 
Q 2613 4750 3031 4423 
Q 3450 4097 3450 3541 
Q 3450 3153 3228 2886 
Q 3006 2619 2597 2516 
z
" id="DejaVuSans-33" transform="scale(0.015625)"/>
       </defs>
       <use xlink:href="#DejaVuSans-30"/>
       <use x="63.623047" xlink:href="#DejaVuSans-2e"/>
       <use x="95.410156" xlink:href="#DejaVuSans-30"/>
       <use x="159.033203" xlink:href="#DejaVuSans-30"/>
       <use x="222.65625" xlink:href="#DejaVuSans-30"/>
       <use x="286.279297" xlink:href="#DejaVuSans-33"/>
       <use x="349.902344" xlink:href="#DejaVuSans-30"/>
      </g>
     </g>
    </g>
    <g id="xtick_5">
     <g id="line2d_5">
      <path clip-path="url(#p73c528982e)" d="M 321.84 252 
L 321.84 34.56 
" style="fill:none;stroke:#cccccc;stroke-linecap:round;stroke-width:0.8;"/>
     </g>
     <g id="text_5">
      <!-- 0.00032 -->
      <g style="fill:#262626;" transform="translate(301.163438 266.598437)scale(0.1 -0.1)">
       <use xlink:href="#DejaVuSans-30"/>
       <use x="63.623047" xlink:href="#DejaVuSans-2e"/>
       <use x="95.410156" xlink:href="#DejaVuSans-30"/>
       <use x="159.033203" xlink:href="#DejaVuSans-30"/>
       <use x="222.65625" xlink:href="#DejaVuSans-30"/>
       <use x="286.279297" xlink:href="#DejaVuSans-33"/>
       <use x="349.902344" xlink:href="#DejaVuSans-32"/>
      </g>
     </g>
    </g>
    <g id="xtick_6">
     <g id="line2d_6">
      <path clip-path="url(#p73c528982e)" d="M 388.8 252 
L 388.8 34.56 
" style="fill:none;stroke:#cccccc;stroke-linecap:round;stroke-width:0.8;"/>
     </g>
     <g id="text_6">
      <!-- 0.00034 -->
      <g style="fill:#262626;" transform="translate(368.123438 266.598437)scale(0.1 -0.1)">
       <use xlink:href="#DejaVuSans-30"/>
       <use x="63.623047" xlink:href="#DejaVuSans-2e"/>
       <use x="95.410156" xlink:href="#DejaVuSans-30"/>
       <use x="159.033203" xlink:href="#DejaVuSans-30"/>
       <use x="222.65625" xlink:href="#DejaVuSans-30"/>
       <use x="286.279297" xlink:href="#DejaVuSans-33"/>
       <use x="349.902344" xlink:href="#DejaVuSans-34"/>
      </g>
     </g>
    </g>
   </g>
   <g id="matplotlib.axis_2">
    <g id="ytick_1">
     <g id="line2d_7">
      <path clip-path="url(#p73c528982e)" d="M 54 252 
L 388.8 252 
" style="fill:none;stroke:#cccccc;stroke-linecap:round;stroke-width:0.8;"/>
     </g>
     <g id="text_7">
      <!-- 0.00 -->
      <g style="fill:#262626;" transform="translate(24.734375 255.799219)scale(0.1 -0.1)">
       <use xlink:href="#DejaVuSans-30"/>
       <use x="63.623047" xlink:href="#DejaVuSans-2e"/>
       <use x="95.410156" xlink:href="#DejaVuSans-30"/>
       <use x="159.033203" xlink:href="#DejaVuSans-30"/>
      </g>
     </g>
    </g>
    <g id="ytick_2">
     <g id="line2d_8">
      <path clip-path="url(#p73c528982e)" d="M 54 208.512 
L 388.8 208.512 
" style="fill:none;stroke:#cccccc;stroke-linecap:round;stroke-width:0.8;"/>
     </g>
     <g id="text_8">
      <!-- 0.02 -->
      <g style="fill:#262626;" transform="translate(24.734375 212.311219)scale(0.1 -0.1)">
       <use xlink:href="#DejaVuSans-30"/>
       <use x="63.623047" xlink:href="#DejaVuSans-2e"/>
       <use x="95.410156" xlink:href="#DejaVuSans-30"/>
       <use x="159.033203" xlink:href="#DejaVuSans-32"/>
      </g>
     </g>
    </g>
    <g id="ytick_3">
     <g id="line2d_9">
      <path clip-path="url(#p73c528982e)" d="M 54 165.024 
L 388.8 165.024 
" style="fill:none;stroke:#cccccc;stroke-linecap:round;stroke-width:0.8;"/>
     </g>
     <g id="text_9">
      <!-- 0.04 -->
      <g style="fill:#262626;" transform="translate(24.734375 168.823219)scale(0.1 -0.1)">
       <use xlink:href="#DejaVuSans-30"/>
       <use x="63.623047" xlink:href="#DejaVuSans-2e"/>
       <use x="95.410156" xlink:href="#DejaVuSans-30"/>
       <use x="159.033203" xlink:href="#DejaVuSans-34"/>
      </g>
     </g>
    </g>
    <g id="ytick_4">
     <g id="line2d_10">
      <path clip-path="url(#p73c528982e)" d="M 54 121.536 
L 388.8 121.536 
" style="fill:none;stroke:#cccccc;stroke-linecap:round;stroke-width:0.8;"/>
     </g>
     <g id="text_10">
      <!-- 0.06 -->
      <g style="fill:#262626;" transform="translate(24.734375 125.335219)scale(0.1 -0.1)">
       <use xlink:href="#DejaVuSans-30"/>
       <use x="63.623047" xlink:href="#DejaVuSans-2e"/>
       <use x="95.410156" xlink:href="#DejaVuSans-30"/>
       <use x="159.033203" xlink:href="#DejaVuSans-36"/>
      </g>
     </g>
    </g>
    <g id="ytick_5">
     <g id="line2d_11">
      <path clip-path="url(#p73c528982e)" d="M 54 78.048 
L 388.8 78.048 
" style="fill:none;stroke:#cccccc;stroke-linecap:round;stroke-width:0.8;"/>
     </g>
     <g id="text_11">
      <!-- 0.08 -->
      <g style="fill:#262626;" transform="translate(24.734375 81.847219)scale(0.1 -0.1)">
       <use xlink:href="#DejaVuSans-30"/>
       <use x="63.623047" xlink:href="#DejaVuSans-2e"/>
       <use x="95.410156" xlink:href="#DejaVuSans-30"/>
       <use x="159.033203" xlink:href="#DejaVuSans-38"/>
      </g>
     </g>
    </g>
    <g id="ytick_6">
     <g id="line2d_12">
      <path clip-path="url(#p73c528982e)" d="M 54 34.56 
L 388.8 34.56 
" style="fill:none;stroke:#cccccc;stroke-linecap:round;stroke-width:0.8;"/>
     </g>
     <g id="text_12">
      <!-- 0.10 -->
      <g style="fill:#262626;" transform="translate(24.734375 38.359219)scale(0.1 -0.1)">
       <defs>
        <path d="M 794 531 
L 1825 531 
L 1825 4091 
L 703 3866 
L 703 4441 
L 1819 4666 
L 2450 4666 
L 2450 531 
L 3481 531 
L 3481 0 
L 794 0 
L 794 531 
z
" id="DejaVuSans-31" transform="scale(0.015625)"/>
       </defs>
       <use xlink:href="#DejaVuSans-30"/>
       <use x="63.623047" xlink:href="#DejaVuSans-2e"/>
       <use x="95.410156" xlink:href="#DejaVuSans-31"/>
       <use x="159.033203" xlink:href="#DejaVuSans-30"/>
      </g>
     </g>
    </g>
   </g>
   <g id="line2d_13">
    <path clip-path="url(#p73c528982e)" d="M 53.962321 234.320224 
L 54.025097 234.482157 
L 54.087874 234.293678 
L 54.213427 234.832567 
L 54.276203 234.778147 
L 54.464532 234.804694 
L 54.652862 234.077328 
L 54.715638 233.996361 
L 54.778415 234.401191 
L 54.841191 234.050781 
L 54.903968 234.184839 
L 54.966744 234.401191 
L 55.02952 234.158292 
L 55.092297 234.239258 
L 55.21785 234.320224 
L 55.280626 234.697181 
L 55.343403 234.563123 
L 55.406179 234.401191 
L 55.594508 235.047591 
L 55.782838 234.239258 
L 55.845614 234.535248 
L 55.971167 233.781338 
L 56.033943 233.996361 
L 56.159496 234.670634 
L 56.285049 234.346771 
L 56.410602 234.616214 
L 56.473379 234.131747 
L 56.536155 234.212714 
L 56.724484 234.697181 
L 56.787261 234.427737 
L 56.850037 234.697181 
L 57.101143 234.158292 
L 57.163919 234.346771 
L 57.226696 234.94008 
L 57.289472 234.508704 
L 57.352249 234.401191 
L 57.477802 235.263943 
L 57.603355 234.320224 
L 57.666131 234.64409 
L 57.728907 234.64409 
L 57.791684 234.427737 
L 57.85446 234.563123 
L 57.917237 234.589668 
L 58.105566 234.994499 
L 58.168342 234.913533 
L 58.293895 234.105201 
L 58.356672 234.131747 
L 58.545001 234.725054 
L 58.607778 234.320224 
L 58.670554 234.401191 
L 58.92166 234.804694 
L 58.984436 234.966624 
L 59.109989 234.105201 
L 59.298318 234.966624 
L 59.423871 234.535248 
L 59.612201 235.155103 
L 59.80053 234.697181 
L 59.863306 234.697181 
L 60.051636 233.943268 
L 60.302741 234.563123 
L 60.491071 233.915395 
L 60.616624 234.374644 
L 60.6794 234.239258 
L 60.742177 234.401191 
L 60.930506 233.834429 
L 61.244388 234.913533 
L 61.432717 234.131747 
L 61.495494 234.589668 
L 61.55827 234.293678 
L 61.683823 234.563123 
L 61.7466 234.427737 
L 61.997705 234.077328 
L 62.123258 234.725054 
L 62.311588 234.024235 
L 62.43714 234.212714 
L 62.499917 234.346771 
L 62.62547 233.754791 
L 62.876576 234.832567 
L 62.939352 234.45561 
L 63.002128 234.616214 
L 63.127681 234.535248 
L 63.190458 235.047591 
L 63.253234 234.804694 
L 63.378787 234.374644 
L 63.50434 234.859113 
L 63.692669 234.320224 
L 63.755446 234.184839 
L 63.880999 234.589668 
L 64.069328 234.077328 
L 64.132104 234.105201 
L 64.194881 234.45561 
L 64.257657 234.212714 
L 64.320434 234.131747 
L 64.508763 234.7516 
L 64.697092 234.7516 
L 64.948198 234.105201 
L 65.199304 234.697181 
L 65.324857 234.64409 
L 65.387633 234.427737 
L 65.513186 234.94008 
L 65.575962 234.832567 
L 65.638739 234.859113 
L 65.701515 234.401191 
L 65.764292 234.427737 
L 65.889845 234.64409 
L 65.952621 234.589668 
L 66.015398 234.239258 
L 66.078174 234.265805 
L 66.32928 235.209523 
L 66.454833 234.804694 
L 66.517609 234.832567 
L 66.643162 235.128557 
L 66.831491 234.64409 
L 67.019821 235.021045 
L 67.20815 234.427737 
L 67.522032 234.804694 
L 67.647585 234.7516 
L 67.773138 235.075464 
L 67.835914 234.778147 
L 67.898691 234.859113 
L 67.961467 235.128557 
L 68.024244 234.966624 
L 68.08702 234.994499 
L 68.212573 234.482157 
L 68.275349 235.021045 
L 68.338126 234.725054 
L 68.400902 234.64409 
L 68.526455 235.075464 
L 68.652008 234.401191 
L 68.714785 234.508704 
L 68.840337 234.589668 
L 68.903114 234.966624 
L 69.15422 233.996361 
L 69.216996 234.482157 
L 69.279773 234.346771 
L 69.405325 234.212714 
L 69.719208 235.263943 
L 69.781984 235.128557 
L 69.84476 235.209523 
L 69.907537 235.23607 
L 70.095866 234.832567 
L 70.221419 235.155103 
L 70.284196 235.021045 
L 70.472525 234.293678 
L 70.723631 235.021045 
L 70.849184 234.832567 
L 70.974736 234.401191 
L 71.100289 234.7516 
L 71.225842 234.374644 
L 71.351395 234.94008 
L 71.414172 234.859113 
L 71.539724 234.482157 
L 71.602501 235.102011 
L 71.665277 235.047591 
L 71.728054 234.508704 
L 71.79083 234.535248 
L 71.916383 234.427737 
L 72.104712 234.697181 
L 72.167489 234.320224 
L 72.230265 234.401191 
L 72.418595 235.371454 
L 72.544147 234.077328 
L 72.606924 234.158292 
L 72.732477 234.616214 
L 72.920806 234.320224 
L 72.983583 234.158292 
L 73.297465 235.075464 
L 73.360241 235.047591 
L 73.423018 235.021045 
L 73.54857 234.346771 
L 73.7369 234.913533 
L 73.988006 234.024235 
L 74.364664 235.075464 
L 74.678546 234.346771 
L 74.804099 234.374644 
L 74.929652 234.966624 
L 74.992429 234.535248 
L 75.055205 234.725054 
L 75.243534 234.024235 
L 75.306311 234.158292 
L 75.431864 234.616214 
L 75.49464 234.589668 
L 75.620193 234.913533 
L 75.682969 234.697181 
L 75.745746 234.320224 
L 75.808522 234.482157 
L 75.871299 234.7516 
L 75.934075 234.508704 
L 75.996852 234.535248 
L 76.122405 234.64409 
L 76.247957 234.482157 
L 76.310734 234.7516 
L 76.37351 234.589668 
L 76.436287 234.508704 
L 76.499063 234.589668 
L 76.624616 234.616214 
L 76.750169 234.105201 
L 76.875722 234.804694 
L 77.126828 234.374644 
L 77.252381 234.804694 
L 77.315157 235.263943 
L 77.503486 234.563123 
L 77.566263 234.7516 
L 77.629039 234.508704 
L 77.880145 235.182976 
L 77.942921 235.102011 
L 78.131251 234.64409 
L 78.194027 234.994499 
L 78.256804 234.7516 
L 78.31958 234.859113 
L 78.382356 234.535248 
L 78.507909 235.182976 
L 78.570686 235.047591 
L 78.696239 234.239258 
L 78.759015 234.320224 
L 79.010121 234.859113 
L 79.135674 234.158292 
L 79.449556 235.23607 
L 79.512332 235.021045 
L 79.575109 234.508704 
L 79.637885 234.563123 
L 79.763438 234.077328 
L 79.826215 234.346771 
L 80.014544 234.589668 
L 80.328426 234.913533 
L 80.453979 234.320224 
L 80.516755 234.401191 
L 80.579532 234.346771 
L 80.642308 234.346771 
L 80.830638 234.94008 
L 80.893414 234.832567 
L 81.018967 234.320224 
L 81.081743 234.401191 
L 81.14452 234.913533 
L 81.207296 234.778147 
L 81.395626 233.969815 
L 81.583955 234.804694 
L 81.772284 235.075464 
L 81.835061 234.966624 
L 81.960614 234.563123 
L 82.02339 234.804694 
L 82.086166 234.778147 
L 82.148943 234.346771 
L 82.211719 234.427737 
L 82.337272 234.131747 
L 82.525602 234.670634 
L 82.651154 234.589668 
L 82.713931 234.778147 
L 82.839484 234.265805 
L 82.90226 234.725054 
L 82.965037 234.670634 
L 83.09059 234.45561 
L 83.153366 234.508704 
L 83.278919 234.64409 
L 83.341695 235.047591 
L 83.404472 234.966624 
L 83.530025 234.563123 
L 83.592801 234.94008 
L 83.655577 234.832567 
L 83.718354 234.697181 
L 83.843907 234.994499 
L 83.96946 234.508704 
L 84.095013 235.047591 
L 84.283342 234.346771 
L 84.408895 234.94008 
L 84.471671 234.832567 
L 84.534448 234.427737 
L 84.660001 235.182976 
L 84.722777 235.075464 
L 84.84833 234.589668 
L 84.911106 234.616214 
L 85.099436 234.131747 
L 85.287765 234.508704 
L 85.350541 235.047591 
L 85.413318 234.778147 
L 85.601647 234.859113 
L 85.915529 233.996361 
L 86.103859 234.994499 
L 86.229412 234.401191 
L 86.292188 234.535248 
L 86.480517 234.913533 
L 86.543294 234.589668 
L 86.60607 234.832567 
L 86.731623 234.293678 
L 86.7944 234.508704 
L 86.857176 234.94008 
L 86.919952 234.804694 
L 86.982729 234.7516 
L 87.045505 234.401191 
L 87.108282 234.535248 
L 87.171058 234.725054 
L 87.233835 234.670634 
L 87.359388 233.915395 
L 87.610493 234.535248 
L 87.987152 233.673825 
L 88.112705 235.829377 
L 88.238258 233.107063 
L 88.426587 236.315172 
L 88.614916 233.754791 
L 88.803246 235.80283 
L 88.866022 235.398001 
L 88.928799 234.184839 
L 88.991575 234.346771 
L 89.117128 234.563123 
L 89.305457 233.457473 
L 89.43101 233.538439 
L 89.493786 234.427737 
L 89.556563 234.158292 
L 89.619339 234.158292 
L 89.682116 233.943268 
L 89.870445 235.586479 
L 89.933222 235.290489 
L 89.995998 234.670634 
L 90.058774 234.804694 
L 90.121551 234.616214 
L 90.247104 235.23607 
L 90.435433 234.535248 
L 90.49821 234.212714 
L 90.560986 234.320224 
L 90.623762 234.401191 
L 90.686539 234.88566 
L 90.749315 234.616214 
L 90.812092 234.482157 
L 90.874868 234.589668 
L 90.937645 234.589668 
L 91.063198 234.994499 
L 91.18875 233.834429 
L 91.251527 233.862302 
L 91.314303 234.45561 
L 91.37708 234.427737 
L 91.502633 233.754791 
L 91.628185 234.265805 
L 91.690962 234.105201 
L 91.753738 234.427737 
L 91.816515 234.346771 
L 91.942068 234.589668 
L 92.067621 235.425874 
L 92.25595 234.778147 
L 92.318726 234.994499 
L 92.444279 234.346771 
L 92.507056 234.64409 
L 92.569832 234.45561 
L 92.758161 234.050781 
L 92.820938 234.346771 
L 92.883714 234.077328 
L 93.009267 235.182976 
L 93.072044 235.075464 
L 93.197597 234.050781 
L 93.260373 234.077328 
L 93.385926 234.7516 
L 93.448702 234.589668 
L 93.511479 234.265805 
L 93.574255 234.346771 
L 93.637032 234.374644 
L 93.699808 233.943268 
L 93.762584 234.105201 
L 93.950914 234.88566 
L 94.139243 234.913533 
L 94.327572 234.697181 
L 94.390349 234.778147 
L 94.515902 234.184839 
L 94.578678 234.212714 
L 94.829784 234.212714 
L 94.955337 234.535248 
L 95.08089 234.184839 
L 95.143666 234.293678 
L 95.206443 234.158292 
L 95.394772 234.64409 
L 95.457548 234.508704 
L 95.520325 234.482157 
L 95.645878 235.155103 
L 95.834207 234.535248 
L 95.95976 234.913533 
L 96.022536 234.88566 
L 96.273642 234.077328 
L 96.336419 234.265805 
L 96.399195 234.88566 
L 96.461971 234.859113 
L 96.650301 233.943268 
L 96.713077 234.320224 
L 96.775854 234.508704 
L 96.83863 234.212714 
L 96.964183 234.64409 
L 97.026959 234.616214 
L 97.152512 234.832567 
L 97.215289 234.7516 
L 97.403618 234.45561 
L 97.529171 235.047591 
L 97.654724 234.508704 
L 97.7175 234.589668 
L 97.780277 234.346771 
L 97.843053 234.427737 
L 98.031382 234.832567 
L 98.219712 234.374644 
L 98.345265 235.182976 
L 98.408041 234.804694 
L 98.7847 234.45561 
L 98.847476 234.913533 
L 98.910253 234.88566 
L 99.161358 234.024235 
L 99.224135 234.077328 
L 99.349688 234.804694 
L 99.412464 234.508704 
L 99.475241 234.184839 
L 99.538017 234.427737 
L 99.600793 234.45561 
L 99.726346 233.888849 
L 99.851899 234.778147 
L 100.040229 233.700371 
L 100.165781 234.697181 
L 100.228558 234.64409 
L 100.291334 234.7516 
L 100.354111 234.670634 
L 100.416887 234.616214 
L 100.605217 234.105201 
L 100.667993 234.131747 
L 100.793546 234.64409 
L 100.919099 234.105201 
L 101.044652 233.700371 
L 101.232981 234.346771 
L 101.358534 234.158292 
L 101.546863 234.482157 
L 101.60964 234.374644 
L 101.735192 234.697181 
L 102.425733 233.645952 
L 102.48851 233.862302 
L 102.676839 234.670634 
L 102.802392 234.212714 
L 102.865168 233.996361 
L 102.990721 234.401191 
L 103.053498 234.158292 
L 103.116274 234.239258 
L 103.241827 234.105201 
L 103.36738 234.293678 
L 103.492933 233.834429 
L 103.555709 233.862302 
L 103.681262 234.804694 
L 103.806815 234.184839 
L 103.869591 234.265805 
L 103.932368 234.589668 
L 104.120697 234.131747 
L 104.183474 234.050781 
L 104.24625 233.781338 
L 104.309027 233.943268 
L 104.434579 233.807882 
L 104.622909 234.670634 
L 104.685685 234.535248 
L 104.811238 234.212714 
L 104.936791 234.184839 
L 105.062344 234.077328 
L 105.12512 234.401191 
L 105.187897 234.320224 
L 105.31345 234.346771 
L 105.376226 234.535248 
L 105.501779 234.105201 
L 105.564555 234.212714 
L 105.690108 234.804694 
L 105.878438 233.969815 
L 106.00399 233.700371 
L 106.066767 233.754791 
L 106.129543 234.212714 
L 106.19232 234.158292 
L 106.255096 233.915395 
L 106.317873 234.050781 
L 106.443426 234.320224 
L 106.568978 233.700371 
L 106.757308 234.482157 
L 106.882861 234.7516 
L 107.133966 233.834429 
L 107.259519 233.888849 
L 107.447849 234.616214 
L 107.573401 234.64409 
L 107.636178 234.482157 
L 107.761731 235.021045 
L 107.824507 234.804694 
L 107.95006 234.482157 
L 108.075613 234.778147 
L 108.138389 234.589668 
L 108.263942 234.589668 
L 108.326719 234.45561 
L 108.452272 234.88566 
L 108.515048 234.320224 
L 108.577825 234.45561 
L 108.640601 234.616214 
L 108.703377 234.535248 
L 108.891707 233.943268 
L 109.142813 234.589668 
L 109.205589 234.589668 
L 109.268365 234.725054 
L 109.331142 234.508704 
L 109.456695 234.778147 
L 109.519471 234.7516 
L 109.7078 234.239258 
L 109.770577 234.320224 
L 109.833353 234.265805 
L 110.084459 234.94008 
L 110.147236 234.88566 
L 110.210012 234.616214 
L 110.272788 234.725054 
L 110.335565 234.7516 
L 110.398341 234.616214 
L 110.586671 235.021045 
L 110.649447 234.94008 
L 110.775 234.535248 
L 110.837776 234.563123 
L 110.963329 234.184839 
L 111.026106 234.320224 
L 111.088882 234.778147 
L 111.151659 234.670634 
L 111.214435 234.804694 
L 111.339988 234.401191 
L 111.402764 234.535248 
L 111.465541 234.535248 
L 111.528317 234.346771 
L 111.65387 234.832567 
L 111.842199 234.320224 
L 112.030529 234.832567 
L 112.156082 234.212714 
L 112.281635 234.64409 
L 112.344411 234.45561 
L 112.595517 235.209523 
L 112.658293 235.182976 
L 112.783846 234.859113 
L 112.846623 234.94008 
L 112.972175 234.401191 
L 113.034952 234.427737 
L 113.097728 234.535248 
L 113.223281 235.155103 
L 113.286058 234.778147 
L 113.348834 234.832567 
L 113.474387 235.667445 
L 113.59994 234.7516 
L 113.662716 234.966624 
L 113.851046 234.913533 
L 113.913822 235.155103 
L 113.976598 235.102011 
L 114.102151 235.047591 
L 114.290481 235.695318 
L 114.353257 235.695318 
L 114.416034 235.883797 
L 114.47881 235.721865 
L 114.604363 235.209523 
L 114.855469 235.586479 
L 114.918245 235.344909 
L 114.981022 235.559933 
L 115.106574 234.94008 
L 115.169351 234.966624 
L 115.420457 235.80283 
L 115.483233 235.667445 
L 115.608786 235.209523 
L 115.734339 235.021045 
L 115.797115 234.64409 
L 115.859892 234.7516 
L 116.110997 235.667445 
L 116.173774 235.829377 
L 116.362103 235.505513 
L 116.42488 235.910343 
L 116.487656 235.748411 
L 116.738762 235.209523 
L 116.864315 235.855924 
L 116.927091 235.721865 
L 117.366526 234.804694 
L 117.617632 235.910343 
L 117.805961 235.478967 
L 117.931514 236.072275 
L 118.18262 235.290489 
L 118.370949 235.855924 
L 118.559279 235.640899 
L 118.622055 236.045728 
L 118.684832 235.748411 
L 118.747608 235.883797 
L 118.810384 235.640899 
L 118.873161 235.748411 
L 118.935937 236.098821 
L 118.998714 235.829377 
L 119.124267 235.721865 
L 119.249819 236.153241 
L 119.438149 235.317035 
L 119.626478 235.936889 
L 119.689255 236.045728 
L 119.752031 235.695318 
L 119.814807 235.883797 
L 119.877584 235.936889 
L 119.94036 236.315172 
L 120.065913 235.640899 
L 120.12869 235.721865 
L 120.191466 235.991308 
L 120.254243 235.774957 
L 120.317019 235.640899 
L 120.379795 235.883797 
L 120.442572 235.774957 
L 120.630901 235.829377 
L 120.756454 235.344909 
L 120.819231 235.398001 
L 120.882007 235.263943 
L 121.070336 235.829377 
L 121.133113 235.829377 
L 121.195889 235.695318 
L 121.258666 235.936889 
L 121.384218 235.586479 
L 121.509771 236.045728 
L 121.572548 235.936889 
L 121.698101 235.721865 
L 121.823654 235.936889 
L 121.88643 235.883797 
L 122.074759 235.263943 
L 122.137536 234.994499 
L 122.263089 235.505513 
L 122.325865 235.398001 
L 122.576971 234.804694 
L 122.7653 235.559933 
L 122.890853 235.991308 
L 122.95363 235.586479 
L 123.016406 235.640899 
L 123.141959 235.748411 
L 123.267512 235.614352 
L 123.581394 236.315172 
L 123.769723 235.586479 
L 123.8325 235.559933 
L 123.958053 236.017855 
L 124.020829 235.883797 
L 124.083605 235.991308 
L 124.209158 236.017855 
L 124.271935 236.368265 
L 124.334711 236.179787 
L 124.585817 235.371454 
L 124.836923 236.153241 
L 125.025252 235.586479 
L 125.088029 235.533387 
L 125.276358 236.718675 
L 125.339134 236.826187 
L 125.464687 236.098821 
L 125.527464 236.287299 
L 125.653016 235.991308 
L 125.778569 236.260753 
L 125.841346 236.611162 
L 125.904122 236.368265 
L 126.092452 235.774957 
L 126.280781 236.475777 
L 126.406334 235.855924 
L 126.594663 236.098821 
L 126.720216 235.855924 
L 126.845769 235.910343 
L 126.908545 235.452421 
L 126.971322 235.695318 
L 127.096875 235.991308 
L 127.222427 236.072275 
L 127.285204 236.315172 
L 127.34798 236.206333 
L 127.410757 236.098821 
L 127.473533 235.155103 
L 127.53631 235.344909 
L 127.661863 235.667445 
L 127.724639 235.559933 
L 127.787415 235.102011 
L 127.850192 235.23607 
L 127.912968 235.263943 
L 128.038521 234.88566 
L 128.101298 234.913533 
L 128.164074 234.88566 
L 128.352403 233.996361 
L 128.41518 234.131747 
L 128.477956 234.105201 
L 128.540733 234.212714 
L 128.603509 234.158292 
L 128.729062 233.404382 
L 128.854615 233.564986 
L 128.980168 234.105201 
L 129.105721 233.619405 
L 129.356826 234.535248 
L 129.419603 234.563123 
L 129.482379 234.7516 
L 129.545156 234.670634 
L 129.607932 234.320224 
L 129.670709 234.670634 
L 129.733485 234.346771 
L 129.796262 234.374644 
L 129.859038 234.401191 
L 129.921814 234.293678 
L 129.984591 234.401191 
L 130.047367 234.346771 
L 130.17292 234.778147 
L 130.235697 234.64409 
L 130.36125 233.781338 
L 130.424026 234.239258 
L 130.486802 233.969815 
L 130.549579 233.726916 
L 130.612355 234.024235 
L 130.675132 233.888849 
L 130.926238 234.293678 
L 131.114567 235.398001 
L 131.177343 235.263943 
L 131.302896 234.670634 
L 131.428449 234.158292 
L 131.554002 234.616214 
L 131.679555 234.105201 
L 131.930661 234.508704 
L 132.056213 234.293678 
L 132.11899 234.346771 
L 132.244543 234.616214 
L 132.307319 234.482157 
L 132.495649 233.915395 
L 132.621201 234.239258 
L 132.683978 234.077328 
L 132.746754 234.131747 
L 132.872307 234.374644 
L 133.060637 233.726916 
L 133.186189 234.616214 
L 133.248966 234.105201 
L 133.311742 234.401191 
L 133.374519 234.346771 
L 133.437295 234.563123 
L 133.500072 234.374644 
L 133.562848 234.427737 
L 133.688401 234.508704 
L 133.751177 234.64409 
L 133.87673 234.265805 
L 134.002283 234.482157 
L 134.127836 234.184839 
L 134.190612 233.915395 
L 134.378942 234.88566 
L 134.441718 234.616214 
L 134.504495 234.697181 
L 134.630048 234.508704 
L 134.692824 234.212714 
L 134.7556 234.374644 
L 134.818377 234.427737 
L 134.881153 234.320224 
L 134.94393 234.563123 
L 135.006706 234.401191 
L 135.132259 234.616214 
L 135.195035 234.482157 
L 135.320588 235.075464 
L 135.383365 234.7516 
L 135.446141 234.804694 
L 135.571694 234.589668 
L 135.634471 234.293678 
L 135.697247 234.374644 
L 135.760023 234.346771 
L 135.8228 234.508704 
L 136.136682 233.376506 
L 136.262235 233.134936 
L 136.325011 233.807882 
L 136.387788 233.700371 
L 136.450564 233.619405 
L 136.576117 233.107063 
L 136.638894 233.457473 
L 136.70167 233.268996 
L 137.266658 231.113443 
L 137.329434 231.166536 
L 137.392211 231.032476 
L 137.58054 231.733298 
L 137.643317 231.678878 
L 137.706093 231.624458 
L 137.76887 231.113443 
L 137.894422 231.652331 
L 137.957199 231.516945 
L 138.019975 230.95151 
L 138.082752 231.301922 
L 138.208305 232.002741 
L 138.396634 231.032476 
L 138.64774 231.571365 
L 138.773293 231.274047 
L 138.836069 231.409433 
L 138.898846 232.055834 
L 138.961622 231.814262 
L 139.149951 231.059023 
L 139.212728 231.032476 
L 139.338281 230.654194 
L 139.401057 230.682067 
L 139.463833 230.843999 
L 139.589386 230.196271 
L 139.714939 230.412623 
L 139.840492 229.468905 
L 139.903269 229.792768 
L 140.028821 229.926828 
L 140.279927 229.414486 
L 140.342704 229.523325 
L 140.468257 229.226006 
L 140.656586 228.55306 
L 140.782139 228.98311 
L 140.907692 228.741539 
L 140.970468 229.037529 
L 141.033244 228.768086 
L 141.096021 228.822506 
L 141.221574 229.037529 
L 141.28435 229.280426 
L 141.347127 229.172915 
L 141.47268 229.253882 
L 141.535456 229.226006 
L 141.598232 229.414486 
L 141.723785 229.199462 
L 141.912115 229.576418 
L 142.288773 229.523325 
L 142.477103 229.630838 
L 142.539879 229.873735 
L 142.665432 229.468905 
L 142.853761 229.845861 
L 142.979314 229.549871 
L 143.167643 230.007794 
L 143.23042 230.062214 
L 143.293196 229.953374 
L 143.481526 231.059023 
L 143.669855 230.573227 
L 143.858184 231.220955 
L 143.920961 231.113443 
L 144.172067 232.191218 
L 144.234843 232.083707 
L 144.297619 232.136798 
L 144.360396 232.217765 
L 144.423172 232.110254 
L 144.485949 232.217765 
L 144.548725 232.244311 
L 144.862607 231.544818 
L 144.925384 231.516945 
L 145.113713 232.649141 
L 145.17649 232.272184 
L 145.239266 232.325278 
L 145.302042 232.460663 
L 145.490372 233.107063 
L 145.741478 232.48721 
L 145.929807 233.026097 
L 146.05536 232.945131 
L 146.306466 233.564986 
L 146.557571 232.756653 
L 146.745901 233.323415 
L 146.871454 232.48721 
L 146.93423 232.864164 
L 146.997006 232.649141 
L 147.122559 232.406244 
L 147.310889 232.892039 
L 147.436441 232.298731 
L 147.624771 233.161483 
L 147.687547 233.080516 
L 147.8131 233.564986 
L 148.189759 232.110254 
L 148.252535 232.70356 
L 148.315312 232.649141 
L 148.378088 232.568174 
L 148.566417 232.244311 
L 148.629194 232.353151 
L 148.754747 232.110254 
L 148.817523 232.164673 
L 148.8803 232.110254 
L 149.068629 232.353151 
L 149.319735 231.893902 
L 149.382511 231.867355 
L 149.57084 231.220955 
L 149.696393 231.840808 
L 149.884723 230.763033 
L 150.010276 230.843999 
L 150.198605 231.004603 
L 150.261381 230.95151 
L 150.386934 230.465714 
L 150.512487 230.73516 
L 150.63804 230.412623 
L 150.700816 230.6011 
L 150.763593 230.034339 
L 150.826369 230.115305 
L 151.014699 229.738349 
L 151.077475 230.007794 
L 151.140251 229.900281 
L 151.51691 229.442359 
L 151.579687 229.576418 
L 151.705239 229.333519 
L 151.768016 229.549871 
L 151.830792 229.495452 
L 151.956345 228.903472 
L 152.019122 229.037529 
L 152.081898 229.010983 
L 152.144675 229.118496 
L 152.270227 228.903472 
L 152.458557 229.172915 
L 152.58411 228.956563 
L 152.709663 228.202651 
L 152.772439 228.606153 
L 152.835215 228.444221 
L 152.960768 229.010983 
L 153.023545 228.768086 
L 153.149098 228.067265 
L 153.211874 228.33671 
L 153.27465 228.310163 
L 153.400203 228.98311 
L 153.46298 228.794631 
L 153.651309 228.012845 
L 153.965191 229.602963 
L 154.090744 228.956563 
L 154.216297 229.495452 
L 154.34185 228.768086 
L 154.655732 230.007794 
L 154.718509 229.926828 
L 154.906838 229.172915 
L 154.969614 229.468905 
L 155.157944 228.525187 
L 155.409049 230.115305 
L 155.471826 230.007794 
L 155.534602 230.169724 
L 155.660155 229.711802 
L 155.848485 230.303784 
L 155.911261 230.843999 
L 155.974037 230.546681 
L 156.09959 230.331657 
L 156.28792 231.08557 
L 156.413473 230.627647 
L 156.476249 230.627647 
L 156.664578 230.89709 
L 156.790131 230.6011 
L 156.852908 230.654194 
L 157.041237 231.08557 
L 157.104013 231.004603 
L 157.16679 231.113443 
L 157.229566 230.978057 
L 157.355119 231.409433 
L 157.480672 231.194409 
L 157.794554 232.029288 
L 157.920107 231.382886 
L 157.982884 231.624458 
L 158.04566 231.948321 
L 158.108436 231.733298 
L 158.296766 231.301922 
L 158.485095 231.786389 
L 158.736201 231.544818 
L 158.798977 231.08557 
L 158.861754 231.355013 
L 158.92453 231.059023 
L 158.987307 231.247502 
L 159.112859 231.652331 
L 159.175636 231.409433 
L 159.238412 231.490399 
L 159.489518 232.110254 
L 159.552295 231.516945 
L 159.615071 231.759842 
L 159.677847 231.921775 
L 159.866177 231.435979 
L 159.928953 232.029288 
L 159.99173 231.759842 
L 160.054506 231.274047 
L 160.242835 232.353151 
L 160.305612 232.325278 
L 160.493941 231.220955 
L 160.556718 231.220955 
L 160.745047 230.923637 
L 160.933376 230.654194 
L 160.996153 230.870546 
L 161.058929 230.816126 
L 161.121706 230.816126 
L 161.184482 230.95151 
L 161.247258 230.89709 
L 161.372811 230.43917 
L 161.498364 231.247502 
L 161.561141 231.220955 
L 161.623917 231.194409 
L 161.686694 231.544818 
L 161.875023 230.49359 
L 161.937799 230.465714 
L 162.000576 230.627647 
L 162.251682 229.981247 
L 162.314458 230.034339 
L 162.377234 230.412623 
L 162.440011 230.169724 
L 162.565564 230.277237 
L 162.753893 230.007794 
L 162.879446 230.224144 
L 162.942222 230.115305 
L 163.004999 230.034339 
L 163.067775 230.169724 
L 163.130552 230.573227 
L 163.318881 229.738349 
L 163.444434 229.657382 
L 163.50721 230.007794 
L 163.632763 229.495452 
L 163.69554 229.819315 
L 163.821093 229.361392 
L 164.009422 230.034339 
L 164.072198 229.819315 
L 164.260528 229.468905 
L 164.386081 228.875597 
L 164.448857 229.064076 
L 164.511633 228.903472 
L 164.637186 229.306973 
L 164.825516 228.579607 
L 164.888292 228.768086 
L 165.013845 229.253882 
L 165.076621 229.010983 
L 165.202174 229.442359 
L 165.264951 229.226006 
L 165.327727 229.361392 
L 165.390504 229.630838 
L 165.578833 228.713666 
L 165.704386 229.414486 
L 165.767162 229.333519 
L 165.892715 229.226006 
L 166.018268 230.088758 
L 166.269374 229.361392 
L 166.33215 229.387939 
L 166.394927 229.845861 
L 166.457703 229.711802 
L 166.52048 229.657382 
L 166.583256 229.953374 
L 166.646032 229.900281 
L 166.708809 229.926828 
L 166.834362 230.169724 
L 166.897138 229.845861 
L 166.959915 230.034339 
L 167.022691 230.38475 
L 167.085467 230.358204 
L 167.148244 230.062214 
L 167.21102 230.250691 
L 167.39935 230.062214 
L 167.524903 230.358204 
L 167.650455 230.224144 
L 167.776008 229.873735 
L 167.901561 230.303784 
L 167.964338 229.873735 
L 168.027114 230.007794 
L 168.27822 230.331657 
L 168.403773 230.923637 
L 168.466549 230.870546 
L 168.529326 230.89709 
L 168.592102 230.78958 
L 168.654879 230.38475 
L 168.717655 230.682067 
L 168.780431 230.95151 
L 169.031537 230.115305 
L 169.15709 230.78958 
L 169.219866 230.682067 
L 169.345419 230.870546 
L 169.408196 230.546681 
L 169.470972 230.6011 
L 169.659302 231.435979 
L 169.784854 230.816126 
L 169.973184 231.382886 
L 170.161513 230.816126 
L 170.287066 231.409433 
L 170.349842 231.166536 
L 170.412619 231.247502 
L 170.475395 231.328466 
L 170.538172 231.274047 
L 170.600948 230.95151 
L 170.663725 231.08557 
L 170.852054 231.571365 
L 171.040383 230.978057 
L 171.10316 231.274047 
L 171.165936 231.247502 
L 171.228713 231.301922 
L 171.354265 231.705423 
L 171.542595 231.139989 
L 171.668148 230.89709 
L 171.730924 231.194409 
L 171.793701 230.89709 
L 171.856477 231.113443 
L 171.98203 231.516945 
L 172.170359 230.89709 
L 172.295912 231.166536 
L 172.547018 230.38475 
L 172.672571 230.73516 
L 172.798124 230.277237 
L 172.8609 230.38475 
L 172.986453 230.95151 
L 173.049229 230.573227 
L 173.112006 230.763033 
L 173.237559 230.49359 
L 173.300335 230.331657 
L 173.363112 230.43917 
L 173.425888 230.49359 
L 173.488664 230.331657 
L 173.676994 230.816126 
L 173.865323 230.115305 
L 173.9281 230.143178 
L 174.053652 230.708613 
L 174.116429 230.6011 
L 174.241982 230.546681 
L 174.367535 230.78958 
L 174.430311 230.303784 
L 174.493088 230.331657 
L 174.555864 230.49359 
L 174.744193 229.657382 
L 174.80697 229.683929 
L 174.995299 230.143178 
L 175.058075 229.792768 
L 175.183628 230.196271 
L 175.246405 230.169724 
L 175.309181 230.250691 
L 175.497511 229.442359 
L 175.623063 230.007794 
L 175.68584 229.711802 
L 175.748616 229.981247 
L 175.936946 229.361392 
L 175.999722 229.172915 
L 176.125275 229.602963 
L 176.188051 229.602963 
L 176.250828 229.414486 
L 176.376381 229.792768 
L 176.439157 229.361392 
L 176.501934 229.602963 
L 176.627487 230.007794 
L 176.753039 229.468905 
L 176.815816 229.495452 
L 177.004145 229.711802 
L 177.066922 229.414486 
L 177.129698 229.576418 
L 177.255251 230.062214 
L 177.506357 229.442359 
L 177.694686 229.926828 
L 177.757462 230.007794 
L 177.820239 230.331657 
L 177.883015 230.250691 
L 177.945792 230.303784 
L 178.32245 229.576418 
L 178.51078 230.034339 
L 178.699109 229.981247 
L 178.824662 229.549871 
L 178.887438 229.602963 
L 178.950215 229.602963 
L 179.138544 230.115305 
L 179.201321 230.062214 
L 179.38965 230.708613 
L 179.515203 230.303784 
L 179.577979 230.331657 
L 179.766309 230.843999 
L 179.829085 230.358204 
L 179.891861 230.78958 
L 179.954638 230.6011 
L 180.017414 230.38475 
L 180.080191 230.49359 
L 180.142967 230.520134 
L 180.205744 230.196271 
L 180.331297 230.763033 
L 180.456849 230.277237 
L 180.582402 230.870546 
L 180.645179 230.843999 
L 180.833508 230.843999 
L 180.896284 231.08557 
L 180.959061 230.682067 
L 181.021837 230.978057 
L 181.210167 230.358204 
L 181.33572 231.301922 
L 181.398496 231.166536 
L 181.461272 230.78958 
L 181.524049 231.004603 
L 181.586825 231.004603 
L 181.649602 230.73516 
L 181.712378 230.923637 
L 181.775155 231.247502 
L 181.837931 230.978057 
L 181.900708 231.166536 
L 182.151813 230.654194 
L 182.21459 230.763033 
L 182.277366 230.682067 
L 182.402919 230.6011 
L 182.465696 230.224144 
L 182.528472 230.6011 
L 182.591248 230.520134 
L 182.905131 231.166536 
L 182.967907 230.708613 
L 183.09346 231.301922 
L 183.281789 230.978057 
L 183.470119 230.465714 
L 183.532895 230.95151 
L 183.595671 230.627647 
L 183.658448 230.816126 
L 183.721224 230.763033 
L 183.784001 230.708613 
L 183.97233 230.816126 
L 184.035107 230.143178 
L 184.097883 230.627647 
L 184.223436 230.38475 
L 184.411765 230.763033 
L 184.474542 230.73516 
L 184.537318 230.303784 
L 184.600095 230.6011 
L 184.725647 230.95151 
L 184.8512 230.520134 
L 184.913977 230.763033 
L 185.102306 230.73516 
L 185.227859 230.331657 
L 185.290635 230.546681 
L 185.353412 230.062214 
L 185.416188 230.115305 
L 185.541741 230.303784 
L 185.604518 229.873735 
L 185.667294 230.143178 
L 185.855623 230.763033 
L 186.106729 229.764895 
L 186.232282 230.358204 
L 186.420611 230.062214 
L 186.483388 230.088758 
L 186.546164 230.277237 
L 186.608941 229.926828 
L 186.79727 230.654194 
L 186.922823 229.873735 
L 186.985599 229.981247 
L 187.048376 230.49359 
L 187.111152 230.277237 
L 187.173929 229.900281 
L 187.236705 230.169724 
L 187.362258 229.764895 
L 187.613364 230.49359 
L 187.67614 230.6011 
L 187.738917 230.465714 
L 187.801693 229.873735 
L 187.864469 230.143178 
L 187.990022 230.196271 
L 188.178352 230.088758 
L 188.366681 229.738349 
L 188.55501 230.73516 
L 188.74334 229.900281 
L 188.868892 230.627647 
L 188.931669 230.627647 
L 189.057222 229.953374 
L 189.119998 230.43917 
L 189.182775 230.224144 
L 189.308328 229.819315 
L 189.371104 229.442359 
L 189.43388 229.549871 
L 189.684986 230.6011 
L 189.873316 229.711802 
L 190.249974 230.763033 
L 190.312751 230.573227 
L 190.563856 229.926828 
L 190.626633 229.981247 
L 190.689409 230.115305 
L 190.752186 230.062214 
L 190.877739 229.981247 
L 191.003291 230.034339 
L 191.066068 230.923637 
L 191.128844 230.78958 
L 191.317174 230.224144 
L 191.37995 230.303784 
L 191.505503 230.763033 
L 191.568279 230.763033 
L 191.631056 231.059023 
L 191.756609 229.873735 
L 191.819385 229.900281 
L 192.007715 229.845861 
L 192.196044 230.465714 
L 192.25882 230.115305 
L 192.321597 230.224144 
L 192.384373 230.358204 
L 192.44715 230.169724 
L 192.572703 230.78958 
L 192.635479 230.43917 
L 192.761032 231.382886 
L 192.949361 230.38475 
L 193.074914 231.08557 
L 193.13769 230.978057 
L 193.32602 230.6011 
L 193.451573 230.169724 
L 193.514349 230.358204 
L 193.577126 230.331657 
L 193.639902 230.358204 
L 193.702678 230.573227 
L 193.765455 230.520134 
L 194.079337 230.088758 
L 194.267666 230.78958 
L 194.330443 230.89709 
L 194.393219 230.763033 
L 194.518772 231.139989 
L 194.644325 230.303784 
L 194.707101 230.627647 
L 194.769878 230.546681 
L 194.832654 230.654194 
L 194.895431 230.43917 
L 194.958207 230.654194 
L 195.020984 230.6011 
L 195.146537 230.250691 
L 195.209313 230.654194 
L 195.272089 230.6011 
L 195.460419 230.088758 
L 195.585972 230.6011 
L 195.648748 230.412623 
L 195.774301 230.763033 
L 195.837077 230.627647 
L 195.96263 229.764895 
L 196.025407 230.224144 
L 196.088183 230.034339 
L 196.213736 230.143178 
L 196.339289 229.792768 
L 196.402065 229.953374 
L 196.464842 230.224144 
L 196.527618 230.034339 
L 196.778724 230.6011 
L 196.904277 229.873735 
L 197.155383 230.49359 
L 197.280936 230.38475 
L 197.343712 230.49359 
L 197.406488 230.412623 
L 197.720371 229.549871 
L 197.845924 230.007794 
L 197.9087 230.062214 
L 198.034253 229.657382 
L 198.097029 229.845861 
L 198.285359 229.981247 
L 198.410912 230.088758 
L 198.599241 229.792768 
L 198.662017 229.873735 
L 198.724794 229.792768 
L 198.850347 229.468905 
L 198.913123 229.442359 
L 198.975899 229.576418 
L 199.038676 229.414486 
L 199.164229 230.088758 
L 199.415335 229.226006 
L 199.478111 229.361392 
L 199.66644 229.981247 
L 199.729217 229.873735 
L 199.85477 230.573227 
L 199.917546 230.520134 
L 199.980323 230.546681 
L 200.105875 230.115305 
L 200.168652 230.169724 
L 200.356981 229.953374 
L 200.545311 229.226006 
L 200.670863 229.926828 
L 200.73364 229.711802 
L 200.796416 229.873735 
L 200.859193 230.034339 
L 200.921969 229.764895 
L 200.984746 229.819315 
L 201.047522 229.981247 
L 201.173075 229.683929 
L 201.235851 229.926828 
L 201.361404 229.602963 
L 201.424181 229.657382 
L 201.738063 230.627647 
L 201.863616 230.412623 
L 201.989169 230.034339 
L 202.114722 230.682067 
L 202.240274 230.277237 
L 202.303051 230.358204 
L 202.428604 229.845861 
L 202.616933 230.303784 
L 202.679709 229.953374 
L 202.742486 230.224144 
L 202.868039 229.576418 
L 202.930815 229.900281 
L 202.993592 229.953374 
L 203.056368 229.738349 
L 203.119145 230.250691 
L 203.244697 229.172915 
L 203.55858 230.38475 
L 203.621356 230.303784 
L 203.872462 230.520134 
L 203.935238 230.358204 
L 203.998015 230.412623 
L 204.123568 230.627647 
L 204.249121 230.250691 
L 204.43745 230.654194 
L 204.751332 229.630838 
L 204.814108 230.169724 
L 204.876885 230.007794 
L 204.939661 230.062214 
L 205.002438 229.900281 
L 205.253544 230.520134 
L 205.441873 230.224144 
L 205.504649 230.277237 
L 205.692979 229.900281 
L 205.818532 230.412623 
L 206.069637 230.196271 
L 206.19519 230.49359 
L 206.257967 230.43917 
L 206.571849 229.926828 
L 206.634625 230.224144 
L 206.697402 230.196271 
L 206.822955 229.738349 
L 207.011284 230.331657 
L 207.07406 230.412623 
L 207.136837 230.682067 
L 207.199613 230.465714 
L 207.26239 230.520134 
L 207.450719 229.926828 
L 207.513495 230.062214 
L 207.701825 230.763033 
L 207.764601 230.627647 
L 207.827378 230.38475 
L 207.890154 230.682067 
L 207.952931 230.49359 
L 208.015707 230.412623 
L 208.078483 230.115305 
L 208.266813 230.465714 
L 208.455142 229.657382 
L 208.580695 229.953374 
L 208.706248 230.573227 
L 208.769024 230.520134 
L 208.831801 230.763033 
L 208.894577 230.682067 
L 208.957354 230.546681 
L 209.02013 230.682067 
L 209.145683 231.166536 
L 209.522342 230.331657 
L 209.585118 230.43917 
L 209.647894 230.331657 
L 209.773447 229.657382 
L 209.836224 229.711802 
L 209.961777 230.143178 
L 210.024553 229.926828 
L 210.08733 229.953374 
L 210.150106 230.115305 
L 210.212882 229.926828 
L 210.401212 230.43917 
L 210.463988 230.224144 
L 210.526765 230.331657 
L 210.652317 230.465714 
L 210.77787 229.711802 
L 210.903423 230.224144 
L 210.9662 230.169724 
L 211.028976 230.062214 
L 211.091753 230.38475 
L 211.154529 230.088758 
L 211.217305 230.115305 
L 211.342858 230.196271 
L 211.405635 230.062214 
L 211.468411 230.115305 
L 211.531188 230.115305 
L 211.593964 229.711802 
L 211.656741 229.981247 
L 211.782293 229.819315 
L 211.970623 230.250691 
L 212.033399 230.143178 
L 212.096176 229.683929 
L 212.158952 229.953374 
L 212.284505 229.873735 
L 212.347281 230.062214 
L 212.410058 229.845861 
L 212.598387 230.816126 
L 212.786716 229.981247 
L 212.912269 230.062214 
L 213.163375 230.169724 
L 213.288928 229.549871 
L 213.351704 229.711802 
L 213.414481 230.143178 
L 213.477257 229.981247 
L 213.540034 229.711802 
L 213.665587 230.115305 
L 213.728363 229.953374 
L 214.042245 231.166536 
L 214.167798 230.78958 
L 214.230575 230.95151 
L 214.418904 230.196271 
L 214.544457 230.6011 
L 214.607233 230.38475 
L 214.732786 230.654194 
L 214.921115 230.143178 
L 214.983892 230.224144 
L 215.046668 230.43917 
L 215.109445 230.38475 
L 215.172221 229.683929 
L 215.234998 229.953374 
L 215.297774 230.38475 
L 215.360551 230.250691 
L 215.486103 229.711802 
L 215.737209 230.43917 
L 215.799986 230.196271 
L 215.862762 230.38475 
L 215.925539 230.546681 
L 215.988315 230.412623 
L 216.051091 230.224144 
L 216.113868 230.358204 
L 216.176644 230.763033 
L 216.239421 230.627647 
L 216.42775 230.088758 
L 216.490527 230.250691 
L 216.553303 230.49359 
L 216.678856 230.196271 
L 216.741632 230.224144 
L 216.804409 230.034339 
L 216.867185 230.358204 
L 216.929962 230.277237 
L 216.992738 230.196271 
L 217.055514 230.6011 
L 217.118291 230.43917 
L 217.181067 230.088758 
L 217.243844 230.169724 
L 217.30662 230.250691 
L 217.369397 230.062214 
L 217.432173 230.169724 
L 217.49495 230.224144 
L 217.683279 230.49359 
L 217.871608 230.43917 
L 217.934385 230.978057 
L 217.997161 230.654194 
L 218.059938 230.870546 
L 218.122714 230.843999 
L 218.18549 230.49359 
L 218.248267 230.627647 
L 218.311043 230.573227 
L 218.499373 230.303784 
L 218.687702 230.6011 
L 218.750478 230.224144 
L 218.813255 230.520134 
L 218.938808 230.708613 
L 219.001584 230.6011 
L 219.064361 230.546681 
L 219.127137 230.654194 
L 219.378243 230.196271 
L 219.441019 230.520134 
L 219.503796 229.981247 
L 219.566572 230.303784 
L 219.754901 230.6011 
L 219.880454 230.277237 
L 220.006007 230.627647 
L 220.068784 230.627647 
L 220.13156 230.38475 
L 220.194337 230.465714 
L 220.257113 230.465714 
L 220.445442 230.034339 
L 220.633772 230.49359 
L 220.759324 230.062214 
L 220.822101 230.412623 
L 220.884877 230.331657 
L 221.01043 229.495452 
L 221.135983 230.43917 
L 221.19876 230.303784 
L 221.261536 230.573227 
L 221.324312 230.43917 
L 221.387089 230.573227 
L 221.449865 230.520134 
L 221.575418 229.926828 
L 221.700971 230.843999 
L 221.8893 230.062214 
L 222.140406 230.546681 
L 222.265959 229.792768 
L 222.328736 230.169724 
L 222.391512 229.926828 
L 222.517065 230.196271 
L 222.642618 229.819315 
L 222.830947 230.303784 
L 222.893723 230.38475 
L 223.019276 229.981247 
L 223.082053 230.007794 
L 223.207606 230.224144 
L 223.270382 230.143178 
L 223.333159 229.926828 
L 223.395935 230.277237 
L 223.647041 229.523325 
L 223.898147 230.520134 
L 224.023699 230.224144 
L 224.086476 230.49359 
L 224.149252 230.169724 
L 224.212029 230.277237 
L 224.337582 230.143178 
L 224.588687 230.250691 
L 224.90257 229.468905 
L 225.090899 229.683929 
L 225.153675 229.495452 
L 225.279228 230.034339 
L 225.404781 230.062214 
L 225.530334 230.573227 
L 225.59311 230.546681 
L 225.844216 229.900281 
L 225.906993 229.764895 
L 225.969769 230.250691 
L 226.032546 230.115305 
L 226.220875 229.900281 
L 226.283651 229.792768 
L 226.346428 230.412623 
L 226.409204 230.250691 
L 226.597533 229.845861 
L 226.66031 230.169724 
L 226.723086 230.007794 
L 226.974192 229.764895 
L 227.036969 229.792768 
L 227.225298 230.277237 
L 227.413627 230.303784 
L 227.601957 229.981247 
L 227.664733 230.088758 
L 227.790286 230.816126 
L 228.041392 230.034339 
L 228.229721 230.763033 
L 228.41805 230.196271 
L 228.480827 230.062214 
L 228.60638 230.224144 
L 228.669156 230.088758 
L 228.794709 230.573227 
L 228.983038 230.169724 
L 229.108591 230.465714 
L 229.422473 229.819315 
L 229.736356 230.73516 
L 229.861908 230.816126 
L 229.924685 230.250691 
L 229.987461 230.331657 
L 230.050238 230.196271 
L 230.238567 230.49359 
L 230.36412 229.792768 
L 230.552449 230.78958 
L 230.678002 230.169724 
L 230.740779 230.654194 
L 230.803555 230.573227 
L 230.991884 230.143178 
L 231.24299 230.627647 
L 231.305767 230.277237 
L 231.368543 230.38475 
L 231.431319 230.224144 
L 231.494096 230.43917 
L 231.556872 230.034339 
L 231.619649 230.196271 
L 231.682425 230.627647 
L 231.745202 230.412623 
L 231.996307 230.763033 
L 232.059084 230.682067 
L 232.247413 230.38475 
L 232.435742 230.682067 
L 232.498519 230.465714 
L 232.749625 231.059023 
L 232.937954 230.573227 
L 233.063507 231.166536 
L 233.18906 230.78958 
L 233.251836 231.032476 
L 233.314613 230.95151 
L 233.377389 230.95151 
L 233.440166 230.78958 
L 233.502942 231.113443 
L 233.565718 231.032476 
L 233.628495 230.78958 
L 233.691271 230.870546 
L 233.754048 230.78958 
L 233.942377 230.250691 
L 234.130706 230.816126 
L 234.256259 230.277237 
L 234.381812 230.682067 
L 234.444589 230.43917 
L 234.507365 230.546681 
L 234.695694 230.78958 
L 234.884024 230.115305 
L 234.9468 230.520134 
L 235.009577 230.465714 
L 235.260682 230.088758 
L 235.574565 230.682067 
L 235.637341 230.708613 
L 235.762894 230.38475 
L 235.888447 231.08557 
L 235.951223 230.654194 
L 236.014 230.73516 
L 236.202329 230.43917 
L 236.265105 230.654194 
L 236.327882 230.573227 
L 236.516211 229.764895 
L 236.767317 230.546681 
L 237.018423 230.49359 
L 237.081199 230.6011 
L 237.143976 230.520134 
L 237.206752 230.43917 
L 237.332305 230.708613 
L 237.395081 230.627647 
L 237.520634 230.196271 
L 237.646187 230.654194 
L 237.77174 230.277237 
L 237.834516 230.627647 
L 237.897293 230.546681 
L 238.148399 229.981247 
L 238.211175 230.143178 
L 238.273952 229.845861 
L 238.336728 229.873735 
L 238.462281 229.845861 
L 238.587834 230.573227 
L 238.713387 230.358204 
L 238.776163 230.49359 
L 239.090045 230.870546 
L 239.215598 230.277237 
L 239.278375 230.331657 
L 239.592257 229.953374 
L 239.780586 230.6011 
L 239.968915 230.196271 
L 240.031692 230.6011 
L 240.094468 230.465714 
L 240.345574 229.981247 
L 240.471127 230.43917 
L 240.59668 229.926828 
L 240.659456 230.143178 
L 240.910562 231.220955 
L 241.036115 230.763033 
L 241.098891 230.89709 
L 241.161668 230.923637 
L 241.47555 229.926828 
L 241.601103 230.682067 
L 241.663879 230.465714 
L 241.726656 230.520134 
L 241.789432 230.573227 
L 241.977762 230.224144 
L 242.040538 230.465714 
L 242.103314 230.43917 
L 242.35442 229.711802 
L 242.542749 230.277237 
L 242.793855 229.602963 
L 242.919408 230.277237 
L 242.982185 230.250691 
L 243.044961 230.412623 
L 243.107737 230.196271 
L 243.296067 230.816126 
L 243.42162 230.520134 
L 243.484396 230.682067 
L 243.672725 230.062214 
L 243.735502 230.277237 
L 243.798278 230.169724 
L 243.923831 229.953374 
L 244.112161 230.196271 
L 244.174937 230.277237 
L 244.363266 229.683929 
L 244.426043 229.900281 
L 244.488819 229.630838 
L 244.551596 230.088758 
L 244.614372 230.007794 
L 244.677148 230.034339 
L 244.928254 230.573227 
L 245.053807 230.6011 
L 245.17936 231.166536 
L 245.367689 230.546681 
L 245.493242 230.654194 
L 245.556019 230.89709 
L 245.618795 230.708613 
L 245.807124 230.143178 
L 245.869901 230.062214 
L 245.932677 230.38475 
L 246.05823 229.792768 
L 246.121007 229.819315 
L 246.497665 230.520134 
L 246.685995 230.277237 
L 246.874324 230.6011 
L 246.9371 230.520134 
L 246.999877 230.196271 
L 247.12543 230.73516 
L 247.250983 230.115305 
L 247.313759 230.169724 
L 247.376535 230.38475 
L 247.439312 230.224144 
L 247.564865 229.764895 
L 247.690418 230.708613 
L 247.878747 229.873735 
L 248.0043 230.277237 
L 248.129853 230.115305 
L 248.192629 230.169724 
L 248.255406 230.007794 
L 248.443735 230.573227 
L 248.506511 230.546681 
L 248.632064 230.062214 
L 248.694841 230.250691 
L 248.757617 230.6011 
L 248.820394 230.38475 
L 248.88317 230.331657 
L 249.259829 231.032476 
L 249.699264 230.78958 
L 249.76204 230.6011 
L 249.824817 230.627647 
L 249.887593 230.816126 
L 249.95037 230.708613 
L 250.075922 230.250691 
L 250.201475 230.73516 
L 250.327028 230.062214 
L 250.389805 230.277237 
L 250.515357 230.412623 
L 250.703687 229.764895 
L 250.954793 230.763033 
L 251.080345 230.465714 
L 251.205898 230.546681 
L 251.331451 230.870546 
L 251.582557 230.034339 
L 251.70811 230.49359 
L 251.770886 230.38475 
L 251.833663 230.224144 
L 251.896439 230.412623 
L 251.959216 230.169724 
L 252.021992 230.250691 
L 252.210321 230.73516 
L 252.398651 230.143178 
L 252.461427 229.845861 
L 252.58698 230.143178 
L 252.712533 229.711802 
L 252.775309 229.900281 
L 252.963639 230.73516 
L 253.089192 230.870546 
L 253.277521 230.277237 
L 253.340297 230.331657 
L 253.46585 230.763033 
L 253.528627 230.465714 
L 253.591403 230.520134 
L 253.716956 230.843999 
L 253.842509 230.73516 
L 253.905285 230.277237 
L 253.968062 230.38475 
L 254.030838 230.43917 
L 254.407497 229.873735 
L 254.53305 230.682067 
L 254.658603 229.845861 
L 254.972485 230.143178 
L 255.098038 230.627647 
L 255.223591 230.169724 
L 255.286367 230.224144 
L 255.474696 230.708613 
L 255.663026 229.657382 
L 255.725802 229.953374 
L 255.788579 230.49359 
L 255.851355 230.062214 
L 255.914131 230.169724 
L 256.102461 230.088758 
L 256.29079 229.738349 
L 256.353566 229.630838 
L 256.479119 230.088758 
L 256.541896 229.819315 
L 256.604672 229.981247 
L 256.730225 230.224144 
L 256.918554 229.819315 
L 257.106884 230.465714 
L 257.232437 229.549871 
L 257.295213 229.738349 
L 257.420766 230.088758 
L 257.671872 229.711802 
L 257.797425 230.277237 
L 257.860201 229.953374 
L 257.985754 230.546681 
L 258.174083 230.169724 
L 258.299636 230.6011 
L 258.362413 230.088758 
L 258.425189 230.115305 
L 258.739071 230.358204 
L 258.864624 230.73516 
L 259.11573 230.034339 
L 259.178506 230.196271 
L 259.241283 229.900281 
L 259.304059 229.953374 
L 259.429612 230.627647 
L 259.680718 229.683929 
L 259.806271 230.331657 
L 259.9946 229.468905 
L 260.245706 230.196271 
L 260.308482 230.412623 
L 260.371259 230.358204 
L 260.559588 230.088758 
L 260.622364 230.38475 
L 260.685141 230.224144 
L 260.747917 230.277237 
L 260.87347 229.953374 
L 260.936247 230.034339 
L 261.0618 229.926828 
L 261.124576 230.169724 
L 261.187352 230.007794 
L 261.250129 229.683929 
L 261.312905 229.792768 
L 261.375682 229.738349 
L 261.501235 230.115305 
L 261.626788 229.630838 
L 261.75234 230.303784 
L 261.815117 229.953374 
L 261.877893 230.088758 
L 261.94067 230.224144 
L 262.003446 229.926828 
L 262.066223 230.115305 
L 262.191775 230.654194 
L 262.317328 230.546681 
L 262.442881 230.062214 
L 262.631211 230.763033 
L 262.81954 230.143178 
L 263.070646 230.816126 
L 263.196199 230.573227 
L 263.258975 230.682067 
L 263.321751 230.49359 
L 263.384528 230.870546 
L 263.447304 230.73516 
L 263.510081 230.763033 
L 263.761187 230.169724 
L 263.823963 230.115305 
L 263.949516 230.708613 
L 264.012292 230.49359 
L 264.075069 230.331657 
L 264.137845 229.845861 
L 264.200622 230.088758 
L 264.326174 230.49359 
L 264.388951 230.169724 
L 264.514504 230.816126 
L 264.57728 230.546681 
L 264.640057 230.763033 
L 264.76561 230.520134 
L 264.828386 230.6011 
L 265.016715 230.870546 
L 265.205045 230.43917 
L 265.393374 230.088758 
L 265.518927 230.196271 
L 265.581703 230.062214 
L 265.707256 230.573227 
L 265.770033 230.38475 
L 265.958362 230.062214 
L 266.021138 230.115305 
L 266.083915 230.465714 
L 266.146691 230.331657 
L 266.272244 230.412623 
L 266.335021 230.169724 
L 266.52335 230.654194 
L 266.586126 230.870546 
L 266.711679 230.196271 
L 266.837232 230.78958 
L 266.962785 230.088758 
L 267.088338 230.6011 
L 267.151114 230.303784 
L 267.213891 230.331657 
L 267.339444 229.711802 
L 267.40222 229.873735 
L 267.464997 229.926828 
L 267.653326 230.654194 
L 267.967208 230.465714 
L 268.092761 231.004603 
L 268.155537 230.89709 
L 268.28109 229.981247 
L 268.343867 230.034339 
L 268.406643 230.412623 
L 268.46942 230.196271 
L 268.532196 229.845861 
L 268.594972 229.926828 
L 268.657749 230.034339 
L 268.846078 229.819315 
L 269.034408 230.115305 
L 269.097184 229.738349 
L 269.15996 229.792768 
L 269.34829 230.816126 
L 269.411066 230.43917 
L 269.473843 230.520134 
L 269.536619 230.78958 
L 269.599396 230.654194 
L 269.662172 230.520134 
L 269.787725 229.683929 
L 269.913278 230.143178 
L 269.976054 229.845861 
L 270.164383 230.43917 
L 270.415489 229.523325 
L 270.478266 229.602963 
L 270.541042 229.926828 
L 270.603819 229.845861 
L 270.792148 230.196271 
L 270.980477 229.900281 
L 271.043254 230.143178 
L 271.10603 230.007794 
L 271.231583 230.143178 
L 271.294359 230.007794 
L 271.419912 230.816126 
L 271.482689 230.627647 
L 271.545465 230.250691 
L 271.733795 230.870546 
L 271.922124 230.143178 
L 271.9849 229.981247 
L 272.047677 230.115305 
L 272.110453 230.465714 
L 272.17323 230.224144 
L 272.236006 230.034339 
L 272.424335 230.38475 
L 272.549888 230.062214 
L 272.612665 230.250691 
L 272.675441 230.520134 
L 272.738218 230.358204 
L 272.800994 230.331657 
L 272.926547 230.115305 
L 273.0521 230.520134 
L 273.114876 230.143178 
L 273.177653 230.169724 
L 273.617088 230.870546 
L 273.679864 230.73516 
L 273.993746 230.115305 
L 274.119299 230.358204 
L 274.182076 230.277237 
L 274.244852 230.169724 
L 274.307629 230.412623 
L 274.370405 230.007794 
L 274.433181 230.143178 
L 274.495958 230.196271 
L 274.621511 230.034339 
L 274.747064 230.73516 
L 274.998169 230.331657 
L 275.060946 230.465714 
L 275.249275 229.981247 
L 275.374828 230.43917 
L 275.500381 230.520134 
L 275.563157 230.627647 
L 275.625934 230.465714 
L 275.68871 230.763033 
L 275.814263 230.277237 
L 276.002593 230.573227 
L 276.065369 230.49359 
L 276.316475 229.764895 
L 276.442028 230.034339 
L 276.56758 229.253882 
L 276.693133 229.602963 
L 276.75591 229.442359 
L 276.944239 230.250691 
L 277.007016 230.034339 
L 277.195345 230.196271 
L 277.258121 229.926828 
L 277.320898 230.062214 
L 277.63478 230.843999 
L 277.760333 230.546681 
L 277.823109 230.923637 
L 277.885886 230.843999 
L 277.948662 230.89709 
L 278.011439 230.224144 
L 278.074215 230.277237 
L 278.136991 230.38475 
L 278.199768 229.953374 
L 278.262544 229.981247 
L 278.388097 230.143178 
L 278.450874 230.088758 
L 278.51365 229.819315 
L 278.576427 229.981247 
L 278.701979 229.953374 
L 278.827532 230.277237 
L 278.953085 229.792768 
L 279.078638 230.143178 
L 279.141415 230.062214 
L 279.204191 230.115305 
L 279.39252 230.303784 
L 279.518073 230.520134 
L 279.58085 230.73516 
L 279.706403 230.143178 
L 279.769179 230.196271 
L 279.831955 230.331657 
L 279.957508 230.169724 
L 280.020285 230.38475 
L 280.208614 229.792768 
L 280.334167 230.250691 
L 280.396943 230.143178 
L 280.522496 230.062214 
L 280.648049 230.546681 
L 280.773602 229.764895 
L 280.836378 229.873735 
L 280.961931 230.520134 
L 281.150261 230.331657 
L 281.213037 230.143178 
L 281.33859 230.708613 
L 281.464143 230.224144 
L 281.652472 230.978057 
L 281.715249 231.032476 
L 281.840802 230.6011 
L 281.966354 230.49359 
L 282.029131 230.654194 
L 282.091907 230.43917 
L 282.154684 230.843999 
L 282.21746 230.708613 
L 282.405789 229.926828 
L 282.468566 230.007794 
L 282.531342 230.708613 
L 282.594119 230.573227 
L 282.719672 230.465714 
L 282.908001 230.115305 
L 282.970777 230.007794 
L 283.033554 230.143178 
L 283.09633 230.088758 
L 283.159107 229.900281 
L 283.221883 229.981247 
L 283.28466 230.007794 
L 283.347436 230.627647 
L 283.410213 230.358204 
L 283.598542 230.627647 
L 283.661318 230.43917 
L 283.724095 230.6011 
L 283.849648 231.139989 
L 284.037977 229.953374 
L 284.100753 230.412623 
L 284.16353 230.250691 
L 284.226306 230.062214 
L 284.289083 230.088758 
L 284.477412 230.43917 
L 284.665741 230.843999 
L 284.979624 229.926828 
L 285.0424 230.303784 
L 285.105176 230.169724 
L 285.293506 229.683929 
L 285.356282 230.43917 
L 285.419059 230.38475 
L 285.481835 230.358204 
L 285.607388 230.115305 
L 285.858494 230.923637 
L 285.984047 230.43917 
L 286.235152 231.059023 
L 286.360705 230.331657 
L 286.549035 230.73516 
L 286.674587 230.303784 
L 286.862917 230.43917 
L 286.925693 230.358204 
L 286.98847 230.573227 
L 287.114023 230.088758 
L 287.176799 230.358204 
L 287.239575 230.303784 
L 287.302352 230.088758 
L 287.490681 230.43917 
L 287.553458 230.115305 
L 287.741787 230.627647 
L 287.86734 230.303784 
L 287.992893 230.331657 
L 288.055669 230.224144 
L 288.181222 230.465714 
L 288.306775 230.115305 
L 288.369551 230.277237 
L 288.557881 230.250691 
L 288.683434 230.007794 
L 288.871763 230.169724 
L 288.934539 229.953374 
L 288.997316 230.088758 
L 289.122869 230.465714 
L 289.185645 230.465714 
L 289.311198 230.6011 
L 289.436751 230.654194 
L 289.562304 230.034339 
L 289.750633 230.95151 
L 289.81341 230.708613 
L 289.876186 230.843999 
L 289.938962 230.412623 
L 290.001739 230.49359 
L 290.064515 230.78958 
L 290.127292 230.627647 
L 290.190068 230.250691 
L 290.252845 230.358204 
L 290.315621 230.412623 
L 290.441174 231.004603 
L 290.629503 230.277237 
L 290.69228 230.43917 
L 290.755056 230.682067 
L 290.880609 230.38475 
L 290.943385 230.358204 
L 291.131715 230.95151 
L 291.257268 230.654194 
L 291.382821 230.923637 
L 291.445597 231.08557 
L 291.57115 230.331657 
L 291.633926 230.627647 
L 291.759479 230.38475 
L 291.822256 230.465714 
L 291.885032 230.654194 
L 292.010585 230.303784 
L 292.136138 230.573227 
L 292.324467 229.900281 
L 292.45002 230.331657 
L 292.512796 230.169724 
L 292.763902 230.6011 
L 292.826679 230.520134 
L 292.952232 230.277237 
L 293.015008 230.38475 
L 293.140561 230.007794 
L 293.203337 230.465714 
L 293.266114 230.169724 
L 293.454443 230.303784 
L 293.579996 230.38475 
L 293.642772 230.73516 
L 293.705549 230.573227 
L 293.831102 229.926828 
L 294.019431 229.873735 
L 294.20776 230.682067 
L 294.39609 230.250691 
L 294.458866 230.465714 
L 294.584419 229.873735 
L 294.647195 230.007794 
L 294.772748 230.007794 
L 294.835525 230.196271 
L 294.898301 230.062214 
L 295.086631 229.711802 
L 295.149407 230.196271 
L 295.212183 229.900281 
L 295.27496 230.007794 
L 295.400513 229.602963 
L 295.463289 229.792768 
L 295.777171 230.654194 
L 295.839948 230.49359 
L 295.965501 230.331657 
L 296.028277 230.007794 
L 296.216606 230.546681 
L 296.279383 230.43917 
L 296.342159 229.764895 
L 296.404936 230.007794 
L 296.530489 230.763033 
L 296.781594 229.657382 
L 296.844371 229.657382 
L 296.969924 230.78958 
L 297.095477 229.900281 
L 297.22103 230.546681 
L 297.283806 230.358204 
L 297.409359 229.602963 
L 297.472135 229.981247 
L 297.534912 230.250691 
L 297.660465 229.873735 
L 297.723241 230.224144 
L 297.786018 230.034339 
L 297.848794 229.683929 
L 297.91157 229.873735 
L 298.037123 230.573227 
L 298.0999 230.062214 
L 298.162676 230.250691 
L 298.288229 230.843999 
L 298.351005 230.573227 
L 298.476558 230.331657 
L 298.539335 230.38475 
L 298.602111 230.682067 
L 298.664888 230.654194 
L 298.727664 230.682067 
L 298.853217 230.143178 
L 299.041546 230.627647 
L 299.104323 230.49359 
L 299.229876 230.034339 
L 299.418205 230.78958 
L 299.480981 230.73516 
L 299.732087 229.981247 
L 299.85764 230.43917 
L 299.983193 231.409433 
L 300.045969 231.301922 
L 300.108746 231.220955 
L 300.171522 230.89709 
L 300.234299 231.220955 
L 300.297075 231.166536 
L 300.422628 230.682067 
L 300.485404 230.816126 
L 300.548181 230.708613 
L 300.73651 230.73516 
L 300.799287 230.73516 
L 300.92484 231.194409 
L 301.050392 230.708613 
L 301.113169 230.816126 
L 301.238722 230.978057 
L 301.489828 230.682067 
L 301.552604 230.763033 
L 301.740933 230.143178 
L 301.866486 230.546681 
L 301.929263 230.38475 
L 301.992039 230.465714 
L 302.117592 230.573227 
L 302.305921 230.73516 
L 302.494251 230.331657 
L 302.557027 230.412623 
L 302.68258 230.78958 
L 302.870909 230.007794 
L 302.996462 229.845861 
L 303.059239 229.495452 
L 303.247568 230.277237 
L 303.373121 229.602963 
L 303.435897 229.683929 
L 303.687003 230.682067 
L 303.749779 230.358204 
L 303.812556 230.38475 
L 303.875332 230.465714 
L 303.938109 230.224144 
L 304.000885 230.43917 
L 304.063662 230.358204 
L 304.126438 229.981247 
L 304.189214 230.277237 
L 304.377544 230.708613 
L 304.503097 230.923637 
L 304.754202 230.358204 
L 304.816979 230.78958 
L 304.879755 230.6011 
L 305.005308 230.73516 
L 305.193638 230.250691 
L 305.256414 230.277237 
L 305.31919 230.465714 
L 305.381967 230.303784 
L 305.50752 230.196271 
L 305.695849 230.573227 
L 305.758626 230.49359 
L 305.884178 230.682067 
L 306.009731 230.358204 
L 306.072508 229.683929 
L 306.135284 229.819315 
L 306.260837 230.682067 
L 306.323613 230.520134 
L 306.38639 230.654194 
L 306.449166 230.573227 
L 306.511943 230.627647 
L 306.574719 230.6011 
L 306.637496 230.38475 
L 306.825825 230.843999 
L 306.888601 230.708613 
L 307.014154 230.196271 
L 307.26526 231.194409 
L 307.390813 230.250691 
L 307.453589 230.303784 
L 307.516366 230.573227 
L 307.579142 229.819315 
L 307.641919 229.953374 
L 307.893024 230.520134 
L 308.018577 230.034339 
L 308.081354 230.062214 
L 308.269683 230.627647 
L 308.33246 230.654194 
L 308.646342 229.873735 
L 308.709118 229.953374 
L 308.771895 229.683929 
L 309.085777 231.328466 
L 309.148553 231.113443 
L 309.21133 230.78958 
L 309.274106 230.816126 
L 309.336883 231.059023 
L 309.399659 231.004603 
L 309.462436 231.08557 
L 309.525212 231.004603 
L 309.776318 230.143178 
L 309.839094 230.143178 
L 309.964647 230.520134 
L 310.0902 229.981247 
L 310.404082 230.6011 
L 310.592411 229.981247 
L 310.655188 229.764895 
L 310.717964 229.873735 
L 310.906294 230.196271 
L 310.96907 229.738349 
L 311.031847 229.900281 
L 311.157399 230.546681 
L 311.220176 230.358204 
L 311.345729 230.088758 
L 311.408505 230.169724 
L 311.534058 229.523325 
L 311.722387 230.465714 
L 311.910717 229.819315 
L 312.161822 231.004603 
L 312.350152 229.900281 
L 312.412928 230.034339 
L 312.475705 230.062214 
L 312.601258 230.520134 
L 312.664034 230.062214 
L 312.72681 230.088758 
L 312.91514 230.38475 
L 313.040693 230.224144 
L 313.103469 230.331657 
L 313.229022 231.113443 
L 313.291798 231.004603 
L 313.354575 230.978057 
L 313.417351 231.355013 
L 313.731234 230.196271 
L 313.79401 230.143178 
L 313.856786 230.303784 
L 314.045116 229.953374 
L 314.170669 229.792768 
L 314.421774 230.654194 
L 314.484551 230.763033 
L 314.735657 229.953374 
L 314.986762 230.546681 
L 315.049539 230.627647 
L 315.175092 230.38475 
L 315.237868 230.546681 
L 315.300645 230.49359 
L 315.426197 230.627647 
L 315.488974 230.763033 
L 315.74008 229.792768 
L 315.802856 229.845861 
L 315.865632 230.115305 
L 315.928409 230.088758 
L 315.991185 230.034339 
L 316.242291 230.78958 
L 316.367844 230.627647 
L 316.493397 229.873735 
L 316.556173 230.062214 
L 316.681726 230.465714 
L 316.744503 230.224144 
L 316.807279 230.38475 
L 316.870056 230.546681 
L 316.995608 230.088758 
L 317.121161 230.708613 
L 317.309491 230.49359 
L 317.435044 230.627647 
L 317.49782 230.358204 
L 317.560596 230.38475 
L 317.748926 230.763033 
L 317.937255 230.224144 
L 318.000031 230.250691 
L 318.125584 230.73516 
L 318.188361 230.6011 
L 318.37669 230.43917 
L 318.439467 230.520134 
L 318.565019 230.143178 
L 318.627796 230.224144 
L 318.690572 230.303784 
L 318.816125 230.870546 
L 319.067231 230.169724 
L 319.130007 230.358204 
L 319.192784 230.224144 
L 319.318337 230.870546 
L 319.381113 230.73516 
L 319.506666 230.169724 
L 319.694995 230.224144 
L 319.820548 231.08557 
L 319.883325 230.978057 
L 320.071654 230.6011 
L 320.13443 230.573227 
L 320.197207 230.816126 
L 320.385536 229.981247 
L 320.511089 230.43917 
L 320.699418 230.143178 
L 320.887748 230.6011 
L 320.950524 230.708613 
L 321.076077 230.331657 
L 321.138854 230.546681 
L 321.20163 230.277237 
L 321.264406 230.465714 
L 321.703842 229.738349 
L 321.892171 230.546681 
L 321.954947 230.115305 
L 322.017724 230.224144 
L 322.143277 230.115305 
L 322.268829 229.953374 
L 322.457159 230.250691 
L 322.519935 230.303784 
L 322.708265 229.953374 
L 323.084923 230.627647 
L 323.1477 230.412623 
L 323.210476 230.546681 
L 323.273253 230.546681 
L 323.398805 230.277237 
L 323.587135 230.816126 
L 323.775464 229.981247 
L 323.963793 230.708613 
L 324.02657 230.412623 
L 324.089346 230.465714 
L 324.214899 230.627647 
L 324.466005 230.034339 
L 324.528781 230.49359 
L 324.591558 230.250691 
L 324.654334 230.303784 
L 324.779887 230.007794 
L 324.90544 230.763033 
L 324.968216 230.465714 
L 325.156546 230.034339 
L 325.219322 230.250691 
L 325.282099 230.38475 
L 325.344875 230.224144 
L 325.407652 230.250691 
L 325.533204 230.277237 
L 325.658757 230.6011 
L 325.721534 230.49359 
L 325.847087 230.763033 
L 325.909863 230.73516 
L 326.098192 230.573227 
L 326.160969 230.78958 
L 326.223745 230.763033 
L 326.286522 230.816126 
L 326.474851 230.115305 
L 326.537627 230.465714 
L 326.600404 230.412623 
L 326.725957 230.38475 
L 326.788733 230.43917 
L 326.914286 230.978057 
L 327.165392 230.224144 
L 327.353721 229.845861 
L 327.479274 229.414486 
L 327.667603 230.654194 
L 327.73038 230.627647 
L 327.793156 230.331657 
L 327.855933 230.520134 
L 327.918709 230.49359 
L 328.044262 229.926828 
L 328.107038 230.143178 
L 328.169815 230.034339 
L 328.232591 230.115305 
L 328.358144 230.682067 
L 328.546474 229.738349 
L 328.672026 229.873735 
L 328.734803 229.630838 
L 328.860356 230.062214 
L 328.923132 230.007794 
L 328.985909 230.196271 
L 329.048685 230.143178 
L 329.111462 229.981247 
L 329.174238 230.115305 
L 329.299791 230.277237 
L 329.362567 230.062214 
L 329.425344 230.143178 
L 329.48812 230.358204 
L 329.613673 229.738349 
L 329.67645 229.764895 
L 329.802002 229.981247 
L 329.864779 229.819315 
L 329.927555 230.43917 
L 329.990332 230.358204 
L 330.115885 229.819315 
L 330.178661 229.953374 
L 330.241437 229.981247 
L 330.36699 229.792768 
L 330.429767 229.900281 
L 330.492543 229.523325 
L 330.55532 229.630838 
L 330.806425 230.43917 
L 330.994755 230.43917 
L 331.057531 230.763033 
L 331.120308 230.38475 
L 331.183084 230.627647 
L 331.245861 230.73516 
L 331.308637 230.654194 
L 331.371413 230.277237 
L 331.43419 230.49359 
L 331.496966 230.43917 
L 331.748072 229.819315 
L 331.810848 229.792768 
L 331.936401 230.224144 
L 332.061954 230.412623 
L 332.250284 229.711802 
L 332.375836 230.520134 
L 332.564166 229.873735 
L 332.626942 229.981247 
L 332.752495 230.520134 
L 332.815272 230.465714 
L 333.003601 229.738349 
L 333.129154 229.873735 
L 333.254707 229.738349 
L 333.443036 229.953374 
L 333.505812 229.819315 
L 333.631365 230.573227 
L 333.882471 229.630838 
L 333.945247 229.495452 
L 334.133577 230.169724 
L 334.321906 229.468905 
L 334.384683 229.630838 
L 334.447459 230.115305 
L 334.510235 230.034339 
L 334.635788 229.926828 
L 334.698565 229.738349 
L 334.761341 229.792768 
L 334.886894 230.546681 
L 335.138 229.926828 
L 335.200776 230.062214 
L 335.263553 230.49359 
L 335.326329 230.38475 
L 335.389106 230.546681 
L 335.577435 229.576418 
L 335.640211 229.657382 
L 335.828541 230.196271 
L 335.891317 230.088758 
L 335.954094 229.711802 
L 336.079646 230.358204 
L 336.142423 230.303784 
L 336.205199 230.303784 
L 336.393529 229.792768 
L 336.456305 229.738349 
L 336.581858 230.088758 
L 336.644634 229.981247 
L 336.707411 229.953374 
L 336.770187 230.088758 
L 336.832964 229.953374 
L 337.021293 230.520134 
L 337.272399 229.387939 
L 337.397952 229.549871 
L 337.460728 229.468905 
L 337.711834 230.250691 
L 337.77461 230.38475 
L 337.837387 230.277237 
L 337.900163 229.981247 
L 337.96294 230.412623 
L 338.025716 230.277237 
L 338.088493 230.143178 
L 338.214045 230.38475 
L 338.276822 230.303784 
L 338.339598 229.792768 
L 338.465151 230.250691 
L 338.653481 229.576418 
L 338.716257 229.873735 
L 338.779033 229.926828 
L 338.904586 229.523325 
L 338.967363 229.549871 
L 339.155692 229.926828 
L 339.218469 230.034339 
L 339.281245 229.845861 
L 339.344021 229.900281 
L 339.469574 229.845861 
L 339.532351 229.442359 
L 339.72068 230.034339 
L 339.909009 230.465714 
L 339.971786 230.412623 
L 340.160115 229.953374 
L 340.285668 230.816126 
L 340.348444 230.465714 
L 340.411221 230.654194 
L 340.59955 229.900281 
L 340.662327 230.277237 
L 340.725103 230.224144 
L 340.913432 229.414486 
L 341.038985 230.708613 
L 341.101762 230.654194 
L 341.227315 230.546681 
L 341.352868 230.573227 
L 341.415644 230.196271 
L 341.47842 230.358204 
L 341.541197 230.250691 
L 341.603973 230.573227 
L 341.729526 229.306973 
L 341.792303 229.602963 
L 341.980632 230.062214 
L 342.106185 229.845861 
L 342.231738 230.573227 
L 342.420067 229.845861 
L 342.482843 230.143178 
L 342.608396 230.49359 
L 342.733949 229.953374 
L 342.859502 230.088758 
L 342.922279 229.845861 
L 343.110608 230.627647 
L 343.236161 229.981247 
L 343.42449 230.38475 
L 343.612819 230.654194 
L 343.801149 230.007794 
L 343.926702 230.520134 
L 344.052254 230.978057 
L 344.115031 230.78958 
L 344.177807 230.115305 
L 344.240584 230.196271 
L 344.49169 230.007794 
L 344.554466 230.143178 
L 344.617242 229.981247 
L 344.805572 230.38475 
L 345.056678 230.412623 
L 345.119454 230.224144 
L 345.245007 230.627647 
L 345.433336 229.576418 
L 345.621665 230.143178 
L 345.684442 229.900281 
L 345.747218 230.224144 
L 345.809995 230.169724 
L 345.872771 229.981247 
L 346.123877 230.6011 
L 346.186653 230.196271 
L 346.312206 230.78958 
L 346.374983 230.627647 
L 346.437759 230.331657 
L 346.500536 230.465714 
L 346.626089 230.95151 
L 346.877194 229.900281 
L 346.939971 229.792768 
L 347.065524 230.088758 
L 347.1283 229.981247 
L 347.253853 230.49359 
L 347.316629 230.412623 
L 347.442182 229.900281 
L 347.567735 230.250691 
L 347.630512 230.224144 
L 347.881617 229.926828 
L 348.132723 230.654194 
L 348.1955 230.49359 
L 348.321052 230.43917 
L 348.509382 229.630838 
L 348.572158 230.115305 
L 348.634935 230.062214 
L 348.760488 229.738349 
L 348.823264 229.792768 
L 349.011593 230.73516 
L 349.137146 230.43917 
L 349.199923 230.546681 
L 349.513805 229.900281 
L 349.576581 229.981247 
L 349.702134 230.573227 
L 349.890463 230.062214 
L 349.95324 230.088758 
L 350.078793 230.358204 
L 350.141569 230.250691 
L 350.204346 229.711802 
L 350.267122 229.873735 
L 350.455451 229.926828 
L 350.581004 230.520134 
L 350.643781 230.6011 
L 350.706557 230.250691 
L 350.769334 230.277237 
L 350.83211 230.250691 
L 350.894887 230.6011 
L 350.957663 230.49359 
L 351.083216 230.682067 
L 351.145992 230.6011 
L 351.271545 230.169724 
L 351.334322 230.169724 
L 351.522651 230.49359 
L 351.648204 230.169724 
L 351.71098 230.303784 
L 351.773757 230.196271 
L 351.836533 229.792768 
L 351.89931 230.007794 
L 351.962086 230.196271 
L 352.024862 230.169724 
L 352.213192 229.981247 
L 352.338745 230.331657 
L 352.464298 229.981247 
L 352.58985 230.49359 
L 352.715403 229.981247 
L 352.903733 230.358204 
L 353.092062 230.73516 
L 353.280391 230.034339 
L 353.468721 230.358204 
L 353.531497 230.277237 
L 353.65705 229.792768 
L 353.719826 229.953374 
L 353.845379 230.654194 
L 354.033709 230.143178 
L 354.159261 230.250691 
L 354.284814 230.088758 
L 354.410367 229.602963 
L 354.724249 230.43917 
L 354.787026 230.358204 
L 354.849802 230.43917 
L 354.912579 230.89709 
L 354.975355 230.682067 
L 355.163685 230.088758 
L 355.41479 230.43917 
L 355.477567 230.520134 
L 355.728672 229.387939 
L 355.979778 230.358204 
L 356.042555 230.143178 
L 356.105331 230.196271 
L 356.29366 230.303784 
L 356.356437 230.196271 
L 356.419213 230.277237 
L 356.48199 230.303784 
L 356.607543 230.816126 
L 356.921425 229.900281 
L 357.046978 230.062214 
L 357.172531 230.627647 
L 357.298084 230.088758 
L 357.36086 230.224144 
L 357.423636 230.49359 
L 357.674742 229.683929 
L 357.800295 230.43917 
L 357.863071 230.224144 
L 357.988624 229.280426 
L 358.051401 229.387939 
L 358.176954 230.49359 
L 358.302507 230.169724 
L 358.365283 230.196271 
L 358.428059 229.981247 
L 358.616389 230.870546 
L 358.867495 230.43917 
L 358.930271 230.627647 
L 358.993047 230.49359 
L 359.181377 229.738349 
L 359.369706 230.224144 
L 359.432483 230.007794 
L 359.558035 230.358204 
L 359.683588 229.576418 
L 359.746365 229.792768 
L 359.871918 230.115305 
L 359.99747 229.792768 
L 360.1858 230.43917 
L 360.311353 230.465714 
L 360.499682 230.843999 
L 360.625235 230.412623 
L 360.750788 230.6011 
L 360.813564 231.139989 
L 360.876341 230.923637 
L 361.06467 230.978057 
L 361.127446 231.166536 
L 361.315776 230.196271 
L 361.378552 230.38475 
L 361.441329 230.331657 
L 361.566881 230.277237 
L 361.629658 230.546681 
L 361.692434 230.303784 
L 361.755211 230.412623 
L 361.817987 230.465714 
L 362.069093 230.143178 
L 362.131869 230.143178 
L 362.257422 229.981247 
L 362.320199 230.034339 
L 362.445752 230.303784 
L 362.571305 230.062214 
L 362.82241 231.032476 
L 362.885187 230.816126 
L 362.947963 230.654194 
L 363.01074 230.034339 
L 363.073516 230.196271 
L 363.199069 230.546681 
L 363.387398 230.062214 
L 363.575728 230.49359 
L 363.764057 230.89709 
L 363.826833 230.95151 
L 364.077939 229.900281 
L 364.329045 230.654194 
L 364.391821 230.465714 
L 364.454598 230.520134 
L 364.517374 230.546681 
L 364.642927 231.139989 
L 364.831256 230.143178 
L 364.894033 230.169724 
L 365.145139 231.247502 
L 365.270692 230.358204 
L 365.333468 230.38475 
L 365.396244 230.250691 
L 365.521797 230.654194 
L 365.584574 230.6011 
L 365.772903 230.465714 
L 365.898456 230.978057 
L 366.024009 230.43917 
L 366.149562 230.546681 
L 366.212338 230.49359 
L 366.337891 230.088758 
L 366.400667 230.115305 
L 366.463444 230.358204 
L 366.52622 230.115305 
L 366.588997 230.303784 
L 366.651773 230.546681 
L 366.71455 230.520134 
L 366.840103 230.520134 
L 366.902879 230.465714 
L 367.028432 229.981247 
L 367.216761 230.358204 
L 367.279538 230.062214 
L 367.342314 230.143178 
L 367.405091 230.303784 
L 367.59342 229.792768 
L 367.656196 229.873735 
L 367.781749 230.89709 
L 367.907302 230.088758 
L 367.970078 230.196271 
L 368.221184 230.923637 
L 368.409514 230.088758 
L 368.535066 230.303784 
L 368.660619 230.73516 
L 368.723396 230.115305 
L 368.786172 230.250691 
L 369.100054 230.870546 
L 369.35116 230.088758 
L 369.539489 230.224144 
L 369.602266 230.573227 
L 369.665042 230.43917 
L 369.790595 230.250691 
L 369.853372 229.981247 
L 369.978925 230.49359 
L 370.104477 230.331657 
L 370.292807 229.873735 
L 370.41836 229.873735 
L 370.481136 230.250691 
L 370.543913 230.196271 
L 370.606689 230.250691 
L 370.669465 229.926828 
L 370.732242 229.981247 
L 370.795018 230.224144 
L 370.857795 230.062214 
L 370.983348 229.819315 
L 371.108901 230.978057 
L 371.171677 230.89709 
L 371.29723 230.38475 
L 371.360006 230.43917 
L 371.422783 230.303784 
L 371.548336 231.08557 
L 371.611112 230.870546 
L 371.736665 230.143178 
L 371.799441 230.062214 
L 371.924994 230.546681 
L 372.113324 229.926828 
L 372.1761 230.169724 
L 372.238876 229.953374 
L 372.301653 230.034339 
L 372.427206 230.196271 
L 372.552759 230.062214 
L 372.615535 230.115305 
L 372.678312 229.926828 
L 372.866641 230.412623 
L 372.992194 230.088758 
L 373.05497 230.49359 
L 373.117747 230.412623 
L 373.2433 230.169724 
L 373.368852 229.738349 
L 373.557182 230.78958 
L 373.619958 230.465714 
L 373.682735 229.900281 
L 373.745511 230.196271 
L 373.808287 230.250691 
L 373.871064 230.007794 
L 373.93384 230.465714 
L 373.996617 230.38475 
L 374.059393 229.792768 
L 374.12217 229.819315 
L 374.184946 230.224144 
L 374.247723 230.062214 
L 374.373275 229.900281 
L 374.561605 230.546681 
L 374.624381 230.38475 
L 374.687158 229.953374 
L 374.749934 230.143178 
L 374.812711 230.196271 
L 374.875487 230.520134 
L 374.938263 230.49359 
L 375.00104 230.465714 
L 375.063816 230.627647 
L 375.126593 230.250691 
L 375.189369 230.708613 
L 375.252146 230.654194 
L 375.314922 230.708613 
L 375.503251 230.224144 
L 375.691581 230.73516 
L 375.942686 229.819315 
L 376.005463 229.602963 
L 376.131016 230.465714 
L 376.256569 230.38475 
L 376.319345 230.358204 
L 376.507674 230.89709 
L 376.75878 230.708613 
L 376.884333 230.546681 
L 377.009886 231.059023 
L 377.198215 230.034339 
L 377.260992 230.224144 
L 377.386545 230.843999 
L 377.449321 230.627647 
L 377.574874 231.004603 
L 377.763203 230.43917 
L 377.82598 230.6011 
L 377.888756 230.573227 
L 377.951533 230.331657 
L 378.014309 230.358204 
L 378.077085 230.546681 
L 378.139862 230.520134 
L 378.265415 229.953374 
L 378.70485 230.654194 
L 378.767626 230.38475 
L 378.830403 230.412623 
L 379.018732 231.194409 
L 379.207061 230.062214 
L 379.395391 230.682067 
L 379.458167 230.627647 
L 379.646496 230.007794 
L 379.834826 229.792768 
L 380.023155 230.573227 
L 380.211484 229.981247 
L 380.399814 230.38475 
L 380.776472 229.953374 
L 380.839249 230.062214 
L 380.902025 230.43917 
L 380.964802 230.277237 
L 381.153131 230.007794 
L 381.215908 229.523325 
L 381.278684 230.034339 
L 381.34146 229.845861 
L 381.467013 229.387939 
L 381.52979 229.495452 
L 381.780895 230.143178 
L 381.843672 230.034339 
L 381.906448 230.277237 
L 381.969225 230.088758 
L 382.032001 229.683929 
L 382.220331 230.412623 
L 382.283107 230.412623 
L 382.40866 229.792768 
L 382.534213 230.115305 
L 382.596989 229.981247 
L 382.785319 230.331657 
L 382.910871 230.088758 
L 383.036424 230.331657 
L 383.161977 230.169724 
L 383.350306 229.953374 
L 383.413083 229.953374 
L 383.538636 229.523325 
L 383.601412 229.549871 
L 383.726965 230.43917 
L 383.789742 230.143178 
L 383.852518 230.277237 
L 383.915294 230.277237 
L 384.103624 229.926828 
L 384.291953 230.331657 
L 384.35473 230.250691 
L 384.417506 229.926828 
L 384.480282 230.250691 
L 384.543059 230.196271 
L 384.731388 229.981247 
L 384.794165 229.953374 
L 384.982494 230.196271 
L 385.170823 229.630838 
L 385.2336 229.764895 
L 385.296376 230.169724 
L 385.359153 230.062214 
L 385.421929 230.088758 
L 385.547482 230.546681 
L 385.735811 229.926828 
L 385.924141 230.277237 
L 386.049693 230.007794 
L 386.300799 230.6011 
L 386.363576 230.115305 
L 386.426352 230.465714 
L 386.551905 230.465714 
L 386.677458 229.953374 
L 386.928564 230.250691 
L 386.99134 229.953374 
L 387.054117 230.38475 
L 387.116893 230.303784 
L 387.242446 229.792768 
L 387.367999 230.169724 
L 387.430775 230.062214 
L 387.493552 230.277237 
L 387.556328 230.169724 
L 387.619104 229.873735 
L 387.681881 230.034339 
L 387.744657 229.845861 
L 387.807434 229.900281 
L 388.121316 230.143178 
L 388.246869 230.465714 
L 388.309645 230.708613 
L 388.435198 230.43917 
L 388.497975 230.520134 
L 388.560751 230.358204 
L 388.623528 230.73516 
L 388.686304 230.654194 
L 388.811857 230.465714 
L 388.811857 230.465714 
" style="fill:none;stroke:#1f77b4;stroke-linecap:round;stroke-width:1.5;"/>
   </g>
   <g id="line2d_14">
    <path clip-path="url(#p73c528982e)" d="M 87.43809 289 
L 87.441184 -1 
M 87.968584 -1 
L 87.972035 289 
M 88.037168 289 
L 88.048588 -1 
M 88.053687 -1 
L 88.085714 289 
L 88.085714 289 
" style="fill:none;stroke:#ff7f0e;stroke-linecap:round;stroke-width:1.5;"/>
   </g>
   <g id="patch_3">
    <path d="M 54 252 
L 54 34.56 
" style="fill:none;stroke:#cccccc;stroke-linecap:square;stroke-linejoin:miter;stroke-width:0.8;"/>
   </g>
   <g id="patch_4">
    <path d="M 388.8 252 
L 388.8 34.56 
" style="fill:none;stroke:#cccccc;stroke-linecap:square;stroke-linejoin:miter;stroke-width:0.8;"/>
   </g>
   <g id="patch_5">
    <path d="M 54 252 
L 388.8 252 
" style="fill:none;stroke:#cccccc;stroke-linecap:square;stroke-linejoin:miter;stroke-width:0.8;"/>
   </g>
   <g id="patch_6">
    <path d="M 54 34.56 
L 388.8 34.56 
" style="fill:none;stroke:#cccccc;stroke-linecap:square;stroke-linejoin:miter;stroke-width:0.8;"/>
   </g>
  </g>
 </g>
 <defs>
  <clipPath id="p73c528982e">
   <rect height="217.44" width="334.8" x="54" y="34.56"/>
  </clipPath>
 </defs>
</svg>
