<?xml version="1.0" encoding="utf-8" standalone="no"?>
<!DOCTYPE svg PUBLIC "-//W3C//DTD SVG 1.1//EN"
  "http://www.w3.org/Graphics/SVG/1.1/DTD/svg11.dtd">
<!-- Created with matplotlib (https://matplotlib.org/) -->
<svg height="288pt" version="1.1" viewBox="0 0 432 288" width="432pt" xmlns="http://www.w3.org/2000/svg" xmlns:xlink="http://www.w3.org/1999/xlink">
 <metadata>
  <rdf:RDF xmlns:cc="http://creativecommons.org/ns#" xmlns:dc="http://purl.org/dc/elements/1.1/" xmlns:rdf="http://www.w3.org/1999/02/22-rdf-syntax-ns#">
   <cc:Work>
    <dc:type rdf:resource="http://purl.org/dc/dcmitype/StillImage"/>
    <dc:date>2022-05-26T17:47:24.369730</dc:date>
    <dc:format>image/svg+xml</dc:format>
    <dc:creator>
     <cc:Agent>
      <dc:title>Matplotlib v3.3.3, https://matplotlib.org/</dc:title>
     </cc:Agent>
    </dc:creator>
   </cc:Work>
  </rdf:RDF>
 </metadata>
 <defs>
  <style type="text/css">*{stroke-linecap:butt;stroke-linejoin:round;}</style>
 </defs>
 <g id="figure_1">
  <g id="patch_1">
   <path d="M 0 288 
L 432 288 
L 432 0 
L 0 0 
z
" style="fill:#ffffff;"/>
  </g>
  <g id="axes_1">
   <g id="patch_2">
    <path d="M 54 252 
L 388.8 252 
L 388.8 34.56 
L 54 34.56 
z
" style="fill:#ffffff;"/>
   </g>
   <g id="matplotlib.axis_1">
    <g id="xtick_1">
     <g id="line2d_1">
      <path clip-path="url(#p1ca4bd4fbf)" d="M 64.4625 252 
L 64.4625 34.56 
" style="fill:none;stroke:#cccccc;stroke-linecap:round;stroke-width:0.8;"/>
     </g>
     <g id="text_1">
      <!-- 1.0 -->
      <g style="fill:#262626;" transform="translate(57.5125 266.157812)scale(0.1 -0.1)">
       <defs>
        <path d="M 37.25 0 
L 28.46875 0 
L 28.46875 56 
Q 25.296875 52.984375 20.140625 49.953125 
Q 14.984375 46.921875 10.890625 45.40625 
L 10.890625 53.90625 
Q 18.265625 57.375 23.78125 62.296875 
Q 29.296875 67.234375 31.59375 71.875 
L 37.25 71.875 
z
" id="ArialMT-49"/>
        <path d="M 9.078125 0 
L 9.078125 10.015625 
L 19.09375 10.015625 
L 19.09375 0 
z
" id="ArialMT-46"/>
        <path d="M 4.15625 35.296875 
Q 4.15625 48 6.765625 55.734375 
Q 9.375 63.484375 14.515625 67.671875 
Q 19.671875 71.875 27.484375 71.875 
Q 33.25 71.875 37.59375 69.546875 
Q 41.9375 67.234375 44.765625 62.859375 
Q 47.609375 58.5 49.21875 52.21875 
Q 50.828125 45.953125 50.828125 35.296875 
Q 50.828125 22.703125 48.234375 14.96875 
Q 45.65625 7.234375 40.5 3 
Q 35.359375 -1.21875 27.484375 -1.21875 
Q 17.140625 -1.21875 11.234375 6.203125 
Q 4.15625 15.140625 4.15625 35.296875 
z
M 13.1875 35.296875 
Q 13.1875 17.671875 17.3125 11.828125 
Q 21.4375 6 27.484375 6 
Q 33.546875 6 37.671875 11.859375 
Q 41.796875 17.71875 41.796875 35.296875 
Q 41.796875 52.984375 37.671875 58.78125 
Q 33.546875 64.59375 27.390625 64.59375 
Q 21.34375 64.59375 17.71875 59.46875 
Q 13.1875 52.9375 13.1875 35.296875 
z
" id="ArialMT-48"/>
       </defs>
       <use xlink:href="#ArialMT-49"/>
       <use x="55.615234" xlink:href="#ArialMT-46"/>
       <use x="83.398438" xlink:href="#ArialMT-48"/>
      </g>
     </g>
    </g>
    <g id="xtick_2">
     <g id="line2d_2">
      <path clip-path="url(#p1ca4bd4fbf)" d="M 116.775 252 
L 116.775 34.56 
" style="fill:none;stroke:#cccccc;stroke-linecap:round;stroke-width:0.8;"/>
     </g>
     <g id="text_2">
      <!-- 1.5 -->
      <g style="fill:#262626;" transform="translate(109.825 266.157812)scale(0.1 -0.1)">
       <defs>
        <path d="M 4.15625 18.75 
L 13.375 19.53125 
Q 14.40625 12.796875 18.140625 9.390625 
Q 21.875 6 27.15625 6 
Q 33.5 6 37.890625 10.78125 
Q 42.28125 15.578125 42.28125 23.484375 
Q 42.28125 31 38.0625 35.34375 
Q 33.84375 39.703125 27 39.703125 
Q 22.75 39.703125 19.328125 37.765625 
Q 15.921875 35.84375 13.96875 32.765625 
L 5.71875 33.84375 
L 12.640625 70.609375 
L 48.25 70.609375 
L 48.25 62.203125 
L 19.671875 62.203125 
L 15.828125 42.96875 
Q 22.265625 47.46875 29.34375 47.46875 
Q 38.71875 47.46875 45.15625 40.96875 
Q 51.609375 34.46875 51.609375 24.265625 
Q 51.609375 14.546875 45.953125 7.46875 
Q 39.0625 -1.21875 27.15625 -1.21875 
Q 17.390625 -1.21875 11.203125 4.25 
Q 5.03125 9.71875 4.15625 18.75 
z
" id="ArialMT-53"/>
       </defs>
       <use xlink:href="#ArialMT-49"/>
       <use x="55.615234" xlink:href="#ArialMT-46"/>
       <use x="83.398438" xlink:href="#ArialMT-53"/>
      </g>
     </g>
    </g>
    <g id="xtick_3">
     <g id="line2d_3">
      <path clip-path="url(#p1ca4bd4fbf)" d="M 169.0875 252 
L 169.0875 34.56 
" style="fill:none;stroke:#cccccc;stroke-linecap:round;stroke-width:0.8;"/>
     </g>
     <g id="text_3">
      <!-- 2.0 -->
      <g style="fill:#262626;" transform="translate(162.1375 266.157812)scale(0.1 -0.1)">
       <defs>
        <path d="M 50.34375 8.453125 
L 50.34375 0 
L 3.03125 0 
Q 2.9375 3.171875 4.046875 6.109375 
Q 5.859375 10.9375 9.828125 15.625 
Q 13.8125 20.3125 21.34375 26.46875 
Q 33.015625 36.03125 37.109375 41.625 
Q 41.21875 47.21875 41.21875 52.203125 
Q 41.21875 57.421875 37.46875 61 
Q 33.734375 64.59375 27.734375 64.59375 
Q 21.390625 64.59375 17.578125 60.78125 
Q 13.765625 56.984375 13.71875 50.25 
L 4.6875 51.171875 
Q 5.609375 61.28125 11.65625 66.578125 
Q 17.71875 71.875 27.9375 71.875 
Q 38.234375 71.875 44.234375 66.15625 
Q 50.25 60.453125 50.25 52 
Q 50.25 47.703125 48.484375 43.546875 
Q 46.734375 39.40625 42.65625 34.8125 
Q 38.578125 30.21875 29.109375 22.21875 
Q 21.1875 15.578125 18.9375 13.203125 
Q 16.703125 10.84375 15.234375 8.453125 
z
" id="ArialMT-50"/>
       </defs>
       <use xlink:href="#ArialMT-50"/>
       <use x="55.615234" xlink:href="#ArialMT-46"/>
       <use x="83.398438" xlink:href="#ArialMT-48"/>
      </g>
     </g>
    </g>
    <g id="xtick_4">
     <g id="line2d_4">
      <path clip-path="url(#p1ca4bd4fbf)" d="M 221.4 252 
L 221.4 34.56 
" style="fill:none;stroke:#cccccc;stroke-linecap:round;stroke-width:0.8;"/>
     </g>
     <g id="text_4">
      <!-- 2.5 -->
      <g style="fill:#262626;" transform="translate(214.45 266.157812)scale(0.1 -0.1)">
       <use xlink:href="#ArialMT-50"/>
       <use x="55.615234" xlink:href="#ArialMT-46"/>
       <use x="83.398438" xlink:href="#ArialMT-53"/>
      </g>
     </g>
    </g>
    <g id="xtick_5">
     <g id="line2d_5">
      <path clip-path="url(#p1ca4bd4fbf)" d="M 273.7125 252 
L 273.7125 34.56 
" style="fill:none;stroke:#cccccc;stroke-linecap:round;stroke-width:0.8;"/>
     </g>
     <g id="text_5">
      <!-- 3.0 -->
      <g style="fill:#262626;" transform="translate(266.7625 266.157812)scale(0.1 -0.1)">
       <defs>
        <path d="M 4.203125 18.890625 
L 12.984375 20.0625 
Q 14.5 12.59375 18.140625 9.296875 
Q 21.78125 6 27 6 
Q 33.203125 6 37.46875 10.296875 
Q 41.75 14.59375 41.75 20.953125 
Q 41.75 27 37.796875 30.921875 
Q 33.84375 34.859375 27.734375 34.859375 
Q 25.25 34.859375 21.53125 33.890625 
L 22.515625 41.609375 
Q 23.390625 41.5 23.921875 41.5 
Q 29.546875 41.5 34.03125 44.421875 
Q 38.53125 47.359375 38.53125 53.46875 
Q 38.53125 58.296875 35.25 61.46875 
Q 31.984375 64.65625 26.8125 64.65625 
Q 21.6875 64.65625 18.265625 61.421875 
Q 14.84375 58.203125 13.875 51.765625 
L 5.078125 53.328125 
Q 6.6875 62.15625 12.390625 67.015625 
Q 18.109375 71.875 26.609375 71.875 
Q 32.46875 71.875 37.390625 69.359375 
Q 42.328125 66.84375 44.9375 62.5 
Q 47.5625 58.15625 47.5625 53.265625 
Q 47.5625 48.640625 45.0625 44.828125 
Q 42.578125 41.015625 37.703125 38.765625 
Q 44.046875 37.3125 47.5625 32.6875 
Q 51.078125 28.078125 51.078125 21.140625 
Q 51.078125 11.765625 44.234375 5.25 
Q 37.40625 -1.265625 26.953125 -1.265625 
Q 17.53125 -1.265625 11.296875 4.34375 
Q 5.078125 9.96875 4.203125 18.890625 
z
" id="ArialMT-51"/>
       </defs>
       <use xlink:href="#ArialMT-51"/>
       <use x="55.615234" xlink:href="#ArialMT-46"/>
       <use x="83.398438" xlink:href="#ArialMT-48"/>
      </g>
     </g>
    </g>
    <g id="xtick_6">
     <g id="line2d_6">
      <path clip-path="url(#p1ca4bd4fbf)" d="M 326.025 252 
L 326.025 34.56 
" style="fill:none;stroke:#cccccc;stroke-linecap:round;stroke-width:0.8;"/>
     </g>
     <g id="text_6">
      <!-- 3.5 -->
      <g style="fill:#262626;" transform="translate(319.075 266.157812)scale(0.1 -0.1)">
       <use xlink:href="#ArialMT-51"/>
       <use x="55.615234" xlink:href="#ArialMT-46"/>
       <use x="83.398438" xlink:href="#ArialMT-53"/>
      </g>
     </g>
    </g>
    <g id="xtick_7">
     <g id="line2d_7">
      <path clip-path="url(#p1ca4bd4fbf)" d="M 378.3375 252 
L 378.3375 34.56 
" style="fill:none;stroke:#cccccc;stroke-linecap:round;stroke-width:0.8;"/>
     </g>
     <g id="text_7">
      <!-- 4.0 -->
      <g style="fill:#262626;" transform="translate(371.3875 266.157812)scale(0.1 -0.1)">
       <defs>
        <path d="M 32.328125 0 
L 32.328125 17.140625 
L 1.265625 17.140625 
L 1.265625 25.203125 
L 33.9375 71.578125 
L 41.109375 71.578125 
L 41.109375 25.203125 
L 50.78125 25.203125 
L 50.78125 17.140625 
L 41.109375 17.140625 
L 41.109375 0 
z
M 32.328125 25.203125 
L 32.328125 57.46875 
L 9.90625 25.203125 
z
" id="ArialMT-52"/>
       </defs>
       <use xlink:href="#ArialMT-52"/>
       <use x="55.615234" xlink:href="#ArialMT-46"/>
       <use x="83.398438" xlink:href="#ArialMT-48"/>
      </g>
     </g>
    </g>
    <g id="text_8">
     <!-- 1e−5 -->
     <g style="fill:#262626;" transform="translate(366.276563 278.303125)scale(0.1 -0.1)">
      <defs>
       <path d="M 42.09375 16.703125 
L 51.171875 15.578125 
Q 49.03125 7.625 43.21875 3.21875 
Q 37.40625 -1.171875 28.375 -1.171875 
Q 17 -1.171875 10.328125 5.828125 
Q 3.65625 12.84375 3.65625 25.484375 
Q 3.65625 38.578125 10.390625 45.796875 
Q 17.140625 53.03125 27.875 53.03125 
Q 38.28125 53.03125 44.875 45.953125 
Q 51.46875 38.875 51.46875 26.03125 
Q 51.46875 25.25 51.421875 23.6875 
L 12.75 23.6875 
Q 13.234375 15.140625 17.578125 10.59375 
Q 21.921875 6.0625 28.421875 6.0625 
Q 33.25 6.0625 36.671875 8.59375 
Q 40.09375 11.140625 42.09375 16.703125 
z
M 13.234375 30.90625 
L 42.1875 30.90625 
Q 41.609375 37.453125 38.875 40.71875 
Q 34.671875 45.796875 27.984375 45.796875 
Q 21.921875 45.796875 17.796875 41.75 
Q 13.671875 37.703125 13.234375 30.90625 
z
" id="ArialMT-101"/>
       <path d="M 52.828125 31.203125 
L 5.5625 31.203125 
L 5.5625 39.40625 
L 52.828125 39.40625 
z
" id="ArialMT-8722"/>
      </defs>
      <use xlink:href="#ArialMT-49"/>
      <use x="55.615234" xlink:href="#ArialMT-101"/>
      <use x="111.230469" xlink:href="#ArialMT-8722"/>
      <use x="169.628906" xlink:href="#ArialMT-53"/>
     </g>
    </g>
   </g>
   <g id="matplotlib.axis_2">
    <g id="ytick_1">
     <g id="line2d_8">
      <path clip-path="url(#p1ca4bd4fbf)" d="M 54 232.232727 
L 388.8 232.232727 
" style="fill:none;stroke:#cccccc;stroke-linecap:round;stroke-width:0.8;"/>
     </g>
     <g id="text_9">
      <!-- 0.007 -->
      <g style="fill:#262626;" transform="translate(21.978125 235.811634)scale(0.1 -0.1)">
       <defs>
        <path d="M 4.734375 62.203125 
L 4.734375 70.65625 
L 51.078125 70.65625 
L 51.078125 63.8125 
Q 44.234375 56.546875 37.515625 44.484375 
Q 30.8125 32.421875 27.15625 19.671875 
Q 24.515625 10.6875 23.78125 0 
L 14.75 0 
Q 14.890625 8.453125 18.0625 20.40625 
Q 21.234375 32.375 27.171875 43.484375 
Q 33.109375 54.59375 39.796875 62.203125 
z
" id="ArialMT-55"/>
       </defs>
       <use xlink:href="#ArialMT-48"/>
       <use x="55.615234" xlink:href="#ArialMT-46"/>
       <use x="83.398438" xlink:href="#ArialMT-48"/>
       <use x="139.013672" xlink:href="#ArialMT-48"/>
       <use x="194.628906" xlink:href="#ArialMT-55"/>
      </g>
     </g>
    </g>
    <g id="ytick_2">
     <g id="line2d_9">
      <path clip-path="url(#p1ca4bd4fbf)" d="M 54 192.698182 
L 388.8 192.698182 
" style="fill:none;stroke:#cccccc;stroke-linecap:round;stroke-width:0.8;"/>
     </g>
     <g id="text_10">
      <!-- 0.008 -->
      <g style="fill:#262626;" transform="translate(21.978125 196.277088)scale(0.1 -0.1)">
       <defs>
        <path d="M 17.671875 38.8125 
Q 12.203125 40.828125 9.5625 44.53125 
Q 6.9375 48.25 6.9375 53.421875 
Q 6.9375 61.234375 12.546875 66.546875 
Q 18.171875 71.875 27.484375 71.875 
Q 36.859375 71.875 42.578125 66.421875 
Q 48.296875 60.984375 48.296875 53.171875 
Q 48.296875 48.1875 45.671875 44.5 
Q 43.0625 40.828125 37.75 38.8125 
Q 44.34375 36.671875 47.78125 31.875 
Q 51.21875 27.09375 51.21875 20.453125 
Q 51.21875 11.28125 44.71875 5.03125 
Q 38.234375 -1.21875 27.640625 -1.21875 
Q 17.046875 -1.21875 10.546875 5.046875 
Q 4.046875 11.328125 4.046875 20.703125 
Q 4.046875 27.6875 7.59375 32.390625 
Q 11.140625 37.109375 17.671875 38.8125 
z
M 15.921875 53.71875 
Q 15.921875 48.640625 19.1875 45.40625 
Q 22.46875 42.1875 27.6875 42.1875 
Q 32.765625 42.1875 36.015625 45.375 
Q 39.265625 48.578125 39.265625 53.21875 
Q 39.265625 58.0625 35.90625 61.359375 
Q 32.5625 64.65625 27.59375 64.65625 
Q 22.5625 64.65625 19.234375 61.421875 
Q 15.921875 58.203125 15.921875 53.71875 
z
M 13.09375 20.65625 
Q 13.09375 16.890625 14.875 13.375 
Q 16.65625 9.859375 20.171875 7.921875 
Q 23.6875 6 27.734375 6 
Q 34.03125 6 38.125 10.046875 
Q 42.234375 14.109375 42.234375 20.359375 
Q 42.234375 26.703125 38.015625 30.859375 
Q 33.796875 35.015625 27.4375 35.015625 
Q 21.234375 35.015625 17.15625 30.90625 
Q 13.09375 26.8125 13.09375 20.65625 
z
" id="ArialMT-56"/>
       </defs>
       <use xlink:href="#ArialMT-48"/>
       <use x="55.615234" xlink:href="#ArialMT-46"/>
       <use x="83.398438" xlink:href="#ArialMT-48"/>
       <use x="139.013672" xlink:href="#ArialMT-48"/>
       <use x="194.628906" xlink:href="#ArialMT-56"/>
      </g>
     </g>
    </g>
    <g id="ytick_3">
     <g id="line2d_10">
      <path clip-path="url(#p1ca4bd4fbf)" d="M 54 153.163636 
L 388.8 153.163636 
" style="fill:none;stroke:#cccccc;stroke-linecap:round;stroke-width:0.8;"/>
     </g>
     <g id="text_11">
      <!-- 0.009 -->
      <g style="fill:#262626;" transform="translate(21.978125 156.742543)scale(0.1 -0.1)">
       <defs>
        <path d="M 5.46875 16.546875 
L 13.921875 17.328125 
Q 14.984375 11.375 18.015625 8.6875 
Q 21.046875 6 25.78125 6 
Q 29.828125 6 32.875 7.859375 
Q 35.9375 9.71875 37.890625 12.8125 
Q 39.84375 15.921875 41.15625 21.1875 
Q 42.484375 26.46875 42.484375 31.9375 
Q 42.484375 32.515625 42.4375 33.6875 
Q 39.796875 29.5 35.234375 26.875 
Q 30.671875 24.265625 25.34375 24.265625 
Q 16.453125 24.265625 10.296875 30.703125 
Q 4.15625 37.15625 4.15625 47.703125 
Q 4.15625 58.59375 10.578125 65.234375 
Q 17 71.875 26.65625 71.875 
Q 33.640625 71.875 39.421875 68.109375 
Q 45.21875 64.359375 48.21875 57.390625 
Q 51.21875 50.4375 51.21875 37.25 
Q 51.21875 23.53125 48.234375 15.40625 
Q 45.265625 7.28125 39.375 3.03125 
Q 33.5 -1.21875 25.59375 -1.21875 
Q 17.1875 -1.21875 11.859375 3.4375 
Q 6.546875 8.109375 5.46875 16.546875 
z
M 41.453125 48.140625 
Q 41.453125 55.71875 37.421875 60.15625 
Q 33.40625 64.59375 27.734375 64.59375 
Q 21.875 64.59375 17.53125 59.8125 
Q 13.1875 55.03125 13.1875 47.40625 
Q 13.1875 40.578125 17.3125 36.296875 
Q 21.4375 32.03125 27.484375 32.03125 
Q 33.59375 32.03125 37.515625 36.296875 
Q 41.453125 40.578125 41.453125 48.140625 
z
" id="ArialMT-57"/>
       </defs>
       <use xlink:href="#ArialMT-48"/>
       <use x="55.615234" xlink:href="#ArialMT-46"/>
       <use x="83.398438" xlink:href="#ArialMT-48"/>
       <use x="139.013672" xlink:href="#ArialMT-48"/>
       <use x="194.628906" xlink:href="#ArialMT-57"/>
      </g>
     </g>
    </g>
    <g id="ytick_4">
     <g id="line2d_11">
      <path clip-path="url(#p1ca4bd4fbf)" d="M 54 113.629091 
L 388.8 113.629091 
" style="fill:none;stroke:#cccccc;stroke-linecap:round;stroke-width:0.8;"/>
     </g>
     <g id="text_12">
      <!-- 0.010 -->
      <g style="fill:#262626;" transform="translate(21.978125 117.207997)scale(0.1 -0.1)">
       <use xlink:href="#ArialMT-48"/>
       <use x="55.615234" xlink:href="#ArialMT-46"/>
       <use x="83.398438" xlink:href="#ArialMT-48"/>
       <use x="139.013672" xlink:href="#ArialMT-49"/>
       <use x="194.628906" xlink:href="#ArialMT-48"/>
      </g>
     </g>
    </g>
    <g id="ytick_5">
     <g id="line2d_12">
      <path clip-path="url(#p1ca4bd4fbf)" d="M 54 74.094545 
L 388.8 74.094545 
" style="fill:none;stroke:#cccccc;stroke-linecap:round;stroke-width:0.8;"/>
     </g>
     <g id="text_13">
      <!-- 0.011 -->
      <g style="fill:#262626;" transform="translate(22.715625 77.673452)scale(0.1 -0.1)">
       <use xlink:href="#ArialMT-48"/>
       <use x="55.615234" xlink:href="#ArialMT-46"/>
       <use x="83.398438" xlink:href="#ArialMT-48"/>
       <use x="139.013672" xlink:href="#ArialMT-49"/>
       <use x="187.253906" xlink:href="#ArialMT-49"/>
      </g>
     </g>
    </g>
    <g id="ytick_6">
     <g id="line2d_13">
      <path clip-path="url(#p1ca4bd4fbf)" d="M 54 34.56 
L 388.8 34.56 
" style="fill:none;stroke:#cccccc;stroke-linecap:round;stroke-width:0.8;"/>
     </g>
     <g id="text_14">
      <!-- 0.012 -->
      <g style="fill:#262626;" transform="translate(21.978125 38.138906)scale(0.1 -0.1)">
       <use xlink:href="#ArialMT-48"/>
       <use x="55.615234" xlink:href="#ArialMT-46"/>
       <use x="83.398438" xlink:href="#ArialMT-48"/>
       <use x="139.013672" xlink:href="#ArialMT-49"/>
       <use x="194.628906" xlink:href="#ArialMT-50"/>
      </g>
     </g>
    </g>
   </g>
   <g id="line2d_14">
    <path clip-path="url(#p1ca4bd4fbf)" d="M 53.992137 181.152997 
L 54.188364 179.680884 
L 54.384591 183.107777 
L 54.580819 177.726141 
L 54.973274 181.152997 
L 55.169501 173.792465 
L 55.365728 171.35502 
L 55.561956 174.299248 
L 55.758183 173.792465 
L 55.95441 167.421381 
L 56.346865 163.029193 
L 56.543093 156.151289 
L 56.73932 158.130186 
L 56.935547 164.50127 
L 57.131775 164.983936 
L 57.52423 156.658072 
L 57.720457 159.095517 
L 58.112912 153.231215 
L 58.309139 154.703329 
L 58.897821 151.759101 
L 59.094049 144.398569 
L 59.290276 141.454341 
L 59.486504 141.454341 
L 59.878958 142.44379 
L 60.075186 143.915903 
L 60.271413 142.926455 
L 60.46764 150.286988 
L 61.056323 135.083257 
L 61.448777 141.454341 
L 61.645005 143.409121 
L 61.841232 138.510151 
L 62.03746 147.342797 
L 62.626142 143.409121 
L 62.822369 138.510151 
L 63.018597 139.982228 
L 63.214824 136.072705 
L 63.411051 134.600591 
L 63.803506 138.510151 
L 63.999734 138.027485 
L 64.392188 148.814874 
L 64.588416 146.860131 
L 64.98087 132.13903 
L 65.177098 133.128478 
L 65.373325 129.218955 
L 65.569553 131.173735 
L 65.76578 130.691069 
L 66.158235 111.57778 
L 66.354462 137.544819 
L 66.55069 139.982228 
L 66.746917 97.363497 
L 67.139372 120.386309 
L 67.531827 139.016933 
L 68.120509 105.689361 
L 68.316736 135.59004 
L 68.512964 122.341089 
L 68.709191 130.184287 
L 68.905418 104.699913 
L 69.101646 116.959453 
L 69.297873 111.070997 
L 69.4941 112.060445 
L 70.082783 77.767579 
L 70.475237 86.576108 
L 70.867692 98.835611 
L 71.06392 96.374049 
L 71.260147 95.408755 
L 71.456374 97.363497 
L 71.848829 120.868975 
L 72.045057 123.813203 
L 72.241284 117.442082 
L 72.437511 115.487339 
L 72.633739 112.060445 
L 72.829966 115.004673 
L 73.026194 124.802651 
L 73.222421 116.959453 
L 73.418648 100.307725 
L 73.614876 94.419307 
L 73.811103 103.734582 
L 74.00733 106.172027 
L 74.203558 112.060445 
L 74.596013 107.644141 
L 74.79224 104.699913 
L 74.988467 107.161475 
L 75.380922 115.487339 
L 75.57715 114.015225 
L 75.773377 115.004673 
L 75.969604 118.43153 
L 76.165832 115.970004 
L 76.362059 123.813203 
L 76.950741 104.699913 
L 77.343196 114.497891 
L 77.539424 128.229507 
L 77.735651 132.645849 
L 78.128106 129.701621 
L 78.716788 140.489047 
L 78.913015 142.926455 
L 79.109243 142.926455 
L 79.697925 128.229507 
L 79.894152 139.499599 
L 80.09038 140.489047 
L 80.286607 139.499599 
L 80.482834 136.072705 
L 80.679062 135.083257 
L 80.875289 136.072705 
L 81.267744 145.870683 
L 81.463971 142.44379 
L 81.660199 141.454341 
L 81.856426 143.409121 
L 82.248881 158.130186 
L 82.641336 153.231215 
L 82.837563 155.185995 
L 83.230018 145.388017 
L 83.426245 144.881235 
L 83.8187 157.140738 
L 84.014927 154.703329 
L 84.211155 155.185995 
L 84.407382 159.6023 
L 84.60361 160.084965 
L 84.799837 167.421381 
L 84.996064 166.938715 
L 85.388519 159.6023 
L 85.584747 159.6023 
L 85.977201 152.724433 
L 86.173429 151.252319 
L 86.958338 161.557079 
L 87.154566 162.522374 
L 87.350793 170.872391 
L 87.54702 170.365572 
L 87.743248 170.872391 
L 88.135703 161.05026 
L 88.33193 166.938715 
L 88.528157 166.456049 
L 88.724385 165.466601 
L 88.920612 165.466601 
L 89.11684 163.511822 
L 89.509294 167.928163 
L 89.901749 150.769653 
L 90.097977 148.332245 
L 90.294204 154.703329 
L 90.490431 153.713881 
L 90.686659 156.151289 
L 90.882886 154.703329 
L 91.079113 155.185995 
L 91.275341 163.994488 
L 91.471568 163.511822 
L 91.667796 160.084965 
L 92.06025 147.342797 
L 92.256478 153.231215 
L 92.452705 151.759101 
L 92.648933 155.185995 
L 93.041387 147.825426 
L 93.433842 135.59004 
L 93.63007 139.016933 
L 93.826297 138.510151 
L 94.022524 139.499599 
L 94.218752 137.544819 
L 94.414979 132.645849 
L 94.807434 137.062153 
L 95.003661 135.59004 
L 95.199889 126.757393 
L 95.396116 127.746842 
L 95.592343 126.757393 
L 95.788571 126.757393 
L 95.984798 132.645849 
L 96.377253 115.487339 
L 96.769708 123.330537 
L 96.965935 119.396861 
L 97.162163 118.914195 
L 97.35839 121.375757 
L 97.750845 113.532559 
L 97.947072 112.060445 
L 98.1433 111.57778 
L 98.535754 105.689361 
L 98.731982 107.644141 
L 98.928209 116.476787 
L 99.124437 117.948901 
L 99.713119 104.699913 
L 99.909346 108.126806 
L 100.105573 101.273056 
L 100.301801 104.699913 
L 100.498028 101.755685 
L 100.694256 92.947193 
L 100.890483 94.419307 
L 101.282938 105.689361 
L 101.479165 104.217247 
L 101.675393 101.755685 
L 101.87162 94.901935 
L 102.067847 97.363497 
L 102.264075 94.901935 
L 102.460302 93.936641 
L 102.852757 88.048185 
L 103.048984 95.408755 
L 103.245212 96.856715 
L 103.441439 89.03767 
L 103.833894 86.093443 
L 104.030121 85.103995 
L 104.226349 90.992413 
L 104.422576 90.992413 
L 104.618803 87.565557 
L 104.815031 88.048185 
L 105.011258 82.666549 
L 105.403713 80.204987 
L 105.59994 70.889712 
L 105.992395 80.687653 
L 106.188623 89.03767 
L 106.38485 89.520299 
L 106.777305 76.295465 
L 107.16976 90.002965 
L 107.562214 79.722359 
L 107.758442 72.361789 
L 107.954669 74.823351 
L 108.150897 82.159767 
L 108.347124 79.215539 
L 108.543351 82.159767 
L 108.739579 82.159767 
L 108.935806 73.833903 
L 109.132033 77.260797 
L 109.328261 78.73291 
L 109.524488 84.114546 
L 109.720716 81.194472 
L 109.916943 76.295465 
L 110.11317 65.508076 
L 110.309398 66.980153 
L 110.505625 70.407047 
L 110.701853 78.73291 
L 111.094307 76.295465 
L 111.290535 74.823351 
L 111.486762 75.788683 
L 111.68299 69.924381 
L 112.075444 77.767579 
L 112.271672 76.778131 
L 112.664126 89.520299 
L 112.860354 88.048185 
L 113.056581 77.767579 
L 113.252809 77.767579 
L 113.449036 85.103995 
L 113.841491 87.058737 
L 114.037718 87.058737 
L 114.233946 85.58666 
L 114.430173 90.002965 
L 114.822628 92.464527 
L 115.018855 90.002965 
L 115.215083 96.856715 
L 115.41131 96.856715 
L 115.607537 96.374049 
L 115.803765 100.790391 
L 115.999992 94.419307 
L 116.19622 93.429858 
L 116.392447 94.419307 
L 116.588674 102.262505 
L 116.981129 89.03767 
L 117.177356 94.901935 
L 117.373584 94.419307 
L 117.569811 98.835611 
L 117.766039 100.307725 
L 117.962266 99.318277 
L 118.158493 102.262505 
L 118.354721 96.374049 
L 118.550948 99.318277 
L 118.747176 94.419307 
L 119.13963 118.914195 
L 119.335858 112.060445 
L 119.532085 109.598883 
L 119.728313 109.598883 
L 120.316995 96.856715 
L 120.70945 105.206695 
L 120.905677 106.678809 
L 121.101904 99.318277 
L 121.298132 99.800943 
L 121.690586 105.689361 
L 121.886814 102.262505 
L 122.083041 108.633589 
L 122.279269 107.644141 
L 122.475496 111.070997 
L 122.671723 108.633589 
L 122.867951 107.644141 
L 123.064178 107.644141 
L 123.260406 111.070997 
L 123.456633 110.105703 
L 123.65286 112.543111 
L 123.849088 112.060445 
L 124.045315 111.070997 
L 124.241543 104.217247 
L 124.43777 101.755685 
L 124.633997 103.227799 
L 124.830225 106.678809 
L 125.026452 104.217247 
L 125.22268 96.856715 
L 125.418907 101.755685 
L 125.615134 109.598883 
L 126.007589 99.800943 
L 126.203816 95.408755 
L 126.792499 107.161475 
L 126.988726 105.206695 
L 127.184953 111.57778 
L 127.577408 113.049894 
L 127.773636 112.543111 
L 127.969863 105.206695 
L 128.16609 110.105703 
L 128.362318 109.116255 
L 128.558545 111.070997 
L 128.754773 110.105703 
L 129.147227 97.846163 
L 129.343455 99.800943 
L 129.539682 108.126806 
L 129.73591 108.633589 
L 129.932137 106.172027 
L 130.324592 99.318277 
L 130.520819 101.755685 
L 130.717046 99.800943 
L 130.913274 107.161475 
L 131.109501 108.126806 
L 131.501956 103.734582 
L 131.698183 99.800943 
L 131.894411 101.273056 
L 132.090638 107.644141 
L 132.286866 102.745133 
L 132.483093 101.755685 
L 133.071775 106.678809 
L 133.268003 105.206695 
L 133.46423 107.161475 
L 133.660457 112.543111 
L 134.052912 106.678809 
L 134.24914 106.678809 
L 134.445367 109.116255 
L 134.641594 116.959453 
L 134.837822 113.532559 
L 135.034049 119.903643 
L 135.426504 109.116255 
L 135.818959 113.532559 
L 136.015186 113.532559 
L 136.407641 123.330537 
L 136.800096 119.903643 
L 136.996323 121.375757 
L 137.19255 117.948901 
L 137.388778 111.070997 
L 137.585005 108.633589 
L 137.97746 117.948901 
L 138.173687 120.386309 
L 138.566142 106.678809 
L 138.76237 106.678809 
L 138.958597 104.217247 
L 139.154824 99.800943 
L 139.351052 100.790391 
L 139.547279 100.790391 
L 139.743506 101.755685 
L 139.939734 104.217247 
L 140.135961 102.262505 
L 140.332189 101.755685 
L 140.528416 104.217247 
L 140.724643 97.846163 
L 141.117098 106.172027 
L 141.313326 107.644141 
L 141.509553 110.588332 
L 141.70578 106.678809 
L 141.902008 105.689361 
L 142.098235 107.644141 
L 142.294463 111.57778 
L 142.49069 122.847871 
L 142.686917 124.319985 
L 142.883145 132.13903 
L 143.079372 131.173735 
L 143.275599 128.712173 
L 143.668054 117.442082 
L 143.864282 118.914195 
L 144.060509 132.13903 
L 144.452964 138.510151 
L 144.649191 135.59004 
L 144.845419 137.062153 
L 145.237873 143.915903 
L 145.630328 143.915903 
L 146.022783 144.881235 
L 146.21901 148.814874 
L 146.415238 147.825426 
L 146.611465 143.915903 
L 147.200147 159.6023 
L 147.592602 156.151289 
L 148.181284 162.522374 
L 148.377512 164.50127 
L 148.573739 170.365572 
L 148.966194 176.254027 
L 149.162421 173.309799 
L 149.358649 172.344468 
L 149.554876 172.344468 
L 149.751103 172.827134 
L 149.947331 184.097225 
L 150.143558 185.569339 
L 150.339786 173.792465 
L 150.536013 177.243475 
L 150.73224 174.781913 
L 150.928468 173.792465 
L 151.320923 179.680884 
L 151.51715 177.243475 
L 151.713377 173.309799 
L 151.909605 172.827134 
L 152.105832 173.309799 
L 152.498287 184.097225 
L 152.694514 181.635663 
L 152.890742 191.433604 
L 153.086969 194.377832 
L 153.283196 193.895166 
L 153.871879 175.771361 
L 154.068106 178.20877 
L 154.264333 186.051968 
L 154.460561 183.614559 
L 154.656788 185.569339 
L 154.853016 183.614559 
L 155.049243 177.243475 
L 155.24547 178.691436 
L 155.441698 184.579854 
L 155.637925 184.579854 
L 155.834153 187.524082 
L 156.03038 193.895166 
L 156.226607 195.849946 
L 156.422835 195.849946 
L 156.619062 194.884614 
L 156.815289 195.36728 
L 157.011517 198.794173 
L 157.207744 193.412537 
L 157.600199 200.748934 
L 157.796426 201.738382 
L 157.992654 199.783621 
L 158.385109 188.51353 
L 158.777563 198.311507 
L 158.973791 198.794173 
L 159.170018 194.884614 
L 159.562473 197.322059 
L 159.7587 200.266269 
L 159.954928 200.748934 
L 160.151155 200.748934 
L 160.347383 201.738382 
L 160.54361 200.266269 
L 160.739837 200.748934 
L 160.936065 204.682592 
L 161.132292 205.647905 
L 161.328519 198.311507 
L 161.524747 200.266269 
L 161.917202 212.019007 
L 162.113429 214.480551 
L 162.309656 206.637353 
L 162.505884 206.154706 
L 162.702111 206.637353 
L 162.898339 204.682592 
L 163.290793 210.546894 
L 163.487021 207.120019 
L 163.683248 205.647905 
L 163.879476 199.783621 
L 164.27193 205.647905 
L 164.468158 202.703695 
L 164.860613 210.064228 
L 165.05684 205.647905 
L 165.253067 213.491103 
L 165.449295 215.445882 
L 165.645522 212.019007 
L 165.841749 211.053676 
L 166.234204 219.862205 
L 166.430432 216.43533 
L 166.626659 216.43533 
L 166.822886 219.37954 
L 167.019114 216.43533 
L 167.215341 203.693144 
L 167.411569 205.165257 
L 167.804023 200.748934 
L 168.196478 212.019007 
L 168.392706 208.109467 
L 168.588933 212.52579 
L 168.981388 201.255717 
L 169.177615 205.647905 
L 169.373843 205.165257 
L 169.57007 208.592132 
L 169.766297 206.637353 
L 169.962525 203.210478 
L 170.158752 206.154706 
L 170.354979 213.973768 
L 170.747434 215.952665 
L 171.139889 221.816967 
L 171.532344 213.491103 
L 171.728571 213.973768 
L 171.924799 214.963217 
L 172.317253 203.210478 
L 172.513481 204.682592 
L 173.102163 218.390092 
L 173.29839 213.491103 
L 173.494618 222.323749 
L 174.279527 210.064228 
L 174.475755 209.581581 
L 174.671982 206.154706 
L 174.868209 207.120019 
L 175.064437 206.637353 
L 175.260664 201.255717 
L 175.456892 200.266269 
L 175.653119 203.210478 
L 175.849346 208.109467 
L 176.045574 208.109467 
L 176.241801 207.626801 
L 176.438029 203.210478 
L 176.634256 212.52579 
L 176.830483 213.491103 
L 177.026711 217.907426 
L 177.419166 208.592132 
L 177.615393 208.592132 
L 178.007848 197.322059 
L 178.400302 193.412537 
L 178.59653 193.412537 
L 178.792757 205.165257 
L 178.988985 206.637353 
L 179.381439 215.445882 
L 179.577667 211.053676 
L 179.773894 212.019007 
L 179.970122 218.390092 
L 180.166349 214.480551 
L 180.362576 214.963217 
L 180.558804 214.480551 
L 180.951259 219.862205 
L 181.147486 214.480551 
L 181.343713 217.424779 
L 181.539941 217.907426 
L 181.736168 213.973768 
L 181.932396 217.907426 
L 182.128623 212.019007 
L 182.32485 213.008455 
L 182.521078 216.43533 
L 182.717305 215.445882 
L 182.913532 217.907426 
L 183.10976 222.806415 
L 183.305987 222.806415 
L 183.502215 224.761176 
L 184.090897 218.390092 
L 184.287124 212.52579 
L 184.483352 215.445882 
L 184.679579 225.267977 
L 184.875806 225.267977 
L 185.072034 221.334301 
L 185.268261 214.963217 
L 185.464489 224.278529 
L 186.053171 220.344853 
L 186.249398 215.445882 
L 186.445626 221.816967 
L 186.641853 223.795863 
L 186.83808 221.334301 
L 187.230535 210.064228 
L 187.62299 218.896874 
L 187.819217 213.973768 
L 188.015445 218.390092 
L 188.211672 218.390092 
L 188.407899 215.952665 
L 188.604127 215.445882 
L 188.800354 213.491103 
L 188.996582 214.963217 
L 189.389036 225.750624 
L 189.585264 221.334301 
L 189.781491 220.344853 
L 190.173946 215.445882 
L 190.370173 215.952665 
L 190.566401 220.851654 
L 190.762628 215.952665 
L 190.958856 207.626801 
L 191.155083 207.120019 
L 191.547538 214.480551 
L 191.743765 211.536342 
L 191.939992 213.491103 
L 192.13622 212.52579 
L 192.528675 204.682592 
L 192.724902 207.120019 
L 193.117357 214.963217 
L 193.313584 218.390092 
L 193.509812 219.37954 
L 194.098494 208.592132 
L 194.687176 211.053676 
L 194.883403 206.154706 
L 195.275858 210.546894 
L 195.472086 215.952665 
L 195.668313 213.973768 
L 195.86454 205.165257 
L 196.060768 204.682592 
L 196.256995 211.053676 
L 196.453222 213.008455 
L 196.64945 210.064228 
L 196.845677 201.255717 
L 197.041905 205.647905 
L 197.238132 205.647905 
L 197.434359 208.592132 
L 197.630587 209.581581 
L 197.826814 204.682592 
L 198.611724 210.064228 
L 199.004179 202.703695 
L 199.200406 198.311507 
L 199.396633 202.22103 
L 199.592861 209.07478 
L 200.181543 212.019007 
L 200.37777 211.536342 
L 200.573998 215.952665 
L 200.770225 216.43533 
L 200.966452 204.682592 
L 201.16268 200.266269 
L 201.358907 203.693144 
L 201.555135 212.52579 
L 201.751362 215.445882 
L 201.947589 211.536342 
L 202.143817 212.52579 
L 202.536272 196.839394 
L 202.732499 203.210478 
L 202.928726 205.647905 
L 203.124954 202.22103 
L 203.321181 202.22103 
L 203.713636 206.154706 
L 203.909863 199.783621 
L 204.106091 198.311507 
L 204.302318 199.276802 
L 204.694773 195.849946 
L 204.891 199.276802 
L 205.087228 200.266269 
L 205.283455 198.311507 
L 205.67591 209.07478 
L 206.068365 201.738382 
L 206.264592 209.581581 
L 206.460819 207.626801 
L 206.853274 198.794173 
L 207.245729 206.637353 
L 207.441956 197.322059 
L 207.638184 198.794173 
L 207.834411 193.412537 
L 208.030639 192.423052 
L 208.226866 203.210478 
L 208.423093 199.276802 
L 208.619321 200.266269 
L 209.011775 205.647905 
L 209.208003 205.165257 
L 209.40423 208.109467 
L 209.796685 197.322059 
L 209.992912 196.839394 
L 210.385367 204.682592 
L 210.581595 203.693144 
L 210.777822 198.794173 
L 210.974049 199.783621 
L 211.170277 208.592132 
L 211.366504 206.637353 
L 211.562732 202.703695 
L 211.758959 209.07478 
L 211.955186 202.703695 
L 212.151414 200.748934 
L 212.347641 201.255717 
L 212.543869 200.748934 
L 212.740096 207.120019 
L 212.936323 205.165257 
L 213.328778 194.884614 
L 213.721233 203.693144 
L 213.91746 201.255717 
L 214.113688 192.905718 
L 214.309915 199.783621 
L 214.506142 195.849946 
L 214.70237 203.210478 
L 214.898597 203.210478 
L 215.094825 200.748934 
L 215.291052 200.266269 
L 215.487279 200.266269 
L 215.683507 193.895166 
L 216.075962 203.210478 
L 216.272189 198.311507 
L 216.468416 200.266269 
L 216.860871 213.973768 
L 217.057099 213.973768 
L 217.253326 205.165257 
L 217.449553 204.175809 
L 217.645781 200.266269 
L 217.842008 207.120019 
L 218.234463 203.693144 
L 218.43069 198.794173 
L 218.626918 201.255717 
L 218.823145 205.647905 
L 219.019372 199.276802 
L 219.2156 199.783621 
L 219.411827 214.963217 
L 219.608055 213.008455 
L 219.804282 208.109467 
L 220.000509 206.154706 
L 220.196737 195.36728 
L 220.589192 200.748934 
L 220.785419 200.266269 
L 220.981646 206.154706 
L 221.177874 200.266269 
L 221.374101 198.311507 
L 221.570329 193.412537 
L 221.962783 201.255717 
L 222.159011 194.377832 
L 222.355238 194.377832 
L 222.551465 193.895166 
L 222.747693 196.332611 
L 222.94392 193.412537 
L 223.140148 183.107777 
L 223.336375 210.064228 
L 223.532602 215.952665 
L 223.72883 171.837686 
L 224.513739 231.614926 
L 224.906194 207.120019 
L 225.102422 198.794173 
L 225.298649 225.267977 
L 225.494876 214.963217 
L 225.691104 223.795863 
L 225.887331 196.332611 
L 226.083559 211.053676 
L 226.279786 204.682592 
L 226.476013 204.682592 
L 226.672241 192.423052 
L 226.868468 188.006747 
L 227.064695 180.670332 
L 227.260923 180.163549 
L 227.45715 181.152997 
L 227.849605 190.950975 
L 228.24206 185.06252 
L 228.438287 188.006747 
L 228.830742 216.43533 
L 229.419424 200.266269 
L 230.008106 218.390092 
L 230.793016 187.524082 
L 230.989243 188.996196 
L 231.577925 196.839394 
L 231.774153 192.905718 
L 232.362835 212.019007 
L 232.951517 186.534634 
L 233.147745 190.468309 
L 233.343972 188.51353 
L 233.540199 193.412537 
L 233.736427 182.625111 
L 233.932654 180.670332 
L 234.128882 180.163549 
L 234.521336 188.006747 
L 234.717564 186.051968 
L 234.913791 193.412537 
L 235.110019 196.332611 
L 235.306246 196.839394 
L 235.698701 212.019007 
L 235.894928 213.973768 
L 236.091155 209.581581 
L 236.287383 202.22103 
L 236.48361 201.738382 
L 236.679838 198.794173 
L 236.876065 193.412537 
L 237.072292 198.794173 
L 237.26852 194.377832 
L 237.464747 194.884614 
L 237.857202 185.569339 
L 238.053429 187.041416 
L 238.249657 191.940423 
L 238.445884 189.985644 
L 239.034566 203.693144 
L 239.230794 197.804725 
L 239.427021 201.255717 
L 239.623248 193.412537 
L 239.819476 192.423052 
L 240.211931 195.36728 
L 240.408158 191.940423 
L 240.604385 194.377832 
L 240.800613 193.895166 
L 240.99684 194.377832 
L 241.193068 199.276802 
L 241.389295 198.794173 
L 241.585522 208.109467 
L 241.78175 201.738382 
L 241.977977 201.255717 
L 242.370432 197.322059 
L 242.566659 197.322059 
L 242.762887 195.849946 
L 243.155342 200.748934 
L 243.351569 199.276802 
L 243.744024 204.175809 
L 243.940251 194.377832 
L 244.136478 199.783621 
L 244.332706 194.884614 
L 244.528933 194.377832 
L 245.117615 208.109467 
L 245.313843 208.109467 
L 245.706298 201.738382 
L 246.098752 207.120019 
L 246.491207 204.175809 
L 246.687435 205.647905 
L 247.079889 195.36728 
L 247.276117 191.940423 
L 247.472344 193.895166 
L 247.668572 202.22103 
L 247.864799 200.266269 
L 248.061026 194.884614 
L 248.257254 195.849946 
L 248.453481 194.884614 
L 248.649708 200.748934 
L 248.845936 198.794173 
L 249.042163 199.783621 
L 249.434618 189.478861 
L 249.630845 192.905718 
L 249.827073 190.468309 
L 250.0233 191.433604 
L 250.219528 187.524082 
L 250.415755 192.905718 
L 250.611982 189.985644 
L 250.80821 189.478861 
L 251.200665 190.468309 
L 251.396892 190.468309 
L 251.789347 196.332611 
L 252.181802 192.905718 
L 252.378029 201.255717 
L 252.574256 200.748934 
L 252.770484 198.794173 
L 252.966711 193.895166 
L 253.162938 193.895166 
L 253.555393 183.614559 
L 253.751621 188.51353 
L 253.947848 188.006747 
L 254.144075 190.950975 
L 254.340303 195.849946 
L 254.53653 193.412537 
L 254.732758 188.006747 
L 254.928985 191.940423 
L 255.125212 188.996196 
L 255.32144 193.412537 
L 255.517667 192.423052 
L 255.910122 186.051968 
L 256.106349 186.051968 
L 256.302577 186.534634 
L 256.498804 184.579854 
L 256.695032 185.06252 
L 256.891259 183.107777 
L 257.283714 192.905718 
L 257.479941 199.783621 
L 257.676168 196.332611 
L 257.872396 186.051968 
L 258.068623 191.940423 
L 258.657305 189.478861 
L 258.853533 181.635663 
L 259.04976 191.433604 
L 259.442215 197.322059 
L 259.638442 194.884614 
L 259.83467 190.468309 
L 260.030897 181.152997 
L 260.423352 191.940423 
L 261.208262 185.569339 
L 261.600716 188.51353 
L 261.796944 193.895166 
L 262.189398 192.423052 
L 262.385626 192.423052 
L 262.581853 193.412537 
L 262.778081 202.22103 
L 263.170535 190.468309 
L 263.56299 197.804725 
L 263.955445 186.051968 
L 264.151672 187.524082 
L 264.3479 188.006747 
L 264.544127 192.423052 
L 264.740355 187.524082 
L 264.936582 191.940423 
L 265.132809 189.985644 
L 265.329037 184.579854 
L 265.721492 194.377832 
L 265.917719 187.524082 
L 266.310174 198.311507 
L 266.506401 198.794173 
L 266.702628 190.950975 
L 266.898856 193.412537 
L 267.095083 193.895166 
L 267.291311 188.006747 
L 267.487538 188.51353 
L 267.683765 192.423052 
L 267.879993 192.905718 
L 268.07622 183.107777 
L 268.468675 177.243475 
L 268.664902 184.579854 
L 268.86113 187.041416 
L 269.057357 193.895166 
L 269.253585 191.940423 
L 269.449812 188.006747 
L 269.646039 188.51353 
L 269.842267 186.051968 
L 270.038494 187.041416 
L 270.234721 194.377832 
L 270.430949 188.51353 
L 270.627176 178.691436 
L 270.823404 179.680884 
L 271.215858 188.51353 
L 271.412086 179.680884 
L 271.608313 182.142446 
L 272.000768 191.433604 
L 272.393223 194.377832 
L 272.785678 184.579854 
L 272.981905 183.107777 
L 273.37436 188.51353 
L 273.570587 189.985644 
L 273.766815 187.041416 
L 273.963042 181.635663 
L 274.159269 188.51353 
L 274.355497 187.041416 
L 274.551724 188.996196 
L 274.944179 182.625111 
L 275.140406 185.569339 
L 275.336634 190.950975 
L 275.532861 189.478861 
L 275.729088 191.940423 
L 275.925316 188.996196 
L 276.121543 188.006747 
L 276.317771 190.468309 
L 276.513998 182.625111 
L 276.710225 184.097225 
L 276.906453 184.097225 
L 277.298908 187.524082 
L 277.495135 184.579854 
L 277.691362 185.06252 
L 277.88759 190.950975 
L 278.280045 181.152997 
L 278.868727 177.243475 
L 279.064954 190.950975 
L 279.261181 192.905718 
L 279.457409 187.524082 
L 279.653636 186.051968 
L 279.849864 180.163549 
L 280.242318 187.041416 
L 280.438546 181.152997 
L 280.634773 187.524082 
L 280.831001 187.524082 
L 281.027228 190.950975 
L 281.223455 180.670332 
L 281.419683 178.20877 
L 281.812138 195.849946 
L 282.008365 196.332611 
L 282.204592 198.794173 
L 282.40082 193.412537 
L 282.989502 188.006747 
L 283.185729 194.884614 
L 283.381957 187.524082 
L 283.578184 186.534634 
L 283.774411 190.950975 
L 283.970639 182.142446 
L 284.363094 190.468309 
L 284.559321 185.06252 
L 284.755548 186.534634 
L 284.951776 187.041416 
L 285.148003 182.142446 
L 285.344231 189.985644 
L 285.736685 187.041416 
L 285.932913 187.524082 
L 286.325368 189.478861 
L 286.521595 189.478861 
L 286.717822 187.041416 
L 286.91405 187.524082 
L 287.110277 188.996196 
L 287.306505 188.51353 
L 287.502732 193.412537 
L 287.698959 189.985644 
L 287.895187 191.940423 
L 288.091414 191.433604 
L 288.483869 188.996196 
L 288.680096 194.377832 
L 288.876324 194.884614 
L 289.072551 193.895166 
L 289.268778 186.051968 
L 289.465006 186.051968 
L 289.661233 184.579854 
L 289.857461 184.097225 
L 290.053688 188.006747 
L 290.249915 189.478861 
L 290.446143 196.332611 
L 290.64237 199.276802 
L 290.838598 199.276802 
L 291.034825 192.905718 
L 291.231052 191.433604 
L 291.623507 187.041416 
L 291.819735 184.579854 
L 292.015962 184.579854 
L 292.212189 179.680884 
L 292.408417 182.625111 
L 292.800871 194.377832 
L 292.997099 195.849946 
L 293.193326 185.06252 
L 293.389554 180.670332 
L 293.585781 188.996196 
L 293.782008 188.51353 
L 293.978236 192.905718 
L 294.174463 194.377832 
L 294.763145 191.940423 
L 294.959373 191.940423 
L 295.1556 193.412537 
L 295.351828 188.51353 
L 295.744282 194.884614 
L 295.94051 194.884614 
L 296.136737 198.794173 
L 296.529192 200.266269 
L 296.725419 191.433604 
L 296.921647 197.322059 
L 297.314101 192.423052 
L 297.510329 186.534634 
L 297.706556 192.905718 
L 297.902784 187.524082 
L 298.491466 197.804725 
L 298.687693 189.985644 
L 298.883921 193.412537 
L 299.080148 194.377832 
L 299.472603 189.478861 
L 299.66883 187.524082 
L 300.061285 196.332611 
L 300.257512 188.51353 
L 300.45374 194.377832 
L 300.846195 186.051968 
L 301.042422 186.051968 
L 301.238649 184.579854 
L 301.631104 194.377832 
L 301.827331 195.849946 
L 302.219786 192.423052 
L 302.416014 190.468309 
L 302.612241 191.940423 
L 302.808468 194.377832 
L 303.004696 192.905718 
L 303.200923 196.332611 
L 303.397151 195.36728 
L 303.593378 192.905718 
L 303.789605 187.041416 
L 303.985833 188.006747 
L 304.18206 187.524082 
L 304.378288 188.996196 
L 304.574515 186.534634 
L 304.770742 187.041416 
L 304.96697 190.468309 
L 305.163197 188.996196 
L 305.555652 196.839394 
L 305.751879 190.950975 
L 305.948107 195.36728 
L 306.144334 204.175809 
L 306.340561 203.210478 
L 306.536789 204.682592 
L 306.733016 199.783621 
L 306.929244 201.255717 
L 307.125471 203.693144 
L 307.321698 197.322059 
L 307.517926 195.36728 
L 307.714153 196.332611 
L 307.910381 195.849946 
L 308.106608 200.266269 
L 308.302835 198.794173 
L 308.499063 204.175809 
L 308.69529 202.22103 
L 308.891518 202.22103 
L 309.087745 205.165257 
L 309.283972 203.693144 
L 309.4802 204.175809 
L 309.676427 205.647905 
L 309.872654 212.52579 
L 310.068882 204.682592 
L 310.265109 207.626801 
L 310.461337 208.109467 
L 310.657564 203.693144 
L 310.853791 206.154706 
L 311.050019 203.693144 
L 311.246246 205.647905 
L 311.442474 205.165257 
L 311.834928 214.480551 
L 312.227383 205.647905 
L 312.423611 207.120019 
L 312.619838 204.682592 
L 312.816065 205.165257 
L 313.012293 209.07478 
L 313.20852 208.592132 
L 313.404748 210.546894 
L 313.600975 207.626801 
L 313.797202 208.109467 
L 313.99343 210.064228 
L 314.189657 205.165257 
L 314.385884 204.682592 
L 314.582112 211.053676 
L 314.778339 212.52579 
L 315.170794 199.783621 
L 315.367021 199.783621 
L 315.563249 213.491103 
L 315.759476 213.973768 
L 315.955704 215.952665 
L 316.151931 214.480551 
L 316.348158 214.963217 
L 316.544386 209.581581 
L 316.740613 208.592132 
L 317.133068 215.952665 
L 317.329295 215.952665 
L 317.525523 219.862205 
L 317.72175 220.344853 
L 317.917978 218.390092 
L 318.114205 213.973768 
L 318.310432 214.480551 
L 318.50666 211.053676 
L 318.702887 211.536342 
L 318.899114 222.806415 
L 319.095342 226.715937 
L 319.291569 226.715937 
L 319.487797 210.064228 
L 319.684024 216.43533 
L 319.880251 213.491103 
L 320.076479 214.480551 
L 320.468934 218.390092 
L 320.665161 223.795863 
L 321.057616 212.019007 
L 321.253843 211.053676 
L 321.450071 213.008455 
L 321.646298 213.491103 
L 321.842525 208.592132 
L 322.038753 208.109467 
L 322.431208 206.154706 
L 322.627435 206.154706 
L 322.823662 207.626801 
L 323.01989 206.154706 
L 323.216117 213.008455 
L 323.412344 212.019007 
L 323.608572 210.064228 
L 323.804799 213.008455 
L 324.001027 210.064228 
L 324.197254 212.019007 
L 324.393481 212.52579 
L 324.589709 212.019007 
L 324.785936 212.52579 
L 324.982164 212.52579 
L 325.178391 213.008455 
L 325.374618 219.37954 
L 325.570846 213.491103 
L 325.767073 213.973768 
L 325.963301 209.07478 
L 326.355755 223.795863 
L 326.944438 204.175809 
L 327.140665 205.647905 
L 327.336892 212.52579 
L 327.53312 215.445882 
L 327.729347 214.963217 
L 327.925574 213.973768 
L 328.121802 210.064228 
L 328.318029 209.07478 
L 328.514257 213.973768 
L 328.710484 226.715937 
L 329.102939 221.334301 
L 329.299166 217.907426 
L 329.495394 209.581581 
L 329.691621 209.581581 
L 329.887848 211.053676 
L 330.084076 208.109467 
L 330.280303 208.109467 
L 330.476531 201.255717 
L 330.672758 198.794173 
L 330.868985 211.053676 
L 331.065213 213.973768 
L 331.26144 202.22103 
L 331.653895 198.794173 
L 332.04635 208.592132 
L 332.242577 201.738382 
L 332.438804 200.748934 
L 332.831259 203.210478 
L 333.027487 211.536342 
L 333.223714 212.019007 
L 333.419941 207.626801 
L 333.616169 206.637353 
L 333.812396 213.008455 
L 334.008624 212.019007 
L 334.401078 203.210478 
L 334.597306 204.682592 
L 335.185988 222.323749 
L 335.382215 211.053676 
L 335.578443 207.120019 
L 335.77467 207.626801 
L 335.970897 215.445882 
L 336.167125 215.445882 
L 336.363352 213.008455 
L 336.55958 208.592132 
L 336.755807 208.592132 
L 336.952034 202.22103 
L 337.344489 215.952665 
L 337.736944 201.255717 
L 337.933171 198.311507 
L 338.129399 201.738382 
L 338.325626 208.592132 
L 338.521854 205.647905 
L 338.718081 204.682592 
L 339.110536 210.064228 
L 339.306763 207.626801 
L 339.699218 215.952665 
L 339.895445 218.896874 
L 340.091673 218.896874 
L 340.2879 219.37954 
L 340.876582 223.28908 
L 341.07281 223.28908 
L 341.269037 218.390092 
L 341.465264 218.896874 
L 341.661492 218.390092 
L 341.857719 220.344853 
L 342.053947 224.278529 
L 342.642629 215.445882 
L 343.035084 224.761176 
L 343.231311 224.278529 
L 343.427538 218.896874 
L 343.623766 217.424779 
L 343.819993 213.491103 
L 344.016221 222.323749 
L 344.80113 211.536342 
L 344.997357 212.019007 
L 345.193585 207.626801 
L 345.389812 206.637353 
L 345.782267 213.973768 
L 345.978494 218.896874 
L 346.370949 216.43533 
L 346.567177 215.445882 
L 346.763404 216.917978 
L 346.959631 220.344853 
L 347.155859 218.896874 
L 347.352086 219.862205 
L 347.548314 215.445882 
L 347.744541 217.424779 
L 348.333223 213.008455 
L 348.529451 214.480551 
L 348.725678 207.626801 
L 349.118133 201.738382 
L 349.510587 213.973768 
L 349.903042 207.120019 
L 350.295497 208.109467 
L 350.491724 213.491103 
L 350.687952 204.682592 
L 350.884179 204.175809 
L 351.080407 216.917978 
L 351.669089 209.581581 
L 351.865316 210.546894 
L 352.257771 207.120019 
L 352.453998 209.581581 
L 352.650226 214.480551 
L 352.846453 214.963217 
L 353.042681 214.480551 
L 353.238908 205.165257 
L 353.435135 203.210478 
L 353.631363 199.783621 
L 354.023817 206.154706 
L 354.220045 200.266269 
L 354.416272 203.210478 
L 354.6125 192.905718 
L 354.808727 191.433604 
L 355.004954 185.569339 
L 355.201182 187.041416 
L 355.397409 191.433604 
L 355.593637 188.51353 
L 355.789864 189.478861 
L 356.182319 178.20877 
L 356.378546 174.299248 
L 356.574774 173.792465 
L 356.771001 176.254027 
L 357.163456 191.940423 
L 357.948365 178.20877 
L 358.144593 181.635663 
L 358.34082 177.726141 
L 358.537047 179.680884 
L 358.929502 194.377832 
L 359.12573 199.276802 
L 359.321957 193.412537 
L 359.518184 191.940423 
L 359.910639 197.322059 
L 360.106867 196.332611 
L 360.303094 196.332611 
L 360.695549 191.940423 
L 360.891776 193.412537 
L 361.088004 195.849946 
L 361.284231 191.940423 
L 361.480458 193.895166 
L 361.676686 179.198218 
L 361.872913 183.107777 
L 362.069141 184.579854 
L 362.265368 188.006747 
L 362.461595 188.006747 
L 362.85405 180.670332 
L 363.050277 181.635663 
L 363.442732 174.781913 
L 363.835187 186.051968 
L 364.031414 184.579854 
L 364.227642 191.940423 
L 364.423869 191.433604 
L 364.620097 191.940423 
L 364.816324 196.839394 
L 365.012551 192.423052 
L 365.208779 196.332611 
L 365.405006 193.412537 
L 365.797461 199.783621 
L 365.993688 200.266269 
L 366.189916 204.682592 
L 366.58237 191.940423 
L 366.778598 190.950975 
L 366.974825 197.322059 
L 367.171053 198.794173 
L 367.36728 197.322059 
L 367.563507 188.996196 
L 367.759735 187.041416 
L 367.955962 190.468309 
L 368.15219 199.783621 
L 368.544644 188.51353 
L 368.740872 188.006747 
L 368.937099 180.670332 
L 369.329554 188.006747 
L 369.722009 182.142446 
L 369.918236 172.344468 
L 370.703146 193.412537 
L 370.899373 195.849946 
L 371.0956 194.884614 
L 371.291828 194.884614 
L 371.488055 192.423052 
L 371.684283 196.839394 
L 372.076737 199.276802 
L 372.272965 204.682592 
L 372.66542 193.895166 
L 372.861647 199.276802 
L 373.057874 188.51353 
L 373.254102 187.524082 
L 373.646557 193.895166 
L 373.842784 190.468309 
L 374.235239 190.468309 
L 374.431466 192.905718 
L 374.627694 192.423052 
L 374.823921 190.950975 
L 375.020148 179.680884 
L 375.412603 185.569339 
L 375.60883 184.579854 
L 375.805058 180.163549 
L 376.001285 180.670332 
L 376.197513 177.243475 
L 376.39374 177.243475 
L 376.786195 191.433604 
L 377.17865 185.569339 
L 377.374877 185.569339 
L 377.571104 195.36728 
L 377.963559 188.51353 
L 378.159787 190.468309 
L 378.356014 197.804725 
L 378.552241 190.468309 
L 378.748469 188.51353 
L 378.944696 183.107777 
L 379.140924 187.524082 
L 379.337151 185.06252 
L 380.12206 157.623403 
L 380.318288 185.06252 
L 380.514515 190.950975 
L 380.710743 144.398569 
L 381.103197 154.703329 
L 381.495652 196.332611 
L 382.084334 152.241767 
L 382.280562 178.691436 
L 382.476789 165.973384 
L 382.673017 174.781913 
L 382.869244 141.961124 
L 383.261699 139.982228 
L 383.457926 144.881235 
L 383.654154 133.128478 
L 383.850381 131.173735 
L 384.046608 124.319985 
L 384.439063 132.645849 
L 384.63529 140.971676 
L 384.831518 140.489047 
L 385.027745 135.59004 
L 385.223973 127.240059 
L 385.4202 128.712173 
L 385.812655 163.029193 
L 386.20511 158.612851 
L 386.597564 142.44379 
L 386.793792 146.353349 
L 386.990019 147.342797 
L 387.186247 139.499599 
L 387.382474 125.767945 
L 387.578701 121.375757 
L 387.774929 126.274728 
L 387.971156 136.555371 
L 388.167384 140.971676 
L 388.559838 130.691069 
L 388.756066 126.757393 
L 388.952293 129.701621 
L 388.952293 129.701621 
" style="fill:none;stroke:#1f77b4;stroke-linecap:round;stroke-width:1.5;"/>
   </g>
   <g id="line2d_15">
    <path clip-path="url(#p1ca4bd4fbf)" d="M 53.992137 212.043124 
L 54.188364 208.616249 
L 54.384591 212.043124 
L 54.580819 209.098915 
L 54.777046 209.605716 
L 54.973274 214.987352 
L 55.169501 211.053676 
L 55.758183 193.895166 
L 55.95441 198.794173 
L 56.150638 199.783621 
L 56.346865 206.154706 
L 56.543093 207.144154 
L 56.935547 216.942113 
L 57.131775 211.560477 
L 57.328002 216.459447 
L 57.52423 214.504686 
L 57.720457 216.942113 
L 57.916684 211.560477 
L 58.112912 210.088363 
L 58.505367 204.199926 
L 58.701594 208.133602 
L 58.897821 207.144154 
L 59.094049 208.616249 
L 59.290276 213.515238 
L 59.486504 214.987352 
L 59.878958 205.189374 
L 60.271413 217.448914 
L 60.663868 209.605716 
L 61.056323 211.053676 
L 61.25255 214.987352 
L 61.448777 224.809446 
L 61.645005 225.774759 
L 62.03746 216.459447 
L 62.233687 211.053676 
L 62.626142 212.52579 
L 62.822369 218.921009 
L 63.018597 220.875789 
L 63.214824 217.448914 
L 63.411051 216.942113 
L 63.607279 219.886322 
L 63.803506 216.459447 
L 64.195961 208.133602 
L 64.392188 203.717279 
L 64.784643 219.403675 
L 64.98087 218.414227 
L 65.177098 218.921009 
L 65.373325 220.875789 
L 65.569553 220.393123 
L 65.76578 214.987352 
L 65.962007 217.448914 
L 66.158235 182.625111 
L 66.943144 231.663196 
L 67.139372 234.607405 
L 67.335599 211.053676 
L 67.531827 204.682592 
L 67.924281 235.596853 
L 68.120509 241.967956 
L 68.709191 182.625111 
L 69.297873 213.997904 
L 69.4941 208.133602 
L 69.690328 209.098915 
L 69.886555 202.727831 
L 70.082783 203.717279 
L 70.475237 218.921009 
L 70.671465 214.504686 
L 71.06392 200.266269 
L 71.260147 200.773051 
L 71.456374 213.997904 
L 71.652602 208.133602 
L 71.848829 207.144154 
L 72.045057 192.423052 
L 72.241284 189.985644 
L 72.633739 206.661488 
L 72.829966 207.144154 
L 73.026194 205.67204 
L 73.222421 205.67204 
L 73.418648 208.616249 
L 74.00733 229.225769 
L 74.203558 227.246873 
L 74.399785 223.819998 
L 74.596013 211.560477 
L 74.79224 212.043124 
L 74.988467 208.133602 
L 75.184695 200.266269 
L 75.380922 201.255717 
L 75.57715 195.36728 
L 75.773377 195.849946 
L 76.165832 207.626801 
L 76.362059 209.098915 
L 76.558287 206.661488 
L 76.754514 206.154706 
L 76.950741 208.133602 
L 77.343196 220.393123 
L 77.539424 221.865237 
L 78.128106 207.144154 
L 78.324333 209.605716 
L 78.52056 207.144154 
L 78.716788 208.616249 
L 78.913015 214.504686 
L 79.109243 213.032591 
L 79.30547 215.469999 
L 79.501697 212.043124 
L 80.09038 217.931561 
L 80.286607 212.043124 
L 80.875289 231.18053 
L 81.267744 207.626801 
L 81.463971 201.255717 
L 81.660199 204.199926 
L 82.052653 203.210478 
L 82.248881 204.682592 
L 82.445108 201.255717 
L 82.641336 199.783621 
L 82.837563 209.605716 
L 83.230018 215.469999 
L 83.426245 217.931561 
L 83.622473 217.448914 
L 83.8187 210.088363 
L 84.014927 209.605716 
L 84.211155 217.448914 
L 84.407382 215.9768 
L 84.799837 202.727831 
L 84.996064 202.245165 
L 85.192292 208.616249 
L 85.388519 206.661488 
L 85.584747 208.133602 
L 85.780974 210.571029 
L 85.977201 206.661488 
L 86.369656 209.098915 
L 86.565883 206.154706 
L 86.762111 207.144154 
L 86.958338 213.032591 
L 87.154566 215.469999 
L 87.350793 213.997904 
L 87.54702 220.393123 
L 87.743248 219.886322 
L 87.939475 215.9768 
L 88.135703 214.504686 
L 88.33193 217.448914 
L 88.724385 200.773051 
L 88.920612 211.560477 
L 89.11684 206.661488 
L 89.313067 204.682592 
L 89.509294 205.67204 
L 89.705522 208.133602 
L 90.097977 222.83055 
L 90.294204 221.358436 
L 90.490431 217.931561 
L 90.882886 210.088363 
L 91.079113 207.626801 
L 91.275341 211.053676 
L 91.471568 208.133602 
L 91.667796 211.560477 
L 91.864023 219.886322 
L 92.256478 211.560477 
L 92.452705 213.032591 
L 92.648933 206.154706 
L 92.84516 211.560477 
L 93.041387 212.52579 
L 93.237615 216.459447 
L 93.433842 225.774759 
L 94.022524 209.605716 
L 94.218752 219.886322 
L 94.611207 212.52579 
L 94.807434 209.098915 
L 95.003661 214.987352 
L 95.396116 208.616249 
L 95.592343 209.605716 
L 95.788571 207.626801 
L 95.984798 215.9768 
L 96.377253 205.67204 
L 96.57348 209.605716 
L 96.965935 208.133602 
L 97.162163 212.043124 
L 97.35839 212.52579 
L 97.554617 210.088363 
L 97.750845 209.605716 
L 97.947072 206.154706 
L 98.1433 205.189374 
L 98.339527 206.661488 
L 98.731982 200.266269 
L 98.928209 203.210478 
L 99.124437 199.783621 
L 99.320664 193.895166 
L 99.516891 200.773051 
L 99.713119 200.266269 
L 99.909346 203.717279 
L 100.105573 210.571029 
L 100.301801 212.52579 
L 100.498028 207.626801 
L 100.694256 210.571029 
L 100.890483 210.088363 
L 101.08671 211.053676 
L 101.282938 207.626801 
L 101.479165 208.616249 
L 101.675393 207.626801 
L 101.87162 201.738382 
L 102.067847 201.255717 
L 102.460302 212.043124 
L 102.852757 196.356728 
L 103.048984 193.412537 
L 103.245212 196.356728 
L 103.637667 215.469999 
L 103.833894 214.987352 
L 104.030121 207.626801 
L 104.226349 210.571029 
L 104.422576 209.098915 
L 104.618803 209.605716 
L 104.815031 204.682592 
L 105.011258 202.727831 
L 105.207486 205.67204 
L 105.403713 213.515238 
L 105.59994 216.459447 
L 105.796168 213.515238 
L 105.992395 215.469999 
L 106.38485 198.311507 
L 106.581077 198.794173 
L 106.777305 208.133602 
L 107.16976 204.199926 
L 107.562214 194.884614 
L 107.954669 207.626801 
L 108.150897 209.098915 
L 108.347124 208.616249 
L 108.739579 205.67204 
L 109.132033 197.828842 
L 109.720716 204.199926 
L 109.916943 211.560477 
L 110.11317 212.043124 
L 110.309398 206.661488 
L 110.505625 204.682592 
L 110.701853 206.661488 
L 110.89808 202.245165 
L 111.094307 203.210478 
L 111.486762 207.626801 
L 111.68299 207.626801 
L 111.879217 206.154706 
L 112.271672 197.322059 
L 112.467899 205.189374 
L 112.664126 208.133602 
L 112.860354 204.682592 
L 113.056581 205.67204 
L 113.252809 207.626801 
L 113.449036 205.67204 
L 113.645263 207.626801 
L 113.841491 204.682592 
L 114.037718 208.616249 
L 114.233946 209.605716 
L 114.430173 207.144154 
L 114.6264 208.133602 
L 115.018855 202.727831 
L 115.215083 203.210478 
L 115.41131 204.199926 
L 115.803765 199.300956 
L 115.999992 200.266269 
L 116.19622 197.828842 
L 116.588674 209.605716 
L 116.784902 210.088363 
L 116.981129 209.605716 
L 117.177356 207.144154 
L 117.569811 212.043124 
L 117.766039 210.088363 
L 118.158493 213.997904 
L 118.354721 213.997904 
L 118.747176 207.626801 
L 118.943403 208.616249 
L 119.13963 205.67204 
L 119.335858 211.560477 
L 119.532085 213.032591 
L 119.728313 209.605716 
L 119.92454 203.210478 
L 120.120767 204.682592 
L 120.70945 224.809446 
L 120.905677 223.819998 
L 121.101904 216.459447 
L 121.298132 214.504686 
L 121.494359 206.154706 
L 121.690586 209.605716 
L 121.886814 207.626801 
L 122.083041 202.245165 
L 122.279269 205.189374 
L 122.475496 213.997904 
L 122.671723 214.987352 
L 122.867951 212.043124 
L 123.064178 211.560477 
L 123.260406 208.616249 
L 123.456633 210.088363 
L 123.65286 214.987352 
L 123.849088 213.515238 
L 124.045315 211.053676 
L 124.43777 202.727831 
L 124.633997 205.189374 
L 124.830225 213.515238 
L 125.026452 207.626801 
L 125.418907 204.682592 
L 125.615134 209.605716 
L 125.811362 209.098915 
L 126.203816 204.199926 
L 126.400044 207.626801 
L 126.792499 210.571029 
L 127.184953 200.266269 
L 127.577408 206.154706 
L 127.773636 209.098915 
L 127.969863 207.144154 
L 128.16609 214.987352 
L 128.362318 209.098915 
L 128.558545 208.133602 
L 128.754773 210.571029 
L 128.951 217.448914 
L 129.147227 209.098915 
L 129.343455 208.616249 
L 129.539682 202.727831 
L 129.73591 211.560477 
L 129.932137 206.154706 
L 130.324592 213.997904 
L 130.520819 210.088363 
L 130.913274 217.448914 
L 131.501956 205.189374 
L 131.698183 202.727831 
L 131.894411 207.626801 
L 132.090638 208.133602 
L 132.286866 209.098915 
L 132.483093 206.154706 
L 132.67932 205.189374 
L 132.875548 206.661488 
L 133.071775 213.997904 
L 133.268003 211.053676 
L 133.46423 204.199926 
L 133.660457 204.199926 
L 133.856685 203.717279 
L 134.052912 207.144154 
L 134.24914 203.210478 
L 134.445367 206.154706 
L 134.837822 205.189374 
L 135.034049 208.616249 
L 135.230276 214.987352 
L 135.622731 207.144154 
L 135.818959 212.52579 
L 136.015186 211.053676 
L 136.211413 216.459447 
L 136.407641 218.414227 
L 136.800096 213.997904 
L 137.19255 209.605716 
L 137.388778 212.043124 
L 137.585005 213.032591 
L 137.97746 206.154706 
L 138.173687 205.67204 
L 138.369915 203.210478 
L 138.76237 211.560477 
L 139.154824 212.52579 
L 139.351052 210.571029 
L 139.547279 205.189374 
L 139.743506 208.616249 
L 140.135961 211.560477 
L 140.332189 209.605716 
L 140.528416 211.560477 
L 140.724643 211.560477 
L 140.920871 209.605716 
L 141.117098 213.515238 
L 141.313326 211.053676 
L 141.509553 206.154706 
L 141.70578 207.144154 
L 141.902008 210.571029 
L 142.098235 211.560477 
L 142.294463 211.053676 
L 142.49069 208.133602 
L 142.686917 209.098915 
L 142.883145 205.67204 
L 143.079372 200.266269 
L 143.275599 205.67204 
L 143.471827 206.154706 
L 143.668054 201.255717 
L 143.864282 200.773051 
L 144.256736 212.043124 
L 144.452964 211.053676 
L 144.845419 206.661488 
L 145.041646 210.571029 
L 145.237873 209.098915 
L 145.434101 201.255717 
L 145.630328 203.717279 
L 145.826556 203.717279 
L 146.022783 212.043124 
L 146.21901 212.52579 
L 146.415238 204.199926 
L 146.611465 203.210478 
L 146.807693 210.088363 
L 147.396375 198.311507 
L 147.788829 205.189374 
L 148.181284 207.626801 
L 148.573739 213.515238 
L 148.769966 211.053676 
L 148.966194 205.67204 
L 149.162421 208.133602 
L 149.554876 206.154706 
L 149.751103 212.043124 
L 149.947331 213.032591 
L 150.143558 213.032591 
L 150.339786 208.133602 
L 150.928468 220.875789 
L 151.124695 220.875789 
L 151.320923 219.886322 
L 151.909605 210.571029 
L 152.105832 213.032591 
L 152.302059 213.515238 
L 152.498287 209.098915 
L 152.694514 210.571029 
L 153.283196 205.189374 
L 153.479424 204.199926 
L 153.675651 204.682592 
L 153.871879 208.616249 
L 154.068106 215.469999 
L 154.264333 208.133602 
L 154.460561 208.616249 
L 154.656788 208.616249 
L 154.853016 210.088363 
L 155.049243 209.605716 
L 155.24547 205.67204 
L 155.441698 206.154706 
L 155.637925 208.616249 
L 155.834153 206.154706 
L 156.03038 205.67204 
L 156.226607 211.053676 
L 156.422835 210.088363 
L 156.619062 201.738382 
L 156.815289 206.154706 
L 157.011517 203.717279 
L 157.403972 206.661488 
L 157.600199 212.043124 
L 157.796426 213.032591 
L 157.992654 214.987352 
L 158.188881 213.997904 
L 158.385109 213.997904 
L 158.973791 206.154706 
L 159.366246 210.571029 
L 159.7587 209.098915 
L 159.954928 203.717279 
L 160.347383 202.245165 
L 160.739837 207.626801 
L 160.936065 214.504686 
L 161.132292 215.9768 
L 161.524747 204.682592 
L 161.720974 205.67204 
L 161.917202 210.571029 
L 162.113429 209.605716 
L 162.309656 210.571029 
L 162.505884 213.515238 
L 162.702111 213.515238 
L 162.898339 205.189374 
L 163.094566 202.727831 
L 163.683248 218.921009 
L 163.879476 216.459447 
L 164.075703 215.469999 
L 164.27193 209.605716 
L 164.468158 209.098915 
L 164.664385 212.043124 
L 164.860613 204.199926 
L 165.253067 202.245165 
L 165.645522 197.828842 
L 165.841749 201.255717 
L 166.234204 214.504686 
L 166.430432 215.9768 
L 166.626659 216.459447 
L 166.822886 217.448914 
L 167.411569 207.626801 
L 167.607796 207.144154 
L 168.000251 214.987352 
L 168.196478 208.616249 
L 168.392706 213.515238 
L 168.588933 214.987352 
L 168.78516 213.515238 
L 168.981388 210.088363 
L 169.177615 214.504686 
L 169.57007 210.571029 
L 169.766297 212.043124 
L 169.962525 214.987352 
L 170.354979 213.515238 
L 170.551207 210.571029 
L 170.747434 202.727831 
L 171.139889 216.459447 
L 171.336116 213.032591 
L 171.728571 212.043124 
L 172.121026 210.088363 
L 172.513481 217.448914 
L 172.709708 224.302645 
L 172.905936 219.886322 
L 173.102163 221.358436 
L 173.494618 210.088363 
L 173.887072 206.661488 
L 174.0833 206.661488 
L 174.279527 204.682592 
L 174.671982 209.605716 
L 174.868209 210.571029 
L 175.064437 210.088363 
L 175.456892 206.154706 
L 175.653119 201.738382 
L 175.849346 204.682592 
L 176.438029 207.144154 
L 176.634256 207.626801 
L 176.830483 215.469999 
L 177.026711 213.032591 
L 177.222938 217.448914 
L 177.419166 217.931561 
L 177.615393 213.997904 
L 177.81162 205.67204 
L 178.204075 211.560477 
L 178.400302 210.088363 
L 178.792757 212.52579 
L 179.185212 220.875789 
L 179.381439 218.921009 
L 179.577667 213.515238 
L 179.773894 216.942113 
L 179.970122 223.819998 
L 180.166349 223.819998 
L 180.362576 219.886322 
L 180.558804 211.560477 
L 180.951259 211.560477 
L 181.147486 205.189374 
L 181.539941 216.942113 
L 181.736168 209.605716 
L 181.932396 206.661488 
L 182.128623 209.098915 
L 182.32485 213.997904 
L 182.521078 210.571029 
L 182.717305 210.088363 
L 182.913532 215.9768 
L 183.10976 214.504686 
L 183.502215 205.67204 
L 183.698442 205.67204 
L 184.090897 221.865237 
L 184.287124 224.302645 
L 184.483352 219.403675 
L 184.679579 206.661488 
L 185.072034 216.942113 
L 185.268261 211.053676 
L 185.464489 217.931561 
L 185.660716 215.9768 
L 185.856943 222.347884 
L 186.053171 216.942113 
L 186.249398 218.414227 
L 186.445626 217.448914 
L 186.641853 221.865237 
L 186.83808 220.393123 
L 187.034308 221.358436 
L 187.426762 208.616249 
L 187.62299 210.088363 
L 188.015445 219.403675 
L 188.211672 219.403675 
L 188.407899 211.560477 
L 188.604127 214.987352 
L 188.800354 213.515238 
L 188.996582 210.571029 
L 189.192809 210.088363 
L 189.389036 210.088363 
L 189.585264 206.661488 
L 190.173946 202.727831 
L 190.566401 197.322059 
L 190.762628 188.996196 
L 191.155083 193.412537 
L 191.35131 193.412537 
L 191.547538 187.041416 
L 191.939992 191.940423 
L 192.13622 191.940423 
L 192.332447 187.524082 
L 192.724902 186.051968 
L 192.921129 182.118329 
L 193.117357 184.579854 
L 193.313584 191.433604 
L 193.706039 184.097225 
L 194.098494 195.849946 
L 194.294721 194.377832 
L 194.490949 184.097225 
L 194.687176 185.06252 
L 194.883403 184.579854 
L 195.079631 187.524082 
L 195.275858 201.255717 
L 195.472086 198.311507 
L 195.668313 191.940423 
L 195.86454 194.377832 
L 196.060768 189.478861 
L 196.453222 193.895166 
L 196.64945 185.06252 
L 196.845677 185.06252 
L 197.041905 188.996196 
L 197.238132 189.985644 
L 197.434359 196.839394 
L 197.630587 193.412537 
L 198.023042 199.783621 
L 198.219269 197.828842 
L 198.415496 190.950975 
L 198.611724 190.950975 
L 198.807951 191.940423 
L 199.200406 204.199926 
L 199.396633 203.210478 
L 199.789088 187.041416 
L 199.985316 188.996196 
L 200.181543 189.478861 
L 200.37777 197.828842 
L 200.573998 195.849946 
L 200.770225 186.051968 
L 200.966452 186.051968 
L 201.16268 187.524082 
L 201.358907 195.36728 
L 201.751362 193.412537 
L 201.947589 201.738382 
L 202.143817 198.311507 
L 202.536272 200.266269 
L 202.732499 193.895166 
L 202.928726 192.423052 
L 203.124954 188.51353 
L 203.321181 196.356728 
L 203.517409 193.895166 
L 203.713636 193.412537 
L 204.106091 187.524082 
L 204.302318 188.51353 
L 204.694773 196.356728 
L 204.891 196.356728 
L 205.087228 199.300956 
L 205.479682 192.423052 
L 205.67591 195.849946 
L 205.872137 204.199926 
L 206.068365 203.717279 
L 206.264592 199.300956 
L 206.460819 198.794173 
L 206.853274 194.377832 
L 207.049502 195.36728 
L 207.245729 194.377832 
L 207.638184 198.311507 
L 207.834411 194.884614 
L 208.030639 199.300956 
L 208.423093 195.36728 
L 208.619321 188.006747 
L 209.011775 185.06252 
L 209.40423 188.006747 
L 209.600458 198.794173 
L 209.796685 193.412537 
L 209.992912 193.412537 
L 210.385367 196.839394 
L 210.581595 204.199926 
L 211.170277 194.884614 
L 211.366504 194.377832 
L 211.562732 196.356728 
L 211.758959 200.773051 
L 211.955186 201.255717 
L 212.151414 197.322059 
L 212.347641 197.828842 
L 212.936323 179.174101 
L 213.132551 180.163549 
L 213.328778 179.174101 
L 213.525005 180.163549 
L 214.113688 177.219322 
L 214.309915 174.275131 
L 214.506142 165.949267 
L 214.70237 173.285683 
L 214.898597 173.792465 
L 215.094825 171.330903 
L 215.683507 159.071364 
L 215.879734 160.543477 
L 216.272189 150.721383 
L 216.468416 147.294527 
L 216.664644 149.756088 
L 216.860871 145.822413 
L 217.057099 144.857081 
L 217.449553 153.182945 
L 217.842008 148.283975 
L 218.038235 148.76664 
L 218.43069 135.517653 
L 218.823145 148.76664 
L 219.019372 151.228166 
L 219.2156 150.721383 
L 219.411827 140.440777 
L 219.608055 142.395519 
L 220.000509 135.034987 
L 220.196737 133.080244 
L 220.589192 140.440777 
L 220.785419 130.136017 
L 221.177874 125.719675 
L 221.766556 136.989766 
L 221.962783 136.024435 
L 222.159011 133.080244 
L 222.355238 136.507101 
L 222.747693 113.460172 
L 222.94392 126.709123 
L 223.140148 103.638078 
L 223.72883 152.700279 
L 223.925057 164.959819 
L 224.121285 166.914562 
L 224.317512 132.573425 
L 224.513739 130.136017 
L 224.709967 138.46188 
L 224.906194 157.116621 
L 225.102422 163.970371 
L 225.298649 149.273423 
L 225.691104 107.571717 
L 226.083559 132.573425 
L 226.279786 138.968663 
L 226.476013 121.786036 
L 226.672241 116.887029 
L 226.868468 119.348591 
L 227.064695 127.191789 
L 227.260923 124.247561 
L 227.653378 128.663903 
L 227.849605 123.764932 
L 228.045832 108.561165 
L 228.24206 103.638078 
L 228.438287 116.404363 
L 228.634515 118.841808 
L 229.026969 91.378538 
L 229.223197 94.805432 
L 229.811879 115.414915 
L 230.008106 116.404363 
L 230.204334 120.313922 
L 230.400561 118.841808 
L 230.596789 121.30337 
L 230.793016 121.30337 
L 230.989243 129.146568 
L 231.185471 126.202341 
L 231.577925 108.561165 
L 231.774153 108.054383 
L 231.97038 110.009162 
L 232.559062 93.333318 
L 232.75529 91.378538 
L 233.147745 105.110192 
L 233.540199 90.38909 
L 233.736427 92.850652 
L 233.932654 96.784328 
L 234.521336 115.897581 
L 234.717564 114.425467 
L 235.306246 98.256442 
L 235.502473 99.221736 
L 235.698701 101.200633 
L 235.894928 98.739071 
L 236.091155 93.8401 
L 236.48361 116.404363 
L 236.679838 116.887029 
L 236.876065 118.359143 
L 237.072292 109.043831 
L 237.26852 105.110192 
L 237.464747 109.526496 
L 237.660975 119.348591 
L 238.053429 127.191789 
L 238.249657 125.719675 
L 238.445884 119.348591 
L 238.642112 107.089088 
L 238.838339 108.054383 
L 239.034566 111.481276 
L 239.230794 112.95339 
L 239.427021 118.359143 
L 239.623248 113.942838 
L 239.819476 112.470724 
L 240.015703 110.009162 
L 240.211931 110.99861 
L 240.604385 130.618682 
L 240.800613 142.878185 
L 240.99684 135.034987 
L 241.193068 135.034987 
L 241.389295 139.933957 
L 241.977977 127.191789 
L 242.174205 130.618682 
L 242.370432 132.090759 
L 242.566659 136.024435 
L 242.762887 135.517653 
L 243.155342 125.719675 
L 243.351569 126.202341 
L 243.547796 132.090759 
L 243.744024 141.406071 
L 243.940251 139.933957 
L 244.136478 144.350299 
L 244.332706 142.395519 
L 244.528933 143.867633 
L 244.725161 138.46188 
L 244.921388 140.923442 
L 245.51007 135.034987 
L 245.706298 130.618682 
L 245.902525 122.775484 
L 246.098752 121.786036 
L 246.29498 116.404363 
L 246.491207 122.292818 
L 246.687435 123.258113 
L 246.883662 119.348591 
L 247.079889 127.674455 
L 247.472344 122.775484 
L 247.668572 110.99861 
L 247.864799 111.988058 
L 248.257254 121.786036 
L 248.453481 118.359143 
L 248.649708 110.99861 
L 248.845936 108.054383 
L 249.042163 110.515945 
L 249.434618 102.672747 
L 249.630845 112.470724 
L 249.827073 109.526496 
L 250.0233 114.425467 
L 250.219528 113.460172 
L 250.415755 116.404363 
L 250.611982 116.404363 
L 251.004437 107.571717 
L 251.396892 111.988058 
L 251.593119 110.515945 
L 251.985574 116.404363 
L 252.378029 98.739071 
L 252.574256 97.749623 
L 252.770484 101.200633 
L 252.966711 107.571717 
L 253.359166 102.672747 
L 253.555393 107.089088 
L 253.947848 100.69385 
L 254.144075 92.850652 
L 254.340303 90.38909 
L 254.732758 89.423796 
L 254.928985 91.378538 
L 255.125212 88.94113 
L 255.517667 99.221736 
L 255.713895 91.378538 
L 255.910122 92.850652 
L 256.106349 91.861204 
L 256.302577 95.312214 
L 256.498804 95.312214 
L 256.891259 90.38909 
L 257.283714 98.739071 
L 257.479941 99.221736 
L 257.676168 94.805432 
L 257.872396 96.784328 
L 258.264851 85.49012 
L 258.461078 84.018006 
L 258.657305 75.692142 
L 258.853533 78.129587 
L 259.638442 98.256442 
L 260.030897 85.996902 
L 260.227125 86.962234 
L 260.423352 92.850652 
L 260.619579 94.322766 
L 261.012034 85.007454 
L 261.208262 84.018006 
L 261.796944 88.434348 
L 262.189398 77.164256 
L 262.581853 84.018006 
L 262.974308 80.108484 
L 263.170535 71.275838 
L 263.56299 65.870048 
L 263.759218 72.241132 
L 264.151672 75.692142 
L 264.3479 75.692142 
L 264.544127 75.18536 
L 264.740355 83.052675 
L 265.132809 85.007454 
L 265.329037 77.646922 
L 265.525264 78.129587 
L 265.721492 80.591149 
L 265.917719 77.164256 
L 266.113946 70.769018 
L 266.310174 72.241132 
L 266.506401 80.108484 
L 266.702628 79.119036 
L 266.898856 82.545892 
L 267.095083 81.580598 
L 267.487538 78.129587 
L 267.683765 79.119036 
L 267.879993 77.646922 
L 268.07622 78.129587 
L 268.272448 75.692142 
L 268.468675 81.073778 
L 268.86113 83.052675 
L 269.057357 88.434348 
L 269.253585 83.052675 
L 269.449812 82.545892 
L 269.842267 76.174808 
L 270.234721 84.524788 
L 270.430949 87.469016 
L 270.823404 67.848944 
L 271.019631 72.747951 
L 271.215858 68.814276 
L 271.412086 68.814276 
L 272.000768 78.63637 
L 272.196995 78.129587 
L 272.58945 67.342162 
L 272.981905 75.18536 
L 273.178132 75.692142 
L 273.37436 74.702694 
L 273.570587 72.747951 
L 273.766815 68.814276 
L 273.963042 71.758466 
L 274.159269 67.848944 
L 274.355497 73.713246 
L 274.551724 73.713246 
L 274.747951 75.692142 
L 274.944179 70.769018 
L 275.140406 68.814276 
L 275.532861 80.591149 
L 275.729088 81.073778 
L 275.925316 75.18536 
L 276.121543 74.220028 
L 276.317771 70.769018 
L 276.513998 71.758466 
L 276.710225 68.33161 
L 277.10268 78.63637 
L 277.298908 74.702694 
L 277.495135 73.23058 
L 277.88759 84.018006 
L 278.083817 80.108484 
L 278.280045 73.23058 
L 278.476272 78.129587 
L 278.672499 78.129587 
L 279.064954 68.814276 
L 279.261181 71.758466 
L 279.653636 82.545892 
L 279.849864 81.073778 
L 280.046091 86.479568 
L 280.242318 86.962234 
L 280.438546 85.49012 
L 280.634773 80.108484 
L 280.831001 81.073778 
L 281.027228 78.129587 
L 281.419683 66.37683 
L 281.61591 65.870048 
L 281.812138 70.286389 
L 282.008365 69.321058 
L 282.204592 71.758466 
L 282.40082 78.63637 
L 282.597047 78.129587 
L 282.793275 74.702694 
L 282.989502 74.702694 
L 283.578184 84.524788 
L 283.774411 84.018006 
L 283.970639 74.702694 
L 284.166866 73.713246 
L 284.363094 77.164256 
L 284.559321 75.18536 
L 284.755548 82.063226 
L 284.951776 83.53534 
L 285.148003 84.018006 
L 285.540458 70.286389 
L 285.736685 70.286389 
L 285.932913 79.119036 
L 286.12914 77.164256 
L 286.325368 79.119036 
L 286.521595 76.657474 
L 286.91405 75.18536 
L 287.110277 84.018006 
L 287.306505 85.996902 
L 287.698959 69.803724 
L 287.895187 71.275838 
L 288.091414 79.601664 
L 288.287641 78.63637 
L 288.483869 76.657474 
L 288.680096 78.129587 
L 288.876324 76.657474 
L 289.072551 69.321058 
L 289.465006 71.758466 
L 290.053688 78.63637 
L 290.446143 77.646922 
L 290.64237 78.129587 
L 290.838598 78.129587 
L 291.034825 82.545892 
L 291.623507 75.18536 
L 291.819735 75.18536 
L 292.015962 76.174808 
L 292.212189 76.174808 
L 292.408417 76.657474 
L 292.604644 78.129587 
L 292.800871 84.018006 
L 293.193326 77.164256 
L 293.389554 79.601664 
L 293.585781 80.108484 
L 293.782008 79.601664 
L 293.978236 81.073778 
L 294.174463 79.601664 
L 294.370691 80.591149 
L 294.566918 70.769018 
L 294.763145 70.286389 
L 294.959373 75.18536 
L 295.1556 84.018006 
L 295.351828 81.580598 
L 295.548055 84.524788 
L 295.744282 84.018006 
L 295.94051 84.524788 
L 296.332965 80.108484 
L 296.529192 73.713246 
L 296.725419 73.23058 
L 296.921647 76.657474 
L 297.117874 76.174808 
L 297.314101 79.119036 
L 297.510329 80.108484 
L 297.706556 79.601664 
L 297.902784 74.702694 
L 298.099011 77.646922 
L 298.295238 73.23058 
L 298.491466 76.174808 
L 298.687693 84.524788 
L 298.883921 75.692142 
L 299.080148 75.692142 
L 299.276375 77.646922 
L 299.472603 72.747951 
L 299.865058 76.657474 
L 300.061285 81.580598 
L 300.257512 82.063226 
L 300.45374 81.580598 
L 300.649967 84.018006 
L 300.846195 84.018006 
L 301.042422 79.119036 
L 301.434877 74.702694 
L 301.631104 70.769018 
L 301.827331 73.713246 
L 302.023559 78.63637 
L 302.219786 88.94113 
L 302.612241 85.49012 
L 302.808468 85.49012 
L 303.200923 91.861204 
L 303.397151 89.906425 
L 303.789605 95.79488 
L 303.985833 99.728519 
L 304.18206 100.211185 
L 304.378288 100.211185 
L 304.574515 102.672747 
L 304.96697 118.359143 
L 305.163197 119.831257 
L 305.555652 107.089088 
L 305.948107 120.313922 
L 306.144334 118.841808 
L 306.340561 124.247561 
L 306.536789 123.258113 
L 306.733016 124.247561 
L 307.125471 130.136017 
L 307.321698 127.674455 
L 307.517926 128.181237 
L 307.714153 129.653351 
L 307.910381 133.562873 
L 308.106608 140.440777 
L 308.302835 140.923442 
L 308.499063 142.878185 
L 308.891518 151.710831 
L 309.087745 151.228166 
L 309.283972 161.026143 
L 309.4802 157.599287 
L 309.676427 157.116621 
L 309.872654 154.172393 
L 310.068882 153.665611 
L 310.265109 158.588735 
L 310.461337 166.431933 
L 310.657564 169.376124 
L 310.853791 168.386675 
L 311.050019 161.532926 
L 311.246246 159.071364 
L 311.442474 164.477153 
L 311.638701 164.477153 
L 311.834928 162.015591 
L 312.031156 164.959819 
L 312.423611 172.320351 
L 312.619838 173.792465 
L 313.012293 174.75776 
L 313.20852 167.421381 
L 313.404748 165.442485 
L 313.600975 166.431933 
L 313.797202 165.949267 
L 314.189657 172.803017 
L 314.385884 182.118329 
L 314.582112 182.118329 
L 314.778339 190.950975 
L 314.974567 191.433604 
L 315.367021 182.118329 
L 315.759476 193.412537 
L 315.955704 184.097225 
L 316.151931 185.569339 
L 316.348158 188.006747 
L 316.544386 187.041416 
L 316.740613 184.097225 
L 316.936841 184.097225 
L 317.329295 190.468309 
L 317.525523 189.478861 
L 317.72175 192.423052 
L 317.917978 186.534634 
L 318.114205 184.097225 
L 318.50666 189.985644 
L 318.702887 187.524082 
L 318.899114 183.590406 
L 319.095342 182.118329 
L 319.291569 187.524082 
L 319.487797 185.569339 
L 319.684024 192.423052 
L 319.880251 191.433604 
L 320.076479 181.635663 
L 320.272706 183.107777 
L 320.665161 199.300956 
L 320.861388 197.828842 
L 321.253843 190.950975 
L 321.450071 193.412537 
L 321.646298 194.377832 
L 321.842525 191.433604 
L 322.038753 193.412537 
L 322.431208 204.682592 
L 322.627435 198.311507 
L 322.823662 197.828842 
L 323.216117 204.199926 
L 323.608572 199.300956 
L 323.804799 201.738382 
L 324.197254 185.569339 
L 324.393481 185.06252 
L 324.589709 186.051968 
L 324.785936 191.940423 
L 324.982164 193.895166 
L 325.374618 207.144154 
L 325.570846 207.626801 
L 325.767073 210.088363 
L 325.963301 205.67204 
L 326.159528 192.423052 
L 326.355755 195.36728 
L 326.551983 202.727831 
L 326.74821 202.245165 
L 326.944438 202.727831 
L 327.140665 197.322059 
L 327.336892 206.154706 
L 327.53312 207.144154 
L 327.925574 198.794173 
L 328.121802 196.839394 
L 328.514257 202.245165 
L 328.710484 203.717279 
L 328.906711 201.738382 
L 329.102939 196.356728 
L 329.299166 194.884614 
L 329.495394 198.311507 
L 329.691621 198.311507 
L 329.887848 200.773051 
L 330.084076 194.377832 
L 330.280303 194.377832 
L 330.476531 196.839394 
L 330.672758 195.36728 
L 331.26144 210.571029 
L 331.457668 204.682592 
L 331.653895 203.717279 
L 331.850122 204.199926 
L 332.242577 206.661488 
L 332.635032 214.504686 
L 332.831259 218.414227 
L 333.027487 213.515238 
L 333.419941 201.255717 
L 333.616169 200.773051 
L 333.812396 201.738382 
L 334.008624 200.773051 
L 334.793533 211.560477 
L 334.989761 209.605716 
L 335.185988 212.52579 
L 335.578443 208.616249 
L 335.77467 205.189374 
L 335.970897 204.682592 
L 336.167125 209.098915 
L 336.363352 208.133602 
L 336.55958 209.098915 
L 336.755807 209.098915 
L 336.952034 205.189374 
L 337.148262 207.144154 
L 337.344489 204.199926 
L 337.540717 199.300956 
L 337.933171 207.144154 
L 338.129399 203.717279 
L 338.325626 205.189374 
L 338.521854 208.133602 
L 338.718081 202.727831 
L 338.914308 204.682592 
L 339.110536 208.133602 
L 339.502991 203.210478 
L 339.699218 203.210478 
L 339.895445 202.245165 
L 340.2879 216.459447 
L 340.484127 213.997904 
L 340.680355 210.088363 
L 340.876582 211.053676 
L 341.07281 209.098915 
L 341.269037 208.616249 
L 341.661492 203.717279 
L 341.857719 204.199926 
L 342.250174 197.828842 
L 342.446401 208.616249 
L 342.642629 205.67204 
L 343.035084 196.839394 
L 343.231311 205.67204 
L 343.427538 207.144154 
L 343.623766 204.199926 
L 343.819993 203.717279 
L 344.016221 204.199926 
L 344.212448 202.727831 
L 344.408675 202.245165 
L 344.80113 209.605716 
L 344.997357 218.414227 
L 345.389812 211.053676 
L 345.58604 213.515238 
L 345.782267 211.560477 
L 346.174722 205.67204 
L 346.370949 205.189374 
L 346.567177 214.504686 
L 346.763404 215.469999 
L 346.959631 213.515238 
L 347.352086 200.266269 
L 347.744541 215.469999 
L 348.136996 215.469999 
L 348.333223 219.886322 
L 348.529451 214.987352 
L 348.725678 204.682592 
L 348.921905 200.266269 
L 349.118133 207.626801 
L 349.31436 205.67204 
L 349.510587 207.626801 
L 349.903042 198.311507 
L 350.09927 204.682592 
L 350.491724 207.144154 
L 350.687952 198.794173 
L 350.884179 199.783621 
L 351.276634 209.605716 
L 351.472861 208.133602 
L 351.669089 205.189374 
L 351.865316 207.144154 
L 352.061544 206.661488 
L 352.453998 216.459447 
L 352.650226 211.053676 
L 352.846453 214.987352 
L 353.042681 213.515238 
L 353.238908 210.088363 
L 353.435135 209.098915 
L 353.631363 210.088363 
L 353.82759 220.875789 
L 354.023817 216.942113 
L 354.220045 219.403675 
L 354.416272 215.9768 
L 354.6125 206.154706 
L 355.004954 198.794173 
L 355.201182 207.626801 
L 355.397409 211.053676 
L 355.593637 212.52579 
L 355.789864 211.560477 
L 355.986091 203.717279 
L 356.182319 203.717279 
L 356.378546 205.189374 
L 356.574774 208.133602 
L 356.771001 207.144154 
L 356.967228 208.133602 
L 357.359683 201.255717 
L 357.555911 202.245165 
L 357.752138 212.043124 
L 357.948365 213.515238 
L 358.144593 212.52579 
L 358.34082 212.52579 
L 358.537047 211.560477 
L 358.733275 212.52579 
L 358.929502 210.088363 
L 359.321957 209.098915 
L 359.714412 216.942113 
L 360.106867 219.886322 
L 360.303094 219.886322 
L 360.499321 222.83055 
L 361.088004 205.67204 
L 361.284231 200.266269 
L 361.480458 203.210478 
L 361.676686 203.717279 
L 361.872913 207.144154 
L 362.069141 213.515238 
L 362.265368 213.997904 
L 362.461595 201.255717 
L 362.657823 198.311507 
L 362.85405 205.189374 
L 363.050277 202.727831 
L 363.442732 191.940423 
L 363.63896 199.300956 
L 363.835187 196.356728 
L 364.031414 196.839394 
L 364.227642 205.189374 
L 364.423869 193.895166 
L 364.620097 194.377832 
L 365.405006 213.997904 
L 365.601234 205.189374 
L 365.993688 204.199926 
L 366.386143 197.322059 
L 366.58237 201.738382 
L 366.778598 212.52579 
L 367.171053 217.931561 
L 367.36728 215.9768 
L 367.563507 217.931561 
L 367.759735 212.043124 
L 367.955962 211.560477 
L 368.15219 214.504686 
L 368.348417 202.245165 
L 368.544644 202.727831 
L 368.740872 202.727831 
L 368.937099 207.144154 
L 369.133327 205.67204 
L 369.329554 201.255717 
L 369.525781 199.783621 
L 369.722009 196.839394 
L 369.918236 190.950975 
L 370.114464 197.828842 
L 370.310691 198.794173 
L 370.506918 197.828842 
L 370.899373 200.266269 
L 371.0956 204.199926 
L 371.291828 211.053676 
L 371.488055 208.616249 
L 371.684283 199.783621 
L 371.88051 196.839394 
L 372.076737 202.245165 
L 372.272965 212.043124 
L 372.469192 213.515238 
L 372.66542 212.52579 
L 373.057874 203.717279 
L 373.254102 201.738382 
L 373.450329 202.245165 
L 373.842784 215.469999 
L 374.431466 205.189374 
L 374.627694 204.682592 
L 375.020148 197.828842 
L 375.216376 197.828842 
L 375.412603 201.738382 
L 375.60883 201.738382 
L 375.805058 200.266269 
L 376.001285 197.828842 
L 376.197513 201.255717 
L 376.589967 204.199926 
L 376.786195 201.255717 
L 376.982422 201.255717 
L 377.17865 204.199926 
L 377.374877 199.300956 
L 377.571104 199.300956 
L 377.963559 215.469999 
L 378.356014 204.682592 
L 378.552241 194.884614 
L 378.748469 200.773051 
L 378.944696 200.266269 
L 379.140924 202.245165 
L 379.533378 207.626801 
L 379.729606 198.311507 
L 379.925833 199.783621 
L 380.12206 170.848237 
L 380.710743 219.886322 
L 380.90697 225.292112 
L 381.103197 224.302645 
L 381.299425 194.377832 
L 381.495652 195.849946 
L 382.084334 232.652644 
L 382.280562 224.302645 
L 382.673017 178.691436 
L 382.869244 180.163549 
L 383.261699 213.997904 
L 383.457926 210.571029 
L 383.850381 195.849946 
L 384.046608 198.311507 
L 384.439063 214.504686 
L 384.63529 215.469999 
L 384.831518 203.717279 
L 385.027745 200.266269 
L 385.223973 202.727831 
L 385.4202 209.605716 
L 385.812655 203.210478 
L 386.008882 186.534634 
L 386.20511 180.646215 
L 386.401337 188.996196 
L 386.597564 204.199926 
L 386.793792 210.571029 
L 386.990019 211.053676 
L 387.186247 209.098915 
L 387.578701 210.088363 
L 387.971156 217.931561 
L 388.167384 216.459447 
L 388.363611 210.088363 
L 388.756066 205.67204 
L 388.952293 205.189374 
L 388.952293 205.189374 
" style="fill:none;stroke:#ff7f0e;stroke-linecap:round;stroke-width:1.5;"/>
   </g>
   <g id="line2d_16">
    <path clip-path="url(#p1ca4bd4fbf)" d="M 64.375947 289 
L 64.377653 -1 
M 66.094535 -1 
L 66.095741 289 
M 66.32012 289 
L 66.323243 -1 
M 66.419529 -1 
L 66.426038 289 
M 221.35504 289 
L 221.356719 -1 
M 223.076598 -1 
L 223.077809 289 
M 223.302813 289 
L 223.305973 -1 
M 223.4006 -1 
L 223.407275 289 
M 378.333053 289 
L 378.334701 -1 
M 380.05842 -1 
L 380.059668 289 
M 380.284914 289 
L 380.288171 -1 
M 380.380809 -1 
L 380.387571 289 
L 380.387571 289 
" style="fill:none;stroke:#2ca02c;stroke-linecap:round;stroke-width:1.5;"/>
   </g>
   <g id="patch_3">
    <path d="M 54 252 
L 54 34.56 
" style="fill:none;stroke:#cccccc;stroke-linecap:square;stroke-linejoin:miter;stroke-width:0.8;"/>
   </g>
   <g id="patch_4">
    <path d="M 388.8 252 
L 388.8 34.56 
" style="fill:none;stroke:#cccccc;stroke-linecap:square;stroke-linejoin:miter;stroke-width:0.8;"/>
   </g>
   <g id="patch_5">
    <path d="M 54 252 
L 388.8 252 
" style="fill:none;stroke:#cccccc;stroke-linecap:square;stroke-linejoin:miter;stroke-width:0.8;"/>
   </g>
   <g id="patch_6">
    <path d="M 54 34.56 
L 388.8 34.56 
" style="fill:none;stroke:#cccccc;stroke-linecap:square;stroke-linejoin:miter;stroke-width:0.8;"/>
   </g>
  </g>
 </g>
 <defs>
  <clipPath id="p1ca4bd4fbf">
   <rect height="217.44" width="334.8" x="54" y="34.56"/>
  </clipPath>
 </defs>
</svg>
