<?xml version="1.0" encoding="utf-8" standalone="no"?>
<!DOCTYPE svg PUBLIC "-//W3C//DTD SVG 1.1//EN"
  "http://www.w3.org/Graphics/SVG/1.1/DTD/svg11.dtd">
<!-- Created with matplotlib (https://matplotlib.org/) -->
<svg height="288pt" version="1.1" viewBox="0 0 432 288" width="432pt" xmlns="http://www.w3.org/2000/svg" xmlns:xlink="http://www.w3.org/1999/xlink">
 <metadata>
  <rdf:RDF xmlns:cc="http://creativecommons.org/ns#" xmlns:dc="http://purl.org/dc/elements/1.1/" xmlns:rdf="http://www.w3.org/1999/02/22-rdf-syntax-ns#">
   <cc:Work>
    <dc:type rdf:resource="http://purl.org/dc/dcmitype/StillImage"/>
    <dc:date>2022-05-31T11:55:14.304662</dc:date>
    <dc:format>image/svg+xml</dc:format>
    <dc:creator>
     <cc:Agent>
      <dc:title>Matplotlib v3.3.3, https://matplotlib.org/</dc:title>
     </cc:Agent>
    </dc:creator>
   </cc:Work>
  </rdf:RDF>
 </metadata>
 <defs>
  <style type="text/css">*{stroke-linecap:butt;stroke-linejoin:round;}</style>
 </defs>
 <g id="figure_1">
  <g id="patch_1">
   <path d="M 0 288 
L 432 288 
L 432 0 
L 0 0 
z
" style="fill:#ffffff;"/>
  </g>
  <g id="axes_1">
   <g id="patch_2">
    <path d="M 54 252 
L 388.8 252 
L 388.8 34.56 
L 54 34.56 
z
" style="fill:#ffffff;"/>
   </g>
   <g id="matplotlib.axis_1">
    <g id="xtick_1">
     <g id="line2d_1">
      <path clip-path="url(#p37c8eb6346)" d="M 98.92987 252 
L 98.92987 34.56 
" style="fill:none;stroke:#cccccc;stroke-linecap:round;stroke-width:0.8;"/>
     </g>
     <g id="text_1">
      <!-- 2.5 -->
      <g style="fill:#262626;" transform="translate(91.97987 266.157812)scale(0.1 -0.1)">
       <defs>
        <path d="M 50.34375 8.453125 
L 50.34375 0 
L 3.03125 0 
Q 2.9375 3.171875 4.046875 6.109375 
Q 5.859375 10.9375 9.828125 15.625 
Q 13.8125 20.3125 21.34375 26.46875 
Q 33.015625 36.03125 37.109375 41.625 
Q 41.21875 47.21875 41.21875 52.203125 
Q 41.21875 57.421875 37.46875 61 
Q 33.734375 64.59375 27.734375 64.59375 
Q 21.390625 64.59375 17.578125 60.78125 
Q 13.765625 56.984375 13.71875 50.25 
L 4.6875 51.171875 
Q 5.609375 61.28125 11.65625 66.578125 
Q 17.71875 71.875 27.9375 71.875 
Q 38.234375 71.875 44.234375 66.15625 
Q 50.25 60.453125 50.25 52 
Q 50.25 47.703125 48.484375 43.546875 
Q 46.734375 39.40625 42.65625 34.8125 
Q 38.578125 30.21875 29.109375 22.21875 
Q 21.1875 15.578125 18.9375 13.203125 
Q 16.703125 10.84375 15.234375 8.453125 
z
" id="ArialMT-50"/>
        <path d="M 9.078125 0 
L 9.078125 10.015625 
L 19.09375 10.015625 
L 19.09375 0 
z
" id="ArialMT-46"/>
        <path d="M 4.15625 18.75 
L 13.375 19.53125 
Q 14.40625 12.796875 18.140625 9.390625 
Q 21.875 6 27.15625 6 
Q 33.5 6 37.890625 10.78125 
Q 42.28125 15.578125 42.28125 23.484375 
Q 42.28125 31 38.0625 35.34375 
Q 33.84375 39.703125 27 39.703125 
Q 22.75 39.703125 19.328125 37.765625 
Q 15.921875 35.84375 13.96875 32.765625 
L 5.71875 33.84375 
L 12.640625 70.609375 
L 48.25 70.609375 
L 48.25 62.203125 
L 19.671875 62.203125 
L 15.828125 42.96875 
Q 22.265625 47.46875 29.34375 47.46875 
Q 38.71875 47.46875 45.15625 40.96875 
Q 51.609375 34.46875 51.609375 24.265625 
Q 51.609375 14.546875 45.953125 7.46875 
Q 39.0625 -1.21875 27.15625 -1.21875 
Q 17.390625 -1.21875 11.203125 4.25 
Q 5.03125 9.71875 4.15625 18.75 
z
" id="ArialMT-53"/>
       </defs>
       <use xlink:href="#ArialMT-50"/>
       <use x="55.615234" xlink:href="#ArialMT-46"/>
       <use x="83.398438" xlink:href="#ArialMT-53"/>
      </g>
     </g>
    </g>
    <g id="xtick_2">
     <g id="line2d_2">
      <path clip-path="url(#p37c8eb6346)" d="M 171.397403 252 
L 171.397403 34.56 
" style="fill:none;stroke:#cccccc;stroke-linecap:round;stroke-width:0.8;"/>
     </g>
     <g id="text_2">
      <!-- 3.0 -->
      <g style="fill:#262626;" transform="translate(164.447403 266.157812)scale(0.1 -0.1)">
       <defs>
        <path d="M 4.203125 18.890625 
L 12.984375 20.0625 
Q 14.5 12.59375 18.140625 9.296875 
Q 21.78125 6 27 6 
Q 33.203125 6 37.46875 10.296875 
Q 41.75 14.59375 41.75 20.953125 
Q 41.75 27 37.796875 30.921875 
Q 33.84375 34.859375 27.734375 34.859375 
Q 25.25 34.859375 21.53125 33.890625 
L 22.515625 41.609375 
Q 23.390625 41.5 23.921875 41.5 
Q 29.546875 41.5 34.03125 44.421875 
Q 38.53125 47.359375 38.53125 53.46875 
Q 38.53125 58.296875 35.25 61.46875 
Q 31.984375 64.65625 26.8125 64.65625 
Q 21.6875 64.65625 18.265625 61.421875 
Q 14.84375 58.203125 13.875 51.765625 
L 5.078125 53.328125 
Q 6.6875 62.15625 12.390625 67.015625 
Q 18.109375 71.875 26.609375 71.875 
Q 32.46875 71.875 37.390625 69.359375 
Q 42.328125 66.84375 44.9375 62.5 
Q 47.5625 58.15625 47.5625 53.265625 
Q 47.5625 48.640625 45.0625 44.828125 
Q 42.578125 41.015625 37.703125 38.765625 
Q 44.046875 37.3125 47.5625 32.6875 
Q 51.078125 28.078125 51.078125 21.140625 
Q 51.078125 11.765625 44.234375 5.25 
Q 37.40625 -1.265625 26.953125 -1.265625 
Q 17.53125 -1.265625 11.296875 4.34375 
Q 5.078125 9.96875 4.203125 18.890625 
z
" id="ArialMT-51"/>
        <path d="M 4.15625 35.296875 
Q 4.15625 48 6.765625 55.734375 
Q 9.375 63.484375 14.515625 67.671875 
Q 19.671875 71.875 27.484375 71.875 
Q 33.25 71.875 37.59375 69.546875 
Q 41.9375 67.234375 44.765625 62.859375 
Q 47.609375 58.5 49.21875 52.21875 
Q 50.828125 45.953125 50.828125 35.296875 
Q 50.828125 22.703125 48.234375 14.96875 
Q 45.65625 7.234375 40.5 3 
Q 35.359375 -1.21875 27.484375 -1.21875 
Q 17.140625 -1.21875 11.234375 6.203125 
Q 4.15625 15.140625 4.15625 35.296875 
z
M 13.1875 35.296875 
Q 13.1875 17.671875 17.3125 11.828125 
Q 21.4375 6 27.484375 6 
Q 33.546875 6 37.671875 11.859375 
Q 41.796875 17.71875 41.796875 35.296875 
Q 41.796875 52.984375 37.671875 58.78125 
Q 33.546875 64.59375 27.390625 64.59375 
Q 21.34375 64.59375 17.71875 59.46875 
Q 13.1875 52.9375 13.1875 35.296875 
z
" id="ArialMT-48"/>
       </defs>
       <use xlink:href="#ArialMT-51"/>
       <use x="55.615234" xlink:href="#ArialMT-46"/>
       <use x="83.398438" xlink:href="#ArialMT-48"/>
      </g>
     </g>
    </g>
    <g id="xtick_3">
     <g id="line2d_3">
      <path clip-path="url(#p37c8eb6346)" d="M 243.864935 252 
L 243.864935 34.56 
" style="fill:none;stroke:#cccccc;stroke-linecap:round;stroke-width:0.8;"/>
     </g>
     <g id="text_3">
      <!-- 3.5 -->
      <g style="fill:#262626;" transform="translate(236.914935 266.157812)scale(0.1 -0.1)">
       <use xlink:href="#ArialMT-51"/>
       <use x="55.615234" xlink:href="#ArialMT-46"/>
       <use x="83.398438" xlink:href="#ArialMT-53"/>
      </g>
     </g>
    </g>
    <g id="xtick_4">
     <g id="line2d_4">
      <path clip-path="url(#p37c8eb6346)" d="M 316.332468 252 
L 316.332468 34.56 
" style="fill:none;stroke:#cccccc;stroke-linecap:round;stroke-width:0.8;"/>
     </g>
     <g id="text_4">
      <!-- 4.0 -->
      <g style="fill:#262626;" transform="translate(309.382468 266.157812)scale(0.1 -0.1)">
       <defs>
        <path d="M 32.328125 0 
L 32.328125 17.140625 
L 1.265625 17.140625 
L 1.265625 25.203125 
L 33.9375 71.578125 
L 41.109375 71.578125 
L 41.109375 25.203125 
L 50.78125 25.203125 
L 50.78125 17.140625 
L 41.109375 17.140625 
L 41.109375 0 
z
M 32.328125 25.203125 
L 32.328125 57.46875 
L 9.90625 25.203125 
z
" id="ArialMT-52"/>
       </defs>
       <use xlink:href="#ArialMT-52"/>
       <use x="55.615234" xlink:href="#ArialMT-46"/>
       <use x="83.398438" xlink:href="#ArialMT-48"/>
      </g>
     </g>
    </g>
    <g id="xtick_5">
     <g id="line2d_5">
      <path clip-path="url(#p37c8eb6346)" d="M 388.8 252 
L 388.8 34.56 
" style="fill:none;stroke:#cccccc;stroke-linecap:round;stroke-width:0.8;"/>
     </g>
     <g id="text_5">
      <!-- 4.5 -->
      <g style="fill:#262626;" transform="translate(381.85 266.157812)scale(0.1 -0.1)">
       <use xlink:href="#ArialMT-52"/>
       <use x="55.615234" xlink:href="#ArialMT-46"/>
       <use x="83.398438" xlink:href="#ArialMT-53"/>
      </g>
     </g>
    </g>
    <g id="text_6">
     <!-- 1e−5 -->
     <g style="fill:#262626;" transform="translate(366.276563 278.303125)scale(0.1 -0.1)">
      <defs>
       <path d="M 37.25 0 
L 28.46875 0 
L 28.46875 56 
Q 25.296875 52.984375 20.140625 49.953125 
Q 14.984375 46.921875 10.890625 45.40625 
L 10.890625 53.90625 
Q 18.265625 57.375 23.78125 62.296875 
Q 29.296875 67.234375 31.59375 71.875 
L 37.25 71.875 
z
" id="ArialMT-49"/>
       <path d="M 42.09375 16.703125 
L 51.171875 15.578125 
Q 49.03125 7.625 43.21875 3.21875 
Q 37.40625 -1.171875 28.375 -1.171875 
Q 17 -1.171875 10.328125 5.828125 
Q 3.65625 12.84375 3.65625 25.484375 
Q 3.65625 38.578125 10.390625 45.796875 
Q 17.140625 53.03125 27.875 53.03125 
Q 38.28125 53.03125 44.875 45.953125 
Q 51.46875 38.875 51.46875 26.03125 
Q 51.46875 25.25 51.421875 23.6875 
L 12.75 23.6875 
Q 13.234375 15.140625 17.578125 10.59375 
Q 21.921875 6.0625 28.421875 6.0625 
Q 33.25 6.0625 36.671875 8.59375 
Q 40.09375 11.140625 42.09375 16.703125 
z
M 13.234375 30.90625 
L 42.1875 30.90625 
Q 41.609375 37.453125 38.875 40.71875 
Q 34.671875 45.796875 27.984375 45.796875 
Q 21.921875 45.796875 17.796875 41.75 
Q 13.671875 37.703125 13.234375 30.90625 
z
" id="ArialMT-101"/>
       <path d="M 52.828125 31.203125 
L 5.5625 31.203125 
L 5.5625 39.40625 
L 52.828125 39.40625 
z
" id="ArialMT-8722"/>
      </defs>
      <use xlink:href="#ArialMT-49"/>
      <use x="55.615234" xlink:href="#ArialMT-101"/>
      <use x="111.230469" xlink:href="#ArialMT-8722"/>
      <use x="169.628906" xlink:href="#ArialMT-53"/>
     </g>
    </g>
   </g>
   <g id="matplotlib.axis_2">
    <g id="ytick_1">
     <g id="line2d_6">
      <path clip-path="url(#p37c8eb6346)" d="M 54 237.504 
L 388.8 237.504 
" style="fill:none;stroke:#cccccc;stroke-linecap:round;stroke-width:0.8;"/>
     </g>
     <g id="text_7">
      <!-- 0.007 -->
      <g style="fill:#262626;" transform="translate(21.978125 241.082906)scale(0.1 -0.1)">
       <defs>
        <path d="M 4.734375 62.203125 
L 4.734375 70.65625 
L 51.078125 70.65625 
L 51.078125 63.8125 
Q 44.234375 56.546875 37.515625 44.484375 
Q 30.8125 32.421875 27.15625 19.671875 
Q 24.515625 10.6875 23.78125 0 
L 14.75 0 
Q 14.890625 8.453125 18.0625 20.40625 
Q 21.234375 32.375 27.171875 43.484375 
Q 33.109375 54.59375 39.796875 62.203125 
z
" id="ArialMT-55"/>
       </defs>
       <use xlink:href="#ArialMT-48"/>
       <use x="55.615234" xlink:href="#ArialMT-46"/>
       <use x="83.398438" xlink:href="#ArialMT-48"/>
       <use x="139.013672" xlink:href="#ArialMT-48"/>
       <use x="194.628906" xlink:href="#ArialMT-55"/>
      </g>
     </g>
    </g>
    <g id="ytick_2">
     <g id="line2d_7">
      <path clip-path="url(#p37c8eb6346)" d="M 54 208.512 
L 388.8 208.512 
" style="fill:none;stroke:#cccccc;stroke-linecap:round;stroke-width:0.8;"/>
     </g>
     <g id="text_8">
      <!-- 0.008 -->
      <g style="fill:#262626;" transform="translate(21.978125 212.090906)scale(0.1 -0.1)">
       <defs>
        <path d="M 17.671875 38.8125 
Q 12.203125 40.828125 9.5625 44.53125 
Q 6.9375 48.25 6.9375 53.421875 
Q 6.9375 61.234375 12.546875 66.546875 
Q 18.171875 71.875 27.484375 71.875 
Q 36.859375 71.875 42.578125 66.421875 
Q 48.296875 60.984375 48.296875 53.171875 
Q 48.296875 48.1875 45.671875 44.5 
Q 43.0625 40.828125 37.75 38.8125 
Q 44.34375 36.671875 47.78125 31.875 
Q 51.21875 27.09375 51.21875 20.453125 
Q 51.21875 11.28125 44.71875 5.03125 
Q 38.234375 -1.21875 27.640625 -1.21875 
Q 17.046875 -1.21875 10.546875 5.046875 
Q 4.046875 11.328125 4.046875 20.703125 
Q 4.046875 27.6875 7.59375 32.390625 
Q 11.140625 37.109375 17.671875 38.8125 
z
M 15.921875 53.71875 
Q 15.921875 48.640625 19.1875 45.40625 
Q 22.46875 42.1875 27.6875 42.1875 
Q 32.765625 42.1875 36.015625 45.375 
Q 39.265625 48.578125 39.265625 53.21875 
Q 39.265625 58.0625 35.90625 61.359375 
Q 32.5625 64.65625 27.59375 64.65625 
Q 22.5625 64.65625 19.234375 61.421875 
Q 15.921875 58.203125 15.921875 53.71875 
z
M 13.09375 20.65625 
Q 13.09375 16.890625 14.875 13.375 
Q 16.65625 9.859375 20.171875 7.921875 
Q 23.6875 6 27.734375 6 
Q 34.03125 6 38.125 10.046875 
Q 42.234375 14.109375 42.234375 20.359375 
Q 42.234375 26.703125 38.015625 30.859375 
Q 33.796875 35.015625 27.4375 35.015625 
Q 21.234375 35.015625 17.15625 30.90625 
Q 13.09375 26.8125 13.09375 20.65625 
z
" id="ArialMT-56"/>
       </defs>
       <use xlink:href="#ArialMT-48"/>
       <use x="55.615234" xlink:href="#ArialMT-46"/>
       <use x="83.398438" xlink:href="#ArialMT-48"/>
       <use x="139.013672" xlink:href="#ArialMT-48"/>
       <use x="194.628906" xlink:href="#ArialMT-56"/>
      </g>
     </g>
    </g>
    <g id="ytick_3">
     <g id="line2d_8">
      <path clip-path="url(#p37c8eb6346)" d="M 54 179.52 
L 388.8 179.52 
" style="fill:none;stroke:#cccccc;stroke-linecap:round;stroke-width:0.8;"/>
     </g>
     <g id="text_9">
      <!-- 0.009 -->
      <g style="fill:#262626;" transform="translate(21.978125 183.098906)scale(0.1 -0.1)">
       <defs>
        <path d="M 5.46875 16.546875 
L 13.921875 17.328125 
Q 14.984375 11.375 18.015625 8.6875 
Q 21.046875 6 25.78125 6 
Q 29.828125 6 32.875 7.859375 
Q 35.9375 9.71875 37.890625 12.8125 
Q 39.84375 15.921875 41.15625 21.1875 
Q 42.484375 26.46875 42.484375 31.9375 
Q 42.484375 32.515625 42.4375 33.6875 
Q 39.796875 29.5 35.234375 26.875 
Q 30.671875 24.265625 25.34375 24.265625 
Q 16.453125 24.265625 10.296875 30.703125 
Q 4.15625 37.15625 4.15625 47.703125 
Q 4.15625 58.59375 10.578125 65.234375 
Q 17 71.875 26.65625 71.875 
Q 33.640625 71.875 39.421875 68.109375 
Q 45.21875 64.359375 48.21875 57.390625 
Q 51.21875 50.4375 51.21875 37.25 
Q 51.21875 23.53125 48.234375 15.40625 
Q 45.265625 7.28125 39.375 3.03125 
Q 33.5 -1.21875 25.59375 -1.21875 
Q 17.1875 -1.21875 11.859375 3.4375 
Q 6.546875 8.109375 5.46875 16.546875 
z
M 41.453125 48.140625 
Q 41.453125 55.71875 37.421875 60.15625 
Q 33.40625 64.59375 27.734375 64.59375 
Q 21.875 64.59375 17.53125 59.8125 
Q 13.1875 55.03125 13.1875 47.40625 
Q 13.1875 40.578125 17.3125 36.296875 
Q 21.4375 32.03125 27.484375 32.03125 
Q 33.59375 32.03125 37.515625 36.296875 
Q 41.453125 40.578125 41.453125 48.140625 
z
" id="ArialMT-57"/>
       </defs>
       <use xlink:href="#ArialMT-48"/>
       <use x="55.615234" xlink:href="#ArialMT-46"/>
       <use x="83.398438" xlink:href="#ArialMT-48"/>
       <use x="139.013672" xlink:href="#ArialMT-48"/>
       <use x="194.628906" xlink:href="#ArialMT-57"/>
      </g>
     </g>
    </g>
    <g id="ytick_4">
     <g id="line2d_9">
      <path clip-path="url(#p37c8eb6346)" d="M 54 150.528 
L 388.8 150.528 
" style="fill:none;stroke:#cccccc;stroke-linecap:round;stroke-width:0.8;"/>
     </g>
     <g id="text_10">
      <!-- 0.010 -->
      <g style="fill:#262626;" transform="translate(21.978125 154.106906)scale(0.1 -0.1)">
       <use xlink:href="#ArialMT-48"/>
       <use x="55.615234" xlink:href="#ArialMT-46"/>
       <use x="83.398438" xlink:href="#ArialMT-48"/>
       <use x="139.013672" xlink:href="#ArialMT-49"/>
       <use x="194.628906" xlink:href="#ArialMT-48"/>
      </g>
     </g>
    </g>
    <g id="ytick_5">
     <g id="line2d_10">
      <path clip-path="url(#p37c8eb6346)" d="M 54 121.536 
L 388.8 121.536 
" style="fill:none;stroke:#cccccc;stroke-linecap:round;stroke-width:0.8;"/>
     </g>
     <g id="text_11">
      <!-- 0.011 -->
      <g style="fill:#262626;" transform="translate(22.715625 125.114906)scale(0.1 -0.1)">
       <use xlink:href="#ArialMT-48"/>
       <use x="55.615234" xlink:href="#ArialMT-46"/>
       <use x="83.398438" xlink:href="#ArialMT-48"/>
       <use x="139.013672" xlink:href="#ArialMT-49"/>
       <use x="187.253906" xlink:href="#ArialMT-49"/>
      </g>
     </g>
    </g>
    <g id="ytick_6">
     <g id="line2d_11">
      <path clip-path="url(#p37c8eb6346)" d="M 54 92.544 
L 388.8 92.544 
" style="fill:none;stroke:#cccccc;stroke-linecap:round;stroke-width:0.8;"/>
     </g>
     <g id="text_12">
      <!-- 0.012 -->
      <g style="fill:#262626;" transform="translate(21.978125 96.122906)scale(0.1 -0.1)">
       <use xlink:href="#ArialMT-48"/>
       <use x="55.615234" xlink:href="#ArialMT-46"/>
       <use x="83.398438" xlink:href="#ArialMT-48"/>
       <use x="139.013672" xlink:href="#ArialMT-49"/>
       <use x="194.628906" xlink:href="#ArialMT-50"/>
      </g>
     </g>
    </g>
    <g id="ytick_7">
     <g id="line2d_12">
      <path clip-path="url(#p37c8eb6346)" d="M 54 63.552 
L 388.8 63.552 
" style="fill:none;stroke:#cccccc;stroke-linecap:round;stroke-width:0.8;"/>
     </g>
     <g id="text_13">
      <!-- 0.013 -->
      <g style="fill:#262626;" transform="translate(21.978125 67.130906)scale(0.1 -0.1)">
       <use xlink:href="#ArialMT-48"/>
       <use x="55.615234" xlink:href="#ArialMT-46"/>
       <use x="83.398438" xlink:href="#ArialMT-48"/>
       <use x="139.013672" xlink:href="#ArialMT-49"/>
       <use x="194.628906" xlink:href="#ArialMT-51"/>
      </g>
     </g>
    </g>
    <g id="ytick_8">
     <g id="line2d_13">
      <path clip-path="url(#p37c8eb6346)" d="M 54 34.56 
L 388.8 34.56 
" style="fill:none;stroke:#cccccc;stroke-linecap:round;stroke-width:0.8;"/>
     </g>
     <g id="text_14">
      <!-- 0.014 -->
      <g style="fill:#262626;" transform="translate(21.978125 38.138906)scale(0.1 -0.1)">
       <use xlink:href="#ArialMT-48"/>
       <use x="55.615234" xlink:href="#ArialMT-46"/>
       <use x="83.398438" xlink:href="#ArialMT-48"/>
       <use x="139.013672" xlink:href="#ArialMT-49"/>
       <use x="194.628906" xlink:href="#ArialMT-52"/>
      </g>
     </g>
    </g>
   </g>
   <g id="line2d_14">
    <path clip-path="url(#p37c8eb6346)" d="M 53.968327 205.204324 
L 54.240222 201.310875 
L 54.512117 205.204324 
L 54.784013 191.223337 
L 55.055908 191.975474 
L 55.327803 206.000716 
L 55.599698 202.859404 
L 55.871594 195.116759 
L 56.143489 200.558738 
L 56.415384 200.558738 
L 56.68728 196.665288 
L 56.959175 188.878417 
L 57.23107 193.568231 
L 57.502966 185.781359 
L 57.774861 191.975474 
L 58.046756 192.771866 
L 58.318652 192.771866 
L 58.590547 194.320395 
L 58.862442 181.135772 
L 59.134337 185.781359 
L 59.678128 188.878417 
L 60.221919 198.965981 
L 60.765709 189.674808 
L 61.037605 189.674808 
L 61.3095 182.684301 
L 61.581395 194.320395 
L 62.125186 189.674808 
L 62.397081 188.878417 
L 62.668976 190.426945 
L 62.940872 187.329888 
L 63.212767 191.975474 
L 63.484662 189.674808 
L 63.756558 184.984967 
L 64.028453 188.126279 
L 64.300348 180.339381 
L 64.572243 190.426945 
L 64.844139 183.436438 
L 65.116034 172.552482 
L 65.387929 200.558738 
L 65.659825 216.840418 
L 65.93172 160.120024 
L 66.203615 168.703287 
L 66.475511 198.213817 
L 66.747406 199.762346 
L 67.019301 231.61781 
L 67.291196 187.329888 
L 67.563092 181.88791 
L 67.834987 167.906895 
L 68.106882 221.530245 
L 68.378778 203.655795 
L 68.650673 195.868924 
L 68.922568 183.436438 
L 69.194464 160.120024 
L 69.466359 186.533496 
L 69.738254 185.781359 
L 70.282045 168.703287 
L 70.55394 164.013473 
L 70.825835 180.339381 
L 71.097731 178.790852 
L 71.369626 184.23283 
L 71.641521 186.533496 
L 71.913417 176.445931 
L 72.185312 182.684301 
L 72.457207 175.693794 
L 72.729103 193.568231 
L 73.000998 200.558738 
L 73.272893 200.558738 
L 73.544788 187.329888 
L 73.816684 184.984967 
L 74.088579 195.868924 
L 74.360474 186.533496 
L 74.63237 194.320395 
L 74.904265 189.674808 
L 75.17616 191.223337 
L 75.448056 189.674808 
L 75.719951 181.88791 
L 75.991846 190.426945 
L 76.263741 188.878417 
L 76.807532 188.878417 
L 77.351323 182.684301 
L 77.895113 192.771866 
L 78.167009 188.126279 
L 78.438904 186.533496 
L 78.710799 187.329888 
L 78.982694 191.223337 
L 79.25459 198.965981 
L 79.526485 202.859404 
L 79.79838 180.339381 
L 80.070276 185.781359 
L 80.342171 182.684301 
L 80.614066 191.223337 
L 80.885962 188.878417 
L 81.157857 188.126279 
L 81.701648 195.116759 
L 81.973543 193.568231 
L 82.245438 199.762346 
L 82.789229 201.310875 
L 83.061124 207.549245 
L 83.333019 208.301382 
L 83.604915 198.965981 
L 83.87681 198.213817 
L 84.148705 192.771866 
L 84.420601 189.674808 
L 84.692496 183.436438 
L 84.964391 186.533496 
L 85.236286 180.339381 
L 85.508182 181.135772 
L 85.780077 183.436438 
L 86.051972 189.674808 
L 86.867658 191.975474 
L 87.139554 202.859404 
L 87.411449 204.407933 
L 87.683344 191.223337 
L 87.955239 194.320395 
L 88.49903 187.329888 
L 88.770925 189.674808 
L 89.042821 193.568231 
L 89.314716 187.329888 
L 89.586611 189.674808 
L 89.858507 187.329888 
L 90.402297 196.665288 
L 90.674192 195.116759 
L 90.946088 190.426945 
L 91.217983 188.878417 
L 91.489878 191.975474 
L 91.761774 192.771866 
L 92.033669 189.674808 
L 92.305564 197.417453 
L 92.57746 194.320395 
L 93.12125 176.445931 
L 93.665041 181.135772 
L 93.936936 179.542989 
L 94.208831 180.339381 
L 94.480727 173.348874 
L 94.752622 173.348874 
L 95.024517 174.897402 
L 95.296413 188.878417 
L 95.568308 186.533496 
L 95.840203 186.533496 
L 96.112099 191.223337 
L 96.383994 189.674808 
L 96.655889 178.790852 
L 96.927784 181.88791 
L 97.19968 178.790852 
L 97.471575 179.542989 
L 97.74347 175.693794 
L 98.015366 179.542989 
L 98.287261 179.542989 
L 98.559156 173.348874 
L 98.831052 174.897402 
L 99.374842 169.455424 
L 99.646737 166.358367 
L 99.918633 161.71278 
L 100.190528 161.71278 
L 100.462423 160.916415 
L 100.734319 165.562002 
L 101.006214 161.71278 
L 101.8219 169.455424 
L 102.093795 157.022966 
L 102.36569 157.819358 
L 102.637586 150.828851 
L 102.909481 150.828851 
L 103.181376 155.474437 
L 103.725167 150.828851 
L 103.997062 153.129517 
L 104.268958 144.590481 
L 104.540853 150.032459 
L 104.812748 150.032459 
L 105.084643 148.48393 
L 105.356539 151.580988 
L 105.900329 138.396365 
L 106.172225 143.838343 
L 106.44412 144.590481 
L 106.716015 139.944894 
L 106.987911 139.944894 
L 107.259806 141.493423 
L 107.531701 129.857329 
L 107.803597 142.289815 
L 108.075492 145.386872 
L 108.347387 136.847836 
L 108.619282 135.25508 
L 108.891178 139.944894 
L 109.163073 139.148502 
L 109.434968 137.599974 
L 109.706864 139.944894 
L 109.978759 132.954387 
L 110.250654 129.857329 
L 111.06634 145.386872 
L 111.610131 125.963907 
L 111.882026 122.070458 
L 112.153921 125.167515 
L 112.425817 124.415378 
L 112.697712 125.167515 
L 112.969607 116.628479 
L 113.241503 120.521929 
L 113.513398 118.177008 
L 113.785293 122.070458 
L 114.057188 128.264573 
L 114.329084 125.167515 
L 114.600979 126.716044 
L 114.872874 125.167515 
L 115.416665 115.832088 
L 115.68856 117.424871 
L 115.960456 115.079951 
L 116.504246 105.744523 
L 116.776141 108.089443 
L 117.048037 122.070458 
L 117.319932 116.628479 
L 117.863723 97.205487 
L 118.135618 99.550408 
L 118.407513 108.089443 
L 118.679409 101.851074 
L 118.951304 100.302545 
L 119.223199 101.098936 
L 119.495095 109.637972 
L 119.76699 105.744523 
L 120.038885 104.992386 
L 120.31078 93.312065 
L 120.854571 101.851074 
L 121.126466 102.647465 
L 121.398362 95.656958 
L 121.670257 84.020892 
L 121.942152 90.215007 
L 122.214048 87.117949 
L 122.757838 84.020892 
L 123.029733 95.656958 
L 123.301629 92.559901 
L 123.573524 98.001879 
L 124.117315 94.860594 
L 124.38921 98.754016 
L 124.933001 97.205487 
L 125.748686 82.428108 
L 126.020582 95.656958 
L 126.292477 94.860594 
L 126.564372 93.312065 
L 126.836268 97.205487 
L 127.108163 94.108429 
L 127.380058 95.656958 
L 127.651954 89.418615 
L 127.923849 100.302545 
L 128.195744 92.559901 
L 128.467639 91.011372 
L 128.739535 93.312065 
L 129.01143 94.108429 
L 129.555221 92.559901 
L 129.827116 100.302545 
L 130.099011 102.647465 
L 130.370907 99.550408 
L 130.642802 100.302545 
L 130.914697 97.205487 
L 131.186593 91.763536 
L 131.458488 94.860594 
L 131.730383 101.098936 
L 132.002278 98.001879 
L 132.274174 98.001879 
L 132.546069 93.312065 
L 132.817964 96.409122 
L 133.08986 101.098936 
L 133.361755 102.647465 
L 133.63365 101.851074 
L 133.905546 104.195994 
L 134.177441 104.992386 
L 134.449336 104.195994 
L 134.721231 97.205487 
L 134.993127 111.186501 
L 135.265022 110.434364 
L 135.536917 105.744523 
L 135.808813 111.982893 
L 136.352603 117.424871 
L 136.624499 118.177008 
L 136.896394 116.628479 
L 137.168289 117.424871 
L 137.440184 112.73503 
L 137.71208 103.443857 
L 138.25587 118.177008 
L 138.527766 118.177008 
L 138.799661 121.274066 
L 139.071556 122.866822 
L 139.343452 118.177008 
L 139.615347 119.725537 
L 139.887242 113.531422 
L 140.159137 115.079951 
L 140.431033 115.832088 
L 140.702928 108.089443 
L 140.974823 118.9734 
L 141.246719 111.982893 
L 141.790509 118.177008 
L 142.3343 116.628479 
L 142.606195 111.982893 
L 143.149986 125.963907 
L 143.421881 127.512436 
L 143.693776 122.070458 
L 143.965672 128.264573 
L 144.237567 129.857329 
L 144.509462 124.415378 
L 144.781358 124.415378 
L 145.053253 121.274066 
L 145.325148 122.866822 
L 145.597044 122.866822 
L 145.868939 125.963907 
L 146.684625 114.283559 
L 146.95652 118.177008 
L 147.228415 129.060965 
L 147.500311 132.158022 
L 147.772206 128.264573 
L 148.044101 135.25508 
L 148.587892 116.628479 
L 149.403578 127.512436 
L 149.947368 118.9734 
L 150.219264 119.725537 
L 150.491159 116.628479 
L 150.763054 118.9734 
L 151.03495 123.618986 
L 151.306845 124.415378 
L 151.57874 115.079951 
L 151.850635 126.716044 
L 152.122531 123.618986 
L 152.394426 118.9734 
L 152.666321 122.866822 
L 152.938217 115.832088 
L 153.210112 115.832088 
L 153.482007 118.177008 
L 153.753903 109.637972 
L 154.025798 111.982893 
L 154.297693 115.832088 
L 154.841484 115.832088 
L 155.113379 108.841581 
L 155.385274 108.841581 
L 155.65717 109.637972 
L 155.929065 107.293052 
L 156.20096 108.841581 
L 156.472856 111.186501 
L 156.744751 108.841581 
L 157.288542 115.832088 
L 157.560437 109.637972 
L 157.832332 112.73503 
L 158.104227 111.186501 
L 158.376123 106.540915 
L 158.648018 99.550408 
L 158.919913 97.205487 
L 159.191809 97.205487 
L 159.463704 104.992386 
L 159.735599 105.744523 
L 160.007495 95.656958 
L 160.27939 96.409122 
L 160.551285 98.754016 
L 160.82318 98.001879 
L 161.095076 104.992386 
L 161.366971 101.098936 
L 161.638866 99.550408 
L 161.910762 99.550408 
L 162.182657 94.108429 
L 162.454552 95.656958 
L 162.998343 86.321558 
L 163.270238 87.870086 
L 163.542133 84.020892 
L 163.814029 87.117949 
L 164.085924 80.127442 
L 164.357819 78.578913 
L 164.629715 84.773029 
L 165.173505 79.331051 
L 165.445401 80.879579 
L 165.717296 81.675971 
L 165.989191 87.117949 
L 166.532982 74.685464 
L 166.804877 73.136935 
L 167.076772 77.782522 
L 167.348668 68.447094 
L 167.892458 76.98613 
L 168.164354 76.98613 
L 168.436249 76.233993 
L 168.708144 76.98613 
L 168.98004 76.233993 
L 169.251935 80.127442 
L 169.52383 75.437601 
L 169.795725 80.127442 
L 170.067621 77.782522 
L 170.339516 80.127442 
L 170.611411 78.578913 
L 170.883307 71.588406 
L 171.427097 87.870086 
L 171.698993 85.56942 
L 171.970888 87.870086 
L 172.242783 87.117949 
L 172.514678 87.117949 
L 173.058469 104.195994 
L 173.330364 92.559901 
L 173.60226 97.205487 
L 174.14605 113.531422 
L 174.417946 106.540915 
L 174.689841 96.409122 
L 175.233631 110.434364 
L 175.505527 118.9734 
L 175.777422 118.177008 
L 176.049317 118.9734 
L 176.321213 121.274066 
L 176.593108 115.079951 
L 176.865003 111.982893 
L 177.136899 118.9734 
L 177.408794 132.158022 
L 177.952585 121.274066 
L 178.496375 130.609494 
L 178.76827 131.405858 
L 179.040166 132.954387 
L 179.312061 125.963907 
L 179.583956 130.609494 
L 179.855852 137.599974 
L 180.127747 136.847836 
L 180.399642 131.405858 
L 180.671538 135.25508 
L 180.943433 136.051445 
L 181.215328 139.944894 
L 181.487223 136.847836 
L 181.759119 148.48393 
L 182.031014 148.48393 
L 182.574805 137.599974 
L 183.118595 162.464944 
L 183.390491 154.7223 
L 183.934281 146.935401 
L 184.206176 162.464944 
L 184.478072 162.464944 
L 184.749967 155.474437 
L 185.021862 152.377379 
L 185.293758 154.7223 
L 185.565653 165.562002 
L 185.837548 164.013473 
L 186.109444 170.251816 
L 186.381339 167.906895 
L 186.653234 160.120024 
L 186.925129 161.71278 
L 187.197025 165.562002 
L 187.46892 171.003953 
L 187.740815 171.003953 
L 188.012711 173.348874 
L 188.556501 170.251816 
L 188.828397 178.790852 
L 189.100292 175.693794 
L 189.372187 169.455424 
L 189.644082 168.703287 
L 189.915978 170.251816 
L 190.459768 178.790852 
L 190.731664 176.445931 
L 191.003559 172.552482 
L 191.275454 172.552482 
L 191.54735 175.693794 
L 191.819245 181.135772 
L 192.09114 183.436438 
L 192.363036 181.135772 
L 192.634931 180.339381 
L 193.178721 191.223337 
L 193.450617 183.436438 
L 193.994407 190.426945 
L 194.266303 178.790852 
L 194.538198 187.329888 
L 194.810093 187.329888 
L 195.081989 188.126279 
L 195.353884 182.684301 
L 195.897674 191.975474 
L 196.441465 179.542989 
L 196.71336 180.339381 
L 196.985256 192.771866 
L 197.257151 193.568231 
L 197.529046 191.975474 
L 197.800942 191.975474 
L 198.072837 185.781359 
L 198.344732 184.984967 
L 198.616627 191.223337 
L 198.888523 183.436438 
L 199.160418 189.674808 
L 199.432313 189.674808 
L 199.704209 198.213817 
L 200.247999 186.533496 
L 200.519895 191.223337 
L 200.79179 203.655795 
L 201.33558 181.135772 
L 201.607476 182.684301 
L 201.879371 192.771866 
L 202.151266 189.674808 
L 202.423162 188.126279 
L 202.695057 184.23283 
L 202.966952 188.126279 
L 203.238848 185.781359 
L 203.782638 177.242323 
L 204.054534 179.542989 
L 204.326429 183.436438 
L 204.598324 181.88791 
L 204.870219 176.445931 
L 205.142115 180.339381 
L 205.41401 178.790852 
L 205.685905 180.339381 
L 205.957801 178.790852 
L 206.229696 175.693794 
L 206.501591 184.23283 
L 206.773487 174.897402 
L 207.045382 174.145265 
L 207.317277 178.790852 
L 207.589172 178.790852 
L 207.861068 179.542989 
L 208.132963 176.445931 
L 208.948649 186.533496 
L 209.49244 162.464944 
L 209.764335 164.013473 
L 210.03623 157.819358 
L 210.580021 199.762346 
L 211.123811 144.590481 
L 211.395707 187.329888 
L 211.667602 176.445931 
L 211.939497 200.558738 
L 212.755183 164.809838 
L 213.027078 185.781359 
L 213.298974 195.868924 
L 213.570869 170.251816 
L 213.842764 185.781359 
L 214.11466 158.571495 
L 214.386555 175.693794 
L 214.65845 181.135772 
L 214.930346 171.800345 
L 215.474136 165.562002 
L 215.746032 174.145265 
L 216.289822 172.552482 
L 216.561717 193.568231 
L 216.833613 173.348874 
L 217.105508 175.693794 
L 217.377403 170.251816 
L 217.921194 201.310875 
L 218.193089 200.558738 
L 218.464985 195.868924 
L 218.73688 181.135772 
L 219.008775 181.88791 
L 219.28067 191.223337 
L 219.552566 194.320395 
L 219.824461 195.868924 
L 220.096356 181.135772 
L 220.368252 183.436438 
L 220.640147 184.23283 
L 220.912042 186.533496 
L 221.183938 191.223337 
L 221.455833 191.975474 
L 221.999623 179.542989 
L 222.271519 179.542989 
L 222.815309 188.878417 
L 223.3591 181.88791 
L 223.630995 184.984967 
L 223.902891 181.135772 
L 224.174786 188.126279 
L 224.446681 191.223337 
L 224.718576 184.984967 
L 224.990472 184.23283 
L 225.262367 182.684301 
L 225.534262 184.984967 
L 226.078053 203.655795 
L 226.621844 189.674808 
L 226.893739 200.558738 
L 227.165634 205.204324 
L 227.709425 200.558738 
L 228.253215 192.771866 
L 228.525111 193.568231 
L 228.797006 193.568231 
L 229.068901 197.417453 
L 229.340797 197.417453 
L 229.612692 193.568231 
L 229.884587 193.568231 
L 230.156483 188.126279 
L 230.700273 200.558738 
L 230.972168 191.975474 
L 231.244064 187.329888 
L 231.515959 195.868924 
L 232.05975 202.107267 
L 232.331645 201.310875 
L 232.60354 189.674808 
L 232.875436 191.223337 
L 233.147331 188.878417 
L 233.419226 191.223337 
L 233.691121 191.975474 
L 233.963017 197.417453 
L 234.234912 195.116759 
L 234.506807 189.674808 
L 234.778703 199.762346 
L 235.050598 203.655795 
L 236.138179 195.116759 
L 236.410074 195.868924 
L 236.68197 200.558738 
L 236.953865 199.762346 
L 237.22576 191.975474 
L 237.497656 193.568231 
L 237.769551 195.868924 
L 238.313342 187.329888 
L 238.585237 185.781359 
L 238.857132 191.223337 
L 239.129028 191.223337 
L 239.400923 193.568231 
L 239.672818 192.771866 
L 239.944713 185.781359 
L 240.488504 191.975474 
L 240.760399 189.674808 
L 241.30419 196.665288 
L 241.576085 192.771866 
L 241.847981 192.771866 
L 242.119876 184.984967 
L 242.391771 183.436438 
L 242.663666 187.329888 
L 242.935562 179.542989 
L 243.207457 181.88791 
L 243.479352 179.542989 
L 243.751248 179.542989 
L 244.023143 185.781359 
L 244.295038 186.533496 
L 244.566934 176.445931 
L 244.838829 177.242323 
L 245.110724 174.145265 
L 245.382619 180.339381 
L 245.654515 173.348874 
L 245.92641 170.251816 
L 246.198305 175.693794 
L 246.470201 176.445931 
L 246.742096 171.003953 
L 247.013991 167.906895 
L 247.285887 157.819358 
L 247.557782 160.120024 
L 247.829677 156.270829 
L 248.101572 158.571495 
L 248.373468 157.022966 
L 248.645363 147.687538 
L 249.461049 164.013473 
L 249.732944 161.71278 
L 250.00484 156.270829 
L 250.276735 156.270829 
L 250.54863 159.367886 
L 250.820526 165.562002 
L 251.636211 145.386872 
L 251.908107 151.580988 
L 252.180002 149.280322 
L 252.451897 150.032459 
L 252.723793 142.289815 
L 252.995688 145.386872 
L 253.539479 135.25508 
L 253.811374 136.051445 
L 254.355164 146.13901 
L 254.62706 136.051445 
L 254.898955 146.935401 
L 255.442746 139.944894 
L 255.714641 139.944894 
L 255.986536 138.396365 
L 256.530327 129.857329 
L 256.802222 130.609494 
L 257.074117 127.512436 
L 257.346013 136.051445 
L 257.617908 132.158022 
L 257.889803 132.158022 
L 258.161699 128.264573 
L 258.433594 132.158022 
L 258.705489 131.405858 
L 258.977385 128.264573 
L 259.24928 127.512436 
L 259.521175 129.060965 
L 259.79307 132.954387 
L 260.064966 132.954387 
L 260.336861 138.396365 
L 260.608756 129.060965 
L 260.880652 130.609494 
L 261.152547 121.274066 
L 261.696338 124.415378 
L 261.968233 120.521929 
L 262.240128 119.725537 
L 262.512024 124.415378 
L 262.783919 118.177008 
L 263.055814 126.716044 
L 263.599605 118.9734 
L 263.8715 124.415378 
L 264.687186 116.628479 
L 264.959081 111.982893 
L 265.230977 120.521929 
L 265.502872 115.079951 
L 265.774767 115.079951 
L 266.318558 104.992386 
L 266.590453 115.832088 
L 266.862348 118.9734 
L 267.134244 119.725537 
L 267.406139 117.424871 
L 267.94993 108.841581 
L 268.49372 119.725537 
L 268.765615 118.177008 
L 269.037511 115.079951 
L 269.853197 121.274066 
L 270.125092 122.070458 
L 270.396987 115.832088 
L 270.668883 112.73503 
L 270.940778 115.079951 
L 271.212673 119.725537 
L 271.756464 114.283559 
L 272.028359 106.540915 
L 272.300254 111.186501 
L 272.57215 111.982893 
L 273.11594 118.177008 
L 273.387836 118.177008 
L 273.659731 121.274066 
L 273.931626 122.070458 
L 274.203521 115.832088 
L 274.475417 118.177008 
L 274.747312 125.963907 
L 275.019207 123.618986 
L 275.562998 127.512436 
L 275.834893 129.060965 
L 276.106789 127.512436 
L 276.378684 128.264573 
L 276.650579 126.716044 
L 276.922475 122.866822 
L 277.19437 122.866822 
L 277.466265 129.857329 
L 278.010056 136.051445 
L 278.281951 122.070458 
L 278.553846 133.706551 
L 278.825742 139.944894 
L 279.097637 128.264573 
L 279.369532 127.512436 
L 279.641428 132.954387 
L 279.913323 134.502916 
L 280.185218 142.289815 
L 280.457113 140.697031 
L 280.729009 141.493423 
L 281.272799 132.954387 
L 281.544695 136.051445 
L 281.81659 140.697031 
L 282.360381 139.148502 
L 282.632276 142.289815 
L 282.904171 148.48393 
L 283.176066 144.590481 
L 283.447962 143.838343 
L 283.719857 142.289815 
L 283.991752 143.838343 
L 284.263648 142.289815 
L 284.535543 152.377379 
L 284.807438 142.289815 
L 285.079334 147.687538 
L 285.623124 139.944894 
L 285.895019 136.051445 
L 286.166915 143.041952 
L 286.43881 145.386872 
L 286.710705 150.828851 
L 286.982601 146.935401 
L 287.254496 148.48393 
L 287.526391 154.7223 
L 287.798287 153.129517 
L 288.070182 146.13901 
L 288.342077 146.13901 
L 288.613973 152.377379 
L 288.885868 152.377379 
L 289.157763 147.687538 
L 289.429658 153.925908 
L 289.701554 150.828851 
L 289.973449 149.280322 
L 290.245344 139.944894 
L 290.51724 143.041952 
L 290.789135 152.377379 
L 291.332926 148.48393 
L 291.604821 142.289815 
L 291.876716 143.041952 
L 292.148611 145.386872 
L 292.420507 139.944894 
L 292.692402 152.377379 
L 292.964297 149.280322 
L 293.236193 156.270829 
L 293.508088 143.838343 
L 293.779983 144.590481 
L 294.051879 143.838343 
L 294.323774 137.599974 
L 294.595669 146.935401 
L 294.867564 146.935401 
L 295.13946 143.838343 
L 295.411355 144.590481 
L 295.68325 146.13901 
L 295.955146 143.838343 
L 296.227041 137.599974 
L 296.498936 142.289815 
L 296.770832 139.944894 
L 297.042727 153.925908 
L 297.314622 151.580988 
L 297.586517 143.838343 
L 298.130308 149.280322 
L 298.402203 147.687538 
L 298.674099 141.493423 
L 298.945994 138.396365 
L 299.217889 139.148502 
L 299.489785 137.599974 
L 299.76168 143.041952 
L 300.033575 139.944894 
L 300.305471 134.502916 
L 300.577366 132.954387 
L 300.849261 144.590481 
L 301.121156 142.289815 
L 301.393052 127.512436 
L 301.664947 126.716044 
L 301.936842 139.148502 
L 302.208738 136.847836 
L 302.752528 128.264573 
L 303.024424 137.599974 
L 303.296319 138.396365 
L 304.3839 123.618986 
L 304.655795 129.857329 
L 304.927691 126.716044 
L 305.199586 129.060965 
L 305.471481 132.954387 
L 305.743377 129.060965 
L 306.015272 120.521929 
L 306.287167 121.274066 
L 306.559062 118.177008 
L 306.830958 128.264573 
L 307.374748 121.274066 
L 307.646644 122.866822 
L 307.918539 119.725537 
L 308.190434 111.186501 
L 308.46233 106.540915 
L 308.734225 112.73503 
L 309.00612 115.832088 
L 309.278015 108.089443 
L 309.549911 108.841581 
L 309.821806 101.098936 
L 310.093701 113.531422 
L 310.365597 109.637972 
L 310.637492 109.637972 
L 310.909387 99.550408 
L 311.181283 108.089443 
L 311.453178 103.443857 
L 311.996969 103.443857 
L 312.268864 105.744523 
L 312.540759 112.73503 
L 312.812654 102.647465 
L 313.08455 105.744523 
L 313.356445 98.001879 
L 313.62834 94.108429 
L 313.900236 96.409122 
L 314.172131 89.418615 
L 314.444026 93.312065 
L 314.715922 91.011372 
L 314.987817 96.409122 
L 315.259712 91.011372 
L 315.531607 88.666478 
L 315.803503 94.860594 
L 316.075398 97.205487 
L 316.347293 97.205487 
L 316.619189 87.117949 
L 317.162979 103.443857 
L 317.70677 94.860594 
L 317.978665 93.312065 
L 318.25056 99.550408 
L 318.522456 97.205487 
L 318.794351 101.098936 
L 319.610037 86.321558 
L 319.881932 97.205487 
L 320.153828 101.098936 
L 320.425723 91.763536 
L 320.697618 86.321558 
L 320.969513 91.011372 
L 321.241409 93.312065 
L 321.513304 101.098936 
L 322.057095 91.763536 
L 322.872781 103.443857 
L 323.144676 104.195994 
L 323.416571 93.312065 
L 323.688467 96.409122 
L 323.960362 89.418615 
L 324.232257 91.011372 
L 324.504152 95.656958 
L 324.776048 106.540915 
L 325.047943 109.637972 
L 325.319838 101.098936 
L 325.863629 111.186501 
L 326.135524 99.550408 
L 326.40742 104.195994 
L 326.679315 115.832088 
L 326.95121 118.177008 
L 327.223105 118.177008 
L 327.495001 115.832088 
L 327.766896 116.628479 
L 328.038791 118.177008 
L 328.310687 124.415378 
L 328.582582 124.415378 
L 328.854477 127.512436 
L 329.126373 126.716044 
L 329.398268 136.051445 
L 329.670163 139.148502 
L 329.942058 136.051445 
L 330.213954 136.847836 
L 330.485849 131.405858 
L 330.757744 137.599974 
L 331.02964 137.599974 
L 331.301535 143.838343 
L 331.57343 145.386872 
L 331.845326 143.838343 
L 332.117221 139.148502 
L 332.661011 148.48393 
L 332.932907 143.838343 
L 333.204802 146.13901 
L 333.476697 150.032459 
L 333.748593 156.270829 
L 334.020488 158.571495 
L 334.292383 156.270829 
L 334.564279 155.474437 
L 334.836174 150.828851 
L 335.108069 160.120024 
L 335.379965 164.809838 
L 335.65186 158.571495 
L 336.467546 171.003953 
L 336.739441 166.358367 
L 337.011336 167.110531 
L 337.283232 174.145265 
L 337.555127 174.897402 
L 337.827022 174.145265 
L 338.098918 169.455424 
L 338.370813 173.348874 
L 338.642708 167.110531 
L 338.914603 170.251816 
L 339.186499 174.897402 
L 339.458394 171.800345 
L 339.730289 171.800345 
L 340.002185 172.552482 
L 340.27408 176.445931 
L 340.545975 177.99446 
L 340.817871 174.897402 
L 341.089766 179.542989 
L 341.361661 174.145265 
L 341.633556 180.339381 
L 341.905452 176.445931 
L 342.177347 181.88791 
L 342.449242 177.242323 
L 342.721138 180.339381 
L 342.993033 181.135772 
L 343.264928 186.533496 
L 343.536824 186.533496 
L 343.808719 189.674808 
L 344.080614 188.126279 
L 344.352509 188.878417 
L 344.624405 181.135772 
L 344.8963 179.542989 
L 345.168195 185.781359 
L 345.440091 182.684301 
L 345.711986 181.135772 
L 345.983881 193.568231 
L 346.255777 196.665288 
L 346.527672 198.213817 
L 346.799567 186.533496 
L 347.071463 184.23283 
L 347.343358 186.533496 
L 347.615253 191.223337 
L 347.887148 188.878417 
L 348.159044 184.984967 
L 348.430939 190.426945 
L 348.702834 198.965981 
L 349.246625 181.135772 
L 349.51852 187.329888 
L 349.790416 180.339381 
L 350.062311 190.426945 
L 350.334206 191.223337 
L 350.606101 184.23283 
L 350.877997 188.878417 
L 351.149892 186.533496 
L 351.421787 182.684301 
L 351.693683 184.984967 
L 351.965578 184.23283 
L 352.237473 185.781359 
L 352.509369 178.790852 
L 352.781264 180.339381 
L 353.053159 181.135772 
L 353.59695 169.455424 
L 353.868845 166.358367 
L 354.14074 174.145265 
L 354.412636 174.897402 
L 354.956426 153.129517 
L 355.228322 153.925908 
L 355.500217 187.329888 
L 355.772112 169.455424 
L 356.044007 116.628479 
L 356.315903 162.464944 
L 356.587798 171.800345 
L 356.859693 192.771866 
L 357.131589 193.568231 
L 357.403484 166.358367 
L 357.675379 161.71278 
L 357.947275 154.7223 
L 358.21917 195.868924 
L 358.491065 167.110531 
L 358.76296 180.339381 
L 359.034856 151.580988 
L 359.306751 149.280322 
L 359.578646 164.809838 
L 359.850542 153.925908 
L 360.122437 153.925908 
L 360.666228 132.158022 
L 360.938123 145.386872 
L 361.210018 144.590481 
L 361.481914 167.110531 
L 361.753809 153.129517 
L 362.025704 153.129517 
L 362.297599 157.022966 
L 362.569495 152.377379 
L 362.84139 174.145265 
L 363.385181 168.703287 
L 363.657076 160.120024 
L 363.928971 162.464944 
L 364.200867 170.251816 
L 364.472762 169.455424 
L 365.016552 175.693794 
L 365.288448 171.800345 
L 365.832238 157.819358 
L 366.104134 175.693794 
L 366.376029 166.358367 
L 366.91982 171.800345 
L 367.191715 181.135772 
L 367.46361 170.251816 
L 367.735505 172.552482 
L 368.279296 167.906895 
L 368.551191 170.251816 
L 368.823087 171.003953 
L 369.094982 166.358367 
L 369.366877 171.800345 
L 369.638773 171.003953 
L 369.910668 171.800345 
L 370.182563 170.251816 
L 370.454458 169.455424 
L 370.726354 167.906895 
L 370.998249 177.242323 
L 371.270144 181.88791 
L 371.54204 181.88791 
L 371.813935 183.436438 
L 372.08583 181.135772 
L 372.357726 183.436438 
L 372.629621 191.223337 
L 372.901516 191.975474 
L 373.173412 188.126279 
L 373.445307 191.975474 
L 373.717202 186.533496 
L 374.260993 192.771866 
L 374.532888 184.23283 
L 374.804783 184.23283 
L 375.076679 189.674808 
L 375.348574 184.23283 
L 375.620469 182.684301 
L 375.892365 191.223337 
L 376.16426 189.674808 
L 376.436155 195.868924 
L 376.70805 183.436438 
L 376.979946 189.674808 
L 377.251841 187.329888 
L 377.523736 182.684301 
L 377.795632 192.771866 
L 378.067527 185.781359 
L 378.339422 185.781359 
L 378.611318 191.223337 
L 378.883213 181.88791 
L 379.155108 181.88791 
L 379.427003 179.542989 
L 379.970794 188.878417 
L 380.514585 188.878417 
L 380.78648 190.426945 
L 381.058375 187.329888 
L 381.330271 194.320395 
L 381.602166 188.878417 
L 382.145956 198.965981 
L 382.961642 182.684301 
L 383.233538 179.542989 
L 383.505433 179.542989 
L 383.777328 183.436438 
L 384.049224 179.542989 
L 384.321119 179.542989 
L 384.593014 171.800345 
L 385.136805 184.23283 
L 385.4087 190.426945 
L 385.680595 190.426945 
L 385.952491 174.897402 
L 386.224386 180.339381 
L 386.496281 183.436438 
L 386.768177 183.436438 
L 387.040072 182.684301 
L 387.311967 177.242323 
L 387.583863 174.897402 
L 388.127653 179.542989 
L 388.399548 185.781359 
L 388.671444 177.242323 
L 388.943339 174.897402 
L 388.943339 174.897402 
" style="fill:none;stroke:#1f77b4;stroke-linecap:round;stroke-width:1.5;"/>
   </g>
   <g id="line2d_15">
    <path clip-path="url(#p37c8eb6346)" d="M 53.968327 203.788532 
L 54.240222 200.691474 
L 54.512117 191.356047 
L 54.784013 199.895082 
L 55.055908 200.691474 
L 55.327803 193.700967 
L 55.599698 191.356047 
L 56.143489 198.346554 
L 56.415384 192.108211 
L 56.68728 196.001633 
L 56.959175 203.788532 
L 57.23107 198.346554 
L 57.502966 189.807518 
L 57.774861 198.346554 
L 58.318652 189.807518 
L 58.590547 191.356047 
L 58.862442 185.117704 
L 59.134337 186.666233 
L 59.406233 185.117704 
L 59.678128 182.020646 
L 60.221919 197.550162 
L 60.493814 188.258989 
L 60.765709 185.914095 
L 61.037605 192.904575 
L 61.3095 195.249496 
L 61.581395 194.453104 
L 61.85329 197.550162 
L 62.125186 196.001633 
L 62.397081 196.798025 
L 62.668976 196.001633 
L 62.940872 206.88559 
L 63.212767 189.011153 
L 63.484662 188.258989 
L 63.756558 190.559682 
L 64.028453 194.453104 
L 64.300348 191.356047 
L 64.572243 176.578668 
L 64.844139 196.001633 
L 65.116034 165.694711 
L 65.93172 189.807518 
L 66.203615 210.779039 
L 66.475511 198.346554 
L 66.747406 192.108211 
L 67.019301 171.13669 
L 67.291196 196.001633 
L 67.563092 189.807518 
L 67.834987 212.327568 
L 68.106882 202.99214 
L 68.650673 165.694711 
L 69.194464 185.117704 
L 69.466359 202.240003 
L 69.738254 194.453104 
L 70.01015 192.108211 
L 70.282045 180.472117 
L 70.55394 178.923588 
L 70.825835 179.675725 
L 71.369626 195.249496 
L 71.641521 191.356047 
L 71.913417 176.578668 
L 72.185312 192.108211 
L 72.457207 196.001633 
L 72.729103 191.356047 
L 73.000998 175.030139 
L 73.272893 175.782276 
L 73.544788 177.375059 
L 73.816684 193.700967 
L 74.088579 199.895082 
L 74.360474 202.99214 
L 74.63237 199.142945 
L 74.904265 202.99214 
L 75.17616 202.99214 
L 75.448056 197.550162 
L 75.719951 198.346554 
L 76.263741 204.584923 
L 76.535637 202.99214 
L 77.351323 196.001633 
L 77.623218 199.895082 
L 78.167009 192.108211 
L 78.438904 191.356047 
L 78.710799 196.001633 
L 79.25459 187.462624 
L 79.526485 192.108211 
L 79.79838 192.904575 
L 80.070276 197.550162 
L 80.342171 209.23051 
L 80.614066 207.681981 
L 80.885962 209.23051 
L 81.157857 213.123959 
L 81.429752 209.23051 
L 81.701648 195.249496 
L 81.973543 198.346554 
L 82.245438 196.798025 
L 82.517333 201.443611 
L 82.789229 193.700967 
L 83.061124 192.108211 
L 83.333019 195.249496 
L 83.604915 193.700967 
L 83.87681 199.142945 
L 84.420601 194.453104 
L 84.692496 196.001633 
L 84.964391 202.99214 
L 85.236286 214.672475 
L 85.780077 204.584923 
L 86.051972 199.142945 
L 86.323868 196.001633 
L 86.595763 202.240003 
L 86.867658 199.895082 
L 87.139554 205.337061 
L 87.411449 199.895082 
L 87.683344 197.550162 
L 87.955239 201.443611 
L 88.227135 190.559682 
L 88.49903 200.691474 
L 88.770925 198.346554 
L 89.042821 199.895082 
L 89.314716 200.691474 
L 89.586611 202.99214 
L 89.858507 202.240003 
L 90.130402 194.453104 
L 90.402297 194.453104 
L 90.674192 196.798025 
L 90.946088 202.240003 
L 91.489878 189.011153 
L 91.761774 189.807518 
L 92.033669 192.904575 
L 92.305564 194.453104 
L 92.57746 187.462624 
L 92.849355 185.914095 
L 93.12125 182.817038 
L 93.393146 186.666233 
L 93.665041 180.472117 
L 93.936936 194.453104 
L 94.208831 197.550162 
L 94.480727 196.798025 
L 94.752622 199.142945 
L 95.024517 199.895082 
L 95.296413 192.108211 
L 95.568308 192.904575 
L 95.840203 187.462624 
L 96.112099 188.258989 
L 96.655889 184.365566 
L 97.19968 173.48161 
L 97.471575 176.578668 
L 98.015366 189.807518 
L 98.287261 182.020646 
L 98.559156 187.462624 
L 99.102947 182.020646 
L 99.374842 182.020646 
L 99.646737 189.011153 
L 99.918633 185.117704 
L 100.190528 185.117704 
L 100.734319 175.782276 
L 101.278109 186.666233 
L 101.550005 182.020646 
L 102.093795 165.694711 
L 102.637586 173.48161 
L 102.909481 174.233747 
L 103.181376 168.039632 
L 103.725167 174.233747 
L 103.997062 174.233747 
L 104.540853 170.340298 
L 104.812748 169.588161 
L 105.084643 171.933081 
L 105.628434 161.049125 
L 105.900329 166.491103 
L 106.172225 165.694711 
L 106.44412 166.491103 
L 106.716015 160.25276 
L 106.987911 161.801289 
L 107.259806 164.942574 
L 107.531701 163.349818 
L 107.803597 164.942574 
L 108.075492 171.933081 
L 108.347387 167.24324 
L 108.619282 164.942574 
L 108.891178 164.146182 
L 109.163073 168.039632 
L 109.434968 162.597654 
L 109.706864 161.049125 
L 109.978759 154.058645 
L 110.250654 151.713724 
L 110.52255 152.465861 
L 111.06634 162.597654 
L 111.338235 162.597654 
L 111.610131 150.917333 
L 111.882026 150.917333 
L 112.153921 154.810782 
L 112.425817 153.262253 
L 112.697712 153.262253 
L 112.969607 161.049125 
L 113.785293 143.174688 
L 114.057188 158.704231 
L 114.329084 150.917333 
L 114.600979 155.607174 
L 114.872874 144.723217 
L 115.14477 152.465861 
L 115.68856 143.174688 
L 116.232351 146.271746 
L 116.504246 143.174688 
L 116.776141 150.165195 
L 117.048037 149.368804 
L 117.319932 150.917333 
L 117.591827 147.023883 
L 118.135618 148.616666 
L 118.679409 143.174688 
L 118.951304 143.926825 
L 119.495095 135.38779 
L 119.76699 134.591425 
L 120.038885 143.926825 
L 120.31078 149.368804 
L 120.582676 142.378297 
L 121.126466 135.38779 
L 121.942152 143.926825 
L 122.214048 139.281239 
L 122.485943 137.73271 
L 122.757838 140.829768 
L 123.029733 133.839261 
L 123.301629 135.38779 
L 123.845419 130.742203 
L 124.117315 130.742203 
L 124.933001 142.378297 
L 125.204896 131.494367 
L 125.476791 144.723217 
L 125.748686 143.174688 
L 126.020582 143.926825 
L 126.292477 133.839261 
L 126.564372 136.139954 
L 126.836268 136.936318 
L 127.380058 147.023883 
L 127.923849 139.281239 
L 128.467639 132.290732 
L 128.739535 132.290732 
L 129.01143 137.73271 
L 129.555221 137.73271 
L 129.827116 130.742203 
L 130.099011 128.397309 
L 130.370907 127.600918 
L 130.642802 130.742203 
L 131.186593 145.475354 
L 131.458488 141.581905 
L 131.730383 132.290732 
L 132.002278 146.271746 
L 132.274174 145.475354 
L 132.546069 143.174688 
L 132.817964 142.378297 
L 133.08986 140.829768 
L 133.361755 142.378297 
L 133.63365 140.829768 
L 133.905546 138.484847 
L 134.177441 138.484847 
L 134.449336 140.829768 
L 134.721231 140.829768 
L 134.993127 141.581905 
L 135.265022 146.271746 
L 135.536917 147.023883 
L 135.808813 143.174688 
L 136.080708 149.368804 
L 136.352603 145.475354 
L 136.624499 145.475354 
L 136.896394 144.723217 
L 137.168289 145.475354 
L 137.440184 141.581905 
L 137.71208 143.174688 
L 137.983975 143.926825 
L 138.25587 140.829768 
L 138.527766 149.368804 
L 138.799661 140.829768 
L 139.071556 149.368804 
L 139.343452 142.378297 
L 139.615347 144.723217 
L 140.159137 155.607174 
L 140.431033 147.023883 
L 140.702928 142.378297 
L 140.974823 140.033376 
L 141.518614 150.165195 
L 142.062405 143.926825 
L 142.3343 136.139954 
L 142.606195 137.73271 
L 142.878091 147.023883 
L 143.149986 147.023883 
L 143.421881 146.271746 
L 143.693776 143.926825 
L 143.965672 140.033376 
L 144.237567 148.616666 
L 144.509462 146.271746 
L 144.781358 140.033376 
L 145.053253 147.820275 
L 145.597044 142.378297 
L 145.868939 142.378297 
L 146.140834 143.926825 
L 146.412729 144.723217 
L 146.684625 143.174688 
L 147.228415 132.290732 
L 147.500311 136.936318 
L 147.772206 145.475354 
L 148.044101 144.723217 
L 148.315997 140.829768 
L 148.587892 144.723217 
L 148.859787 143.926825 
L 149.131682 141.581905 
L 149.403578 144.723217 
L 149.675473 139.281239 
L 149.947368 143.174688 
L 150.219264 136.139954 
L 150.491159 139.281239 
L 150.763054 147.820275 
L 151.306845 144.723217 
L 151.57874 136.936318 
L 151.850635 133.042896 
L 152.122531 140.829768 
L 152.394426 139.281239 
L 152.666321 135.38779 
L 152.938217 139.281239 
L 153.210112 137.73271 
L 153.482007 135.38779 
L 153.753903 142.378297 
L 154.025798 133.042896 
L 154.297693 141.581905 
L 154.569589 135.38779 
L 154.841484 135.38779 
L 155.113379 129.149447 
L 155.385274 135.38779 
L 155.65717 132.290732 
L 155.929065 130.742203 
L 156.20096 131.494367 
L 156.744751 140.829768 
L 157.016646 131.494367 
L 157.288542 137.73271 
L 157.560437 127.600918 
L 157.832332 127.600918 
L 158.104227 133.839261 
L 158.376123 136.139954 
L 158.648018 129.945838 
L 158.919913 135.38779 
L 159.191809 137.73271 
L 159.463704 133.042896 
L 160.007495 141.581905 
L 160.27939 132.290732 
L 160.551285 119.061882 
L 161.095076 120.610411 
L 161.638866 133.042896 
L 161.910762 134.591425 
L 162.182657 136.936318 
L 162.454552 133.839261 
L 162.726448 128.397309 
L 162.998343 135.38779 
L 163.270238 129.149447 
L 163.542133 133.042896 
L 163.814029 133.042896 
L 164.085924 128.397309 
L 164.357819 126.052389 
L 164.629715 136.139954 
L 164.90161 125.300252 
L 165.173505 128.397309 
L 165.717296 119.061882 
L 165.989191 119.858274 
L 166.261087 132.290732 
L 166.532982 129.945838 
L 166.804877 125.300252 
L 167.076772 124.50386 
L 167.348668 129.149447 
L 167.620563 122.15894 
L 167.892458 127.600918 
L 168.164354 128.397309 
L 168.436249 127.600918 
L 168.708144 130.742203 
L 168.98004 129.945838 
L 169.251935 135.38779 
L 169.52383 129.149447 
L 170.067621 134.591425 
L 170.339516 126.848781 
L 170.611411 126.052389 
L 170.883307 129.149447 
L 171.155202 129.945838 
L 171.427097 134.591425 
L 171.970888 139.281239 
L 172.242783 136.936318 
L 172.514678 133.042896 
L 173.058469 146.271746 
L 173.330364 141.581905 
L 173.60226 144.723217 
L 173.874155 150.917333 
L 174.14605 143.174688 
L 174.689841 148.616666 
L 174.961736 144.723217 
L 175.233631 152.465861 
L 175.505527 154.810782 
L 175.777422 151.713724 
L 176.049317 156.359311 
L 176.593108 156.359311 
L 176.865003 158.704231 
L 177.136899 156.359311 
L 177.408794 159.500596 
L 177.680689 161.049125 
L 177.952585 159.500596 
L 178.22448 163.349818 
L 178.496375 164.942574 
L 178.76827 164.942574 
L 179.040166 171.933081 
L 179.312061 171.933081 
L 179.583956 162.597654 
L 179.855852 172.685218 
L 180.127747 170.340298 
L 180.399642 172.685218 
L 180.671538 170.340298 
L 180.943433 172.685218 
L 181.215328 173.48161 
L 181.487223 176.578668 
L 181.759119 172.685218 
L 182.031014 172.685218 
L 182.574805 179.675725 
L 182.8467 178.923588 
L 183.118595 179.675725 
L 183.390491 181.224254 
L 183.662386 189.807518 
L 183.934281 185.117704 
L 184.206176 178.127197 
L 184.478072 179.675725 
L 184.749967 187.462624 
L 185.021862 185.914095 
L 185.293758 185.117704 
L 185.565653 183.569175 
L 185.837548 180.472117 
L 186.381339 196.798025 
L 186.653234 192.904575 
L 186.925129 197.550162 
L 187.197025 192.904575 
L 187.46892 182.817038 
L 188.012711 192.904575 
L 188.284606 183.569175 
L 188.556501 190.559682 
L 188.828397 184.365566 
L 189.372187 198.346554 
L 189.644082 198.346554 
L 189.915978 192.904575 
L 190.187873 193.700967 
L 190.459768 185.914095 
L 190.731664 188.258989 
L 191.003559 196.798025 
L 191.275454 190.559682 
L 191.54735 190.559682 
L 191.819245 194.453104 
L 192.09114 193.700967 
L 192.363036 198.346554 
L 192.634931 199.142945 
L 192.906826 203.788532 
L 193.178721 201.443611 
L 193.722512 187.462624 
L 193.994407 190.559682 
L 194.266303 189.807518 
L 194.538198 193.700967 
L 194.810093 202.99214 
L 195.081989 202.99214 
L 195.353884 195.249496 
L 195.625779 193.700967 
L 195.897674 197.550162 
L 196.16957 196.798025 
L 196.441465 203.788532 
L 196.71336 203.788532 
L 197.257151 199.142945 
L 197.529046 188.258989 
L 197.800942 189.807518 
L 198.072837 187.462624 
L 198.616627 201.443611 
L 198.888523 202.99214 
L 199.160418 201.443611 
L 199.432313 198.346554 
L 199.704209 189.807518 
L 199.976104 186.666233 
L 200.247999 190.559682 
L 200.519895 199.142945 
L 201.063685 192.904575 
L 201.33558 188.258989 
L 201.607476 194.453104 
L 202.151266 199.142945 
L 202.695057 192.108211 
L 202.966952 199.142945 
L 203.238848 199.142945 
L 203.510743 191.356047 
L 203.782638 198.346554 
L 204.326429 189.011153 
L 204.598324 195.249496 
L 204.870219 187.462624 
L 205.142115 196.001633 
L 205.41401 199.142945 
L 205.957801 191.356047 
L 206.229696 181.224254 
L 206.773487 196.798025 
L 207.045382 202.99214 
L 207.589172 195.249496 
L 207.861068 189.011153 
L 208.132963 187.462624 
L 208.404858 192.108211 
L 208.948649 180.472117 
L 209.220544 186.666233 
L 209.49244 177.375059 
L 209.764335 182.817038 
L 210.03623 178.923588 
L 210.308125 164.942574 
L 210.580021 189.011153 
L 210.851916 188.258989 
L 211.123811 206.88559 
L 211.395707 199.142945 
L 211.667602 199.142945 
L 211.939497 170.340298 
L 212.211393 188.258989 
L 212.483288 188.258989 
L 212.755183 213.123959 
L 213.027078 202.99214 
L 213.570869 163.349818 
L 213.842764 168.039632 
L 214.11466 166.491103 
L 214.386555 189.011153 
L 214.65845 194.453104 
L 214.930346 193.700967 
L 215.474136 177.375059 
L 216.017927 199.895082 
L 216.561717 178.127197 
L 216.833613 181.224254 
L 217.105508 179.675725 
L 217.377403 186.666233 
L 217.921194 175.782276 
L 218.193089 178.923588 
L 218.464985 170.340298 
L 219.28067 203.788532 
L 219.552566 191.356047 
L 219.824461 190.559682 
L 220.096356 193.700967 
L 220.368252 195.249496 
L 220.912042 202.99214 
L 221.183938 202.240003 
L 221.727728 190.559682 
L 221.999623 192.108211 
L 222.271519 189.807518 
L 222.543414 190.559682 
L 222.815309 189.807518 
L 223.087205 188.258989 
L 223.3591 178.923588 
L 223.630995 182.817038 
L 223.902891 190.559682 
L 224.718576 182.817038 
L 224.990472 184.365566 
L 225.262367 198.346554 
L 225.534262 202.99214 
L 225.806158 201.443611 
L 226.078053 199.142945 
L 226.349948 185.117704 
L 226.621844 183.569175 
L 226.893739 187.462624 
L 227.165634 195.249496 
L 227.43753 196.798025 
L 227.709425 201.443611 
L 227.98132 197.550162 
L 228.253215 199.895082 
L 228.525111 192.904575 
L 228.797006 192.904575 
L 229.068901 193.700967 
L 229.340797 190.559682 
L 229.612692 195.249496 
L 229.884587 188.258989 
L 230.156483 194.453104 
L 230.428378 193.700967 
L 230.700273 193.700967 
L 230.972168 198.346554 
L 231.244064 196.001633 
L 231.515959 185.914095 
L 231.787854 191.356047 
L 232.05975 185.914095 
L 232.331645 184.365566 
L 232.60354 182.020646 
L 232.875436 185.117704 
L 233.147331 186.666233 
L 233.419226 190.559682 
L 233.691121 187.462624 
L 233.963017 192.108211 
L 234.234912 192.108211 
L 234.778703 190.559682 
L 235.050598 186.666233 
L 235.322493 199.142945 
L 235.594389 192.904575 
L 235.866284 189.807518 
L 236.138179 184.365566 
L 236.410074 181.224254 
L 236.68197 190.559682 
L 236.953865 194.453104 
L 237.22576 178.923588 
L 237.497656 181.224254 
L 237.769551 178.127197 
L 238.313342 189.011153 
L 238.585237 185.914095 
L 238.857132 178.127197 
L 239.672818 184.365566 
L 239.944713 182.020646 
L 240.216609 190.559682 
L 240.488504 182.020646 
L 240.760399 185.117704 
L 241.032295 178.923588 
L 241.30419 168.039632 
L 241.576085 169.588161 
L 241.847981 161.801289 
L 242.391771 172.685218 
L 242.663666 173.48161 
L 242.935562 175.030139 
L 243.479352 178.923588 
L 243.751248 172.685218 
L 244.023143 181.224254 
L 244.566934 168.791769 
L 245.110724 164.146182 
L 245.654515 171.13669 
L 245.92641 164.942574 
L 246.198305 170.340298 
L 246.470201 164.942574 
L 246.742096 162.597654 
L 247.013991 155.607174 
L 247.285887 155.607174 
L 247.557782 162.597654 
L 248.101572 155.607174 
L 248.373468 164.942574 
L 248.645363 167.24324 
L 248.917258 168.039632 
L 249.189154 157.90784 
L 249.461049 156.359311 
L 249.732944 165.694711 
L 250.276735 156.359311 
L 250.54863 155.607174 
L 251.092421 147.023883 
L 251.364316 154.058645 
L 251.636211 157.155702 
L 251.908107 157.155702 
L 252.180002 161.801289 
L 252.451897 161.049125 
L 252.723793 159.500596 
L 252.995688 157.155702 
L 253.267583 149.368804 
L 253.811374 149.368804 
L 254.083269 156.359311 
L 254.355164 159.500596 
L 254.62706 147.023883 
L 254.898955 145.475354 
L 255.17085 150.165195 
L 255.442746 150.165195 
L 255.714641 150.917333 
L 255.986536 150.917333 
L 256.258432 138.484847 
L 256.530327 133.839261 
L 256.802222 136.139954 
L 257.074117 140.033376 
L 257.346013 147.023883 
L 257.617908 145.475354 
L 257.889803 136.936318 
L 258.161699 141.581905 
L 258.433594 137.73271 
L 258.705489 136.936318 
L 258.977385 136.936318 
L 259.24928 140.829768 
L 259.521175 137.73271 
L 259.79307 139.281239 
L 260.064966 139.281239 
L 260.336861 135.38779 
L 260.608756 136.139954 
L 260.880652 133.839261 
L 261.152547 128.397309 
L 261.424442 137.73271 
L 261.968233 132.290732 
L 262.240128 133.839261 
L 262.512024 132.290732 
L 262.783919 135.38779 
L 263.327709 128.397309 
L 263.599605 135.38779 
L 263.8715 133.839261 
L 264.143395 127.600918 
L 264.415291 128.397309 
L 264.687186 132.290732 
L 265.230977 116.716961 
L 265.502872 126.848781 
L 266.046662 118.26549 
L 266.318558 122.955331 
L 266.590453 120.610411 
L 266.862348 129.945838 
L 267.134244 130.742203 
L 267.406139 127.600918 
L 267.678034 131.494367 
L 267.94993 129.149447 
L 268.221825 129.945838 
L 268.49372 117.513353 
L 268.765615 117.513353 
L 269.037511 119.858274 
L 269.309406 115.964824 
L 269.581301 116.716961 
L 269.853197 118.26549 
L 270.396987 108.177925 
L 270.668883 101.187418 
L 270.940778 115.168433 
L 271.212673 119.858274 
L 271.484568 112.071375 
L 271.756464 110.522846 
L 272.028359 110.522846 
L 272.300254 119.061882 
L 272.57215 112.071375 
L 272.844045 112.071375 
L 273.11594 124.50386 
L 273.387836 116.716961 
L 273.659731 115.168433 
L 273.931626 116.716961 
L 274.475417 104.284476 
L 274.747312 114.416295 
L 275.019207 111.274983 
L 275.291103 113.619904 
L 275.562998 113.619904 
L 275.834893 109.726454 
L 276.106789 113.619904 
L 276.378684 111.274983 
L 276.650579 112.071375 
L 277.19437 108.974317 
L 277.466265 109.726454 
L 277.73816 107.381534 
L 278.010056 112.823512 
L 278.281951 113.619904 
L 278.553846 112.823512 
L 278.825742 108.974317 
L 279.097637 102.735947 
L 279.369532 102.735947 
L 279.641428 106.629397 
L 279.913323 115.964824 
L 280.185218 111.274983 
L 280.457113 113.619904 
L 280.729009 108.177925 
L 281.000904 113.619904 
L 281.272799 113.619904 
L 281.544695 109.726454 
L 282.088485 114.416295 
L 282.360381 118.26549 
L 282.632276 119.858274 
L 282.904171 115.964824 
L 283.176066 114.416295 
L 283.447962 113.619904 
L 283.719857 111.274983 
L 283.991752 106.629397 
L 284.263648 108.974317 
L 284.535543 106.629397 
L 284.807438 112.071375 
L 285.079334 112.823512 
L 285.351229 112.071375 
L 285.623124 112.823512 
L 285.895019 111.274983 
L 286.166915 106.629397 
L 286.43881 111.274983 
L 286.710705 109.726454 
L 286.982601 120.610411 
L 287.254496 119.061882 
L 287.526391 110.522846 
L 287.798287 112.071375 
L 288.070182 111.274983 
L 288.342077 111.274983 
L 288.613973 110.522846 
L 288.885868 110.522846 
L 289.429658 115.964824 
L 289.701554 115.964824 
L 289.973449 108.177925 
L 290.245344 106.629397 
L 290.51724 114.416295 
L 290.789135 112.823512 
L 291.06103 119.858274 
L 291.604821 108.177925 
L 291.876716 101.187418 
L 292.148611 107.381534 
L 292.420507 107.381534 
L 292.692402 105.833005 
L 292.964297 110.522846 
L 293.779983 98.090361 
L 294.051879 112.071375 
L 294.595669 102.735947 
L 294.867564 105.080868 
L 295.13946 101.939583 
L 295.68325 110.522846 
L 295.955146 107.381534 
L 296.498936 114.416295 
L 296.770832 101.939583 
L 297.042727 97.293996 
L 297.586517 98.842525 
L 297.858413 102.735947 
L 298.130308 101.187418 
L 298.402203 108.177925 
L 298.674099 106.629397 
L 298.945994 103.532339 
L 299.217889 97.293996 
L 299.489785 100.391054 
L 300.033575 110.522846 
L 300.305471 101.939583 
L 300.577366 87.206431 
L 300.849261 89.507097 
L 301.393052 98.842525 
L 301.664947 90.303489 
L 302.208738 98.090361 
L 302.480633 88.75496 
L 302.752528 91.852018 
L 303.024424 90.303489 
L 303.296319 91.099881 
L 303.568214 87.958568 
L 303.840109 96.541832 
L 304.112005 94.196938 
L 304.3839 97.293996 
L 304.655795 101.939583 
L 304.927691 101.187418 
L 305.199586 93.400547 
L 305.471481 92.648409 
L 305.743377 89.507097 
L 306.015272 94.196938 
L 306.287167 104.284476 
L 306.559062 98.842525 
L 306.830958 96.541832 
L 307.102853 97.293996 
L 307.374748 100.391054 
L 307.646644 97.293996 
L 307.918539 88.75496 
L 308.46233 88.75496 
L 308.734225 93.400547 
L 309.00612 87.206431 
L 309.549911 103.532339 
L 309.821806 87.206431 
L 310.365597 81.764453 
L 310.637492 80.215924 
L 310.909387 85.657902 
L 311.181283 83.312982 
L 311.453178 85.657902 
L 311.725073 81.764453 
L 311.996969 81.764453 
L 312.268864 80.215924 
L 312.540759 84.861511 
L 313.08455 87.958568 
L 313.356445 84.065119 
L 313.62834 84.065119 
L 313.900236 80.968061 
L 314.172131 83.312982 
L 314.444026 81.764453 
L 314.715922 89.507097 
L 314.987817 84.065119 
L 315.259712 88.75496 
L 315.531607 78.623141 
L 315.803503 77.871004 
L 316.075398 76.322475 
L 316.347293 68.535603 
L 316.619189 69.331968 
L 317.162979 77.074612 
L 317.70677 71.632661 
L 317.978665 72.429025 
L 318.25056 74.773946 
L 318.794351 70.084132 
L 319.066246 70.880497 
L 319.338142 79.419533 
L 319.610037 78.623141 
L 319.881932 73.18119 
L 320.153828 83.312982 
L 320.697618 88.75496 
L 320.969513 86.41004 
L 321.241409 91.852018 
L 321.513304 93.400547 
L 321.785199 96.541832 
L 322.057095 86.41004 
L 322.32899 88.75496 
L 322.600885 87.206431 
L 322.872781 86.41004 
L 323.144676 90.303489 
L 323.416571 97.293996 
L 323.688467 100.391054 
L 323.960362 101.187418 
L 324.232257 100.391054 
L 324.504152 105.833005 
L 325.319838 95.745467 
L 325.591734 96.541832 
L 325.863629 108.177925 
L 326.135524 108.177925 
L 326.40742 102.735947 
L 326.95121 121.406802 
L 327.495001 117.513353 
L 327.766896 115.964824 
L 328.038791 121.406802 
L 328.310687 121.406802 
L 328.582582 124.50386 
L 328.854477 129.945838 
L 329.126373 129.149447 
L 329.398268 123.707468 
L 329.670163 127.600918 
L 329.942058 128.397309 
L 330.213954 130.742203 
L 330.485849 129.945838 
L 330.757744 126.848781 
L 331.02964 127.600918 
L 331.301535 129.945838 
L 331.845326 147.820275 
L 332.117221 147.023883 
L 332.389116 145.475354 
L 332.661011 137.73271 
L 332.932907 144.723217 
L 333.204802 148.616666 
L 333.476697 141.581905 
L 333.748593 154.058645 
L 334.020488 152.465861 
L 334.292383 156.359311 
L 334.564279 154.058645 
L 334.836174 154.058645 
L 335.379965 143.174688 
L 335.65186 154.058645 
L 335.923755 149.368804 
L 336.19565 154.058645 
L 336.467546 154.810782 
L 336.739441 154.810782 
L 337.283232 166.491103 
L 337.555127 168.791769 
L 337.827022 167.24324 
L 338.098918 168.039632 
L 338.370813 168.039632 
L 338.642708 177.375059 
L 338.914603 168.791769 
L 339.186499 171.933081 
L 339.458394 169.588161 
L 339.730289 173.48161 
L 340.002185 171.933081 
L 340.27408 171.933081 
L 340.545975 161.801289 
L 340.817871 168.039632 
L 341.361661 186.666233 
L 341.633556 177.375059 
L 342.177347 171.13669 
L 342.449242 183.569175 
L 342.993033 177.375059 
L 343.264928 175.782276 
L 343.536824 175.030139 
L 343.808719 182.817038 
L 344.080614 185.117704 
L 344.352509 178.127197 
L 344.624405 175.782276 
L 344.8963 179.675725 
L 345.168195 181.224254 
L 345.440091 190.559682 
L 345.711986 192.108211 
L 345.983881 186.666233 
L 346.527672 192.904575 
L 346.799567 187.462624 
L 347.071463 186.666233 
L 347.343358 192.904575 
L 347.615253 185.914095 
L 347.887148 191.356047 
L 348.159044 186.666233 
L 348.430939 188.258989 
L 348.702834 187.462624 
L 348.97473 189.011153 
L 349.246625 197.550162 
L 349.790416 190.559682 
L 350.062311 191.356047 
L 350.334206 183.569175 
L 350.606101 187.462624 
L 350.877997 186.666233 
L 351.149892 197.550162 
L 351.421787 191.356047 
L 351.693683 188.258989 
L 351.965578 189.807518 
L 352.237473 199.142945 
L 352.509369 196.001633 
L 352.781264 194.453104 
L 353.59695 186.666233 
L 353.868845 193.700967 
L 354.14074 196.001633 
L 354.684531 176.578668 
L 354.956426 186.666233 
L 355.228322 152.465861 
L 355.500217 175.782276 
L 355.772112 167.24324 
L 356.044007 195.249496 
L 356.315903 200.691474 
L 356.587798 213.876097 
L 356.859693 168.791769 
L 357.131589 177.375059 
L 357.675379 200.691474 
L 357.947275 208.434118 
L 358.21917 202.99214 
L 358.491065 161.049125 
L 358.76296 164.942574 
L 359.034856 165.694711 
L 359.306751 183.569175 
L 359.578646 184.365566 
L 359.850542 183.569175 
L 360.122437 174.233747 
L 360.394332 172.685218 
L 360.666228 169.588161 
L 360.938123 180.472117 
L 361.210018 182.020646 
L 361.481914 180.472117 
L 362.025704 169.588161 
L 362.297599 179.675725 
L 362.569495 182.817038 
L 362.84139 178.127197 
L 363.113285 178.923588 
L 363.385181 167.24324 
L 363.657076 168.791769 
L 363.928971 180.472117 
L 364.200867 186.666233 
L 364.472762 189.807518 
L 364.744657 182.020646 
L 365.016552 185.914095 
L 365.288448 192.904575 
L 365.560343 189.807518 
L 365.832238 199.895082 
L 366.104134 187.462624 
L 366.376029 180.472117 
L 366.647924 178.923588 
L 367.191715 196.798025 
L 367.46361 190.559682 
L 367.735505 188.258989 
L 368.007401 184.365566 
L 368.279296 170.340298 
L 368.823087 189.011153 
L 369.094982 189.807518 
L 369.366877 175.782276 
L 369.638773 170.340298 
L 369.910668 181.224254 
L 370.182563 187.462624 
L 370.454458 185.914095 
L 370.726354 199.142945 
L 370.998249 197.550162 
L 371.270144 190.559682 
L 371.54204 189.011153 
L 372.08583 202.99214 
L 372.357726 201.443611 
L 372.629621 192.108211 
L 373.173412 195.249496 
L 373.445307 193.700967 
L 373.717202 189.807518 
L 373.989097 194.453104 
L 374.260993 188.258989 
L 375.348574 205.337061 
L 375.620469 203.788532 
L 375.892365 200.691474 
L 376.16426 207.681981 
L 376.70805 198.346554 
L 376.979946 198.346554 
L 377.251841 195.249496 
L 377.523736 195.249496 
L 377.795632 192.904575 
L 378.067527 194.453104 
L 378.339422 196.798025 
L 378.611318 195.249496 
L 378.883213 196.001633 
L 379.155108 192.108211 
L 379.427003 199.895082 
L 379.698899 200.691474 
L 380.242689 196.798025 
L 380.514585 202.240003 
L 380.78648 197.550162 
L 381.058375 195.249496 
L 381.330271 199.142945 
L 381.602166 192.904575 
L 382.145956 198.346554 
L 382.689747 188.258989 
L 383.233538 196.798025 
L 383.505433 192.108211 
L 383.777328 199.142945 
L 384.049224 202.99214 
L 384.321119 199.895082 
L 384.593014 190.559682 
L 384.86491 200.691474 
L 385.136805 199.142945 
L 385.952491 192.108211 
L 386.224386 192.904575 
L 386.496281 194.453104 
L 386.768177 189.011153 
L 387.040072 185.914095 
L 387.583863 194.453104 
L 387.855758 196.001633 
L 388.127653 196.001633 
L 388.399548 192.108211 
L 388.671444 199.142945 
L 388.943339 199.895082 
L 388.943339 199.895082 
" style="fill:none;stroke:#ff7f0e;stroke-linecap:round;stroke-width:1.5;"/>
   </g>
   <g id="line2d_16">
    <path clip-path="url(#p37c8eb6346)" d="M 62.721656 289 
L 62.722669 -1 
M 65.035979 -1 
L 65.037219 289 
M 65.334981 289 
L 65.338425 -1 
M 65.51857 -1 
L 65.527658 289 
M 207.675317 289 
L 207.67645 -1 
M 209.984491 -1 
L 209.985566 289 
M 210.286593 289 
L 210.291904 -1 
M 210.383319 -1 
L 210.407934 289 
M 352.679286 289 
L 352.681498 -1 
M 355.116552 -1 
L 355.120169 289 
M 355.450211 289 
L 355.45763 -1 
M 355.576441 -1 
L 355.589721 289 
L 355.589721 289 
" style="fill:none;stroke:#2ca02c;stroke-linecap:round;stroke-width:1.5;"/>
   </g>
   <g id="patch_3">
    <path d="M 54 252 
L 54 34.56 
" style="fill:none;stroke:#cccccc;stroke-linecap:square;stroke-linejoin:miter;stroke-width:0.8;"/>
   </g>
   <g id="patch_4">
    <path d="M 388.8 252 
L 388.8 34.56 
" style="fill:none;stroke:#cccccc;stroke-linecap:square;stroke-linejoin:miter;stroke-width:0.8;"/>
   </g>
   <g id="patch_5">
    <path d="M 54 252 
L 388.8 252 
" style="fill:none;stroke:#cccccc;stroke-linecap:square;stroke-linejoin:miter;stroke-width:0.8;"/>
   </g>
   <g id="patch_6">
    <path d="M 54 34.56 
L 388.8 34.56 
" style="fill:none;stroke:#cccccc;stroke-linecap:square;stroke-linejoin:miter;stroke-width:0.8;"/>
   </g>
  </g>
 </g>
 <defs>
  <clipPath id="p37c8eb6346">
   <rect height="217.44" width="334.8" x="54" y="34.56"/>
  </clipPath>
 </defs>
</svg>
