<?xml version="1.0" encoding="utf-8" standalone="no"?>
<!DOCTYPE svg PUBLIC "-//W3C//DTD SVG 1.1//EN"
  "http://www.w3.org/Graphics/SVG/1.1/DTD/svg11.dtd">
<!-- Created with matplotlib (https://matplotlib.org/) -->
<svg height="288pt" version="1.1" viewBox="0 0 432 288" width="432pt" xmlns="http://www.w3.org/2000/svg" xmlns:xlink="http://www.w3.org/1999/xlink">
 <metadata>
  <rdf:RDF xmlns:cc="http://creativecommons.org/ns#" xmlns:dc="http://purl.org/dc/elements/1.1/" xmlns:rdf="http://www.w3.org/1999/02/22-rdf-syntax-ns#">
   <cc:Work>
    <dc:type rdf:resource="http://purl.org/dc/dcmitype/StillImage"/>
    <dc:date>2022-05-31T11:57:07.803950</dc:date>
    <dc:format>image/svg+xml</dc:format>
    <dc:creator>
     <cc:Agent>
      <dc:title>Matplotlib v3.3.3, https://matplotlib.org/</dc:title>
     </cc:Agent>
    </dc:creator>
   </cc:Work>
  </rdf:RDF>
 </metadata>
 <defs>
  <style type="text/css">*{stroke-linecap:butt;stroke-linejoin:round;}</style>
 </defs>
 <g id="figure_1">
  <g id="patch_1">
   <path d="M 0 288 
L 432 288 
L 432 0 
L 0 0 
z
" style="fill:#ffffff;"/>
  </g>
  <g id="axes_1">
   <g id="patch_2">
    <path d="M 54 252 
L 388.8 252 
L 388.8 34.56 
L 54 34.56 
z
" style="fill:#ffffff;"/>
   </g>
   <g id="matplotlib.axis_1">
    <g id="xtick_1">
     <g id="line2d_1">
      <path clip-path="url(#p63d0ddb3f7)" d="M 63.3 252 
L 63.3 34.56 
" style="fill:none;stroke:#cccccc;stroke-linecap:round;stroke-width:0.8;"/>
     </g>
     <g id="text_1">
      <!-- 2.75 -->
      <g style="fill:#262626;" transform="translate(53.569531 266.157812)scale(0.1 -0.1)">
       <defs>
        <path d="M 50.34375 8.453125 
L 50.34375 0 
L 3.03125 0 
Q 2.9375 3.171875 4.046875 6.109375 
Q 5.859375 10.9375 9.828125 15.625 
Q 13.8125 20.3125 21.34375 26.46875 
Q 33.015625 36.03125 37.109375 41.625 
Q 41.21875 47.21875 41.21875 52.203125 
Q 41.21875 57.421875 37.46875 61 
Q 33.734375 64.59375 27.734375 64.59375 
Q 21.390625 64.59375 17.578125 60.78125 
Q 13.765625 56.984375 13.71875 50.25 
L 4.6875 51.171875 
Q 5.609375 61.28125 11.65625 66.578125 
Q 17.71875 71.875 27.9375 71.875 
Q 38.234375 71.875 44.234375 66.15625 
Q 50.25 60.453125 50.25 52 
Q 50.25 47.703125 48.484375 43.546875 
Q 46.734375 39.40625 42.65625 34.8125 
Q 38.578125 30.21875 29.109375 22.21875 
Q 21.1875 15.578125 18.9375 13.203125 
Q 16.703125 10.84375 15.234375 8.453125 
z
" id="ArialMT-50"/>
        <path d="M 9.078125 0 
L 9.078125 10.015625 
L 19.09375 10.015625 
L 19.09375 0 
z
" id="ArialMT-46"/>
        <path d="M 4.734375 62.203125 
L 4.734375 70.65625 
L 51.078125 70.65625 
L 51.078125 63.8125 
Q 44.234375 56.546875 37.515625 44.484375 
Q 30.8125 32.421875 27.15625 19.671875 
Q 24.515625 10.6875 23.78125 0 
L 14.75 0 
Q 14.890625 8.453125 18.0625 20.40625 
Q 21.234375 32.375 27.171875 43.484375 
Q 33.109375 54.59375 39.796875 62.203125 
z
" id="ArialMT-55"/>
        <path d="M 4.15625 18.75 
L 13.375 19.53125 
Q 14.40625 12.796875 18.140625 9.390625 
Q 21.875 6 27.15625 6 
Q 33.5 6 37.890625 10.78125 
Q 42.28125 15.578125 42.28125 23.484375 
Q 42.28125 31 38.0625 35.34375 
Q 33.84375 39.703125 27 39.703125 
Q 22.75 39.703125 19.328125 37.765625 
Q 15.921875 35.84375 13.96875 32.765625 
L 5.71875 33.84375 
L 12.640625 70.609375 
L 48.25 70.609375 
L 48.25 62.203125 
L 19.671875 62.203125 
L 15.828125 42.96875 
Q 22.265625 47.46875 29.34375 47.46875 
Q 38.71875 47.46875 45.15625 40.96875 
Q 51.609375 34.46875 51.609375 24.265625 
Q 51.609375 14.546875 45.953125 7.46875 
Q 39.0625 -1.21875 27.15625 -1.21875 
Q 17.390625 -1.21875 11.203125 4.25 
Q 5.03125 9.71875 4.15625 18.75 
z
" id="ArialMT-53"/>
       </defs>
       <use xlink:href="#ArialMT-50"/>
       <use x="55.615234" xlink:href="#ArialMT-46"/>
       <use x="83.398438" xlink:href="#ArialMT-55"/>
       <use x="139.013672" xlink:href="#ArialMT-53"/>
      </g>
     </g>
    </g>
    <g id="xtick_2">
     <g id="line2d_2">
      <path clip-path="url(#p63d0ddb3f7)" d="M 109.8 252 
L 109.8 34.56 
" style="fill:none;stroke:#cccccc;stroke-linecap:round;stroke-width:0.8;"/>
     </g>
     <g id="text_2">
      <!-- 3.00 -->
      <g style="fill:#262626;" transform="translate(100.069531 266.157812)scale(0.1 -0.1)">
       <defs>
        <path d="M 4.203125 18.890625 
L 12.984375 20.0625 
Q 14.5 12.59375 18.140625 9.296875 
Q 21.78125 6 27 6 
Q 33.203125 6 37.46875 10.296875 
Q 41.75 14.59375 41.75 20.953125 
Q 41.75 27 37.796875 30.921875 
Q 33.84375 34.859375 27.734375 34.859375 
Q 25.25 34.859375 21.53125 33.890625 
L 22.515625 41.609375 
Q 23.390625 41.5 23.921875 41.5 
Q 29.546875 41.5 34.03125 44.421875 
Q 38.53125 47.359375 38.53125 53.46875 
Q 38.53125 58.296875 35.25 61.46875 
Q 31.984375 64.65625 26.8125 64.65625 
Q 21.6875 64.65625 18.265625 61.421875 
Q 14.84375 58.203125 13.875 51.765625 
L 5.078125 53.328125 
Q 6.6875 62.15625 12.390625 67.015625 
Q 18.109375 71.875 26.609375 71.875 
Q 32.46875 71.875 37.390625 69.359375 
Q 42.328125 66.84375 44.9375 62.5 
Q 47.5625 58.15625 47.5625 53.265625 
Q 47.5625 48.640625 45.0625 44.828125 
Q 42.578125 41.015625 37.703125 38.765625 
Q 44.046875 37.3125 47.5625 32.6875 
Q 51.078125 28.078125 51.078125 21.140625 
Q 51.078125 11.765625 44.234375 5.25 
Q 37.40625 -1.265625 26.953125 -1.265625 
Q 17.53125 -1.265625 11.296875 4.34375 
Q 5.078125 9.96875 4.203125 18.890625 
z
" id="ArialMT-51"/>
        <path d="M 4.15625 35.296875 
Q 4.15625 48 6.765625 55.734375 
Q 9.375 63.484375 14.515625 67.671875 
Q 19.671875 71.875 27.484375 71.875 
Q 33.25 71.875 37.59375 69.546875 
Q 41.9375 67.234375 44.765625 62.859375 
Q 47.609375 58.5 49.21875 52.21875 
Q 50.828125 45.953125 50.828125 35.296875 
Q 50.828125 22.703125 48.234375 14.96875 
Q 45.65625 7.234375 40.5 3 
Q 35.359375 -1.21875 27.484375 -1.21875 
Q 17.140625 -1.21875 11.234375 6.203125 
Q 4.15625 15.140625 4.15625 35.296875 
z
M 13.1875 35.296875 
Q 13.1875 17.671875 17.3125 11.828125 
Q 21.4375 6 27.484375 6 
Q 33.546875 6 37.671875 11.859375 
Q 41.796875 17.71875 41.796875 35.296875 
Q 41.796875 52.984375 37.671875 58.78125 
Q 33.546875 64.59375 27.390625 64.59375 
Q 21.34375 64.59375 17.71875 59.46875 
Q 13.1875 52.9375 13.1875 35.296875 
z
" id="ArialMT-48"/>
       </defs>
       <use xlink:href="#ArialMT-51"/>
       <use x="55.615234" xlink:href="#ArialMT-46"/>
       <use x="83.398438" xlink:href="#ArialMT-48"/>
       <use x="139.013672" xlink:href="#ArialMT-48"/>
      </g>
     </g>
    </g>
    <g id="xtick_3">
     <g id="line2d_3">
      <path clip-path="url(#p63d0ddb3f7)" d="M 156.3 252 
L 156.3 34.56 
" style="fill:none;stroke:#cccccc;stroke-linecap:round;stroke-width:0.8;"/>
     </g>
     <g id="text_3">
      <!-- 3.25 -->
      <g style="fill:#262626;" transform="translate(146.569531 266.157812)scale(0.1 -0.1)">
       <use xlink:href="#ArialMT-51"/>
       <use x="55.615234" xlink:href="#ArialMT-46"/>
       <use x="83.398438" xlink:href="#ArialMT-50"/>
       <use x="139.013672" xlink:href="#ArialMT-53"/>
      </g>
     </g>
    </g>
    <g id="xtick_4">
     <g id="line2d_4">
      <path clip-path="url(#p63d0ddb3f7)" d="M 202.8 252 
L 202.8 34.56 
" style="fill:none;stroke:#cccccc;stroke-linecap:round;stroke-width:0.8;"/>
     </g>
     <g id="text_4">
      <!-- 3.50 -->
      <g style="fill:#262626;" transform="translate(193.069531 266.157812)scale(0.1 -0.1)">
       <use xlink:href="#ArialMT-51"/>
       <use x="55.615234" xlink:href="#ArialMT-46"/>
       <use x="83.398438" xlink:href="#ArialMT-53"/>
       <use x="139.013672" xlink:href="#ArialMT-48"/>
      </g>
     </g>
    </g>
    <g id="xtick_5">
     <g id="line2d_5">
      <path clip-path="url(#p63d0ddb3f7)" d="M 249.3 252 
L 249.3 34.56 
" style="fill:none;stroke:#cccccc;stroke-linecap:round;stroke-width:0.8;"/>
     </g>
     <g id="text_5">
      <!-- 3.75 -->
      <g style="fill:#262626;" transform="translate(239.569531 266.157812)scale(0.1 -0.1)">
       <use xlink:href="#ArialMT-51"/>
       <use x="55.615234" xlink:href="#ArialMT-46"/>
       <use x="83.398438" xlink:href="#ArialMT-55"/>
       <use x="139.013672" xlink:href="#ArialMT-53"/>
      </g>
     </g>
    </g>
    <g id="xtick_6">
     <g id="line2d_6">
      <path clip-path="url(#p63d0ddb3f7)" d="M 295.8 252 
L 295.8 34.56 
" style="fill:none;stroke:#cccccc;stroke-linecap:round;stroke-width:0.8;"/>
     </g>
     <g id="text_6">
      <!-- 4.00 -->
      <g style="fill:#262626;" transform="translate(286.069531 266.157812)scale(0.1 -0.1)">
       <defs>
        <path d="M 32.328125 0 
L 32.328125 17.140625 
L 1.265625 17.140625 
L 1.265625 25.203125 
L 33.9375 71.578125 
L 41.109375 71.578125 
L 41.109375 25.203125 
L 50.78125 25.203125 
L 50.78125 17.140625 
L 41.109375 17.140625 
L 41.109375 0 
z
M 32.328125 25.203125 
L 32.328125 57.46875 
L 9.90625 25.203125 
z
" id="ArialMT-52"/>
       </defs>
       <use xlink:href="#ArialMT-52"/>
       <use x="55.615234" xlink:href="#ArialMT-46"/>
       <use x="83.398438" xlink:href="#ArialMT-48"/>
       <use x="139.013672" xlink:href="#ArialMT-48"/>
      </g>
     </g>
    </g>
    <g id="xtick_7">
     <g id="line2d_7">
      <path clip-path="url(#p63d0ddb3f7)" d="M 342.3 252 
L 342.3 34.56 
" style="fill:none;stroke:#cccccc;stroke-linecap:round;stroke-width:0.8;"/>
     </g>
     <g id="text_7">
      <!-- 4.25 -->
      <g style="fill:#262626;" transform="translate(332.569531 266.157812)scale(0.1 -0.1)">
       <use xlink:href="#ArialMT-52"/>
       <use x="55.615234" xlink:href="#ArialMT-46"/>
       <use x="83.398438" xlink:href="#ArialMT-50"/>
       <use x="139.013672" xlink:href="#ArialMT-53"/>
      </g>
     </g>
    </g>
    <g id="xtick_8">
     <g id="line2d_8">
      <path clip-path="url(#p63d0ddb3f7)" d="M 388.8 252 
L 388.8 34.56 
" style="fill:none;stroke:#cccccc;stroke-linecap:round;stroke-width:0.8;"/>
     </g>
     <g id="text_8">
      <!-- 4.50 -->
      <g style="fill:#262626;" transform="translate(379.069531 266.157812)scale(0.1 -0.1)">
       <use xlink:href="#ArialMT-52"/>
       <use x="55.615234" xlink:href="#ArialMT-46"/>
       <use x="83.398438" xlink:href="#ArialMT-53"/>
       <use x="139.013672" xlink:href="#ArialMT-48"/>
      </g>
     </g>
    </g>
    <g id="text_9">
     <!-- 1e−5 -->
     <g style="fill:#262626;" transform="translate(366.276563 278.303125)scale(0.1 -0.1)">
      <defs>
       <path d="M 37.25 0 
L 28.46875 0 
L 28.46875 56 
Q 25.296875 52.984375 20.140625 49.953125 
Q 14.984375 46.921875 10.890625 45.40625 
L 10.890625 53.90625 
Q 18.265625 57.375 23.78125 62.296875 
Q 29.296875 67.234375 31.59375 71.875 
L 37.25 71.875 
z
" id="ArialMT-49"/>
       <path d="M 42.09375 16.703125 
L 51.171875 15.578125 
Q 49.03125 7.625 43.21875 3.21875 
Q 37.40625 -1.171875 28.375 -1.171875 
Q 17 -1.171875 10.328125 5.828125 
Q 3.65625 12.84375 3.65625 25.484375 
Q 3.65625 38.578125 10.390625 45.796875 
Q 17.140625 53.03125 27.875 53.03125 
Q 38.28125 53.03125 44.875 45.953125 
Q 51.46875 38.875 51.46875 26.03125 
Q 51.46875 25.25 51.421875 23.6875 
L 12.75 23.6875 
Q 13.234375 15.140625 17.578125 10.59375 
Q 21.921875 6.0625 28.421875 6.0625 
Q 33.25 6.0625 36.671875 8.59375 
Q 40.09375 11.140625 42.09375 16.703125 
z
M 13.234375 30.90625 
L 42.1875 30.90625 
Q 41.609375 37.453125 38.875 40.71875 
Q 34.671875 45.796875 27.984375 45.796875 
Q 21.921875 45.796875 17.796875 41.75 
Q 13.671875 37.703125 13.234375 30.90625 
z
" id="ArialMT-101"/>
       <path d="M 52.828125 31.203125 
L 5.5625 31.203125 
L 5.5625 39.40625 
L 52.828125 39.40625 
z
" id="ArialMT-8722"/>
      </defs>
      <use xlink:href="#ArialMT-49"/>
      <use x="55.615234" xlink:href="#ArialMT-101"/>
      <use x="111.230469" xlink:href="#ArialMT-8722"/>
      <use x="169.628906" xlink:href="#ArialMT-53"/>
     </g>
    </g>
   </g>
   <g id="matplotlib.axis_2">
    <g id="ytick_1">
     <g id="line2d_9">
      <path clip-path="url(#p63d0ddb3f7)" d="M 54 223.638261 
L 388.8 223.638261 
" style="fill:none;stroke:#cccccc;stroke-linecap:round;stroke-width:0.8;"/>
     </g>
     <g id="text_10">
      <!-- 0.008 -->
      <g style="fill:#262626;" transform="translate(21.978125 227.217167)scale(0.1 -0.1)">
       <defs>
        <path d="M 17.671875 38.8125 
Q 12.203125 40.828125 9.5625 44.53125 
Q 6.9375 48.25 6.9375 53.421875 
Q 6.9375 61.234375 12.546875 66.546875 
Q 18.171875 71.875 27.484375 71.875 
Q 36.859375 71.875 42.578125 66.421875 
Q 48.296875 60.984375 48.296875 53.171875 
Q 48.296875 48.1875 45.671875 44.5 
Q 43.0625 40.828125 37.75 38.8125 
Q 44.34375 36.671875 47.78125 31.875 
Q 51.21875 27.09375 51.21875 20.453125 
Q 51.21875 11.28125 44.71875 5.03125 
Q 38.234375 -1.21875 27.640625 -1.21875 
Q 17.046875 -1.21875 10.546875 5.046875 
Q 4.046875 11.328125 4.046875 20.703125 
Q 4.046875 27.6875 7.59375 32.390625 
Q 11.140625 37.109375 17.671875 38.8125 
z
M 15.921875 53.71875 
Q 15.921875 48.640625 19.1875 45.40625 
Q 22.46875 42.1875 27.6875 42.1875 
Q 32.765625 42.1875 36.015625 45.375 
Q 39.265625 48.578125 39.265625 53.21875 
Q 39.265625 58.0625 35.90625 61.359375 
Q 32.5625 64.65625 27.59375 64.65625 
Q 22.5625 64.65625 19.234375 61.421875 
Q 15.921875 58.203125 15.921875 53.71875 
z
M 13.09375 20.65625 
Q 13.09375 16.890625 14.875 13.375 
Q 16.65625 9.859375 20.171875 7.921875 
Q 23.6875 6 27.734375 6 
Q 34.03125 6 38.125 10.046875 
Q 42.234375 14.109375 42.234375 20.359375 
Q 42.234375 26.703125 38.015625 30.859375 
Q 33.796875 35.015625 27.4375 35.015625 
Q 21.234375 35.015625 17.15625 30.90625 
Q 13.09375 26.8125 13.09375 20.65625 
z
" id="ArialMT-56"/>
       </defs>
       <use xlink:href="#ArialMT-48"/>
       <use x="55.615234" xlink:href="#ArialMT-46"/>
       <use x="83.398438" xlink:href="#ArialMT-48"/>
       <use x="139.013672" xlink:href="#ArialMT-48"/>
       <use x="194.628906" xlink:href="#ArialMT-56"/>
      </g>
     </g>
    </g>
    <g id="ytick_2">
     <g id="line2d_10">
      <path clip-path="url(#p63d0ddb3f7)" d="M 54 185.822609 
L 388.8 185.822609 
" style="fill:none;stroke:#cccccc;stroke-linecap:round;stroke-width:0.8;"/>
     </g>
     <g id="text_11">
      <!-- 0.010 -->
      <g style="fill:#262626;" transform="translate(21.978125 189.401515)scale(0.1 -0.1)">
       <use xlink:href="#ArialMT-48"/>
       <use x="55.615234" xlink:href="#ArialMT-46"/>
       <use x="83.398438" xlink:href="#ArialMT-48"/>
       <use x="139.013672" xlink:href="#ArialMT-49"/>
       <use x="194.628906" xlink:href="#ArialMT-48"/>
      </g>
     </g>
    </g>
    <g id="ytick_3">
     <g id="line2d_11">
      <path clip-path="url(#p63d0ddb3f7)" d="M 54 148.006957 
L 388.8 148.006957 
" style="fill:none;stroke:#cccccc;stroke-linecap:round;stroke-width:0.8;"/>
     </g>
     <g id="text_12">
      <!-- 0.012 -->
      <g style="fill:#262626;" transform="translate(21.978125 151.585863)scale(0.1 -0.1)">
       <use xlink:href="#ArialMT-48"/>
       <use x="55.615234" xlink:href="#ArialMT-46"/>
       <use x="83.398438" xlink:href="#ArialMT-48"/>
       <use x="139.013672" xlink:href="#ArialMT-49"/>
       <use x="194.628906" xlink:href="#ArialMT-50"/>
      </g>
     </g>
    </g>
    <g id="ytick_4">
     <g id="line2d_12">
      <path clip-path="url(#p63d0ddb3f7)" d="M 54 110.191304 
L 388.8 110.191304 
" style="fill:none;stroke:#cccccc;stroke-linecap:round;stroke-width:0.8;"/>
     </g>
     <g id="text_13">
      <!-- 0.014 -->
      <g style="fill:#262626;" transform="translate(21.978125 113.770211)scale(0.1 -0.1)">
       <use xlink:href="#ArialMT-48"/>
       <use x="55.615234" xlink:href="#ArialMT-46"/>
       <use x="83.398438" xlink:href="#ArialMT-48"/>
       <use x="139.013672" xlink:href="#ArialMT-49"/>
       <use x="194.628906" xlink:href="#ArialMT-52"/>
      </g>
     </g>
    </g>
    <g id="ytick_5">
     <g id="line2d_13">
      <path clip-path="url(#p63d0ddb3f7)" d="M 54 72.375652 
L 388.8 72.375652 
" style="fill:none;stroke:#cccccc;stroke-linecap:round;stroke-width:0.8;"/>
     </g>
     <g id="text_14">
      <!-- 0.016 -->
      <g style="fill:#262626;" transform="translate(21.978125 75.954558)scale(0.1 -0.1)">
       <defs>
        <path d="M 49.75 54.046875 
L 41.015625 53.375 
Q 39.84375 58.546875 37.703125 60.890625 
Q 34.125 64.65625 28.90625 64.65625 
Q 24.703125 64.65625 21.53125 62.3125 
Q 17.390625 59.28125 14.984375 53.46875 
Q 12.59375 47.65625 12.5 36.921875 
Q 15.671875 41.75 20.265625 44.09375 
Q 24.859375 46.4375 29.890625 46.4375 
Q 38.671875 46.4375 44.84375 39.96875 
Q 51.03125 33.5 51.03125 23.25 
Q 51.03125 16.5 48.125 10.71875 
Q 45.21875 4.9375 40.140625 1.859375 
Q 35.0625 -1.21875 28.609375 -1.21875 
Q 17.625 -1.21875 10.6875 6.859375 
Q 3.765625 14.9375 3.765625 33.5 
Q 3.765625 54.25 11.421875 63.671875 
Q 18.109375 71.875 29.4375 71.875 
Q 37.890625 71.875 43.28125 67.140625 
Q 48.6875 62.40625 49.75 54.046875 
z
M 13.875 23.1875 
Q 13.875 18.65625 15.796875 14.5 
Q 17.71875 10.359375 21.1875 8.171875 
Q 24.65625 6 28.46875 6 
Q 34.03125 6 38.03125 10.484375 
Q 42.046875 14.984375 42.046875 22.703125 
Q 42.046875 30.125 38.078125 34.390625 
Q 34.125 38.671875 28.125 38.671875 
Q 22.171875 38.671875 18.015625 34.390625 
Q 13.875 30.125 13.875 23.1875 
z
" id="ArialMT-54"/>
       </defs>
       <use xlink:href="#ArialMT-48"/>
       <use x="55.615234" xlink:href="#ArialMT-46"/>
       <use x="83.398438" xlink:href="#ArialMT-48"/>
       <use x="139.013672" xlink:href="#ArialMT-49"/>
       <use x="194.628906" xlink:href="#ArialMT-54"/>
      </g>
     </g>
    </g>
    <g id="ytick_6">
     <g id="line2d_14">
      <path clip-path="url(#p63d0ddb3f7)" d="M 54 34.56 
L 388.8 34.56 
" style="fill:none;stroke:#cccccc;stroke-linecap:round;stroke-width:0.8;"/>
     </g>
     <g id="text_15">
      <!-- 0.018 -->
      <g style="fill:#262626;" transform="translate(21.978125 38.138906)scale(0.1 -0.1)">
       <use xlink:href="#ArialMT-48"/>
       <use x="55.615234" xlink:href="#ArialMT-46"/>
       <use x="83.398438" xlink:href="#ArialMT-48"/>
       <use x="139.013672" xlink:href="#ArialMT-49"/>
       <use x="194.628906" xlink:href="#ArialMT-56"/>
      </g>
     </g>
    </g>
   </g>
   <g id="line2d_15">
    <path clip-path="url(#p63d0ddb3f7)" d="M 53.680115 91.750905 
L 54.029031 92.789677 
L 54.377947 91.750905 
L 54.726863 88.721175 
L 55.075779 83.642781 
L 55.424695 82.142329 
L 55.77361 84.162149 
L 56.122526 78.073826 
L 56.471442 78.59323 
L 56.820358 77.583302 
L 57.169274 70.48507 
L 57.51819 71.494997 
L 57.867106 72.014366 
L 58.216022 71.494997 
L 58.913854 63.906241 
L 59.26277 70.975629 
L 59.611686 70.48507 
L 59.960601 71.494997 
L 60.309517 66.935989 
L 60.658433 65.406693 
L 61.007349 62.376945 
L 61.356265 61.367052 
L 61.705181 68.465249 
L 62.403013 63.906241 
L 62.751929 68.465249 
L 63.449761 80.122508 
L 63.798677 76.054006 
L 64.147592 76.054006 
L 64.496508 76.57341 
L 64.845424 81.132418 
L 65.543256 85.172059 
L 66.241088 80.61305 
L 66.590004 83.642781 
L 66.93892 107.967173 
L 67.636752 74.034186 
L 67.985668 105.947353 
L 68.334583 108.486559 
L 68.683499 129.752395 
L 69.032415 121.153728 
L 69.381331 106.466739 
L 69.730247 102.398254 
L 70.428079 133.820879 
L 70.776995 116.075316 
L 71.125911 132.810969 
L 71.474827 112.035675 
L 71.823743 120.634342 
L 72.172659 125.712754 
L 72.521574 125.193368 
L 72.87049 123.173548 
L 73.219406 119.133908 
L 73.568322 120.143818 
L 73.917238 129.752395 
L 74.266154 132.291583 
L 74.61507 139.389816 
L 74.963986 128.742485 
L 75.312902 135.840699 
L 75.661818 134.340265 
L 76.010734 149.517778 
L 76.35965 156.125469 
L 76.708565 157.135379 
L 77.057481 159.155199 
L 77.406397 145.968662 
L 77.755313 149.027237 
L 78.104229 155.115559 
L 78.453145 157.135379 
L 78.802061 165.734046 
L 79.150977 159.674585 
L 79.848809 166.253432 
L 80.197725 165.734046 
L 80.546641 170.293072 
L 80.895556 164.724136 
L 81.244472 168.792638 
L 81.593388 169.802548 
L 81.942304 167.78271 
L 82.29122 176.900763 
L 82.989052 180.449879 
L 83.337968 173.351647 
L 83.686884 174.361557 
L 84.0358 176.381377 
L 84.384716 176.381377 
L 84.733632 183.970134 
L 85.082547 174.852099 
L 85.431463 175.371467 
L 85.780379 174.852099 
L 86.129295 177.910673 
L 86.478211 182.960224 
L 87.176043 186.50934 
L 87.524959 186.018816 
L 87.873875 187.028726 
L 88.222791 192.078276 
L 88.571707 195.136851 
L 88.920623 191.068366 
L 89.269538 196.146761 
L 89.618454 190.577842 
L 89.96737 190.058456 
L 90.316286 190.577842 
L 90.665202 195.627393 
L 91.014118 194.126941 
L 91.363034 191.587752 
L 91.71195 188.038636 
L 92.060866 190.058456 
L 92.758698 195.627393 
L 93.107614 195.136851 
L 93.456529 196.146761 
L 93.805445 194.617482 
L 94.503277 198.166581 
L 94.852193 196.146761 
L 95.201109 200.705787 
L 95.550025 202.725607 
L 95.898941 197.676057 
L 96.247857 194.617482 
L 96.596773 200.705787 
L 96.945689 201.225173 
L 97.294605 204.254903 
L 97.64352 203.244993 
L 97.992436 198.685967 
L 98.341352 197.676057 
L 98.690268 194.617482 
L 99.039184 202.235083 
L 99.3881 203.735517 
L 99.737016 204.254903 
L 100.085932 206.794109 
L 100.434848 207.80402 
L 100.783764 207.80402 
L 101.13268 200.186401 
L 101.830511 194.617482 
L 102.179427 202.235083 
L 102.528343 205.264813 
L 102.877259 198.166581 
L 103.226175 199.176491 
L 103.575091 197.156671 
L 103.924007 196.146761 
L 104.272923 196.146761 
L 104.970755 199.695877 
L 105.319671 201.715697 
L 105.668587 200.186401 
L 106.366418 203.735517 
L 106.715334 202.725607 
L 107.06425 198.166581 
L 107.413166 198.685967 
L 107.762082 194.617482 
L 108.110998 195.136851 
L 108.459914 192.597662 
L 108.80883 194.126941 
L 109.157746 196.637303 
L 109.506662 194.617482 
L 109.855578 195.136851 
L 110.204493 198.166581 
L 110.553409 197.156671 
L 110.902325 191.587752 
L 111.251241 189.048546 
L 111.600157 198.685967 
L 111.949073 188.558022 
L 112.297989 192.078276 
L 112.646905 193.11703 
L 112.995821 193.11703 
L 113.344737 194.617482 
L 113.693653 191.068366 
L 114.042569 193.607572 
L 114.391484 194.617482 
L 114.7404 189.567932 
L 115.089316 188.038636 
L 115.438232 188.038636 
L 115.787148 182.469699 
L 116.136064 188.038636 
L 116.48498 189.567932 
L 116.833896 185.49943 
L 117.182812 188.558022 
L 117.531728 188.558022 
L 117.880644 189.048546 
L 118.22956 190.058456 
L 118.578475 189.048546 
L 119.276307 182.469699 
L 119.625223 185.008905 
L 119.974139 183.970134 
L 120.323055 189.048546 
L 121.020887 182.469699 
L 121.369803 192.078276 
L 121.718719 192.078276 
L 122.416551 182.469699 
L 122.765466 182.469699 
L 123.114382 183.479609 
L 123.463298 186.50934 
L 124.510046 180.940403 
L 124.858962 186.018816 
L 125.207878 180.449879 
L 125.90571 191.068366 
L 126.603542 186.50934 
L 126.952457 184.48952 
L 127.301373 185.49943 
L 127.650289 187.028726 
L 127.999205 186.50934 
L 128.348121 185.008905 
L 128.697037 180.449879 
L 129.045953 184.48952 
L 129.394869 184.48952 
L 129.743785 193.11703 
L 130.092701 192.078276 
L 130.441617 194.126941 
L 130.790533 189.048546 
L 131.139448 188.558022 
L 131.488364 188.558022 
L 131.83728 195.627393 
L 132.186196 198.685967 
L 132.535112 191.587752 
L 132.884028 191.068366 
L 133.232944 191.068366 
L 133.58186 196.637303 
L 133.930776 194.617482 
L 134.279692 194.617482 
L 134.628608 192.597662 
L 134.977524 194.617482 
L 135.326439 198.685967 
L 135.675355 194.126941 
L 136.373187 190.577842 
L 136.722103 193.607572 
L 137.071019 195.627393 
L 137.419935 202.725607 
L 138.117767 197.676057 
L 138.466683 198.685967 
L 138.815599 196.637303 
L 139.164515 197.676057 
L 139.51343 197.156671 
L 139.862346 201.715697 
L 140.211262 201.715697 
L 140.560178 197.676057 
L 140.909094 200.186401 
L 141.25801 200.186401 
L 141.606926 203.244993 
L 142.304758 199.695877 
L 142.653674 200.186401 
L 143.00259 198.166581 
L 143.351506 199.176491 
L 143.700421 199.176491 
L 144.049337 201.715697 
L 144.398253 202.725607 
L 144.747169 194.126941 
L 145.096085 198.166581 
L 145.445001 195.627393 
L 145.793917 195.136851 
L 146.142833 201.225173 
L 146.491749 200.186401 
L 146.840665 200.705787 
L 147.189581 199.695877 
L 147.538497 199.176491 
L 147.887412 200.186401 
L 148.236328 199.176491 
L 148.585244 206.274724 
L 148.93416 203.244993 
L 149.283076 195.627393 
L 149.631992 198.685967 
L 149.980908 198.166581 
L 150.329824 195.627393 
L 150.67874 196.146761 
L 151.027656 190.058456 
L 151.376572 194.617482 
L 152.074403 190.058456 
L 152.423319 192.078276 
L 152.772235 191.587752 
L 153.121151 192.597662 
L 153.470067 190.058456 
L 153.818983 191.587752 
L 154.167899 190.058456 
L 154.516815 187.028726 
L 154.865731 192.597662 
L 155.214647 186.018816 
L 155.563563 185.49943 
L 155.912479 182.960224 
L 156.261394 186.018816 
L 156.61031 182.960224 
L 156.959226 182.960224 
L 157.308142 178.920583 
L 157.657058 180.940403 
L 158.005974 177.391287 
L 158.35489 176.900763 
L 158.703806 181.950313 
L 159.052722 173.842189 
L 159.401638 170.293072 
L 159.750554 168.273252 
L 160.09947 169.283162 
L 160.448385 169.283162 
L 160.797301 162.704316 
L 161.146217 163.19484 
L 161.495133 166.253432 
L 161.844049 163.714226 
L 162.192965 162.18493 
L 162.541881 166.253432 
L 162.890797 152.056967 
L 163.239713 152.056967 
L 163.588629 151.047057 
L 163.937545 150.527689 
L 164.635376 145.478138 
L 164.984292 144.958752 
L 165.333208 144.958752 
L 165.682124 145.478138 
L 166.728872 142.448408 
L 167.077788 137.86052 
L 167.426704 135.350175 
L 167.77562 133.820879 
L 168.124536 137.369995 
L 168.473452 130.791149 
L 168.822367 131.801059 
L 169.171283 131.281673 
L 169.520199 123.173548 
L 169.869115 120.143818 
L 170.218031 124.702844 
L 170.566947 123.692934 
L 170.915863 122.163638 
L 171.264779 110.015855 
L 171.613695 107.476649 
L 171.962611 113.564971 
L 172.311527 114.574881 
L 172.660443 113.564971 
L 173.009358 112.035675 
L 173.358274 113.045585 
L 173.70719 112.526199 
L 174.056106 111.025765 
L 174.405022 105.456829 
L 175.102854 113.045585 
L 175.45177 114.055495 
L 175.800686 111.025765 
L 176.149602 101.388344 
L 176.498518 100.897802 
L 176.847434 102.398254 
L 177.196349 100.897802 
L 177.545265 98.358614 
L 177.894181 96.829318 
L 178.243097 95.819408 
L 179.289845 88.721175 
L 179.638761 84.162149 
L 179.987677 89.731085 
L 180.336593 91.750905 
L 180.685509 90.740995 
L 181.034425 87.711265 
L 181.732256 91.260381 
L 182.430088 85.691445 
L 182.779004 83.152239 
L 183.12792 85.172059 
L 183.476836 85.172059 
L 184.174668 81.62296 
L 184.523584 79.60314 
L 184.8725 82.142329 
L 185.221416 80.61305 
L 185.570331 86.181969 
L 185.919247 87.191879 
L 186.268163 87.711265 
L 186.617079 81.62296 
L 186.965995 78.59323 
L 187.314911 81.132418 
L 188.012743 80.122508 
L 188.361659 81.132418 
L 188.710575 85.691445 
L 189.059491 86.181969 
L 189.408407 81.62296 
L 189.757322 82.142329 
L 190.106238 79.60314 
L 190.80407 83.642781 
L 191.152986 86.701355 
L 191.501902 80.61305 
L 191.850818 79.60314 
L 192.199734 77.583302 
L 192.54865 81.132418 
L 192.897566 76.054006 
L 193.246482 77.583302 
L 193.595398 80.61305 
L 193.944313 89.240561 
L 194.293229 88.230651 
L 194.642145 79.083754 
L 194.991061 74.52471 
L 195.688893 84.162149 
L 196.037809 81.62296 
L 196.386725 86.701355 
L 196.735641 94.290112 
L 197.084557 89.240561 
L 197.433473 86.701355 
L 198.48022 96.309932 
L 198.829136 100.897802 
L 199.526968 95.819408 
L 199.875884 94.809497 
L 200.2248 101.388344 
L 200.922632 104.418074 
L 201.271548 100.897802 
L 201.620464 101.388344 
L 202.318295 108.486559 
L 202.667211 102.917622 
L 203.016127 101.388344 
L 203.365043 102.917622 
L 203.713959 105.947353 
L 204.062875 105.456829 
L 204.411791 105.947353 
L 204.760707 107.967173 
L 205.109623 104.937443 
L 205.458539 100.897802 
L 205.807455 95.300022 
L 206.156371 101.388344 
L 206.505286 125.193368 
L 207.203118 86.181969 
L 207.552034 112.526199 
L 207.90095 106.957263 
L 208.249866 128.742485 
L 208.947698 103.408164 
L 209.296614 96.829318 
L 209.994446 117.085226 
L 210.343362 101.388344 
L 210.692277 109.496469 
L 211.041193 77.063934 
L 211.390109 92.270291 
L 211.739025 99.859048 
L 212.087941 89.731085 
L 212.436857 90.740995 
L 212.785773 82.142329 
L 213.134689 85.172059 
L 213.483605 90.250471 
L 213.832521 81.62296 
L 214.181437 92.270291 
L 214.530353 88.230651 
L 214.879268 85.691445 
L 215.228184 89.731085 
L 215.5771 91.750905 
L 216.274932 105.456829 
L 216.972764 92.789677 
L 217.670596 98.358614 
L 218.019512 99.368524 
L 218.368428 101.907712 
L 219.066259 95.300022 
L 219.415175 94.809497 
L 219.764091 98.849138 
L 220.113007 97.348704 
L 220.461923 98.849138 
L 220.810839 93.799587 
L 221.159755 97.348704 
L 221.508671 103.408164 
L 221.857587 105.456829 
L 222.206503 103.927533 
L 222.555419 108.486559 
L 222.904335 105.947353 
L 223.25325 109.005945 
L 223.602166 110.015855 
L 223.951082 110.015855 
L 224.299998 115.584791 
L 225.346746 112.526199 
L 225.695662 111.025765 
L 226.044578 119.624432 
L 226.393494 121.673114 
L 226.74241 125.712754 
L 227.091326 121.673114 
L 227.440241 124.702844 
L 227.789157 130.791149 
L 228.138073 130.791149 
L 228.486989 137.369995 
L 228.835905 131.801059 
L 229.184821 135.840699 
L 229.533737 137.369995 
L 229.882653 129.752395 
L 230.231569 135.840699 
L 230.929401 133.820879 
L 231.278317 135.840699 
L 231.976148 136.850609 
L 232.67398 135.840699 
L 233.022896 142.448408 
L 233.371812 142.448408 
L 233.720728 140.399726 
L 234.069644 144.468228 
L 234.41856 151.047057 
L 234.767476 145.968662 
L 235.116392 145.478138 
L 235.465308 147.007416 
L 235.814223 146.488048 
L 236.163139 150.527689 
L 236.512055 150.527689 
L 236.860971 144.468228 
L 237.209887 148.017326 
L 237.907719 157.135379 
L 238.256635 160.684495 
L 238.954467 152.056967 
L 239.303383 151.566443 
L 239.652299 153.066877 
L 240.001214 157.625903 
L 240.35013 166.253432 
L 240.699046 161.17502 
L 241.047962 158.145289 
L 241.396878 158.635813 
L 241.745794 156.615993 
L 242.09471 155.606083 
L 242.443626 159.155199 
L 242.792542 159.155199 
L 243.141458 157.625903 
L 243.490374 158.635813 
L 243.83929 158.145289 
L 244.188205 158.635813 
L 244.537121 158.145289 
L 244.886037 161.694405 
L 245.234953 162.704316 
L 245.932785 155.115559 
L 246.281701 158.635813 
L 246.630617 159.674585 
L 246.979533 162.704316 
L 247.328449 162.18493 
L 247.677365 162.18493 
L 248.026281 160.165109 
L 248.375196 159.674585 
L 248.724112 160.684495 
L 249.073028 163.714226 
L 249.421944 156.615993 
L 249.77086 156.615993 
L 250.119776 160.684495 
L 250.468692 160.684495 
L 250.817608 154.596173 
L 251.166524 151.047057 
L 251.51544 156.125469 
L 251.864356 159.155199 
L 252.213272 159.155199 
L 252.562187 157.625903 
L 252.911103 152.576353 
L 253.260019 155.606083 
L 253.608935 152.056967 
L 253.957851 151.566443 
L 254.306767 151.566443 
L 254.655683 147.497958 
L 255.004599 148.017326 
L 255.353515 142.448408 
L 255.702431 141.409636 
L 256.051347 143.458318 
L 256.400263 141.929022 
L 256.749178 140.919112 
L 257.098094 144.958752 
L 257.44701 140.919112 
L 257.795926 138.899291 
L 258.144842 139.909201 
L 258.493758 141.409636 
L 258.842674 141.409636 
L 259.19159 142.448408 
L 259.540506 136.360085 
L 259.889422 139.909201 
L 260.238338 137.86052 
L 260.587254 131.801059 
L 260.936169 137.369995 
L 261.285085 134.340265 
L 261.634001 138.379905 
L 261.982917 137.86052 
L 262.331833 138.379905 
L 262.680749 134.340265 
L 263.378581 143.458318 
L 263.727497 140.399726 
L 264.076413 143.948842 
L 264.425329 144.468228 
L 264.774245 147.007416 
L 265.12316 144.468228 
L 265.472076 148.017326 
L 265.820992 150.037147 
L 266.169908 150.527689 
L 266.518824 153.586263 
L 266.86774 155.115559 
L 267.216656 154.596173 
L 267.565572 153.066877 
L 268.263404 147.497958 
L 268.61232 151.566443 
L 268.961236 153.066877 
L 269.310152 152.056967 
L 269.659067 157.135379 
L 270.007983 158.145289 
L 270.356899 153.586263 
L 270.705815 157.625903 
L 271.054731 163.714226 
L 271.403647 164.724136 
L 271.752563 165.243522 
L 272.101479 167.263342 
L 272.450395 162.18493 
L 272.799311 161.17502 
L 273.148227 166.253432 
L 273.497143 166.253432 
L 273.846058 166.743956 
L 274.54389 171.302982 
L 274.892806 177.391287 
L 275.241722 174.852099 
L 275.590638 174.852099 
L 276.28847 171.822368 
L 276.637386 177.910673 
L 276.986302 181.459789 
L 277.335218 174.852099 
L 277.684134 180.449879 
L 278.033049 183.970134 
L 278.381965 179.930493 
L 278.730881 174.361557 
L 279.079797 175.371467 
L 279.428713 174.852099 
L 279.777629 176.381377 
L 280.126545 174.361557 
L 280.475461 177.910673 
L 280.824377 185.008905 
L 281.173293 183.479609 
L 281.522209 179.411107 
L 281.871125 182.960224 
L 282.568956 179.411107 
L 282.917872 178.920583 
L 283.266788 174.852099 
L 283.615704 181.950313 
L 283.96462 181.950313 
L 284.313536 181.459789 
L 284.662452 181.950313 
L 285.011368 183.479609 
L 285.360284 183.479609 
L 285.7092 184.48952 
L 286.058116 189.048546 
L 286.407031 190.058456 
L 286.755947 190.058456 
L 287.104863 187.028726 
L 287.453779 188.038636 
L 287.802695 187.51925 
L 288.151611 193.607572 
L 288.500527 192.078276 
L 288.849443 193.607572 
L 289.198359 191.068366 
L 289.547275 185.49943 
L 289.896191 187.51925 
L 290.245107 191.068366 
L 290.594022 188.038636 
L 290.942938 188.038636 
L 291.64077 184.48952 
L 291.989686 191.587752 
L 292.338602 191.068366 
L 292.687518 193.607572 
L 293.036434 194.617482 
L 293.38535 192.597662 
L 293.734266 197.156671 
L 294.083182 194.617482 
L 294.432098 193.11703 
L 294.781013 191.068366 
L 295.478845 193.11703 
L 295.827761 190.577842 
L 296.176677 187.028726 
L 296.525593 188.038636 
L 296.874509 193.11703 
L 297.223425 180.449879 
L 297.572341 182.469699 
L 297.921257 179.930493 
L 298.270173 184.48952 
L 298.619089 187.028726 
L 298.968004 188.038636 
L 299.31692 185.49943 
L 299.665836 181.950313 
L 300.014752 183.479609 
L 300.363668 179.411107 
L 300.712584 178.401197 
L 301.0615 179.930493 
L 301.410416 175.371467 
L 301.759332 167.263342 
L 302.108248 170.812458 
L 302.457164 171.822368 
L 302.80608 175.371467 
L 303.503911 168.273252 
L 303.852827 161.694405 
L 304.201743 160.165109 
L 304.550659 157.135379 
L 304.899575 164.233612 
L 305.248491 160.165109 
L 305.597407 158.145289 
L 305.946323 152.576353 
L 306.295239 154.596173 
L 306.644155 155.606083 
L 306.993071 155.115559 
L 307.341986 155.606083 
L 307.690902 143.948842 
L 308.039818 143.948842 
L 308.388734 141.409636 
L 308.73765 134.340265 
L 309.086566 133.820879 
L 309.435482 134.340265 
L 309.784398 133.820879 
L 310.133314 134.340265 
L 310.48223 126.232122 
L 310.831146 129.752395 
L 311.180062 125.193368 
L 311.528977 122.163638 
L 311.877893 131.281673 
L 312.226809 126.232122 
L 312.575725 118.614522 
L 312.924641 122.163638 
L 313.273557 120.143818 
L 313.622473 119.133908 
L 313.971389 116.075316 
L 314.320305 118.123997 
L 314.669221 117.085226 
L 315.018137 109.496469 
L 315.367053 111.025765 
L 315.715968 111.516289 
L 316.064884 116.075316 
L 316.4138 118.123997 
L 316.762716 111.516289 
L 317.111632 107.476649 
L 317.460548 110.506379 
L 317.809464 111.516289 
L 318.15838 110.506379 
L 318.507296 103.927533 
L 318.856212 102.398254 
L 319.205128 99.368524 
L 319.554044 101.388344 
L 319.902959 101.388344 
L 320.251875 101.907712 
L 320.600791 100.897802 
L 320.949707 103.927533 
L 321.298623 105.456829 
L 321.647539 100.897802 
L 321.996455 100.378434 
L 322.345371 96.829318 
L 322.694287 96.309932 
L 323.043203 98.849138 
L 323.392119 88.721175 
L 323.741035 93.280201 
L 324.08995 90.740995 
L 324.787782 87.711265 
L 325.136698 88.230651 
L 325.83453 80.61305 
L 326.183446 84.162149 
L 326.532362 83.152239 
L 326.881278 83.152239 
L 327.230194 89.731085 
L 327.57911 81.132418 
L 327.928026 83.152239 
L 328.276941 83.152239 
L 328.625857 80.61305 
L 329.323689 84.162149 
L 329.672605 81.132418 
L 330.021521 82.63287 
L 330.370437 84.681535 
L 330.719353 84.162149 
L 331.068269 80.122508 
L 331.417185 82.63287 
L 331.766101 86.181969 
L 332.115017 83.642781 
L 332.812848 85.691445 
L 333.161764 87.191879 
L 333.51068 85.691445 
L 333.859596 88.721175 
L 334.208512 86.181969 
L 334.557428 86.181969 
L 334.906344 89.240561 
L 335.25526 88.230651 
L 335.604176 89.240561 
L 335.953092 89.731085 
L 336.302008 90.740995 
L 336.650923 89.731085 
L 336.999839 90.740995 
L 337.348755 93.799587 
L 337.697671 91.750905 
L 338.395503 103.927533 
L 338.744419 97.348704 
L 339.093335 97.348704 
L 339.442251 95.300022 
L 339.791167 98.358614 
L 340.140083 104.418074 
L 340.488999 105.947353 
L 340.837914 101.388344 
L 341.535746 112.526199 
L 341.884662 115.065405 
L 342.233578 115.065405 
L 342.582494 111.516289 
L 342.93141 112.035675 
L 343.280326 113.045585 
L 343.629242 110.015855 
L 343.978158 116.594701 
L 344.327074 117.085226 
L 344.67599 118.614522 
L 345.373821 115.065405 
L 345.722737 124.183458 
L 346.071653 139.389816 
L 346.769485 97.348704 
L 347.118401 126.722664 
L 347.467317 130.271763 
L 347.816233 153.066877 
L 348.165149 150.527689 
L 348.514065 132.810969 
L 348.862981 124.183458 
L 349.560812 154.596173 
L 349.909728 132.291583 
L 350.258644 145.478138 
L 350.60756 124.183458 
L 350.956476 136.850609 
L 351.305392 139.909201 
L 351.654308 140.919112 
L 352.003224 132.810969 
L 352.35214 130.271763 
L 352.701056 130.791149 
L 353.049972 137.369995 
L 353.398887 139.389816 
L 353.747803 142.448408 
L 354.096719 130.791149 
L 354.445635 139.389816 
L 354.794551 139.389816 
L 355.143467 151.047057 
L 355.492383 158.635813 
L 355.841299 155.606083 
L 356.539131 147.007416 
L 357.236963 157.135379 
L 357.585878 154.596173 
L 357.934794 157.625903 
L 358.28371 155.115559 
L 358.632626 154.596173 
L 358.981542 150.037147 
L 359.330458 155.606083 
L 359.679374 157.625903 
L 360.02829 151.566443 
L 360.726122 149.517778 
L 361.075038 154.596173 
L 361.423954 156.615993 
L 361.772869 156.125469 
L 362.121785 150.037147 
L 362.470701 147.007416 
L 362.819617 148.507868 
L 363.168533 147.007416 
L 363.517449 149.517778 
L 363.866365 153.586263 
L 364.215281 149.517778 
L 364.564197 139.909201 
L 364.913113 140.399726 
L 365.262029 141.929022 
L 365.610945 149.027237 
L 365.95986 151.047057 
L 366.308776 146.488048 
L 366.657692 145.968662 
L 367.006608 144.468228 
L 367.355524 147.007416 
L 367.70444 154.596173 
L 368.053356 152.056967 
L 368.402272 152.056967 
L 368.751188 146.488048 
L 369.100104 143.458318 
L 369.44902 145.968662 
L 369.797936 147.007416 
L 370.495767 134.830789 
L 370.844683 134.830789 
L 371.193599 138.379905 
L 371.542515 134.830789 
L 371.891431 133.301493 
L 372.240347 136.850609 
L 372.589263 130.271763 
L 372.938179 134.340265 
L 373.287095 131.281673 
L 373.636011 125.193368 
L 373.984927 129.261853 
L 374.333842 120.634342 
L 374.682758 124.183458 
L 375.031674 119.624432 
L 375.38059 120.143818 
L 376.078422 110.015855 
L 376.427338 109.496469 
L 376.776254 108.486559 
L 377.12517 106.957263 
L 377.474086 102.917622 
L 377.823002 103.408164 
L 378.171918 101.907712 
L 378.520833 106.957263 
L 378.869749 103.927533 
L 379.218665 101.907712 
L 379.567581 102.917622 
L 379.916497 103.408164 
L 380.265413 101.388344 
L 380.614329 91.260381 
L 380.963245 89.731085 
L 381.312161 89.731085 
L 381.661077 90.250471 
L 382.358909 83.152239 
L 382.707824 85.691445 
L 383.05674 79.60314 
L 383.405656 81.62296 
L 383.754572 81.62296 
L 384.103488 80.122508 
L 384.452404 81.62296 
L 384.80132 72.50489 
L 385.150236 74.52471 
L 385.499152 80.122508 
L 385.848068 75.044114 
L 386.196984 73.514818 
L 386.5459 73.024293 
L 386.894815 66.935989 
L 387.243731 68.465249 
L 387.592647 72.014366 
L 387.941563 69.965701 
L 388.290479 66.416585 
L 388.639395 64.916168 
L 388.988311 62.376945 
L 388.988311 62.376945 
" style="fill:none;stroke:#1f77b4;stroke-linecap:round;stroke-width:1.5;"/>
   </g>
   <g id="line2d_16">
    <path clip-path="url(#p63d0ddb3f7)" d="M 53.680115 72.533769 
L 54.029031 70.513949 
L 54.377947 72.014366 
L 54.726863 71.523841 
L 55.075779 74.553589 
L 55.424695 68.984653 
L 55.77361 72.533769 
L 56.122526 72.533769 
L 56.471442 68.465249 
L 56.820358 71.004473 
L 57.169274 70.513949 
L 57.51819 72.533769 
L 57.867106 73.543662 
L 58.216022 73.053137 
L 58.564938 67.455357 
L 58.913854 71.523841 
L 59.26277 71.523841 
L 59.611686 73.053137 
L 59.960601 69.504021 
L 60.309517 73.543662 
L 60.658433 74.553589 
L 61.007349 78.622074 
L 61.356265 78.102706 
L 61.705181 90.279333 
L 62.054097 87.740127 
L 62.403013 87.220741 
L 62.751929 89.269423 
L 63.100845 93.828431 
L 63.449761 96.367637 
L 63.798677 100.407278 
L 64.147592 102.45596 
L 64.496508 107.014986 
L 64.845424 109.525331 
L 65.19434 113.593833 
L 65.543256 107.014986 
L 65.892172 110.044716 
L 66.241088 104.966304 
L 66.590004 94.838341 
L 66.93892 119.682137 
L 67.287836 120.692048 
L 67.636752 140.976817 
L 67.985668 141.467341 
L 68.334583 144.006548 
L 68.683499 125.251074 
L 69.032415 133.359216 
L 69.381331 131.339396 
L 69.730247 154.13451 
L 70.079163 157.193085 
L 70.428079 144.525933 
L 70.776995 126.260984 
L 71.125911 127.270894 
L 71.474827 132.349306 
L 71.823743 143.516023 
L 72.172659 147.555664 
L 72.521574 148.07505 
L 72.87049 147.06514 
L 73.219406 148.07505 
L 73.568322 152.634058 
L 73.917238 164.291317 
L 74.266154 162.762021 
L 74.963986 154.13451 
L 75.312902 161.752111 
L 75.661818 165.820613 
L 76.010734 167.840433 
L 76.35965 157.683609 
L 76.708565 156.673699 
L 77.057481 153.643969 
L 77.406397 163.281407 
L 77.755313 176.958469 
L 78.104229 177.968379 
L 78.453145 174.938648 
L 78.802061 177.968379 
L 79.150977 176.958469 
L 79.499893 179.497675 
L 80.197725 189.135113 
L 80.546641 193.174754 
L 80.895556 191.154933 
L 81.244472 185.585997 
L 81.942304 181.517495 
L 82.29122 188.125203 
L 82.640136 185.585997 
L 82.989052 178.487764 
L 83.337968 183.537315 
L 83.686884 181.517495 
L 84.384716 193.174754 
L 84.733632 185.066611 
L 85.082547 182.527405 
L 85.431463 184.576087 
L 85.780379 196.723852 
L 86.129295 196.233328 
L 86.478211 187.086431 
L 86.827127 192.164844 
L 87.176043 190.145023 
L 87.524959 191.154933 
L 88.222791 199.263058 
L 88.571707 200.792354 
L 88.920623 195.713942 
L 89.269538 198.253148 
L 89.618454 198.253148 
L 89.96737 203.33156 
L 90.316286 203.33156 
L 90.665202 202.812175 
L 91.014118 199.263058 
L 91.363034 200.272969 
L 91.71195 198.743673 
L 92.060866 203.33156 
L 92.409782 205.841905 
L 92.758698 202.292789 
L 93.107614 205.351381 
L 93.456529 204.341471 
L 93.805445 202.292789 
L 94.154361 198.253148 
L 94.503277 199.263058 
L 95.201109 211.930227 
L 95.898941 200.272969 
L 96.247857 200.792354 
L 96.596773 207.890587 
L 97.294605 213.978892 
L 97.64352 210.429775 
L 97.992436 209.391021 
L 98.341352 211.439685 
L 98.690268 211.930227 
L 99.039184 213.459506 
L 99.3881 211.439685 
L 99.737016 211.930227 
L 100.085932 213.459506 
L 100.434848 212.940137 
L 100.783764 212.940137 
L 101.13268 212.449596 
L 101.481596 209.391021 
L 101.830511 210.429775 
L 102.179427 209.910407 
L 102.528343 214.988802 
L 102.877259 217.528008 
L 103.226175 216.489236 
L 103.575091 213.978892 
L 103.924007 213.459506 
L 104.272923 219.547828 
L 104.621839 218.537918 
L 104.970755 215.998712 
L 105.319671 211.439685 
L 105.668587 214.469416 
L 106.017502 213.978892 
L 106.366418 216.489236 
L 106.715334 215.998712 
L 107.06425 210.920317 
L 107.413166 215.479326 
L 107.762082 210.920317 
L 108.110998 211.930227 
L 108.459914 215.479326 
L 108.80883 220.557738 
L 109.157746 221.567648 
L 109.506662 219.028442 
L 110.204493 216.489236 
L 110.553409 215.479326 
L 110.902325 214.988802 
L 112.297989 221.077124 
L 112.995821 216.489236 
L 113.344737 212.449596 
L 113.693653 214.469416 
L 114.042569 220.557738 
L 114.391484 218.018532 
L 114.7404 222.087034 
L 115.089316 224.597379 
L 115.438232 225.63615 
L 115.787148 219.028442 
L 116.136064 222.087034 
L 116.833896 226.126675 
L 117.182812 222.087034 
L 117.880644 221.077124 
L 118.22956 220.038352 
L 118.578475 223.096944 
L 118.927391 221.077124 
L 119.276307 226.64606 
L 119.625223 222.577558 
L 119.974139 221.077124 
L 120.323055 220.557738 
L 121.020887 224.106854 
L 121.718719 227.655962 
L 122.067635 227.136585 
L 122.416551 226.126675 
L 122.765466 222.087034 
L 123.114382 223.587469 
L 123.463298 227.136585 
L 123.812214 227.136585 
L 124.16113 223.096944 
L 124.858962 219.547828 
L 125.207878 220.038352 
L 125.556794 222.087034 
L 125.90571 225.63615 
L 126.254626 223.587469 
L 126.603542 225.63615 
L 126.952457 221.567648 
L 127.301373 225.63615 
L 127.650289 224.597379 
L 127.999205 228.665872 
L 128.348121 228.146495 
L 128.697037 229.675782 
L 129.045953 227.136585 
L 129.394869 220.557738 
L 129.743785 228.146495 
L 130.092701 228.146495 
L 130.441617 225.116764 
L 130.790533 226.64606 
L 131.139448 224.106854 
L 131.488364 227.136585 
L 131.83728 222.577558 
L 132.186196 219.547828 
L 132.535112 214.469416 
L 132.884028 225.116764 
L 133.232944 223.587469 
L 133.930776 233.744284 
L 134.279692 230.195168 
L 134.628608 228.146495 
L 134.977524 224.597379 
L 135.326439 222.577558 
L 135.675355 221.567648 
L 136.024271 219.028442 
L 137.071019 226.64606 
L 137.768851 221.567648 
L 138.117767 222.577558 
L 138.466683 227.655962 
L 138.815599 227.655962 
L 139.164515 224.597379 
L 139.51343 224.597379 
L 139.862346 226.126675 
L 140.211262 224.597379 
L 140.560178 219.028442 
L 140.909094 224.106854 
L 141.25801 223.587469 
L 141.606926 229.185258 
L 141.955842 229.185258 
L 142.304758 222.577558 
L 142.653674 230.195168 
L 143.00259 230.195168 
L 143.351506 230.685692 
L 143.700421 227.655962 
L 144.049337 229.185258 
L 144.398253 226.126675 
L 144.747169 228.146495 
L 145.096085 227.136585 
L 145.445001 231.205078 
L 145.793917 231.205078 
L 146.142833 237.293392 
L 146.491749 232.734374 
L 146.840665 232.214988 
L 147.189581 229.185258 
L 147.538497 230.685692 
L 147.887412 229.675782 
L 148.236328 222.087034 
L 148.585244 229.675782 
L 148.93416 233.224898 
L 149.631992 228.146495 
L 149.980908 230.195168 
L 150.329824 230.195168 
L 150.67874 225.63615 
L 151.027656 226.64606 
L 151.376572 225.63615 
L 151.725488 230.685692 
L 152.074403 229.675782 
L 152.423319 229.675782 
L 152.772235 233.224898 
L 153.121151 234.754194 
L 153.470067 230.685692 
L 153.818983 234.234808 
L 154.167899 231.205078 
L 154.516815 234.754194 
L 154.865731 230.685692 
L 155.214647 229.675782 
L 155.563563 232.734374 
L 155.912479 230.195168 
L 156.261394 229.675782 
L 156.61031 226.64606 
L 156.959226 231.205078 
L 157.308142 227.655962 
L 157.657058 229.675782 
L 158.005974 230.195168 
L 158.35489 228.665872 
L 158.703806 225.63615 
L 159.052722 227.136585 
L 159.401638 227.136585 
L 159.750554 226.64606 
L 160.09947 233.224898 
L 160.448385 227.136585 
L 160.797301 226.126675 
L 161.146217 226.126675 
L 161.495133 228.146495 
L 161.844049 227.136585 
L 162.192965 230.685692 
L 162.541881 226.126675 
L 162.890797 225.116764 
L 163.239713 223.587469 
L 163.588629 227.136585 
L 163.937545 220.038352 
L 164.286461 218.537918 
L 164.635376 216.489236 
L 164.984292 224.106854 
L 165.333208 228.665872 
L 165.682124 227.655962 
L 166.03104 224.597379 
L 166.379956 231.695602 
L 166.728872 228.146495 
L 167.077788 231.695602 
L 167.77562 227.136585 
L 168.124536 230.195168 
L 168.473452 229.185258 
L 168.822367 229.185258 
L 169.171283 222.577558 
L 169.520199 223.096944 
L 169.869115 225.116764 
L 170.218031 228.665872 
L 170.566947 230.195168 
L 170.915863 228.146495 
L 171.264779 230.685692 
L 171.613695 226.126675 
L 171.962611 227.136585 
L 172.311527 225.116764 
L 172.660443 225.63615 
L 173.009358 220.038352 
L 173.358274 223.587469 
L 173.70719 223.096944 
L 174.405022 230.685692 
L 174.753938 229.185258 
L 175.102854 227.136585 
L 175.45177 226.126675 
L 176.149602 231.695602 
L 176.498518 230.195168 
L 176.847434 233.744284 
L 177.196349 229.185258 
L 177.545265 231.205078 
L 177.894181 230.685692 
L 178.243097 233.224898 
L 178.592013 232.214988 
L 178.940929 229.185258 
L 179.289845 230.685692 
L 179.638761 227.655962 
L 179.987677 227.655962 
L 180.336593 227.136585 
L 180.685509 227.655962 
L 181.034425 231.695602 
L 181.38334 232.734374 
L 181.732256 233.224898 
L 182.081172 228.665872 
L 182.430088 226.64606 
L 182.779004 226.126675 
L 183.12792 222.577558 
L 183.476836 225.63615 
L 183.825752 226.64606 
L 184.174668 231.695602 
L 184.523584 232.734374 
L 184.8725 230.685692 
L 185.221416 233.744284 
L 185.570331 232.734374 
L 186.268163 228.146495 
L 186.617079 232.214988 
L 186.965995 230.685692 
L 187.314911 232.734374 
L 187.663827 229.185258 
L 188.012743 227.655962 
L 188.361659 235.244719 
L 188.710575 231.205078 
L 189.059491 229.185258 
L 189.408407 222.577558 
L 189.757322 229.675782 
L 190.455154 227.655962 
L 190.80407 232.214988 
L 191.152986 233.224898 
L 191.501902 228.665872 
L 191.850818 226.126675 
L 192.199734 227.655962 
L 192.54865 226.126675 
L 192.897566 232.734374 
L 193.246482 231.205078 
L 193.595398 232.734374 
L 194.293229 228.146495 
L 194.642145 233.224898 
L 194.991061 232.734374 
L 195.339977 229.185258 
L 195.688893 224.106854 
L 196.037809 223.096944 
L 196.735641 231.695602 
L 197.084557 231.205078 
L 197.433473 231.205078 
L 197.782389 230.195168 
L 198.131304 226.64606 
L 198.48022 226.64606 
L 198.829136 223.587469 
L 199.178052 230.195168 
L 199.526968 229.675782 
L 199.875884 232.214988 
L 200.2248 224.106854 
L 200.573716 227.136585 
L 200.922632 228.146495 
L 201.271548 223.587469 
L 201.620464 229.185258 
L 201.96938 230.195168 
L 202.318295 226.64606 
L 202.667211 228.146495 
L 203.016127 228.146495 
L 203.365043 233.224898 
L 203.713959 228.146495 
L 204.062875 229.675782 
L 204.411791 228.146495 
L 204.760707 236.774014 
L 205.109623 226.126675 
L 205.458539 229.675782 
L 205.807455 227.136585 
L 206.156371 212.940137 
L 206.505286 232.214988 
L 206.854202 230.195168 
L 207.203118 246.901969 
L 207.552034 245.892058 
L 207.90095 239.832598 
L 208.249866 214.988802 
L 208.947698 231.695602 
L 209.296614 248.431264 
L 209.64553 248.950642 
L 210.343362 220.038352 
L 210.692277 221.077124 
L 211.041193 225.116764 
L 211.390109 235.764104 
L 211.739025 234.234808 
L 212.436857 226.126675 
L 212.785773 227.136585 
L 213.134689 224.597379 
L 213.483605 234.754194 
L 213.832521 232.214988 
L 214.181437 228.665872 
L 214.530353 228.146495 
L 214.879268 222.087034 
L 215.228184 226.126675 
L 215.5771 232.734374 
L 215.926016 226.126675 
L 216.274932 222.087034 
L 216.623848 220.557738 
L 216.972764 220.557738 
L 217.32168 229.185258 
L 217.670596 228.665872 
L 218.019512 233.224898 
L 218.368428 230.195168 
L 218.717344 229.185258 
L 219.066259 233.744284 
L 219.415175 234.754194 
L 219.764091 231.205078 
L 220.113007 231.695602 
L 220.461923 233.224898 
L 221.159755 229.185258 
L 221.508671 233.744284 
L 221.857587 231.205078 
L 222.206503 223.587469 
L 222.555419 223.096944 
L 223.25325 224.106854 
L 223.602166 228.146495 
L 223.951082 229.185258 
L 224.299998 227.136585 
L 224.648914 224.106854 
L 224.99783 226.64606 
L 225.346746 232.734374 
L 225.695662 236.774014 
L 226.044578 238.793835 
L 226.393494 230.195168 
L 226.74241 228.146495 
L 227.091326 227.136585 
L 227.440241 230.685692 
L 227.789157 227.655962 
L 228.138073 229.675782 
L 228.486989 228.665872 
L 228.835905 224.106854 
L 229.184821 230.195168 
L 229.533737 232.214988 
L 229.882653 235.764104 
L 230.231569 228.146495 
L 230.580485 231.205078 
L 230.929401 228.665872 
L 231.278317 224.106854 
L 231.627232 230.195168 
L 231.976148 234.234808 
L 232.325064 233.744284 
L 232.67398 232.734374 
L 233.371812 224.597379 
L 233.720728 226.64606 
L 234.069644 229.675782 
L 234.41856 230.685692 
L 234.767476 231.205078 
L 235.116392 227.136585 
L 235.465308 227.655962 
L 235.814223 228.665872 
L 236.163139 228.665872 
L 236.512055 226.64606 
L 236.860971 231.695602 
L 237.209887 229.675782 
L 237.558803 234.754194 
L 237.907719 230.685692 
L 238.256635 236.774014 
L 238.954467 231.205078 
L 239.303383 226.126675 
L 239.652299 231.205078 
L 240.35013 228.146495 
L 240.699046 227.136585 
L 241.396878 224.597379 
L 241.745794 227.655962 
L 242.09471 228.665872 
L 242.443626 233.224898 
L 242.792542 232.734374 
L 243.141458 231.205078 
L 243.490374 230.685692 
L 243.83929 232.734374 
L 244.188205 231.205078 
L 244.537121 230.685692 
L 245.234953 230.685692 
L 245.583869 229.675782 
L 245.932785 229.675782 
L 246.281701 232.214988 
L 246.979533 225.116764 
L 247.328449 227.655962 
L 247.677365 227.655962 
L 248.026281 229.185258 
L 248.375196 230.195168 
L 248.724112 234.234808 
L 249.073028 233.744284 
L 249.421944 231.205078 
L 250.119776 231.205078 
L 250.468692 225.116764 
L 251.166524 225.116764 
L 251.51544 226.64606 
L 251.864356 230.685692 
L 252.213272 232.734374 
L 252.911103 224.597379 
L 253.260019 219.028442 
L 253.608935 226.64606 
L 253.957851 224.597379 
L 254.306767 228.665872 
L 254.655683 228.665872 
L 255.004599 230.195168 
L 255.353515 228.665872 
L 256.051347 233.224898 
L 256.749178 231.205078 
L 257.098094 229.675782 
L 257.44701 228.665872 
L 257.795926 234.754194 
L 258.144842 227.655962 
L 258.493758 226.126675 
L 259.19159 230.195168 
L 259.540506 231.205078 
L 260.238338 230.195168 
L 260.587254 224.106854 
L 260.936169 226.126675 
L 261.285085 234.754194 
L 261.634001 237.783925 
L 261.982917 228.665872 
L 262.331833 232.734374 
L 262.680749 234.754194 
L 263.029665 239.313212 
L 263.378581 238.303302 
L 263.727497 232.214988 
L 264.425329 226.126675 
L 264.774245 227.655962 
L 265.12316 232.214988 
L 265.472076 230.195168 
L 265.820992 234.754194 
L 266.169908 229.185258 
L 266.518824 231.205078 
L 266.86774 227.136585 
L 267.216656 225.63615 
L 267.565572 228.146495 
L 267.914488 229.675782 
L 268.263404 230.685692 
L 268.61232 228.665872 
L 268.961236 230.195168 
L 269.310152 230.195168 
L 269.659067 231.695602 
L 270.007983 230.195168 
L 270.356899 226.64606 
L 270.705815 228.146495 
L 271.054731 231.695602 
L 271.403647 232.734374 
L 271.752563 232.214988 
L 272.101479 234.754194 
L 272.450395 233.224898 
L 272.799311 228.146495 
L 273.148227 231.695602 
L 273.497143 229.675782 
L 273.846058 237.783925 
L 274.194974 231.695602 
L 274.54389 229.675782 
L 274.892806 232.214988 
L 275.590638 232.214988 
L 275.939554 227.655962 
L 276.28847 229.675782 
L 276.637386 234.234808 
L 276.986302 229.675782 
L 277.335218 232.734374 
L 277.684134 233.224898 
L 278.033049 228.665872 
L 278.381965 228.665872 
L 278.730881 227.136585 
L 279.079797 228.665872 
L 279.428713 229.675782 
L 279.777629 226.64606 
L 280.126545 227.136585 
L 280.475461 226.64606 
L 280.824377 232.214988 
L 281.173293 227.655962 
L 281.522209 229.675782 
L 281.871125 227.655962 
L 282.22004 230.685692 
L 282.917872 218.018532 
L 283.266788 215.998712 
L 283.96462 223.096944 
L 284.313536 222.577558 
L 284.662452 221.567648 
L 285.011368 225.116764 
L 285.360284 223.587469 
L 285.7092 228.665872 
L 286.755947 223.096944 
L 287.104863 222.577558 
L 288.151611 228.146495 
L 288.500527 224.597379 
L 288.849443 222.577558 
L 289.198359 225.116764 
L 289.547275 220.557738 
L 289.896191 225.63615 
L 290.594022 214.469416 
L 290.942938 221.567648 
L 291.291854 232.734374 
L 291.64077 229.675782 
L 291.989686 225.63615 
L 292.338602 215.998712 
L 292.687518 218.018532 
L 293.036434 215.479326 
L 293.38535 219.547828 
L 293.734266 218.537918 
L 294.083182 221.077124 
L 294.432098 216.489236 
L 294.781013 216.489236 
L 295.129929 211.930227 
L 295.478845 217.528008 
L 295.827761 220.038352 
L 296.176677 220.038352 
L 296.525593 220.557738 
L 296.874509 219.547828 
L 297.223425 214.469416 
L 297.572341 217.008622 
L 297.921257 217.008622 
L 298.270173 221.077124 
L 298.619089 220.038352 
L 298.968004 224.106854 
L 299.31692 219.547828 
L 299.665836 218.537918 
L 300.014752 214.469416 
L 300.363668 214.469416 
L 300.712584 211.930227 
L 301.0615 217.528008 
L 301.410416 214.988802 
L 301.759332 218.537918 
L 302.108248 219.028442 
L 302.457164 216.489236 
L 302.80608 222.087034 
L 303.154995 222.577558 
L 303.852827 219.547828 
L 304.201743 214.469416 
L 304.550659 216.489236 
L 304.899575 217.008622 
L 305.248491 217.008622 
L 305.597407 215.998712 
L 305.946323 222.577558 
L 306.295239 221.567648 
L 306.644155 220.038352 
L 306.993071 215.998712 
L 307.341986 217.008622 
L 307.690902 224.597379 
L 308.039818 221.077124 
L 308.388734 221.567648 
L 308.73765 219.028442 
L 309.086566 224.597379 
L 309.435482 224.106854 
L 309.784398 222.087034 
L 310.133314 222.577558 
L 310.48223 219.547828 
L 310.831146 221.567648 
L 311.180062 221.077124 
L 311.528977 223.096944 
L 311.877893 218.537918 
L 312.575725 217.528008 
L 312.924641 220.557738 
L 313.273557 218.018532 
L 313.622473 222.087034 
L 314.320305 215.479326 
L 314.669221 215.479326 
L 315.018137 219.547828 
L 315.367053 221.567648 
L 315.715968 219.028442 
L 316.064884 218.018532 
L 316.4138 222.087034 
L 316.762716 219.028442 
L 317.111632 219.028442 
L 317.460548 212.940137 
L 317.809464 219.547828 
L 318.15838 218.537918 
L 318.507296 218.018532 
L 318.856212 214.988802 
L 319.205128 214.988802 
L 319.554044 215.998712 
L 319.902959 220.557738 
L 320.600791 214.988802 
L 320.949707 218.018532 
L 321.298623 223.587469 
L 321.647539 221.567648 
L 321.996455 218.018532 
L 322.345371 217.528008 
L 322.694287 223.587469 
L 323.043203 219.028442 
L 323.392119 217.008622 
L 323.741035 221.077124 
L 324.08995 219.547828 
L 324.438866 213.978892 
L 324.787782 213.978892 
L 325.136698 215.998712 
L 325.485614 216.489236 
L 325.83453 212.449596 
L 326.183446 206.361291 
L 326.532362 208.900497 
L 326.881278 213.459506 
L 327.230194 212.940137 
L 327.57911 215.998712 
L 327.928026 213.459506 
L 328.276941 208.381111 
L 328.625857 210.429775 
L 328.974773 209.391021 
L 329.323689 205.351381 
L 329.672605 209.391021 
L 330.021521 209.391021 
L 330.719353 212.940137 
L 331.068269 212.940137 
L 331.766101 206.361291 
L 332.115017 207.890587 
L 332.463932 207.371201 
L 332.812848 209.910407 
L 333.51068 204.341471 
L 333.859596 207.371201 
L 334.208512 202.292789 
L 334.557428 202.292789 
L 334.906344 200.792354 
L 335.604176 207.890587 
L 335.953092 205.351381 
L 336.302008 198.743673 
L 336.650923 199.782444 
L 336.999839 202.292789 
L 337.348755 203.33156 
L 337.697671 200.792354 
L 338.046587 201.802264 
L 338.395503 199.782444 
L 338.744419 201.282879 
L 339.093335 198.743673 
L 339.791167 195.713942 
L 340.140083 197.733762 
L 340.488999 202.292789 
L 340.837914 197.733762 
L 341.18683 196.723852 
L 341.884662 193.694122 
L 342.233578 196.723852 
L 342.582494 196.233328 
L 342.93141 194.704032 
L 343.280326 185.066611 
L 343.629242 191.154933 
L 344.327074 196.233328 
L 344.67599 186.076521 
L 345.024905 190.635548 
L 345.373821 186.595907 
L 345.722737 171.880074 
L 346.071653 188.125203 
L 346.420569 188.615727 
L 346.769485 207.371201 
L 347.467317 200.792354 
L 347.816233 179.497675 
L 348.165149 185.066611 
L 348.514065 186.595907 
L 348.862981 199.782444 
L 349.211896 204.341471 
L 349.560812 194.184664 
L 349.909728 177.477854 
L 350.258644 179.497675 
L 350.60756 172.39946 
L 350.956476 182.527405 
L 351.305392 184.056701 
L 351.654308 183.046791 
L 352.003224 181.026971 
L 352.35214 181.517495 
L 352.701056 179.497675 
L 353.049972 189.135113 
L 353.398887 188.125203 
L 354.096719 171.38955 
L 354.794551 184.576087 
L 355.143467 189.625637 
L 355.492383 185.066611 
L 355.841299 170.870164 
L 356.190215 166.830523 
L 356.539131 169.860254 
L 356.888047 174.41928 
L 357.236963 180.507585 
L 357.585878 180.507585 
L 357.934794 174.41928 
L 358.28371 174.938648 
L 359.330458 186.076521 
L 359.679374 186.076521 
L 360.02829 178.978289 
L 360.377206 176.4391 
L 360.726122 172.39946 
L 361.075038 171.38955 
L 361.423954 174.41928 
L 361.772869 169.860254 
L 362.121785 162.762021 
L 362.470701 168.330958 
L 362.819617 168.850344 
L 363.168533 172.39946 
L 363.517449 169.369729 
L 363.866365 167.321048 
L 364.215281 163.281407 
L 364.564197 163.281407 
L 364.913113 168.850344 
L 365.610945 168.850344 
L 365.95986 170.870164 
L 366.308776 170.37964 
L 366.657692 168.850344 
L 367.006608 171.38955 
L 367.355524 170.870164 
L 367.70444 166.830523 
L 368.053356 160.742201 
L 368.402272 160.742201 
L 368.751188 165.301227 
L 369.100104 164.291317 
L 369.44902 162.762021 
L 369.797936 169.369729 
L 370.146851 170.37964 
L 370.495767 172.918828 
L 370.844683 166.830523 
L 371.542515 163.771931 
L 371.891431 167.321048 
L 372.240347 168.850344 
L 372.589263 164.291317 
L 372.938179 167.321048 
L 373.287095 167.321048 
L 373.636011 163.771931 
L 373.984927 166.311137 
L 374.333842 166.311137 
L 375.031674 161.752111 
L 375.38059 161.752111 
L 375.729506 162.762021 
L 376.078422 162.762021 
L 376.427338 170.870164 
L 376.776254 167.840433 
L 377.12517 167.321048 
L 377.474086 165.820613 
L 377.823002 167.840433 
L 378.171918 166.311137 
L 378.520833 166.311137 
L 378.869749 171.880074 
L 379.218665 166.830523 
L 379.567581 169.369729 
L 379.916497 161.232725 
L 380.265413 165.820613 
L 380.963245 166.830523 
L 381.312161 166.311137 
L 381.661077 164.291317 
L 382.358909 167.321048 
L 382.707824 164.291317 
L 383.05674 170.870164 
L 383.405656 164.291317 
L 383.754572 164.291317 
L 384.103488 163.281407 
L 384.452404 166.311137 
L 384.80132 170.870164 
L 385.499152 167.840433 
L 385.848068 161.752111 
L 386.196984 161.752111 
L 386.5459 159.212905 
L 386.894815 161.752111 
L 387.243731 161.752111 
L 387.941563 162.762021 
L 388.639395 165.820613 
L 388.988311 165.301227 
L 388.988311 165.301227 
" style="fill:none;stroke:#ff7f0e;stroke-linecap:round;stroke-width:1.5;"/>
   </g>
   <g id="line2d_17">
    <path clip-path="url(#p63d0ddb3f7)" d="M 63.223967 289 
L 63.226437 -1 
M 66.189957 -1 
L 66.192122 289 
M 202.790472 289 
L 202.792936 -1 
M 205.756912 -1 
L 205.759084 289 
M 342.355942 289 
L 342.358396 -1 
M 345.320695 -1 
L 345.322849 289 
L 345.322849 289 
" style="fill:none;stroke:#2ca02c;stroke-linecap:round;stroke-width:1.5;"/>
   </g>
   <g id="patch_3">
    <path d="M 54 252 
L 54 34.56 
" style="fill:none;stroke:#cccccc;stroke-linecap:square;stroke-linejoin:miter;stroke-width:0.8;"/>
   </g>
   <g id="patch_4">
    <path d="M 388.8 252 
L 388.8 34.56 
" style="fill:none;stroke:#cccccc;stroke-linecap:square;stroke-linejoin:miter;stroke-width:0.8;"/>
   </g>
   <g id="patch_5">
    <path d="M 54 252 
L 388.8 252 
" style="fill:none;stroke:#cccccc;stroke-linecap:square;stroke-linejoin:miter;stroke-width:0.8;"/>
   </g>
   <g id="patch_6">
    <path d="M 54 34.56 
L 388.8 34.56 
" style="fill:none;stroke:#cccccc;stroke-linecap:square;stroke-linejoin:miter;stroke-width:0.8;"/>
   </g>
  </g>
 </g>
 <defs>
  <clipPath id="p63d0ddb3f7">
   <rect height="217.44" width="334.8" x="54" y="34.56"/>
  </clipPath>
 </defs>
</svg>
